<?xml version="1.0" standalone="no"?>
<!DOCTYPE svg PUBLIC "-//W3C//DTD SVG 1.1//EN" "http://www.w3.org/Graphics/SVG/1.1/DTD/svg11.dtd" >
<svg xmlns="http://www.w3.org/2000/svg">
<metadata></metadata>
<defs>
<font id="DrunkCRegular" horiz-adv-x="684" >
<font-face units-per-em="2048" ascent="1522" descent="-526" />
<missing-glyph horiz-adv-x="477" />
<glyph horiz-adv-x="0" />
<glyph horiz-adv-x="2048" />
<glyph unicode=" "  horiz-adv-x="477" />
<glyph unicode="&#x09;" horiz-adv-x="477" />
<glyph unicode="&#xa0;" horiz-adv-x="477" />
<glyph unicode="!" horiz-adv-x="696" d="M35 104l80 314l288 -74l-79 -313zM209 537l80 596l94 362l301 -78l-92 -362l-217 -561z" />
<glyph unicode="&#x22;" horiz-adv-x="872" d="M-25 1356l301 47l-24 -402l-133 -20zM356 1415l303 49l-24 -403l-133 -21z" />
<glyph unicode="#" horiz-adv-x="1705" d="M147 338l66 221l252 -39l96 301l-250 41l68 221l252 -39l96 302l211 -33l-98 -303l219 -33l98 301l209 -33l-96 -303l250 -39l-68 -221l-252 39l-96 -301l250 -41l-68 -221l-250 41l-98 -305l-211 34l98 303l-219 35l-98 -305l-211 35l98 303zM674 487l219 -34l98 301 l-219 34z" />
<glyph unicode="$" horiz-adv-x="1058" d="M39 1006q-9 101 10.5 181t55 128t86.5 80.5t97 46t95 18.5l-10 119l153 14l11 -118q77 2 142 -16.5t122 -62t94 -125.5t47 -196l-270 -26q-3 62 -34.5 116t-76.5 60l33 -353q113 -19 194.5 -58t130.5 -95t74 -121.5t33 -148.5q9 -91 -6.5 -168t-48.5 -130t-81 -92.5 t-100 -61t-110 -30.5l14 -151l-153 -15l-15 152q-93 -2 -166 18.5t-122.5 58t-86 97.5t-57.5 128t-35 157l271 24q46 -225 172 -235l-37 399q-213 45 -310.5 135t-115.5 271zM315 1042q7 -67 34.5 -98t86.5 -49l-28 315q-43 -10 -71 -52t-22 -116zM621 584l34 -369 q50 14 73.5 79t16.5 134q-4 64 -37.5 105.5t-86.5 50.5z" />
<glyph unicode="%" horiz-adv-x="1574" d="M158.5 1062q1.5 65 17.5 150q18 81 47.5 143t65.5 98t74 59.5t77.5 30.5t71 7t59.5 -6t56.5 -19t61.5 -38t56.5 -60t42 -86t17.5 -116t-17 -150q-18 -81 -48 -143t-66 -98t-74 -59.5t-77.5 -30.5t-70.5 -7t-59 6q-29 6 -57 19t-61.5 38t-57 60t-42 86t-17 116zM186 133 l1026 1239l191 -41l-1026 -1241zM365 976q17 -63 63 -73t91.5 43t72.5 172q14 64 15 114t-6 76.5t-21.5 44.5t-24.5 23t-20 8q-5 -1 -12.5 1t-19.5 -2.5t-24.5 -10.5t-27.5 -23t-28 -39t-26.5 -59t-23.5 -84q-25 -128 -8 -191zM782 259q1 61 17 130q18 81 47.5 143t65.5 98 t74 59.5t77.5 30.5t71 7t59.5 -6t56 -19t61 -38t56.5 -60t42 -86t17 -116t-17.5 -150q-15 -69 -40 -124.5t-53 -91.5t-61.5 -61.5t-65 -38t-65 -17.5t-59.5 -3.5t-49 6.5q-24 6 -48 16t-52.5 29t-52 43.5t-43 61.5t-29.5 81.5t-9 105.5zM979.5 204q5.5 -57 24 -86.5 t47.5 -35.5q45 -12 90.5 41t72.5 174q14 64 14.5 113t-6.5 75.5t-21 44.5t-24 23t-20 8q-5 4 -16.5 1t-25 -5t-30 -17.5t-32.5 -37t-32 -62t-28 -94.5q-19 -85 -13.5 -142z" />
<glyph unicode="&#x26;" horiz-adv-x="1130" d="M4 524q32 149 118 238t234 131q-68 148 -34 297q37 164 142.5 238.5t258.5 39.5q144 -32 199.5 -140.5t17.5 -278.5q-9 -43 -23.5 -79t-43 -78t-80 -78t-121.5 -62l94 -244q7 13 16 29l13.5 24t11 22t12.5 31l240 -53q-9 -31 -27 -71.5t-65 -111t-105 -124.5l137 -354 l-307 67l-45 123q-158 -119 -371 -74q-169 37 -241.5 179.5t-30.5 328.5zM278 393.5q2 -45.5 31 -85t80 -50.5q44 -10 93 3t83 52l-129 353q-50 -16 -85.5 -53t-48 -67.5t-19.5 -62.5q-7 -44 -5 -89.5zM553 1106q0 -21 1.5 -35t9 -38.5t12 -36.5l16.5 -44q64 27 97 62t46 96 q7 43 5.5 69.5t-16 43t-26 23t-24.5 9.5q-16 3 -29 0q-66 -11 -88 -108q-4 -20 -4 -41z" />
<glyph unicode="'" horiz-adv-x="485" d="M156 1452l307 -29l-123 -383l-135 13z" />
<glyph unicode="(" horiz-adv-x="673" d="M140 682q0 96 9 180.5t29.5 181t44 179.5t58.5 192l213 27q-47 -236 -66.5 -413t-18 -284.5t16.5 -224.5q23 -182 83.5 -372.5t211.5 -501.5l-213 -27q-158 247 -242 439.5t-114 428.5q-12 99 -12 195z" />
<glyph unicode=")" horiz-adv-x="677" d="M-143 -279q178 295 254.5 478.5t117.5 365.5q26 116 37.5 220.5t9 285t-27.5 418.5l211 -47q32 -141 49.5 -245.5t27 -223t0.5 -233.5t-36 -236q-53 -232 -154 -416t-280 -414z" />
<glyph unicode="*" horiz-adv-x="823" d="M143 1198l50 145l174 -86l14 228l151 -10l-14 -228l182 66l31 -152l-182 -67l98 -195l-119 -106l-102 198l-127 -184l-104 121l120 180z" />
<glyph unicode="+" horiz-adv-x="1378" d="M96 848l49 156l502 -162l162 501l156 -51l-162 -501l502 -162l-52 -156l-501 162l-162 -500l-156 51l162 500z" />
<glyph unicode="," d="M285 250l290 74l80 -314q5 -21 8 -35t8.5 -49t3.5 -62t-6 -64.5t-19.5 -67.5t-39 -60t-63.5 -52t-92 -34l-39 158q42 10 66.5 37.5t28.5 64t2.5 63t-7.5 52.5l-4 12l-137 -36z" />
<glyph unicode="-" horiz-adv-x="774" d="M133 639l500 47l22 -256l-499 -47z" />
<glyph unicode="." d="M-6 137l100 309l283 -92l-101 -309z" />
<glyph unicode="/" horiz-adv-x="700" d="M172 -424l254 1890l156 31l-252 -1892z" />
<glyph unicode="0" horiz-adv-x="1069" d="M7 976.5q2 75.5 18 139.5t36.5 107.5t52 80t58 57t62 38t55.5 24t47 13.5t47.5 10.5t60.5 5.5t73 -3t78.5 -22t84.5 -45t83.5 -77t82.5 -114.5t75.5 -160.5t67.5 -211q38 -148 48 -271.5t-1 -206t-42.5 -149t-64 -103t-79.5 -64.5t-74.5 -37.5t-62.5 -18.5 q-26 -7 -47.5 -11t-60.5 -6t-73 3t-79 21.5t-84.5 45t-84 77t-82.5 113.5t-75.5 160t-67.5 210q-29 116 -41.5 217.5t-10.5 177zM281.5 973q0.5 -54 10 -109.5t21 -107t22.5 -93.5q2 -7 3 -10q54 -215 106 -311q87 -164 207 -133q31 8 53.5 27t36 41.5t20 57.5t8.5 65t-3 74 t-9 73t-14.5 75t-16 67t-15.5 61q-54 213 -104 308q-87 166 -208 136q-45 -11 -72.5 -44t-36.5 -78t-8.5 -99z" />
<glyph unicode="1" horiz-adv-x="1181" d="M311 115l281 968l-260 74l47 164l47 -14q40 -14 90.5 -9t98 22t91.5 57t70 96l221 -64l-399 -1378z" />
<glyph unicode="2" horiz-adv-x="1075" d="M61 16l2 58q3 109 35.5 192t95.5 155t179 165q37 30 89.5 71.5t75.5 60t57 47.5t47.5 45t31.5 40.5t24 45.5t11 48.5t6 61.5q12 215 -162 221q-25 1 -46 -2.5t-47.5 -17.5t-45.5 -37.5t-33 -68.5t-16 -106l-3 -51l-276 10v43q3 79 17.5 145t37.5 112t53.5 84t64.5 60 t70 39.5t71 23.5t67.5 11.5t58.5 3t45 -0.5q61 -1 114.5 -11t115.5 -40t105 -78t70.5 -134t24.5 -200q-3 -104 -29.5 -179.5t-99.5 -158t-206 -174.5q-125 -88 -176.5 -137t-75.5 -109l561 -16l-8 -248z" />
<glyph unicode="3" horiz-adv-x="1067" d="M-4 1096.5q4 52.5 21.5 97.5t36 76t49.5 58t55.5 42.5t61.5 30t59 20.5l55 15q20 5 38 9t51 8t62 4t67 -5.5t70.5 -17.5t68 -35.5t63.5 -56t53 -82t41 -111.5q33 -133 -11 -221.5t-130 -139.5l4 -10q51 5 97 -3.5t93.5 -35.5t86 -85.5t61.5 -145.5q111 -426 -332 -537 q-50 -13 -92 -19.5t-96.5 -6.5t-99.5 12t-95 41t-89.5 75.5t-75.5 121t-60 172.5l274 69q19 -72 45 -121t51 -73t57 -33.5t55.5 -8t53.5 8.5q82 21 117 80t4 178q-16 63 -42.5 100.5t-59 47t-55.5 9t-52 -7.5l-125 -32l-59 229l100 25q165 42 119 217q-43 176 -209 137 q-28 -7 -45 -15t-37.5 -28.5t-28 -50t-6.5 -82t17 -123.5l-260 -68q-19 80 -25 149.5t-2 122z" />
<glyph unicode="4" horiz-adv-x="1058" d="M27 338l8 254l567 840l299 -9l-27 -862l140 -4l-8 -250l-140 4l-10 -319l-299 8l10 319zM264 580l311 -11l15 498z" />
<glyph unicode="5" horiz-adv-x="1071" d="M12 1319l742 166l53 -244l-543 -121l33 -284q81 96 235 129q68 18 125.5 12.5t104 -20.5t85 -47t67 -67.5t51 -81t37 -88t24.5 -89.5q22 -99 22.5 -183t-15 -143.5t-47 -108t-65.5 -79t-80 -54.5t-81.5 -35.5t-77.5 -21.5q-42 -9 -78.5 -13.5t-85 -3.5t-89.5 11.5 t-86.5 36.5t-81.5 65.5t-68.5 103t-53.5 146.5l279 62q6 -36 20.5 -68t39.5 -60t66 -39.5t91 -0.5q28 7 45 13t41.5 28t35 54t10.5 92t-17 140q-60 264 -234 224q-121 -26 -135 -136l-277 -61z" />
<glyph unicode="6" horiz-adv-x="1073" d="M66 674q-12 196 10 342.5t64 229t109 134t127 68.5t136 22q92 5 166.5 -14.5t122 -54.5t82.5 -84.5t52 -97.5t26 -101l-261 -16q-9 61 -58.5 91.5t-125.5 25.5q-40 -3 -73.5 -19.5t-63.5 -53.5t-43.5 -108.5t-5.5 -169.5q85 105 231 115q106 6 189.5 -25.5t138 -94.5 t85.5 -149.5t38 -193.5q6 -97 -3.5 -177t-30.5 -136t-54 -99t-69 -69.5t-81.5 -44t-85.5 -25t-86 -10.5q-35 0 -72 -2t-75 7t-75.5 21t-73.5 39.5t-68.5 63t-61 91.5t-50.5 125t-37.5 163.5t-22.5 206.5zM354 477q5 -86 27.5 -145t56.5 -85t65.5 -35t67.5 -7q20 1 37 4.5 t47 20.5t49.5 45.5t32.5 86t8 134.5q-1 29 -6.5 59.5t-20 70t-36.5 69t-61 48t-89 15.5q-36 -2 -67 -15.5t-59.5 -43.5t-42.5 -87t-9 -135z" />
<glyph unicode="7" horiz-adv-x="1058" d="M102 96q36 125 109 273t147 256q193 277 476 483l6 20l-662 170l64 242l946 -242l-60 -227q-275 -196 -462 -471q-82 -122 -158 -285t-107 -297z" />
<glyph unicode="8" horiz-adv-x="1064" d="M-7.5 1043q-1.5 54 15.5 115t53.5 112.5t106 96t166.5 69.5q101 28 181.5 19.5t139 -34t101.5 -72t68 -94t38 -100.5q14 -61 13.5 -122t-28 -121.5t-79.5 -98.5q127 -25 195.5 -97.5t99.5 -193.5q18 -70 19.5 -133t-9.5 -110.5t-35.5 -89.5t-50.5 -71t-63 -54.5 t-64.5 -40t-62.5 -27.5t-50.5 -17.5t-35.5 -9.5q-21 -5 -36 -8.5t-52.5 -8.5t-68.5 -5.5t-76 4.5t-81.5 17.5t-78.5 38t-74.5 61.5t-61.5 91.5t-47 125.5q-19 77 -18 144.5t34 131.5t101 121q-94 13 -157 85t-87 169q-14 53 -15.5 107zM262 1012.5q2 -15.5 6 -31.5 q25 -95 85 -129.5t134 -15.5q75 20 111.5 79t11.5 154q-2 9 -5.5 18.5t-12 27t-19 30t-27.5 27.5t-37.5 20.5t-49 9t-62.5 -7.5q-46 -12 -76.5 -36t-42.5 -47.5t-15 -53t-1 -45zM388.5 429.5q2.5 -25.5 8.5 -50.5q8 -30 20.5 -56.5t33.5 -54t48.5 -43t65 -23t84.5 6.5 q55 15 90 46t46.5 70.5t11 77.5t-10.5 76q-4 17 -10 33.5t-16.5 38t-24.5 38.5t-33.5 34.5t-43.5 25t-55 10.5t-68 -8q-49 -12 -81.5 -38.5t-46.5 -55.5t-17.5 -65.5t-1 -62z" />
<glyph unicode="9" horiz-adv-x="1075" d="M51 903q-34 536 408 563q32 4 65.5 1.5t67.5 -5t68.5 -15t67.5 -29t64 -46.5t59 -67.5t52.5 -92.5t43.5 -121t32.5 -152.5t19.5 -188.5q12 -197 -10.5 -343.5t-64.5 -228.5t-110 -133.5t-128 -68t-137 -21.5q-92 -6 -166.5 13.5t-122 53.5t-82.5 83.5t-52 97.5t-26 102 l260 17q9 -62 59.5 -93t125.5 -26q96 6 144 83.5t42 248.5v18q-85 -103 -231 -113q-208 -13 -322 114.5t-127 348.5zM315 928q2 -50 14.5 -95t36.5 -85.5t66 -63.5t96 -20q196 13 179 282q-4 70 -20.5 122t-38.5 81t-51.5 45.5t-54.5 21t-53 3.5q-15 -1 -25 -2.5t-31.5 -9 t-37 -18.5t-33.5 -33t-28.5 -51t-16.5 -75t-2 -102z" />
<glyph unicode=":" d="M109 944l288 74l80 -313l-289 -74zM285 250l290 74l80 -314l-290 -73z" />
<glyph unicode=";" d="M100 930l287 84l90 -312l-289 -84zM299 242l287 84l90 -312q6 -21 11 -41t10.5 -59t4 -72.5t-12.5 -75.5t-33.5 -74.5t-65 -62t-101.5 -45.5l-45 156q42 12 66 40.5t27 64.5t0.5 63.5t-9.5 52.5l-4 10l-135 -39z" />
<glyph unicode="&#x3c;" horiz-adv-x="1265" d="M53 645v172l1037 600l84 -143l-945 -543l945 -543l-84 -143z" />
<glyph unicode="=" horiz-adv-x="1378" d="M25 846l1185 264l37 -160l-1186 -264zM113 444l1187 267l35 -160l-1188 -266z" />
<glyph unicode="&#x3e;" horiz-adv-x="1265" d="M-74 1098l47 159l1151 -325l43 -166l-856 -836l-116 115l780 760z" />
<glyph unicode="?" horiz-adv-x="956" d="M43 961q-4 94 9 169.5t35.5 126t59 87.5t71 57.5t81.5 33t80 16t76 5.5q38 1 72.5 -1t78.5 -10.5t81 -23.5t74 -43t63 -65.5t43.5 -94t19.5 -126.5q2 -59 -9 -110.5t-26.5 -86t-43 -69.5t-46.5 -53t-51 -45t-43 -38q-96 -92 -84 -229l-234 -6l-4 55q-11 183 107 297 q9 9 40.5 39t44 45.5t32 44.5t26.5 60.5t6 70.5q-2 51 -16.5 84t-38.5 47t-43.5 18.5t-44.5 4.5q-35 -2 -60 -13t-45.5 -37.5t-29.5 -77t-5 -124.5zM322 315l299 11l10 -324l-299 -8z" />
<glyph unicode="@" horiz-adv-x="1976" d="M90 442q-30 197 14 378t147 318.5t259 231t344 123.5q185 30 339 3.5t276.5 -95t212.5 -173t146 -230.5t79 -269q24 -150 -20.5 -278t-138.5 -206t-218 -98q-80 -12 -120 -3q-61 13 -103 67q-1 -1 -2 -3t-2 -3q-24 -50 -94 -92t-179 -60q-119 -18 -213.5 12.5t-146 81 t-88.5 125t-48 118.5t-18 87q-22 136 10 255.5t118.5 202.5t213.5 103q165 26 264 -43l-6 52l244 36l98 -624q8 -51 19.5 -74.5t26 -25t34.5 0.5q71 11 115 63.5t52.5 123t-1.5 149.5q-15 94 -44 176t-69 144.5t-89.5 113t-106.5 85.5t-119 58.5t-127.5 34t-131.5 10 t-132 -10.5q-109 -17 -202.5 -60t-161.5 -104t-120.5 -138.5t-79 -164t-36 -180.5t7.5 -187q14 -92 43.5 -172t70 -141.5t91 -112.5t107.5 -85t120 -59.5t127.5 -35t130.5 -12t129 9.5q210 35 365 178l120 -156q-101 -90 -205 -138t-249 -71q-182 -28 -335.5 -2t-276 93.5 t-213 171t-148 230.5t-80.5 271zM760.5 611.5q-4.5 -52.5 5.5 -95.5q6 -37 16 -70t30 -72t46.5 -65t69 -39.5t94.5 -5.5q41 6 72 25.5t49 42t28 56.5t14 58t3 58.5t-2 46t-4 31.5q-9 53 -24 97t-43 87t-74.5 62.5t-106.5 9.5q-61 -10 -101.5 -45.5t-54 -82t-18 -99z" />
<glyph unicode="A" horiz-adv-x="1062" d="M-90 33l518 1405l301 -19l340 -1456l-313 19l-56 270l-389 24l-90 -262zM385 516l270 -16l-100 544z" />
<glyph unicode="B" horiz-adv-x="1210" d="M55 1372l586 55q32 3 61 3q54 0 99 -10q70 -16 112.5 -48.5t71 -80.5t40.5 -93.5t17 -97.5q2 -19 2 -36q0 -94 -44 -162q-52 -82 -138 -116v-8q16 -2 32 -5t45 -13t54 -24.5t54 -40.5t51 -59.5t38.5 -84t22.5 -111.5q3 -32 3 -62q0 -61 -14 -113q-20 -76 -58 -122.5 t-97.5 -78t-118 -45t-129.5 -19.5l-557 -53zM377 1122l29 -284l233 22q55 4 83 49q23 37 22 87q0 11 -1 22q-4 43 -20 71.5t-39 40.5q-22 11 -42 14q-12 2 -25 2q-8 0 -17 -1zM430 575l31 -325l260 24q59 7 95 51q29 36 29 96q0 13 -1 28q-7 89 -53 122q-37 27 -100 27 q-15 0 -32 -2z" />
<glyph unicode="C" horiz-adv-x="1193" d="M37 888q2 82 16.5 153.5t46.5 140t80.5 121.5t123 93t169.5 58q70 13 133 14h10q57 0 103 -10q50 -11 94 -29.5t78 -45.5t62 -55.5t49 -63.5t36.5 -65t26.5 -63t17.5 -56t11.5 -46l-287 -55q-21 72 -50.5 118t-62.5 66q-33 19 -73 25q-14 2 -29 2q-26 0 -53 -6 q-188 -38 -187 -310q0 -97 23 -225q16 -85 39 -152.5t48 -111t54.5 -74t56.5 -45.5t56.5 -21.5t51 -5.5t44.5 5q97 18 141 87q35 56 35 165q0 25 -2 53l291 55q5 -54 5 -104q0 -201 -81 -328q-101 -158 -348 -203q-74 -14 -141 -14q-444 0 -562 623q-14 80 -21 154 q-5 58 -5 120v36z" />
<glyph unicode="D" horiz-adv-x="1263" d="M8 129l266 1409l498 -96q27 -5 50 -11t65.5 -21.5t77 -35t77 -54t73 -76t58 -103t39.5 -133.5q11 -62 11 -142v-26q-2 -97 -23 -207q-21 -107 -52 -195.5t-67 -151t-81 -110t-87.5 -76t-93.5 -46.5t-93 -24.5t-90.5 -6.5t-82.5 4.5t-72 11.5zM352 346l154 -29 q36 -7 69 -7q238 0 310 376q19 100 19 179q0 271 -218 311l-170 32z" />
<glyph unicode="E" horiz-adv-x="1091" d="M100 1415l932 29l8 -279l-634 -18l10 -291l561 16l8 -264l-561 -16l10 -322l651 21l9 -279l-951 -28z" />
<glyph unicode="F" horiz-adv-x="980" d="M61 47l134 1428l856 -80l-27 -279l-557 53l-31 -325l473 -45l-26 -277l-473 45l-52 -547z" />
<glyph unicode="G" horiz-adv-x="1304" d="M40 622q9 119 44 259q17 66 39 126.5t52 122.5t68 113.5t84 97.5t104 77t123 48q59 15 130 15h16q81 -2 170 -25q45 -11 84 -25.5t79.5 -35.5t72 -47.5t61.5 -62.5t48 -80t31 -99q12 -49 12 -105v-17q-2 -66 -11 -146l-303 77q10 46 10 84q0 149 -155 189q-40 11 -76 11 q-228 0 -332 -408q-37 -150 -37 -254q0 -69 16 -117q41 -122 183 -160q37 -11 70 -11q18 0 34 3q47 9 80.5 27.5t59 52.5t41 67t26.5 72l-221 57l66 252l501 -129l-194 -751l-223 57l36 147h-4q-55 -63 -119 -93q-59 -28 -115 -28h-8q-60 2 -126 17q-53 13 -98 30t-99.5 50 t-94 76t-73 111.5t-46.5 152.5q-9 52 -9 116q0 41 3 86z" />
<glyph unicode="H" horiz-adv-x="1239" d="M35 1350l295 36l67 -534l383 49l-67 535l297 37l180 -1422l-297 -39l-78 613l-383 -50l76 -608l-295 -39z" />
<glyph unicode="I" horiz-adv-x="552" d="M78 1413l295 19l90 -1430l-297 -16z" />
<glyph unicode="J" horiz-adv-x="970" d="M8 377q1 47 2 92l4 88l297 -18l-4 -58q-2 -36 -2 -66q0 -82 17 -119q25 -49 94 -54h14q34 0 54 12q24 16 39.5 66t21.5 147l59 960l299 -18l-57 -913q-9 -146 -33.5 -243.5t-75 -167.5t-133.5 -99q-66 -22 -157 -22q-22 0 -46 1q-79 5 -142.5 25t-104.5 50t-71.5 69 t-44.5 82.5t-23 90.5q-8 41 -8 82q0 6 1 13z" />
<glyph unicode="K" horiz-adv-x="1179" d="M14 1331l293 47l92 -583l316 647l356 57l-362 -659l620 -752l-356 -57l-424 540l-90 -155l71 -453l-294 -45z" />
<glyph unicode="L" horiz-adv-x="954" d="M-8 1329l291 57l217 -1134l524 100l53 -274l-819 -154z" />
<glyph unicode="M" horiz-adv-x="1589" d="M82 49l88 1432l408 -25l200 -950l318 917l407 -26l-90 -1428l-299 19l60 917h-5l-315 -903l-213 12l-201 936h-4l-57 -919z" />
<glyph unicode="N" horiz-adv-x="1284" d="M43 84l178 1423l301 -39l299 -895l19 -2l106 844l297 -37l-180 -1421l-299 39l-301 899l-19 2l-106 -850z" />
<glyph unicode="O" horiz-adv-x="1304" d="M49 765v14q0 51 6 120q7 79 25 148.5t57 143.5t94 128.5t143 94t199 50.5q37 4 72 3q71 -1 134 -15q94 -22 159 -65.5t117 -108.5t83 -130t53 -141.5t31.5 -131t14.5 -109.5q5 -54 6 -110v-14q-1 -52 -7 -122q-8 -80 -25.5 -148.5t-56 -142.5t-94 -128.5t-143.5 -94 t-200 -49.5q-34 -3 -67 -3q-74 0 -139 16q-94 22 -159 65.5t-117 108.5t-82.5 130t-52.5 140.5t-31 131t-14 109.5q-5 55 -6 110zM368 881q-3 -31 -3 -65q0 -60 8 -132q11 -123 36.5 -211.5t56 -135.5t71.5 -72.5t76 -30.5q19 -3 41 -3q17 0 36 2q25 2 46.5 7t46.5 16t44 28 t38.5 44t30.5 63.5t21 86.5q8 42 8 93v21q-2 64 -7 143q-10 112 -31.5 195t-50 134t-67.5 80.5t-79 38.5q-28 6 -61 6q-14 0 -29 -1q-49 -4 -87 -21t-71 -52.5t-49.5 -92.5t-24.5 -141z" />
<glyph unicode="P" horiz-adv-x="1144" d="M-27 162l353 1388l532 -135q62 -16 112.5 -39t95 -56.5t74.5 -79.5q30 -44 46 -100q15 -50 14 -113v-15q-2 -72 -24 -156q-23 -89 -59 -157t-75 -108.5t-87.5 -65t-90.5 -33.5q-38 -8 -83 -8h-9q-50 1 -83.5 6.5t-70.5 15.5l-235 59l-123 -477zM453 836l190 -50 q36 -9 66 -9q45 0 77 21q54 35 80 134q10 39 10 71t-5 53.5t-19 39t-26 27t-32 17.5t-29.5 10.5t-27.5 6.5l-190 49z" />
<glyph unicode="Q" horiz-adv-x="1304" d="M56 628q-2 28 -2 56q0 37 3 72q4 55 11 107.5t26 131t47 143.5t78 133t113.5 113.5t157.5 71.5q75 20 161 20q23 0 47 -1q89 -5 164 -29.5t128.5 -60t96 -85.5t69.5 -101t46 -112.5t28 -114t12 -110.5q4 -52 4 -89v-10q-1 -40 -3 -81q-3 -47 -9 -95.5t-24 -135.5 t-58 -170.5t-97 -143.5l121 -168l-146 -157l-137 198q-49 -30 -115 -41q-41 -7 -98 -7q-36 0 -78 3q-88 6 -162.5 29.5t-129 60.5t-98 86t-70.5 106t-47.5 120t-27.5 128.5t-11 132.5zM377 737q-3 -50 -3 -94q0 -64 6 -117q12 -91 35 -143t60 -84.5t71.5 -43.5t76.5 -13 q17 -1 31 -1q24 0 42 3q28 5 56 26l-136 185l127 135l121 -180q49 91 60 292q3 68 3 124q0 9 -1 18q0 63 -11.5 112.5t-24 86t-33 63t-40 43.5t-44.5 27.5t-46.5 15t-46.5 6.5q-13 1 -26 1q-27 0 -50 -5q-35 -6 -75.5 -33.5t-69.5 -76t-51.5 -137t-30.5 -210.5z" />
<glyph unicode="R" horiz-adv-x="1189" d="M43 78l178 1423l594 -76q80 -10 142.5 -35t100.5 -59.5t65 -78t36 -90t13 -96.5q1 -15 0 -29q0 -34 -5 -66q-6 -54 -25.5 -108t-51 -104t-80.5 -81t-107 -31l-2 -12q70 -16 104 -52.5t36 -82.5v-22q0 -40 -5 -91q-6 -66 -18 -131q-8 -45 -8 -99q0 -23 1 -48 q5 -82 33 -154l-296 37q-19 48 -20 90v7q0 41 9 116q10 82 13 149v13q0 41 -11 72q-13 36 -28.5 53.5t-42.5 29t-39.5 13.5t-32.5 4l-193 24l-65 -522zM436 825l221 -28q21 -1 44 -3h7q20 0 40 8q24 8 44.5 23.5t36 48.5t21.5 80q3 28 3 51q1 25 -3 45q-8 39 -30.5 61 t-51.5 33t-74 17l-211 27z" />
<glyph unicode="S" horiz-adv-x="1101" d="M20 1056q0 44 9 97t37.5 98.5t73.5 87.5t121.5 73.5t176.5 47.5q54 8 103 8q57 0 105 -10q92 -20 143.5 -59.5t89 -100.5t51 -104t22.5 -92l-282 -45q-10 50 -34 80.5t-52.5 38.5t-59.5 10.5t-55 -4.5q-77 -12 -115 -47q-29 -27 -29 -79q0 -17 3 -36q10 -70 62 -100 t177 -39q187 -15 293.5 -56.5t157 -114.5t69.5 -200q11 -64 10 -121q0 -361 -429 -426q-80 -9 -156 -11q-4 0 -9 -1q-71 0 -137 24q-70 25 -126.5 70.5t-98.5 131t-61 204.5l301 47q7 -53 22 -91t38 -58.5t44 -32t51 -13t48 -0.5t45 5t47.5 9t47 17.5t42.5 29.5q18 18 26 48 q5 17 4 37q0 16 -3 33q-7 43 -27.5 73.5t-40.5 46.5t-66 28t-69 15.5t-84 9.5l-27 3q-118 14 -193.5 37t-130 66.5t-83.5 108t-45 165.5q-8 45 -8 86q1 2 1 5z" />
<glyph unicode="T" horiz-adv-x="989" d="M-27 1417l994 31l8 -279l-348 -10l37 -1155l-299 -8l-37 1153l-346 -10z" />
<glyph unicode="U" horiz-adv-x="1241" d="M37 1370l297 29l78 -832q14 -140 43 -215.5t76 -103.5q39 -23 99 -23q13 0 27 2q79 7 121 43t56 116q8 42 8 102q0 53 -6 118l-78 834l297 26l84 -886q8 -61 8 -119q0 -17 -1 -34q-3 -74 -15.5 -140t-46 -123t-84.5 -100t-131 -72t-185 -39q-58 -4 -107 -4q-7 1 -13 1 q-54 0 -101 12.5t-85 27.5t-69.5 41t-56.5 53.5t-44.5 64t-34 73t-25 81.5t-17.5 87.5t-12 92.5z" />
<glyph unicode="V" horiz-adv-x="993" d="M-27 1448l338 -10l187 -1008l241 993l328 -10l-436 -1419l-314 8z" />
<glyph unicode="W" horiz-adv-x="1513" d="M98 133l62 1464l303 -77l-84 -1024l430 934l266 -68l-74 -1026l418 938l303 -78l-649 -1311l-311 80l78 1034l-430 -946z" />
<glyph unicode="X" horiz-adv-x="1118" d="M-147 115l534 657l-233 746l342 -66l112 -514l293 436l342 -63l-491 -609l258 -804l-361 67l-125 539l-313 -457z" />
<glyph unicode="Y" horiz-adv-x="1013" d="M-180 1325l325 61l344 -571l107 658l317 61l-229 -950l102 -535l-292 -53l-103 530z" />
<glyph unicode="Z" horiz-adv-x="1036" d="M-145 170l82 283l796 665l-532 154l78 268l884 -258l-69 -246l-822 -698l607 -174l-78 -266z" />
<glyph unicode="[" horiz-adv-x="731" d="M12 1319l445 115l47 -183l-209 -53l356 -1391l209 54l47 -183l-446 -112z" />
<glyph unicode="\" horiz-adv-x="700" d="M166 1495l153 -39l136 -1902l-156 38z" />
<glyph unicode="]" horiz-adv-x="737" d="M55 1421l459 15l57 -1811l-460 -14l-7 188l215 6l-45 1434l-213 -6z" />
<glyph unicode="^" horiz-adv-x="806" d="M172 1235l238 235l401 -116l78 -326l-182 53l-125 226l-230 -123z" />
<glyph unicode="_" horiz-adv-x="782" d="M233 -287l811 234l46 -156l-811 -235z" />
<glyph unicode="`" horiz-adv-x="462" d="M-211 1364l279 63l170 -239l-222 -49z" />
<glyph unicode="a" horiz-adv-x="997" d="M102 683q0 7 -1 15q0 40 11 90q13 58 44.5 106t97.5 91.5t160 67.5q62 16 116 20q22 2 41 2q29 0 54 -4q41 -6 77 -21.5t60.5 -34t46 -46t34.5 -50t24.5 -53t16.5 -49t11 -43.5l113 -461q26 -108 47 -144t49 -38l4 -14l-272 -70l-35 96l-8 -2q-28 -79 -91.5 -130.5 t-144.5 -73.5q-63 -13 -111 -15h-8q-44 0 -80 15q-40 16 -68 36.5t-49.5 52t-34.5 61.5t-22 65q-13 50 -13 94t9.5 79.5t30.5 66.5t46.5 55.5t61 46.5t70.5 39t78 34q108 43 131 60q28 22 28 61q0 9 -1 18q-1 6 -2 13q-2 5 -4.5 14.5t-4.5 14.5q-25 108 -107 108 q-19 0 -42 -6q-17 -4 -31 -10t-32.5 -20t-26 -34.5t-11.5 -53.5q-1 -8 -2 -17q0 -27 11 -60l-258 -65q-11 47 -13 93zM448 294q0 -21 7 -44q26 -95 102 -96q17 0 37 6q11 3 23.5 10.5t29.5 21.5t30 37.5t22 53.5q8 26 8 62q-1 6 -1 13q-2 45 -14 97l-12 49q-8 -4 -14.5 -8.5 t-12.5 -9l-10 -7.5q-43 -27 -96 -51q-14 -7 -23.5 -12.5t-23 -15t-21.5 -18.5t-16.5 -23t-11.5 -29q-3 -13 -3 -30v-6z" />
<glyph unicode="b" horiz-adv-x="1056" d="M-37 1321l273 51l90 -469q43 133 206 166q45 9 87 9q55 0 103 -16q86 -26 146 -92.5t99.5 -159t62.5 -212.5q18 -95 20 -178v-19q0 -73 -14 -141q-16 -76 -51 -133.5t-96 -98t-146 -55.5q-35 -7 -66 -7q-47 0 -85 16q-64 26 -125 102l-8 -2l14 -121l-244 -47zM378 622 q0 -65 15 -147q12 -61 28.5 -111t44.5 -104q28 -56 72 -82q32 -19 70 -19q14 0 29 3q130 25 130 213q0 72 -19 168q-13 69 -31.5 123t-39 86.5t-43.5 56t-45 31.5q-21 8 -43 12q-9 2 -17 2q-12 0 -23 -4q-25 -5 -46 -17t-41 -39.5t-31 -67.5q-11 -38 -11 -98q1 -3 1 -6z" />
<glyph unicode="c" horiz-adv-x="972" d="M7 449q2 75 18 161q19 104 52 185t70.5 132.5t86 86t92.5 50.5t96 20q29 3 53 2q19 0 37 -2q38 -4 80 -11q322 -62 322 -388q0 -42 -5 -89l-262 49q3 31 3 57q0 41 -8 71q-12 49 -36 69t-63 28q-16 6 -37 3t-42 -8t-43.5 -25.5t-42.5 -51t-38.5 -84.5t-32.5 -124 q-19 -103 -18 -179q0 -195 121 -219q14 -3 28 -2q24 0 44 8q32 12 53.5 42t36 64.5t26.5 80.5l270 -51q-6 -25 -14 -50.5t-27 -68.5t-44.5 -76t-64.5 -71.5t-88 -56t-115 -29.5q-25 -4 -51 -4q-45 0 -95 12q-23 5 -42 9.5t-53.5 17t-62 27.5t-61 42t-58 59t-46 79.5 t-31.5 103.5q-8 47 -8 107v24z" />
<glyph unicode="d" horiz-adv-x="1060" d="M55 489q-2 32 -2 63q1 50 5 98q6 76 29.5 152t63.5 132t108 93t157 42q13 1 25 1q62 0 105 -18q51 -20 116 -79l-31 465l278 16l90 -1429l-249 -17l-17 125h-10q-28 -78 -90.5 -125t-149.5 -53q-14 -1 -27 -1q-66 0 -122 20q-68 24 -116.5 72.5t-83.5 117t-54.5 150 t-24.5 175.5zM342 504q2 -37 6.5 -71.5t13.5 -76t24.5 -74.5t36 -61.5t51.5 -42.5q27 -12 60 -12h9q159 11 159 288q0 34 -2 72q-6 105 -27.5 177.5t-51.5 105.5q-29 33 -59 45q-24 10 -50 11q-6 0 -12 -1q-25 -1 -47.5 -10t-46 -33.5t-39 -63t-23.5 -103.5q-4 -39 -4 -85 q0 -31 2 -65z" />
<glyph unicode="e" horiz-adv-x="1019" d="M41 537q7 264 141 406q129 136 339 136h18q63 -2 117.5 -15.5t115.5 -52.5t103 -101q42 -64 68 -172q23 -94 23 -213q0 -18 -1 -38l-2 -57l-639 21q0 -11 -1 -22q-1 -57 9 -101q10 -52 28 -81.5t44 -47.5t48.5 -23t49.5 -6h8q52 0 90 23q40 25 62 104l278 -8 q-17 -65 -43 -116.5t-56 -85t-68 -58.5t-72.5 -37.5t-76.5 -19.5q-42 -6 -74 -8q-19 -1 -40 -1h-29q-42 2 -78.5 7t-84.5 20.5t-86 39.5t-77 68t-64 102t-39 144q-12 71 -12 156q0 18 1 37zM330 625l350 -11q0 77 -11.5 128.5t-33.5 78.5t-49 37.5t-64 11.5h-4 q-52 0 -91 -24q-40 -26 -59.5 -69t-27.5 -79t-10 -73z" />
<glyph unicode="f" horiz-adv-x="612" d="M0 840l6 209l152 -5l4 132q5 142 84 205q74 59 228 59h20l25 -2q25 -3 55.5 -7t62.5 -10l-6 -211q-63 19 -107 19h-3q-46 0 -63 -33q-18 -33 -20 -84l-2 -76l187 -6l-7 -209l-186 6l-27 -829l-278 6l27 832z" />
<glyph unicode="g" horiz-adv-x="1067" d="M47 545q2 86 15.5 161.5t44 147t76.5 122t117 79.5q64 26 144 26h17q29 0 57 -5.5t64 -20t66.5 -49t47.5 -84.5h9l4 114l266 -8l-31 -944q-8 -260 -112 -377q-98 -110 -312 -110h-26q-401 10 -406 337l270 -8q1 -38 16.5 -64.5t39.5 -37.5t44.5 -15t43.5 -4q13 -3 29.5 0 t34 6.5t34.5 20t31 40.5t23.5 69t11.5 104l2 102h-6q-84 -118 -226 -118h-12q-24 1 -42.5 2.5t-61.5 12.5t-76 29.5t-73.5 57.5t-66.5 91.5t-43 135.5q-14 71 -14 157v30zM332 553v-29q0 -283 170 -288h10q20 0 38 3q22 4 47.5 22t43.5 49.5t31.5 90t15.5 138.5v33 q0 57 -5 102q-7 57 -25.5 102.5t-53.5 69.5t-86 26h-5q-31 0 -58 -12q-29 -13 -56.5 -45.5t-45 -99t-21.5 -162.5z" />
<glyph unicode="h" horiz-adv-x="1026" d="M-90 190l440 1364l264 -86l-145 -452q57 45 141 52q18 1 34 1q63 0 116 -20q68 -22 110 -56.5t64 -92.5q17 -42 17 -100q0 -22 -2 -44q-8 -86 -46 -203l-201 -619l-264 84l185 574q16 48 25 82t14 71.5t-1 62.5t-24.5 46t-50.5 31q-24 8 -45.5 8t-39.5 -7t-34 -19 t-30 -30t-25.5 -37t-22 -43.5t-19 -46.5t-16.5 -48l-182 -558z" />
<glyph unicode="i" horiz-adv-x="471" d="M51 14l64 1039l276 -17l-63 -1036zM119 1202l16 244l285 -19l-14 -243z" />
<glyph unicode="j" horiz-adv-x="434" d="M-66 1411l283 45l39 -239l-285 -46zM0 1024l274 43l170 -1075q9 -59 10 -108q1 -8 1 -16q0 -39 -7 -69q-7 -36 -18 -64t-29 -47.5t-35 -32.5t-40 -21.5t-39.5 -12.5t-38.5 -8q-76 -11 -141 -11q-15 0 -29 1l-35 209q29 -4 41 -2q47 8 68 31t19.5 57t-7.5 79z" />
<glyph unicode="k" horiz-adv-x="933" d="M-76 156l398 1376l266 -76l-219 -762l358 312l311 -91l-432 -301l172 -704l-309 90l-100 457l-88 -64l-93 -315z" />
<glyph unicode="l" horiz-adv-x="475" d="M49 1417l275 17l90 -1432l-277 -14z" />
<glyph unicode="m" horiz-adv-x="1521" d="M35 74l96 1036l260 -25l-10 -112q35 63 101 99q54 30 121 30q15 0 30 -2q38 -3 67.5 -12.5t62 -29.5t59 -60t44.5 -97q44 69 117 114q61 38 145 38q17 0 35 -2q36 -3 65.5 -11t60 -23.5t52 -39.5t41 -60t28.5 -84q8 -47 12 -111q1 -20 2 -41q0 -47 -7 -103l-59 -627 l-277 26l58 607q5 74 7 132v7q0 53 -20 87q-22 37 -71 42q-6 1 -13 1q-45 0 -76 -32q-36 -36 -52 -92t-23 -135l-57 -594l-277 25l57 608q7 89 7 133q0 18 -1 29q-10 99 -94 106q-6 1 -12 1q-126 0 -147 -259l-58 -596z" />
<glyph unicode="n" horiz-adv-x="1026" d="M-90 190l319 990l254 -82l-28 -90q83 61 183 61q58 0 122 -20q101 -33 147 -97q44 -61 44 -152v-8q-2 -96 -48 -239l-201 -619l-264 84l185 574q16 48 25 82t14 71.5t-1 62.5t-24.5 46t-50.5 31q-24 8 -45.5 8t-39.5 -7t-34 -19t-30 -30t-25.5 -37t-22 -43.5t-19 -46.5 t-16.5 -48l-182 -558z" />
<glyph unicode="o" horiz-adv-x="1032" d="M41 537q3 123 34 222.5t89 173t150 111.5q84 35 190 35h22q119 -4 208.5 -48t143 -121t78.5 -178q22 -87 22 -190q0 -17 -1 -34q-8 -256 -131 -404q-117 -141 -336 -141h-21q-118 4 -207 48t-142 121.5t-78 179.5q-22 88 -22 191q0 17 1 34zM326 528q-1 -21 -1 -41 q-1 -63 7 -113q10 -66 26 -103.5t41 -60.5t48 -31t51 -9h7q25 0 45 6q24 6 49 28t43.5 58.5t31.5 101.5t16 152q1 21 1 42q0 309 -173 312h-7q-25 0 -45 -6q-24 -6 -49 -27.5t-43.5 -58t-31.5 -100.5t-16 -150z" />
<glyph unicode="p" horiz-adv-x="1056" d="M-180 -188l393 1359l252 -71l-35 -121l6 -2q71 103 190 103q46 0 99 -15q59 -17 105 -47.5t74 -66.5t46.5 -82t26 -89t7.5 -92q1 -7 1 -13q0 -42 -3 -75q-4 -37 -12 -79t-13 -62.5t-11 -42.5q-27 -92 -63.5 -166t-78.5 -124.5t-89 -84t-98 -48t-102.5 -14.5t-104.5 15 q-141 39 -201 160l-121 -420zM292 376q0 -60 27 -104t80 -59q21 -7 40 -7q10 0 19 2q28 5 51.5 16.5t44.5 35.5t38 49.5t32 59.5t26.5 65t21.5 66q28 100 32 175q1 14 1 26q0 57 -15 91q-18 41 -41 62.5t-53 30.5q-14 5 -30 5h-10q-22 -2 -45 -7.5t-48 -27t-48 -52.5 t-46.5 -83t-42.5 -120q-17 -57 -26 -110q-9 -51 -9 -108q0 -3 1 -6z" />
<glyph unicode="q" horiz-adv-x="1062" d="M-29 390v21q0 69 11 131q13 70 38 146q22 67 48.5 126t64 116t81.5 96t99 66.5t118 27.5q1 1 3 1q62 0 135 -21q89 -28 141 -92t54 -144h6l37 119l244 -80l-437 -1347l-266 86l139 428q-73 -51 -159 -51q-47 0 -99 16q-91 30 -150 86.5t-82.5 122t-25.5 146.5zM293 604 q-41 -130 -41 -218q0 -139 104 -173q24 -8 48 -8q25 0 48 9q46 19 80.5 66t59 98.5t45.5 115.5q31 98 37 172q2 20 2 37q0 48 -12 79q-17 43 -39.5 65.5t-53.5 33.5q-20 6 -40 7h-3q-19 0 -41 -7q-24 -7 -48.5 -26.5t-49 -50.5t-49.5 -82t-47 -118z" />
<glyph unicode="r" horiz-adv-x="692" d="M35 969l270 51l27 -133q15 95 74 148.5t165 74.5l43 8l39 -209q-7 0 -75 -10q-45 -9 -78 -27.5t-54.5 -43t-33.5 -60t-16 -71.5q-2 -22 -2 -49v-36q2 -48 8.5 -92t17.5 -102l80 -418l-273 -51z" />
<glyph unicode="s" horiz-adv-x="905" d="M31 328h284q-1 -11 0 -20q0 -138 142 -138q127 0 127 111q0 77 -39.5 103t-188.5 54q-61 12 -109.5 30t-80 37.5t-54 46t-34.5 49t-18 54t-7.5 52.5t-1.5 53q0 25 2 47.5t11.5 56.5t25 61.5t45.5 57t71 50t103.5 33.5t139.5 13q39 0 70 -2t72.5 -9.5t72.5 -20.5t64 -37.5 t55 -57.5t36.5 -84t16.5 -114h-254q-2 38 -12 62.5t-28 35.5t-35 14.5t-42 3.5q-127 0 -127 -90q0 -40 9 -64.5t39 -40.5t50.5 -21.5t79.5 -16.5q13 -3 19 -4q69 -13 113 -25t90.5 -35t72.5 -55t42.5 -83t16.5 -120q0 -28 -1.5 -50t-10 -61t-23 -68.5t-45 -64t-72.5 -57 t-108 -38t-149 -15.5q-105 0 -184 21.5t-126 56.5t-75.5 84.5t-37.5 98.5q-7 40 -7 86v20z" />
<glyph unicode="t" horiz-adv-x="616" d="M-4 831v209h151v312h279v-312h178v-209h-178v-499q0 -30 1 -46.5t5 -38t13 -32t25 -18t40 -7.5q34 0 94 25v-213q-126 -31 -221 -31q-49 0 -87.5 11t-63 27t-41.5 43.5t-25.5 49.5t-13 58t-5 55t-0.5 53v3.5v2.5v557h-151z" />
<glyph unicode="u" horiz-adv-x="1026" d="M12 326q2 78 25 180l141 637l271 -62l-132 -587q-12 -53 -17.5 -90t-5.5 -73.5t8.5 -60t28 -41t50.5 -24.5q18 -4 35 -5q19 0 36 6q32 10 53.5 32t39.5 60t28 72t21 81l127 571l272 -61l-227 -1014l-272 59l20 88q-70 -55 -136 -71q-31 -8 -66 -8q-40 0 -85 10 q-49 11 -86 30t-68.5 55t-46.5 87q-14 46 -14 115v14z" />
<glyph unicode="v" horiz-adv-x="813" d="M-90 985l295 39l246 -686l67 725l297 37l-174 -1071l-299 -35z" />
<glyph unicode="w" horiz-adv-x="1263" d="M-117 872l287 74l285 -598l-43 660l258 65l280 -598l-39 662l291 73l-4 -1075l-278 -72l-281 594l39 -655l-277 -70z" />
<glyph unicode="x" horiz-adv-x="876" d="M-72 29l342 518l-264 518l313 -18l119 -347l162 328l313 -20l-327 -482l276 -555l-311 19l-135 362l-178 -344z" />
<glyph unicode="y" horiz-adv-x="882" d="M-68 -303l41 213q29 -29 86 -41q26 -5 45.5 1.5t37 29.5t24 34.5t22.5 47.5q3 7 5 10l22 45l-164 1079l322 -61l49 -686l258 626l291 -55l-492 -1020q-4 -8 -11 -23q-12 -26 -19 -39.5t-20 -39t-23.5 -40t-26 -37t-30.5 -35t-34.5 -28t-40.5 -23.5t-46 -14q-22 -6 -49 -6 q-2 0 -4 1q-29 0 -60 6q-90 17 -183 55z" />
<glyph unicode="z" horiz-adv-x="831" d="M-115 106l45 199l568 516l-398 88l45 205l709 -158l-45 -198l-565 -518l448 -101l-45 -200z" />
<glyph unicode="{" horiz-adv-x="888" d="M215 612l39 185q38 -7 71 10t54 43.5t37.5 64t24 62.5t12.5 49q17 77 19.5 100.5t21.5 108.5q18 83 51 141t72 86.5t86.5 39.5t91.5 6.5t92 -19.5l-33 -143q-32 1 -59 -13.5t-42.5 -34t-27.5 -45.5t-16.5 -40t-6.5 -25q-4 -20 -11.5 -58t-10.5 -55q-1 -6 -23 -125 q-27 -118 -87 -180t-167 -92l-6 -25q85 -71 113.5 -153.5t1.5 -200.5q-15 -61 -33 -123q-21 -78 -28 -110q-2 -12 -4 -25.5t-2 -42.5t6 -52.5t24 -48t47 -36.5l-30 -144q-41 5 -76 16.5t-70 32t-58.5 50t-40.5 72.5t-16.5 98t13.5 127q19 86 26.5 107t24.5 97 q8 32 11.5 67.5t2 86t-25 89t-68.5 52.5z" />
<glyph unicode="|" horiz-adv-x="894" d="M322 -442l65 2152l160 -4l-68 -2155z" />
<glyph unicode="}" horiz-adv-x="892" d="M-86 -139l41 139q39 -3 71.5 16t51 48.5t27.5 50t12 32.5q13 40 28 113q26 106 29 123q34 115 98.5 173.5t171.5 82.5l9 23q-79 78 -101.5 158.5t8.5 203.5q6 20 19.5 60t19.5 61q27 72 37 108q3 10 6 25t4.5 43t-3.5 52.5t-21.5 50.5t-44.5 40l41 142q41 -8 75.5 -22 t68 -36t56 -54.5t36 -74.5t10.5 -99.5t-23 -125.5q-25 -84 -34.5 -105.5t-31.5 -97.5q-6 -20 -10 -39.5t-9 -52.5t-3 -62t9 -58.5t27.5 -52.5t51.5 -34l-53 -180q-38 9 -72 -5.5t-56.5 -40t-42 -62t-28.5 -61.5t-16 -48q-20 -72 -24 -96t-30 -111q-100 -339 -405 -227z" />
<glyph unicode="~" horiz-adv-x="827" d="M72 596q6 49 20 92t38.5 84t67 64t97.5 20q57 -4 129 -39q67 -41 90 -41q22 -1 34.5 18.5t14.5 39.5l191 -11q-5 -43 -19.5 -86t-40.5 -85.5t-69 -68t-97 -22.5q-56 5 -127 39q-10 4 -27 12.5l-25 12.5t-19.5 7.5t-20.5 4.5q-44 2 -55 -51z" />
<glyph unicode="&#xa9;" horiz-adv-x="1595" d="M78 741q4 146 64.5 276.5t159 224t233 146t282.5 48.5q148 -5 279 -66.5t223.5 -160.5t144 -233t47.5 -280q-6 -195 -106 -356t-268 -252t-365 -86q-197 6 -358.5 107.5t-251 269t-84.5 362.5zM250 735q-4 -117 36 -224.5t110.5 -185t170 -125t209.5 -50.5q110 -4 212 37 t178 114t122.5 177.5t50.5 221.5q7 238 -147 409t-379 179q-148 4 -275.5 -67.5t-205 -200.5t-82.5 -285zM463 731q3 90 27 159t58.5 109.5t81 66t89.5 33.5t88 7q47 -2 93 -15.5t89 -40.5t69 -76t25 -114l-159 6q0 42 -29.5 72t-91.5 33q-57 2 -94 -36.5t-50.5 -90.5 t-15.5 -119q-4 -126 43 -180t113 -56q60 -3 91.5 34.5t35.5 82.5l168 -6q-12 -63 -36.5 -109t-53.5 -72.5t-67 -42t-72 -19.5t-74 -3q-67 2 -121 20.5t-89 49.5t-60 68t-37 80.5t-17 82t-4 76.5z" />
<glyph unicode="&#xab;" horiz-adv-x="854" d="M55 461l35 282l311 277l-39 -305l-157 -129l121 -164l-39 -305zM424 414l35 284l311 275l-37 -305l-158 -129l121 -164l-39 -305z" />
<glyph unicode="&#xad;" horiz-adv-x="774" d="M133 639l500 47l22 -256l-499 -47z" />
<glyph unicode="&#xae;" horiz-adv-x="1595" d="M82 592q-30 192 37.5 369t215.5 298t343 152q194 31 372 -38.5t297.5 -217.5t149.5 -340q30 -193 -37.5 -370.5t-215.5 -298t-343 -150.5t-373 39t-297 216.5t-149 340.5zM252 618q24 -154 117 -272.5t228.5 -173t281.5 -31.5q145 22 257 116t163.5 235t27.5 296 t-117 273t-228.5 173t-281.5 32t-257.5 -117t-163.5 -235.5t-27 -295.5zM473 1022l313 49q63 10 112.5 -0.5t79.5 -36.5t46.5 -57.5t22.5 -67.5q17 -116 -89 -186v-4q103 -6 129 -162q3 -13 7.5 -36.5t6.5 -31t5.5 -23t6 -21t7.5 -15t10 -16t13 -13.5l-174 -26 q-21 19 -33.5 46.5t-15.5 52.5t-7 52.5t-10 47.5t-24.5 36.5t-49.5 19t-86 -4.5l-34 -4l45 -281l-168 -27zM662 926l28 -183l88 15q25 4 47 13t41 35t13 64q-7 50 -43.5 63.5t-102.5 2.5z" />
<glyph unicode="&#xbb;" horiz-adv-x="851" d="M16 152l39 305l154 129l-119 162l39 305l233 -342l-36 -285zM383 104l39 306l156 129l-119 163l37 306l233 -344l-35 -285z" />
<glyph unicode="&#x401;" horiz-adv-x="1091" d="M102 16l43 1434l934 -31l-8 -278l-635 20l-10 -291l561 -16l-8 -264l-561 16l-10 -321l651 -21l-8 -276zM305 1579l6 217l246 -8l-6 -217zM694 1567l6 217l246 -8l-6 -215z" />
<glyph unicode="&#x402;" horiz-adv-x="1372" d="M150 125l321 1110l-317 92l77 266l977 -282l-78 -269l-372 109l-84 -289q86 -15 209 -47q44 -13 80.5 -27t80.5 -39.5t76.5 -55t60.5 -74.5t40 -98t8 -126t-29 -157q-22 -75 -55 -133.5t-70 -94t-81 -58.5t-84.5 -32t-84 -9.5t-76.5 5t-65 14.5q-67 18 -154 74l76 268 q74 -53 127 -69q21 -8 48 -6t52 10.5t47.5 36t34.5 69.5q57 186 -145 244q-84 24 -174 35l-160 -551z" />
<glyph unicode="&#x403;" horiz-adv-x="915" d="M102 14l43 1432l795 -25l-8 -278l-496 16l-37 -1155zM346 1575l121 266l289 -8l-183 -264z" />
<glyph unicode="&#x404;" horiz-adv-x="1271" d="M34 839.5q-3 120.5 15 204t58 151.5t83.5 108.5t103.5 72t104.5 46t99.5 26.5q74 16 141.5 17.5t120 -9.5t99.5 -33t81.5 -49t64.5 -62t50.5 -67t37 -68.5t26 -63t16.5 -52.5l-297 -68q-21 60 -51 100.5t-59.5 59t-66 25.5t-63 5t-57.5 -9q-253 -62 -191 -396l428 96 l58 -256l-428 -96l8 -35q7 -31 16 -58.5t24 -57.5t34 -53t45 -44.5t58 -31t72 -13t87 8.5q26 6 47 13.5t45.5 20t41.5 29.5t34 42t23.5 56.5t10.5 74t-6 93.5l295 66q6 -36 9 -74t0 -97.5t-16 -113.5t-44 -115t-78.5 -110t-125.5 -91.5t-179 -64.5q-57 -13 -109 -17.5 t-117 1.5t-121 27.5t-116.5 67.5t-109.5 114t-93.5 174t-74.5 241q-31 144 -34 264.5z" />
<glyph unicode="&#x405;" horiz-adv-x="1101" d="M45 999q-34 423 442 467q85 8 155.5 -3t118.5 -34.5t86.5 -60.5t60.5 -73t37.5 -80t21.5 -74.5t10 -63.5l-283 -26q-22 157 -194 137q-77 -7 -117.5 -39.5t-32.5 -112.5q6 -71 55.5 -103.5t174.5 -51.5q185 -26 288.5 -74t149.5 -124t59 -204q3 -35 3.5 -66t-3 -70.5 t-11.5 -73t-24 -71t-39.5 -68t-59 -60t-80 -51t-106 -37.5t-134.5 -23q-66 -9 -131 -3.5t-123.5 19t-110.5 48t-91.5 84.5t-67 128.5t-36.5 178.5l302 28q3 -46 14 -81.5t25 -57.5t35 -37t39.5 -22t43 -9.5t40.5 -1.5t38 3q35 3 61.5 9.5t57.5 22.5t46 49.5t11 81.5 q-4 43 -20.5 74t-40 50t-59.5 32t-70.5 20.5t-81.5 15.5l-10.5 1.5t-9.5 1.5t-11 2q-228 40 -319 123.5t-109 279.5z" />
<glyph unicode="&#x406;" horiz-adv-x="552" d="M20 51l222 1415l297 -47l-226 -1415z" />
<glyph unicode="&#x407;" horiz-adv-x="552" d="M-270 1663l239 53l49 -213l-241 -53zM-33 1354l289 65l313 -1399l-293 -63zM111 1747l237 53l47 -211l-239 -53z" />
<glyph unicode="&#x408;" horiz-adv-x="970" d="M84 397l287 84l16 -55q37 -131 77 -170t105 -20q43 13 60.5 36.5t14.5 76t-30 145.5l-268 923l289 84l254 -880q51 -178 53.5 -306.5t-68 -214t-223.5 -129.5q-77 -22 -143.5 -24.5t-116 10.5t-91.5 41.5t-70.5 61.5t-53 78.5t-39 85t-28.5 87.5z" />
<glyph unicode="&#x409;" horiz-adv-x="1890" d="M-80 125l35 276q23 -10 57 -14q24 -6 49 -2t48.5 13.5t47 40.5t44 78.5t39.5 128t34 188.5l95 677l872 -110l-65 -516l251 -33q75 -9 136 -31.5t102.5 -53.5t71.5 -71.5t46.5 -83t24 -91.5t7 -94.5t-6.5 -94.5q-28 -225 -145 -319t-352 -64l-547 67l145 1145l-293 37 l-71 -493q-10 -70 -19 -121.5t-29 -123.5t-44 -122.5t-65 -103.5t-91 -83.5t-122 -45t-159 -3.5q-41 5 -96 23zM1096 254l196 -25q21 -2 34.5 -2.5t38.5 1.5t42 11.5t36 26t31 47t17 72.5q4 27 4 49.5t-3.5 40.5t-10.5 32t-16 24.5t-22.5 19t-26.5 14t-31 9.5t-34 6.5 t-38 5.5l-172 22z" />
<glyph unicode="&#x40a;" horiz-adv-x="1849" d="M-18 1214l290 64l117 -524l379 84l-119 524l293 65l113 -507l248 55q66 15 124 16.5t104 -9.5t85.5 -30t70 -48.5t55 -61.5t43 -71.5t31 -77t21.5 -79.5q48 -222 -29.5 -350.5t-308.5 -179.5l-536 -119l-136 600l-376 -84l133 -600l-291 -65zM1116 649l78 -348l192 43 q14 3 24.5 6t27 8.5t28 13.5t25 19t21.5 27t13.5 35.5t4.5 46t-8 57.5q-10 47 -27.5 77.5t-37.5 45t-50 18t-55.5 0.5t-65.5 -12z" />
<glyph unicode="&#x40b;" horiz-adv-x="1351" d="M-49 1389l1014 63l18 -276l-389 -25l18 -303q152 23 244 29q80 5 140.5 -1.5t116 -31.5t92.5 -70t61 -120t30 -179l29 -436l-299 -19l-22 345q-7 139 -54 187t-149 42q-81 -3 -170 -25l35 -569l-297 -18l-74 1148l-326 -20z" />
<glyph unicode="&#x40c;" horiz-adv-x="1110" d="M78 1397l297 18l37 -600h8l323 623l342 22l-417 -684l534 -745l-356 -23l-418 676h-8l45 -698l-299 -19zM406 1552l94 277l288 18l-157 -280z" />
<glyph unicode="&#x40e;" horiz-adv-x="1017" d="M-193 1282l338 88l402 -618l6 723l311 79l-80 -1198q-5 -90 -24 -157t-42.5 -107t-62 -68.5t-70.5 -41.5t-79 -25q-84 -21 -189 -18l-69 274q60 -16 133 4q34 9 55.5 31.5t28 47.5t9.5 50t-1 39zM-55 1749l202 53q16 -67 61 -90.5t95 -11.5t79.5 55t10.5 109l203 53 q5 -28 5.5 -57t-5 -65t-23 -69.5t-45.5 -65.5t-76.5 -58.5t-111.5 -42.5q-55 -14 -103.5 -15.5t-84.5 6.5t-67.5 25t-53 37t-39.5 45.5t-28.5 47t-18.5 44.5z" />
<glyph unicode="&#x40f;" horiz-adv-x="1267" d="M102 18l43 1434l299 -10l-36 -1153l415 -15l37 1156l299 -11l-45 -1429l-373 10l-12 -408l-268 9l12 407z" />
<glyph unicode="&#x410;" horiz-adv-x="1062" d="M16 -45l293 1464l303 29l562 -1387l-312 -28l-98 260l-387 -37l-49 -272zM412 504l270 24l-184 523z" />
<glyph unicode="&#x411;" horiz-adv-x="1189" d="M78 1395l915 57l19 -278l-621 -39l17 -254l262 16q24 2 44.5 2.5t56 -2t66 -9t68.5 -20.5t68.5 -35.5t62 -55.5t54 -77.5t38.5 -105t21 -135.5q-1 -20 1 -46t-2.5 -56.5t-10 -63t-21.5 -66t-35.5 -64.5t-53 -59t-75 -49.5t-100 -36t-127.5 -18.5l-559 -35zM426 604 l20 -344l205 12q96 6 140 44.5t38 129.5q-3 49 -17.5 83.5t-35 51t-46 26.5t-49.5 9t-46 0z" />
<glyph unicode="&#x412;" horiz-adv-x="1210" d="M82 39l88 1429l590 -36q90 -5 156.5 -32.5t103 -66t57.5 -91t25.5 -99.5t1.5 -99q-7 -115 -71.5 -186.5t-155.5 -93.5v-8q15 -4 30.5 -9.5t42.5 -20t49.5 -32.5t47 -48.5t41 -67t25.5 -89.5t5 -114q-7 -99 -39 -171t-77 -111.5t-109 -61.5t-123 -26.5t-131 -0.5zM395 297 l262 -16q60 -3 103 34.5t47 118.5q6 89 -34.5 129t-125.5 45l-231 15zM432 887l236 -17q55 -3 89.5 37.5t39.5 104.5q7 136 -123 147l-223 12z" />
<glyph unicode="&#x413;" horiz-adv-x="915" d="M78 1403l790 49l19 -278l-496 -31l74 -1151l-299 -19z" />
<glyph unicode="&#x414;" horiz-adv-x="1275" d="M-164 -213l80 594l111 -16q127 171 190.5 349t104.5 437l51 328l854 -136l-180 -1140l159 -25l-108 -592l-262 43l49 320l-738 114l-51 -317zM342 313l408 -63l137 866l-277 43l-26 -168q-38 -248 -98.5 -406t-143.5 -272z" />
<glyph unicode="&#x415;" horiz-adv-x="1091" d="M55 1378l928 88l27 -278l-633 -60l29 -288l557 53l26 -264l-559 -54l31 -319l647 61l27 -276l-947 -88z" />
<glyph unicode="&#x416;" horiz-adv-x="1570" d="M-160 1276l334 63l424 -514l8 2l-108 574l293 55l108 -573l8 2l207 633l336 65l-315 -739l598 -668l-347 -65l-440 577l-8 -2l121 -637l-293 -55l-123 637l-8 -2l-199 -697l-344 -65l309 838z" />
<glyph unicode="&#x417;" horiz-adv-x="1200" d="M-22.5 493q5.5 82 34.5 175l279 -82q-30 -140 10 -211t164 -107q116 -33 177 2t85 119q11 38 12 69.5t-8.5 53.5t-22.5 38t-33.5 27t-36.5 17.5t-36 11.5l-172 51l74 252l143 -41q15 -4 25 -6.5t30 -5.5t35 -1.5t35 8t35 19.5t29.5 36t23.5 55t9 59.5t-6.5 48t-19.5 38 t-27 28.5t-33 21t-33 15.5t-31 10.5q-25 7 -39 10.5t-38 5.5t-39.5 -2t-37.5 -15t-38.5 -31t-35 -53t-34.5 -77l-283 82q95 260 240.5 337t398.5 5q86 -25 153 -59.5t109.5 -70.5t70 -79.5t39.5 -83t13.5 -83.5t-3.5 -78.5t-15 -71.5q-8 -26 -16.5 -47.5t-25 -51.5 t-40.5 -52.5t-55.5 -43t-77.5 -31.5t-101 -10l-2 -6q132 -84 169 -182t-7 -242q-21 -71 -52.5 -125t-72 -86.5t-83 -54t-93.5 -28t-93.5 -7.5t-93.5 7.5t-83.5 15.5t-73.5 18q-51 14 -95.5 32t-94.5 48t-88 65.5t-69.5 88t-45.5 113t-8.5 142.5z" />
<glyph unicode="&#x418;" horiz-adv-x="1280" d="M-43 1251l289 74l225 -883l191 990l288 73l355 -1388l-289 -74l-230 893l-188 -999l-287 -74z" />
<glyph unicode="&#x419;" horiz-adv-x="1280" d="M43 84l178 1423l297 -39l-115 -903l541 850l295 -37l-180 -1421l-295 39l115 911l-543 -860zM438 1835l209 -27q-4 -31 1.5 -60t33 -58t76.5 -35q37 -4 66 6.5t44.5 31t23.5 41t11 42.5l209 -27q-8 -60 -33 -105.5t-61.5 -70.5t-75 -41t-80 -20t-70.5 -4t-53 3 q-30 4 -64.5 13t-83 33t-84 57.5t-57 91.5t-12.5 129z" />
<glyph unicode="&#x41a;" horiz-adv-x="1110" d="M-29 158l355 1388l288 -73l-147 -584l6 -2l502 493l332 -84l-611 -520l279 -874l-344 90l-189 768l-8 2l-174 -678z" />
<glyph unicode="&#x41b;" horiz-adv-x="1280" d="M-168 205l78 268q14 -7 57 -22q23 -7 40.5 -9.5t42 1.5t44.5 17.5t45.5 42.5t49.5 74t51.5 114t54.5 159l199 655l843 -245l-399 -1375l-287 82l322 1108l-285 82l-145 -477q-17 -53 -30 -91t-34.5 -92t-42.5 -92.5t-51.5 -83.5t-62.5 -74.5t-75 -55.5t-90 -36.5t-106 -8 t-125 21.5q-45 12 -94 37z" />
<glyph unicode="&#x41c;" horiz-adv-x="1589" d="M10 160l266 1409l400 -78l82 -967l430 871l399 -76l-266 -1407l-295 55l172 903l-4 2l-426 -858l-209 41l-80 953l-4 2l-172 -906z" />
<glyph unicode="&#x41d;" horiz-adv-x="1239" d="M-6 1305l293 55l100 -531l379 74l-100 529l295 55l268 -1407l-295 -55l-115 604l-381 -72l117 -604l-295 -55z" />
<glyph unicode="&#x41e;" horiz-adv-x="1304" d="M47 635q5 80 14.5 133.5t22.5 108.5q10 40 22.5 80t34.5 93.5t47.5 101.5t62.5 99t79 91.5t97.5 74t117 50.5t139 17t162.5 -22q108 -27 189.5 -80t127.5 -115.5t73 -141.5t34 -150t2.5 -150.5t-14 -134t-23.5 -108.5q-11 -40 -23.5 -79.5t-34.5 -93.5t-48 -101.5 t-63 -99t-79 -92t-97.5 -74t-117 -50.5t-139 -17.5t-162.5 21.5q-108 27 -188.5 80t-126.5 115.5t-72.5 142t-34 150.5t-2.5 151zM356.5 586q-5.5 -92 7 -147t43 -93t61.5 -54.5t73 -27.5q28 -7 53 -9.5t56.5 2.5t58.5 19.5t57.5 44.5t57 74.5t52.5 112t48 154.5 q35 135 39.5 233.5t-20.5 158t-65 92t-100 48.5q-46 9 -89 8.5t-85 -25.5t-78.5 -69.5t-70.5 -123t-62 -187.5q-31 -119 -36.5 -211z" />
<glyph unicode="&#x41f;" horiz-adv-x="1255" d="M102 18l43 1434l1002 -31l-45 -1431l-299 10l37 1151l-404 12l-37 -1153z" />
<glyph unicode="&#x420;" horiz-adv-x="1144" d="M-43 184l397 1379l527 -154q429 -124 301 -569q-134 -457 -570 -332l-233 67l-137 -473zM457 844l188 -56q91 -26 145 7t82 133q11 38 12.5 70t-2 53t-18 39.5t-24 27.5t-31.5 19t-29.5 12t-27.5 8l-189 53z" />
<glyph unicode="&#x421;" horiz-adv-x="1193" d="M42.5 750.5q-4.5 74.5 0.5 156.5t22 153t51.5 139t84.5 119t125.5 89t171.5 53q136 22 245 -5.5t170 -77.5t105.5 -126t60.5 -127t25 -104l-289 -45q-36 138 -100.5 182t-161.5 29q-256 -40 -178 -529q12 -75 29.5 -137t38 -105t43 -75.5t47.5 -51.5t48 -31t48 -15.5 t43.5 -3t38.5 3.5q99 14 144.5 82t39.5 217l293 47q15 -276 -91 -431t-354 -192q-134 -21 -243 2.5t-198 96t-150.5 206.5t-92.5 326q-12 80 -16.5 154.5z" />
<glyph unicode="&#x422;" horiz-adv-x="989" d="M-4 1155v279h995v-279h-348v-1155h-299v1155h-348z" />
<glyph unicode="&#x423;" horiz-adv-x="1017" d="M-90 1382l346 33l301 -674l119 713l319 31l-264 -1172q-20 -88 -49.5 -151.5t-59.5 -99.5t-72.5 -58t-76.5 -29.5t-82 -11.5q-92 -8 -188 10l-27 281q61 -21 133 -14q34 3 59 20.5t37 43t17 46t6 39.5z" />
<glyph unicode="&#x424;" horiz-adv-x="1540" d="M37 752q1 37 4 73q4 33 12.5 70t30 94t51 107t79 101t110.5 84.5t150.5 49t193.5 2.5l30 -4l25 201l297 -37l-25 -201l29 -4q104 -13 187 -50t133.5 -84.5t86 -109t51.5 -117.5t22.5 -116.5t5.5 -98.5t-5 -71q-4 -34 -12.5 -72t-30 -95t-50.5 -107t-78.5 -100t-110.5 -83 t-150.5 -48t-193.5 -1l-29 2l-27 -198l-297 36l27 201l-31 4q-104 13 -186 49.5t-133 83t-86.5 108.5t-51 116.5t-22.5 116t-6 98.5zM354 786q-36 -306 244 -342l12 -2l78 615l-39 4q-115 14 -195.5 -54t-99.5 -221zM858 412l12 -2q286 -37 322 272q19 153 -41.5 238.5 t-175.5 99.5l-39 4z" />
<glyph unicode="&#x425;" horiz-adv-x="1118" d="M-147 115l534 657l-233 746l342 -66l112 -514l293 436l342 -63l-491 -609l258 -804l-361 67l-125 539l-313 -457z" />
<glyph unicode="&#x426;" horiz-adv-x="1296" d="M-59 1223l284 84l322 -1110l399 114l-321 1110l286 84l322 -1110l156 45l155 -579l-256 -74l-90 309l-860 -248z" />
<glyph unicode="&#x427;" horiz-adv-x="1157" d="M23 1395l296 18l21 -344q9 -139 56 -187t149 -42q86 3 170 24l-37 572l299 18l90 -1429l-299 -19l-37 580q-147 -23 -242 -29q-81 -5 -141.5 1.5t-116 31t-92 69.5t-60.5 120t-30 179z" />
<glyph unicode="&#x428;" horiz-adv-x="1806" d="M-49 1151l285 84l321 -1110l315 92l-321 1108l287 84l321 -1110l316 92l-322 1110l287 82l399 -1376l-1491 -430z" />
<glyph unicode="&#x429;" horiz-adv-x="1835" d="M57 1343l295 29l109 -1151l327 31l-108 1151l297 27l108 -1149l326 30l-108 1149l299 29l108 -1151l160 16l43 -585l-264 -27l-29 309l-1430 -133z" />
<glyph unicode="&#x42a;" horiz-adv-x="1380" d="M219 100l217 1135l-213 39l51 274l508 -96l-98 -512l250 -47q104 -20 177.5 -63t112 -96t55.5 -121t15.5 -130.5t-14.5 -132.5q-42 -223 -164 -309t-354 -43zM565 317l195 -36q20 -4 34.5 -5.5t38 -1.5t42 8.5t38 23.5t34 45t22.5 71q7 35 6.5 62.5t-5.5 47.5t-17.5 35.5 t-25.5 25.5t-35.5 18.5t-41 13t-47.5 10.5l-170 33z" />
<glyph unicode="&#x42b;" horiz-adv-x="1605" d="M37 1327l295 37l63 -516l252 31q105 14 189 -4.5t136.5 -57t90 -98.5t55.5 -119.5t27 -130.5q28 -225 -61.5 -346t-323.5 -148l-547 -69zM430 571l45 -354l197 25q25 3 41.5 7t43.5 17t42 32.5t24.5 56.5t3.5 87q-7 59 -27 95t-49 48t-66.5 14t-80.5 -5zM1079 1458 l295 37l180 -1421l-297 -39z" />
<glyph unicode="&#x42c;" horiz-adv-x="1163" d="M123 0v1434h299v-521h254q106 0 186.5 -28.5t128 -73.5t77 -109t40 -125.5t10.5 -132.5q0 -227 -104 -335.5t-340 -108.5h-551zM422 279h199q25 0 42 1.5t45 11t46 27t31.5 53t13.5 85.5q0 48 -10.5 82t-26.5 52.5t-44.5 28.5t-54.5 12.5t-67 2.5h-174v-356z" />
<glyph unicode="&#x42d;" horiz-adv-x="1271" d="M31 560q1 28 4 56l297 -47q-6 -71 4.5 -125.5t30.5 -87.5t52 -55.5t61.5 -32.5t66.5 -16q67 -10 120.5 3.5t88.5 42.5t60 73t37.5 89t18.5 97l-432 70l41 258l432 -68q43 340 -215 383q-26 4 -47.5 4.5t-51 -3t-54.5 -16.5t-50 -34.5t-46 -60t-35 -89.5l-301 48 q11 55 29.5 107.5t65 124t109 119.5t169.5 73t239 4q43 -7 80 -15.5t84.5 -25.5t86 -39t79.5 -57t71.5 -78.5t55 -104.5t36.5 -133.5t10.5 -168t-18.5 -204.5q-121 -766 -702 -671q-80 12 -146.5 37.5t-114 57.5t-84.5 73.5t-60 82.5t-39 88.5t-22.5 87.5t-9 82.5t-1.5 70.5 z" />
<glyph unicode="&#x42e;" horiz-adv-x="1818" d="M102 29l43 1431l299 -8l-16 -543l156 -6q30 141 77 244.5t101.5 165.5t126 98t141.5 48t158 9q101 -3 184.5 -30t142.5 -70.5t103.5 -104.5t71.5 -127.5t43 -144.5t21 -150t3 -149t-11.5 -148.5t-30.5 -147.5t-52 -140.5t-79.5 -122t-110.5 -97t-147.5 -61t-186.5 -18.5 q-49 2 -90 7t-98.5 22t-103.5 44.5t-96 78t-85.5 118.5t-62.5 170.5t-36 229.5l-147 4l-21 -613zM889 721q-3 -123 11.5 -214.5t39 -142.5t62 -81.5t71.5 -39.5t76 -10q35 -1 63.5 4t62.5 20.5t60 48.5t49 83t37 130t17 183q4 112 -7.5 197t-33.5 139t-57 88.5t-74 48.5 t-88 15q-62 2 -110 -18t-88 -70t-63.5 -146t-27.5 -235z" />
<glyph unicode="&#x42f;" horiz-adv-x="1191" d="M-6 76l342 483q-45 13 -84 35.5t-77.5 61.5t-61 92.5t-34 128t2.5 167.5q9 70 26.5 128t42.5 100t54.5 74t64.5 52t70.5 33t74 17.5t73.5 4.5t71 -5l592 -74l-180 -1421l-297 37l63 491l-116 15l-285 -465zM397 999q-25 -192 160 -215l215 -26l47 377l-225 28 q-173 22 -197 -164z" />
<glyph unicode="&#x430;" horiz-adv-x="997" d="M104 662q-3 39 0.5 77t15 83.5t38.5 85t66.5 74t103.5 58.5t145 31q81 8 147 -2t109 -30t76 -54t50.5 -65t29 -72.5t15 -67.5t5.5 -59l39 -473q8 -110 24 -150t44 -45l2 -14l-279 -27l-20 101h-8q-39 -74 -111 -116t-156 -50q-61 -6 -111 2.5t-85 28t-61 45.5t-41.5 60 t-24 66t-11.5 68q-7 71 8.5 127.5t45 94.5t78 67.5t98.5 46.5t115 31q114 27 139 41q37 20 38 69q0 8 -1 17q0 5 -1 13.5t-1 12.5q-12 138 -131 127q-138 -12 -123 -178zM389 272q11 -119 123 -110q14 2 31.5 8.5t40.5 26t40 47.5t27 78.5t4 113.5l-4 51q-12 -5 -24.5 -10.5 t-16.5 -7.5q-29 -13 -102 -37q-26 -7 -44.5 -16t-39 -26.5t-30 -47t-5.5 -70.5z" />
<glyph unicode="&#x431;" horiz-adv-x="1056" d="M57.5 847.5q-0.5 94.5 9 164.5t29 128t43 97t55 71t60.5 50.5t63 34.5q72 33 142.5 52.5t103 24.5t53 21t21.5 49l209 27q6 -78 -9.5 -134t-43 -87t-74 -55.5t-89 -36.5t-103 -32t-103.5 -40q-220 -106 -197 -465h9q4 45 14 87t32 88.5t54.5 82.5t84.5 63t118 35 q87 11 162 -11.5t129 -70t95 -116t64.5 -144.5t34.5 -160q15 -87 7.5 -160t-17.5 -129.5t-37 -101t-51 -77t-60.5 -56.5t-63.5 -39t-61 -24.5t-53.5 -13.5t-40.5 -7q-37 -5 -69.5 -6t-73.5 4t-76 17t-74.5 36t-72.5 59t-66 88t-59 120.5t-48 159.5t-36 202t-14.5 204.5z M389 471q6 -51 15 -92.5t25.5 -85t39.5 -72t58 -44.5t79 -11t74 29t44.5 57.5t20 80.5t4 89.5t-7.5 93.5q-13 104 -36.5 176t-54 108.5t-62.5 50.5t-70 9q-176 -19 -129 -389z" />
<glyph unicode="&#x432;" horiz-adv-x="960" d="M-59 139l256 1008l454 -117q32 -8 55 -15t53.5 -18.5t51 -24.5t42.5 -30.5t34.5 -40.5t21 -51t7 -64.5t-12.5 -78.5q-15 -58 -43 -98.5t-62.5 -59.5t-66 -26t-65.5 -5l-2 -10q53 -26 87 -61t48 -65.5t16.5 -69.5t-1 -63t-11.5 -56q-12 -46 -30.5 -81t-51 -62t-76.5 -39.5 t-108 -10t-144 22.5zM260 272l117 -30q80 -19 117 -3.5t51 70.5q17 66 -11.5 101t-103.5 55l-113 31zM367 684l110 -29q53 -16 90.5 -1.5t50.5 67.5q16 60 -8 85t-80 40l-114 31z" />
<glyph unicode="&#x433;" horiz-adv-x="755" d="M53 25l64 1038l661 -43l-12 -207l-385 23l-51 -830z" />
<glyph unicode="&#x434;" horiz-adv-x="1077" d="M102 88l107 29q69 255 -33 651l-47 186l717 185l207 -807l133 35l106 -465l-233 -60l-68 258l-592 -149l68 -260l-234 -62zM430 815l25 -104q72 -314 30 -525l297 78l-153 602z" />
<glyph unicode="&#x435;" horiz-adv-x="1019" d="M33 569q25 263 166.5 396.5t363.5 113.5q37 -3 71 -10.5t73 -22.5t71 -38t64.5 -57t53.5 -79.5t39 -105.5t19.5 -135t-4.5 -168l-4 -57l-637 59q-7 -70 0.5 -123t23 -83t40.5 -49t47 -26t49 -10q37 -4 64 1.5t56.5 33.5t47.5 82l276 -27q-20 -63 -49.5 -113t-61 -81.5 t-71 -53.5t-74 -33t-77 -15t-73.5 -3.5t-69 4.5q-62 6 -113 19t-115 52.5t-105 101t-63 171.5t-9 256zM326 639l350 -33q4 77 -4 129t-28 80.5t-46 41t-63 15.5q-44 4 -80.5 -12t-58 -41t-37.5 -60.5t-22.5 -63.5t-10.5 -56z" />
<glyph unicode="&#x436;" horiz-adv-x="1232" d="M-150 104l418 488l-237 536l297 -47l133 -450h6l65 418l277 -43l-68 -420h7l266 387l297 -47l-391 -439l247 -589l-309 49l-135 481h-6l-72 -448l-274 40l71 453h-6l-278 -418z" />
<glyph unicode="&#x437;" horiz-adv-x="917" d="M27 702q-4 50 10 105.5t48.5 101.5t102.5 86.5t166 65.5q91 23 166 23.5t125 -16.5t87 -49t57.5 -68.5t31.5 -80.5q23 -92 -11 -159t-103 -101l2 -12q34 3 66.5 -3.5t69 -25.5t66.5 -62.5t47 -107.5q13 -50 14 -95t-10 -80.5t-28.5 -66t-45 -54.5t-56.5 -43t-65.5 -34.5 t-69.5 -26t-70 -19.5q-412 -110 -516 264l256 65q49 -172 198 -133q46 12 75.5 33t38.5 44t11.5 48t-4.5 43q-6 20 -12.5 35.5t-19 33t-30 24.5t-44 11.5t-60.5 -6.5l-106 -28l-49 188l114 31q51 12 73 46t7 87q-33 126 -172 88q-13 -3 -25 -9t-31 -20t-28 -34.5t-14.5 -53 t8.5 -75.5l-250 -64q-16 54 -20 104z" />
<glyph unicode="&#x438;" horiz-adv-x="1079" d="M84 1022l276 8l21 -620l293 630l291 11l32 -1041l-278 -8l-21 623l-292 -631l-291 -10z" />
<glyph unicode="&#x439;" horiz-adv-x="1079" d="M-57 154l256 1007l270 -67l-156 -605l459 527l283 -74l-258 -1005l-271 67l154 602l-457 -524zM390 1460.5q0 28.5 5 57.5l205 -54q-5 -20 -5 -42t7 -47t29.5 -45t58.5 -30q40 -7 67.5 -2t47 25t30 39t15.5 39l205 -53q-8 -23 -18.5 -44.5t-28.5 -46.5t-40 -45t-54 -37 t-69 -25t-86 -6.5t-104 15.5q-64 16 -112.5 42.5t-77 58.5t-46 65.5t-23.5 70t-6 65z" />
<glyph unicode="&#x43a;" horiz-adv-x="882" d="M-6 76l160 1028l276 -43l-65 -414h8l299 375l297 -47l-416 -428l268 -600l-311 49l-164 485h-8l-72 -448z" />
<glyph unicode="&#x43b;" horiz-adv-x="1036" d="M109 113q28 -3 55 4q47 10 66.5 44t16.5 121t-36 244l-88 435l721 161l227 -1016l-272 -59l-181 811l-190 -43l47 -229q37 -181 44.5 -298t-18.5 -195.5t-81 -118.5t-152 -62q-46 -10 -112 -10z" />
<glyph unicode="&#x43c;" horiz-adv-x="1341" d="M55 952l355 45l297 -678h6l121 732l356 45l129 -1033l-277 -34l-71 577v53h-6l-117 -655l-193 -22l-274 604l-6 -2l12 -52l74 -575l-277 -35z" />
<glyph unicode="&#x43d;" horiz-adv-x="1024" d="M55 973l275 35l47 -390l268 35l-49 387l276 35l132 -1032l-277 -35l-55 438l-269 -34l56 -435l-277 -34z" />
<glyph unicode="&#x43e;" horiz-adv-x="1032" d="M11 395q-11 107 14 226q23 120 69 213t114.5 156.5t165.5 87t214 1.5q94 -17 165.5 -58t115 -99.5t68 -134t24.5 -161.5t-17 -182q-46 -250 -191 -377t-374 -83q-116 22 -197.5 80t-120.5 141t-50 190zM287.5 413.5q-1.5 -66.5 8.5 -106.5t30.5 -66.5t42 -38t49.5 -16.5 q20 -6 42.5 -2.5t45 11t45 30.5t42.5 56.5t38.5 89.5t32.5 129q64 343 -115 374q-20 6 -42.5 3t-45 -10.5t-45 -30.5t-42 -56t-38 -87.5t-31.5 -125.5q-16 -87 -17.5 -153.5z" />
<glyph unicode="&#x43f;" horiz-adv-x="1044" d="M55 971l838 106l131 -1032l-276 -35l-105 826l-289 -37l105 -824l-277 -34z" />
<glyph unicode="&#x440;" horiz-adv-x="1056" d="M55 971l258 33l15 -125l6 2q32 168 229 192q78 10 144.5 -8.5t111.5 -54t82 -89t57.5 -102.5t36 -105.5t21 -87.5t8.5 -59q16 -147 0.5 -255t-63.5 -181.5t-113 -113.5t-148 -50q-141 -18 -249 68l55 -436l-277 -35zM374.5 637.5q-5.5 -62.5 6.5 -148.5q8 -67 23.5 -123 t41 -107t66 -77t92.5 -20q47 7 78.5 39t44.5 72t17 95t2 91t-7 76q-11 83 -30.5 145t-42 96.5t-50 54.5t-51.5 25t-49 2t-46 -14.5t-43.5 -36.5t-34.5 -66t-17.5 -103.5z" />
<glyph unicode="&#x441;" horiz-adv-x="972" d="M55 487q-34 557 437 590q372 22 428 -385l-267 -16q-17 115 -56 155t-101 37q-176 -10 -156 -340q3 -55 9.5 -101t21 -97t35 -86t54.5 -56.5t77 -19.5q41 3 68.5 23t41.5 54t19.5 71t5.5 85l274 17q1 -26 -1 -53t-10.5 -72t-23.5 -85t-45 -84.5t-70.5 -77t-104 -56.5 t-142.5 -29q-18 1 -43 -1.5t-57 3t-66.5 12t-71 25.5t-70.5 43t-65.5 66t-56 93t-41.5 124.5t-23 160.5z" />
<glyph unicode="&#x442;" horiz-adv-x="821" d="M-86 911l793 230l57 -201l-264 -76l231 -798l-266 -76l-232 796l-262 -75z" />
<glyph unicode="&#x443;" horiz-adv-x="882" d="M-53 997l323 31l238 -645l76 674l293 26l-187 -1116q-23 -126 -34 -163q-48 -155 -179 -193q-28 -9 -61 -12q-94 -9 -191 2l-20 217q40 -21 96 -17q18 2 32 8.5t24 21t15.5 24t10.5 34t6.5 32t5.5 36.5l6 49z" />
<glyph unicode="&#x444;" horiz-adv-x="1413" d="M45 528q0 94 18.5 172.5t49 133t74 96.5t89 67t98.5 41t98.5 21.5t92.5 5.5v369h279v-369q47 0 92.5 -5.5t98.5 -21.5t98.5 -41t89 -67t74 -96.5t49 -133t18.5 -172.5q0 -525 -520 -557v-350h-279v350q-520 32 -520 557zM332 537q0 -177 69.5 -266t171.5 -91v676h-18 q-41 0 -78.5 -16.5t-71 -51.5t-53.5 -99.5t-20 -151.5zM836 180q102 2 171.5 91t69.5 266q0 87 -20 151.5t-53.5 99.5t-71 51.5t-78.5 16.5h-18v-676z" />
<glyph unicode="&#x445;" horiz-adv-x="876" d="M-92 43l358 508l-248 526l312 -28l108 -351l174 324l312 -31l-342 -471l258 -563l-310 29l-124 366l-189 -338z" />
<glyph unicode="&#x446;" horiz-adv-x="1060" d="M31 915l268 62l182 -813l275 61l-181 813l273 60l180 -811l135 28l88 -469l-235 -51l-58 262l-704 -155z" />
<glyph unicode="&#x447;" horiz-adv-x="944" d="M-23 911l269 70l76 -295q11 -41 24.5 -67.5t25 -38.5t30.5 -15t29 -1.5t32 7.5q5 1 8 2q62 14 111 35l-111 430l270 70l258 -1008l-268 -69l-96 375q-80 -25 -164 -50q-73 -19 -131 -21.5t-99.5 11.5t-71.5 36t-52 59.5t-35.5 74t-26.5 88.5z" />
<glyph unicode="&#x448;" horiz-adv-x="1515" d="M35 866l270 60l180 -811l238 53l-182 811l272 61l180 -813l236 54l-180 811l272 61l225 -1016l-1286 -284z" />
<glyph unicode="&#x449;" horiz-adv-x="1538" d="M66 967l274 24l78 -827l241 22l-77 828l276 26l78 -827l242 23l-80 827l278 27l78 -828l135 12l33 -477l-242 -22l-24 268l-1196 -111z" />
<glyph unicode="&#x44a;" horiz-adv-x="1132" d="M94 831v209h496v-368h141q42 0 73.5 -2t73 -10.5t71.5 -22.5t61 -40.5t51 -63t32.5 -91t12.5 -123.5q0 -72 -15.5 -127t-50.5 -100t-98.5 -68.5t-153.5 -23.5h-477v831h-217zM590 209h98q60 0 95.5 25t35.5 96q0 37 -9 63t-21.5 39.5t-33.5 20.5t-35.5 8.5t-37.5 1.5h-92 v-254z" />
<glyph unicode="&#x44b;" horiz-adv-x="1331" d="M-37 160l223 1016l273 -62l-80 -358l137 -31q41 -9 71.5 -18t69 -26t65 -37.5t51.5 -53t36 -72.5t11 -96t-15 -123q-12 -56 -31 -99t-49.5 -79t-72 -54t-98 -23t-128.5 13zM279 303l96 -20q57 -13 97 3.5t56 84.5q6 26 6 48t-4 37t-13.5 27t-18.5 19t-23.5 13t-25 9 t-25.5 6l-90 21zM797 -25l225 1014l272 -61l-225 -1012z" />
<glyph unicode="&#x44c;" horiz-adv-x="915" d="M53 29l64 1038l278 -16l-24 -369l141 -8q41 -2 73 -6.5t72.5 -15t69.5 -27t58.5 -44.5t47 -65.5t26.5 -93t5 -123.5q-8 -149 -85.5 -229t-250.5 -70zM342 219l98 -6q28 -2 49 1.5t42 14.5t33.5 35.5t15.5 61.5q2 37 -5.5 64t-19 41t-31.5 22.5t-35.5 10.5t-37.5 3l-93 6z " />
<glyph unicode="&#x44d;" horiz-adv-x="1011" d="M47 635q-3 53 4.5 106t35 111.5t72.5 103.5t124 77.5t182 39.5q28 2 51.5 2.5t61.5 -3t70 -12t71.5 -27t71 -45t64 -68.5t55 -95.5t39.5 -128.5t22 -164q7 -109 -8 -198t-43 -146.5t-71.5 -101t-82.5 -65.5t-88.5 -36.5t-77 -18t-59.5 -5.5q-20 -1 -38 -1.5t-52 1.5 t-64.5 7.5t-69 18.5t-70.5 32t-65.5 50t-57.5 70.5t-42.5 96t-24.5 124.5l275 19q5 -59 23 -102t38.5 -64t48.5 -32.5t46 -13.5t38 -1q183 13 164 264l-287 -18l-14 209l289 18q-2 66 -20.5 113t-40.5 68.5t-51.5 33t-45 12.5t-28.5 0q-174 -10 -170 -213z" />
<glyph unicode="&#x44e;" horiz-adv-x="1447" d="M-2 121l160 1026l274 -43l-59 -385l94 -17q16 56 39.5 106t66.5 104.5t97.5 90.5t137.5 52.5t181 1.5q153 -25 247.5 -114.5t124.5 -219t5 -291.5q-19 -122 -64 -217.5t-113 -161t-163.5 -92t-210.5 -8.5q-74 11 -134.5 37t-101.5 61t-72.5 78.5t-47 90t-25.5 95.5 t-8.5 95t4.5 88l-90 14l-70 -436zM723 535q-57 -351 125 -377q20 -5 42.5 -1t44 11.5t43.5 31.5t40.5 58t35.5 90t29 129q11 71 12.5 128.5t-6.5 96.5t-21 66.5t-32 44t-38 25t-42 12.5q-20 5 -42.5 1t-44 -12t-43 -31.5t-40.5 -57t-35.5 -89t-27.5 -126.5z" />
<glyph unicode="&#x44f;" horiz-adv-x="970" d="M-94 137l301 312q-19 9 -36 20t-41 31t-41 49t-29.5 66.5t-12 90t15.5 113.5q17 68 46 118t58.5 78.5t69 44.5t68.5 21t66 2t52 -6t36 -8l487 -125l-258 -1005l-270 67l90 348l-55 15l-252 -308zM342 748q-34 -127 104 -162l113 -29l66 254l-115 29q-136 35 -168 -92z " />
<glyph unicode="&#x451;" horiz-adv-x="1019" d="M23 670q71 253 236 358t378 43q42 -12 78.5 -28.5t76 -45t69 -64.5t52 -89.5t30 -117t-1.5 -150t-38 -185.5l-16 -53l-613 176q-20 -68 -23 -121t6.5 -85t31 -56t41.5 -34.5t47 -18.5q32 -7 61.5 -8.5t62.5 21t60 71.5l268 -78q-32 -59 -70 -102.5t-75 -69t-80 -40 t-79 -18.5t-79 0t-73.5 10.5t-67.5 16.5q-439 127 -282 668zM322 682l337 -98q19 75 21 127.5t-13 84t-37.5 48.5t-58.5 28q-32 11 -60.5 6.5t-51 -12.5t-42.5 -27.5t-34.5 -37.5t-27 -41.5t-20 -41.5t-13.5 -36zM328 1276l67 233l277 -79l-70 -234zM731 1159l68 234 l274 -80l-67 -234z" />
<glyph unicode="&#x452;" horiz-adv-x="1028" d="M-131 1241l147 19l-14 120l277 35l14 -121l285 35l20 -162l-285 -34l35 -269q32 65 101 103.5t149 48.5q56 7 102.5 -1.5t79 -26.5t58.5 -50.5t41.5 -65t28 -78t18.5 -81t12 -82.5l80 -619q10 -61 7 -110t-9 -86t-23 -64.5t-35 -46.5t-44 -31.5t-51 -19t-56 -10.5 q-89 -13 -170 -4l-27 208q31 -5 39 -4q48 6 70 28.5t22 56.5t-4 79l-67 537q-6 50 -12.5 84.5t-18.5 70.5t-28 56t-41.5 31.5t-59.5 7.5q-39 -5 -65 -25.5t-38.5 -48.5t-16.5 -69t-2.5 -76.5t7.5 -81.5l62 -498l-275 -35l-143 1137l-150 -21z" />
<glyph unicode="&#x453;" horiz-adv-x="755" d="M-45 98l225 1014l647 -143l-45 -205l-374 84l-183 -811zM369 1196l170 240l278 -62l-227 -227z" />
<glyph unicode="&#x454;" horiz-adv-x="1011" d="M53 492q-3 114 14.5 206t45.5 151.5t71.5 103.5t82.5 66.5t89.5 36t81 17t68.5 4.5q104 3 186 -22.5t131.5 -66t82 -96t45.5 -107.5t14 -105l-275 -8q-3 38 -12.5 69.5t-29.5 63t-57 48t-89 15.5q-16 -1 -29 -3.5t-42.5 -17t-49 -38t-34 -72t-11.5 -114.5l289 10l6 -209 l-287 -10q1 -53 10 -95t29 -78t57.5 -55t89.5 -18q20 1 38 4.5t45 17.5t46.5 36.5t33.5 67t14 103.5l274 9q0 -87 -20.5 -157.5t-51.5 -115.5t-76 -78.5t-84 -50.5t-86 -27.5t-72.5 -12.5t-51.5 -3q-31 -1 -60 0t-79.5 11t-92 29t-89 58.5t-81 94.5t-57.5 142t-27 196z" />
<glyph unicode="&#x455;" horiz-adv-x="907" d="M43 690q-41 318 342 377q39 6 70 9t73 2.5t75.5 -8.5t70 -27t63 -49t49 -77.5t33.5 -109.5l-252 -39q-11 48 -32 72t-46 25.5t-55 -1.5q-71 -11 -94 -39.5t-16 -68.5q5 -32 16 -53.5t27.5 -33t40.5 -17.5t53 -8t67 -3h13q50 -1 85 -4t74.5 -10t67 -18.5t55 -30.5t46 -46 t33 -65.5t22.5 -87.5q3 -21 5 -36.5t2.5 -45t-3.5 -53t-13.5 -55t-26 -56.5t-44 -52.5t-64.5 -48t-90 -38t-117 -27.5q-435 -69 -483 293l283 45q3 -41 16.5 -70t30.5 -42.5t40 -19.5t40.5 -5.5t36.5 4.5q13 2 26 5t30.5 12t29.5 22.5t18.5 36.5t1.5 53q-10 75 -53.5 94.5 t-194.5 24.5q-63 2 -113.5 12.5t-85 24.5t-61 37t-41.5 43.5t-26 50t-15.5 50.5t-9.5 52z" />
<glyph unicode="&#x456;" horiz-adv-x="471" d="M51 14l64 1039l276 -17l-63 -1036zM119 1202l16 244l285 -19l-14 -243z" />
<glyph unicode="&#x457;" horiz-adv-x="475" d="M-49 1229l39 239l280 -43l-39 -241zM-8 45l160 1026l276 -43l-164 -1028zM395 1157l39 242l283 -45l-37 -240z" />
<glyph unicode="&#x458;" horiz-adv-x="434" d="M-313 -303l45 207q14 -11 37 -19q18 -4 33 -4t27 3.5t21 8.5t16.5 15t13 19.5t10.5 24.5t8.5 27t7.5 31l227 1037l273 -62l-238 -1063q-20 -91 -52 -152t-63 -89t-72.5 -38.5t-69 -8.5t-63.5 10q-90 18 -161 53zM162 1194l53 238l281 -64l-54 -238z" />
<glyph unicode="&#x459;" horiz-adv-x="1476" d="M59 125q19 -4 56 0q48 5 70 36t29 119t-13 246l-47 443l733 92l45 -365l141 17q41 6 73 8t73.5 -1t73.5 -13t66 -32.5t58.5 -56t43.5 -86t28 -120.5q11 -68 1 -128t-38 -107t-88 -79t-150 -43l-475 -59l-102 823l-195 -24l27 -232q16 -148 16 -250.5t-15.5 -177 t-51.5 -119.5t-88 -69.5t-131 -34.5q-57 -6 -113 0zM958 489l33 -251l96 12q60 7 92.5 36.5t22.5 98.5q-6 46 -22 73.5t-37 35t-45.5 10t-46.5 -3.5z" />
<glyph unicode="&#x45a;" horiz-adv-x="1464" d="M-66 229l287 1000l268 -78l-108 -375l260 -76l109 375l266 -78l-103 -352l138 -41q40 -11 69.5 -22t66.5 -30t62 -41t47.5 -56t31.5 -74.5t5.5 -96.5t-22.5 -122q-15 -54 -36.5 -95.5t-54.5 -74.5t-75 -49.5t-99.5 -16t-127.5 20.5l-459 129l123 424l-260 75l-121 -423z M784 201l95 -29q33 -8 62.5 -9.5t56 20.5t40.5 69q9 30 10 54.5t-6 41t-15.5 28t-25 20t-28 13t-29.5 9.5l-88 26z" />
<glyph unicode="&#x45b;" horiz-adv-x="1026" d="M-8 63l178 1133l-150 25l25 161l152 -24l18 121l274 -43l-18 -121l283 -45l-25 -162l-285 45l-41 -266q49 53 125.5 71.5t155.5 6.5q56 -9 97 -28t74 -53.5t47 -86t17.5 -126t-14.5 -173.5l-88 -564l-276 46l82 509q8 53 11.5 87t2.5 73t-11 62.5t-31.5 41.5t-55.5 23 q-38 6 -69 -7t-50.5 -36.5t-35 -62t-24 -72.5t-16.5 -80l-78 -498z" />
<glyph unicode="&#x45c;" horiz-adv-x="882" d="M74 1012l276 16l25 -416h8l211 432l299 19l-311 -508l393 -530l-316 -19l-264 438h-8l29 -452l-279 -17zM293 1149l96 276l285 19l-154 -281z" />
<glyph unicode="&#x45e;" horiz-adv-x="882" d="M-53 997l323 31l238 -645l76 674l293 26l-187 -1116q-23 -126 -34 -163q-48 -155 -179 -193q-28 -9 -61 -12q-94 -9 -191 2l-20 217q40 -21 96 -17q18 2 32 8.5t24 21t15.5 24t10.5 34t6.5 32t5.5 36.5l6 49zM49 1413l211 21q3 -56 39.5 -93.5t99.5 -31.5q62 6 91 49.5 t22 99.5l211 19q0 -36 -6 -70t-25.5 -76.5t-52 -75t-91 -58.5t-136.5 -34q-77 -7 -139.5 7.5t-100 40.5t-65 64t-40 70.5t-18.5 67.5z" />
<glyph unicode="&#x45f;" horiz-adv-x="1028" d="M-90 190l319 990l265 -86l-256 -791l268 -86l256 791l266 -86l-321 -988l-285 91l-100 -310l-228 74l99 309z" />
<glyph unicode="&#x490;" horiz-adv-x="915" d="M-68 1276l494 143l-90 312l256 73l180 -575l-477 -137l321 -1108l-286 -82z" />
<glyph unicode="&#x491;" horiz-adv-x="755" d="M-61 115l256 1007l393 -102l67 262l234 -59l-105 -469l-372 96l-207 -805z" />
<glyph unicode="&#x2000;" horiz-adv-x="958" />
<glyph unicode="&#x2001;" horiz-adv-x="1917" />
<glyph unicode="&#x2002;" horiz-adv-x="958" />
<glyph unicode="&#x2003;" horiz-adv-x="1917" />
<glyph unicode="&#x2004;" horiz-adv-x="639" />
<glyph unicode="&#x2005;" horiz-adv-x="479" />
<glyph unicode="&#x2006;" horiz-adv-x="319" />
<glyph unicode="&#x2007;" horiz-adv-x="319" />
<glyph unicode="&#x2008;" horiz-adv-x="239" />
<glyph unicode="&#x2009;" horiz-adv-x="383" />
<glyph unicode="&#x200a;" horiz-adv-x="106" />
<glyph unicode="&#x2010;" horiz-adv-x="774" d="M133 639l500 47l22 -256l-499 -47z" />
<glyph unicode="&#x2011;" horiz-adv-x="774" d="M133 639l500 47l22 -256l-499 -47z" />
<glyph unicode="&#x2012;" horiz-adv-x="774" d="M133 639l500 47l22 -256l-499 -47z" />
<glyph unicode="&#x2013;" horiz-adv-x="1320" d="M84 541l1157 73l10 -163l-1157 -72z" />
<glyph unicode="&#x2014;" horiz-adv-x="1488" d="M47 539l27 172l1308 -207l-26 -172z" />
<glyph unicode="&#x2018;" d="M227 877l90 311q8 25 12 38.5t16 43t22.5 48t29 44.5t38.5 42t48.5 32.5t60.5 23t74 6.5t89 -10l-45 -158q-32 13 -59.5 6.5t-48.5 -20.5t-37.5 -38t-26.5 -46t-17 -45l-4 -12l137 -39l-90 -311z" />
<glyph unicode="&#x2019;" d="M188 754l5 164q41 -3 71 14.5t45.5 48t22.5 60.5t8 61v12l-141 6l10 324l299 -10l-10 -324q-1 -33 -2.5 -53.5t-9 -61t-18.5 -68t-34.5 -62t-55 -56t-80.5 -37.5t-110 -18z" />
<glyph unicode="&#x201a;" d="M246 274l295 45l51 -319q5 -31 7.5 -52t2.5 -61t-6 -69.5t-22.5 -67.5t-43.5 -65t-72.5 -52t-105.5 -39l-24 162q41 4 67.5 28t34.5 55t11 65.5t-3 60.5l-2 12l-139 -20z" />
<glyph unicode="&#x201c;" horiz-adv-x="950" d="M47 1127q-2 41 3 70.5t20 68.5t40.5 67t69.5 54.5t103 42.5l30 -162q-40 -6 -65.5 -31t-33 -56t-9.5 -65.5t6 -60.5l2 -13l139 27l60 -317l-291 -58l-60 318q-6 32 -9 53t-5 62zM417 1196.5q-2 42.5 3.5 71t20.5 68t40.5 67t70 54t103.5 42.5l31 -160q-40 -6 -65.5 -31 t-33 -56.5t-9.5 -66t6 -61.5l2 -12l139 27l59 -318l-292 -55l-62 317q-6 34 -8.5 52.5t-4.5 61z" />
<glyph unicode="&#x201d;" horiz-adv-x="950" d="M133 758l4 164q41 -3 71 15t45.5 48.5t23 61t8.5 61.5v12l-142 4l11 324l299 -10l-11 -324q-1 -34 -2.5 -53.5t-8.5 -60.5t-18.5 -68t-34.5 -62t-54.5 -56.5t-80.5 -37.5t-110 -18zM510 745l6 164q41 -3 71 15t45.5 49t23 61.5t8.5 61.5v12l-142 4l10 324l299 -11 l-10 -323q-1 -34 -2.5 -53.5t-8.5 -61t-18.5 -68.5t-35 -62t-55 -56.5t-80.5 -37.5t-111 -18z" />
<glyph unicode="&#x201e;" horiz-adv-x="950" d="M-113 -215l41 160q42 -9 72.5 -0.5t54 35.5t36.5 55t20 57l4 10l-138 35l80 316l289 -76l-80 -314q-34 -125 -82 -187q-101 -127 -297 -91zM252 -309l41 159q33 -12 60 -4t47.5 22.5t36 39t25 47t15.5 45.5l2 8l-137 37l82 313l289 -75l-80 -312q-6 -22 -9.5 -34.5 t-12 -38.5t-17.5 -43t-22.5 -41.5t-29.5 -41t-37 -35t-47 -29t-56.5 -18.5t-68.5 -7.5t-81 8.5z" />
<glyph unicode="&#x2022;" horiz-adv-x="1406" d="M485 760q6 86 68.5 141t148.5 49q86 -4 142 -67t51 -150q-6 -85 -68.5 -140.5t-148.5 -49.5q-86 4 -141 67t-52 150z" />
<glyph unicode="&#x2026;" horiz-adv-x="1916" d="M92 158l51 319l293 -47l-51 -319zM700 61l50 320l294 -47l-49 -320zM1309 -33l51 318l295 -47l-51 -318z" />
<glyph unicode="&#x202f;" horiz-adv-x="383" />
<glyph unicode="&#x2039;" horiz-adv-x="481" d="M88 639l201 362l67 -299l-104 -174l168 -114l67 -299l-335 243z" />
<glyph unicode="&#x203a;" horiz-adv-x="481" d="M102 96l11 307l141 144l-133 151l8 308l266 -320l-10 -287z" />
<glyph unicode="&#x205f;" horiz-adv-x="479" />
<glyph unicode="&#x20ac;" horiz-adv-x="1069" d="M59 528l29 90h96q-4 40 -4 87q0 38 4 88h-125l29 90h102q11 100 34 184t62 156t92.5 122t128 78.5t165.5 28.5q103 0 184.5 -29t126.5 -73v-115q-112 117 -301 117q-90 0 -161.5 -37t-117 -102.5t-72.5 -148t-36 -181.5h592l-29 -90h-571q-4 -50 -4 -88q0 -47 4 -87h514 l-29 -90h-475q22 -229 121 -352t264 -123q181 0 301 117v-117q-43 -41 -125 -70.5t-188 -29.5q-417 0 -477 575h-134z" />
<glyph unicode="&#x2122;" horiz-adv-x="1542" d="M-96 1303l559 90l26 -166l-176 -29l86 -543l-211 -32l-84 542l-174 -28zM559 1407l272 43l181 -410l47 447l272 43l113 -709l-211 -33l-64 400l-36 -416l-150 -24l-166 385l64 -400l-211 -35z" />
<glyph unicode="&#xe000;" horiz-adv-x="1064" d="M0 0v1065h1065v-1065h-1065z" />
</font>
</defs>
</svg>
