<?xml version="1.0" standalone="no"?>
<!DOCTYPE svg PUBLIC "-//W3C//DTD SVG 1.1//EN" "http://www.w3.org/Graphics/SVG/1.1/DTD/svg11.dtd" >
<svg xmlns="http://www.w3.org/2000/svg">
<metadata></metadata>
<defs>
<font id="eurofontcbold" horiz-adv-x="1173" >
<font-face units-per-em="2048" ascent="1606" descent="-442" />
<missing-glyph horiz-adv-x="681" />
<glyph horiz-adv-x="2048" />
<glyph horiz-adv-x="2048" />
<glyph unicode="&#xd;" horiz-adv-x="2048" />
<glyph unicode=" "  horiz-adv-x="681" />
<glyph unicode="&#x09;" horiz-adv-x="681" />
<glyph unicode="&#xa0;" horiz-adv-x="681" />
<glyph unicode="!" horiz-adv-x="661" d="M156 1421h352l-14 -862h-326zM178 0v330h307v-330h-307z" />
<glyph unicode="&#x22;" horiz-adv-x="837" d="M78 1174v247h262v-247l-80 -244h-102zM498 1174v247h262v-247l-80 -244h-102z" />
<glyph unicode="#" horiz-adv-x="1363" d="M162 340v219h213l45 246h-180v217h221l74 399h200l-73 -399h190l74 399h198l-73 -399h151v-217h-184l-45 -246h176v-219h-223l-62 -340h-200l61 340h-190l-64 -340h-201l64 340h-172zM575 559h195l49 246h-198z" />
<glyph unicode="$" horiz-adv-x="1363" d="M43 467h342q0 -44 4.5 -74.5t16.5 -51t25 -31.5t40 -16.5t50 -7t65 -1.5h184q33 0 48.5 0.5t41 2t37 5t28.5 10.5t24.5 17.5t15.5 25.5t11 36t3 48q0 78 -38.5 103t-170.5 36l-184 15q-117 9 -198.5 22t-141 36.5t-94.5 52t-55.5 75.5t-27 98t-6.5 129q0 91 10.5 157 t37 115.5t64.5 80t99.5 49.5t134.5 26t177 7v155h184v-155q106 -6 168.5 -14t135 -34t110.5 -70.5t64 -123.5t26 -193h-332q0 48 -8.5 75.5t-31.5 42t-51.5 18.5t-80.5 4h-184q-100 0 -141.5 -25.5t-41.5 -114.5q0 -73 33 -93.5t150 -29.5l184 -16q216 -20 290 -37 q148 -36 206 -130q55 -88 55 -249q0 -131 -30 -218t-98.5 -139.5t-169.5 -74.5t-253 -22v-174h-184v174q-93 0 -161.5 7t-133 26t-108 53t-76.5 86.5t-48.5 129t-15.5 177.5z" />
<glyph unicode="%" horiz-adv-x="1718" d="M43 967v207q0 85 15 136t54.5 78t91 35.5t140.5 8.5q61 0 101.5 -3t79 -12.5t61.5 -27t40.5 -46t25 -69.5t7.5 -98v-207q0 -57 -7.5 -98t-25 -69.5t-40.5 -46.5t-61 -27.5t-78.5 -13t-100.5 -3.5t-99.5 3t-76.5 13t-58.5 27t-38.5 45.5t-23.5 69.5t-6.5 98zM233 997 q0 -47 3.5 -70.5t18.5 -36t31.5 -14.5t57.5 -2q43 0 61.5 2t36 14t22.5 36.5t5 70.5v156q0 35 -4 55.5t-10 33.5t-24 18t-34 6.5t-53 1.5q-40 0 -57 -2t-32 -13.5t-18.5 -33.5t-3.5 -66v-156zM340 0l838 1421h227l-838 -1421h-227zM1059 244v209q0 85 15 136t54.5 78 t91 35.5t140.5 8.5q91 0 144 -8t95 -34.5t59 -77.5t17 -136v-209q0 -68 -12.5 -114t-34 -74.5t-62.5 -44t-87 -20.5t-117 -5q-60 0 -99.5 3t-76.5 13t-58.5 27t-38.5 45.5t-23.5 69.5t-6.5 98zM1249 274q0 -31 1.5 -50.5t7.5 -33.5t11.5 -20.5t21.5 -10.5t28.5 -4.5 t40.5 -0.5q25 0 37 0.5t28.5 2.5t23.5 7t16 13t12 21t5.5 31.5t2.5 44.5v158q0 34 -4 54.5t-10 33t-24 17.5t-34.5 6.5t-52.5 1.5q-40 0 -57 -2t-32 -13t-18.5 -33t-3.5 -65v-158z" />
<glyph unicode="&#x26;" horiz-adv-x="1466" d="M102 440q0 59 5.5 107t21.5 98.5t43 85t73.5 57t108.5 23.5q-67 58 -87.5 104.5t-20.5 135.5q0 97 20 165t55.5 110t96.5 65.5t130.5 32t170.5 8.5q75 0 130 -3.5t109 -13.5t91.5 -28t70 -47t51.5 -69.5t30 -97t11 -129.5v-71h-325q3 117 -25 147q-16 18 -48 23.5 t-95 5.5q-73 0 -99 -25t-26 -100q0 -44 18 -73t58 -66l350 -312v189h301v-279q0 -63 -39 -139l158 -141l-168 -203l-131 117q-23 -31 -52 -54t-66 -36.5t-68 -22t-79.5 -12t-76.5 -4t-80 -0.5q-75 0 -131 2.5t-118 10t-106 21.5t-88.5 36.5t-74 56.5t-53.5 79.5t-35 107 t-11 138.5zM451 477q0 -31 4 -55.5t9 -43t17.5 -32.5t22 -23.5t30 -15.5t34 -9t42.5 -5t46 -2h53h10q132 0 196 28l-376 326q-21 -2 -37 -9t-25 -21t-15 -26t-8 -34t-2.5 -34t-0.5 -36v-8z" />
<glyph unicode="'" horiz-adv-x="415" d="M78 1174v247h262v-247l-80 -244h-102z" />
<glyph unicode="(" horiz-adv-x="729" d="M109 317v502q0 111 1.5 163t10.5 133t28.5 116.5t55 84t91 67.5t136 34t189.5 15v-310q-42 0 -70.5 -10.5t-45 -28t-25 -50t-11 -66t-2.5 -86.5v-615q0 -47 1.5 -72.5t9.5 -62.5t23 -56t45.5 -33.5t74.5 -14.5v-312q-93 0 -163.5 7t-124 26.5t-90.5 40.5t-62.5 63.5 t-39.5 80.5t-21 106t-9 125t-2 153z" />
<glyph unicode=")" horiz-adv-x="729" d="M109 27q37 0 64 8.5t43.5 27.5t26 37t13.5 51t5 54t1 61v615q0 54 -2.5 86.5t-11 65.5t-25 50.5t-44.5 28t-70 10.5v310q109 0 189.5 -15t136 -34t91 -67.5t55 -84t28.5 -116.5t10.5 -133t1.5 -163v-502q0 -96 -2 -153t-9 -125t-21 -106t-39.5 -80.5t-62.5 -63.5 t-90.5 -40.5t-124 -26.5t-163.5 -7v312z" />
<glyph unicode="*" horiz-adv-x="1363" d="M293 1083l61 166l240 -84v256h176v-256l246 84l55 -180l-237 -74l141 -202l-137 -107l-148 211l-160 -209l-143 105l148 204z" />
<glyph unicode="+" horiz-adv-x="1136" d="M94 416v217h365v362h217v-362h366v-217h-366v-379h-217v379h-365z" />
<glyph unicode="," horiz-adv-x="681" d="M162 -127q79 1 107 28.5t28 98.5h-117v317h307v-317q0 -101 -27.5 -157.5t-98 -84t-199.5 -26.5v141z" />
<glyph unicode="-" horiz-adv-x="516" d="M0 367v311h516v-311h-516z" />
<glyph unicode="." horiz-adv-x="681" d="M170 0v330h307v-330h-307z" />
<glyph unicode="/" horiz-adv-x="1206" d="M57 -215l836 1636h258l-836 -1636h-258z" />
<glyph unicode="0" horiz-adv-x="1363" d="M90 487v447q0 78 11 143t28.5 113t48 86t60.5 63t75 43t82.5 27.5t92 15t95 6.5t99.5 1t99.5 -1t95 -6.5t92 -15t82.5 -27.5t75 -43t60.5 -63t48 -86t28.5 -113t11 -143v-447q0 -100 -18 -178.5t-46 -130.5t-76 -88.5t-92.5 -56t-112.5 -30t-119 -13t-128 -2.5t-128 2.5 t-119 13t-112.5 30t-92.5 56t-76 88.5t-46 130.5t-18 178.5zM451 547q0 -47 1.5 -80.5t8.5 -60t13 -43.5t22.5 -29.5t29 -18.5t41.5 -9.5t50.5 -4t64.5 -0.5t64.5 0.5t50.5 4t41.5 9.5t29 18.5t22.5 29.5t13 43.5t8.5 60t1.5 80.5v325q0 47 -1.5 81t-8.5 61t-13 44 t-22.5 29.5t-29 18.5t-41.5 9.5t-50.5 4t-64.5 0.5t-64.5 -0.5t-50.5 -4t-41.5 -9.5t-29 -18.5t-22.5 -29.5t-13 -44t-8.5 -61t-1.5 -81v-325z" />
<glyph unicode="1" horiz-adv-x="1363" d="M96 993l518 428h443v-1421h-379v1085l-367 -335z" />
<glyph unicode="2" horiz-adv-x="1363" d="M117 0v295q0 87 6.5 144t29 106t53 79t92.5 59t133 49.5t187 47.5q162 38 195 53q46 20 57 59q7 26 7 87q0 54 -9 85t-34.5 47.5t-59 21t-96.5 4.5q-48 -1 -75 -2.5t-53 -7.5t-37.5 -15.5t-21 -29t-12 -44.5t-2.5 -65v-72h-360v72q0 114 24.5 195.5t68 132.5t115.5 80.5 t154.5 40t198.5 10.5q78 0 136.5 -4t120 -15t104.5 -31t82.5 -53.5t63.5 -80.5t38 -113t14 -150q0 -80 -7.5 -138t-28 -104t-47 -76.5t-75 -57t-100.5 -45t-133 -40.5q-52 -14 -110 -27t-89.5 -19t-65.5 -16t-50 -20.5t-30.5 -30t-19 -47t-4.5 -69.5h762v-295h-1122z" />
<glyph unicode="3" horiz-adv-x="1363" d="M104 422v76h361v-47q0 -47 10.5 -78.5t26 -49t46.5 -26t57.5 -10.5t74.5 -2q34 0 54.5 0.5t45 3t38 7t29 13t23 21t15 30.5t10 42t2.5 55q0 40 -6 62t-28 40t-65.5 24.5t-117.5 6.5h-90v274h90q57 0 91.5 3t57.5 9t33 21t13.5 32.5t3.5 49.5q0 35 -1.5 53.5t-7.5 40 t-18 31t-34.5 18.5t-55.5 12t-82 3q-42 0 -63 -1t-49 -5.5t-40.5 -14.5t-26 -28t-18 -46.5t-4.5 -68.5v-29h-360v49q0 67 8.5 122t22.5 97t38.5 75t51.5 56t67 39.5t78 26t92.5 15t103 7t115.5 1.5q60 0 103 -2t103.5 -10.5t104 -23.5t90 -43.5t75.5 -68t48 -99.5t19 -136 q0 -64 -10 -114.5t-33 -95.5t-67 -73.5t-107 -36.5v-14q233 -10 233 -305q0 -78 -14.5 -139.5t-39.5 -105.5t-65 -76t-84.5 -51t-104.5 -30.5t-118 -15.5t-133 -4q-62 0 -107.5 1.5t-100 6.5t-93.5 14t-81.5 25t-72 38.5t-57 55.5t-44 74.5t-26.5 96.5t-10 122z" />
<glyph unicode="4" horiz-adv-x="1363" d="M68 281v405l544 735h559v-866h121v-274h-121v-281h-360v281h-743zM367 555h444v573h-14z" />
<glyph unicode="5" horiz-adv-x="1363" d="M123 414h360q3 -44 16 -71t40 -39t53.5 -15.5t73.5 -3.5q37 0 57 0.5t45.5 3t38 7.5t28 14t22 22t13.5 33t9 45.5t2 60.5q0 41 -0.5 62.5t-3.5 49t-8.5 39.5t-16 28t-25.5 22t-38.5 12.5t-52.5 8t-70 1.5h-55.5t-41 -2t-34.5 -6t-22 -12t-19 -19.5t-11 -29.5h-325v796 h1026v-274h-701v-275q68 72 120.5 88.5t191.5 16.5q130 0 215.5 -25.5t137 -84t72.5 -143t21 -212.5q0 -97 -11 -171.5t-31 -130.5t-55.5 -94.5t-78.5 -64t-106.5 -39t-131 -19t-161.5 -5.5q-111 0 -190.5 10.5t-148 38t-110.5 75.5t-66.5 122.5t-27.5 179.5z" />
<glyph unicode="6" horiz-adv-x="1363" d="M111 563v357q0 94 11 166.5t32 126.5t57 92t80 63t108 39t132.5 19.5t162.5 5.5q76 0 124 -1.5t113 -10t105.5 -23t85 -43t69.5 -68.5t41.5 -100t16.5 -137v-62h-358q0 52 -10 82.5t-37.5 45.5t-58.5 18.5t-91 3.5q-50 0 -77.5 -1.5t-57.5 -8t-43.5 -18.5t-26 -34.5 t-16.5 -54.5t-4 -80v-225h4q10 31 23.5 54t27 38.5t33.5 26t35.5 16t42.5 8.5t45 3.5t51 0.5q79 0 134 -3t112 -13t94.5 -28t72 -48t54 -73t30.5 -103t11 -139q0 -117 -23 -200t-64 -135t-111 -81.5t-150.5 -40t-196.5 -10.5q-122 0 -206 9t-152.5 34t-109 64.5t-68 106 t-37.5 152.5t-10 209zM467 442q0 -69 13 -100t50.5 -44t118.5 -13q49 0 77 1t57 4t42.5 10.5t26.5 18t17.5 30t7 42t2.5 58.5q0 22 -2.5 39t-10.5 29.5t-14.5 21t-24.5 14t-29.5 8.5t-40 4.5t-46.5 1.5h-58h-2h-2q-109 0 -145.5 -22.5t-36.5 -102.5z" />
<glyph unicode="7" horiz-adv-x="1363" d="M111 1102v319h1071v-319l-471 -1102h-398l482 1102h-684z" />
<glyph unicode="8" horiz-adv-x="1363" d="M104 391q0 86 26 157t86 119.5t146 51.5v14q-127 31 -179 108t-52 216q0 63 11.5 115t35.5 89.5t53 66t71 47t82.5 30t94.5 17.5t99 8t104 2q57 0 99.5 -1.5t93 -6t87.5 -13t77.5 -23t68.5 -35t54 -50t42 -67t25.5 -87t9.5 -109.5q0 -144 -43 -205t-174 -102v-14 q130 -18 184 -103.5t54 -224.5q0 -62 -10 -113t-26 -89.5t-43.5 -68.5t-56.5 -51t-71 -36t-80 -23.5t-90.5 -13.5t-97 -6.5t-103.5 -1.5q-73 0 -128 3t-118.5 12.5t-109 26.5t-90 47.5t-71.5 72t-44 103t-17 138.5zM465 434q0 -90 44.5 -119.5t168.5 -29.5q66 0 105.5 5 t64 13t35 29.5t13.5 42.5t3 65q0 35 -2.5 56.5t-11.5 39.5t-22 26.5t-40.5 14.5t-59.5 7.5t-85 1.5q-133 0 -173 -27t-40 -125zM492 995q0 -46 9 -73t34.5 -40.5t57 -17.5t89.5 -4q66 0 100 4t58.5 20.5t31.5 44t7 79.5q0 28 -2 44t-8.5 32.5t-19 25t-35 15.5t-54 9.5 t-78.5 2.5q-120 0 -155 -24.5t-35 -117.5z" />
<glyph unicode="9" horiz-adv-x="1363" d="M109 373v61h358q0 -43 8 -70.5t20.5 -43.5t40.5 -23.5t54 -9.5t76 -2q38 0 59.5 0.5t47.5 3.5t39.5 8t29 15t22.5 23.5t14 34.5t9 48t2 63v226h-4q-14 -42 -34.5 -71t-41 -44t-54 -22.5t-58 -9t-70.5 -1.5q-69 0 -118.5 2.5t-101.5 9t-88 19.5t-71 34t-57 51t-39.5 71.5 t-25 96.5t-7.5 124q0 98 14.5 171.5t46.5 124.5t75 84.5t107.5 52t135.5 25.5t168 7q122 0 205.5 -9t152 -34t109 -64t68 -105.5t38 -152.5t10.5 -209v-356q0 -110 -14 -190.5t-46.5 -137.5t-76.5 -93t-113.5 -57t-146.5 -28.5t-186 -7.5q-58 0 -97.5 1t-91.5 5t-87 11.5 t-77 21.5t-69.5 33.5t-55 48.5t-43.5 66.5t-26 87.5t-10 110zM479 973q0 -78 45 -101q34 -18 149 -18h36q109 0 145.5 22.5t36.5 102.5q0 70 -12.5 101t-50 44t-119.5 13q-57 0 -88 -1t-61 -7.5t-42.5 -15.5t-23 -29t-13 -45t-2.5 -66z" />
<glyph unicode=":" horiz-adv-x="681" d="M170 0v330h307v-330h-307zM170 666v329h307v-329h-307z" />
<glyph unicode=";" horiz-adv-x="681" d="M162 -127q79 1 107 28.5t28 98.5h-117v317h307v-317q0 -101 -27.5 -157.5t-98 -84t-199.5 -26.5v141zM180 666v329h307v-329h-307z" />
<glyph unicode="&#x3c;" horiz-adv-x="1136" d="M94 412v227l948 356v-243l-641 -226v-4l641 -225v-242z" />
<glyph unicode="=" horiz-adv-x="1136" d="M94 197v219h948v-219h-948zM94 633v217h948v-217h-948z" />
<glyph unicode="&#x3e;" horiz-adv-x="1136" d="M94 55v242l641 225v4l-641 226v243l948 -356v-227z" />
<glyph unicode="?" horiz-adv-x="1146" d="M88 1008v59q0 69 12 122.5t33 91.5t55.5 65.5t72.5 44t92.5 26t107 12.5t123.5 3q96 0 162 -7t130 -29t101.5 -61.5t60.5 -106t23 -161.5q0 -92 -13.5 -152t-50 -103.5t-82 -71t-129.5 -64.5q-60 -26 -81 -50t-21 -67v-57h-326v57q0 58 3.5 93t14 68.5t32.5 57t55.5 46 t87.5 48.5l67 33q32 16 48 25.5t35 28t26.5 44.5t7.5 64q0 71 -34 93t-117 22q-33 0 -55 -1.5t-46 -8.5t-37.5 -19t-22.5 -33.5t-9 -52.5v-59h-326zM367 0v330h307v-330h-307z" />
<glyph unicode="@" horiz-adv-x="1439" d="M31 707q0 150 56.5 285t153.5 231t230.5 152.5t282.5 56.5q119 0 237 -45t211 -121.5t151 -187.5t58 -234q0 -106 -38 -207t-101.5 -177t-151.5 -122.5t-182 -46.5q-50 0 -82 24.5t-29 69.5l-4 4q-34 -40 -83.5 -65t-96.5 -25q-127 0 -223 99t-96 237q0 113 46.5 211.5 t136.5 161.5t204 63q150 0 233 -113l19 97h180l-94 -553q-8 -26 -5.5 -47t29.5 -21q65 0 123.5 100.5t58.5 245.5q0 225 -141.5 353.5t-365.5 128.5q-155 0 -276.5 -73t-187 -199t-65.5 -283q0 -248 157 -397.5t404 -149.5q197 0 363 127h186q-103 -143 -247 -221t-316 -78 q-202 0 -370 92t-266.5 257.5t-98.5 369.5zM551 666q0 -71 38.5 -119.5t104.5 -48.5q86 0 140.5 63t54.5 148q0 70 -42 115.5t-110 45.5q-79 0 -132.5 -63.5t-53.5 -140.5z" />
<glyph unicode="A" horiz-adv-x="1388" d="M-23 0l426 1421h576l432 -1421h-387l-74 244h-508l-71 -244h-394zM522 520h352l-176 617h-4z" />
<glyph unicode="B" horiz-adv-x="1398" d="M113 0v1421h747q116 0 191.5 -13.5t137.5 -51.5t91 -111.5t29 -187.5q0 -73 -9 -124t-32.5 -95t-68.5 -71t-114 -38v-14q62 -4 106.5 -22t71.5 -45t42.5 -68t20.5 -84t5 -101q0 -74 -10.5 -131.5t-28.5 -99t-49 -71t-66 -47.5t-86 -28.5t-102 -14t-121 -3.5h-755z M492 311h286q96 0 135 30t39 114t-34.5 109.5t-131.5 25.5h-294v-279zM492 852h274q100 0 132 26t32 111q0 68 -22 94.5t-97 26.5h-319v-258z" />
<glyph unicode="C" horiz-adv-x="1378" d="M66 526v369q0 99 15.5 177t43.5 134.5t73.5 97t97 65t124.5 39t145.5 19.5t169.5 5q131 0 211.5 -7.5t159 -33.5t119 -76.5t65.5 -135.5t25 -212v-56h-391v56q-4 37 -17.5 62.5t-31.5 40t-49.5 21.5t-59 9t-72.5 2q-55 0 -93 -5t-65 -19.5t-42 -32.5t-23.5 -51.5 t-11 -68.5t-2.5 -91v-222q0 -41 0.5 -66.5t3 -56t7.5 -49t13 -39t20.5 -32t30 -23t41 -17t53.5 -9t68 -3.5q53 0 84.5 2.5t63.5 12.5t48 29.5t26 52.5t10 82v43h391v-43q0 -60 -1 -93.5t-8 -84.5t-20 -84.5t-39 -72t-63 -69.5q-46 -38 -97.5 -60.5t-119 -31.5t-108.5 -10.5 t-126 -1.5q-99 0 -160 2.5t-140.5 13.5t-126.5 32.5t-99 60.5t-79.5 95.5t-45.5 140.5t-18 193z" />
<glyph unicode="D" horiz-adv-x="1468" d="M98 0v1421h721q301 0 436.5 -126.5t135.5 -424.5v-299q0 -149 -26 -253t-86.5 -177t-161 -107t-247.5 -34h-772zM477 330h332q100 0 145 61.5t45 179.5v299q0 131 -42.5 176.5t-147.5 45.5h-332v-762z" />
<glyph unicode="E" horiz-adv-x="1284" d="M121 0v1421h1026v-311h-647v-260h606v-262h-606v-277h659v-311h-1038z" />
<glyph unicode="F" horiz-adv-x="1167" d="M104 0v1421h1008v-311h-629v-279h580v-311h-580v-520h-379z" />
<glyph unicode="G" horiz-adv-x="1435" d="M61 524v369q0 99 16 177.5t44 134.5t74 97t98.5 66t125.5 39.5t146.5 19.5t169.5 5q79 0 119.5 -0.5t107 -4.5t101 -12t85 -23.5t76.5 -38t57.5 -56.5t46.5 -79t25.5 -105t10.5 -134h-385q-1 24 -7 43t-13 33.5t-21.5 25t-25 17.5t-31.5 12t-33 7t-37.5 3.5t-37 1.5 h-38.5q-46 0 -81.5 -3.5t-64 -9t-49 -18t-35.5 -24.5t-25 -34t-16 -41t-8.5 -51.5t-3.5 -60t-1 -71.5v-231q0 -63 7 -108t23.5 -76t37 -50t55.5 -29t71 -13t90 -3q146 0 195 47t49 195h-260v262h645v-248q0 -124 -10.5 -209t-40 -150.5t-72.5 -104t-117.5 -62.5 t-164.5 -32.5t-224 -8.5q-102 0 -178.5 5.5t-150 20t-125 40t-95.5 66t-70 97t-40.5 133t-14.5 174.5z" />
<glyph unicode="H" horiz-adv-x="1492" d="M121 0v1421h379v-534h495v534h379v-1421h-379v557h-495v-557h-379z" />
<glyph unicode="I" horiz-adv-x="614" d="M117 0v1421h379v-1421h-379z" />
<glyph unicode="J" horiz-adv-x="1140" d="M41 477v117h360v-117q0 -93 22 -126.5t95 -33.5q84 0 107.5 24.5t23.5 96.5v983h379v-983q0 -97 -9.5 -165.5t-35 -120t-61 -82.5t-96 -50t-132 -25.5t-176.5 -6.5q-102 0 -173 8.5t-126 31t-88 56.5t-54 91t-28.5 128t-7.5 174z" />
<glyph unicode="K" horiz-adv-x="1492" d="M121 0v1421h379v-534h264q83 0 123.5 47.5t40.5 130.5v143q0 213 219 213h242v-241q-50 0 -64 -8q-27 -16 -27 -82v-113q0 -239 -239 -248v-6q119 -5 187.5 -71.5t68.5 -184.5v-135q0 -33 5 -52t18.5 -27t24 -9.5t33.5 -1.5h9v-242h-250q-219 0 -219 213v166 q0 178 -156 178h-280v-557h-379z" />
<glyph unicode="L" horiz-adv-x="1107" d="M111 0v1421h378v-1091h592v-330h-970z" />
<glyph unicode="M" horiz-adv-x="1986" d="M115 0v1421h602l270 -893h12l258 893h617v-1421h-379l37 1090h-12l-361 -1090h-328l-364 1090h-10l37 -1090h-379z" />
<glyph unicode="N" horiz-adv-x="1650" d="M115 0v1421h641l407 -1091h15l-23 1091h379v-1421h-645l-402 1092h-16l23 -1092h-379z" />
<glyph unicode="O" horiz-adv-x="1439" d="M63 510v401q0 92 16.5 166.5t46 128.5t75.5 94t98.5 65t122 40t140 21t157.5 6q124 0 217 -12t179.5 -45.5t141 -90.5t87 -151t32.5 -222v-401q0 -128 -32.5 -222t-87 -151t-141 -91t-179.5 -46t-217 -12t-216.5 12t-179 46t-141 91t-87 151t-32.5 222zM453 551 q0 -53 5.5 -90.5t20 -64t33 -42t51.5 -24t67.5 -11t88.5 -2.5q55 0 89.5 2.5t68 11t52 24t33 42t20 64t5.5 90.5v319q0 53 -5.5 90.5t-20.5 63.5t-33 41t-51.5 23.5t-68 11t-89.5 2.5q-54 0 -88.5 -2.5t-67.5 -11t-51.5 -23.5t-33 -41t-20 -63.5t-5.5 -90.5v-319z" />
<glyph unicode="P" horiz-adv-x="1347" d="M111 0v1421h712q263 0 374.5 -120.5t111.5 -401.5q0 -104 -8.5 -178.5t-29.5 -137t-56 -101.5t-90 -66.5t-128 -39t-174 -11.5h-334v-365h-378zM489 694h259q60 0 90.5 5.5t51 29t25.5 61t5 109.5q0 115 -31.5 154t-140.5 39h-259v-398z" />
<glyph unicode="Q" horiz-adv-x="1507" d="M94 561v299q0 115 18.5 203.5t57 151.5t92 105.5t130 67t163 34.5t199.5 10q136 0 235 -15t182.5 -52.5t134.5 -102t79 -164.5t28 -238v-356q0 -104 -29 -189l156 -106l-156 -211l-139 113q-47 -42 -107.5 -68.5t-132 -37.5t-124.5 -14t-127 -3q-115 0 -201.5 9.5 t-164 33.5t-129.5 65.5t-90.5 104.5t-56.5 152.5t-18 207.5zM485 547q0 -46 5.5 -81t14.5 -59.5t27.5 -41t37 -26t50.5 -14.5t60 -6.5t74 -1.5q112 0 168 23l-252 164l151 213l201 -146v232q0 68 -3 110t-14 79t-28 55.5t-49 32.5t-72.5 18t-103.5 4q-62 0 -102 -4 t-71.5 -18t-48.5 -32.5t-28 -55t-14 -79t-3 -110.5v-256z" />
<glyph unicode="R" horiz-adv-x="1404" d="M109 0v1421h720q91 0 156 -8.5t123.5 -33.5t93.5 -68t55.5 -113t20.5 -168q0 -163 -52.5 -243.5t-189.5 -94.5v-6q117 -5 179.5 -70.5t62.5 -185.5v-98q0 -33 5 -52t18.5 -27t24 -9.5t33.5 -1.5h9v-242h-250q-219 0 -219 213v145q0 179 -158 179h-254v-537h-378zM487 813 h248q38 0 58 1t42 5.5t31.5 13t18.5 25t11.5 39t2.5 57.5q0 99 -20.5 127.5t-98.5 28.5h-293v-297z" />
<glyph unicode="S" horiz-adv-x="1355" d="M70 463h364q0 -45 8 -73.5t22.5 -47.5t45 -28t66.5 -12t96 -3q142 0 189.5 23t47.5 108q0 25 -0.5 41t-6 30.5t-9 22.5t-17.5 15.5t-23.5 10.5t-36 6t-45.5 4t-60 3l-84 4q-218 10 -299 28q-144 33 -202 132q-54 93 -54 270q0 67 9 122t23.5 97.5t41 75t54 55t70 38.5 t81.5 25t96 14t106 6.5t119 1.5q85 0 131.5 -1.5t117.5 -9t110 -22.5t87 -43.5t72.5 -70.5t41.5 -105.5t17 -145.5v-59h-364q0 32 -4.5 54.5t-10.5 38.5t-22 26.5t-27.5 16t-40.5 8t-47.5 3t-60.5 0.5q-75 0 -120.5 -7t-67 -25t-27.5 -37.5t-6 -53.5q0 -41 9 -66t32.5 -37 t45.5 -15.5t68 -6.5l158 -10q112 -7 185.5 -16.5t136.5 -29t98 -46.5t60.5 -72t34.5 -103t9 -142v-12q0 -51 -0.5 -77t-6 -73t-16 -72t-31.5 -62.5t-51.5 -58t-77 -45.5t-107 -37t-143 -21t-183.5 -9q-96 0 -148.5 1.5t-127 11t-114 27.5t-87 52t-70.5 84.5t-39 125.5 t-16 173z" />
<glyph unicode="T" horiz-adv-x="1126" d="M2 1092v329h1124v-329h-381v-1092h-378v1092h-365z" />
<glyph unicode="U" horiz-adv-x="1460" d="M119 473v948h379v-940q0 -34 6.5 -60t15 -43.5t28 -29t35 -18t47.5 -9.5t54 -3.5t64 -0.5q54 0 85.5 3t60 13t42.5 30t21.5 52.5t7.5 82.5v923h378v-948q0 -142 -33 -235.5t-108.5 -149t-183.5 -78t-270 -22.5q-106 0 -189.5 6.5t-148 22t-111 35t-79 52t-52 66.5 t-30.5 84.5t-15 100t-4 118.5z" />
<glyph unicode="V" horiz-adv-x="1347" d="M-31 1421h385l308 -1095h10l313 1095h391l-413 -1421h-592z" />
<glyph unicode="W" horiz-adv-x="2091" d="M-16 1421h383l204 -1095h15l266 1095h395l254 -1095h12l216 1095h380l-315 -1421h-547l-194 891h-15l-207 -891h-540z" />
<glyph unicode="X" horiz-adv-x="1386" d="M-31 0l426 731l-399 690h444l254 -522l258 522h437l-392 -690l422 -731h-442l-283 547l-278 -547h-447z" />
<glyph unicode="Y" horiz-adv-x="1341" d="M-31 1421h434l254 -549h13l262 549h440l-520 -923v-498h-379v498z" />
<glyph unicode="Z" horiz-adv-x="1249" d="M43 0v319l672 760v13h-627v329h1116v-319l-680 -762v-10h680v-330h-1161z" />
<glyph unicode="[" horiz-adv-x="729" d="M109 -285v1717h512v-310h-154v-1095h154v-312h-512z" />
<glyph unicode="\" horiz-adv-x="1212" d="M139 1421h267l667 -1421h-266zM807 0h266h-266z" />
<glyph unicode="]" horiz-adv-x="729" d="M109 27h153v1095h-153v310h512v-1717h-512v312z" />
<glyph unicode="^" horiz-adv-x="1136" d="M94 473l361 948h227l360 -948h-247l-226 641h-2l-227 -641h-246z" />
<glyph unicode="_" horiz-adv-x="946" d="M0 -141h946v-144h-946v144z" />
<glyph unicode="`" horiz-adv-x="765" d="M141 1223l97 209l385 -228l-54 -117z" />
<glyph unicode="a" horiz-adv-x="1153" d="M78 297q0 174 87.5 243.5t272.5 69.5h43t43.5 -2t48 -6t42.5 -12t41 -19.5t30 -30t23 -42.5h14v157q0 42 -3.5 64t-17 45.5t-44.5 33t-83 9.5q-67 0 -100 -23t-33 -86h-325q0 64 14.5 114t34 82t59 54.5t70 33.5t88 16.5t91 6.5t99.5 1h2q78 0 132 -3.5t107.5 -13t88 -27 t64.5 -45.5t46.5 -69t26 -97t9.5 -130v-621h-326l12 147h-12q-29 -159 -285 -159q-91 0 -153 13t-111 46t-72.5 95t-23.5 155zM403 307q0 -31 11 -53t24 -32.5t36.5 -16t36 -6t34.5 -0.5q107 0 142.5 22t35.5 98q0 31 -12 50t-38 28t-54.5 12t-73.5 3q-68 0 -105 -21.5 t-37 -83.5z" />
<glyph unicode="b" horiz-adv-x="1161" d="M104 0v1421h326v-569h14q37 89 106 121.5t171 32.5q205 0 291 -98t86 -326v-228q0 -193 -95 -279.5t-282 -86.5q-117 0 -187 39.5t-96 144.5h-16l8 -172h-326zM430 498q0 -42 0.5 -67t3.5 -54.5t8 -45.5t13.5 -34t21.5 -26.5t32 -16.5t43.5 -11t57.5 -3q102 0 132 49.5 t30 208.5q0 58 -2 92t-11 70t-26.5 54.5t-47.5 30t-75 11.5q-73 0 -108.5 -17.5t-53.5 -73t-18 -167.5z" />
<glyph unicode="c" horiz-adv-x="1054" d="M59 496q0 90 7 155.5t25.5 126.5t52.5 100.5t86.5 70t128 44t176.5 13.5q69 0 117.5 -2.5t102.5 -12t90.5 -25.5t71 -44.5t55 -69t32.5 -98.5t12 -133h-326v15q0 69 -26 91q-33 29 -129 29q-63 0 -92.5 -18t-43.5 -73t-14 -169q0 -72 4.5 -116t12.5 -73.5t27.5 -43 t42.5 -18.5t63 -5q37 0 62.5 2.5t43 11t27 18.5t15 30.5t6.5 40t1 54.5h326q0 -138 -26 -218.5t-85 -123.5q-54 -39 -140.5 -53t-229.5 -14q-98 0 -169 10t-125.5 35t-88.5 62t-55 96t-29.5 131.5t-8.5 173.5z" />
<glyph unicode="d" horiz-adv-x="1159" d="M63 354v228q0 228 86 326t291 98q102 0 171 -32.5t106 -121.5h14v569h326v-1421h-326l8 172h-16q-26 -105 -96 -144.5t-187 -39.5q-187 0 -282 86.5t-95 279.5zM389 496q0 -63 2.5 -103.5t10.5 -70.5t18 -45t31.5 -24t43 -11t60.5 -2q73 0 107.5 17t51.5 71.5t17 167.5 q0 50 -1 76.5t-4 59.5t-10 48.5t-19.5 33.5t-31.5 25t-46 12t-64 5q-28 0 -49 -3t-38 -6.5t-29 -14t-20.5 -19t-14 -28t-9 -33.5t-4.5 -43.5t-1.5 -50.5t-0.5 -62z" />
<glyph unicode="e" horiz-adv-x="1087" d="M57 496q0 120 12.5 200.5t43.5 143.5t87 97.5t139 51.5t204 17q145 0 234.5 -22t148 -81.5t80.5 -155t22 -251.5v-54h-645q0 -135 31 -181t129 -46q86 0 126 22.5t40 94.5h319q0 -211 -133 -285q-104 -59 -352 -59q-148 0 -241 26t-148 89.5t-76 155.5t-21 237zM383 621 h319q0 55 -9 87.5t-33 47.5t-48.5 18.5t-72.5 3.5q-90 0 -121.5 -30.5t-34.5 -126.5z" />
<glyph unicode="f" horiz-adv-x="745" d="M37 756v239h131v97q0 81 14.5 134.5t48 93t96.5 61t152 31t223 9.5v-247q-36 8 -59 8q-37 0 -61.5 -2t-41.5 -10t-26 -16.5t-13.5 -29t-5.5 -39t-1 -55.5v-35h223v-239h-223v-756h-326v756h-131z" />
<glyph unicode="g" horiz-adv-x="1165" d="M66 496q0 76 3 131t13 111.5t27 95t45.5 73.5t69 55t96.5 32t129 12q117 0 186 -39.5t96 -147.5h12l-12 176h326v-952q0 -144 -21.5 -233.5t-78.5 -147.5t-148 -81t-238 -23q-95 0 -156.5 4t-117.5 17.5t-87.5 37t-56 64t-34.5 96t-13 135.5h310q0 -78 45 -100 q33 -17 100 -17q106 0 138 29.5t32 132.5v207h-12q-54 -164 -270 -164q-74 0 -132 13.5t-98 35t-68.5 58.5t-44.5 75t-25.5 93.5t-12 104t-2.5 116.5zM391 496q0 -154 31 -200t137 -46q48 0 79.5 10t50 26.5t28 50.5t12 67.5t2.5 91.5q0 114 -16 168.5t-50 73t-106 18.5 q-41 0 -65.5 -3t-45 -14t-30.5 -26.5t-17 -48t-8.5 -69.5t-1.5 -99z" />
<glyph unicode="h" d="M109 0v1421h325v-612h12q34 113 104.5 155t194.5 42q163 0 241.5 -78.5t78.5 -239.5v-688h-326v612q0 76 -29.5 110t-105.5 34q-101 0 -135.5 -52.5t-34.5 -156.5v-547h-325z" />
<glyph unicode="i" horiz-adv-x="487" d="M82 0v995h326v-995h-326zM82 1171v250h326v-250h-326z" />
<glyph unicode="j" horiz-adv-x="458" d="M-37 -74q56 0 75 25t19 69v975h326v-1007q0 -162 -78 -229.5t-244 -67.5q-58 0 -98 12v223zM57 1171v250h326v-250h-326z" />
<glyph unicode="k" horiz-adv-x="1163" d="M104 0v1421h326v-790h107q81 0 103 14.5t22 67.5q0 58 6.5 101.5t17.5 74.5t32 52.5t43 34t57.5 19.5t69.5 9t85 2q47 0 90 -13v-184q-40 0 -57 -15t-17 -51q0 -57 -6 -90.5t-24.5 -61t-53 -41t-92.5 -18.5v-4q114 -3 155.5 -56t41.5 -175q0 -44 19 -69t75 -25v-203 q-40 -12 -98 -12q-85 0 -141 11.5t-99 42.5t-62.5 88t-19.5 146v33q0 55 -24.5 74.5t-110.5 19.5h-119v-403h-326z" />
<glyph unicode="l" horiz-adv-x="546" d="M113 0v1421h325v-1421h-325z" />
<glyph unicode="m" horiz-adv-x="1759" d="M111 0v995h315v-141h14q50 152 273 152q47 0 84 -4t77 -16t67.5 -32.5t47.5 -57t25 -85.5h14q13 98 92.5 146.5t184.5 48.5q175 0 261.5 -78t86.5 -248v-680h-328v575q0 33 -1 50.5t-4.5 42t-11.5 37.5t-22 26.5t-36.5 19t-53.5 5.5q-46 0 -77 -14.5t-47 -42.5t-22 -59.5 t-6 -74.5v-565h-325v602q0 32 -2 52t-9 41.5t-20 33.5t-36.5 19.5t-57.5 7.5q-93 0 -125.5 -46.5t-32.5 -144.5v-565h-325z" />
<glyph unicode="n" d="M109 0v995h325v-186h12q34 113 104.5 155t194.5 42q163 0 241.5 -78.5t78.5 -239.5v-688h-326v612q0 76 -29.5 110t-105.5 34q-101 0 -135.5 -52.5t-34.5 -156.5v-547h-325z" />
<glyph unicode="o" horiz-adv-x="1124" d="M63 496q0 107 7.5 180t29.5 133t56 95.5t91.5 59.5t132 33t181.5 9q108 0 181.5 -8t132 -31t92 -57.5t55.5 -94.5t29.5 -134.5t7.5 -184.5q0 -106 -8 -179.5t-30 -133t-56 -95t-92 -59t-132 -32.5t-180 -9q-104 0 -178.5 9.5t-131.5 34t-92 61t-57 96t-30.5 132 t-8.5 175.5zM391 496q0 -58 2 -94t9 -67.5t18 -47.5t31.5 -28t47.5 -15.5t68 -3.5q48 0 76 7t47.5 20.5t28 46.5t11.5 72t3 110q0 89 -4 133.5t-22 76.5t-49.5 41t-90.5 9q-41 0 -68 -3.5t-47.5 -16t-31.5 -29t-18 -48.5t-9 -68t-2 -95z" />
<glyph unicode="p" horiz-adv-x="1171" d="M104 -430v1425h326l-8 -157h16q26 95 96.5 131.5t186.5 36.5q187 0 282 -87t95 -278v-227q0 -229 -86.5 -327.5t-290.5 -98.5q-49 0 -87 6.5t-75.5 23t-66.5 49.5t-48 83h-14v-580h-326zM430 496q0 -57 2.5 -91.5t11.5 -69.5t26.5 -53.5t48 -30t75.5 -11.5q72 0 107 17 t53 72t18 167q0 49 -1 76.5t-4.5 60t-10.5 48.5t-19.5 33.5t-32 24.5t-46.5 12t-64 5q-103 0 -133.5 -50t-30.5 -210z" />
<glyph unicode="q" d="M70 414v227q0 191 95 278t281 87q117 0 188 -36.5t97 -131.5h14l-6 157h326v-1425h-326v580h-16q-25 -65 -69.5 -102.5t-92 -48.5t-115.5 -11q-203 0 -289.5 99t-86.5 327zM395 496q0 -57 2.5 -91.5t11.5 -69.5t26.5 -53.5t48 -30t75.5 -11.5q73 0 108.5 17t53.5 72 t18 167q0 42 -0.5 67.5t-3.5 55t-8 46t-14 34.5t-21.5 26.5t-31.5 16.5t-43.5 11t-57.5 3q-103 0 -133.5 -50t-30.5 -210z" />
<glyph unicode="r" horiz-adv-x="948" d="M102 0v995h316v-147h14q59 158 250 158q55 0 97 -14t68 -41.5t43 -59t25 -77t10.5 -84t2.5 -91.5v-78h-293v47q0 81 -12 107q-20 40 -74 41q-121 0 -121 -160v-596h-326z" />
<glyph unicode="s" horiz-adv-x="1095" d="M61 311h326q0 -33 10 -55t22 -33t38 -17t41.5 -6.5t48.5 -0.5q111 0 141.5 15t30.5 73q0 29 -8 48t-18.5 29t-36.5 14.5t-45.5 5.5t-63.5 1q-153 0 -249.5 16.5t-148.5 55.5t-70 90t-18 133q0 47 5.5 86.5t19 70t28 54.5t39.5 41.5t47 30t57.5 20.5t62.5 13t71 7t75 2.5 t81 0.5q52 0 82.5 -0.5t83 -5.5t85 -14t72.5 -27t62.5 -43.5t38.5 -65t16 -90.5v-47h-307q-3 23 -13.5 39.5t-22 24.5t-32 12.5t-32.5 5t-33 0.5q-63 0 -98 -3.5t-51 -15t-18.5 -22.5t-2.5 -37q0 -18 1.5 -28t10.5 -22.5t26.5 -19t50.5 -12t81 -6.5q58 -1 96.5 -3t83.5 -5 t74.5 -8.5t62.5 -14t53.5 -20.5t42 -28.5t33.5 -38t22.5 -49.5t14.5 -62t4 -76q0 -85 -26.5 -146.5t-68.5 -97.5t-108 -57t-131.5 -28t-152.5 -7h-11q-63 0 -94 0.5t-85.5 4t-83 12.5t-68.5 23.5t-61 38.5t-43 57t-31 80.5t-9 106.5z" />
<glyph unicode="t" horiz-adv-x="919" d="M27 756v239h120v209h326v-209h377v-239h-377v-445q0 -46 15.5 -65t58.5 -19q25 0 42 8t25 16.5t12.5 31.5t5 32.5t1.5 40.5l2 54h261v-91q0 -102 -19.5 -166t-66 -101t-112 -50.5t-170.5 -13.5q-71 0 -120.5 4.5t-102.5 21t-85 45.5t-52.5 80.5t-20.5 124.5v492h-120z " />
<glyph unicode="u" horiz-adv-x="1165" d="M96 315v680h326v-594q0 -39 3.5 -64t15 -49.5t37 -36t65.5 -11.5q72 0 127 37t55 106v612h326v-995h-316l10 190h-14q-59 -202 -297 -202q-338 0 -338 327z" />
<glyph unicode="v" horiz-adv-x="1003" d="M-12 995h340l180 -778h10l162 778h338l-246 -995h-510z" />
<glyph unicode="w" horiz-adv-x="1587" d="M2 995h313l109 -778h16l164 778h381l164 -778h14l115 778h307l-174 -995h-467l-141 709h-10l-138 -709h-473z" />
<glyph unicode="x" horiz-adv-x="1032" d="M-12 0l297 526l-256 469h377l112 -276l121 276h379l-262 -469l288 -526h-382l-144 328l-137 -328h-393z" />
<glyph unicode="y" horiz-adv-x="1009" d="M-12 995h340l145 -606q10 -43 31 -79t43 -36l143 721h332l-250 -1083q-31 -134 -77 -208t-129.5 -110t-221.5 -36l-111 6v229q21 -8 78 -8q28 0 50 5t38 18t27 24.5t20.5 35t14.5 39t14 46t14 47.5q-102 0 -178 77t-110 195z" />
<glyph unicode="z" horiz-adv-x="940" d="M39 0v268l471 500h-434v227h823v-258l-481 -510h481v-227h-860z" />
<glyph unicode="{" horiz-adv-x="729" d="M45 459v250q156 0 156 84v387q0 61 23.5 112t58 80t70 44.5t63.5 15.5h268v-250h-70q-31 0 -50.5 -7.5t-27 -24.5t-9 -29t-1.5 -36v-323q0 -41 -13.5 -73t-33 -50t-46.5 -30.5t-47 -17.5t-42 -7v-4q27 -3 42.5 -5.5t46 -14.5t47.5 -30.5t31.5 -55.5t14.5 -87v-324 q0 -25 1.5 -37.5t9 -29t27 -24t50.5 -7.5h70v-250h-268q-28 0 -63.5 15.5t-70 44.5t-58 80t-23.5 112v389q0 103 -156 103z" />
<glyph unicode="|" horiz-adv-x="1136" d="M461 0v1421h217v-1421h-217z" />
<glyph unicode="}" horiz-adv-x="729" d="M45 -35h70q31 0 50.5 7.5t27 24t9 29t1.5 37.5v324q0 50 14.5 87t31.5 55.5t47.5 30.5t46 14.5t42.5 5.5v4q-22 2 -42 7t-47 17.5t-46.5 30.5t-33 50t-13.5 73v323q0 24 -1.5 36t-9 29t-27 24.5t-50.5 7.5h-70v250h270q28 0 62.5 -15.5t69 -44.5t58 -80t23.5 -112v-387 q0 -84 156 -84v-250q-156 0 -156 -103v-389q0 -61 -23.5 -112t-58 -80t-69 -44.5t-62.5 -15.5h-270v250z" />
<glyph unicode="~" horiz-adv-x="1136" d="M94 369q0 55 6 105.5t23 104.5t44 93.5t72.5 64.5t104.5 25q68 0 127 -43l211 -150q66 -49 113 -49q34 0 50.5 53t12.5 107h184q0 -53 -6.5 -103.5t-23.5 -104t-43 -92.5t-70 -64t-100 -25q-54 0 -140 55l-233 152q-58 37 -94 37q-14 0 -23.5 -10.5t-14.5 -32.5t-7.5 -38 t-4.5 -46.5t-3 -38.5h-185z" />
<glyph unicode="&#xa3;" horiz-adv-x="1363" d="M88 522v275h170v204q0 95 15 162.5t51.5 120.5t99.5 84.5t157 47.5t226 16q109 0 187.5 -8.5t138 -29.5t96.5 -51t59.5 -78.5t31.5 -107t9 -141.5v-68h-371q0 103 -32 135q-33 33 -121 33q-101 0 -134.5 -34t-33.5 -136v-149h360v-275h-360q0 -99 -16 -140t-74 -69v-10 h782v-303h-1196v303q23 0 41.5 3.5t31 13t22 18t15 26.5t9 29.5t5 36t1.5 37v40.5v4v3.5v4v3.5h-170z" />
<glyph unicode="&#xa9;" horiz-adv-x="1515" d="M37 711q0 196 96.5 362t262.5 262.5t362 96.5q195 0 361 -96.5t263 -262.5t97 -362q0 -147 -57.5 -281t-154 -230.5t-230 -154t-279.5 -57.5q-196 0 -362 97t-262.5 263.5t-96.5 362.5zM201 711q0 -152 74 -280t202 -202.5t281 -74.5q112 0 215 44t178 118.5t119.5 177.5 t44.5 217t-44.5 217t-119.5 177.5t-178 118.5t-215 44q-153 0 -281 -74.5t-202 -202.5t-74 -280zM371 717q0 193 111.5 314.5t301.5 121.5q140 0 237 -76t120 -209h-168q-13 68 -66.5 109t-124.5 41q-116 0 -180.5 -88t-64.5 -211q0 -73 28.5 -141t87.5 -115t135 -47 q70 0 125.5 45t59.5 112h168q-15 -133 -115.5 -212.5t-237.5 -79.5q-187 0 -302 124t-115 312z" />
<glyph unicode="&#xab;" horiz-adv-x="1052" d="M88 516l242 459l213 -115l-181 -344l181 -321l-203 -125zM510 516l242 459l215 -115l-183 -344l183 -321l-203 -125z" />
<glyph unicode="&#xae;" horiz-adv-x="1515" d="M37 711q0 196 96.5 362t262.5 262.5t362 96.5q195 0 361 -96.5t263 -262.5t97 -362q0 -147 -57.5 -281t-154 -230.5t-230 -154t-279.5 -57.5q-196 0 -362 97t-262.5 263.5t-96.5 362.5zM201 711q0 -152 74 -280t202 -202.5t281 -74.5q112 0 215 44t178 118.5t119.5 177.5 t44.5 217t-44.5 217t-119.5 177.5t-178 118.5t-215 44q-153 0 -281 -74.5t-202 -202.5t-74 -280zM446 315v781h392q74 0 124 -9t93.5 -33t64.5 -73.5t21 -124.5q0 -105 -53 -155t-160 -58l190 -328h-186l-174 320h-146v-320h-166zM612 760h230q70 0 101.5 24t31.5 93 q0 23 -7 39.5t-22 26.5t-29 16t-38 8.5t-38 3t-40 0.5h-189v-211z" />
<glyph unicode="&#xbb;" horiz-adv-x="1052" d="M74 186l182 344l-182 320l202 125l254 -445l-241 -460zM496 186l182 344l-182 320l202 125l254 -445l-241 -460z" />
<glyph unicode="&#x401;" horiz-adv-x="1284" d="M121 0v1421h1026v-311h-647v-260h606v-262h-606v-277h659v-311h-1038zM356 1614v196h207v-196h-207zM756 1614v196h205v-196h-205z" />
<glyph unicode="&#x402;" horiz-adv-x="1490" d="M2 1092v329h1124v-329h-381v-283h13q33 111 112.5 154t206.5 43q168 0 260.5 -80.5t92.5 -237.5v-532q0 -142 -33.5 -236t-109 -149.5t-183.5 -78t-270 -22.5v330q68 0 103.5 4.5t64.5 23t39 54.5t10 98v412q0 75 -29.5 109t-106.5 34q-101 0 -135.5 -52.5t-34.5 -156.5 v-526h-378v1092h-365z" />
<glyph unicode="&#x403;" horiz-adv-x="1167" d="M104 0v1421h1008v-311h-629v-1110h-379zM479 1665l387 227l95 -209l-429 -135z" />
<glyph unicode="&#x404;" horiz-adv-x="1378" d="M66 526v369q0 99 15.5 177t43.5 134.5t73.5 97t97 65t124.5 39t145.5 19.5t169.5 5q131 0 211.5 -7.5t159 -33.5t119 -76.5t65.5 -135.5t25 -212v-56h-391v56q-4 37 -17.5 62.5t-31.5 40t-49.5 21.5t-59 9t-72.5 2q-53 0 -90.5 -5t-64.5 -18.5t-42.5 -31t-24.5 -48 t-12 -64t-3 -85.5h372v-262h-372q0 -55 2.5 -88.5t10.5 -68t23.5 -53t42 -34t65 -21.5t93.5 -6q53 0 84.5 2.5t63.5 12.5t48 29.5t26 52.5t10 82v43h391v-43q0 -60 -1 -93.5t-8 -84.5t-20 -84.5t-39 -72t-63 -69.5q-46 -38 -97.5 -60.5t-119 -31.5t-108.5 -10.5t-126 -1.5 q-99 0 -160 2.5t-140.5 13.5t-126.5 32.5t-99 60.5t-79.5 95.5t-45.5 140.5t-18 193z" />
<glyph unicode="&#x405;" horiz-adv-x="1355" d="M70 463h364q0 -45 8 -73.5t22.5 -47.5t45 -28t66.5 -12t96 -3q142 0 189.5 23t47.5 108q0 25 -0.5 41t-6 30.5t-9 22.5t-17.5 15.5t-23.5 10.5t-36 6t-45.5 4t-60 3l-84 4q-218 10 -299 28q-144 33 -202 132q-54 93 -54 270q0 67 9 122t23.5 97.5t41 75t54 55t70 38.5 t81.5 25t96 14t106 6.5t119 1.5q85 0 131.5 -1.5t117.5 -9t110 -22.5t87 -43.5t72.5 -70.5t41.5 -105.5t17 -145.5v-59h-364q0 32 -4.5 54.5t-10.5 38.5t-22 26.5t-27.5 16t-40.5 8t-47.5 3t-60.5 0.5q-75 0 -120.5 -7t-67 -25t-27.5 -37.5t-6 -53.5q0 -41 9 -66t32.5 -37 t45.5 -15.5t68 -6.5l158 -10q112 -7 185.5 -16.5t136.5 -29t98 -46.5t60.5 -72t34.5 -103t9 -142v-12q0 -51 -0.5 -77t-6 -73t-16 -72t-31.5 -62.5t-51.5 -58t-77 -45.5t-107 -37t-143 -21t-183.5 -9q-96 0 -148.5 1.5t-127 11t-114 27.5t-87 52t-70.5 84.5t-39 125.5 t-16 173z" />
<glyph unicode="&#x406;" horiz-adv-x="614" d="M117 0v1421h379v-1421h-379z" />
<glyph unicode="&#x407;" horiz-adv-x="614" d="M-6 1614v196h207v-196h-207zM117 0v1421h379v-1421h-379zM393 1614v196h205v-196h-205z" />
<glyph unicode="&#x408;" horiz-adv-x="1140" d="M41 477v117h360v-117q0 -93 22 -126.5t95 -33.5q84 0 107.5 24.5t23.5 96.5v983h379v-983q0 -97 -9.5 -165.5t-35 -120t-61 -82.5t-96 -50t-132 -25.5t-176.5 -6.5q-102 0 -173 8.5t-126 31t-88 56.5t-54 91t-28.5 128t-7.5 174z" />
<glyph unicode="&#x409;" horiz-adv-x="2140" d="M76 0v262h18q64 0 98.5 35t34.5 117v1007h1106v-534h293q63 0 107 -3t95 -13t85 -28.5t67.5 -51.5t53 -79.5t31.5 -114.5t12 -155q0 -84 -10.5 -148.5t-28.5 -111t-49 -79.5t-66 -53t-86 -31t-102 -15t-121 -4h-660v1092h-348v-736q0 -96 -29.5 -175t-94.5 -130t-156 -51 h-250zM1333 297h191q97 0 135.5 28.5t38.5 114.5q0 71 -35 94t-131 23h-199v-260z" />
<glyph unicode="&#x40a;" horiz-adv-x="2140" d="M121 0v1421h379v-534h454v534h379v-534h293q63 0 107 -3t95 -13t85 -28.5t67.5 -51.5t53 -79.5t31.5 -114.5t12 -155q0 -84 -10.5 -148.5t-28.5 -111t-49 -79.5t-66 -53t-86 -31t-102 -15t-121 -4h-660v557h-454v-557h-379zM1333 297h191q97 0 135.5 28.5t38.5 114.5 q0 71 -35 94t-131 23h-199v-260z" />
<glyph unicode="&#x40b;" horiz-adv-x="1490" d="M2 1092v329h1124v-329h-381v-283h13q33 111 112.5 154t206.5 43q168 0 260.5 -80.5t92.5 -237.5v-688h-379v592q0 75 -29.5 109t-106.5 34q-101 0 -135.5 -52.5t-34.5 -156.5v-526h-378v1092h-365z" />
<glyph unicode="&#x40c;" horiz-adv-x="1492" d="M121 0v1421h379v-534h264q83 0 123.5 47.5t40.5 130.5v143q0 213 219 213h242v-241q-50 0 -64 -8q-27 -16 -27 -82v-113q0 -239 -239 -248v-6q119 -5 187.5 -71.5t68.5 -184.5v-135q0 -33 5 -52t18.5 -27t24 -9.5t33.5 -1.5h9v-242h-250q-219 0 -219 213v166 q0 178 -156 178h-280v-557h-379zM561 1665l387 227l94 -209l-428 -135z" />
<glyph unicode="&#x40e;" horiz-adv-x="1386" d="M-23 1421h426l293 -757h4l293 757h426l-590 -1317q-46 -104 -200 -104h-291v242h86q41 0 53 30l6 17zM340 1804h238q0 -23 7 -39t16 -24t27.5 -12t30 -4.5t35.5 -0.5q23 0 35 0.5t30.5 4.5t27.5 12t16.5 24t7.5 39h238q0 -68 -20.5 -114.5t-46 -70t-79.5 -35.5 t-89.5 -13.5t-108.5 -1.5h-11h-11q-72 0 -107.5 1.5t-89.5 13.5t-79.5 35.5t-46 70t-20.5 114.5z" />
<glyph unicode="&#x40f;" horiz-adv-x="1492" d="M121 0v1421h379v-1091h495v1091h379v-1421h-436v-395h-379v395h-438z" />
<glyph unicode="&#x410;" horiz-adv-x="1388" d="M-23 0l426 1421h576l432 -1421h-387l-74 244h-508l-71 -244h-394zM522 520h352l-176 617h-4z" />
<glyph unicode="&#x411;" horiz-adv-x="1398" d="M113 0v1421h1075v-311h-696v-238h389q45 0 78 -1.5t73.5 -6.5t70.5 -14t62.5 -25t56 -38.5t45 -55t35 -73.5t21.5 -95.5t8 -120.5q0 -68 -6.5 -123t-17 -98t-30 -76t-40 -56t-52.5 -39.5t-62.5 -26t-75 -15t-84 -7t-95.5 -1.5h-755zM492 311h286q96 0 135 30t39 114 t-34.5 109.5t-131.5 25.5h-294v-279z" />
<glyph unicode="&#x412;" horiz-adv-x="1398" d="M113 0v1421h747q116 0 191.5 -13.5t137.5 -51.5t91 -111.5t29 -187.5q0 -73 -9 -124t-32.5 -95t-68.5 -71t-114 -38v-14q62 -4 106.5 -22t71.5 -45t42.5 -68t20.5 -84t5 -101q0 -74 -10.5 -131.5t-28.5 -99t-49 -71t-66 -47.5t-86 -28.5t-102 -14t-121 -3.5h-755z M492 311h286q96 0 135 30t39 114t-34.5 109.5t-131.5 25.5h-294v-279zM492 852h274q100 0 132 26t32 111q0 68 -22 94.5t-97 26.5h-319v-258z" />
<glyph unicode="&#x413;" horiz-adv-x="1167" d="M104 0v1421h1008v-311h-629v-1110h-379z" />
<glyph unicode="&#x414;" horiz-adv-x="1492" d="M-14 330h94q27 26 33.5 31.5t31 32t32 39.5t27 45.5t26.5 59t20 70.5t17.5 90t9 107.5t4.5 132.5v483h1093v-1091h135v-705h-379v375h-765v-375h-379v705zM502 330h493v762h-336v-154q0 -149 -13.5 -259.5t-39.5 -177.5t-49 -103t-55 -68z" />
<glyph unicode="&#x415;" horiz-adv-x="1284" d="M121 0v1421h1026v-311h-647v-260h606v-262h-606v-277h659v-311h-1038z" />
<glyph unicode="&#x416;" horiz-adv-x="2174" d="M74 0v242q49 0 63 8q27 17 27 82v135q0 118 68.5 184.5t187.5 71.5v6q-118 5 -179 67t-61 181v113q0 33 -5 52t-18.5 27t-24 9.5t-33.5 1.5h-9v241h242q219 0 219 -213v-143q0 -83 40.5 -130.5t123.5 -47.5h182v534h379v-534h182q83 0 123.5 47.5t40.5 130.5v143 q0 213 219 213h242v-241q-49 0 -63 -8q-27 -15 -27 -82v-113q0 -119 -61 -181t-179 -67v-6q119 -5 187.5 -71.5t68.5 -184.5v-135q0 -33 5 -52t18.5 -27t24 -9.5t33.5 -1.5h9v-242h-250q-219 0 -219 213v166q0 178 -155 178h-199v-557h-379v557h-199q-155 0 -155 -178v-166 q0 -213 -219 -213h-250z" />
<glyph unicode="&#x417;" horiz-adv-x="1363" d="M104 422v76h361v-47q0 -47 10.5 -78.5t26 -49t46.5 -26t57.5 -10.5t74.5 -2q34 0 54.5 0.5t45 3t38 7t29 13t23 21t15 30.5t10 42t2.5 55q0 40 -6 62t-28 40t-65.5 24.5t-117.5 6.5h-90v274h90q57 0 91.5 3t57.5 9t33 21t13.5 32.5t3.5 49.5q0 35 -1.5 53.5t-7.5 40 t-18 31t-34.5 18.5t-55.5 12t-82 3q-42 0 -63 -1t-49 -5.5t-40.5 -14.5t-26 -28t-18 -46.5t-4.5 -68.5v-29h-360v49q0 67 8.5 122t22.5 97t38.5 75t51.5 56t67 39.5t78 26t92.5 15t103 7t115.5 1.5q60 0 103 -2t103.5 -10.5t104 -23.5t90 -43.5t75.5 -68t48 -99.5t19 -136 q0 -64 -10 -114.5t-33 -95.5t-67 -73.5t-107 -36.5v-14q233 -10 233 -305q0 -78 -14.5 -139.5t-39.5 -105.5t-65 -76t-84.5 -51t-104.5 -30.5t-118 -15.5t-133 -4q-62 0 -107.5 1.5t-100 6.5t-93.5 14t-81.5 25t-72 38.5t-57 55.5t-44 74.5t-26.5 96.5t-10 122z" />
<glyph unicode="&#x418;" horiz-adv-x="1492" d="M121 0v1421h379l-31 -872h4l522 872h379v-1421h-379l31 874h-4l-522 -874h-379z" />
<glyph unicode="&#x419;" horiz-adv-x="1492" d="M121 0v1421h379l-31 -872h6l520 872h379v-1421h-379l31 874h-6l-520 -874h-379zM389 1804h238q0 -23 7 -39t16 -24t27.5 -12t30 -4.5t35.5 -0.5q23 0 35 0.5t30.5 4.5t27.5 12t16.5 24t7.5 39h238q0 -68 -20.5 -114.5t-46 -70t-79.5 -35.5t-89.5 -13.5t-108.5 -1.5h-11 h-11q-72 0 -107.5 1.5t-89.5 13.5t-79.5 35.5t-46 70t-20.5 114.5z" />
<glyph unicode="&#x41a;" horiz-adv-x="1492" d="M121 0v1421h379v-534h264q83 0 123.5 47.5t40.5 130.5v143q0 213 219 213h242v-241q-50 0 -64 -8q-27 -16 -27 -82v-113q0 -239 -239 -248v-6q119 -5 187.5 -71.5t68.5 -184.5v-135q0 -33 5 -52t18.5 -27t24 -9.5t33.5 -1.5h9v-242h-250q-219 0 -219 213v166 q0 178 -156 178h-280v-557h-379z" />
<glyph unicode="&#x41b;" horiz-adv-x="1492" d="M76 0v262h18q64 0 98.5 35t34.5 117v1007h1147v-1421h-379v1092h-389v-736q0 -96 -29.5 -175t-94.5 -130t-156 -51h-250z" />
<glyph unicode="&#x41c;" horiz-adv-x="1986" d="M115 0v1421h602l270 -893h12l258 893h617v-1421h-379l37 1090h-12l-361 -1090h-328l-364 1090h-10l37 -1090h-379z" />
<glyph unicode="&#x41d;" horiz-adv-x="1492" d="M121 0v1421h379v-534h495v534h379v-1421h-379v557h-495v-557h-379z" />
<glyph unicode="&#x41e;" horiz-adv-x="1439" d="M63 510v401q0 92 16.5 166.5t46 128.5t75.5 94t98.5 65t122 40t140 21t157.5 6q124 0 217 -12t179.5 -45.5t141 -90.5t87 -151t32.5 -222v-401q0 -128 -32.5 -222t-87 -151t-141 -91t-179.5 -46t-217 -12t-216.5 12t-179 46t-141 91t-87 151t-32.5 222zM453 551 q0 -53 5.5 -90.5t20 -64t33 -42t51.5 -24t67.5 -11t88.5 -2.5q55 0 89.5 2.5t68 11t52 24t33 42t20 64t5.5 90.5v319q0 53 -5.5 90.5t-20.5 63.5t-33 41t-51.5 23.5t-68 11t-89.5 2.5q-54 0 -88.5 -2.5t-67.5 -11t-51.5 -23.5t-33 -41t-20 -63.5t-5.5 -90.5v-319z" />
<glyph unicode="&#x41f;" horiz-adv-x="1492" d="M121 0v1421h1253v-1421h-379v1092h-495v-1092h-379z" />
<glyph unicode="&#x420;" horiz-adv-x="1347" d="M111 0v1421h712q263 0 374.5 -120.5t111.5 -401.5q0 -104 -8.5 -178.5t-29.5 -137t-56 -101.5t-90 -66.5t-128 -39t-174 -11.5h-334v-365h-378zM489 694h259q60 0 90.5 5.5t51 29t25.5 61t5 109.5q0 115 -31.5 154t-140.5 39h-259v-398z" />
<glyph unicode="&#x421;" horiz-adv-x="1378" d="M66 526v369q0 99 15.5 177t43.5 134.5t73.5 97t97 65t124.5 39t145.5 19.5t169.5 5q131 0 211.5 -7.5t159 -33.5t119 -76.5t65.5 -135.5t25 -212v-56h-391v56q-4 37 -17.5 62.5t-31.5 40t-49.5 21.5t-59 9t-72.5 2q-55 0 -93 -5t-65 -19.5t-42 -32.5t-23.5 -51.5 t-11 -68.5t-2.5 -91v-222q0 -41 0.5 -66.5t3 -56t7.5 -49t13 -39t20.5 -32t30 -23t41 -17t53.5 -9t68 -3.5q53 0 84.5 2.5t63.5 12.5t48 29.5t26 52.5t10 82v43h391v-43q0 -60 -1 -93.5t-8 -84.5t-20 -84.5t-39 -72t-63 -69.5q-46 -38 -97.5 -60.5t-119 -31.5t-108.5 -10.5 t-126 -1.5q-99 0 -160 2.5t-140.5 13.5t-126.5 32.5t-99 60.5t-79.5 95.5t-45.5 140.5t-18 193z" />
<glyph unicode="&#x422;" horiz-adv-x="1126" d="M2 1092v329h1124v-329h-381v-1092h-378v1092h-365z" />
<glyph unicode="&#x423;" horiz-adv-x="1386" d="M-23 1421h426l293 -757h4l293 757h426l-590 -1317q-46 -104 -200 -104h-291v242h86q41 0 53 30l6 17z" />
<glyph unicode="&#x424;" horiz-adv-x="1851" d="M70 643v150q0 272 112 389.5t373 117.5h180v121h379v-121h180q261 0 373.5 -117.5t112.5 -389.5v-150q0 -101 -8.5 -174.5t-30 -134t-56.5 -99.5t-90 -65.5t-128 -37.5t-173 -11h-180v-121h-379v121h-180q-149 0 -242 25.5t-148 90t-75 159t-20 247.5zM459 643 q0 -67 6 -102.5t26.5 -57t51 -27t88.5 -5.5h104v520h-104q-106 0 -139 -36.5t-33 -141.5v-150zM1114 451h105q58 0 88.5 5.5t51 27t26.5 57t6 102.5v150q0 105 -33 141.5t-139 36.5h-105v-520z" />
<glyph unicode="&#x425;" horiz-adv-x="1386" d="M-31 0l426 731l-399 690h444l254 -522l258 522h437l-392 -690l422 -731h-442l-283 547l-278 -547h-447z" />
<glyph unicode="&#x426;" horiz-adv-x="1492" d="M121 0v1421h379v-1091h495v1091h379v-1091h135v-705h-379v375h-1009z" />
<glyph unicode="&#x427;" horiz-adv-x="1388" d="M80 961v460h379v-452q0 -34 6.5 -60t15 -43.5t28 -29t35 -18t47.5 -9.5t54 -3.5t64 -0.5h182v616h379v-1421h-379v475h-182q-95 0 -171 6t-137 16t-107 28.5t-80.5 40t-58 53.5t-38.5 64.5t-23 79t-11 92t-3 106.5z" />
<glyph unicode="&#x428;" horiz-adv-x="2285" d="M121 0v1421h379v-1091h454v1091h379v-1091h455v1091h379v-1421h-2046z" />
<glyph unicode="&#x429;" horiz-adv-x="2285" d="M121 0v1421h379v-1091h454v1091h379v-1091h455v1091h379v-1091h135v-705h-379v375h-1802z" />
<glyph unicode="&#x42a;" horiz-adv-x="1593" d="M2 1092v329h733v-520h355q49 0 84.5 -1.5t77 -7t71 -15.5t61.5 -27t54 -41t42.5 -58.5t33 -78.5t19.5 -102t7 -128q0 -68 -6.5 -123t-17 -98t-30 -76t-40 -56t-52.5 -39.5t-62.5 -26t-75 -15t-84 -7t-95.5 -1.5h-721v1092h-354zM735 311h252q99 0 136.5 27t37.5 117 q0 84 -34.5 109.5t-131.5 25.5h-260v-279z" />
<glyph unicode="&#x42b;" horiz-adv-x="1923" d="M111 0v1421h378v-520h355q49 0 84.5 -1.5t77 -7t71 -15.5t61.5 -27t54 -41t42.5 -58.5t33 -78.5t19.5 -102t7 -128q0 -68 -6.5 -123t-17 -98t-30 -76t-40 -56t-52.5 -39.5t-62.5 -26t-75 -15t-84 -7t-95.5 -1.5h-720zM489 311h252q99 0 136.5 27t37.5 117q0 84 -34 109.5 t-131 25.5h-261v-279zM1425 0v1421h379v-1421h-379z" />
<glyph unicode="&#x42c;" horiz-adv-x="1347" d="M111 0v1421h378v-520h355q49 0 84.5 -1.5t77 -7t71 -15.5t61.5 -27t54 -41t42.5 -58.5t33 -78.5t19.5 -102t7 -128q0 -68 -6.5 -123t-17 -98t-30 -76t-40 -56t-52.5 -39.5t-62.5 -26t-75 -15t-84 -7t-95.5 -1.5h-720zM489 311h252q99 0 136.5 27t37.5 117q0 84 -34 109.5 t-131 25.5h-261v-279z" />
<glyph unicode="&#x42d;" horiz-adv-x="1378" d="M74 496v43h391v-43q0 -49 10 -82t25.5 -52.5t47.5 -29.5t63.5 -12.5t84.5 -2.5q66 0 109 10.5t69 28t39 54t17 74.5t4 104h-373v262h373q0 51 -3 85t-12 64.5t-25 48t-43 31t-64.5 18.5t-90.5 5q-37 0 -61 -1t-52 -5.5t-45.5 -13.5t-33.5 -23.5t-25 -37.5t-12 -54v-56 h-391v56q0 71 7.5 128t20.5 102t36 79.5t49 59.5t65 42.5t77.5 28t94 16t107 7.5t122.5 2q97 0 169.5 -5t145.5 -19.5t124.5 -39t97.5 -65t74 -97t43.5 -134.5t15.5 -177v-369q0 -109 -18 -193t-45.5 -140.5t-79.5 -95.5t-99.5 -60.5t-127 -32.5t-140.5 -13.5t-160 -2.5 q-85 0 -125.5 1.5t-108 10.5t-119 31.5t-97.5 60.5q-37 31 -63 69.5t-39 72t-20 84.5t-8 84.5t-1 93.5z" />
<glyph unicode="&#x42e;" horiz-adv-x="2054" d="M121 0v1421h379v-534h178v24q0 128 32.5 222t87 151t140.5 90.5t178.5 45.5t216.5 12q87 0 158 -6t140.5 -21t122.5 -40t99 -65t75.5 -94t46 -128.5t16.5 -166.5v-401q0 -128 -32.5 -222t-87 -151t-141.5 -91t-180 -46t-217 -12q-87 0 -157.5 6t-139.5 21t-122 40.5 t-98.5 65.5t-75 94t-46 128.5t-16.5 166.5v47h-178v-557h-379zM1067 551q0 -53 5.5 -90.5t20 -64t33 -42t51.5 -24t67.5 -11t88.5 -2.5q55 0 89.5 2.5t68 11t52 24t33.5 42t20.5 64t5.5 90.5v319q0 53 -5.5 90.5t-20.5 63.5t-33.5 41t-52 23.5t-68 11t-89.5 2.5 q-54 0 -88.5 -2.5t-67.5 -11t-51.5 -23.5t-33 -41t-20 -63.5t-5.5 -90.5v-319z" />
<glyph unicode="&#x42f;" horiz-adv-x="1454" d="M74 0v242q49 0 63 8q27 17 27 82v98q0 120 62.5 185.5t179.5 70.5v6q-137 14 -189.5 94.5t-52.5 243.5q0 98 20 168t55 113t93.5 68t123.5 33.5t156 8.5h721v-1421h-379v537h-254q-157 0 -157 -179v-145q0 -213 -219 -213h-250zM543 954q0 -35 2.5 -57.5t11.5 -39 t18.5 -25t31.5 -13t42 -5.5t58 -1h247v297h-292q-78 0 -98.5 -28.5t-20.5 -127.5z" />
<glyph unicode="&#x430;" horiz-adv-x="1153" d="M78 297q0 174 87.5 243.5t272.5 69.5h43t43.5 -2t48 -6t42.5 -12t41 -19.5t30 -30t23 -42.5h14v157q0 42 -3.5 64t-17 45.5t-44.5 33t-83 9.5q-67 0 -100 -23t-33 -86h-325q0 64 14.5 114t34 82t59 54.5t70 33.5t88 16.5t91 6.5t99.5 1h2q78 0 132 -3.5t107.5 -13t88 -27 t64.5 -45.5t46.5 -69t26 -97t9.5 -130v-621h-326l12 147h-12q-29 -159 -285 -159q-91 0 -153 13t-111 46t-72.5 95t-23.5 155zM403 307q0 -31 11 -53t24 -32.5t36.5 -16t36 -6t34.5 -0.5q107 0 142.5 22t35.5 98q0 31 -12 50t-38 28t-54.5 12t-73.5 3q-68 0 -105 -21.5 t-37 -83.5z" />
<glyph unicode="&#x431;" horiz-adv-x="1124" d="M63 496v462q0 86 10.5 148t37.5 105t61 68.5t92 40t119 19t154 4.5q66 0 98.5 16.5t32.5 61.5h327q0 -71 -18.5 -121.5t-48 -80t-76.5 -46.5t-94 -22.5t-111 -5.5h-110q-32 0 -55.5 -4.5t-39.5 -10t-26.5 -18.5t-15.5 -21.5t-7.5 -29.5t-3 -31.5t-0.5 -36.5v-63h10 q22 35 69.5 50t133.5 15q96 0 161 -7.5t119 -29t85.5 -56t53.5 -92t30 -132t8 -182.5q0 -106 -8 -179.5t-30 -133t-56 -95t-92 -59t-132 -32.5t-180 -9q-104 0 -178.5 9.5t-131.5 34t-92 61t-57 96t-30.5 132t-8.5 175.5zM391 496q0 -58 2 -94t9 -67.5t18 -47.5t31.5 -28 t47.5 -15.5t68 -3.5q48 0 76 7t47.5 20.5t28 46.5t11.5 72t3 110q0 89 -4 133.5t-22 76.5t-49.5 41t-90.5 9q-41 0 -68 -3.5t-47.5 -16t-31.5 -29t-18 -48.5t-9 -68t-2 -95z" />
<glyph unicode="&#x432;" horiz-adv-x="1124" d="M109 0v995h497q60 0 101.5 -1.5t90 -7.5t80.5 -16t64 -28.5t50.5 -45t30 -64.5t11.5 -87q0 -46 -7.5 -80.5t-26 -66t-55.5 -50.5t-91 -24v-6q110 -3 159.5 -62.5t49.5 -154.5q0 -57 -10 -102t-27 -76.5t-45.5 -54t-59.5 -35.5t-75.5 -20.5t-86.5 -10t-100 -2.5h-550z M434 211h160q69 0 102 20t33 84q0 60 -30 82.5t-101 22.5h-164v-209zM434 598h144q79 0 101.5 19.5t22.5 78.5q0 55 -25.5 71.5t-98.5 16.5h-144v-186z" />
<glyph unicode="&#x433;" horiz-adv-x="901" d="M109 0v995h768v-227h-443v-768h-325z" />
<glyph unicode="&#x434;" d="M4 227h102q56 72 87.5 191.5t31.5 333.5v243h834v-768h108v-563h-311v336h-541v-336h-311v563zM451 227h282v541h-182v-16q0 -349 -100 -525z" />
<glyph unicode="&#x435;" horiz-adv-x="1087" d="M57 496q0 120 12.5 200.5t43.5 143.5t87 97.5t139 51.5t204 17q145 0 234.5 -22t148 -81.5t80.5 -155t22 -251.5v-54h-645q0 -135 31 -181t129 -46q86 0 126 22.5t40 94.5h319q0 -211 -133 -285q-104 -59 -352 -59q-148 0 -241 26t-148 89.5t-76 155.5t-21 237zM383 621 h319q0 55 -9 87.5t-33 47.5t-48.5 18.5t-72.5 3.5q-90 0 -121.5 -30.5t-34.5 -126.5z" />
<glyph unicode="&#x436;" horiz-adv-x="1693" d="M59 0v203q56 0 75.5 25t19.5 69q0 122 41 175t155 56v4q-58 5 -92.5 18.5t-53 41t-24.5 61t-6 90.5q0 36 -17 51t-57 15v184q43 13 90 13q88 0 140 -8.5t94.5 -36.5t60 -83t17.5 -145q0 -55 28 -78.5t107 -23.5h45v364h326v-364h45q79 0 107 23.5t28 78.5q0 61 7.5 105 t26 74t41.5 49t61 28.5t77.5 13t97.5 3.5q47 0 90 -13v-184q-40 0 -56.5 -14.5t-16.5 -51.5q0 -56 -6 -90t-24.5 -61.5t-53.5 -41t-93 -18.5v-4q114 -3 155.5 -56t41.5 -175q0 -44 19 -69t75 -25v-203q-40 -12 -98 -12q-85 0 -141 11.5t-99 42.5t-62.5 88t-19.5 146v33 q0 55 -24.5 74.5t-110.5 19.5h-67v-403h-326v403h-68q-86 0 -110.5 -19.5t-24.5 -74.5v-33q0 -89 -19.5 -146t-62.5 -88t-98.5 -42.5t-140.5 -11.5q-59 0 -99 12z" />
<glyph unicode="&#x437;" horiz-adv-x="1054" d="M57 295v53h318l2 -31q3 -42 12 -66t30 -35.5t41.5 -14t61.5 -2.5q51 0 72.5 2t38.5 15t20.5 35t3.5 68q0 56 -25 75.5t-110 19.5h-41v192h41q81 0 103 14.5t22 67.5q0 35 -2.5 51t-14.5 31.5t-37.5 20t-70.5 4.5q-42 0 -60 -2t-38 -12.5t-26.5 -34.5t-6.5 -66l-4 -18 h-321v36q0 60 10.5 106t28.5 78.5t49 55.5t64 36t82.5 20.5t95 9.5t110.5 2q60 0 101 -1.5t95 -7.5t90 -16.5t74.5 -30.5t61 -48.5t37 -70.5t14.5 -96q0 -205 -197 -223v-6q209 -5 209 -217q0 -77 -21.5 -131t-58.5 -87t-101 -51.5t-133.5 -25t-170.5 -6.5q-58 0 -100.5 2 t-92 9.5t-84.5 20.5t-69.5 35.5t-55.5 54.5t-34 79t-13 106z" />
<glyph unicode="&#x438;" d="M109 0v995h325l-12 -575h6l311 575h326v-995h-326l13 575h-7l-311 -575h-325z" />
<glyph unicode="&#x439;" d="M109 0v995h325l-12 -575h6l311 575h326v-995h-326l13 575h-7l-311 -575h-325zM274 1430h215q0 -21 6.5 -35t14.5 -21.5t24.5 -11t27.5 -4t32 -0.5q20 0 31 0.5t27 4t24.5 11t15 21.5t6.5 35h215q0 -44 -9.5 -78t-22 -56t-39 -37.5t-46.5 -23t-59.5 -11.5t-63 -4.5 t-70.5 -0.5h-9h-9h-54.5t-50.5 2t-49 5.5t-42.5 11t-39.5 18t-30.5 26t-24.5 36.5t-14 49t-6 63z" />
<glyph unicode="&#x43a;" d="M109 0v995h325v-364h96q79 0 107.5 23.5t28.5 78.5q0 61 7.5 105t26 74t41.5 49t61 28.5t77.5 13t97.5 3.5q47 0 90 -13v-184q-40 0 -57 -15t-17 -51q0 -57 -6 -90.5t-24.5 -61t-53 -41t-92.5 -18.5v-4q114 -3 155.5 -56t41.5 -175q0 -44 19 -69t75 -25v-203 q-40 -12 -98 -12q-85 0 -141 11.5t-99 42.5t-62.5 88t-19.5 146v33q0 55 -24.5 74.5t-110.5 19.5h-119v-403h-325z" />
<glyph unicode="&#x43b;" d="M39 0v223h27q56 0 75 25t19 69v678h905v-995h-326v768h-254v-483q0 -162 -78 -229.5t-243 -67.5q-85 0 -125 12z" />
<glyph unicode="&#x43c;" horiz-adv-x="1570" d="M113 0v995h516l159 -708h7l163 708h506v-995h-315v778h-6l-205 -778h-299l-205 778h-6v-778h-315z" />
<glyph unicode="&#x43d;" d="M109 0v995h325v-370h305v370h326v-995h-326v397h-305v-397h-325z" />
<glyph unicode="&#x43e;" horiz-adv-x="1124" d="M63 496q0 107 7.5 180t29.5 133t56 95.5t91.5 59.5t132 33t181.5 9q108 0 181.5 -8t132 -31t92 -57.5t55.5 -94.5t29.5 -134.5t7.5 -184.5q0 -106 -8 -179.5t-30 -133t-56 -95t-92 -59t-132 -32.5t-180 -9q-104 0 -178.5 9.5t-131.5 34t-92 61t-57 96t-30.5 132 t-8.5 175.5zM391 496q0 -58 2 -94t9 -67.5t18 -47.5t31.5 -28t47.5 -15.5t68 -3.5q48 0 76 7t47.5 20.5t28 46.5t11.5 72t3 110q0 89 -4 133.5t-22 76.5t-49.5 41t-90.5 9q-41 0 -68 -3.5t-47.5 -16t-31.5 -29t-18 -48.5t-9 -68t-2 -95z" />
<glyph unicode="&#x43f;" d="M109 0v995h956v-995h-326v768h-305v-768h-325z" />
<glyph unicode="&#x440;" horiz-adv-x="1171" d="M104 -430v1425h326l-8 -157h16q26 95 96.5 131.5t186.5 36.5q187 0 282 -87t95 -278v-227q0 -229 -86.5 -327.5t-290.5 -98.5q-49 0 -87 6.5t-75.5 23t-66.5 49.5t-48 83h-14v-580h-326zM430 496q0 -57 2.5 -91.5t11.5 -69.5t26.5 -53.5t48 -30t75.5 -11.5q72 0 107 17 t53 72t18 167q0 49 -1 76.5t-4.5 60t-10.5 48.5t-19.5 33.5t-32 24.5t-46.5 12t-64 5q-103 0 -133.5 -50t-30.5 -210z" />
<glyph unicode="&#x441;" horiz-adv-x="1054" d="M59 496q0 90 7 155.5t25.5 126.5t52.5 100.5t86.5 70t128 44t176.5 13.5q69 0 117.5 -2.5t102.5 -12t90.5 -25.5t71 -44.5t55 -69t32.5 -98.5t12 -133h-326q3 81 -26 106q-33 29 -129 29q-63 0 -92.5 -18t-43.5 -73t-14 -169q0 -72 4.5 -116t12.5 -73.5t27.5 -43 t42.5 -18.5t63 -5q37 0 62.5 2.5t43 11t27 18.5t15 30.5t6.5 40t1 54.5h326q0 -138 -26 -218.5t-85 -123.5q-54 -39 -140.5 -53t-229.5 -14q-98 0 -169 10t-125.5 35t-88.5 62t-55 96t-29.5 131.5t-8.5 173.5z" />
<glyph unicode="&#x442;" horiz-adv-x="1024" d="M35 768v227h960v-227h-317v-768h-326v768h-317z" />
<glyph unicode="&#x443;" horiz-adv-x="1009" d="M-12 995h340l145 -606q10 -43 31 -79t43 -36l143 721h332l-250 -1083q-31 -134 -77 -208t-129.5 -110t-221.5 -36l-111 6v229q21 -8 78 -8q28 0 50 5t38 18t27 24.5t20.5 35t14.5 39t14 46t14 47.5q-102 0 -178 77t-110 195z" />
<glyph unicode="&#x444;" horiz-adv-x="1617" d="M70 424v207q0 375 327 375q219 0 244 -103h6v518h326v-518h6q25 103 244 103q327 0 327 -375v-207q0 -230 -75.5 -333t-251.5 -103q-44 0 -77.5 4t-69 15t-60.5 34t-37 57h-6v-528h-326v528h-6q-12 -34 -37 -57t-60.5 -34t-69 -15t-77.5 -4q-176 0 -251.5 103t-75.5 333z M395 496q0 -111 14.5 -167t41 -72.5t77.5 -16.5q33 0 55 11.5t35 30t19.5 54t8 69.5t1.5 91q0 160 -22.5 210t-96.5 50q-38 0 -62 -9.5t-38.5 -25t-21.5 -51t-9 -71.5t-2 -103zM973 496q0 -57 1.5 -91t8 -69.5t19.5 -54t35 -30t55 -11.5q51 0 77.5 16.5t41 72.5t14.5 167 q0 67 -2 103t-9 71.5t-21.5 51t-38.5 25t-62 9.5q-74 0 -96.5 -50t-22.5 -210z" />
<glyph unicode="&#x445;" horiz-adv-x="1032" d="M-12 0l297 526l-256 469h377l112 -276l121 276h379l-262 -469l288 -526h-382l-144 328l-137 -328h-393z" />
<glyph unicode="&#x446;" d="M109 0v995h325v-768h305v768h326v-768h109v-563h-312v336h-753z" />
<glyph unicode="&#x447;" horiz-adv-x="1101" d="M78 647v348h325v-313q0 -46 15.5 -65t58.5 -19h191v397h325v-995h-325v371h-209q-71 0 -120.5 4.5t-102.5 21t-85 45.5t-52.5 80.5t-20.5 124.5z" />
<glyph unicode="&#x448;" horiz-adv-x="1734" d="M109 0v995h325v-768h275v768h325v-768h275v768h325v-995h-1525z" />
<glyph unicode="&#x449;" horiz-adv-x="1734" d="M109 0v995h325v-768h275v768h325v-768h275v768h325v-768h109v-563h-311v336h-1323z" />
<glyph unicode="&#x44a;" horiz-adv-x="1257" d="M27 768v227h591v-344h175q62 0 106.5 -2.5t92 -10.5t79.5 -22.5t62 -38.5t47.5 -58.5t28 -82.5t10.5 -110q0 -85 -20 -145t-53.5 -95t-90.5 -54.5t-116 -25.5t-146 -6h-500v768h-266zM618 211h144q67 0 99 24.5t32 90.5t-30 90t-101 24h-144v-229z" />
<glyph unicode="&#x44b;" horiz-adv-x="1583" d="M109 0v995h325v-344h174q62 0 106.5 -2.5t92 -10.5t79.5 -22.5t62 -38.5t47.5 -58.5t28 -82.5t10.5 -110q0 -85 -20 -145t-53.5 -95t-90.5 -54.5t-116 -25.5t-146 -6h-499zM434 211h144q67 0 99 24.5t32 90.5t-30 90t-101 24h-144v-229zM1149 0v995h326v-995h-326z" />
<glyph unicode="&#x44c;" horiz-adv-x="1073" d="M109 0v995h325v-344h174q62 0 106.5 -2.5t92 -10.5t79.5 -22.5t62 -38.5t47.5 -58.5t28 -82.5t10.5 -110q0 -85 -20 -145t-53.5 -95t-90.5 -54.5t-116 -25.5t-146 -6h-499zM434 211h144q67 0 99 24.5t32 90.5t-30 90t-101 24h-144v-229z" />
<glyph unicode="&#x44d;" horiz-adv-x="1054" d="M39 397h326q0 -35 1 -54.5t6.5 -40t15 -30.5t27 -18.5t43 -11t62.5 -2.5q44 0 68 5t43 23t27 52t10 92h-252v178h252q-7 103 -38.5 134.5t-109.5 31.5q-96 0 -129 -29q-29 -25 -26 -106h-326q0 75 12 133t32.5 98.5t55 69t71 44.5t90.5 25.5t102.5 12t117.5 2.5 q101 0 176.5 -13.5t128 -44t86 -70t52 -100.5t25.5 -126.5t7 -155.5q0 -101 -8.5 -173.5t-29.5 -131.5t-55 -96t-88 -62t-125 -35t-169 -10q-143 0 -229.5 14t-140.5 53q-59 43 -85 123.5t-26 218.5z" />
<glyph unicode="&#x44e;" horiz-adv-x="1587" d="M109 0v995h325v-364h105q7 93 26 155t52.5 106.5t91.5 68.5t134 34.5t189 10.5q108 0 181.5 -8t132 -31t92 -57.5t55.5 -94.5t29.5 -134.5t7.5 -184.5q0 -106 -8 -179.5t-30 -133t-56 -95t-92 -59t-132 -32.5t-180 -9q-144 0 -235 19.5t-149 69.5t-82 126.5t-29 199.5 h-103v-403h-325zM862 496q0 -58 2 -94t9 -67.5t18 -47.5t31.5 -28t47.5 -15.5t68 -3.5q48 0 76 7t47.5 20.5t28 46.5t11.5 72t3 110q0 89 -4 133.5t-22 76.5t-49.5 41t-90.5 9q-41 0 -68 -3.5t-47.5 -16t-31.5 -29t-18 -48.5t-9 -68t-2 -95z" />
<glyph unicode="&#x44f;" d="M59 0v184q40 0 57 15t17 51q0 57 6 90.5t24.5 61t53 41t92.5 18.5v10q-68 14 -119 69.5t-51 149.5q0 74 17.5 127t49.5 87.5t83.5 54.5t112 28t143.5 8h520v-995h-326v362h-153q-82 0 -103.5 -14t-21.5 -67q0 -58 -6.5 -101.5t-17.5 -74.5t-32 -52.5t-43 -34t-57.5 -19.5 t-69.5 -9t-85 -2t-91 12zM465 670q0 -65 29 -85t102 -20h143v219h-143q-68 0 -99.5 -24t-31.5 -90z" />
<glyph unicode="&#x451;" horiz-adv-x="1087" d="M57 496q0 120 12.5 200.5t43.5 143.5t87 97.5t139 51.5t204 17q145 0 234.5 -22t148 -81.5t80.5 -155t22 -251.5v-54h-645q0 -135 31 -181t129 -46q86 0 126 22.5t40 94.5h319q0 -211 -133 -285q-104 -59 -352 -59q-148 0 -241 26t-148 89.5t-76 155.5t-21 237zM250 1153 v197h207v-197h-207zM383 621h319q0 55 -9 87.5t-33 47.5t-48.5 18.5t-72.5 3.5q-90 0 -121.5 -30.5t-34.5 -126.5zM649 1153v197h205v-197h-205z" />
<glyph unicode="&#x452;" d="M25 999v240h84v182h325v-182h434v-240h-434v-354h12q34 113 104.5 155t194.5 42q163 0 241.5 -78.5t78.5 -239.5v-524q0 -297 -322 -297q-58 0 -98 12v224q56 0 75 25t19 69v416q0 75 -29 109t-106 34q-101 0 -135.5 -52.5t-34.5 -156.5v-383h-325v999h-84z" />
<glyph unicode="&#x453;" horiz-adv-x="854" d="M109 0v995h733v-227h-408v-768h-325zM264 1204l387 228l94 -209l-428 -136z" />
<glyph unicode="&#x454;" horiz-adv-x="1054" d="M59 496q0 90 7 155.5t25.5 126.5t52.5 100.5t86.5 70t128 44t176.5 13.5q69 0 117.5 -2.5t102.5 -12t90.5 -25.5t71 -44.5t55 -69t32.5 -98.5t12 -133h-326q3 81 -26 106q-33 29 -129 29q-78 0 -109.5 -31.5t-38.5 -134.5h252v-178h-252q2 -58 10 -92t27 -52t43 -23 t68 -5q37 0 62.5 2.5t43 11t27 18.5t15 30.5t6.5 40t1 54.5h326q0 -138 -26 -218.5t-85 -123.5q-54 -39 -140.5 -53t-229.5 -14q-98 0 -169 10t-125.5 35t-88.5 62t-55 96t-29.5 131.5t-8.5 173.5z" />
<glyph unicode="&#x455;" horiz-adv-x="1095" d="M61 311h326q0 -33 10 -55t22 -33t38 -17t41.5 -6.5t48.5 -0.5q111 0 141.5 15t30.5 73q0 29 -8 48t-18.5 29t-36.5 14.5t-45.5 5.5t-63.5 1q-153 0 -249.5 16.5t-148.5 55.5t-70 90t-18 133q0 47 5.5 86.5t19 70t28 54.5t39.5 41.5t47 30t57.5 20.5t62.5 13t71 7t75 2.5 t81 0.5q52 0 82.5 -0.5t83 -5.5t85 -14t72.5 -27t62.5 -43.5t38.5 -65t16 -90.5v-47h-307q-3 23 -13.5 39.5t-22 24.5t-32 12.5t-32.5 5t-33 0.5q-63 0 -98 -3.5t-51 -15t-18.5 -22.5t-2.5 -37q0 -18 1.5 -28t10.5 -22.5t26.5 -19t50.5 -12t81 -6.5q58 -1 96.5 -3t83.5 -5 t74.5 -8.5t62.5 -14t53.5 -20.5t42 -28.5t33.5 -38t22.5 -49.5t14.5 -62t4 -76q0 -85 -26.5 -146.5t-68.5 -97.5t-108 -57t-131.5 -28t-152.5 -7h-11q-63 0 -94 0.5t-85.5 4t-83 12.5t-68.5 23.5t-61 38.5t-43 57t-31 80.5t-9 106.5z" />
<glyph unicode="&#x456;" horiz-adv-x="487" d="M82 0v995h326v-995h-326zM82 1171v250h326v-250h-326z" />
<glyph unicode="&#x457;" horiz-adv-x="487" d="M-76 1153v197h207v-197h-207zM82 0v995h326v-995h-326zM324 1153v197h204v-197h-204z" />
<glyph unicode="&#x458;" horiz-adv-x="458" d="M-37 -74q56 0 75 25t19 69v975h326v-1007q0 -162 -78 -229.5t-244 -67.5q-58 0 -98 12v223zM57 1171v250h326v-250h-326z" />
<glyph unicode="&#x459;" horiz-adv-x="1611" d="M39 0v223h27q56 0 75 25t19 69v678h864v-370h113q63 0 106.5 -2t92 -9t80 -19.5t62 -34.5t47.5 -54t27.5 -77t10.5 -103q0 -70 -13 -122.5t-40 -88t-61.5 -58.5t-85.5 -35.5t-103 -17t-123 -4.5h-439v768h-213v-483q0 -162 -78 -229.5t-243 -67.5q-85 0 -125 12z M1024 227h82q71 0 101 15.5t30 68.5q0 54 -29 70t-102 16h-82v-170z" />
<glyph unicode="&#x45a;" horiz-adv-x="1611" d="M109 0v995h325v-370h264v370h326v-370h113q63 0 106.5 -2t92 -9t80 -19.5t62 -34.5t47.5 -54t27.5 -77t10.5 -103q0 -70 -13 -122.5t-40 -88t-61.5 -58.5t-85.5 -35.5t-103 -17t-123 -4.5h-439v397h-264v-397h-325zM1024 227h82q71 0 101 15.5t30 68.5q0 54 -29 70 t-102 16h-82v-170z" />
<glyph unicode="&#x45b;" d="M25 999v240h84v182h325v-182h414v-240h-414v-354h12q34 113 104.5 155t194.5 42q163 0 241.5 -78.5t78.5 -239.5v-524h-326v449q0 75 -29 109t-106 34q-101 0 -135.5 -52.5t-34.5 -156.5v-383h-325v999h-84z" />
<glyph unicode="&#x45c;" d="M109 0v995h325v-364h107q81 0 103 14.5t22 67.5q0 58 6.5 101.5t17.5 74.5t32 52.5t43 34t57.5 19.5t69.5 9t85 2q47 0 90 -13v-184q-40 0 -57 -15t-17 -51q0 -57 -6 -90.5t-24.5 -61t-53 -41t-92.5 -18.5v-4q114 -3 155.5 -56t41.5 -175q0 -44 19 -69t75 -25v-203 q-40 -12 -98 -12q-85 0 -141 11.5t-99 42.5t-62.5 88t-19.5 146v33q0 55 -24.5 74.5t-110.5 19.5h-119v-403h-325zM387 1204l387 228l94 -209l-428 -136z" />
<glyph unicode="&#x45e;" horiz-adv-x="1009" d="M-12 995h340l145 -606q10 -43 31 -79t43 -36l143 721h332l-250 -1083q-31 -134 -77 -208t-129.5 -110t-221.5 -36l-111 6v229q21 -8 78 -8q28 0 50 5t38 18t27 24.5t20.5 35t14.5 39t14 46t14 47.5q-102 0 -178 77t-110 195zM209 1430h215q0 -21 6.5 -35t14.5 -21.5 t24.5 -11t27 -4t31.5 -0.5t31.5 0.5t27 4t25 11t15 21.5t6.5 35h215q0 -61 -18.5 -102.5t-41.5 -63t-71.5 -32t-81 -12t-98.5 -1.5h-9h-9q-47 0 -70 0.5t-62.5 4.5t-59.5 11.5t-46.5 23t-39.5 37.5t-22.5 56t-9.5 78z" />
<glyph unicode="&#x45f;" d="M109 0v995h325v-768h305v768h326v-995h-326v-336h-305v336h-325z" />
<glyph unicode="&#x490;" horiz-adv-x="1167" d="M104 0v1421h629v414h379v-725h-629v-1110h-379z" />
<glyph unicode="&#x491;" horiz-adv-x="901" d="M109 0v995h456v316h312v-543h-443v-768h-325z" />
<glyph unicode="&#x2013;" horiz-adv-x="946" d="M0 367v311h946v-311h-946z" />
<glyph unicode="&#x2014;" horiz-adv-x="1894" d="M0 367v311h1894v-311h-1894z" />
<glyph unicode="&#x2018;" horiz-adv-x="499" d="M88 846v317q0 102 27 158.5t98 84t201 26.5v-142q-81 -1 -109.5 -28.5t-28.5 -98.5h117v-317h-305z" />
<glyph unicode="&#x2019;" horiz-adv-x="499" d="M88 834v141q79 1 107 28.5t28 98.5h-117v319h308v-319q0 -101 -27.5 -157.5t-98.5 -84t-200 -26.5z" />
<glyph unicode="&#x201a;" horiz-adv-x="499" d="M84 -127q79 1 107 28.5t28 98.5h-117v317h308v-317q0 -101 -27.5 -157.5t-98.5 -84t-200 -26.5v141z" />
<glyph unicode="&#x201c;" horiz-adv-x="925" d="M88 846v317q0 102 27 158.5t98 84t201 26.5v-142q-81 -1 -109.5 -28.5t-28.5 -98.5h117v-317h-305zM514 846v317q0 102 27 158.5t98 84t201 26.5v-142q-81 -1 -109.5 -28.5t-28.5 -98.5h119v-317h-307z" />
<glyph unicode="&#x201d;" horiz-adv-x="925" d="M88 834v141q79 1 107 28.5t28 98.5h-117v319h308v-319q0 -101 -27.5 -157.5t-98.5 -84t-200 -26.5zM514 834v141q79 1 107 28.5t28 98.5h-117v319h308v-319q0 -101 -27.5 -157.5t-98.5 -84t-200 -26.5z" />
<glyph unicode="&#x201e;" horiz-adv-x="925" d="M84 -127q79 1 107 28.5t28 98.5h-117v317h308v-317q0 -101 -27.5 -157.5t-98.5 -84t-200 -26.5v141zM510 -127q80 1 107.5 28t27.5 99h-117v317h308v-317q0 -102 -27.5 -158t-98 -83.5t-200.5 -26.5v141z" />
<glyph unicode="&#x2022;" horiz-adv-x="1136" d="M215 711q-2 148 100.5 252t251.5 104t253 -104t104 -252q0 -147 -104 -251t-253 -104q-146 0 -248.5 103t-103.5 252z" />
<glyph unicode="&#x2026;" horiz-adv-x="1894" d="M162 0v330h305v-330h-305zM795 0v330h305v-330h-305zM1427 0v330h306v-330h-306z" />
<glyph unicode="&#x2039;" horiz-adv-x="628" d="M88 516l242 459l213 -115l-181 -344l181 -321l-203 -125z" />
<glyph unicode="&#x203a;" horiz-adv-x="628" d="M74 186l182 344l-182 320l202 125l254 -445l-241 -460z" />
<glyph unicode="&#x20ac;" horiz-adv-x="1363" d="M35 467l76 178h92q-2 16 -2 60q0 35 2 51h-168l76 178h108q112 498 655 498q126 0 227 -26.5t146 -59.5v-287q-45 43 -129.5 72.5t-202.5 29.5q-290 0 -350 -227h598l-73 -178h-549q-2 -12 -2 -49q0 -13 1 -34.5t1 -27.5h501l-73 -178h-396q56 -207 345 -207 q106 0 194.5 28.5t134.5 69.5v-288q-46 -31 -142.5 -55.5t-230.5 -24.5q-558 0 -653 477h-186z" />
<glyph unicode="&#x2116;" horiz-adv-x="2387" d="M115 0v1421h641l407 -1091h15l-23 1091h379v-1421h-645l-402 1092h-16l23 -1092h-379zM1649 610q0 70 4 115t16 87t33.5 65.5t58 41.5t88 24.5t125.5 6.5t125.5 -6.5t88.5 -24.5t58.5 -41.5t33.5 -65t16 -87t4 -115.5q0 -71 -4 -117t-16 -87.5t-33.5 -65t-58.5 -41.5 t-88.5 -24.5t-125.5 -6.5t-125.5 6.5t-88 24.5t-58 41t-34 65.5t-16 88t-3.5 116.5zM1653 0v184h643v-184h-643zM1864 610q0 -116 21 -149t89 -33t89.5 33t21.5 149q0 114 -21.5 147.5t-89.5 33.5q-47 0 -68.5 -13t-31.5 -51t-10 -117z" />
<glyph unicode="&#x2122;" horiz-adv-x="1628" d="M-8 1264v157h659v-157h-233v-609h-193v609h-233zM735 655v766h279l172 -452l172 452h278v-766h-176v613h-4l-221 -613h-98l-222 613h-4v-613h-176z" />
<glyph unicode="&#xe000;" horiz-adv-x="993" d="M0 0v993h993v-993h-993z" />
</font>
</defs>
</svg>
