<?xml version="1.0" standalone="no"?>
<!DOCTYPE svg PUBLIC "-//W3C//DTD SVG 1.1//EN" "http://www.w3.org/Graphics/SVG/1.1/DTD/svg11.dtd" >
<svg xmlns="http://www.w3.org/2000/svg">
<metadata></metadata>
<defs>
<font id="eurofontmediumcregular" horiz-adv-x="1335" >
<font-face units-per-em="2048" ascent="1606" descent="-442" />
<missing-glyph horiz-adv-x="667" />
<glyph horiz-adv-x="2048" />
<glyph horiz-adv-x="2048" />
<glyph unicode="&#xd;" horiz-adv-x="2048" />
<glyph unicode=" "  horiz-adv-x="667" />
<glyph unicode="&#x09;" horiz-adv-x="667" />
<glyph unicode="&#xa0;" horiz-adv-x="667" />
<glyph unicode="!" horiz-adv-x="585" d="M158 1421h268l-14 -946h-240zM172 0v260h240v-260h-240z" />
<glyph unicode="&#x22;" horiz-adv-x="897" d="M94 1174v247h262v-247l-80 -244h-102zM543 1174v247h260v-247l-80 -244h-102z" />
<glyph unicode="#" d="M147 336v217h232l45 252h-199v217h240l74 399h176l-74 -399h205l76 399h174l-74 -399h168v-217h-203l-45 -252h195v-217h-240l-63 -336h-177l62 336h-205l-63 -336h-177l64 336h-191zM555 553h209l49 252h-213z" />
<glyph unicode="$" d="M49 412v51h240v-51q0 -36 3 -62.5t12.5 -47.5t20 -35t31.5 -24t39.5 -15.5t53 -9t63.5 -4.5t78 -1v395q-89 8 -139 14t-115.5 19t-101 30t-75 46t-58.5 69t-31.5 96.5t-12.5 129.5q0 92 14.5 160.5t47 114.5t73.5 75t106 44t131 20.5t161 5.5v139h151v-139 q79 -2 122 -4.5t105 -11t95 -23t73 -41t59 -64.5t32.5 -94.5t13.5 -130.5v-47h-240v47q0 34 -5 58t-21 40t-31.5 24.5t-51.5 13.5t-64.5 6.5t-86.5 2.5v-377q92 -4 137.5 -7.5t115.5 -14t104 -26t78 -44.5t63.5 -70t34 -101.5t14.5 -139.5q0 -130 -31.5 -215.5t-101.5 -135 t-168.5 -69.5t-245.5 -20v-148h-151v148q-99 0 -178 10.5t-135.5 29t-97 48.5t-65.5 63t-40 79t-20 91t-5 103zM315 1012q0 -40 7 -69t24 -47.5t36 -30t52 -18t62 -9.5t77 -6q11 -1 17 -1v377q-142 -3 -183 -15q-62 -18 -80 -77q-12 -39 -12 -104zM741 213q175 -2 232 40.5 t57 174.5q0 37 -6.5 64.5t-18 46.5t-31.5 31.5t-41 19.5t-52.5 11t-61 5t-71.5 2h-7v-395z" />
<glyph unicode="%" horiz-adv-x="1714" d="M41 967v207q0 85 15 136t54.5 78t91 35.5t140.5 8.5q61 0 101.5 -3t79 -12.5t61.5 -27t40.5 -46t25 -69.5t7.5 -98v-207q0 -57 -7.5 -98t-25 -69.5t-40.5 -46.5t-61 -27.5t-78.5 -13t-100.5 -3.5t-99.5 3t-76.5 13t-58.5 27t-38.5 45.5t-23.5 69.5t-6.5 98zM203 989 q0 -35 1.5 -56.5t9 -37.5t14.5 -23.5t26.5 -12t36 -5t51.5 -0.5q36 0 53.5 0.5t39 5t30 12.5t17.5 23t11.5 37.5t2.5 56.5v176q0 32 -2 52t-10.5 34.5t-16 21.5t-30 10.5t-39 4t-56.5 0.5h-40t-30.5 -2t-25 -4.5t-17 -9t-13.5 -14.5t-7 -22t-5 -30.5t-1 -40.5v-176zM326 0 l899 1421h178l-901 -1421h-176zM1057 244v209q0 85 15 136t54.5 78t91 35.5t140.5 8.5q91 0 144 -8t95 -34.5t59 -77.5t17 -136v-209q0 -68 -12.5 -114t-34 -74.5t-62.5 -44t-87 -20.5t-117 -5q-60 0 -99.5 3t-76.5 13t-58.5 27t-38.5 45.5t-23.5 69.5t-6.5 98zM1219 266 q0 -34 1.5 -55.5t9 -37t14.5 -23t26.5 -12t36 -5t51.5 -0.5q36 0 53 0.5t38.5 4.5t30 12t17.5 23.5t11.5 37.5t2.5 55v176q0 32 -1.5 52.5t-10.5 35.5t-16 21.5t-29.5 10.5t-39 4.5t-56.5 0.5q-36 0 -51.5 -0.5t-36 -4.5t-26.5 -10.5t-14 -21.5t-9.5 -35t-1.5 -53v-176z" />
<glyph unicode="&#x26;" horiz-adv-x="1478" d="M113 432q0 70 5.5 120t22 100.5t45.5 83t78.5 55t118.5 28.5q-72 61 -95.5 110t-23.5 142q0 67 10 119t28 90t48.5 65t65 44t84.5 26.5t100.5 13t118.5 3.5q95 0 157.5 -6t115 -25t82 -48.5t50.5 -81t28 -118.5t7 -166h-233q0 42 -0.5 65t-3.5 50.5t-8 40t-16 27t-25 20 t-37 11t-50 6.5t-67 1q-33 0 -52 -0.5t-43.5 -3.5t-38 -8.5t-28.5 -15.5t-22 -24.5t-12 -36t-5 -50.5q0 -59 19 -93t69 -77l451 -391v190h233v-96q0 -63 -0.5 -93.5t-7.5 -82.5t-20 -90l202 -178l-129 -158l-168 145q-18 -32 -44.5 -57t-53.5 -41.5t-65.5 -28t-69 -17.5 t-77.5 -9t-77.5 -3.5t-81.5 -0.5q-68 0 -116.5 1.5t-104 7t-94 15t-79.5 26t-68 40t-52 56.5t-39.5 76t-23 98.5t-8.5 123.5zM367 432q0 -55 6 -92.5t26.5 -62t38 -37.5t63 -19t77 -7t102.5 -1h18q66 0 97.5 1.5t74.5 9t70.5 25.5t50.5 48l-467 395q-33 -5 -57.5 -14.5 t-41.5 -19t-28 -29t-17 -34.5t-9 -46t-3.5 -52t-0.5 -65z" />
<glyph unicode="'" horiz-adv-x="450" d="M94 1174v247h262v-247l-80 -244h-102z" />
<glyph unicode="(" horiz-adv-x="659" d="M113 317v502q0 98 1 144t6 120.5t16.5 108t32 83.5t52.5 71t78.5 45.5t110 32.5t145.5 8v-224q-51 0 -86 -11t-54.5 -27.5t-30 -50t-13 -65t-2.5 -85.5v-789q0 -33 0.5 -52t4 -48t10.5 -46t20.5 -37.5t33 -31.5t49.5 -18.5t68 -7.5v-224q-80 0 -140.5 7t-106.5 26.5 t-78 40.5t-54 63.5t-34.5 80.5t-19 106t-8 125.5t-1.5 152.5z" />
<glyph unicode=")" horiz-adv-x="659" d="M104 -61q37 0 65 5.5t48 14.5t33.5 25.5t21.5 34t12.5 45t5.5 53t1 63.5v789q0 33 -0.5 52t-4.5 48t-11 45.5t-20.5 37t-33 31t-49.5 18t-68 7.5v224q91 0 157.5 -11.5t115 -30t79.5 -58.5t49.5 -79.5t27.5 -112.5t11.5 -137.5t2.5 -173.5v-499q0 -78 -0.5 -116 t-3 -101.5t-8.5 -94t-16.5 -78t-27 -70t-40.5 -54t-56.5 -45.5t-74.5 -29.5t-96 -21t-120 -5.5v224z" />
<glyph unicode="*" d="M291 1106l49 135l256 -92v272h143v-272l258 92l50 -143l-259 -88l154 -219l-113 -86l-157 227l-170 -227l-113 86l158 219z" />
<glyph unicode="+" horiz-adv-x="1105" d="M94 444v183h369v368h180v-368h369v-183h-369v-366h-180v366h-369z" />
<glyph unicode="," horiz-adv-x="667" d="M168 -127q59 0 87 26t28 101h-95v256h238v-223q0 -42 -1 -67.5t-5.5 -58t-12.5 -51.5t-23.5 -39.5t-38 -31.5t-55 -18t-75.5 -7h-47v113z" />
<glyph unicode="-" horiz-adv-x="503" d="M0 432v182h504v-182h-504z" />
<glyph unicode="." horiz-adv-x="667" d="M168 0v260h240v-260h-240z" />
<glyph unicode="/" horiz-adv-x="1292" d="M-10 -215l1097 1636h213l-1097 -1636h-213z" />
<glyph unicode="0" d="M82 580v262q0 92 5 162t18.5 130.5t34.5 103t54.5 77.5t76 56t103 35.5t131.5 20t165 5.5q113 0 192 -8.5t148.5 -32.5t112.5 -65.5t74.5 -108t44.5 -159t13 -220.5v-258q0 -110 -10.5 -193t-30.5 -146.5t-55.5 -107t-79 -72.5t-108 -45t-134.5 -22t-167 -6 q-114 0 -193 8.5t-149 32t-113 64.5t-75 107.5t-45 159t-13 220.5zM340 516q0 -75 4.5 -124t22.5 -84.5t36.5 -53t63 -27.5t85 -12t118.5 -2q58 0 90.5 1t71.5 5.5t58 12t41.5 23t32 36.5t19 54t12 74t2.5 97v387q0 75 -5 124t-22 84.5t-36.5 53.5t-62.5 28.5t-84 12.5 t-117 2q-77 0 -118.5 -2t-85 -12.5t-63 -28.5t-36.5 -53.5t-22 -84.5t-5 -124v-387z" />
<glyph unicode="1" d="M150 993l454 428h328v-1421h-258v1194l-369 -371z" />
<glyph unicode="2" d="M117 0v270q0 68 6 121.5t23.5 94.5t33 70t52.5 52.5t62.5 37t82.5 27.5t93 20.5t112 19.5q34 6 93 15q64 10 91 15t64.5 18t50 27.5t27.5 43.5t18.5 67t3.5 96q0 71 -11.5 112t-45 64t-79 30t-126.5 7q-76 0 -109.5 -1t-75.5 -10.5t-56 -25.5t-30 -51t-19 -82t-3 -123 h-258q0 100 5 160t22.5 126.5t53 103t96 69t153 45.5t221.5 13q108 0 183 -9.5t143 -36.5t108 -75t63 -126.5t23 -189.5q0 -57 -3.5 -103.5t-12.5 -85.5t-19.5 -69.5t-30 -56.5t-39 -44.5t-51 -35t-60.5 -27.5t-74 -21.5t-85.5 -18t-99.5 -17.5q-22 -4 -63 -10 q-44 -6 -64.5 -9.5t-53.5 -10t-46.5 -12.5t-35 -15.5t-30 -20.5t-20 -27t-15.5 -36.5t-7 -46t-3 -58.5v-47h813v-223h-1071z" />
<glyph unicode="3" d="M113 479h256q0 -41 1 -71.5t6 -57.5t8.5 -45t15.5 -33.5t20 -24.5t29 -16t35 -10.5t46 -5.5t53.5 -2h65.5q72 0 105 1t76.5 7t60.5 17.5t36 34t24 56t5 83.5q0 118 -38 163.5t-150 45.5h-207v206h207q102 0 134 50t32 184q0 42 -9.5 68t-26 42.5t-54.5 24t-79 10 t-116 2.5q-63 0 -101 -2.5t-70.5 -12.5t-48 -24t-27 -44t-14.5 -65.5t-3 -94.5h-258q0 77 6.5 137.5t22.5 108.5t36.5 82t54.5 59t71 40.5t90.5 24.5t109 12t131.5 3q66 0 102 -1t96 -5t94 -14t80 -27t71.5 -44.5t51.5 -65.5t37 -92t11 -122q0 -55 -5 -98t-19 -86t-38 -72.5 t-65 -50t-96 -25.5v-8q139 -9 192 -85t53 -224q0 -83 -13 -147t-35 -109t-61.5 -76t-80.5 -49t-105.5 -27.5t-123.5 -12.5t-146 -3q-89 0 -143.5 2.5t-118.5 12.5t-100.5 30.5t-74.5 55.5t-56.5 87.5t-30.5 127.5t-12 175z" />
<glyph unicode="4" d="M57 303v297l629 821h401v-911h166v-207h-166v-303h-258v303h-772zM272 510h557v715h-8z" />
<glyph unicode="5" d="M129 410h258q0 -29 2.5 -53t10 -43t14 -33.5t21 -25t25 -18t32 -12t35 -7t41.5 -4t44 -1.5h50q68 0 108 2.5t75.5 13t52 26.5t29.5 49t16 73.5t3 105.5t-3.5 105.5t-15.5 74t-29 50t-52 28t-75.5 14.5t-106.5 3q-45 0 -67 -0.5t-57 -3t-53 -8.5t-39 -16t-32 -26.5 t-17 -39.5h-237v757h989v-207h-752v-350h4q18 31 49 54t63.5 34.5t76.5 18.5t76 8.5t73 1.5q138 0 227 -26t142 -87.5t73.5 -150.5t20.5 -228q0 -84 -6.5 -149t-23 -116.5t-37.5 -88t-57 -63.5t-75.5 -43t-98.5 -25t-120 -12.5t-145 -3.5q-80 0 -138 4t-113.5 15t-93.5 30.5 t-70.5 50.5t-52 76t-31 105.5t-13.5 140.5z" />
<glyph unicode="6" d="M115 543v413q0 100 13.5 174t44 127t72 87t105 53.5t135.5 27t172 7.5q83 0 133 -2t113.5 -10.5t100.5 -24.5t77.5 -45.5t61 -72.5t33.5 -106.5t12 -146.5h-258q0 30 -3 53.5t-8 42t-16 32t-21 23t-30 16t-35.5 10t-45 5t-52 2t-62.5 0.5q-68 0 -105.5 -2t-75 -11 t-53.5 -24t-29.5 -45t-17 -69.5t-3.5 -102.5v-223h4q15 43 47 72t78 42.5t89.5 18t102.5 4.5q87 0 147.5 -4t118 -14t93.5 -29.5t66.5 -49.5t47 -74.5t25 -103.5t8.5 -138q0 -98 -11.5 -169t-39 -124t-67.5 -86t-103.5 -53t-139 -27.5t-182.5 -7.5q-113 0 -187.5 7.5 t-140 29.5t-102.5 59t-64.5 100.5t-37.5 149.5t-10 209zM373 467q0 -61 3 -97.5t14.5 -68t28.5 -46.5t52 -26t76.5 -13.5t109.5 -2.5q73 0 105.5 1t73 8t54.5 19.5t29.5 38.5t19 62.5t3.5 93.5q0 35 -2.5 61t-6.5 47t-14.5 36t-19.5 26t-29.5 17.5t-36.5 11t-48.5 6t-57 2 t-70.5 0.5h-58.5t-49.5 -1t-44.5 -3.5t-35.5 -7t-31 -10.5t-23.5 -16t-19.5 -22.5t-11.5 -29.5t-8.5 -38t-2 -48z" />
<glyph unicode="7" d="M123 1188v233h1053v-262l-580 -1159h-293l615 1188h-795z" />
<glyph unicode="8" d="M113 418q0 64 10.5 112.5t37.5 92t78.5 70.5t127.5 36v8q-72 14 -117.5 39t-70 66t-33.5 89.5t-9 121.5q0 71 12.5 126.5t34 95.5t58.5 68t77.5 45.5t99 27t116 13t135.5 3.5h36q72 0 108.5 -0.5t99 -7.5t95 -20.5t75.5 -41t64 -67.5t36.5 -101t15.5 -141 q0 -72 -7.5 -119.5t-30.5 -90t-67 -68t-114 -38.5v-8q133 -19 188.5 -96t55.5 -215q0 -66 -7.5 -119.5t-20.5 -95t-36 -73.5t-48 -55t-63 -38.5t-75 -25t-89.5 -15t-100.5 -7t-115 -1.5q-80 0 -129 2t-114.5 10.5t-105.5 25.5t-84.5 48.5t-68 76.5t-39.5 112.5t-16 154.5z M371 418q0 -48 3.5 -77.5t16 -54.5t31 -37.5t54.5 -21.5t80 -11.5t114 -2.5q102 0 157.5 7.5t88.5 32.5t42 61t9 104q0 48 -3.5 78t-16 55t-30.5 37.5t-54 21t-79.5 11t-113.5 2.5t-115.5 -3t-80.5 -12.5t-54 -22.5t-30.5 -38.5t-15 -54t-3.5 -74.5zM393 1053 q0 -67 11.5 -109t26.5 -66t56.5 -34.5t74.5 -12.5t108 -2h17q59 0 85 1t63 7t51.5 19.5t31 38.5t21.5 63.5t5 94.5q0 47 -10.5 76t-24.5 45.5t-54 23.5t-71 8.5t-103 1.5h-11q-64 0 -100.5 -1.5t-72.5 -7t-52.5 -14.5t-30 -27.5t-17.5 -42.5t-4 -62z" />
<glyph unicode="9" d="M113 397h258q0 -56 11 -90t26 -54t59 -28.5t79.5 -10t119.5 -1.5q69 0 100.5 1t73.5 8.5t58.5 22t34.5 42.5t23 69t5 103v235h-5q-43 -82 -125 -110.5t-229 -28.5q-83 0 -141 5t-116.5 20.5t-95.5 45t-67 76.5t-43.5 117.5t-13.5 165.5q0 136 23 219t86 136t164 72.5 t268 19.5q121 0 203.5 -10.5t147 -39t101.5 -70t61 -113.5t32 -159.5t8 -216.5v-409q0 -106 -25.5 -182.5t-69.5 -123t-116.5 -74t-152 -37t-189.5 -9.5q-83 0 -130 1.5t-114.5 9.5t-105 23.5t-82 45t-67.5 73t-38.5 108t-15.5 148.5zM383 985q0 -50 3 -80.5t15 -55.5 t29 -37.5t52 -21t75.5 -10.5t108.5 -2t108.5 2t77.5 9.5t55 20.5t32 37.5t18 56t4 81.5q0 46 -6 79.5t-15 58t-29 40t-39 25t-55 14t-67 5.5t-84 1q-51 0 -84 -1t-65.5 -5t-50.5 -10t-35 -18.5t-24.5 -27.5t-14 -40t-8 -52.5t-1.5 -68.5z" />
<glyph unicode=":" horiz-adv-x="667" d="M168 0v260h240v-260h-240zM168 735v260h240v-260h-240z" />
<glyph unicode=";" horiz-adv-x="667" d="M168 -127q59 0 87 26t28 101h-95v256h238v-223q0 -42 -1 -67.5t-5.5 -58t-12.5 -51.5t-23.5 -39.5t-38 -31.5t-55 -18t-75.5 -7h-47v113zM188 735v260h238v-260h-238z" />
<glyph unicode="&#x3c;" horiz-adv-x="1105" d="M94 469v133l918 393v-190l-660 -268l660 -271v-188z" />
<glyph unicode="=" horiz-adv-x="1105" d="M94 262v180h918v-180h-918zM94 631v182h918v-182h-918z" />
<glyph unicode="&#x3e;" horiz-adv-x="1105" d="M94 78v188l660 271l-660 268v190l918 -393v-133z" />
<glyph unicode="?" horiz-adv-x="1126" d="M98 989v51q0 100 16.5 167.5t49.5 112t93.5 68.5t136 33t190.5 9q92 0 155.5 -8.5t122 -33t93 -68t55 -116t20.5 -174.5q0 -83 -9 -134.5t-37 -96t-76 -75.5t-130 -65q-84 -34 -102 -46q-49 -33 -54 -106q-1 -10 -1 -22v-32h-238v32q0 80 7 125.5t31.5 82.5t62 60 t108.5 54q17 7 45.5 19t41 17.5t33 16.5t29.5 20t21.5 24t17.5 32t9 40.5t4 53.5q0 69 -9 108t-37.5 60.5t-65.5 27t-108 5.5q-78 0 -120 -6t-70 -27.5t-36.5 -57t-8.5 -100.5v-51h-240zM383 0v260h238v-260h-238z" />
<glyph unicode="@" horiz-adv-x="1847" d="M170 631q0 123 41 242.5t116.5 219.5t174.5 176.5t223 119.5t254 43q133 0 259 -46.5t223.5 -127t156.5 -199t59 -252.5q0 -87 -30.5 -176t-83.5 -161.5t-134 -118.5t-174 -46q-71 0 -115 25t-81 86q-80 -65 -132.5 -88t-109.5 -23q-115 0 -194.5 86t-79.5 201 q0 106 59 217t160.5 186.5t210.5 75.5q55 0 107.5 -36t70.5 -89h4l23 98h147l-135 -495q-17 -98 80 -98q51 0 97 39t75.5 94.5t47 113.5t17.5 101q0 88 -40.5 174t-110 152.5t-169 107.5t-208.5 41q-110 0 -211 -38.5t-175 -101.5t-129.5 -142.5t-83.5 -164.5t-28 -163 q0 -147 80 -267t210 -185t280 -65q193 0 325 58l56 -142q-139 -75 -381 -75q-109 0 -215.5 26t-203.5 79.5t-171 128.5t-118 180.5t-44 228.5zM723 621q0 -170 133 -170q55 0 101.5 35t74.5 89t43 111.5t15 108.5q0 63 -39.5 96t-106.5 33q-30 0 -67 -20t-72 -55.5 t-58.5 -96t-23.5 -131.5z" />
<glyph unicode="A" horiz-adv-x="1343" d="M-6 0l473 1421h401l482 -1421h-277l-94 268h-612l-91 -268h-282zM428 475h492l-246 737h-4z" />
<glyph unicode="B" horiz-adv-x="1355" d="M121 0v1421h706q74 0 128.5 -5.5t104 -20.5t82.5 -41.5t57.5 -67.5t36 -99t11.5 -136q0 -66 -8 -112.5t-29 -89t-62 -70t-104 -42.5v-8q72 -8 120.5 -35.5t72.5 -74t33.5 -98.5t9.5 -126q0 -117 -24 -193.5t-78.5 -121.5t-131.5 -62.5t-194 -17.5h-731zM393 233h375 q56 0 88 2.5t65.5 12.5t49.5 30t26.5 54t10.5 86q0 119 -38.5 159.5t-156.5 40.5h-420v-385zM393 825h393q113 0 150 41t37 158q0 56 -10.5 89.5t-37.5 49.5t-58 20.5t-89 4.5h-385v-363z" />
<glyph unicode="C" horiz-adv-x="1318" d="M70 549v325q0 114 14.5 199.5t47 147.5t78.5 102.5t115.5 65t150 34t190.5 9.5q68 0 103 -0.5t92 -3t86 -8t73.5 -15.5t67 -25.5t52.5 -37t44.5 -52t30 -69t21 -88.5t5.5 -111v-76h-272v76q0 42 -5 70.5t-21 49t-35.5 31.5t-58 17.5t-77.5 8t-106 1.5q-72 0 -119.5 -4.5 t-86 -18.5t-59.5 -35t-35.5 -59.5t-19 -87t-4.5 -121.5v-313q0 -77 4 -125t17 -89.5t33.5 -63t58.5 -37t87 -20.5t124 -5q48 0 77 0.5t64.5 3.5t55.5 9t43 16.5t35 25.5t23 37t15 51.5t4 67.5v78h272v-94q0 -90 -16 -158.5t-37.5 -114t-69.5 -76t-84.5 -46t-113 -23.5 t-123.5 -9t-145 -1q-127 0 -218.5 12t-159 42t-109 71t-66.5 107t-34 143t-9 186z" />
<glyph unicode="D" horiz-adv-x="1427" d="M117 0v1421h678q298 0 428.5 -121t130.5 -407v-336q0 -96 -11.5 -172t-45 -150.5t-89 -124t-148.5 -80t-218 -30.5h-725zM391 233h451q65 0 113.5 27.5t75 75t38.5 102.5t12 119v336q0 89 -15 145.5t-50.5 90t-87 46.5t-133.5 13h-404v-955z" />
<glyph unicode="E" horiz-adv-x="1173" d="M106 0v1421h973v-233h-700v-354h665v-224h-665v-377h706v-233h-979z" />
<glyph unicode="F" horiz-adv-x="1101" d="M111 0v1421h938v-233h-666v-377h633v-223h-633v-588h-272z" />
<glyph unicode="G" horiz-adv-x="1376" d="M63 549v325q0 102 12 180.5t35 138t62 101t86 68.5t115.5 42.5t142.5 21.5t174 6q216 0 287 -9q175 -21 249 -117q74 -97 74 -293v-20h-272q0 52 -7 87.5t-29.5 58.5t-42 35.5t-68.5 18t-82.5 6.5t-108.5 1q-83 0 -137 -4.5t-95.5 -20t-63.5 -35.5t-35.5 -60.5t-17 -85.5 t-3.5 -120v-325q0 -58 2.5 -99.5t10.5 -77t18.5 -58t31.5 -40.5t44 -27.5t62.5 -16t80.5 -8t102 -1.5q46 0 72.5 0.5t61 2.5t53.5 6t43 11t36 17t27 25.5t21.5 35t13 46t8.5 58.5t2 73v51h-358v207h630v-258q0 -110 -9.5 -184t-36.5 -134t-68.5 -94t-113 -57t-161 -31 t-221.5 -8q-121 0 -205 8t-159 30.5t-121 61.5t-80 102t-48 150.5t-14 208.5z" />
<glyph unicode="H" horiz-adv-x="1456" d="M125 0v1421h272v-581h662v581h272v-1421h-272v606h-662v-606h-272z" />
<glyph unicode="I" horiz-adv-x="522" d="M125 0v1421h272v-1421h-272z" />
<glyph unicode="J" horiz-adv-x="1103" d="M57 352v205h260v-106q0 -84 3 -116.5t24 -65.5t63.5 -40.5t124.5 -7.5q119 0 153 41.5t34 175.5v983h274v-983q0 -140 -25 -228.5t-84.5 -137.5t-140.5 -66.5t-211 -17.5q-69 0 -118.5 3t-102.5 12t-89 25t-69.5 43t-53 65.5t-31 92.5t-11.5 123z" />
<glyph unicode="K" horiz-adv-x="1456" d="M125 0v1421h272v-581h361q73 0 119.5 13t73 44t36.5 74t10 110v26v52t1 47.5t4 46t8 40t13.5 37.5t20 30.5t27.5 26t36.5 18t47.5 13t59 3.5h179v-233h-31q-32 0 -52 -8t-29 -24.5t-12 -32.5t-3 -40v-79q0 -142 -45.5 -201t-153.5 -68v-6q113 -8 168 -67.5t55 -198.5 v-125q0 -24 3 -40t12 -32.5t29 -24.5t52 -8h31v-233h-182q-63 0 -105.5 17.5t-64.5 39t-33 70.5t-12.5 82.5t-1.5 104.5v14v12q0 143 -50 204.5t-190 61.5h-381v-606h-272z" />
<glyph unicode="L" horiz-adv-x="1071" d="M125 0v1421h272v-1188h664v-233h-936z" />
<glyph unicode="M" horiz-adv-x="1906" d="M125 0v1421h438l385 -1054h8l379 1054h447v-1421h-273l23 1198h-8l-449 -1198h-244l-450 1192h-6l22 -1192h-272z" />
<glyph unicode="N" horiz-adv-x="1566" d="M125 0v1421h450l609 -1188h8l-23 1188h273v-1421h-453l-604 1188h-10l22 -1188h-272z" />
<glyph unicode="O" horiz-adv-x="1353" d="M74 530v383q0 111 12.5 191t43.5 139t74 95t114.5 57.5t154 29t201.5 7.5q73 0 129 -3t112.5 -10t98 -20t81.5 -33t67.5 -48.5t51 -67t37.5 -88t21.5 -111.5t7.5 -138v-383q0 -114 -14.5 -198t-47.5 -144.5t-79 -99t-117.5 -61t-153 -31t-194.5 -8.5q-117 0 -197.5 7.5 t-152 29t-115.5 59t-76 98.5t-45.5 145.5t-13.5 202.5zM346 530q0 -73 4.5 -121t20.5 -84.5t36.5 -55.5t61.5 -30.5t85.5 -14.5t119.5 -3q67 0 111.5 4t85 15.5t64 32t41.5 55.5t25 84t7 118v383q0 67 -7 113.5t-26 79t-41.5 51t-65 28t-84.5 12.5t-110 3q-75 0 -126.5 -5 t-89 -19.5t-58.5 -34t-33.5 -54.5t-16.5 -74t-4 -100v-383z" />
<glyph unicode="P" horiz-adv-x="1300" d="M106 0v1421h629q149 0 241 -20t154 -75.5t86.5 -149t24.5 -244.5q0 -101 -11 -174t-38 -126t-64 -86t-97.5 -52t-129 -26t-166.5 -7h-356v-461h-273zM379 694h356q77 0 119.5 8.5t70 36.5t36 71.5t8.5 121.5q0 54 -3 89t-12 66t-25 48.5t-42.5 30.5t-63 17.5t-88.5 4.5 h-356v-494z" />
<glyph unicode="Q" horiz-adv-x="1452" d="M98 530v383q0 94 13 168t37 128.5t64.5 93.5t88.5 64t116.5 39.5t140.5 20t167 5.5q87 0 141.5 -2.5t128.5 -13t119.5 -30.5t96.5 -58t78.5 -92.5t46 -136t18.5 -186.5v-383q0 -161 -27 -245l139 -95l-110 -159l-123 92q-33 -33 -71.5 -57.5t-85.5 -38.5t-84 -22.5 t-94.5 -12t-85.5 -4t-87 -0.5q-87 0 -153 4t-129.5 14.5t-109 29t-86 47.5t-67 69.5t-46 95t-28 124.5t-8.5 158zM371 530q0 -50 3.5 -88t9 -69t18.5 -53.5t25.5 -39t36.5 -27t46 -17.5t59.5 -10t70.5 -4t85 -1q58 0 80 0.5t67.5 5.5t77 18.5t58.5 35.5l-349 225l111 162 l303 -207q1 22 4.5 92.5t3.5 110.5v249q0 65 -7 110.5t-25.5 78.5t-43 51.5t-68 29.5t-91 14t-121.5 3q-69 0 -111 -2.5t-87.5 -12t-70.5 -28.5t-46.5 -50.5t-30 -79t-8.5 -114.5v-383z" />
<glyph unicode="R" horiz-adv-x="1425" d="M125 0v1421h700q116 0 193.5 -18t132 -62t78.5 -118.5t24 -188.5q0 -184 -54.5 -263t-166.5 -87v-6q57 -4 95.5 -16t69 -39t44.5 -74.5t14 -118.5v-92q0 -50 18.5 -77.5t78.5 -27.5h30v-233h-182q-32 0 -59 3.5t-47 13t-36.5 18.5t-28 26.5t-19.5 30t-13 37t-8 39.5 t-4.5 44.5t-1.5 45v48.5v13q0 80 -13 128.5t-45 73.5t-72.5 32.5t-109.5 7.5h-346v-561h-272zM397 780h375q119 0 164 46.5t45 164.5q0 66 -10.5 104.5t-39 59t-66 27t-103.5 6.5h-365v-408z" />
<glyph unicode="S" horiz-adv-x="1275" d="M63 387v66h273v-66q0 -42 5.5 -70t22.5 -48t37 -30.5t61.5 -16.5t82 -7.5t112.5 -1.5q76 0 125 6.5t81.5 19.5t48.5 39t22 58.5t6 85.5q0 34 -3.5 59.5t-13 44.5t-19 32t-29 22t-35 13.5t-45 7.5t-50.5 4t-60.5 2t-66.5 3q-195 11 -248 20q-160 25 -228 115 q-72 94 -72 285q0 82 16 145t39.5 105.5t69.5 71.5t86.5 45t111 24t123 9.5t141.5 1.5q77 0 121.5 -1.5t108 -9t100.5 -22t79.5 -42.5t64.5 -68t37.5 -100.5t15.5 -139.5v-45h-273v45q0 39 -5 65.5t-19.5 44.5t-30 27.5t-50 14.5t-64 6t-85.5 1q-71 0 -117.5 -2.5t-84 -10 t-57.5 -19t-34 -33t-18 -47.5t-4 -66q0 -28 1 -47.5t5.5 -38t8.5 -30.5t16 -23.5t21.5 -18t31.5 -12.5t39 -9.5t52 -7t62 -5t76 -4.5q127 -8 195 -15t142 -23.5t107.5 -41.5t64 -70.5t39.5 -107.5t9 -154q0 -74 -8.5 -133t-27.5 -103t-43 -76.5t-62.5 -54t-77 -35 t-96.5 -20.5t-111 -9.5t-129 -2.5q-211 0 -293 13q-178 27 -247 142q-54 90 -54 244z" />
<glyph unicode="T" horiz-adv-x="1112" d="M4 1188v233h1106v-233h-416v-1188h-274v1188h-416z" />
<glyph unicode="U" horiz-adv-x="1427" d="M123 412v1009h272v-1009q0 -77 25 -116t92.5 -57t200.5 -18q190 0 254.5 38t64.5 153v1009h273v-1009q0 -73 -10.5 -132t-34 -102t-51.5 -74.5t-71.5 -52.5t-85 -33.5t-102.5 -19t-112.5 -8.5t-124.5 -2q-57 0 -98 1t-91 4.5t-86 10.5t-76.5 18t-69 28t-57.5 40t-48 54.5 t-34.5 70.5t-22.5 88.5t-7 108.5z" />
<glyph unicode="V" horiz-adv-x="1282" d="M-20 1421h278l379 -1194h6l379 1194h281l-457 -1421h-412z" />
<glyph unicode="W" horiz-adv-x="2109" d="M-6 1421h272l297 -1198h6l328 1198h313l318 -1198h6l307 1198h275l-383 -1421h-394l-284 1083h-6l-295 -1083h-389z" />
<glyph unicode="X" horiz-adv-x="1312" d="M-20 0l466 733l-434 688h320l330 -565l327 565h311l-421 -688l454 -733h-313l-358 600l-361 -600h-321z" />
<glyph unicode="Y" horiz-adv-x="1269" d="M-20 1421h311l336 -606h6l342 606h315l-524 -876v-545h-274v545z" />
<glyph unicode="Z" horiz-adv-x="1226" d="M47 0v231l780 949v8h-745v233h1089v-233l-786 -948v-7h795v-233h-1133z" />
<glyph unicode="[" horiz-adv-x="659" d="M113 -285v1717h438v-207h-182v-1303h182v-207h-438z" />
<glyph unicode="\" horiz-adv-x="526" d="M-63 1421h186l469 -1421h-186zM406 0h186h-186z" />
<glyph unicode="]" horiz-adv-x="659" d="M109 -78h182v1303h-182v207h438v-1717h-438v207z" />
<glyph unicode="^" horiz-adv-x="1105" d="M94 502l393 919h131l394 -919h-191l-268 661l-268 -661h-191z" />
<glyph unicode="_" horiz-adv-x="946" d="M0 -141h946v-144h-946v144z" />
<glyph unicode="`" horiz-adv-x="702" d="M141 1251l86 156l334 -219l-51 -98z" />
<glyph unicode="a" horiz-adv-x="1116" d="M82 305q0 172 89 238.5t282 66.5q47 0 73 -1t66.5 -7t65.5 -17t50.5 -33.5t41.5 -55.5h8v129q0 46 -2 73t-9 55.5t-20.5 42.5t-37 26.5t-58.5 17t-86 4.5q-36 0 -59.5 -2t-50 -10t-41.5 -22.5t-25.5 -40.5t-10.5 -64h-239q0 48 7.5 87t19.5 68.5t33.5 52t42 38t53 26 t59 16t67 9t70 4t74.5 0.5q86 0 145 -5t113.5 -20t88 -41.5t59 -69t36 -103t10.5 -144.5v-623h-239l10 125h-6q-11 -32 -30 -56t-46 -38.5t-52 -23.5t-61 -13t-60 -5t-60 -1q-73 0 -126 7t-101.5 27.5t-78.5 55t-47.5 91.5t-17.5 136zM319 305q0 -53 10.5 -83.5t40 -46 t65.5 -19.5t104 -4q44 0 72.5 2.5t59 11t47.5 24.5t28.5 45t11.5 70q0 40 -12.5 67.5t-30 41.5t-50 21.5t-57.5 9t-69 1.5q-30 0 -45 -0.5t-40.5 -2t-38.5 -5t-31.5 -10t-28 -17t-19 -25t-13.5 -35t-4 -46.5z" />
<glyph unicode="b" horiz-adv-x="1124" d="M111 0v1421h237v-559h10q18 43 50 73t74 44.5t83.5 20.5t91.5 6q72 0 128 -11.5t96 -31.5t68.5 -54t45.5 -70.5t27 -89.5t13 -103.5t3 -119.5q0 -54 -0.5 -89.5t-3.5 -83t-8.5 -78.5t-15 -69.5t-24.5 -63.5t-35.5 -52t-48.5 -43.5t-63.5 -31t-81 -21t-100.5 -6.5 q-115 0 -191.5 35t-119.5 127h-6l8 -150h-237zM348 510q0 -86 2 -124.5t13.5 -90.5t36.5 -72.5t71 -36.5t117 -16q62 0 103 17t62.5 38.5t32 73.5t12 89.5t1.5 119.5v18q0 126 -19.5 189t-62.5 85.5t-129 22.5q-78 0 -125 -15.5t-72.5 -54t-34 -90t-8.5 -137.5v-16z" />
<glyph unicode="c" horiz-adv-x="1044" d="M88 496q0 81 4 139t15.5 114.5t32 94.5t53.5 71t80 51.5t111 29t148 10.5q96 0 161 -7.5t124.5 -29t93.5 -61t54 -105t20 -158.5h-240q0 111 -42.5 144.5t-170.5 33.5q-45 0 -76 -6t-54 -13t-37 -30t-22.5 -40.5t-12 -62t-4 -76t-0.5 -99.5q0 -167 10 -214q15 -72 73 -95 q42 -17 123 -17q51 0 84 3t58 13t38 23t21 39t10 54.5t2 76.5h240q0 -99 -15.5 -166t-46.5 -112t-87.5 -69.5t-127 -34t-176.5 -9.5q-94 0 -160.5 9.5t-117.5 33.5t-82 60t-50.5 95.5t-26.5 132t-7 177.5z" />
<glyph unicode="d" horiz-adv-x="1124" d="M78 526q0 69 3 119.5t12.5 103.5t26.5 89.5t45.5 70.5t68.5 54t96.5 31.5t128.5 11.5q50 0 91.5 -6t83.5 -20.5t74 -44.5t50 -73h10v559h238v-1421h-238l8 150h-6q-43 -92 -119.5 -127t-191.5 -35q-78 0 -138 15t-100 37t-67.5 65t-42.5 80t-22.5 102t-9 112t-1.5 127z M315 514q0 -83 1.5 -121.5t12 -91.5t32.5 -75t63 -39t104 -17q44 0 78 4.5t58.5 17.5t42 24.5t28.5 38.5t17 45t8.5 59.5t3 66t0.5 78.5v22q0 69 -5 113t-18.5 82.5t-40 59t-68.5 31.5t-104 11q-86 0 -129.5 -22.5t-63.5 -85.5t-20 -189v-12z" />
<glyph unicode="e" horiz-adv-x="1079" d="M80 494q0 82 4.5 141t16.5 115.5t33.5 94.5t55.5 71t83 51.5t114.5 28.5t151.5 10q78 0 137 -5.5t107 -20t81.5 -34.5t58.5 -54t39.5 -72.5t23.5 -97t12 -120.5t3 -149h-684q0 -42 0.5 -66.5t2.5 -55t6.5 -47t12 -36.5t19.5 -30.5t28 -21.5t38.5 -15.5t50.5 -7.5t64 -3 h43t38 1.5t36.5 3.5t30 7t27.5 12t20 18t17 25.5t9 34t4 43.5h237q0 -58 -7.5 -103.5t-25.5 -79t-38 -57.5t-54.5 -40t-65.5 -25.5t-80 -14t-89.5 -6t-101.5 -1.5q-97 0 -166.5 10.5t-121.5 36t-84.5 62.5t-52 96t-27 130t-7.5 171zM317 604h447q0 54 -2.5 87.5t-13 60 t-23 39t-42 21t-59.5 10t-85 1.5q-53 0 -88.5 -3.5t-61 -14.5t-39 -24.5t-21.5 -42t-10 -57t-2 -77.5z" />
<glyph unicode="f" horiz-adv-x="659" d="M27 813v182h139v86q0 95 13 155t48 104t97.5 62.5t160.5 18.5h156v-182h-74q-34 0 -59.5 -4.5t-43 -10t-29 -20t-17.5 -24.5t-8.5 -35t-3 -40t-0.5 -50v-60h241v-182h-241v-813h-240v813h-139z" />
<glyph unicode="g" horiz-adv-x="1124" d="M80 467q0 55 0.5 89.5t3.5 83t8.5 79t15 69.5t24 63.5t35 52t48.5 44t63.5 31t81.5 21t101 6.5q75 0 129.5 -12.5t103 -49t76.5 -98.5h8l-8 149h238v-993q0 -137 -22.5 -221t-80.5 -135t-145.5 -69.5t-229.5 -18.5q-80 0 -137.5 6.5t-114 27.5t-90 57.5t-52.5 98.5 q-16 52 -16 120q0 15 1 30h223q0 -98 39.5 -128t146.5 -30q151 0 198.5 42t47.5 171v188h-6q-42 -88 -121.5 -120.5t-187.5 -32.5q-72 0 -128.5 12t-96.5 32t-68.5 53.5t-45.5 70t-26.5 89.5t-12.5 103t-3 119zM317 526q0 -86 1.5 -125.5t12 -94.5t32.5 -78t63 -40.5 t104 -17.5q51 0 89 8.5t63.5 19.5t42.5 39t26 48.5t13.5 68t5 77.5t0.5 95q0 86 -8.5 137.5t-34 90t-72.5 54t-125 15.5q-86 0 -129.5 -22.5t-63.5 -85.5t-20 -189z" />
<glyph unicode="h" horiz-adv-x="1132" d="M117 0v1421h239v-575h9q18 52 49 85.5t75 49t85.5 20.5t101.5 5q192 0 267 -82t75 -269v-655h-240v631q0 111 -36.5 151.5t-147.5 40.5q-77 0 -125 -17t-72.5 -55.5t-32.5 -84t-8 -119.5v-547h-239z" />
<glyph unicode="i" horiz-adv-x="446" d="M104 0v995h238v-995h-238zM104 1219v202h238v-202h-238z" />
<glyph unicode="j" horiz-adv-x="425" d="M-23 -166q73 0 95 29.5t22 91.5v1040h240v-1018q0 -78 -11.5 -133.5t-40 -100.5t-82.5 -68t-134 -23q-37 0 -89 10v172zM94 1219v202h240v-202h-240z" />
<glyph unicode="k" horiz-adv-x="1132" d="M115 0v1421h239v-805h201q44 0 73.5 6t59.5 24.5t45 58.5t15 102q0 42 6.5 72t25 58.5t57.5 43t97 14.5h131v-182h-10q-48 0 -62 -15t-14 -57q0 -105 -37 -154.5t-121 -56.5v-6q93 -8 136.5 -68t43.5 -192v-10q0 -43 14 -57.5t62 -14.5h9v-182h-138q-58 0 -97 14.5 t-57.5 43t-25 58.5t-6.5 72q0 74 -7 115.5t-29.5 74t-66 44.5t-116.5 12h-189v-434h-239z" />
<glyph unicode="l" horiz-adv-x="477" d="M119 0v1421h239v-1421h-239z" />
<glyph unicode="m" horiz-adv-x="1751" d="M119 0v995h231v-145h8q65 156 312 156q51 0 96 -8t88.5 -26.5t73 -55t39.5 -87.5h6q60 177 315 177q192 0 267 -74t75 -260v-672h-237v649q0 96 -36 135t-132 39q-72 0 -117.5 -15.5t-70 -50.5t-33.5 -80t-9 -116v-561h-239v649q0 96 -35.5 135t-130.5 39 q-72 0 -118 -15.5t-71 -50.5t-34 -80t-9 -116v-561h-239z" />
<glyph unicode="n" horiz-adv-x="1132" d="M117 0v995h239v-149h9q18 52 49 85.5t75 49t85.5 20.5t101.5 5q192 0 267 -82t75 -269v-655h-240v631q0 111 -36.5 151.5t-147.5 40.5q-77 0 -125 -17t-72.5 -55.5t-32.5 -84t-8 -119.5v-547h-239z" />
<glyph unicode="o" horiz-adv-x="1101" d="M84 496q0 105 5.5 173t23.5 130.5t49 97.5t84 62t126.5 37t178.5 10q79 0 139.5 -5.5t109 -20t82.5 -33.5t59 -51.5t40 -68t24 -89t12 -109t3 -133.5q0 -104 -5.5 -171.5t-23.5 -129.5t-49.5 -97.5t-84.5 -62.5t-127 -37t-179 -10t-178.5 10t-126.5 37t-84 62.5t-49 97.5 t-23.5 129.5t-5.5 171.5zM322 494q0 -62 2 -101.5t6.5 -78t15 -59.5t26.5 -40t41.5 -27.5t58 -13t79.5 -4.5q55 0 91 5t62.5 21t41 36t22.5 61.5t10 84t2 116.5q0 56 -1 92t-5 73t-10.5 58t-18.5 42t-28 31.5t-40.5 19t-54.5 11t-71 2.5q-55 0 -90.5 -5t-62.5 -21t-41 -36.5 t-22.5 -62t-10.5 -85.5t-2 -119z" />
<glyph unicode="p" horiz-adv-x="1128" d="M113 -430v1425h239l-10 -149h8q43 91 119.5 125.5t192.5 34.5q78 0 137.5 -15t99.5 -37.5t67.5 -65t42 -80t22.5 -102t9.5 -112t1.5 -127.5q0 -68 -3 -118.5t-13 -103.5t-26.5 -89.5t-45 -70t-68.5 -53.5t-96 -32t-128 -12q-239 0 -300 145h-10v-563h-239zM352 467 q0 -85 8.5 -136.5t34 -90.5t73 -54.5t124.5 -15.5q86 0 129 22.5t62.5 85.5t19.5 189q0 166 -11 218q-19 94 -93 122q-43 16 -107 16q-51 0 -89 -8t-64 -18.5t-42.5 -37t-25.5 -46t-13.5 -64.5t-5 -74t-0.5 -91v-6v-5v-6z" />
<glyph unicode="q" horiz-adv-x="1130" d="M86 467q0 55 0.5 89.5t3.5 83t8.5 79t15 69.5t24 63.5t35 52t48.5 44t63.5 31t81.5 21t101 6.5q75 0 129.5 -12.5t103 -49t76.5 -98.5h8l-10 149h240v-1425h-240v563h-8q-61 -145 -299 -145q-72 0 -128.5 12t-96.5 32t-68.5 53.5t-45.5 70t-26.5 89.5t-12.5 103t-3 119z M324 526q0 -165 11 -217q19 -95 95 -123q42 -16 107 -16q50 0 87.5 8t63 18.5t42.5 37t25.5 46t13 64t5 73t0.5 90.5v19q0 69 -5 113.5t-19 82.5t-40.5 58.5t-68.5 31.5t-104 11q-87 0 -130.5 -22.5t-63 -85t-19.5 -189.5z" />
<glyph unicode="r" horiz-adv-x="892" d="M100 0v995h234l-6 -131h10q61 142 264 142q77 0 129.5 -22t81 -65t40 -97t11.5 -128v-80h-223v52q0 43 -3.5 67.5t-15.5 47.5t-37.5 32.5t-66.5 9.5q-100 0 -139 -52.5t-39 -156.5v-614h-240z" />
<glyph unicode="s" horiz-adv-x="1054" d="M80 313h237q1 -38 4.5 -62.5t14 -43.5t24 -29t40 -16.5t55.5 -8t77 -1.5q118 0 153 11q62 18 71 90q2 14 2 32q0 31 -2.5 47t-15 35t-38.5 28t-72.5 15.5t-117.5 7.5q-96 1 -160 6.5t-115 19.5t-79.5 34.5t-47 57t-24.5 80.5t-6 111q0 79 24.5 133t58.5 82.5t101.5 43.5 t120 17.5t147.5 2.5q47 0 75 -1t73.5 -4t74 -11t64.5 -21t58.5 -34t43.5 -50t30.5 -70t9.5 -92h-240q0 36 -8.5 59t-20 35.5t-40.5 18.5t-50.5 7t-69.5 1q-35 0 -52.5 -0.5t-45 -2.5t-41 -7t-31 -14.5t-25.5 -23.5t-14 -34.5t-6 -48.5q0 -26 2 -42t13.5 -29t23.5 -19t44 -11 t62.5 -7t90.5 -5q17 -1 49 -2q61 -2 91 -4t80 -9t75.5 -19t59.5 -34.5t49.5 -54.5t27.5 -80.5t12 -111.5q0 -57 -13 -101.5t-34.5 -75.5t-56.5 -53t-71.5 -35t-87.5 -20.5t-96.5 -9.5t-105.5 -2h-2q-75 0 -111 1t-94.5 6.5t-86 18t-64.5 35.5t-53.5 57.5t-28.5 86t-12 120.5 z" />
<glyph unicode="t" horiz-adv-x="804" d="M-4 813v182h125v226h239v-226h381v-182h-381v-510q0 -40 2 -59.5t12 -39.5t31 -27t58 -7q22 0 39 3t29.5 12t21.5 16t14.5 23.5t9 25t4.5 31t1.5 31t0 35.5t-0.5 34h211v-12q0 -215 -68 -297q-70 -84 -262 -84q-102 0 -164.5 13t-104 49t-57.5 95.5t-16 155.5v512h-125z " />
<glyph unicode="u" horiz-adv-x="1124" d="M117 274v721h239v-628q0 -48 2.5 -75.5t11.5 -54t27 -39.5t48.5 -20.5t76.5 -7.5q135 0 189.5 59t54.5 191v575h238v-995h-232v154h-6q-26 -64 -76.5 -102t-107 -51t-131.5 -13q-160 0 -247 66t-87 220z" />
<glyph unicode="v" horiz-adv-x="929" d="M-10 995h246l231 -831h6l219 831h250l-291 -995h-360z" />
<glyph unicode="w" horiz-adv-x="1507" d="M4 995h236l168 -831h6l192 831h297l193 -831h6l172 831h229l-227 -995h-340l-178 799h-6l-177 -799h-346z" />
<glyph unicode="x" horiz-adv-x="946" d="M-10 0l327 522l-288 473h272l172 -319l172 319h277l-289 -473l321 -522h-280l-201 365l-199 -365h-284z" />
<glyph unicode="y" horiz-adv-x="919" d="M-10 995h248l223 -751q19 -64 39 -64l186 815h242l-258 -1034q-21 -87 -34 -130.5t-42.5 -106t-65 -92t-96 -52t-141.5 -22.5q-19 0 -55 3.5t-48 4.5v180q2 0 22.5 -3t29.5 -3q39 0 70 8.5t52.5 28.5t35.5 39t26 55t18 60t15 69q-55 0 -114 52t-83 124z" />
<glyph unicode="z" horiz-adv-x="899" d="M43 0v205l530 608h-487v182h770v-200l-537 -613h537v-182h-813z" />
<glyph unicode="{" horiz-adv-x="737" d="M70 492v182q155 0 155 84v422q0 61 23.5 112t58 80t70 44.5t63.5 15.5h181v-183h-70q-31 0 -49.5 -7.5t-26 -24t-9 -28.5t-1.5 -36v-391q0 -50 -19.5 -86.5t-51 -54.5t-58 -26t-53.5 -11v-4q27 -3 42 -5.5t45.5 -14.5t48 -30.5t32 -55.5t14.5 -87v-393q0 -24 1.5 -36 t9 -28.5t26 -24t49.5 -7.5h70v-183h-181q-28 0 -63.5 15.5t-70 44.5t-58 80t-23.5 112v424q0 101 -155 101z" />
<glyph unicode="|" horiz-adv-x="530" d="M174 0v1421h182v-1421h-182z" />
<glyph unicode="}" horiz-adv-x="737" d="M115 -102h71q31 0 49.5 7.5t26 24t9 28.5t1.5 36v393q0 50 19.5 86t51 54t58 26.5t54.5 11.5v2q-26 3 -42.5 5.5t-46.5 15t-47.5 31.5t-32 56t-14.5 87v391q0 24 -1.5 36t-9 28.5t-26 24t-49.5 7.5h-71v183h182q28 0 63.5 -15.5t70 -44.5t58 -80t23.5 -112v-422 q0 -103 156 -103v-182q-156 0 -156 -82v-424q0 -61 -23.5 -112t-58 -80t-70 -44.5t-63.5 -15.5h-182v183z" />
<glyph unicode="~" horiz-adv-x="1105" d="M94 416q-2 115 72 207t190 92q49 0 105 -33l201 -113q59 -34 110 -34q25 0 43 11.5t26 31t11 38t2 37.5h158q1 -68 -26.5 -135t-80 -113.5t-114.5 -46.5q-76 0 -150 39l-225 115q-56 27 -88 27q-59 0 -76 -123h-158z" />
<glyph unicode="&#xa3;" d="M92 537v206h187v228q0 95 9.5 163.5t33 121t58.5 85.5t90.5 54t123.5 29t162 8q72 0 119.5 -2t102.5 -7.5t89.5 -17.5t71.5 -31.5t59 -49t40 -70t26 -95.5t8 -125v-61h-258v61q0 72 -17.5 107t-67 51t-151.5 16q-60 0 -96.5 -4t-67.5 -16t-46 -35.5t-23 -60t-8 -93.5 v-256h381v-206h-381v-80q0 -99 -17.5 -147.5t-87.5 -86.5v-6l852 12v-229h-1151v223q44 4 74.5 22.5t45 49t20.5 63t6 74.5v105h-187z" />
<glyph unicode="&#xa9;" horiz-adv-x="1497" d="M27 711q0 196 96.5 362t262.5 262.5t362 96.5t362.5 -96.5t263 -262.5t96.5 -362t-96.5 -362.5t-263 -263.5t-362.5 -97t-362 97t-262.5 263.5t-96.5 362.5zM162 711q0 -160 78 -294.5t213 -213t295 -78.5q158 0 293 78.5t213.5 213.5t78.5 294q0 119 -46.5 227.5 t-125 187t-186.5 124.5t-227 46q-160 0 -295 -78t-213 -212.5t-78 -294.5zM381 717q0 184 106 301t287 117q132 0 225.5 -74t114.5 -201h-162q-10 65 -60 103t-120 38q-74 0 -127.5 -41t-78.5 -103.5t-25 -137.5q0 -110 65 -197.5t172 -87.5q68 0 119 41t55 107h162 q-13 -128 -109.5 -204.5t-226.5 -76.5q-178 0 -287.5 119t-109.5 297z" />
<glyph unicode="&#xab;" horiz-adv-x="1001" d="M96 520l248 502l164 -92l-203 -410l213 -399l-151 -96zM483 520l250 502l162 -92l-203 -410l213 -399l-151 -96z" />
<glyph unicode="&#xae;" horiz-adv-x="1497" d="M27 711q0 195 96.5 361t262.5 263t362 97q146 0 279.5 -57.5t230.5 -154t154.5 -230t57.5 -279.5t-57.5 -280t-154 -231t-230.5 -154.5t-280 -57.5q-196 0 -362 97.5t-262.5 264t-96.5 361.5zM164 711q0 -161 77.5 -295.5t212 -212.5t294.5 -78t295 78t212.5 213 t77.5 295q0 120 -46 228.5t-124 186.5t-186.5 124t-228.5 46q-160 0 -294.5 -77.5t-212 -212.5t-77.5 -295zM451 317v781h376q52 0 92 -4.5t81 -18t67.5 -36.5t43.5 -63t17 -95q0 -120 -51 -173t-157 -61l186 -330h-176l-174 330h-154v-330h-151zM602 762h229q73 0 109.5 25 t36.5 94q0 22 -7 38.5t-15.5 27t-26.5 18t-30 11t-36 5.5t-34.5 2h-34.5h-191v-221z" />
<glyph unicode="&#xbb;" horiz-adv-x="1001" d="M96 121l215 399l-202 410l159 92l250 -502l-270 -495zM483 121l213 399l-202 410l163 92l248 -502l-270 -495z" />
<glyph unicode="&#x401;" horiz-adv-x="1173" d="M106 0v1421h973v-233h-700v-354h665v-224h-665v-377h706v-233h-979zM311 1610v168h189v-168h-189zM698 1610v168h189v-168h-189z" />
<glyph unicode="&#x402;" horiz-adv-x="1421" d="M4 1188v233h1106v-233h-416v-342h8q18 52 49 85.5t75.5 49t86 20.5t101.5 5q194 0 277 -83.5t83 -267.5v-465q0 -65 -9.5 -119t-25.5 -94.5t-43 -72.5t-56 -54t-71.5 -37.5t-81 -24t-94 -13.5t-102 -6.5t-111.5 -1.5v233q191 0 255.5 37.5t64.5 152.5v420q0 103 -48 148 t-141 45q-125 0 -171 -67t-46 -210v-526h-274v1188h-416z" />
<glyph unicode="&#x403;" horiz-adv-x="1101" d="M111 0v1421h938v-233h-666v-1188h-272zM467 1649l334 219l86 -156l-369 -162z" />
<glyph unicode="&#x404;" horiz-adv-x="1318" d="M70 549v325q0 114 14.5 199.5t47 147.5t78.5 102.5t115.5 65t150 34t190.5 9.5q68 0 103 -0.5t92 -3t86 -8t73.5 -15.5t67 -25.5t52.5 -37t44.5 -52t30 -69t21 -88.5t5.5 -111v-76h-272v76q0 42 -5 70.5t-21 49t-35.5 31.5t-58 17.5t-77.5 8t-106 1.5q-72 0 -119.5 -4.5 t-86 -18.5t-59.5 -35t-35.5 -59.5t-19 -87t-4.5 -121.5v-40h532v-224h-532v-49q0 -77 4 -125t17 -89.5t33.5 -63t58.5 -37t87 -20.5t124 -5q48 0 77 0.5t64.5 3.5t55.5 9t43 16.5t35 25.5t23 37t15 51.5t4 67.5v78h272v-94q0 -90 -16 -158.5t-37.5 -114t-69.5 -76t-84.5 -46 t-113 -23.5t-123.5 -9t-145 -1q-127 0 -218.5 12t-159 42t-109 71t-66.5 107t-34 143t-9 186z" />
<glyph unicode="&#x405;" horiz-adv-x="1275" d="M63 387v66h273v-66q0 -42 5.5 -70t22.5 -48t37 -30.5t61.5 -16.5t82 -7.5t112.5 -1.5q76 0 125 6.5t81.5 19.5t48.5 39t22 58.5t6 85.5q0 34 -3.5 59.5t-13 44.5t-19 32t-29 22t-35 13.5t-45 7.5t-50.5 4t-60.5 2t-66.5 3q-195 11 -248 20q-160 25 -228 115 q-72 94 -72 285q0 82 16 145t39.5 105.5t69.5 71.5t86.5 45t111 24t123 9.5t141.5 1.5q77 0 121.5 -1.5t108 -9t100.5 -22t79.5 -42.5t64.5 -68t37.5 -100.5t15.5 -139.5v-45h-273v45q0 39 -5 65.5t-19.5 44.5t-30 27.5t-50 14.5t-64 6t-85.5 1q-71 0 -117.5 -2.5t-84 -10 t-57.5 -19t-34 -33t-18 -47.5t-4 -66q0 -28 1 -47.5t5.5 -38t8.5 -30.5t16 -23.5t21.5 -18t31.5 -12.5t39 -9.5t52 -7t62 -5t76 -4.5q127 -8 195 -15t142 -23.5t107.5 -41.5t64 -70.5t39.5 -107.5t9 -154q0 -74 -8.5 -133t-27.5 -103t-43 -76.5t-62.5 -54t-77 -35 t-96.5 -20.5t-111 -9.5t-129 -2.5q-211 0 -293 13q-178 27 -247 142q-54 90 -54 244z" />
<glyph unicode="&#x406;" horiz-adv-x="522" d="M125 0v1421h272v-1421h-272z" />
<glyph unicode="&#x407;" horiz-adv-x="522" d="M-80 1610v168h189v-168h-189zM125 0v1421h272v-1421h-272zM307 1610v168h189v-168h-189z" />
<glyph unicode="&#x408;" horiz-adv-x="1103" d="M57 352v205h260v-106q0 -84 3 -116.5t24 -65.5t63.5 -40.5t124.5 -7.5q119 0 153 41.5t34 175.5v983h274v-983q0 -140 -25 -228.5t-84.5 -137.5t-140.5 -66.5t-211 -17.5q-69 0 -118.5 3t-102.5 12t-89 25t-69.5 43t-53 65.5t-31 92.5t-11.5 123z" />
<glyph unicode="&#x409;" horiz-adv-x="2142" d="M53 0v233h27q40 0 69.5 4.5t53 18t39.5 29t27 46.5t17 60.5t9.5 81.5t4.5 99.5t1 123.5v725h969v-581h325q96 0 164.5 -7t126.5 -25t95 -47t62.5 -75.5t36.5 -108.5t11 -147q0 -242 -108.5 -336t-389.5 -94h-596v1188h-424v-686q0 -245 -88.5 -373.5t-281.5 -128.5h-150z M1270 233h315q98 0 149.5 22t68 61.5t16.5 113.5q0 105 -45 140.5t-189 35.5h-315v-373z" />
<glyph unicode="&#x40a;" horiz-adv-x="2142" d="M125 0v1421h272v-581h600v581h273v-581h325q96 0 164.5 -7t126.5 -25t95 -47t62.5 -75.5t36.5 -108.5t11 -147q0 -242 -108.5 -336t-389.5 -94h-596v606h-600v-606h-272zM1270 233h315q98 0 149.5 22t68 61.5t16.5 113.5q0 105 -45 140.5t-189 35.5h-315v-373z" />
<glyph unicode="&#x40b;" horiz-adv-x="1421" d="M4 1188v233h1106v-233h-416v-342h8q18 52 49 85.5t75.5 49t86 20.5t101.5 5q192 0 267 -82t75 -269v-655h-275v610q0 106 -39.5 149.5t-130.5 43.5q-125 0 -171 -67t-46 -210v-526h-274v1188h-416z" />
<glyph unicode="&#x40c;" horiz-adv-x="1456" d="M125 0v1421h272v-581h361q73 0 119.5 13t73 44t36.5 74t10 110v26v52t1 47.5t4 46t8 40t13.5 37.5t20 30.5t27.5 26t36.5 18t47.5 13t59 3.5h179v-233h-31q-32 0 -52 -8t-29 -24.5t-12 -32.5t-3 -40v-79q0 -142 -45.5 -201t-153.5 -68v-6q113 -8 168 -67.5t55 -198.5 v-125q0 -24 3 -40t12 -32.5t29 -24.5t52 -8h31v-233h-182q-63 0 -105.5 17.5t-64.5 39t-33 70.5t-12.5 82.5t-1.5 104.5v14v12q0 143 -50 204.5t-190 61.5h-381v-606h-272zM590 1649l334 219l86 -156l-369 -162z" />
<glyph unicode="&#x40e;" horiz-adv-x="1282" d="M-14 1421h297l352 -815h6l352 815h299l-567 -1224q-39 -84 -75 -123t-95 -56.5t-166 -17.5h-102v233h102q75 0 111 70zM317 1759h195q8 -38 39.5 -49.5t89.5 -11.5q31 0 47.5 1.5t35 7t28.5 18.5t16 34h203q-29 -122 -104.5 -163.5t-227.5 -41.5q-61 0 -103.5 4t-82 16.5 t-65 35t-44 59.5t-27.5 90z" />
<glyph unicode="&#x40f;" horiz-adv-x="1456" d="M125 0v1421h272v-1188h662v1188h272v-1421h-465v-375h-272v375h-469z" />
<glyph unicode="&#x410;" horiz-adv-x="1343" d="M-6 0l473 1421h401l482 -1421h-277l-94 268h-612l-91 -268h-282zM428 475h492l-246 737h-4z" />
<glyph unicode="&#x411;" horiz-adv-x="1355" d="M121 0v1421h1040v-233h-768v-336h475q78 0 137.5 -10t113 -37t87.5 -71.5t54 -116t20 -168.5q0 -142 -23.5 -230.5t-79.5 -137t-130.5 -65t-194.5 -16.5h-731zM393 233h395q66 0 103.5 6.5t66.5 27t39.5 59.5t10.5 104q0 115 -43 151.5t-166 36.5h-406v-385z" />
<glyph unicode="&#x412;" horiz-adv-x="1355" d="M121 0v1421h706q74 0 128.5 -5.5t104 -20.5t82.5 -41.5t57.5 -67.5t36 -99t11.5 -136q0 -66 -8 -112.5t-29 -89t-62 -70t-104 -42.5v-8q72 -8 120.5 -35.5t72.5 -74t33.5 -98.5t9.5 -126q0 -117 -24 -193.5t-78.5 -121.5t-131.5 -62.5t-194 -17.5h-731zM393 233h375 q56 0 88 2.5t65.5 12.5t49.5 30t26.5 54t10.5 86q0 119 -38.5 159.5t-156.5 40.5h-420v-385zM393 825h393q113 0 150 41t37 158q0 56 -10.5 89.5t-37.5 49.5t-58 20.5t-89 4.5h-385v-363z" />
<glyph unicode="&#x413;" horiz-adv-x="1101" d="M111 0v1421h938v-233h-666v-1188h-272z" />
<glyph unicode="&#x414;" horiz-adv-x="1456" d="M8 233h90q32 30 43 40.5t39 44t39.5 58.5t30.5 73t27 100t15 127.5t7 165.5v579h1026v-1188h121v-608h-272v375h-893v-375h-273v608zM414 233h639v955h-482v-346q0 -149 -13.5 -259.5t-39.5 -178t-49 -103.5t-55 -68z" />
<glyph unicode="&#x415;" horiz-adv-x="1173" d="M106 0v1421h973v-233h-700v-354h665v-224h-665v-377h706v-233h-979z" />
<glyph unicode="&#x416;" horiz-adv-x="2187" d="M43 0v233h31q32 0 52 8t29 24.5t12 32.5t3 40v125q0 139 55 198.5t168 67.5v6q-108 9 -153 68t-45 201v79q0 50 -18.5 77.5t-78.5 27.5h-30v233h178q63 0 106 -18t65 -40t32.5 -72t12 -82t1.5 -102v-26q0 -67 10 -110t36.5 -74t73 -44t119.5 -13h259v581h272v-581h258 q141 0 190.5 54t49.5 187v26v52t1 47.5t4 46t8 40t13.5 37.5t20 30.5t27.5 26t36.5 18t47.5 13t59 3.5h178v-233h-31q-32 0 -52 -8t-29 -24.5t-12 -32.5t-3 -40v-79q0 -142 -45.5 -201t-153.5 -68v-6q113 -8 168 -67.5t55 -198.5v-125q0 -50 18.5 -77.5t78.5 -27.5h30v-233 h-182q-63 0 -105.5 17.5t-64.5 39t-33 70.5t-12.5 82.5t-1.5 104.5v14v12q0 143 -50 204.5t-190 61.5h-278v-606h-272v606h-279q-140 0 -190 -61.5t-50 -204.5v-12v-14v-53.5t-1.5 -48.5t-4.5 -46.5t-8 -40t-13 -37t-19.5 -29.5t-27.5 -25.5t-36.5 -17.5t-47.5 -12.5 t-59 -3.5h-182z" />
<glyph unicode="&#x417;" d="M113 479h256q0 -41 1 -71.5t6 -57.5t8.5 -45t15.5 -33.5t20 -24.5t29 -16t35 -10.5t46 -5.5t53.5 -2h65.5q72 0 105 1t76.5 7t60.5 17.5t36 34t24 56t5 83.5q0 118 -38 163.5t-150 45.5h-207v206h207q102 0 134 50t32 184q0 42 -9.5 68t-26 42.5t-54.5 24t-79 10 t-116 2.5q-63 0 -101 -2.5t-70.5 -12.5t-48 -24t-27 -44t-14.5 -65.5t-3 -94.5h-258q0 77 6.5 137.5t22.5 108.5t36.5 82t54.5 59t71 40.5t90.5 24.5t109 12t131.5 3q66 0 102 -1t96 -5t94 -14t80 -27t71.5 -44.5t51.5 -65.5t37 -92t11 -122q0 -55 -5 -98t-19 -86t-38 -72.5 t-65 -50t-96 -25.5v-8q139 -9 192 -85t53 -224q0 -83 -13 -147t-35 -109t-61.5 -76t-80.5 -49t-105.5 -27.5t-123.5 -12.5t-146 -3q-89 0 -143.5 2.5t-118.5 12.5t-100.5 30.5t-74.5 55.5t-56.5 87.5t-30.5 127.5t-12 175z" />
<glyph unicode="&#x418;" horiz-adv-x="1456" d="M125 0v1421h272l-20 -1093h6l614 1093h334v-1421h-272l20 1092h-6l-614 -1092h-334z" />
<glyph unicode="&#x419;" horiz-adv-x="1456" d="M125 0v1421h272l-20 -1093h6l614 1093h334v-1421h-272l20 1092h-6l-614 -1092h-334zM410 1759h194q8 -38 39.5 -49.5t89.5 -11.5q31 0 47.5 1.5t35 7t28.5 18.5t16 34h203q-29 -122 -104.5 -163.5t-227.5 -41.5q-61 0 -103.5 4t-82 16.5t-64.5 35t-43.5 59.5t-27.5 90z " />
<glyph unicode="&#x41a;" horiz-adv-x="1456" d="M125 0v1421h272v-581h361q73 0 119.5 13t73 44t36.5 74t10 110v26v52t1 47.5t4 46t8 40t13.5 37.5t20 30.5t27.5 26t36.5 18t47.5 13t59 3.5h179v-233h-31q-32 0 -52 -8t-29 -24.5t-12 -32.5t-3 -40v-79q0 -142 -45.5 -201t-153.5 -68v-6q113 -8 168 -67.5t55 -198.5 v-125q0 -24 3 -40t12 -32.5t29 -24.5t52 -8h31v-233h-182q-63 0 -105.5 17.5t-64.5 39t-33 70.5t-12.5 82.5t-1.5 104.5v14v12q0 143 -50 204.5t-190 61.5h-381v-606h-272z" />
<glyph unicode="&#x41b;" horiz-adv-x="1456" d="M53 0v233h27q40 0 69.5 4.5t53 18t39.5 29t27 46.5t17 60.5t9.5 81.5t4.5 99.5t1 123.5v725h1030v-1421h-272v1188h-486v-686q0 -245 -88.5 -373.5t-281.5 -128.5h-150z" />
<glyph unicode="&#x41c;" horiz-adv-x="1906" d="M125 0v1421h438l385 -1054h8l379 1054h447v-1421h-273l23 1198h-8l-449 -1198h-244l-450 1192h-6l22 -1192h-272z" />
<glyph unicode="&#x41d;" horiz-adv-x="1456" d="M125 0v1421h272v-581h662v581h272v-1421h-272v606h-662v-606h-272z" />
<glyph unicode="&#x41e;" horiz-adv-x="1353" d="M74 530v383q0 111 12.5 191t43.5 139t74 95t114.5 57.5t154 29t201.5 7.5q73 0 129 -3t112.5 -10t98 -20t81.5 -33t67.5 -48.5t51 -67t37.5 -88t21.5 -111.5t7.5 -138v-383q0 -114 -14.5 -198t-47.5 -144.5t-79 -99t-117.5 -61t-153 -31t-194.5 -8.5q-117 0 -197.5 7.5 t-152 29t-115.5 59t-76 98.5t-45.5 145.5t-13.5 202.5zM346 530q0 -73 4.5 -121t20.5 -84.5t36.5 -55.5t61.5 -30.5t85.5 -14.5t119.5 -3q67 0 111.5 4t85 15.5t64 32t41.5 55.5t25 84t7 118v383q0 67 -7 113.5t-26 79t-41.5 51t-65 28t-84.5 12.5t-110 3q-75 0 -126.5 -5 t-89 -19.5t-58.5 -34t-33.5 -54.5t-16.5 -74t-4 -100v-383z" />
<glyph unicode="&#x41f;" horiz-adv-x="1456" d="M125 0v1421h1206v-1421h-272v1188h-662v-1188h-272z" />
<glyph unicode="&#x420;" horiz-adv-x="1300" d="M106 0v1421h629q149 0 241 -20t154 -75.5t86.5 -149t24.5 -244.5q0 -101 -11 -174t-38 -126t-64 -86t-97.5 -52t-129 -26t-166.5 -7h-356v-461h-273zM379 694h356q77 0 119.5 8.5t70 36.5t36 71.5t8.5 121.5q0 54 -3 89t-12 66t-25 48.5t-42.5 30.5t-63 17.5t-88.5 4.5 h-356v-494z" />
<glyph unicode="&#x421;" horiz-adv-x="1318" d="M70 549v325q0 114 14.5 199.5t47 147.5t78.5 102.5t115.5 65t150 34t190.5 9.5q68 0 103 -0.5t92 -3t86 -8t73.5 -15.5t67 -25.5t52.5 -37t44.5 -52t30 -69t21 -88.5t5.5 -111v-76h-272v76q0 42 -5 70.5t-21 49t-35.5 31.5t-58 17.5t-77.5 8t-106 1.5q-72 0 -119.5 -4.5 t-86 -18.5t-59.5 -35t-35.5 -59.5t-19 -87t-4.5 -121.5v-313q0 -77 4 -125t17 -89.5t33.5 -63t58.5 -37t87 -20.5t124 -5q48 0 77 0.5t64.5 3.5t55.5 9t43 16.5t35 25.5t23 37t15 51.5t4 67.5v78h272v-94q0 -90 -16 -158.5t-37.5 -114t-69.5 -76t-84.5 -46t-113 -23.5 t-123.5 -9t-145 -1q-127 0 -218.5 12t-159 42t-109 71t-66.5 107t-34 143t-9 186z" />
<glyph unicode="&#x422;" horiz-adv-x="1112" d="M4 1188v233h1106v-233h-416v-1188h-274v1188h-416z" />
<glyph unicode="&#x423;" horiz-adv-x="1282" d="M-14 1421h297l352 -815h6l352 815h299l-567 -1224q-39 -84 -75 -123t-95 -56.5t-166 -17.5h-102v233h102q75 0 111 70z" />
<glyph unicode="&#x424;" horiz-adv-x="1794" d="M78 618v203q0 151 24.5 244.5t86.5 149t154 76t241 20.5h182v110h272v-110h183q119 0 199.5 -13t142 -44.5t96 -89t51 -140t16.5 -203.5v-203q0 -101 -11 -174t-38 -126t-64 -86t-97 -52t-128.5 -26t-166.5 -7h-183v-147h-272v147h-182q-98 0 -166.5 7t-129 26t-97.5 52 t-64 86t-38 126t-11 174zM350 618q0 -149 43.5 -193t190.5 -44h182v696h-182q-52 0 -88.5 -4.5t-63 -17.5t-42.5 -30.5t-25 -48.5t-12 -66t-3 -89v-203zM1038 381h183q77 0 119.5 8.5t69.5 36t35.5 71t8.5 121.5v203q0 54 -3 89t-12 66t-24.5 48.5t-42 30.5t-63 17.5 t-88.5 4.5h-183v-696z" />
<glyph unicode="&#x425;" horiz-adv-x="1312" d="M-20 0l466 733l-434 688h320l330 -565l327 565h311l-421 -688l454 -733h-313l-358 600l-361 -600h-321z" />
<glyph unicode="&#x426;" horiz-adv-x="1456" d="M125 0v1421h272v-1188h662v1188h272v-1188h121v-608h-272v375h-1055z" />
<glyph unicode="&#x427;" horiz-adv-x="1331" d="M104 948v473h273v-473q0 -77 24.5 -115.5t91.5 -56.5t201 -18h219v663h273v-1421h-273v524h-219q-57 0 -98 1t-91 4.5t-86 10.5t-76.5 18t-69 28t-57.5 40t-48 54.5t-34.5 70.5t-22.5 88.5t-7 108.5z" />
<glyph unicode="&#x428;" horiz-adv-x="2304" d="M125 0v1421h272v-1188h621v1188h272v-1188h621v1188h272v-1421h-2058z" />
<glyph unicode="&#x429;" horiz-adv-x="2304" d="M125 0v1421h272v-1188h621v1188h272v-1188h621v1188h272v-1188h121v-608h-272v375h-1907z" />
<glyph unicode="&#x42a;" horiz-adv-x="1566" d="M4 1188v233h641v-542h367q115 0 193 -11.5t139 -39.5t95 -77.5t51 -122.5t17 -179q0 -256 -107.5 -352.5t-389.5 -96.5h-637v1188h-369zM645 233h356q75 0 120.5 11t71 39t34 65.5t8.5 100.5q0 80 -18 120t-67.5 58t-148.5 18h-356v-412z" />
<glyph unicode="&#x42b;" horiz-adv-x="1824" d="M106 0v1421h273v-542h366q144 0 233.5 -18t151 -66.5t86.5 -131t25 -214.5q0 -131 -24.5 -215t-84.5 -137.5t-152.5 -75t-236.5 -21.5h-637zM379 233h356q75 0 120.5 11t71 39t34 65.5t8.5 100.5q0 80 -18 120t-67.5 58t-148.5 18h-356v-412zM1427 0v1421h273v-1421h-273 z" />
<glyph unicode="&#x42c;" horiz-adv-x="1300" d="M106 0v1421h273v-542h366q144 0 233.5 -18t151 -66.5t86.5 -131t25 -214.5q0 -131 -24.5 -215t-84.5 -137.5t-152.5 -75t-236.5 -21.5h-637zM379 233h356q75 0 120.5 11t71 39t34 65.5t8.5 100.5q0 80 -18 120t-67.5 58t-148.5 18h-356v-412z" />
<glyph unicode="&#x42d;" horiz-adv-x="1318" d="M59 416v94h273v-78q0 -38 4 -67.5t15 -51.5t23 -37t35 -25.5t43 -16.5t55.5 -9t64.5 -3.5t77 -0.5q75 0 124 5t87 20.5t58.5 37t33.5 63t17 89.5t4 125v49h-533v224h533v40q0 73 -4.5 121.5t-19 87t-35.5 59.5t-59.5 35t-86 18.5t-119.5 4.5q-67 0 -106 -1.5t-77.5 -8 t-58 -17.5t-35.5 -31.5t-21 -49t-5 -70.5v-76h-272v76q0 61 5.5 111t21 88.5t30 69t44.5 52t52.5 37t67 25.5t73.5 15.5t86 8t92 3t103 0.5q110 0 190.5 -9.5t150 -34t115.5 -65t78.5 -102.5t47 -147.5t14.5 -199.5v-325q0 -110 -8.5 -186t-32.5 -143t-65.5 -107.5 t-108.5 -70.5t-159.5 -42t-221.5 -12q-98 0 -145.5 1t-123.5 9t-112.5 23.5t-85 46t-70 76t-37.5 114t-16 158.5z" />
<glyph unicode="&#x42e;" horiz-adv-x="1906" d="M125 0v1421h272v-581h230v73q0 111 12.5 191t43.5 139t74 95t114.5 57.5t154 29t201.5 7.5q73 0 129 -3t112.5 -10t98 -20t81.5 -33t67.5 -48.5t51 -67t37.5 -88t21.5 -111.5t7.5 -138v-383q0 -114 -14.5 -198t-47.5 -144.5t-79 -99t-117.5 -61t-153 -31t-194.5 -8.5 q-117 0 -197.5 7.5t-152 29t-115.5 59t-76 98.5t-45.5 145.5t-13.5 202.5v76h-230v-606h-272zM899 530q0 -73 4.5 -121t20.5 -84.5t36.5 -55.5t61.5 -30.5t85.5 -14.5t119.5 -3q67 0 111.5 4t85 15.5t64 32t41.5 55.5t25 84t7 118v383q0 67 -7 113.5t-26 79t-41.5 51t-65 28 t-84.5 12.5t-110 3q-75 0 -126.5 -5t-89 -19.5t-58.5 -34t-33.5 -54.5t-16.5 -74t-4 -100v-383z" />
<glyph unicode="&#x42f;" horiz-adv-x="1425" d="M43 0v233h31q32 0 52 8t29 24.5t12 32.5t3 40v92q0 71 14 118.5t44.5 74.5t69 39t95.5 16v6q-112 8 -166.5 87t-54.5 263q0 114 24 188.5t78.5 118.5t132 62t193.5 18h700v-1421h-272v561h-346q-69 0 -109.5 -7.5t-72.5 -32.5t-45 -73.5t-13 -128.5q0 -136 -12 -185 q-26 -102 -125 -126q-35 -8 -80 -8h-182zM444 991q0 -118 45 -164.5t164 -46.5h375v408h-364q-66 0 -103.5 -6.5t-66.5 -27t-39.5 -59.5t-10.5 -104z" />
<glyph unicode="&#x430;" horiz-adv-x="1116" d="M82 305q0 172 89 238.5t282 66.5q47 0 73 -1t66.5 -7t65.5 -17t50.5 -33.5t41.5 -55.5h8v129q0 46 -2 73t-9 55.5t-20.5 42.5t-37 26.5t-58.5 17t-86 4.5q-36 0 -59.5 -2t-50 -10t-41.5 -22.5t-25.5 -40.5t-10.5 -64h-239q0 48 7.5 87t19.5 68.5t33.5 52t42 38t53 26 t59 16t67 9t70 4t74.5 0.5q86 0 145 -5t113.5 -20t88 -41.5t59 -69t36 -103t10.5 -144.5v-623h-239l10 125h-6q-11 -32 -30 -56t-46 -38.5t-52 -23.5t-61 -13t-60 -5t-60 -1q-73 0 -126 7t-101.5 27.5t-78.5 55t-47.5 91.5t-17.5 136zM319 305q0 -53 10.5 -83.5t40 -46 t65.5 -19.5t104 -4q44 0 72.5 2.5t59 11t47.5 24.5t28.5 45t11.5 70q0 40 -12.5 67.5t-30 41.5t-50 21.5t-57.5 9t-69 1.5q-30 0 -45 -0.5t-40.5 -2t-38.5 -5t-31.5 -10t-28 -17t-19 -25t-13.5 -35t-4 -46.5z" />
<glyph unicode="&#x431;" horiz-adv-x="1101" d="M84 496v460q0 84 10.5 144.5t36 103t59 69t87.5 41.5t113 20t145 5q37 0 61 2.5t50 10t42.5 25t24.5 44.5h245q-4 -39 -15 -70.5t-24.5 -55t-35.5 -42t-42.5 -31t-51.5 -21t-56 -13t-63 -7t-65.5 -3t-69.5 -0.5q-44 0 -76 -4t-55 -10.5t-38 -21.5t-24 -29t-13.5 -41 t-5.5 -50.5t-1 -63.5v-61h6q35 109 264 109q71 0 126 -5.5t99 -20t75.5 -33.5t54.5 -51t36.5 -68t22 -89.5t11.5 -109.5t3 -133q0 -104 -5.5 -171.5t-23.5 -129.5t-49.5 -97.5t-84.5 -62.5t-127 -37t-179 -10t-178.5 10t-126.5 37t-84 62.5t-49 97.5t-23.5 129.5t-5.5 171.5 zM322 494q0 -62 2 -101.5t6.5 -78t15 -59.5t26.5 -40t41.5 -27.5t58 -13t79.5 -4.5q55 0 91 5t62.5 21t41 36t22.5 61.5t10 84t2 116.5q0 56 -1 92t-5 73t-10.5 58t-18.5 42t-28 31.5t-40.5 19t-54.5 11t-71 2.5q-55 0 -90.5 -5t-62.5 -21t-41 -36.5t-22.5 -62t-10.5 -85.5 t-2 -119z" />
<glyph unicode="&#x432;" horiz-adv-x="1079" d="M117 0v995h506q36 0 58 -0.5t56.5 -3t56 -7t50 -13.5t46.5 -21.5t37.5 -31.5t30.5 -44t18 -58.5t7 -74.5q0 -94 -38 -147.5t-132 -61.5v-6q102 -7 144 -63t42 -164q0 -52 -7.5 -94t-23.5 -72t-34.5 -52.5t-47.5 -37t-55.5 -23.5t-64.5 -13t-68.5 -5.5t-74.5 -1.5h-506z M356 182h271q75 0 104 23.5t29 101.5q0 72 -25 96.5t-108 24.5h-271v-246zM356 596h271q71 0 93.5 23t22.5 94q0 60 -32 80t-101 20h-254v-217z" />
<glyph unicode="&#x433;" horiz-adv-x="860" d="M117 0v995h725v-182h-486v-813h-239z" />
<glyph unicode="&#x434;" horiz-adv-x="1132" d="M6 182h88q56 72 87.5 191.5t31.5 333.5v288h805v-813h106v-518h-239v336h-639v-336h-240v518zM352 182h426v631h-325v-106q0 -348 -101 -525z" />
<glyph unicode="&#x435;" horiz-adv-x="1079" d="M80 494q0 82 4.5 141t16.5 115.5t33.5 94.5t55.5 71t83 51.5t114.5 28.5t151.5 10q78 0 137 -5.5t107 -20t81.5 -34.5t58.5 -54t39.5 -72.5t23.5 -97t12 -120.5t3 -149h-684q0 -42 0.5 -66.5t2.5 -55t6.5 -47t12 -36.5t19.5 -30.5t28 -21.5t38.5 -15.5t50.5 -7.5t64 -3 h43t38 1.5t36.5 3.5t30 7t27.5 12t20 18t17 25.5t9 34t4 43.5h237q0 -58 -7.5 -103.5t-25.5 -79t-38 -57.5t-54.5 -40t-65.5 -25.5t-80 -14t-89.5 -6t-101.5 -1.5q-97 0 -166.5 10.5t-121.5 36t-84.5 62.5t-52 96t-27 130t-7.5 171zM317 604h447q0 54 -2.5 87.5t-13 60 t-23 39t-42 21t-59.5 10t-85 1.5q-53 0 -88.5 -3.5t-61 -14.5t-39 -24.5t-21.5 -42t-10 -57t-2 -77.5z" />
<glyph unicode="&#x436;" horiz-adv-x="1617" d="M37 0v182h10q48 0 62 14.5t14 57.5v10q0 132 43.5 192t136.5 68v6q-90 7 -124 53.5t-34 157.5q0 42 -14 57t-61 15h-11v182h131q58 0 97 -14.5t57.5 -42.5t25.5 -58.5t7 -72.5q0 -53 9 -89t22 -56t37.5 -30.5t46.5 -13t57 -2.5h139v379h240v-379h139q35 0 57 2.5t46.5 13 t37.5 30.5t22 56t9 89q0 42 6.5 72t25 58.5t57.5 43t97 14.5h131v-182h-10q-48 0 -62 -15t-14 -57q0 -111 -33.5 -157.5t-123.5 -53.5v-6q93 -8 136.5 -68t43.5 -192v-10q0 -43 14 -57.5t62 -14.5h10v-182h-139q-58 0 -97 14.5t-57.5 42.5t-25.5 58.5t-7 72.5q0 74 -7 115.5 t-29.5 74t-66 44.5t-116.5 12h-106v-434h-240v434h-106q-73 0 -116.5 -12t-66.5 -44.5t-30 -74t-7 -115.5q0 -42 -6.5 -72t-25 -58.5t-57.5 -43t-97 -14.5h-139z" />
<glyph unicode="&#x437;" horiz-adv-x="1009" d="M68 317h235q0 -49 6 -75t28 -43t57.5 -22t101.5 -5q125 0 165.5 19.5t40.5 95.5q0 74 -25.5 103.5t-107.5 29.5h-137v180h137q71 0 94 24.5t23 96.5q0 64 -37 82t-160 18q-105 0 -139.5 -26t-34.5 -117h-237q0 102 22 166t74 100t123.5 49t185.5 13q43 0 69.5 -0.5t68 -3 t68.5 -7.5t62 -14t57.5 -22.5t47 -33.5t38.5 -45.5t23 -61t9 -77.5q0 -201 -195 -219v-6q211 -14 211 -229q0 -58 -12 -103.5t-31 -76.5t-52.5 -53.5t-68 -35t-86 -19.5t-97.5 -9t-112 -2q-89 0 -149 7t-114.5 27t-85.5 56t-48.5 95t-17.5 144z" />
<glyph unicode="&#x438;" horiz-adv-x="1132" d="M117 0v995h239l-12 -739h6l367 739h301v-995h-240l13 739h-7l-366 -739h-301z" />
<glyph unicode="&#x439;" horiz-adv-x="1132" d="M117 0v995h239l-12 -739h6l367 739h301v-995h-240l13 739h-7l-366 -739h-301zM289 1290h168q8 -35 34 -45t78 -10q53 0 76.5 9t34.5 46h176q-27 -112 -90 -149t-199 -37q-70 0 -113.5 6.5t-80 26t-56 56.5t-28.5 97z" />
<glyph unicode="&#x43a;" horiz-adv-x="1132" d="M117 0v995h239v-379h201q44 0 73.5 6t59.5 24.5t45 58.5t15 102q0 42 6.5 72t25 58.5t57.5 43t97 14.5h131v-182h-10q-48 0 -62 -15t-14 -57q0 -105 -37 -154.5t-121 -56.5v-6q93 -8 137 -68t44 -192v-10q0 -43 13.5 -57.5t61.5 -14.5h11v-182h-140q-58 0 -97 14.5 t-57.5 43t-25 58.5t-6.5 72q0 74 -7 115.5t-29.5 74t-66 44.5t-116.5 12h-189v-434h-239z" />
<glyph unicode="&#x43b;" horiz-adv-x="1132" d="M37 0v182h14q78 0 102.5 30.5t24.5 90.5v692h834v-995h-240v813h-354v-543q0 -142 -61.5 -210t-219.5 -68q-23 0 -48 2t-39 4z" />
<glyph unicode="&#x43c;" horiz-adv-x="1433" d="M117 0v995h407l197 -798h6l199 798h405v-995h-239v831h-7l-213 -831h-297l-213 831h-6v-831h-239z" />
<glyph unicode="&#x43d;" horiz-adv-x="1132" d="M117 0v995h239v-379h422v379h240v-995h-240v434h-422v-434h-239z" />
<glyph unicode="&#x43e;" horiz-adv-x="1101" d="M84 496q0 105 5.5 173t23.5 130.5t49 97.5t84 62t126.5 37t178.5 10q79 0 139.5 -5.5t109 -20t82.5 -33.5t59 -51.5t40 -68t24 -89t12 -109t3 -133.5q0 -104 -5.5 -171.5t-23.5 -129.5t-49.5 -97.5t-84.5 -62.5t-127 -37t-179 -10t-178.5 10t-126.5 37t-84 62.5t-49 97.5 t-23.5 129.5t-5.5 171.5zM322 494q0 -62 2 -101.5t6.5 -78t15 -59.5t26.5 -40t41.5 -27.5t58 -13t79.5 -4.5q55 0 91 5t62.5 21t41 36t22.5 61.5t10 84t2 116.5q0 56 -1 92t-5 73t-10.5 58t-18.5 42t-28 31.5t-40.5 19t-54.5 11t-71 2.5q-55 0 -90.5 -5t-62.5 -21t-41 -36.5 t-22.5 -62t-10.5 -85.5t-2 -119z" />
<glyph unicode="&#x43f;" horiz-adv-x="1132" d="M117 0v995h901v-995h-240v813h-422v-813h-239z" />
<glyph unicode="&#x440;" horiz-adv-x="1128" d="M113 -430v1425h239l-10 -149h8q43 91 119.5 125.5t192.5 34.5q78 0 137.5 -15t99.5 -37.5t67.5 -65t42 -80t22.5 -102t9.5 -112t1.5 -127.5q0 -68 -3 -118.5t-13 -103.5t-26.5 -89.5t-45 -70t-68.5 -53.5t-96 -32t-128 -12q-239 0 -300 145h-10v-563h-239zM352 467 q0 -85 8.5 -136.5t34 -90.5t73 -54.5t124.5 -15.5q86 0 129 22.5t62.5 85.5t19.5 189q0 166 -11 218q-19 94 -93 122q-43 16 -107 16q-51 0 -89 -8t-64 -18.5t-42.5 -37t-25.5 -46t-13.5 -64.5t-5 -74t-0.5 -91v-6v-5v-6z" />
<glyph unicode="&#x441;" horiz-adv-x="1044" d="M88 496q0 81 4 139t15.5 114.5t32 94.5t53.5 71t80 51.5t111 29t148 10.5q96 0 161 -7.5t124.5 -29t93.5 -61t54 -105t20 -158.5h-240q0 111 -42.5 144.5t-170.5 33.5q-45 0 -76 -6t-54 -13t-37 -30t-22.5 -40.5t-12 -62t-4 -76t-0.5 -99.5q0 -167 10 -214q15 -72 73 -95 q42 -17 123 -17q51 0 84 3t58 13t38 23t21 39t10 54.5t2 76.5h240q0 -99 -15.5 -166t-46.5 -112t-87.5 -69.5t-127 -34t-176.5 -9.5q-94 0 -160.5 9.5t-117.5 33.5t-82 60t-50.5 95.5t-26.5 132t-7 177.5z" />
<glyph unicode="&#x442;" horiz-adv-x="976" d="M37 813v182h907v-182h-334v-813h-239v813h-334z" />
<glyph unicode="&#x443;" horiz-adv-x="919" d="M-10 995h248l223 -751q19 -64 39 -64l186 815h242l-258 -1034q-21 -87 -34 -130.5t-42.5 -106t-65 -92t-96 -52t-141.5 -22.5q-19 0 -55 3.5t-48 4.5v180q2 0 22.5 -3t29.5 -3q39 0 70 8.5t52.5 28.5t35.5 39t26 55t18 60t15 69q-55 0 -114 52t-83 124z" />
<glyph unicode="&#x444;" horiz-adv-x="1597" d="M84 467q0 60 1 99t4 91.5t9.5 85.5t18 73.5t28 65.5t41.5 51.5t57 40.5t74.5 23t94.5 9q107 0 171.5 -25.5t92.5 -101.5h4v542h240v-542h4q28 76 92.5 101.5t171.5 25.5q52 0 94.5 -9t74.5 -23t57 -40.5t41.5 -51.5t28 -65.5t18 -73.5t9.5 -85.5t4 -91.5t1 -99 q0 -97 -6 -162.5t-25.5 -130.5t-54.5 -102.5t-95.5 -60.5t-146.5 -23q-221 0 -262 112h-6v-530h-240v530h-6q-41 -112 -262 -112q-86 0 -146.5 23t-95.5 60.5t-54.5 102.5t-25.5 130.5t-6 162.5zM322 467q0 -127 15 -189.5t48.5 -85t101.5 -22.5q106 0 149.5 53t43.5 148 v268q0 95 -37.5 139.5t-144.5 44.5q-52 0 -86 -17t-52 -39t-26.5 -76t-10 -92.5t-1.5 -124.5v-7zM920 371q0 -95 43.5 -148t148.5 -53q68 0 101.5 22.5t49 85.5t15.5 189v7q0 86 -1.5 124.5t-10 92.5t-26.5 76t-52 39t-86 17q-107 0 -144.5 -44.5t-37.5 -139.5v-268z" />
<glyph unicode="&#x445;" horiz-adv-x="946" d="M-10 0l327 522l-288 473h272l172 -319l172 319h277l-289 -473l321 -522h-280l-201 365l-199 -365h-284z" />
<glyph unicode="&#x446;" horiz-adv-x="1132" d="M117 0v995h239v-813h422v813h240v-813h106v-518h-239v336h-768z" />
<glyph unicode="&#x447;" horiz-adv-x="1064" d="M96 670v325h240v-233q0 -48 2.5 -75.5t11.5 -54t27 -39.5t48.5 -20.5t76.5 -7.5h209v430h239v-995h-239v383h-281q-160 0 -247 66t-87 221z" />
<glyph unicode="&#x448;" horiz-adv-x="1720" d="M117 0v995h239v-813h387v813h240v-813h387v813h240v-995h-1493z" />
<glyph unicode="&#x449;" horiz-adv-x="1720" d="M117 0v995h239v-813h387v813h240v-813h387v813h240v-813h106v-518h-239v336h-1360z" />
<glyph unicode="&#x44a;" horiz-adv-x="1228" d="M37 813v182h483v-372h295q61 0 109 -6.5t96 -26.5t80 -53t51.5 -88.5t19.5 -131.5q0 -97 -26 -162t-75.5 -97.5t-105 -45t-130.5 -12.5h-553v813h-244zM520 182h246q41 0 65.5 3.5t51 15.5t39 41t12.5 75q0 34 -12.5 57.5t-29.5 36t-46.5 19.5t-53 8.5t-59.5 1.5h-213 v-258z" />
<glyph unicode="&#x44b;" horiz-adv-x="1501" d="M117 0v995h239v-372h295q61 0 109 -6.5t96.5 -26.5t80 -53t51.5 -88.5t20 -131.5q0 -78 -18 -135.5t-48 -92t-75 -55t-91.5 -27.5t-105.5 -7h-553zM356 182h246q41 0 65.5 3.5t51 15.5t39 41t12.5 75q0 34 -12.5 57.5t-29.5 36t-46.5 19.5t-53 8.5t-59.5 1.5h-213v-258z M1147 0v995h239v-995h-239z" />
<glyph unicode="&#x44c;" horiz-adv-x="1064" d="M117 0v995h239v-372h295q61 0 109 -6.5t96.5 -26.5t80 -53t51.5 -88.5t20 -131.5q0 -78 -18 -135.5t-48 -92t-75 -55t-91.5 -27.5t-105.5 -7h-553zM356 182h246q41 0 65.5 3.5t51 15.5t39 41t12.5 75q0 34 -12.5 57.5t-29.5 36t-46.5 19.5t-53 8.5t-59.5 1.5h-213v-258z " />
<glyph unicode="&#x44d;" horiz-adv-x="1044" d="M72 379h239q0 -48 2 -76.5t10 -54.5t21 -39t38 -23t58 -13t84 -3q49 0 83 5t57.5 20t36.5 32t20 52t8.5 68t1.5 91h-332v152h332q-2 73 -9.5 113.5t-30 70t-61.5 39.5t-106 10q-128 0 -170.5 -33.5t-42.5 -144.5h-239q0 67 10 119t27.5 90t47.5 65t64.5 44t84 26.5 t100 13t118.5 3.5q84 0 148 -10.5t111 -29t80 -51.5t54 -71t32.5 -94.5t15.5 -114.5t4 -139q0 -105 -7 -177.5t-27 -132t-51 -95.5t-82 -60t-117.5 -33.5t-160.5 -9.5q-88 0 -150.5 6t-115.5 23t-86.5 44.5t-57 71.5t-33 104t-9.5 142z" />
<glyph unicode="&#x44e;" horiz-adv-x="1511" d="M117 0v995h239v-379h140q6 115 27 185.5t73.5 118.5t139 67t225.5 19q79 0 139.5 -5.5t109 -20t82.5 -33.5t59 -51.5t40 -68t24 -89t12 -109t3 -133.5q0 -104 -5.5 -171.5t-23.5 -129.5t-49.5 -97.5t-84.5 -62.5t-127 -37t-179 -10q-99 0 -170 9t-123.5 32.5t-84.5 55.5 t-52 85t-27.5 114t-9.5 150h-138v-434h-239zM731 494q0 -73 2 -116.5t10.5 -84t23 -61t41.5 -36.5t63 -21t90 -5q55 0 91 5t62.5 21t41 36t22.5 61.5t10 84t2 116.5q0 56 -1 92t-5 73t-10.5 58t-18.5 42t-28 31.5t-40.5 19t-54.5 11t-71 2.5q-55 0 -90.5 -5t-62.5 -21 t-41.5 -36.5t-23 -62t-10.5 -86t-2 -118.5z" />
<glyph unicode="&#x44f;" horiz-adv-x="1112" d="M37 0v182h10q48 0 62 15t14 57q0 101 36.5 157.5t123.5 63.5v6q-156 23 -156 238q0 75 25 130t70.5 86t102.5 45.5t128 14.5h544v-995h-239v385h-197q-48 0 -82.5 -5t-56 -18t-34 -26t-18 -40t-7 -48t-1.5 -60q0 -42 -6.5 -72t-25 -58.5t-57.5 -43t-97 -14.5h-139z M365 678q0 -28 7 -49t24 -33t31 -19.5t43.5 -10t44.5 -3t50 -0.5h193v250h-226q-33 0 -53 -1.5t-44 -9t-37.5 -21.5t-23 -40t-9.5 -63z" />
<glyph unicode="&#x451;" horiz-adv-x="1079" d="M80 494q0 82 4.5 141t16.5 115.5t33.5 94.5t55.5 71t83 51.5t114.5 28.5t151.5 10q78 0 137 -5.5t107 -20t81.5 -34.5t58.5 -54t39.5 -72.5t23.5 -97t12 -120.5t3 -149h-684q0 -42 0.5 -66.5t2.5 -55t6.5 -47t12 -36.5t19.5 -30.5t28 -21.5t38.5 -15.5t50.5 -7.5t64 -3 h43t38 1.5t36.5 3.5t30 7t27.5 12t20 18t17 25.5t9 34t4 43.5h237q0 -58 -7.5 -103.5t-25.5 -79t-38 -57.5t-54.5 -40t-65.5 -25.5t-80 -14t-89.5 -6t-101.5 -1.5q-97 0 -166.5 10.5t-121.5 36t-84.5 62.5t-52 96t-27 130t-7.5 171zM262 1149v168h189v-168h-189zM317 604 h447q0 54 -2.5 87.5t-13 60t-23 39t-42 21t-59.5 10t-85 1.5q-53 0 -88.5 -3.5t-61 -14.5t-39 -24.5t-21.5 -42t-10 -57t-2 -77.5zM649 1149v168h189v-168h-189z" />
<glyph unicode="&#x452;" horiz-adv-x="1132" d="M14 1001v183h103v237h239v-237h443v-183h-443v-319h9q18 52 49 85.5t75 49t85.5 20.5t101.5 5q192 0 267 -81.5t75 -268.5v-469q0 -78 -11.5 -133.5t-40 -101t-82.5 -68.5t-134 -23q-36 0 -88 10v172q73 0 94.5 29.5t21.5 91.5v467q0 111 -36.5 151.5t-147.5 40.5 q-77 0 -125 -17t-72.5 -55.5t-32.5 -84t-8 -119.5v-383h-239v1001h-103z" />
<glyph unicode="&#x453;" horiz-adv-x="860" d="M117 0v995h725v-182h-486v-813h-239zM297 1188l334 219l86 -156l-369 -161z" />
<glyph unicode="&#x454;" horiz-adv-x="1044" d="M88 496q0 81 4 139t15.5 114.5t32 94.5t53.5 71t80 51.5t111 29t148 10.5q96 0 161 -7.5t124.5 -29t93.5 -61t54 -105t20 -158.5h-240q0 111 -42.5 144.5t-170.5 33.5q-67 0 -106 -10t-61.5 -39.5t-29.5 -70t-9 -113.5h331v-152h-331q0 -58 1.5 -91t8.5 -68t20 -52 t36 -32t57 -20t83 -5q51 0 84 3t58 13t38 23t21 39t10 54.5t2 76.5h240q0 -99 -15.5 -166t-46.5 -112t-87.5 -69.5t-127 -34t-176.5 -9.5q-94 0 -160.5 9.5t-117.5 33.5t-82 60t-50.5 95.5t-26.5 132t-7 177.5z" />
<glyph unicode="&#x455;" horiz-adv-x="1054" d="M80 313h237q1 -38 4.5 -62.5t14 -43.5t24 -29t40 -16.5t55.5 -8t77 -1.5q118 0 153 11q62 18 71 90q2 14 2 32q0 31 -2.5 47t-15 35t-38.5 28t-72.5 15.5t-117.5 7.5q-96 1 -160 6.5t-115 19.5t-79.5 34.5t-47 57t-24.5 80.5t-6 111q0 79 24.5 133t58.5 82.5t101.5 43.5 t120 17.5t147.5 2.5q47 0 75 -1t73.5 -4t74 -11t64.5 -21t58.5 -34t43.5 -50t30.5 -70t9.5 -92h-240q0 36 -8.5 59t-20 35.5t-40.5 18.5t-50.5 7t-69.5 1q-35 0 -52.5 -0.5t-45 -2.5t-41 -7t-31 -14.5t-25.5 -23.5t-14 -34.5t-6 -48.5q0 -26 2 -42t13.5 -29t23.5 -19t44 -11 t62.5 -7t90.5 -5q17 -1 49 -2q61 -2 91 -4t80 -9t75.5 -19t59.5 -34.5t49.5 -54.5t27.5 -80.5t12 -111.5q0 -57 -13 -101.5t-34.5 -75.5t-56.5 -53t-71.5 -35t-87.5 -20.5t-96.5 -9.5t-105.5 -2h-2q-75 0 -111 1t-94.5 6.5t-86 18t-64.5 35.5t-53.5 57.5t-28.5 86t-12 120.5 z" />
<glyph unicode="&#x456;" horiz-adv-x="446" d="M104 0v995h238v-995h-238zM104 1219v202h238v-202h-238z" />
<glyph unicode="&#x457;" horiz-adv-x="446" d="M-80 1149v168h189v-168h-189zM104 0v995h238v-995h-238zM307 1149v168h189v-168h-189z" />
<glyph unicode="&#x458;" horiz-adv-x="425" d="M-23 -166q73 0 95 29.5t22 91.5v1040h240v-1018q0 -78 -11.5 -133.5t-40 -100.5t-82.5 -68t-134 -23q-37 0 -89 10v172zM94 1219v202h240v-202h-240z" />
<glyph unicode="&#x459;" horiz-adv-x="1638" d="M37 0v182h14q78 0 102.5 30.5t24.5 90.5v692h799v-379h254q62 0 109 -6t96 -24.5t80 -50.5t51 -87.5t20 -130.5q0 -78 -18 -135.5t-48 -92t-75 -55t-91.5 -27.5t-105.5 -7h-512v813h-319v-543q0 -142 -61.5 -210t-219.5 -68q-23 0 -48 2t-39 4zM977 182h205 q41 0 65.5 3.5t51 15.5t39 41t12.5 75q0 34 -12.5 57t-28.5 34.5t-48 17.5t-52.5 7t-59.5 1h-172v-252z" />
<glyph unicode="&#x45a;" horiz-adv-x="1638" d="M117 0v995h239v-379h381v379h240v-379h254q62 0 109 -6t96 -24.5t80 -50.5t51 -87.5t20 -130.5q0 -78 -18 -135.5t-48 -92t-75 -55t-91.5 -27.5t-105.5 -7h-512v434h-381v-434h-239zM977 182h205q41 0 65.5 3.5t51 15.5t39 41t12.5 75q0 34 -12.5 57t-28.5 34.5t-48 17.5 t-52.5 7t-59.5 1h-172v-252z" />
<glyph unicode="&#x45b;" horiz-adv-x="1132" d="M14 1001v183h103v237h239v-237h443v-183h-443v-319h9q18 52 49 85.5t75 49t85.5 20.5t101.5 5q192 0 267 -81.5t75 -268.5v-492h-240v467q0 111 -36.5 151.5t-147.5 40.5q-77 0 -125 -17t-72.5 -55.5t-32.5 -84t-8 -119.5v-383h-239v1001h-103z" />
<glyph unicode="&#x45c;" horiz-adv-x="1132" d="M117 0v995h239v-379h201q44 0 73.5 6t59.5 24.5t45 58.5t15 102q0 42 6.5 72t25 58.5t57.5 43t97 14.5h131v-182h-10q-48 0 -62 -15t-14 -57q0 -105 -37 -154.5t-121 -56.5v-6q93 -8 137 -68t44 -192v-10q0 -43 13.5 -57.5t61.5 -14.5h11v-182h-140q-58 0 -97 14.5 t-57.5 43t-25 58.5t-6.5 72q0 74 -7 115.5t-29.5 74t-66 44.5t-116.5 12h-189v-434h-239zM399 1188l334 219l86 -156l-368 -161z" />
<glyph unicode="&#x45e;" horiz-adv-x="919" d="M-10 995h248l223 -751q19 -64 39 -64l186 815h242l-258 -1034q-21 -87 -34 -130.5t-42.5 -106t-65 -92t-96 -52t-141.5 -22.5q-19 0 -55 3.5t-48 4.5v180q2 0 22.5 -3t29.5 -3q39 0 70 8.5t52.5 28.5t35.5 39t26 55t18 60t15 69q-55 0 -114 52t-83 124zM178 1290h168 q8 -35 34.5 -45t78.5 -10q53 0 76 9t34 46h176q-27 -112 -89.5 -149t-198.5 -37q-56 0 -93.5 4t-71.5 15t-55 31.5t-36.5 54t-22.5 81.5z" />
<glyph unicode="&#x45f;" horiz-adv-x="1132" d="M117 0v995h239v-813h422v813h240v-995h-328v-336h-239v336h-334z" />
<glyph unicode="&#x490;" horiz-adv-x="1101" d="M111 0v1421h665l-2 375h275v-608h-666v-1188h-272z" />
<glyph unicode="&#x491;" horiz-adv-x="860" d="M117 0v995h485v336h240v-518h-486v-813h-239z" />
<glyph unicode="&#x2013;" horiz-adv-x="946" d="M0 432v182h946v-182h-946z" />
<glyph unicode="&#x2014;" horiz-adv-x="1894" d="M0 432v182h1894v-182h-1894z" />
<glyph unicode="&#x2018;" horiz-adv-x="440" d="M90 938v223q0 59 2.5 92.5t13.5 72.5t33 59t62 33.5t100 13.5h47v-111q-58 0 -85 -26t-27 -101h94v-256h-240z" />
<glyph unicode="&#x2019;" horiz-adv-x="440" d="M90 926v112q59 0 87 26t28 101h-94v256h237v-223q0 -42 -1 -67.5t-5.5 -57.5t-12.5 -51t-23.5 -40t-37.5 -31.5t-54.5 -17.5t-74.5 -7h-49z" />
<glyph unicode="&#x201a;" horiz-adv-x="440" d="M88 -127q58 0 85.5 26t27.5 101h-95v256h238v-223q0 -43 -1 -67.5t-5 -57.5t-12 -52t-23.5 -40t-37.5 -31.5t-54.5 -17.5t-75.5 -7h-47v113z" />
<glyph unicode="&#x201c;" horiz-adv-x="802" d="M90 938v223q0 59 2.5 92.5t13.5 72.5t33 59t62 33.5t100 13.5h47v-111q-58 0 -85 -26t-27 -101h94v-256h-240zM457 938v223q0 59 2.5 92.5t13.5 72.5t33 59t62 33.5t100 13.5h47v-111q-59 0 -87 -26t-28 -101h94v-256h-237z" />
<glyph unicode="&#x201d;" horiz-adv-x="802" d="M90 926v112q59 0 87 26t28 101h-94v256h237v-223q0 -42 -1 -67.5t-5.5 -57.5t-12.5 -51t-23.5 -40t-37.5 -31.5t-54.5 -17.5t-74.5 -7h-49zM457 926v112q58 0 85 26t27 101h-94v256h240v-223q0 -42 -1 -67.5t-5.5 -57.5t-12.5 -51t-23.5 -40t-38 -31.5t-55 -17.5 t-75.5 -7h-47z" />
<glyph unicode="&#x201e;" horiz-adv-x="802" d="M88 -127q58 0 85.5 26t27.5 101h-95v256h238v-223q0 -43 -1 -67.5t-5 -57.5t-12 -52t-23.5 -40t-37.5 -31.5t-54.5 -17.5t-75.5 -7h-47v113zM449 -127q58 0 86 26.5t28 100.5h-96v256h240v-223q0 -42 -1 -67.5t-5.5 -58t-12.5 -51.5t-23.5 -39.5t-38 -31.5t-55 -18 t-75.5 -7h-47v113z" />
<glyph unicode="&#x2022;" horiz-adv-x="985" d="M139 711q-2 148 101 252t252 104t252.5 -104t103.5 -252q0 -147 -103.5 -251t-252.5 -104q-146 0 -249 103t-104 252z" />
<glyph unicode="&#x2026;" horiz-adv-x="1894" d="M197 0v260h239v-260h-239zM827 0v260h240v-260h-240zM1458 0v260h240v-260h-240z" />
<glyph unicode="&#x2039;" horiz-adv-x="614" d="M96 520l248 502l164 -92l-203 -410l213 -399l-151 -96z" />
<glyph unicode="&#x203a;" horiz-adv-x="614" d="M96 121l215 399l-202 410l159 92l250 -502l-270 -495z" />
<glyph unicode="&#x20ac;" d="M43 469l76 186h90q-2 16 -2 64q0 41 2 55h-166l76 187h110q19 81 51 149.5t84 129t119.5 103t160.5 67t204 24.5q124 0 229 -27.5t158 -60.5v-250q-52 47 -145 79.5t-218 32.5q-165 0 -261.5 -65t-125.5 -182h670l-76 -187h-626q-4 -24 -4 -53q0 -38 4 -66h577l-76 -186 h-469q28 -121 127.5 -189.5t261.5 -68.5q225 0 361 113v-250q-44 -31 -146.5 -57.5t-240.5 -26.5q-251 0 -411 119t-208 360h-186z" />
<glyph unicode="&#x2116;" horiz-adv-x="2287" d="M125 0v1421h450l609 -1188h8l-23 1188h273v-1421h-453l-604 1188h-10l22 -1188h-272zM1559 598q0 65 4 109t16 83.5t33.5 63t56.5 41t84.5 24.5t118.5 7q101 0 159 -13t95.5 -51t50 -99t12.5 -165q0 -66 -3.5 -108.5t-14.5 -85t-32 -66.5t-56.5 -44t-87 -28t-123.5 -8 q-67 0 -112.5 5t-82.5 19.5t-58 37.5t-35.5 62.5t-19.5 90.5t-5 125zM1563 0v160h641v-160h-641zM1751 541q0 -19 2 -43.5t4.5 -34t9.5 -22.5t14.5 -16.5t21.5 -8.5t29.5 -5.5t39.5 -0.5q19 0 34.5 1.5t27.5 6.5t21 8.5t16 14t11.5 16t7 22t4.5 23.5t2.5 29t0.5 31v36 q0 43 -1 65.5t-5.5 46t-11.5 33.5t-22 18.5t-34.5 10.5t-50.5 2q-26 0 -44.5 -3t-31.5 -7.5t-21.5 -16.5t-13.5 -22t-7 -33t-2.5 -40.5t-0.5 -53.5v-57z" />
<glyph unicode="&#x2122;" horiz-adv-x="1894" d="M135 1274v147h649v-147h-233v-619h-184v619h-232zM877 655v766h270l172 -452l172 452h268v-766h-166v619h-4l-221 -619h-98l-221 619h-5v-619h-167z" />
<glyph unicode="&#xe000;" horiz-adv-x="993" d="M0 0v993h993v-993h-993z" />
</font>
</defs>
</svg>
