<?xml version="1.0" standalone="no"?>
<!DOCTYPE svg PUBLIC "-//W3C//DTD SVG 1.1//EN" "http://www.w3.org/Graphics/SVG/1.1/DTD/svg11.dtd" >
<svg xmlns="http://www.w3.org/2000/svg">
<metadata></metadata>
<defs>
<font id="favoritcbold_italic" horiz-adv-x="1404" >
<font-face units-per-em="2048" ascent="1524" descent="-524" />
<missing-glyph horiz-adv-x="702" />
<glyph horiz-adv-x="2048" />
<glyph horiz-adv-x="2048" />
<glyph unicode="&#xd;" horiz-adv-x="2048" />
<glyph unicode=" "  horiz-adv-x="702" />
<glyph unicode="&#x09;" horiz-adv-x="702" />
<glyph unicode="&#xa0;" horiz-adv-x="702" />
<glyph unicode="!" horiz-adv-x="786" d="M184 199q17 100 98 169.5t181 69.5t159 -70t42 -169q-15 -99 -96.5 -169.5t-180.5 -70.5t-158.5 70.5t-44.5 169.5zM285 524l159 1020h387l-159 -1020h-387z" />
<glyph unicode="&#x22;" horiz-adv-x="1024" d="M289 866l51 678h348l-162 -678h-237zM772 866l51 678h348l-161 -678h-238z" />
<glyph unicode="#" d="M195 354l36 232h232l90 254h-197l37 231h240l145 416h217l-145 -416h207l145 416h215l-145 -416h164l-37 -231h-201l-90 -254h192l-36 -232h-242l-123 -354h-217l123 354h-207l-123 -354h-217l123 354h-186zM680 586h209l94 254h-213z" />
<glyph unicode="$" d="M168 178l217 309q66 -72 158 -122t184 -50q45 0 90.5 16t82 51.5t44.5 82.5q4 28 -6 50.5t-27 37.5t-49.5 30t-60.5 24.5t-73 24.5t-75 27q-31 12 -56 24t-53 28.5t-48.5 34.5t-42 42.5t-33.5 51t-22.5 61.5t-9 73.5t6.5 86.5q30 187 170 328t324 153l39 248h190 l-39 -248q222 -21 355 -119l-199 -297q-108 101 -246 101q-74 0 -129 -28.5t-63 -86.5q-3 -23 2.5 -42.5t23 -36t30.5 -27t42.5 -23.5t39 -16.5t38.5 -14.5q101 -36 160.5 -65t122.5 -79.5t84.5 -126t5.5 -177.5q-32 -207 -162.5 -327.5t-347.5 -172.5l-39 -256h-191l37 244 q-129 0 -256 51q-155 64 -219 135z" />
<glyph unicode="%" horiz-adv-x="1996" d="M227 1190q19 119 91 205.5t173 128t218 41.5t204.5 -41.5t132 -128t25.5 -205.5q-19 -121 -89.5 -209t-171 -130t-220.5 -42q-185 0 -288 100t-75 281zM449 0l1140 1544h201l-1141 -1544h-200zM475 1186q-12 -72 31 -122t115 -50t131 50t71 122q11 72 -32 123t-115 51 t-131.5 -51t-69.5 -123zM1171 360q19 119 91 205.5t173 128t218 41.5t204.5 -41.5t132 -128t25.5 -205.5q-19 -121 -90 -208.5t-172 -129.5t-221 -42q-185 0 -287 99.5t-74 280.5zM1419 356q-12 -72 31 -122t115 -50t131 50t71 122q11 72 -32 123t-115 51t-131.5 -51 t-69.5 -123z" />
<glyph unicode="&#x26;" horiz-adv-x="1736" d="M141 401q26 162 127 261.5t273 168.5l41 17l-27 45q-46 81 -58 119q-22 70 -10 149q30 191 190.5 307.5t356.5 116.5q93 0 175 -29t141.5 -81.5t87.5 -133t12 -176.5q-11 -70 -41.5 -127t-79 -101t-101 -76.5t-124.5 -65.5l164 -205q146 116 237 219l193 -217l-228 -209 l-22 -18l289 -365h-502l-111 143q-301 -184 -557 -184q-209 0 -333.5 119t-92.5 323zM567 461q-10 -65 37.5 -103.5t114.5 -38.5q104 0 225 64l-203 262q-33 -19 -57 -35t-51.5 -39.5t-44.5 -51t-21 -58.5zM872 1186q-5 -33 9 -72t29.5 -62.5t42.5 -60.5q6 -7 8 -10 q66 34 115 82t57 106q9 60 -21 102t-90 42q-55 0 -98 -35.5t-52 -91.5z" />
<glyph unicode="'" horiz-adv-x="512" d="M274 866l52 678h348l-162 -678h-238z" />
<glyph unicode="(" horiz-adv-x="720" d="M163.5 215q1.5 186 29.5 371q42 269 163.5 551.5t296.5 480.5l203 -127q-151 -193 -247.5 -436t-135.5 -494q-25 -153 -26.5 -314.5t27.5 -327t89 -284.5l-244 -127q-81 133 -119 327t-36.5 380z" />
<glyph unicode=")" horiz-adv-x="720" d="M43 -365q143 175 242.5 430t138.5 496q25 164 27 321t-26.5 318t-88.5 291l244 127q57 -100 94.5 -229t51.5 -264.5t10.5 -272.5t-23.5 -266q-44 -288 -164.5 -584.5t-302.5 -493.5z" />
<glyph unicode="*" horiz-adv-x="989" d="M317 1081l201 103l-174 104l119 156l160 -113l22 213h184l-45 -219l201 115l68 -156l-211 -102l176 -107l-117 -153l-162 116l-24 -207h-185l45 205l-190 -110z" />
<glyph unicode="+" d="M238 373l49 307h370l58 371h307l-57 -371h370l-49 -307h-371l-59 -373h-307l59 373h-370z" />
<glyph unicode="," horiz-adv-x="702" d="M0 -289l373 680h350l-483 -680h-240z" />
<glyph unicode="-" horiz-adv-x="802" d="M188 504l50 307h585l-49 -307h-586z" />
<glyph unicode="." horiz-adv-x="702" d="M143 199q17 100 98 169.5t181 69.5t159 -70t42 -169q-15 -99 -96.5 -169.5t-180.5 -70.5t-158.5 70.5t-44.5 169.5z" />
<glyph unicode="/" horiz-adv-x="1185" d="M25 -190l1081 1890h293l-1082 -1890h-292z" />
<glyph unicode="0" d="M154.5 599.5q1.5 85.5 15.5 172.5q19 123 61 240.5t111 226t156.5 189.5t206 129.5t251.5 48.5q96 0 176.5 -25t139.5 -70t103 -107t70.5 -135t39 -156t11.5 -168.5t-15 -172.5q-19 -123 -61.5 -240.5t-111.5 -225.5t-157 -189t-206.5 -129.5t-252.5 -48.5q-96 0 -177 25 t-139.5 70t-102.5 107t-69.5 135t-38 155.5t-11 168zM558 666q-3 -58 4.5 -126t26.5 -121.5t60.5 -89.5t100.5 -36t111.5 36t87.5 89.5t64 122t44 125.5t24 108q8 51 10.5 107.5t-4.5 124.5t-26 121t-60 88.5t-100 35.5t-111.5 -35.5t-88.5 -88.5t-64.5 -120.5t-44 -125 t-23.5 -107.5t-11 -108z" />
<glyph unicode="1" d="M520 1204l53 340h623l-244 -1544h-401l190 1204h-221z" />
<glyph unicode="2" d="M68 0l739 686q88 82 153.5 181t81.5 198q13 78 -27 139.5t-116 61.5q-79 0 -133 -54t-66 -135q-4 -40 -4 -65h-442q53 269 239.5 431.5t456.5 162.5q121 0 223.5 -39t173 -109t101.5 -174t12 -227q-17 -107 -62.5 -195.5t-106.5 -154t-158 -144.5l-277 -223h506l-53 -340 h-1241z" />
<glyph unicode="3" d="M150 502h409q-15 -93 35.5 -156t144.5 -63t163.5 57t84.5 149q13 87 -40.5 147t-139.5 60q-26 0 -72 -12l43 268h41q78 0 134.5 46t68.5 124q10 70 -27.5 113t-105.5 43q-75 0 -128.5 -51t-64.5 -127h-372q63 236 239 373q171 133 414 133q104 0 188.5 -30t142.5 -86 t82.5 -141.5t8.5 -191.5q-16 -100 -70 -186t-141 -131q75 -21 124 -84.5t64 -143t2 -161.5q-15 -99 -61.5 -183t-113 -143.5t-150 -102t-174 -63t-183.5 -20.5q-290 0 -432 174q-63 76 -98 184.5t-16 204.5z" />
<glyph unicode="4" d="M84 319l41 256l747 969h527l-146 -917h187l-47 -308h-187l-51 -319h-373l52 319h-750zM516 627h365l94 594h-4z" />
<glyph unicode="5" horiz-adv-x="1411" d="M129 78l119 379q80 -83 183.5 -130.5t219.5 -47.5q99 0 182.5 64.5t98.5 162.5q11 67 -10.5 119.5t-66 83t-100.5 46t-118 15.5q-161 0 -305 -63l266 837h803l-53 -340h-535l-53 -176l127 10q155 13 271 -59.5t165.5 -203.5t24.5 -290q-19 -121 -89 -229.5t-178 -187.5 q-180 -129 -471 -129q-286 0 -481 139z" />
<glyph unicode="6" d="M125 496q46 292 346 614l399 434h455l-520 -522l4 -4q112 47 221 47q146 0 249 -77t143.5 -200t17.5 -266q-17 -111 -67 -206t-123 -163.5t-164.5 -117t-193.5 -72.5t-208 -24q-121 0 -233 33t-185 100q-83 78 -122 192t-19 232zM518 510q-17 -105 46.5 -180.5 t168.5 -75.5t187.5 74.5t99.5 181.5q15 105 -43.5 178.5t-163.5 73.5t-192.5 -74t-102.5 -178z" />
<glyph unicode="7" d="M86 0l895 1204h-645l53 340h1268l-1131 -1544h-440z" />
<glyph unicode="8" d="M176 406q24 149 123.5 253.5t249.5 151.5v4q-102 36 -155.5 132.5t-33.5 217.5q17 107 75.5 193t141.5 139t180.5 81t198.5 28q80 0 153.5 -17t135 -53.5t104 -87.5t60.5 -124t4 -159q-20 -122 -103 -218.5t-196 -131.5v-4q134 -47 200 -152t42 -253 q-18 -114 -86.5 -206.5t-165 -147.5t-203 -84t-209.5 -29q-82 0 -161 17.5t-150 55.5t-121.5 91.5t-74 132t-9.5 170.5zM590 457q-12 -78 33.5 -133.5t121.5 -55.5t138.5 55.5t74.5 133.5q13 79 -31.5 135.5t-121.5 56.5q-76 0 -138.5 -56t-76.5 -136zM715 1153 q-11 -72 31 -123t112 -51q71 0 129 51t68 123q12 72 -29.5 123t-112.5 51q-70 0 -128 -51t-70 -123z" />
<glyph unicode="9" d="M209 1022q21 138 93 250.5t175.5 184.5t229 110.5t258.5 38.5q122 0 233.5 -32.5t185.5 -100.5q82 -76 120.5 -190.5t19.5 -235.5q-45 -288 -346 -615l-398 -432h-456l522 520l-2 4q-115 -47 -226 -47q-110 0 -197.5 45t-138 120.5t-70.5 174t-3 205.5zM629 1034 q-17 -106 42.5 -180t164.5 -74q106 0 193 74t104 180t-46 180t-169 74q-105 0 -188.5 -74t-100.5 -180z" />
<glyph unicode=":" horiz-adv-x="702" d="M143 199q17 100 98 169.5t181 69.5t159 -70t42 -169q-15 -99 -96.5 -169.5t-180.5 -70.5t-158.5 70.5t-44.5 169.5zM254 889q15 100 95.5 169.5t180.5 69.5t159 -69.5t44 -169.5q-15 -98 -96.5 -169t-181.5 -71q-99 0 -157.5 70.5t-43.5 169.5z" />
<glyph unicode=";" horiz-adv-x="702" d="M-29 -289l373 680h350l-483 -680h-240zM348 889q15 100 96 169.5t181 69.5t158.5 -69.5t43.5 -169.5q-15 -98 -96.5 -169t-181.5 -71q-99 0 -157.5 70.5t-43.5 169.5z" />
<glyph unicode="&#x3c;" d="M266 403l39 246l1061 373l-49 -307l-590 -187v-4l530 -186l-49 -307z" />
<glyph unicode="=" d="M199 127l49 307h1048l-49 -307h-1048zM276 618l50 308h1048l-49 -308h-1049z" />
<glyph unicode="&#x3e;" d="M207 31l49 307l592 186v4l-533 187l50 307l942 -373l-39 -246z" />
<glyph unicode="?" horiz-adv-x="1218" d="M205 1104q15 91 58 169t105.5 135t140 97t163 60t172.5 20q208 0 338 -127q68 -67 101.5 -161.5t16.5 -192.5q-26 -165 -145.5 -277t-294.5 -165l-22 -146h-375l63 397q45 -10 84 -10q62 0 124.5 21.5t113 69.5t59.5 112q11 63 -26 108.5t-101 45.5q-68 0 -112.5 -43.5 t-55.5 -112.5h-407zM367 199q17 100 97.5 169.5t180.5 69.5t159 -70t42 -169q-15 -99 -96.5 -169.5t-180.5 -70.5t-158 70.5t-44 169.5z" />
<glyph unicode="@" horiz-adv-x="1515" d="M133 772q36 227 170 414t330 293t411 106q284 0 453 -178q198 -204 154 -479q-42 -263 -197 -436q-85 -94 -175.5 -139t-168.5 -42q-43 1 -73.5 35t-35.5 84q-119 -119 -280 -119q-137 0 -222 112.5t-61 268.5q21 127 89 239t176.5 183.5t230.5 71.5q163 0 231 -127 l37 108h195l-187 -532q-27 -78 -29 -99q-2 -38 31 -36h2q59 6 143.5 117.5t112.5 238.5q27 130 3 230t-89 168t-161.5 103.5t-214.5 35.5q-169 0 -315.5 -80.5t-242.5 -222t-124 -318.5q-22 -139 7 -256t99.5 -196.5t176.5 -123.5t237 -44q119 0 219 23.5t160 57.5l147 -135 q-293 -139 -573 -139q-163 0 -299.5 61.5t-226.5 168.5t-128.5 259t-11.5 324zM688 725q-13 -79 20 -133.5t105 -54.5q45 0 84.5 20.5t67 54.5t46.5 71.5t31 78.5q25 88 -8 143.5t-108 55.5q-84 0 -154 -73.5t-84 -162.5z" />
<glyph unicode="A" horiz-adv-x="1599" d="M-8 0l837 1544h439l338 -1544h-428l-58 268h-553l-149 -268h-426zM727 575h334l-86 492h-4z" />
<glyph unicode="B" horiz-adv-x="1386" d="M131 0l244 1544h573q402 0 402 -312q0 -42 -7 -89q-38 -232 -219 -316v-4q157 -21 218 -123q42 -71 42 -174q0 -45 -8 -96q-15 -94 -58 -168.5t-102.5 -123t-137.5 -80t-158.5 -45t-169.5 -13.5h-619zM582 307h51h12q35 0 55 0.5t57.5 3.5t61 8.5t54 17.5t49 29t34.5 44 t21 61q3 19 3 36q0 19 -4 36q-8 31 -27.5 48t-47.5 28.5t-60.5 14.5t-66.5 5q-17 1 -34.5 1t-33.5 -1h-32h-41zM682 938h45q46 0 80.5 5t70.5 20t59 46t30 78q3 17 3 32q0 21 -6 38q-10 29 -28.5 44t-51 23.5t-59.5 10.5t-67 2h-29z" />
<glyph unicode="C" horiz-adv-x="1351" d="M176 770q25 158 106.5 304.5t209.5 260.5q132 117 298.5 183.5t329.5 66.5q175 0 355 -78l-78 -481q-46 82 -133.5 126t-192.5 44q-182 0 -316.5 -122.5t-162.5 -305.5q-7 -42 -6 -81q0 -130 74 -221q98 -118 284 -118q98 0 197.5 44t175.5 120l-78 -481 q-93 -27 -134 -38.5t-106.5 -22.5t-124.5 -11q-160 0 -300.5 59t-243.5 168q-166 177 -166 436q0 71 12 148z" />
<glyph unicode="D" horiz-adv-x="1540" d="M131 0l244 1544h569q127 0 240.5 -38t199 -109t143.5 -165q57 -96 79 -214q11 -61 12 -125q0 -59 -10 -121q-34 -213 -169 -391t-331.5 -279.5t-407.5 -101.5h-569zM586 340h90q92 0 175.5 26t153.5 77t119 135.5t66 193.5q8 49 8 93q0 139 -79 225q-104 114 -302 114 h-94z" />
<glyph unicode="E" horiz-adv-x="1126" d="M131 0l244 1544h878l-53 -340h-477l-41 -258h453l-54 -340h-452l-43 -266h477l-53 -340h-879z" />
<glyph unicode="F" horiz-adv-x="1110" d="M131 0l244 1544h887l-54 -340h-485l-41 -258h440l-53 -340h-440l-97 -606h-401z" />
<glyph unicode="G" horiz-adv-x="1724" d="M174 764q40 248 175 437t341 291.5t453 102.5q241 0 402.5 -109t226.5 -323l-406 -159q-26 114 -101.5 179.5t-193.5 65.5q-95 0 -180 -42.5t-145 -112.5t-100 -156t-54 -176q-6 -53 -6 -103v-39q4 -70 30 -132t66 -108.5t102.5 -73.5t139.5 -27q135 0 234 69t130 199 h-327l51 315h796q-24 -133 -47.5 -219.5t-76 -193t-132.5 -197.5q-134 -154 -309 -228.5t-375 -74.5q-240 0 -411 102t-246 287q-50 124 -50 271q0 74 13 155z" />
<glyph unicode="H" horiz-adv-x="1644" d="M131 0l244 1544h401l-94 -596h580l94 596h401l-244 -1544h-401l100 633h-579l-101 -633h-401z" />
<glyph unicode="I" horiz-adv-x="663" d="M131 0l244 1544h401l-244 -1544h-401z" />
<glyph unicode="J" horiz-adv-x="1001" d="M-2 186l270 244q79 -131 142 -131q33 0 58.5 15.5t39.5 35t25.5 54t16 55.5t9.5 57q1 7 2 10l160 1018h401l-164 -1042q-39 -251 -193.5 -397t-404.5 -146q-249 0 -362 227z" />
<glyph unicode="K" horiz-adv-x="1552" d="M131 0l244 1544h401l-100 -637h4l586 637h497l-729 -731l541 -813h-520l-412 670h-4l-107 -670h-401z" />
<glyph unicode="L" horiz-adv-x="1013" d="M131 0l244 1544h401l-190 -1204h481l-53 -340h-883z" />
<glyph unicode="M" horiz-adv-x="2013" d="M39 0l506 1544h395l184 -825l461 825h400l-11 -1544h-401l29 889h-5l-512 -889h-159l-213 889h-4l-271 -889h-399z" />
<glyph unicode="N" horiz-adv-x="1804" d="M131 0l244 1544h401l586 -944h4l150 944h401l-244 -1544h-401l-586 946h-4l-150 -946h-401z" />
<glyph unicode="O" horiz-adv-x="1816" d="M180 801q27 170 122 320t229 253t298 162t330 59t311.5 -59t247.5 -162t150 -253q30 -96 29 -199q0 -59 -9 -121q-39 -247 -179.5 -441.5t-352.5 -302.5t-457 -108t-423 108q-178 109 -256 303q-52 130 -53 283q0 76 13 158zM598 799q-7 -46 -7 -88q-1 -140 81 -241 q106 -132 289 -132q119 0 228 59t184.5 165.5t96.5 236.5q4 28 4 56q0 75 -32 143q-44 94 -135.5 151t-208.5 57t-227.5 -57t-183.5 -151t-89 -199z" />
<glyph unicode="P" horiz-adv-x="1353" d="M131 0l244 1544h614q127 0 223.5 -30t162.5 -90q66 -62 91 -160q14 -54 14 -116q0 -53 -10 -112q-82 -524 -628 -524h-228l-82 -512h-401zM666 836h67q41 0 62.5 0.5t58 4t57 10.5t48 20.5t43 33t29.5 50t20 69.5q5 31 5 57q0 31 -8 55q-14 42 -59 59.5t-83 21.5t-113 4 h-68z" />
<glyph unicode="Q" horiz-adv-x="1816" d="M180 801q27 170 122 320t229 253t298 162t330 59q179 0 326.5 -59t245 -165.5t139.5 -262.5q24 -91 24 -193q0 -71 -12 -147q-48 -300 -285 -543l220 -264l-377 -57l-101 145q-182 -100 -440 -100q-245 0 -423 108t-256 303q-53 129 -53 283q0 76 13 158zM598 799 q-7 -45 -7 -87q0 -140 83 -242q107 -132 289 -132q66 0 127 20l-209 246l385 47l92 -112q86 100 106 227q5 35 5 68q0 77 -28 148q-41 101 -132 162.5t-209 61.5q-178 0 -327.5 -123t-174.5 -284z" />
<glyph unicode="R" horiz-adv-x="1392" d="M131 0l244 1544h600q117 0 209 -28.5t156.5 -85t90.5 -148.5q15 -53 15 -116q0 -46 -8 -97q-26 -165 -135 -286.5t-273 -149.5l385 -633h-500l-284 594h-4l-95 -594h-401zM668 852h39q44 0 80 3.5t77 15.5t70 32.5t51.5 56.5t30.5 84q3 20 3 37q-1 25 -7 47 q-12 36 -34 56.5t-59 32.5t-72 16t-79 4h-39z" />
<glyph unicode="S" horiz-adv-x="1261" d="M82 135l223 324q160 -160 332 -160q79 0 143.5 40t75.5 116q5 30 -6 56t-33 43.5t-50 31.5t-56.5 23.5t-54.5 17.5q-10 3 -15 4q-46 14 -77.5 24.5t-69 25t-62 29t-51 34.5t-42.5 42t-30 51t-19 62.5t-5 76t8 91.5q38 233 209 375.5t405 142.5q118 0 244 -34.5t219 -92.5 l-209 -311q-110 102 -250 102q-39 0 -79.5 -13.5t-73.5 -44.5t-39 -71q-5 -32 7.5 -57.5t40 -43t50.5 -27t55 -19.5l99 -31q82 -25 142 -58t106 -82t63 -120q9 -38 9 -81q0 -38 -7 -81q-46 -282 -225 -416q-195 -145 -461 -145q-292 0 -516 176z" />
<glyph unicode="T" horiz-adv-x="1091" d="M203 1204l53 340h1065l-53 -340h-332l-191 -1204h-401l191 1204h-332z" />
<glyph unicode="U" horiz-adv-x="1593" d="M207 388q-1 27 -1 52q0 46 4 85q6 60 19 151l138 868h401l-127 -813q-8 -52 -12 -87q-3 -36 -5 -84q0 -10 -1 -19q1 -35 5 -61q6 -32 20 -66.5t39 -55t65 -34t94 -13.5t98.5 13.5t76.5 34t57.5 55t42 67.5t30 79.5t20.5 83.5t15 87l127 813h401l-137 -868 q-14 -91 -27.5 -151t-40.5 -136.5t-71.5 -140t-108.5 -117.5q-106 -89 -248 -130.5t-290 -41.5q-149 0 -279 41.5t-207 130.5q-46 54 -70.5 117.5t-27.5 139.5z" />
<glyph unicode="V" horiz-adv-x="1558" d="M213 1544h436l225 -938l523 938h436l-903 -1544h-312z" />
<glyph unicode="W" horiz-adv-x="2287" d="M213 1544h418l110 -997h4l482 997h319l146 -997h4l448 997h418l-737 -1544h-410l-129 895h-4l-444 -895h-408z" />
<glyph unicode="X" horiz-adv-x="1615" d="M-16 0l735 825l-381 719h493l175 -399l297 399h493l-606 -719l440 -825h-483l-244 504l-434 -504h-485z" />
<glyph unicode="Y" horiz-adv-x="1462" d="M205 1544h481l223 -420l355 420h481l-696 -803l-117 -741h-402l117 741z" />
<glyph unicode="Z" horiz-adv-x="1447" d="M23 0l921 1204h-606l53 340h1278l-917 -1204h647l-53 -340h-1323z" />
<glyph unicode="[" horiz-adv-x="716" d="M29 -492l333 2110h504l-35 -217h-219l-264 -1675h219l-35 -218h-503z" />
<glyph unicode="\" horiz-adv-x="1185" d="M324 1700h294l512 -1700h-290zM840 0h290h-290z" />
<glyph unicode="]" horiz-adv-x="716" d="M29 -492l34 218h220l264 1675h-219l34 217h504l-334 -2110h-503z" />
<glyph unicode="^" d="M342 834l492 772h245l246 -772l-254 -138l-172 551l-344 -551z" />
<glyph unicode="_" horiz-adv-x="1024" d="M-61 -385l24 154h1024l-24 -154h-1024z" />
<glyph unicode="`" horiz-adv-x="823" d="M393 1516l254 163l234 -352l-187 -121z" />
<glyph unicode="a" horiz-adv-x="1396" d="M131 526q17 112 72 214t135.5 178.5t186.5 121.5t220 45q95 0 176.5 -35t127.5 -102l16 103h373l-166 -1051h-373l19 117h-5q-59 -75 -151.5 -113.5t-190.5 -38.5q-151 0 -261.5 77.5t-156.5 205.5q-30 84 -30 178q0 49 8 100zM516 524q-4 -26 -4 -49q0 -69 40 -119 q54 -66 165 -66.5t185.5 65.5t92.5 169q4 23 4 44q0 72 -42 126q-54 68 -164 68t-185.5 -68.5t-91.5 -169.5z" />
<glyph unicode="b" horiz-adv-x="1396" d="M111 0l268 1700h373l-119 -752q68 67 161 102t187 35q151 0 261 -77q108 -76 154 -204q30 -85 31 -180q0 -48 -8 -98q-18 -113 -74 -215.5t-136.5 -179t-187.5 -121.5t-222 -45q-97 0 -176.5 38.5t-116.5 113.5h-4l-19 -117h-372zM555 524q-5 -26 -5 -49q0 -69 41 -119 q54 -66 165 -66.5t185.5 65.5t92.5 169q4 23 4 44q0 72 -42 126q-54 68 -164.5 68t-185.5 -68.5t-91 -169.5z" />
<glyph unicode="c" horiz-adv-x="989" d="M129 514q26 166 124.5 297t244 202.5t309.5 71.5q134 0 235 -61l-49 -315q-87 73 -182 73q-107 0 -192.5 -73.5t-102.5 -182.5q-4 -27 -5 -51q0 -80 48 -135q62 -72 178 -72q50 0 103 19.5t94 52.5l-49 -315q-129 -60 -273 -60q-154 0 -274 71q-118 70 -176 196 q-40 88 -41 191q0 44 8 91z" />
<glyph unicode="d" horiz-adv-x="1396" d="M145 526q23 150 109.5 277.5t220.5 204.5t285 77q94 0 175.5 -35t127.5 -102l119 752h372l-268 -1700h-373l19 117h-4q-59 -75 -151.5 -113.5t-190.5 -38.5q-151 0 -262 77.5t-157 205.5q-30 84 -30 178q0 49 8 100zM530 524q-4 -26 -4 -49q0 -69 40 -119 q54 -66 165 -66.5t186 65.5t93 169q4 23 4 44q0 72 -42 126q-54 68 -164.5 68t-186 -68.5t-91.5 -169.5z" />
<glyph unicode="e" horiz-adv-x="1249" d="M129 524q41 259 225.5 410t444.5 151q272 0 399 -156q95 -117 95 -297q0 -61 -11 -130l-6 -39h-784q-5 -31 -5 -59q0 -72 36 -115q50 -60 165 -60q122 0 193 97h358q-47 -119 -143.5 -202.5t-210.5 -121t-238 -37.5q-131 0 -236 37t-175 106.5t-99 175.5q-17 62 -17 133 q0 51 9 107zM530 678h433q-1 74 -54.5 120t-130.5 46q-84 0 -151 -43t-97 -123z" />
<glyph unicode="f" horiz-adv-x="794" d="M145 743l50 308h131l22 133q12 70 20 105t25.5 86.5t46 93t72.5 83.5q81 81 183.5 124.5t209.5 43.5q90 0 154 -37l-51 -321q-76 35 -125 35q-71 0 -107.5 -42.5t-50.5 -133.5l-27 -170h260l-49 -308h-260l-117 -743h-372l116 743h-131z" />
<glyph unicode="g" horiz-adv-x="1386" d="M49 -123h418q9 -53 57 -80q46 -24 103 -24q73 0 125 22t84 65.5t49.5 93.5t29.5 120l9 49q-87 -74 -172 -108.5t-187 -34.5q-151 0 -258.5 70.5t-152.5 192.5q-29 80 -29 171q0 49 8 102q25 154 112 283t223.5 207.5t293.5 78.5q208 0 287 -145h4l16 111h373l-150 -949 q-51 -326 -230 -476t-478 -150q-75 0 -150 15t-146 47t-125 78t-85 114q-29 61 -29 133v14zM520 532q-3 -23 -3 -43q0 -74 41 -126q54 -66 165 -66t186 66t90 169q4 23 4 45q0 72 -41 125q-53 68 -163 68t-186.5 -69t-92.5 -169z" />
<glyph unicode="h" horiz-adv-x="1353" d="M123 0l268 1700h373l-123 -782h4q151 167 363 167q194 -1 276 -119q58 -84 59 -212q0 -52 -10 -111l-102 -643h-373l86 539q10 56 10 96q0 37 -10 73q-10 38 -42.5 59t-86.5 21q-70 0 -121 -38t-76 -91t-36 -120l-86 -539h-373z" />
<glyph unicode="i" horiz-adv-x="618" d="M123 0l166 1051h373l-166 -1051h-373zM330 1454q13 86 85 147.5t158 61.5q85 1 137 -61q40 -48 41 -112q0 -17 -3 -36q-12 -86 -83.5 -147.5t-158.5 -61.5q-86 0 -137 61q-41 49 -41 116q0 15 2 32z" />
<glyph unicode="j" horiz-adv-x="618" d="M39 -524l250 1575h373l-250 -1575h-373zM330 1454q13 86 85 147.5t158 61.5t137 -61q41 -49 41 -112q0 -18 -3 -36q-12 -86 -83.5 -147.5t-158.5 -61.5q-86 0 -137 61q-41 49 -41 116q0 15 2 32z" />
<glyph unicode="k" horiz-adv-x="1409" d="M123 0l268 1700h373l-162 -1028l447 379h510l-603 -486l469 -565h-522l-340 428l-67 -428h-373z" />
<glyph unicode="l" horiz-adv-x="618" d="M123 0l268 1700h373l-268 -1700h-373z" />
<glyph unicode="m" horiz-adv-x="2025" d="M123 0l166 1051h373l-21 -131h4q149 165 359 165q118 0 202 -49.5t123 -150.5q69 96 173.5 148t215.5 52q304 0 304 -295q0 -55 -11 -120l-106 -670h-373l80 502q14 93 14 144q0 17 -2 30q-15 111 -121 112q-41 0 -74.5 -11.5t-56 -35.5t-38 -48.5t-26.5 -62t-16.5 -63 t-11.5 -65.5l-80 -502h-373l80 502q6 36 8 54t5 54.5t0.5 57.5t-10.5 49t-22.5 43t-40 26t-59.5 11t-63 -11t-48.5 -26.5t-36 -42.5t-26 -49t-18.5 -57t-12.5 -55t-8.5 -54l-79 -502h-373z" />
<glyph unicode="n" horiz-adv-x="1353" d="M123 0l166 1051h373l-21 -136h4q77 92 163.5 131t199.5 39q203 0 280 -116q54 -82 54 -208q0 -52 -9 -112l-102 -649h-373l82 512l3 21q6 35 8.5 55t4.5 55.5t-5.5 56.5t-22 43.5t-43.5 33.5t-70 11q-196 0 -233 -243l-86 -545h-373z" />
<glyph unicode="o" horiz-adv-x="1355" d="M129 524q20 130 88 238t166.5 177.5t218.5 107.5t248 38t236 -38t184 -107q78 -70 112 -178q21 -67 21 -143q0 -46 -8 -95q-20 -130 -88.5 -237t-167 -176.5t-219 -107.5t-248.5 -38q-127 0 -234.5 37.5t-183.5 107.5q-78 68 -112 176q-21 67 -21 143q0 46 8 95zM522 524 q-4 -26 -5 -49q0 -69 41 -119q54 -66 165 -66.5t185.5 65.5t92.5 169q4 23 4 44q0 72 -42 126q-54 68 -164 68t-185.5 -68.5t-91.5 -169.5z" />
<glyph unicode="p" horiz-adv-x="1396" d="M27 -524l249 1575h373l-18 -119h4q60 75 152.5 114t189.5 39q152 0 262 -78t155 -207q31 -85 31 -180q0 -48 -8 -98q-18 -113 -73 -215t-135 -177.5t-186 -120t-220 -44.5q-94 0 -174.5 34t-128.5 101l-101 -624h-372zM555 524q-5 -26 -5 -49q0 -70 41 -119 q54 -67 165 -67t185.5 66t92.5 169q4 23 4 44q0 73 -42 126q-55 68 -165 68t-185 -68.5t-91 -169.5z" />
<glyph unicode="q" horiz-adv-x="1396" d="M143 522q17 111 73.5 214t137.5 180t188.5 123t221.5 46q97 0 177.5 -39t115.5 -114h4l18 119h373l-250 -1575h-373l101 624q-66 -66 -159.5 -100.5t-188.5 -34.5q-153 0 -262.5 76t-155.5 203q-29 83 -29 177q0 49 8 101zM530 524q-4 -26 -4 -49q0 -70 40 -119 q54 -67 165 -67t186 66t93 169q4 23 4 44q0 73 -42 126q-55 68 -165 68t-185.5 -68.5t-91.5 -169.5z" />
<glyph unicode="r" horiz-adv-x="927" d="M123 0l166 1051h373l-27 -172h4q133 186 369 186h71l-55 -358q-55 34 -154 34q-75 0 -130.5 -23.5t-90 -68.5t-54.5 -99t-32 -126l-67 -424h-373z" />
<glyph unicode="s" horiz-adv-x="1050" d="M68 86l176 260q55 -43 133.5 -74.5t144.5 -31.5q42 0 82 20t47 59q3 20 -4.5 35t-20.5 24.5t-37 18t-44.5 13.5t-53.5 12.5t-55 13.5q-48 13 -82.5 30.5t-65 48.5t-41.5 81q-6 26 -6 57q0 28 5 60q12 75 48 137.5t87.5 105t116 72.5t132.5 43.5t138 13.5q199 0 336 -67 l-164 -238q-38 23 -91 37t-101 14q-25 0 -50.5 -6t-49 -23t-27.5 -42q-2 -15 1.5 -27t15 -21t22 -15t29.5 -11t30 -7.5t30.5 -6t24.5 -4.5q67 -14 116 -36.5t86 -59t51 -90.5q8 -31 8 -67q0 -28 -5 -59q-16 -99 -71 -176.5t-134.5 -123t-169 -68.5t-184.5 -23 q-225 0 -403 121z" />
<glyph unicode="t" horiz-adv-x="737" d="M154 743l49 308h121l51 315h373l-52 -315h211l-49 -308h-211l-117 -743h-372l116 743h-120z" />
<glyph unicode="u" horiz-adv-x="1349" d="M182 418l101 633h372l-88 -562q-6 -41 -6 -74q0 -59 19 -95q30 -58 137 -58q108 0 157 58t66 169l88 562h373l-101 -633q-72 -453 -630 -453q-124 0 -218 23t-164 73.5t-98 140.5q-16 52 -16 117q0 47 8 99z" />
<glyph unicode="v" horiz-adv-x="1275" d="M135 1051h418l168 -539l334 539h418l-715 -1051h-238z" />
<glyph unicode="w" horiz-adv-x="2039" d="M135 1051h414l172 -570l354 570h221l174 -570l355 570h411l-714 -1051h-242l-168 575l-352 -575h-242z" />
<glyph unicode="x" horiz-adv-x="1458" d="M-31 0l615 569l-351 482h474l153 -217l223 217h482l-510 -482l434 -569h-490l-221 311l-319 -311h-490z" />
<glyph unicode="y" horiz-adv-x="1339" d="M35 -524l465 667l-365 908h430l197 -539l358 539h424l-1091 -1575h-418z" />
<glyph unicode="z" horiz-adv-x="1144" d="M16 0l611 741h-428l49 310h1048l-608 -742h442l-49 -309h-1065z" />
<glyph unicode="{" horiz-adv-x="720" d="M147 465l33 213h8q26 0 42.5 2t43.5 10.5t44.5 32.5t23.5 63l82 519q12 77 47.5 140.5t79 99t84 54.5t70.5 19h198l-39 -246h-51q-33 0 -55.5 -10t-33.5 -30.5t-15.5 -36.5t-8.5 -44l-73 -460q-31 -188 -232 -218v-4q16 -2 23 -3t25 -5.5t28 -9t26 -14t25 -21t19 -29.5 t13.5 -40t4 -52t-5.5 -65l-72 -455q-4 -31 -6 -57.5t18 -45t64 -18.5h51l-39 -246h-198q-30 0 -65 19t-67 54.5t-47.5 98t-3.5 138.5l82 518q5 32 2 55.5t-12 37t-21.5 22.5t-27 10.5t-28.5 3.5t-26 0h-10z" />
<glyph unicode="|" horiz-adv-x="1185" d="M440 0l269 1700h307l-268 -1700h-308z" />
<glyph unicode="}" horiz-adv-x="720" d="M-4 -492l39 246h51q27 0 47 8t30.5 17t18.5 29t10.5 31t6.5 36l71 455q7 45 21 81t29 59.5t37.5 42t38.5 27.5t41 16t36.5 8.5t32.5 4.5v4q-193 32 -162 218l74 460q3 30 5 57t-17.5 45.5t-63.5 18.5h-51l39 246h198q30 0 65 -19t67 -54.5t47.5 -99t3.5 -140.5l-82 -519 q-5 -31 2 -53t18 -32.5t32.5 -16t32.5 -6t32 -0.5h8l-33 -213q-1 0 -15.5 0.5t-19.5 0l-20 -2t-23 -5.5t-21.5 -9.5t-21.5 -15.5t-17.5 -23t-15.5 -32t-10 -42l-82 -518q-12 -76 -47.5 -138.5t-78.5 -98t-83.5 -54.5t-70.5 -19h-199z" />
<glyph unicode="~" d="M178 487q21 22 64.5 73t78 87.5t80 77t93.5 62.5t96 22q108 0 244 -115q47 -42 104 -72t100 -30q36 0 78.5 55t75.5 117l203 -199q-41 -54 -63 -82t-70.5 -80.5t-86.5 -81t-89.5 -52t-100.5 -23.5q-24 0 -49 5.5t-41 10t-42.5 19t-34.5 19t-36.5 23.5l-31.5 21 q-24 15 -73.5 51t-79.5 52t-58 16q-19 0 -41 -16t-45.5 -46.5t-39.5 -53.5t-36 -56z" />
<glyph unicode="&#xa3;" d="M53 0q23 67 62.5 130t91.5 115t119 84t137 33q71 114 4 252h-330l25 156h221q-55 113 -33 262q17 111 76.5 213t151.5 178q179 150 456 150q301 0 411.5 -139t65.5 -443h-397l10 72q11 78 -33.5 136t-121.5 58q-91 0 -153.5 -62.5t-76.5 -154.5q-21 -149 43 -270h320 l-25 -156h-291q9 -53 -4 -137.5t-41 -136.5l23 -8q192 -70 291 -70q48 0 81 26.5t40 73.5h249q-40 -178 -153 -286.5t-287 -108.5q-29 0 -56.5 3t-58 10t-49 12.5t-56 17t-52.5 15.5q-179 51 -252 51q-44 0 -85 -19t-57 -57h-266z" />
<glyph unicode="&#xa9;" horiz-adv-x="1638" d="M8 770q0 167 63.5 318t171.5 260t258.5 173t317.5 64q166 0 316.5 -64t258.5 -173t172 -260t64 -318q0 -221 -108 -407.5t-294.5 -295t-408.5 -108.5q-167 0 -317.5 64t-258.5 172.5t-171.5 258.5t-63.5 316zM201 770q0 -177 80.5 -318.5t221.5 -220.5t316 -79 q172 0 313.5 78.5t223.5 220.5t82 319q0 179 -82 322t-223 222t-314 79q-175 0 -316 -79t-221.5 -221.5t-80.5 -322.5zM403 778q0 207 121 338t326 131q149 0 254 -82t129 -225h-184q-12 72 -67.5 111t-133.5 39q-117 0 -184.5 -90t-67.5 -218q0 -122 72.5 -217.5 t185.5 -95.5q75 0 133 43.5t62 114.5h184q-17 -144 -125 -230t-254 -86q-200 0 -325.5 134t-125.5 333z" />
<glyph unicode="&#xab;" horiz-adv-x="1234" d="M158 655l432 504l182 -141l-315 -363l207 -356l-234 -147zM668 655l432 504l182 -141l-315 -363l207 -356l-234 -147z" />
<glyph unicode="&#xad;" horiz-adv-x="802" d="M188 504l50 307h585l-49 -307h-586z" />
<glyph unicode="&#xae;" horiz-adv-x="1638" d="M8 770q0 167 63.5 318t171.5 260t258.5 173t317.5 64q166 0 316.5 -64t258.5 -173t172 -260t64 -318q0 -221 -108 -407.5t-294.5 -295t-408.5 -108.5q-167 0 -317.5 64t-258.5 172.5t-171.5 258.5t-63.5 316zM201 770q0 -177 80.5 -318.5t221.5 -220.5t316 -79 q172 0 313.5 78.5t223.5 220.5t82 319q0 179 -82 322t-223 222t-314 79q-175 0 -316 -79t-221.5 -221.5t-80.5 -322.5zM496 358v844h409q64 0 109.5 -5.5t89.5 -21.5t70.5 -44t42.5 -75t16 -112q0 -114 -56.5 -167.5t-172.5 -61.5l204 -357h-204l-189 357h-131v-357h-188z M684 842h225q77 0 112.5 26t35.5 101q0 30 -16.5 49t-50.5 26.5t-57.5 9t-66.5 1.5h-182v-213z" />
<glyph unicode="&#xbb;" horiz-adv-x="1234" d="M156 299l321 356l-201 363l228 141l272 -504l-432 -503zM666 299l321 356l-201 363l228 141l272 -504l-432 -503z" />
<glyph unicode="&#x401;" horiz-adv-x="1126" d="M131 0l244 1544h878l-53 -340h-477l-41 -258h453l-54 -340h-452l-43 -266h477l-53 -340h-879zM403 1931q12 83 81.5 142t154.5 59q83 0 131.5 -58.5t36.5 -142.5q-13 -84 -80.5 -142t-151.5 -58q-85 0 -135 58t-37 142zM928 1931q12 83 81 142t154 59q83 0 131.5 -58.5 t36.5 -142.5q-13 -84 -80 -142t-151 -58q-85 0 -135 58t-37 142z" />
<glyph unicode="&#x402;" horiz-adv-x="1558" d="M203 1204l53 340h1065l-53 -340h-332l-25 -155q95 36 199 36q251 0 394 -160.5t104 -410.5q-19 -116 -81 -219t-149 -175t-194.5 -113.5t-214.5 -41.5q-109 0 -156 27l47 297q34 -21 82 -21q101 0 183 73t100 185q17 108 -46 182t-171 74q-66 0 -146 -39l-117 -743h-401 l191 1204h-332z" />
<glyph unicode="&#x403;" horiz-adv-x="1048" d="M131 0l244 1544h887l-54 -340h-485l-191 -1204h-401zM745 1722l469 486l222 -180l-527 -424z" />
<glyph unicode="&#x404;" horiz-adv-x="1351" d="M195 770q25 159 106.5 305t208.5 260q132 117 299 183.5t330 66.5q227 0 356 -57l-76 -481q-89 149 -329 149q-134 0 -244 -68.5t-174 -185.5h549l-52 -315h-559q19 -128 112.5 -203.5t240.5 -75.5q103 0 199.5 36t168.5 108l-76 -482q-173 -51 -362 -51 q-161 0 -301.5 59t-243.5 168q-211 224 -153 584z" />
<glyph unicode="&#x405;" horiz-adv-x="1261" d="M82 135l223 324q160 -160 332 -160q79 0 143.5 40t75.5 116q5 30 -6 56t-33 43.5t-50 31.5t-56.5 23.5t-54.5 17.5q-10 3 -15 4q-46 14 -77.5 24.5t-69 25t-62 29t-51 34.5t-42.5 42t-30 51t-19 62.5t-5 76t8 91.5q38 233 209 375.5t405 142.5q118 0 244 -34.5t219 -92.5 l-209 -311q-110 102 -250 102q-39 0 -79.5 -13.5t-73.5 -44.5t-39 -71q-5 -32 7.5 -57.5t40 -43t50.5 -27t55 -19.5l99 -31q82 -25 142 -58t106 -82t63 -120t2 -162q-46 -282 -225 -416q-195 -145 -461 -145q-292 0 -516 176z" />
<glyph unicode="&#x406;" horiz-adv-x="663" d="M131 0l244 1544h401l-244 -1544h-401z" />
<glyph unicode="&#x407;" horiz-adv-x="663" d="M131 0l244 1544h401l-244 -1544h-401zM172 1931q12 83 81.5 142t154.5 59q83 0 131 -58.5t36 -142.5q-13 -84 -80 -142t-151 -58q-85 0 -135 58t-37 142zM696 1931q12 83 81.5 142t154.5 59q83 0 131.5 -58.5t36.5 -142.5q-13 -84 -80.5 -142t-151.5 -58q-85 0 -135 58 t-37 142z" />
<glyph unicode="&#x408;" horiz-adv-x="1001" d="M-2 186l270 244q79 -131 142 -131q33 0 58.5 15.5t39.5 35t25.5 54t16 55.5t9.5 57q1 7 2 10l160 1018h401l-164 -1042q-39 -251 -193.5 -397t-404.5 -146q-249 0 -362 227z" />
<glyph unicode="&#x409;" horiz-adv-x="2355" d="M63 0l52 317h16q129 0 184 64t78 213l150 950h1214l-90 -571h227q263 0 385 -127t84 -365q-19 -124 -74.5 -217.5t-140 -150.5t-190 -85t-232.5 -28h-614l195 1227h-412l-100 -633q-19 -118 -47 -206.5t-75.5 -164t-115 -123t-165 -74t-224.5 -26.5h-105zM1565 324h67h27 h61t54 3t51.5 9.5t41.5 18.5t37.5 30t25.5 45.5t18 63.5q5 29 3 52.5t-10 40t-20.5 28.5t-29.5 19t-37 11.5t-42.5 5.5t-47 2t-49.5 0h-29h-68z" />
<glyph unicode="&#x40a;" horiz-adv-x="2355" d="M131 0l244 1544h401l-90 -575h600l90 575h402l-90 -571h227q263 0 385 -127t84 -365q-19 -124 -74.5 -217.5t-140 -150.5t-190 -85t-232.5 -28h-614l104 653h-600l-105 -653h-401zM1585 324h68h27h53.5t48 2t46.5 6.5t39 12t36.5 20t28 30.5t23 42.5t13.5 56.5 q5 29 3 52.5t-10 40t-20.5 28.5t-29.5 19t-37 11.5t-42.5 5.5t-47 2t-49.5 0h-29h-68z" />
<glyph unicode="&#x40b;" horiz-adv-x="1644" d="M203 1204l53 340h1065l-53 -340h-332l-41 -260h104q150 0 280 -40.5t206 -129.5q46 -54 70.5 -117.5t27.5 -140t-2.5 -136.5t-19.5 -151l-37 -231h-402l27 176q8 52 12 87.5t5.5 83t-4 80t-20 67t-39.5 55t-65 34t-94 13.5h-104l-95 -594h-401l191 1204h-332z" />
<glyph unicode="&#x40c;" horiz-adv-x="1552" d="M131 0l244 1544h401l-100 -637h4l586 637h497l-729 -731l541 -813h-520l-412 670h-4l-107 -670h-401zM942 1722l469 486l221 -180l-526 -424z" />
<glyph unicode="&#x40e;" horiz-adv-x="1488" d="M213 1544h436l236 -682l454 682h437l-1059 -1544h-410l305 459zM639 2062l266 43q3 -69 49.5 -107t124.5 -38q79 0 138.5 38t80.5 107l252 -43q-30 -137 -173.5 -230t-334.5 -93t-304 92t-99 231z" />
<glyph unicode="&#x40f;" horiz-adv-x="1697" d="M131 0l244 1544h401l-192 -1227h579l193 1227h401l-244 -1544h-507l-58 -367h-360l57 367h-514z" />
<glyph unicode="&#x410;" horiz-adv-x="1599" d="M-8 0l837 1544h439l338 -1544h-428l-58 268h-553l-149 -268h-426zM727 575h334l-86 492h-4z" />
<glyph unicode="&#x411;" horiz-adv-x="1372" d="M131 0l244 1544h1001l-53 -340h-600l-41 -256h197q50 0 93.5 -2.5t87.5 -8.5t80.5 -16t71.5 -24.5t62 -35.5t50 -48t37.5 -61.5t23 -76t7.5 -93t-10 -111.5q-20 -124 -77.5 -216.5t-143 -147t-188.5 -81t-223 -26.5h-619zM582 307h71h12q35 0 54 0.5t54.5 3.5t56.5 8.5 t49.5 17.5t45.5 29.5t32 44t20 60.5q4 25 3 46t-7 36.5t-16 28.5t-23.5 21.5t-29.5 15t-34 10t-37.5 6.5t-39.5 3t-40 1t-39 0h-7h-6h-7h-61z" />
<glyph unicode="&#x412;" horiz-adv-x="1386" d="M131 0l244 1544h573q456 0 395 -401q-38 -232 -219 -316v-4q157 -21 218 -123.5t34 -269.5q-15 -94 -58 -168.5t-102.5 -123t-137.5 -80t-158.5 -45t-169.5 -13.5h-619zM582 307h51h12q35 0 55 0.5t57.5 3.5t61 8.5t54 17.5t49 29t34.5 44t21 61q7 41 -1 72t-27.5 48 t-47.5 28.5t-60.5 14.5t-67 5t-67.5 0h-32h-41zM682 938h45q46 0 80.5 5t70.5 20t59 46t30 78q7 41 -3 70t-28.5 44t-51 23.5t-59.5 10.5t-67 2h-29z" />
<glyph unicode="&#x413;" horiz-adv-x="1138" d="M131 0l244 1544h989l-53 -340h-588l-191 -1204h-401z" />
<glyph unicode="&#x414;" horiz-adv-x="1667" d="M-74 -367l109 686l39 -2q85 -5 169 79t142.5 215.5t81.5 275.5l102 657h1157l-192 -1225h195l-109 -686h-360l57 367h-973l-57 -367h-361zM590 317h543l143 910h-354l-45 -279q-38 -231 -113 -394t-174 -237z" />
<glyph unicode="&#x415;" horiz-adv-x="1126" d="M131 0l244 1544h878l-53 -340h-477l-41 -258h453l-54 -340h-452l-43 -266h477l-53 -340h-879z" />
<glyph unicode="&#x416;" horiz-adv-x="2416" d="M-31 -2l799 813l-500 731h498l385 -637h4l100 639h402l-101 -637h5l585 637h498l-729 -731l541 -813h-521l-411 670h-4l-107 -670h-401l106 668h-4l-625 -670h-520z" />
<glyph unicode="&#x417;" horiz-adv-x="1288" d="M47 135l203 324q74 -74 168.5 -125t183.5 -51q98 0 186.5 58.5t102.5 147.5q13 85 -50 146t-151 61h-151l41 256h122q53 0 104.5 18t90.5 56t47 88q7 45 -21.5 76.5t-74 45t-100.5 13.5q-146 0 -283 -102l-111 311q112 58 249 92.5t255 34.5q106 0 196 -27t156.5 -78 t97.5 -134.5t15 -188.5q-15 -91 -86.5 -180t-165.5 -137q121 -33 178 -134.5t33 -254.5q-15 -98 -65 -180.5t-121.5 -138.5t-160.5 -95.5t-183 -58t-189 -19.5q-289 -3 -516 176z" />
<glyph unicode="&#x418;" horiz-adv-x="1644" d="M131 0l244 1544h401l-133 -852l774 852h340l-244 -1544h-401l141 889l-782 -889h-340z" />
<glyph unicode="&#x419;" horiz-adv-x="1644" d="M131 0l244 1544h401l-133 -852l774 852h340l-244 -1544h-401l141 889l-782 -889h-340zM676 2062l266 43q3 -69 49.5 -107t124.5 -38q79 0 138.5 38t80.5 107l252 -43q-30 -137 -173.5 -230t-334.5 -93t-304 92t-99 231z" />
<glyph unicode="&#x41a;" horiz-adv-x="1511" d="M131 0l244 1544h401l-100 -637h4l586 637h497l-729 -731l541 -813h-520l-412 670h-4l-107 -670h-401z" />
<glyph unicode="&#x41b;" horiz-adv-x="1644" d="M63 0l52 317h16q129 0 184 64t78 213l150 950h1214l-244 -1544h-401l195 1227h-412l-100 -633q-19 -118 -47 -206.5t-75.5 -164t-115 -123t-165 -74t-224.5 -26.5h-105z" />
<glyph unicode="&#x41c;" horiz-adv-x="2013" d="M39 0l506 1544h395l184 -825l461 825h400l-11 -1544h-401l29 889h-5l-512 -889h-159l-213 889h-4l-271 -889h-399z" />
<glyph unicode="&#x41d;" horiz-adv-x="1644" d="M131 0l244 1544h401l-94 -596h580l94 596h401l-244 -1544h-401l100 633h-579l-101 -633h-401z" />
<glyph unicode="&#x41e;" horiz-adv-x="1816" d="M180 801q27 170 122 320t229 253t298 162t330 59t311.5 -59t247.5 -162t149.5 -253t20.5 -320q-39 -247 -179.5 -441.5t-352.5 -302.5t-457 -108t-423 108t-256.5 302.5t-39.5 441.5zM598 799q-32 -197 74.5 -329t288.5 -132q119 0 228 59t184.5 165.5t96.5 236.5 q16 105 -27.5 199t-135.5 151t-209 57t-227.5 -57t-183.5 -151t-89 -199z" />
<glyph unicode="&#x41f;" horiz-adv-x="1644" d="M131 0l244 1544h1382l-244 -1544h-401l195 1227h-580l-195 -1227h-401z" />
<glyph unicode="&#x420;" horiz-adv-x="1353" d="M131 0l244 1544h614q127 0 223.5 -30t162.5 -90.5t91 -159t4 -228.5q-82 -524 -628 -524h-228l-82 -512h-401zM666 836h67q41 0 62.5 0.5t58 4t57 10.5t48 20.5t43 33t29.5 50t20 69.5q11 70 -2.5 112.5t-59 59.5t-83.5 21t-113 4h-68z" />
<glyph unicode="&#x421;" horiz-adv-x="1351" d="M176 770q25 158 106.5 304.5t209.5 260.5q132 117 298.5 183.5t329.5 66.5q175 0 355 -78l-78 -481q-46 82 -133.5 126t-192.5 44q-182 0 -316.5 -122.5t-162.5 -305.5q-29 -184 68.5 -302t283.5 -118q98 0 197.5 44t175.5 120l-78 -481q-93 -27 -134 -38.5t-106.5 -22.5 t-124.5 -11q-160 0 -300.5 59t-243.5 168q-212 225 -154 584z" />
<glyph unicode="&#x422;" horiz-adv-x="1091" d="M203 1204l53 340h1065l-53 -340h-332l-191 -1204h-401l191 1204h-332z" />
<glyph unicode="&#x423;" horiz-adv-x="1488" d="M213 1544h436l236 -682l454 682h437l-1059 -1544h-410l305 459z" />
<glyph unicode="&#x424;" horiz-adv-x="1976" d="M195 817q20 124 92.5 240t180.5 204.5t254 141.5t304 53l12 88h402l-13 -88q157 0 286 -53.5t209 -141.5t116 -204t16 -240q-31 -200 -153.5 -363t-304 -254t-384.5 -91l-16 -109h-401l16 109q-152 0 -278 53.5t-208 147t-117.5 225.5t-12.5 282zM618 797 q-14 -80 12.5 -157.5t89.5 -129t146 -51.5l105 649q-78 0 -156.5 -45.5t-132 -117.5t-64.5 -148zM1268 459q125 0 231 106.5t127 231.5q17 117 -60 214t-194 97z" />
<glyph unicode="&#x425;" horiz-adv-x="1615" d="M-16 0l735 825l-381 719h493l175 -399l297 399h493l-606 -719l440 -825h-483l-244 504l-434 -504h-485z" />
<glyph unicode="&#x426;" horiz-adv-x="1697" d="M131 0l244 1544h401l-192 -1227h579l193 1227h401l-192 -1225h194l-108 -686h-361l58 367h-1217z" />
<glyph unicode="&#x427;" horiz-adv-x="1562" d="M291.5 1003q-1.5 51 7.5 143.5t20.5 173t34.5 224.5h402q-17 -93 -28 -160t-18 -133.5t-6 -112.5t8 -87.5t24 -67.5t43 -45t62 -26.5t85 -6.5l248 6l100 633h401l-243 -1544h-402l88 559l-248 -6q-146 -3 -277 39.5t-208 132.5q-33 38 -53 76.5t-29.5 94.5t-11 107z" />
<glyph unicode="&#x428;" horiz-adv-x="2375" d="M131 0l244 1544h401l-192 -1227h456l193 1227h401l-192 -1227h456l193 1227h401l-243 -1544h-2118z" />
<glyph unicode="&#x429;" horiz-adv-x="2457" d="M131 0l244 1544h401l-192 -1227h456l193 1227h401l-192 -1227h456l193 1227h401l-192 -1225h194l-108 -686h-361l58 367h-1952z" />
<glyph unicode="&#x42a;" horiz-adv-x="1701" d="M223 1204l53 340h836l-80 -512h228q268 0 386 -127.5t76 -396.5q-40 -256 -210.5 -382t-430.5 -126h-614l190 1204h-434zM920 324h67q34 0 51.5 0.5t47.5 2t47 5t41 10t38.5 16.5t32 24.5t28 34t20 45.5t14.5 58q9 54 -2.5 91.5t-31.5 56.5t-63.5 28.5t-73.5 11t-87 1.5 h-68z" />
<glyph unicode="&#x42b;" horiz-adv-x="1988" d="M119 0l243 1544h402l-80 -512h227q545 0 463 -524q-40 -256 -210.5 -382t-430.5 -126h-614zM571 324h68q34 0 51.5 0.5t47.5 2t46.5 5t41 10t38.5 16.5t31.5 24.5t28 34t20 45.5t14.5 58q9 54 -2.5 91.5t-31.5 56.5t-63.5 28.5t-73.5 11t-87 1.5h-67zM1462 0l244 1544 h401l-243 -1544h-402z" />
<glyph unicode="&#x42c;" horiz-adv-x="1353" d="M119 0l243 1544h402l-80 -512h227q545 0 463 -524q-40 -256 -210.5 -382t-430.5 -126h-614zM571 324h68q34 0 51.5 0.5t47.5 2t46.5 5t41 10t38.5 16.5t31.5 24.5t28 34t20 45.5t14.5 58q9 54 -2.5 91.5t-31.5 56.5t-63.5 28.5t-73.5 11t-87 1.5h-67z" />
<glyph unicode="&#x42d;" horiz-adv-x="1351" d="M121 10l76 482q49 -72 134.5 -108t188.5 -36q147 0 262.5 75.5t175.5 203.5h-559l52 315h548q-27 116 -116.5 185t-223.5 69q-242 0 -374 -149l75 481q148 57 377 57q162 0 306.5 -66.5t240.5 -183.5q93 -113 128.5 -259.5t10.5 -305.5q-58 -360 -342 -584 q-137 -109 -295.5 -168t-318.5 -59q-188 0 -346 51z" />
<glyph unicode="&#x42e;" horiz-adv-x="2492" d="M131 0l244 1544h401l-94 -596h190q67 189 216 338t339.5 229t387.5 80q166 0 311.5 -59t247.5 -162t149.5 -253t20.5 -320q-39 -247 -180 -441.5t-353 -302.5t-457 -108q-328 0 -528 188t-203 496h-190l-101 -633h-401zM1253 799q-32 -197 74.5 -329t288.5 -132t330 132 t180 329q16 105 -27.5 199t-136 151t-209.5 57t-227.5 -57t-183.5 -151t-89 -199z" />
<glyph unicode="&#x42f;" horiz-adv-x="1392" d="M0 0l586 633q-104 19 -171 82.5t-91 154.5t-7 199q19 121 74.5 213t137 148.5t182 85t217.5 28.5h600l-244 -1544h-401l94 594h-4l-473 -594h-500zM731 1044q-8 -48 3.5 -84t34 -56.5t59.5 -32.5t72 -15.5t79 -3.5h39l61 385h-39q-44 0 -80.5 -4t-77 -16t-69.5 -32.5 t-51.5 -56.5t-30.5 -84z" />
<glyph unicode="&#x430;" horiz-adv-x="1396" d="M131 526q17 112 72 214t135.5 178.5t186.5 121.5t220 45q95 0 176.5 -35t127.5 -102l16 103h373l-166 -1051h-373l19 117h-5q-59 -75 -151.5 -113.5t-190.5 -38.5q-151 0 -261.5 77.5t-156.5 205.5t-22 278zM516 524q-18 -102 36 -168.5t165 -66.5t185.5 66t92.5 169 q16 101 -38 169.5t-164 68.5t-185.5 -68.5t-91.5 -169.5z" />
<glyph unicode="&#x431;" horiz-adv-x="1396" d="M178 596q43 274 149 486.5t257 351.5q136 125 323 182q7 2 27.5 8t31 9t29.5 9.5t30 12t24.5 13t21.5 16t12 18.5h435q-18 -77 -78 -147t-148 -107q-46 -19 -154.5 -49t-202.5 -68.5t-167 -99.5q-75 -62 -137 -145.5t-90 -167.5l10 -7q68 68 193.5 114t218.5 46 q255 0 384 -147.5t89 -399.5q-21 -130 -89.5 -237t-167 -176.5t-218.5 -107.5t-248 -38q-137 0 -245.5 40t-182.5 116.5t-103 198.5t-4 276zM563 524q-18 -102 36 -168.5t165 -66.5t185.5 66t92.5 169q16 101 -38 169.5t-164 68.5t-185.5 -68.5t-91.5 -169.5z" />
<glyph unicode="&#x432;" horiz-adv-x="1290" d="M123 0l166 1051h723q145 0 225 -59.5t61 -180.5q-12 -77 -62 -140t-122 -87v-4q47 -8 92 -38t74 -87t18 -125q-12 -75 -43.5 -132.5t-90.5 -103.5t-155.5 -70t-228.5 -24h-657zM528 203h195q77 0 116.5 28.5t49.5 94.5q9 55 -18.5 86.5t-94.5 31.5h-211zM598 641h172 q116 0 131 102q18 103 -102 103h-170z" />
<glyph unicode="&#x433;" horiz-adv-x="983" d="M123 0l166 1051h823l-47 -306h-451l-118 -745h-373z" />
<glyph unicode="&#x434;" horiz-adv-x="1386" d="M-41 -346l100 637h17q52 0 93.5 20.5t67.5 52t46.5 80.5t31.5 95t21 108l63 404h1002l-121 -760h141l-100 -637h-352l55 346h-657l-56 -346h-352zM543 291h364l74 461h-256l-29 -189q-28 -183 -153 -272z" />
<glyph unicode="&#x435;" horiz-adv-x="1249" d="M129 524q41 259 225.5 410t444.5 151q272 0 399 -156t84 -427l-6 -39h-784q-19 -114 31 -174t165 -60q122 0 193 97h358q-47 -119 -143.5 -202.5t-210.5 -121t-238 -37.5q-131 0 -236 37t-175 106.5t-99 176t-8 239.5zM530 678h433q-1 74 -54.5 120t-130.5 46 q-84 0 -151 -43t-97 -123z" />
<glyph unicode="&#x436;" horiz-adv-x="2064" d="M-12 0l628 565l-430 486h510l256 -406h6l64 406h352l-63 -406h6l383 406h510l-582 -486l449 -565h-523l-270 436h-6l-70 -436h-352l70 436h-6l-410 -436h-522z" />
<glyph unicode="&#x437;" horiz-adv-x="1093" d="M68 145l247 185q15 -35 71 -68t134 -33q63 0 109 31t55 84q7 50 -28.5 77.5t-98.5 27.5h-90l33 213h67q53 0 98.5 25t53.5 73q6 38 -20 61t-81 23q-66 0 -122.5 -23t-79.5 -61l-170 127q66 83 186 140.5t264 57.5q210 0 320.5 -74t87.5 -218q-10 -68 -65.5 -133.5 t-135.5 -84.5q102 -21 150 -94.5t32 -169.5q-18 -111 -103.5 -192t-207 -119.5t-264.5 -38.5q-142 0 -265 51t-177 133z" />
<glyph unicode="&#x438;" horiz-adv-x="1353" d="M123 0l166 1051h373l-78 -496l501 496h312l-166 -1051h-373l84 535l-528 -535h-291z" />
<glyph unicode="&#x439;" horiz-adv-x="1353" d="M123 0l166 1051h373l-78 -496l501 496h312l-166 -1051h-373l84 535l-528 -535h-291zM522 1550l252 41q1 -65 45 -101t117 -36q75 0 131.5 36t77.5 101l237 -41q-28 -129 -164 -217t-315 -88q-180 0 -287.5 87t-93.5 218z" />
<glyph unicode="&#x43a;" horiz-adv-x="1368" d="M123 0l166 1051h373l-60 -379h6l441 379h510l-623 -486l489 -565h-522l-334 428h-6l-67 -428h-373z" />
<glyph unicode="&#x43b;" horiz-adv-x="1353" d="M53 0l49 309h15q40 0 64 5t47 22t37.5 52.5t23.5 92.5l90 570h1018l-166 -1051h-373l117 741h-273l-40 -260q-14 -86 -35 -153.5t-59 -131t-91 -105t-133 -66.5t-182 -25h-109z" />
<glyph unicode="&#x43c;" horiz-adv-x="1691" d="M0 0l551 1051h242l118 -605h9l311 605h242l219 -1051h-412l-57 489h-4l-283 -489h-180l-127 489h-4l-211 -489h-414z" />
<glyph unicode="&#x43d;" horiz-adv-x="1353" d="M123 0l166 1051h373l-52 -328h363l51 328h373l-166 -1051h-373l66 414h-363l-65 -414h-373z" />
<glyph unicode="&#x43e;" horiz-adv-x="1355" d="M129 524q20 130 88 238t166.5 177.5t218.5 107.5t248 38t236 -38t184.5 -107.5t111 -177.5t13.5 -238q-20 -130 -88.5 -237t-167 -176.5t-219 -107.5t-248.5 -38q-127 0 -234.5 37.5t-184 107t-111 177t-13.5 237.5zM522 524q-18 -102 36 -168.5t165 -66.5t185.5 66 t92.5 169q16 101 -38 169.5t-164 68.5t-185.5 -68.5t-91.5 -169.5z" />
<glyph unicode="&#x43f;" horiz-adv-x="1353" d="M123 0l166 1051h1108l-166 -1051h-373l117 741h-363l-116 -741h-373z" />
<glyph unicode="&#x440;" horiz-adv-x="1396" d="M27 -524l249 1575h373l-18 -119h4q60 75 152.5 114t189.5 39q152 0 262 -78t155.5 -206.5t22.5 -278.5q-18 -113 -73 -215t-135 -177.5t-186 -120t-220 -44.5q-94 0 -174.5 34t-128.5 101l-101 -624h-372zM555 524q-18 -102 36 -168.5t165 -66.5t185.5 66t92.5 169 q16 101 -38.5 169.5t-164.5 68.5t-185 -68.5t-91 -169.5z" />
<glyph unicode="&#x441;" horiz-adv-x="989" d="M129 514q26 166 124.5 297t244 202.5t309.5 71.5q134 0 235 -61l-49 -315q-87 73 -182 73q-107 0 -192.5 -73.5t-102.5 -182.5q-19 -114 43 -186t178 -72q50 0 103 19.5t94 52.5l-49 -315q-129 -60 -273 -60q-154 0 -273.5 70.5t-177 197t-32.5 281.5z" />
<glyph unicode="&#x442;" horiz-adv-x="1105" d="M164 745l47 306h1028l-47 -306h-328l-119 -745h-372l119 745h-328z" />
<glyph unicode="&#x443;" horiz-adv-x="1339" d="M35 -524l465 667l-365 908h430l197 -539l358 539h424l-1091 -1575h-418z" />
<glyph unicode="&#x444;" horiz-adv-x="1734" d="M127 524q20 130 87.5 236t165.5 173.5t217 103.5t247 36l98 627h373l-98 -627q102 0 191.5 -22.5t161.5 -68t120.5 -110t67.5 -154t3 -194.5q-21 -130 -89 -235.5t-166.5 -172.5t-217.5 -103t-246 -36l-77 -499h-373l78 499q-127 0 -234.5 36t-184 103t-111 172.5 t-13.5 235.5zM500 524q-17 -100 45 -167.5t174 -67.5l76 473q-111 0 -195.5 -70t-99.5 -168zM1092 289q112 0 196 67t101 168q15 98 -48 168t-174 70z" />
<glyph unicode="&#x445;" horiz-adv-x="1458" d="M-31 0l615 569l-351 482h474l153 -217l223 217h482l-510 -482l434 -569h-490l-221 311l-319 -311h-490z" />
<glyph unicode="&#x446;" horiz-adv-x="1394" d="M123 0l166 1051h373l-121 -760h362l121 760h373l-121 -760h151l-100 -637h-352l55 346h-907z" />
<glyph unicode="&#x447;" horiz-adv-x="1286" d="M213 604.5q-16 78.5 0 179.5l41 267h373l-31 -195q-9 -68 -4 -118t43.5 -79.5t112.5 -29.5h143l65 422h373l-166 -1051h-372l53 332h-144q-98 0 -177 13.5t-145.5 46t-107.5 83.5t-57 129.5z" />
<glyph unicode="&#x448;" horiz-adv-x="2004" d="M123 0l166 1051h373l-121 -760h321l121 760h373l-121 -760h321l121 760h373l-166 -1051h-1761z" />
<glyph unicode="&#x449;" horiz-adv-x="2004" d="M123 0l166 1051h373l-121 -760h321l121 760h373l-121 -760h321l121 760h373l-121 -760h150l-101 -637h-352l55 346h-1558z" />
<glyph unicode="&#x44a;" horiz-adv-x="1363" d="M143 741l50 310h659l-45 -291h217q84 0 155.5 -24.5t123 -71t74 -120t7.5 -165.5q-28 -177 -151 -278t-346 -101h-574l117 741h-287zM725 244h82q194 0 215 135q11 70 -27.5 101.5t-138.5 31.5h-88z" />
<glyph unicode="&#x44b;" horiz-adv-x="1683" d="M123 0l166 1051h373l-46 -291h218q84 0 155.5 -24.5t123 -71t74 -120t7.5 -165.5q-28 -177 -151.5 -278t-346.5 -101h-573zM535 244h81q194 0 215 135q11 70 -27 101.5t-138 31.5h-88zM1200 0l166 1051h373l-166 -1051h-373z" />
<glyph unicode="&#x44c;" horiz-adv-x="1177" d="M123 0l166 1051h373l-46 -291h218q84 0 155.5 -24.5t123 -71t74 -120t7.5 -165.5q-28 -177 -151.5 -278t-346.5 -101h-573zM535 244h81q194 0 215 135q11 70 -27 101.5t-138 31.5h-88z" />
<glyph unicode="&#x44d;" horiz-adv-x="989" d="M123 25l49 315q69 -72 176 -72q85 0 159 40.5t114 107.5h-340l34 217h340q-19 67 -80 108t-141 41q-94 0 -203 -73l50 315q119 61 256 61q123 0 224.5 -42t168 -116.5t95 -181.5t9.5 -231q-25 -155 -123 -281.5t-240 -197t-296 -70.5q-141 0 -252 60z" />
<glyph unicode="&#x44e;" horiz-adv-x="1914" d="M123 0l166 1051h373l-66 -418h113q70 210 264.5 331t429.5 121q128 0 236 -38t184.5 -107.5t111 -177.5t13.5 -238q-20 -130 -88.5 -237t-167 -176.5t-219 -107.5t-248.5 -38q-152 0 -275 52t-198.5 155.5t-79.5 243.5h-111l-65 -416h-373zM1075 524q-18 -102 36 -168.5 t165 -66.5t185.5 66t92.5 169q16 101 -38 169.5t-164 68.5t-185.5 -68.5t-91.5 -169.5z" />
<glyph unicode="&#x44f;" horiz-adv-x="1280" d="M-16 0l479 428q-132 20 -195 103t-45 196q13 81 60.5 145t116.5 102t148.5 57.5t164.5 19.5h622l-168 -1051h-372l55 346h-72l-332 -346h-462zM625 698q-10 -65 33.5 -99t115.5 -34h111l41 258h-111q-74 0 -127 -30t-63 -95z" />
<glyph unicode="&#x451;" horiz-adv-x="1249" d="M129 524q41 259 225.5 410t444.5 151q272 0 399 -156t84 -427l-6 -39h-784q-19 -114 31 -174t165 -60q122 0 193 97h358q-47 -119 -143.5 -202.5t-210.5 -121t-238 -37.5q-131 0 -236 37t-175 106.5t-99 176t-8 239.5zM434 1438q12 75 73.5 127.5t137.5 52.5 q74 0 119 -52.5t33 -127.5t-73.5 -128t-135.5 -53q-76 0 -121 53t-33 128zM530 678h433q-1 74 -54.5 120t-130.5 46q-84 0 -151 -43t-97 -123zM905 1438q12 75 74 127.5t137 52.5t119.5 -52.5t32.5 -127.5t-73 -128t-136 -53t-120.5 53t-33.5 128z" />
<glyph unicode="&#x452;" horiz-adv-x="1390" d="M190 1210l48 308h206l29 182h373l-29 -182h332l-47 -308h-332l-47 -292h4q151 167 363 167q195 0 276.5 -118.5t48.5 -323.5l-39 -246q-75 -467 -555 -921h-418q527 450 605 946l18 117q5 35 7 61.5t1 57t-9.5 52.5t-23.5 40.5t-41.5 28t-62.5 9.5q-70 0 -121 -38 t-76 -91t-36 -120l-86 -539h-373l192 1210h-207z" />
<glyph unicode="&#x453;" horiz-adv-x="1024" d="M123 0l166 1051h864l-47 -306h-492l-118 -745h-373zM639 1278l344 352l201 -164l-400 -309z" />
<glyph unicode="&#x454;" horiz-adv-x="989" d="M143 514q26 166 124.5 297t244 202.5t309.5 71.5q135 0 236 -61l-49 -315q-87 73 -183 73q-79 0 -147.5 -40.5t-108.5 -108.5h330l-35 -217h-329q19 -68 76 -108t141 -40q108 0 196 72l-49 -315q-129 -60 -272 -60q-154 0 -274 70.5t-177.5 197t-32.5 281.5z" />
<glyph unicode="&#x455;" horiz-adv-x="1050" d="M68 86l176 260q55 -43 133.5 -74.5t144.5 -31.5q42 0 82 20t47 59q3 20 -4.5 35t-20.5 24.5t-37 18t-44.5 13.5t-53.5 12.5t-55 13.5q-48 13 -82.5 30.5t-65 48.5t-41.5 81t-1 117q12 75 48 137.5t87.5 105t116 72.5t132.5 43.5t138 13.5q199 0 336 -67l-164 -238 q-38 23 -91 37t-101 14q-25 0 -50.5 -6t-49 -23t-27.5 -42q-2 -15 1.5 -27t15 -21t22 -15t29.5 -11t30 -7.5t30.5 -6t24.5 -4.5q67 -14 116 -36.5t86 -59t51 -91t3 -125.5q-16 -99 -71 -176.5t-134.5 -123t-169 -68.5t-184.5 -23q-225 0 -403 121z" />
<glyph unicode="&#x456;" horiz-adv-x="618" d="M123 0l166 1051h373l-166 -1051h-373zM330 1454q13 86 85 147.5t158 61.5t137.5 -61.5t37.5 -147.5q-12 -86 -83.5 -147.5t-158.5 -61.5q-86 0 -137 61t-39 148z" />
<glyph unicode="&#x457;" horiz-adv-x="618" d="M72 1438q14 83 82 141.5t153 58.5q83 0 132 -58.5t36 -141.5q-13 -85 -80.5 -143t-150.5 -58q-85 0 -135 58.5t-37 142.5zM123 0l166 1051h373l-166 -1051h-373zM596 1438q14 83 82 141.5t153 58.5q83 0 132 -58.5t36 -141.5q-13 -85 -80.5 -143t-150.5 -58 q-85 0 -135 58.5t-37 142.5z" />
<glyph unicode="&#x458;" horiz-adv-x="618" d="M39 -524l250 1575h373l-250 -1575h-373zM330 1454q13 86 85 147.5t158 61.5t137.5 -61.5t37.5 -147.5q-12 -86 -83.5 -147.5t-158.5 -61.5q-86 0 -137 61t-39 148z" />
<glyph unicode="&#x459;" horiz-adv-x="1835" d="M53 0l49 309h15q40 0 64 5t47 22t37.5 52.5t23.5 92.5l90 570h1018l-51 -328h149q86 0 156.5 -20.5t123.5 -62.5t76 -112t9 -161q-28 -171 -150.5 -269t-345.5 -98h-506l117 741h-273l-40 -260q-14 -86 -35 -153.5t-59 -131t-91 -105t-133 -66.5t-182 -25h-109zM1270 244 q113 0 164 21.5t61 80.5q10 64 -31 83.5t-161 19.5z" />
<glyph unicode="&#x45a;" horiz-adv-x="1835" d="M123 0l166 1051h373l-52 -328h342l52 328h372l-51 -328h150q85 0 155.5 -20.5t123.5 -62.5t76 -112t9 -161q-28 -171 -150.5 -269t-345.5 -98h-505l71 449h-342l-71 -449h-373zM1249 244q113 0 164.5 21.5t61.5 80.5q10 64 -31.5 83.5t-161.5 19.5z" />
<glyph unicode="&#x45b;" horiz-adv-x="1353" d="M6 1210l47 308h309l29 182h373l-29 -182h312l-48 -308h-311l-47 -292h4q151 167 363 167q195 0 276.5 -118.5t48.5 -323.5l-102 -643h-373l86 539q9 53 9.5 92t-10 77.5t-42.5 59t-86 20.5q-70 0 -121 -38t-76 -91t-36 -120l-86 -539h-373l192 1210h-309z" />
<glyph unicode="&#x45c;" horiz-adv-x="1409" d="M123 0l166 1051h373l-60 -379h6l441 379h510l-623 -486l489 -565h-522l-334 428h-6l-67 -428h-373zM786 1278l344 352l201 -164l-399 -309z" />
<glyph unicode="&#x45e;" horiz-adv-x="1339" d="M35 -524l465 667l-365 908h430l197 -539l358 539h424l-1091 -1575h-418zM504 1550l252 41q1 -65 45 -101t117 -36q75 0 131 36t77 101l238 -41q-28 -129 -164 -217t-315 -88q-180 0 -287.5 87t-93.5 218z" />
<glyph unicode="&#x45f;" horiz-adv-x="1394" d="M123 0l166 1051h373l-121 -760h362l121 760h373l-166 -1051h-371l-55 -346h-352l55 346h-385z" />
<glyph unicode="&#x490;" horiz-adv-x="1138" d="M131 0l244 1544h629l55 346h360l-108 -686h-588l-191 -1204h-401z" />
<glyph unicode="&#x491;" horiz-adv-x="983" d="M123 0l166 1051h471l53 331h352l-100 -637h-451l-118 -745h-373z" />
<glyph unicode="&#x2000;" horiz-adv-x="1104" />
<glyph unicode="&#x2001;" horiz-adv-x="2208" />
<glyph unicode="&#x2002;" horiz-adv-x="1104" />
<glyph unicode="&#x2003;" horiz-adv-x="2208" />
<glyph unicode="&#x2004;" horiz-adv-x="736" />
<glyph unicode="&#x2005;" horiz-adv-x="552" />
<glyph unicode="&#x2006;" horiz-adv-x="368" />
<glyph unicode="&#x2007;" horiz-adv-x="368" />
<glyph unicode="&#x2008;" horiz-adv-x="276" />
<glyph unicode="&#x2009;" horiz-adv-x="441" />
<glyph unicode="&#x200a;" horiz-adv-x="122" />
<glyph unicode="&#x2010;" horiz-adv-x="802" d="M188 504l50 307h585l-49 -307h-586z" />
<glyph unicode="&#x2011;" horiz-adv-x="802" d="M188 504l50 307h585l-49 -307h-586z" />
<glyph unicode="&#x2012;" horiz-adv-x="802" d="M188 504l50 307h585l-49 -307h-586z" />
<glyph unicode="&#x2013;" horiz-adv-x="1024" d="M100 504l50 307h983l-50 -307h-983z" />
<glyph unicode="&#x2014;" horiz-adv-x="2048" d="M100 504l50 307h2007l-50 -307h-2007z" />
<glyph unicode="&#x2018;" horiz-adv-x="761" d="M176 866l483 678h238l-373 -678h-348z" />
<glyph unicode="&#x2019;" horiz-adv-x="761" d="M246 866l372 678h349l-484 -678h-237z" />
<glyph unicode="&#x201a;" horiz-adv-x="692" d="M-6 -287l373 678h348l-484 -678h-237z" />
<glyph unicode="&#x201c;" horiz-adv-x="1286" d="M176 866l483 678h238l-373 -678h-348zM700 866l484 678h237l-372 -678h-349z" />
<glyph unicode="&#x201d;" horiz-adv-x="1286" d="M246 866l372 678h349l-484 -678h-237zM770 866l373 678h348l-483 -678h-238z" />
<glyph unicode="&#x201e;" horiz-adv-x="1216" d="M-6 -287l373 678h348l-484 -678h-237zM518 -287l373 678h348l-483 -678h-238z" />
<glyph unicode="&#x2022;" d="M317 772q0 161 112 274t276 113t274.5 -113t110.5 -274q0 -160 -110.5 -272.5t-274.5 -112.5t-276 112.5t-112 272.5z" />
<glyph unicode="&#x2026;" horiz-adv-x="2048" d="M133 199q17 100 98 169.5t181 69.5t158.5 -69.5t41.5 -169.5q-15 -99 -96 -169.5t-180 -70.5t-158.5 70.5t-44.5 169.5zM815 199q17 100 98 169.5t181 69.5t158.5 -69.5t41.5 -169.5q-15 -99 -96 -169.5t-180 -70.5t-158.5 70.5t-44.5 169.5zM1497 199q17 100 98 169.5 t181 69.5t158.5 -69.5t41.5 -169.5q-15 -99 -96 -169.5t-180 -70.5t-158.5 70.5t-44.5 169.5z" />
<glyph unicode="&#x202f;" horiz-adv-x="441" />
<glyph unicode="&#x2039;" horiz-adv-x="724" d="M158 655l432 504l182 -141l-315 -363l207 -356l-234 -147z" />
<glyph unicode="&#x203a;" horiz-adv-x="724" d="M156 299l321 356l-201 363l228 141l272 -504l-432 -503z" />
<glyph unicode="&#x205f;" horiz-adv-x="552" />
<glyph unicode="&#x20ac;" d="M100 492l115 202h94q1 10 4.5 31.5t5.5 32.5q4 21 15 57h-170l115 203h110q41 104 91 188.5t120 160.5t154 127.5t195 81.5t241 30q129 0 222 -31t132 -70l-67 -350q-35 47 -113 79t-195 32q-282 0 -389 -248h580l-115 -203h-526q-10 -34 -12 -55q-5 -20 -11 -66h480 l-115 -202h-373q13 -211 291 -211q101 0 197.5 31.5t150.5 76.5l-70 -356q-57 -36 -156.5 -64t-234.5 -28q-303 0 -441.5 138t-135.5 413h-189z" />
<glyph unicode="&#x2122;" horiz-adv-x="1925" d="M84 1384v160h702v-160h-251v-667h-199v667h-252zM887 717v827h291l186 -489l186 489h291v-827h-180v667h-4l-240 -667h-106l-240 667h-4v-667h-180z" />
<glyph unicode="&#xe000;" horiz-adv-x="1054" d="M0 0v1055h1055v-1055h-1055z" />
</font>
</defs>
</svg>
