<?xml version="1.0" standalone="no"?>
<!DOCTYPE svg PUBLIC "-//W3C//DTD SVG 1.1//EN" "http://www.w3.org/Graphics/SVG/1.1/DTD/svg11.dtd" >
<svg xmlns="http://www.w3.org/2000/svg">
<metadata></metadata>
<defs>
<font id="MyriadProItalic" horiz-adv-x="1077" >
<font-face units-per-em="2048" ascent="1536" descent="-512" />
<missing-glyph horiz-adv-x="398" />
<glyph horiz-adv-x="0" />
<glyph horiz-adv-x="2048" />
<glyph unicode=" "  horiz-adv-x="398" />
<glyph unicode="&#x09;" horiz-adv-x="398" />
<glyph unicode="&#xa0;" horiz-adv-x="398" />
<glyph unicode="!" horiz-adv-x="516" d="M50 103q0 61 38.5 103.5t97.5 42.5q37 0 65 -17t43 -46t15 -65q0 -62 -39 -104t-101 -42q-34 0 -61.5 17.5t-42.5 46.5t-15 64zM167 425l172 1052h207l-235 -1052h-144z" />
<glyph unicode="&#x22;" horiz-adv-x="665" d="M199 987l66 529h191l-136 -529h-121zM526 987l68 529h188l-136 -529h-120z" />
<glyph unicode="#" d="M75 431l21 125h199l102 322h-190l21 126h206l131 420h127l-131 -420h200l131 420h127l-132 -420h180l-22 -126h-196l-100 -322h189l-22 -125h-208l-131 -431h-130l134 431h-198l-134 -431h-126l132 431h-180zM423 556h200l98 322h-198z" />
<glyph unicode="$" d="M81 129l61 143q133 -94 292 -94q123 0 205 67t82 176q0 75 -42 133.5t-142 109.5q-93 50 -154.5 101.5t-94.5 114t-33 134.5q0 148 109.5 257t277.5 125l42 212h133l-41 -212q74 -3 138.5 -25t99.5 -50l-63 -135q-22 13 -40.5 22.5t-50.5 22t-72.5 19t-86.5 6.5 q-115 0 -184.5 -61.5t-69.5 -153.5q0 -72 45.5 -123t166.5 -116q128 -70 191.5 -155t63.5 -191q0 -118 -55 -210t-147 -145t-210 -68l-42 -219h-132l42 219q-77 3 -160 31.5t-129 64.5z" />
<glyph unicode="%" horiz-adv-x="1693" d="M151 892q0 68 13 135.5t37 129t60.5 115t81 93t101.5 62t119 22.5q65 0 116 -25t82 -67t47 -94t16 -111q0 -155 -50.5 -286t-143.5 -210t-209 -79q-84 0 -145 39.5t-93 110.5t-32 165zM276 -29l1076 1480h129l-1073 -1480h-132zM301 887q0 -40 6.5 -73t21.5 -61.5 t43 -44.5t67 -16q42 0 80.5 28.5t66 75.5t48.5 106t31 121t10 119q0 35 -6 66t-20.5 60.5t-42.5 46.5t-67 17q-52 0 -98.5 -42t-76 -107.5t-46.5 -143.5t-17 -152zM945 303q0 67 13 134t37 129t60.5 115.5t80.5 93t100.5 62t118.5 22.5q65 0 116 -25t81.5 -67t46.5 -94.5 t16 -111.5q0 -156 -50.5 -287t-143 -210t-209.5 -79q-124 0 -195.5 87t-71.5 231zM1094 299q0 -41 6.5 -75t21.5 -62.5t43 -44.5t67 -16q52 0 97.5 43.5t74.5 111t45.5 145.5t16.5 151q0 35 -6.5 66.5t-20.5 60.5t-42 46.5t-67 17.5q-42 0 -80 -28t-66 -73.5t-48.5 -103.5 t-31 -119.5t-10.5 -119.5z" />
<glyph unicode="&#x26;" horiz-adv-x="1290" d="M37 347q0 82 31 157.5t85 134t116 103.5t134 80v6q-81 146 -81 270q0 54 13.5 106t37.5 96t60 81.5t78.5 64t95 41t108.5 14.5q71 0 128.5 -23.5t94 -63.5t55.5 -92.5t19 -112.5q0 -130 -93 -234.5t-286 -194.5v-6q121 -205 266 -410q126 156 223 443h171 q-65 -186 -139 -323.5t-172 -238.5q100 -141 186 -245h-215q-43 50 -100 136q-62 -56 -127 -91.5t-136.5 -52.5t-152.5 -17q-94 0 -170 29t-126 79.5t-77 118t-27 145.5zM221 372q0 -110 70.5 -181.5t195.5 -71.5q165 0 289 130q-5 7 -39 56t-49.5 72t-50 74t-58 87.5 t-54 85.5t-56.5 93q-36 -22 -64 -41.5t-64.5 -53t-60.5 -68t-41.5 -82.5t-17.5 -100zM491 1117q0 -123 70 -234q140 67 211 144t71 178q0 71 -36 119t-113 48q-55 0 -101.5 -33t-74 -91.5t-27.5 -130.5z" />
<glyph unicode="'" horiz-adv-x="362" d="M215 987l65 529h189l-136 -529h-118z" />
<glyph unicode="(" horiz-adv-x="621" d="M149 351q0 151 27.5 299t72 269t106.5 235.5t124 200.5t132 161h156q-73 -83 -136.5 -173t-124.5 -205.5t-104 -236t-69 -264t-26 -290.5q0 -158 27.5 -304.5t92.5 -301.5h-138q-140 280 -140 610z" />
<glyph unicode=")" horiz-adv-x="621" d="M-101 -259q73 83 137 174.5t124.5 207t103.5 236.5t69.5 265.5t26.5 291.5q0 317 -121 600h140q138 -273 138 -604q0 -152 -27.5 -300t-72 -269.5t-106.5 -236.5t-124.5 -202t-131.5 -163h-156z" />
<glyph unicode="*" horiz-adv-x="906" d="M165 1043l28 149l307 -42v5l-174 269l141 75l105 -305h5l163 307l126 -77l-241 -272l2 -4l333 44l-31 -149l-314 40l-2 -7l180 -263l-140 -79l-105 307h-4l-174 -307l-115 79l238 266v6z" />
<glyph unicode="+" horiz-adv-x="1305" d="M121 521v130h479v515h136v-515h481v-130h-481v-521h-136v521h-479z" />
<glyph unicode="," horiz-adv-x="462" d="M-94 -272q56 110 119.5 262t95.5 265l216 21q-58 -137 -145 -295.5t-146 -237.5z" />
<glyph unicode="-" horiz-adv-x="671" d="M79 521l26 140h524l-27 -140h-523z" />
<glyph unicode="." horiz-adv-x="462" d="M46 105q0 62 39 105t99 43q55 0 89 -37.5t34 -94.5q0 -41 -17.5 -74t-49.5 -52.5t-73 -19.5q-54 0 -87.5 37t-33.5 93z" />
<glyph unicode="/" horiz-adv-x="713" d="M-119 -88l882 1589h149l-883 -1589h-148z" />
<glyph unicode="0" d="M94 464q0 101 15 203.5t43.5 199t68.5 184t93.5 160t115 126t135 83t152.5 29.5t140.5 -25.5t101 -68t64.5 -101.5t35.5 -121t10.5 -131q0 -101 -13 -204t-39.5 -204t-64.5 -192.5t-90 -169.5t-113 -135t-137.5 -89.5t-159.5 -32.5q-65 0 -118 17t-92 49t-67.5 76 t-46 99.5t-26 116.5t-8.5 131zM276 456q0 -333 199 -333q55 0 106.5 33t92 89t75.5 129.5t60 154.5t43 164.5t26.5 159t8.5 138.5q0 311 -190 311q-72 0 -139 -54t-117 -143.5t-88 -200t-57.5 -227t-19.5 -221.5z" />
<glyph unicode="1" d="M366 1263l324 161h153l-268 -1424h-176l234 1240h-4l-244 -123z" />
<glyph unicode="2" d="M0 0l21 121l213 178q104 87 178 153.5t147.5 138t121 130.5t85.5 120.5t55.5 119.5t17.5 115q0 41 -12 78t-36.5 69t-68.5 51t-104 19q-148 0 -294 -103l-46 131q75 58 177.5 93t201.5 35q78 0 141 -20t105.5 -53.5t71 -79t41 -94.5t12.5 -102q0 -64 -17 -128t-45 -122.5 t-74 -121.5t-94.5 -117.5t-116 -119t-128 -117.5t-141.5 -119l-121 -95v-5h598l-28 -155h-861z" />
<glyph unicode="3" d="M35 65l61 146q131 -79 274 -79q88 0 158 28t111.5 74t63.5 100t22 111q0 65 -23.5 114t-66 78.5t-96.5 44.5t-118 15h-72l28 142h72q42 0 88.5 10.5t94 33t85.5 54t61.5 78t23.5 100.5q0 84 -51 131t-151 47q-77 0 -148 -22t-121 -57l-40 138q71 44 160.5 70.5 t179.5 26.5q87 0 157.5 -25t115 -67.5t68 -97.5t23.5 -117q0 -68 -26 -129.5t-70 -108t-100.5 -80t-119.5 -50.5v-5q76 -18 130 -66t80.5 -113.5t26.5 -142.5q0 -132 -73 -240.5t-199.5 -170t-279.5 -61.5q-108 0 -198.5 27t-130.5 63z" />
<glyph unicode="4" d="M25 393l23 122l759 909h199l-169 -887h193l-26 -144h-195l-75 -393h-171l75 393h-613zM247 537h420l92 473q6 34 15 73t20.5 86t16.5 71h-6q-17 -24 -51 -76.5t-58 -87.5t-52 -70l-397 -465v-4z" />
<glyph unicode="5" d="M33 55l57 144q42 -28 114 -47.5t153 -19.5q100 0 187 47.5t139.5 131t52.5 180.5q0 274 -343 274q-47 0 -161 -9l197 668h638l-30 -157h-489l-111 -362q24 5 69 5q54 0 124.5 -17.5t125.5 -51.5q84 -45 126 -129.5t42 -182.5q0 -102 -31 -191t-86 -154.5t-128.5 -113 t-160 -71.5t-179.5 -24q-97 0 -181.5 24t-124.5 56z" />
<glyph unicode="6" d="M77 445q0 96 20 193t54 182t79.5 162.5t98 139.5t108.5 107q207 177 470 208q57 10 123 10l-26 -157q-66 0 -132 -10q-192 -35 -342.5 -172.5t-222.5 -344.5l4 -2q64 81 159 130.5t191 49.5q82 0 148 -30.5t108.5 -83t65.5 -123t23 -152.5q0 -83 -24.5 -166.5t-71.5 -157 t-110 -130t-145.5 -90t-171.5 -33.5q-80 0 -146.5 23t-114 65t-80.5 100.5t-49 129.5t-16 152zM257 418q0 -132 62 -213.5t176 -81.5q69 0 130 37t102.5 96.5t65.5 134.5t24 150q0 62 -15 110t-44 80t-71 48t-95 16q-84 0 -165.5 -52.5t-135.5 -142.5q-22 -33 -26 -67 q-8 -66 -8 -115z" />
<glyph unicode="7" d="M94 0q286 438 822 1263l-2 6h-651l30 155h853l-24 -127q-416 -655 -827 -1297h-201z" />
<glyph unicode="8" d="M52 328q0 47 9.5 90t26 80t40.5 70.5t52.5 61.5t62 52t69 43t73.5 34l2 6q-155 111 -155 280q0 85 36.5 160t98 128.5t146 84.5t177.5 31q159 0 259.5 -88t100.5 -234q0 -122 -74.5 -216t-204.5 -155l-2 -7q106 -57 158 -146t52 -191q0 -82 -28 -153t-76.5 -122t-112 -88 t-135.5 -55.5t-147 -18.5q-196 0 -312 99.5t-116 253.5zM241 351q0 -64 27 -116.5t85.5 -87t139.5 -34.5q83 0 151 35.5t107.5 100.5t39.5 148q0 70 -27.5 124t-83 94.5t-141.5 70.5q-57 -16 -108.5 -43.5t-95 -68.5t-69 -98.5t-25.5 -124.5zM408 1058q0 -166 207 -241 q72 24 128.5 64.5t91.5 99t35 123.5q0 31 -6 59t-21.5 55.5t-38.5 47.5t-59.5 32.5t-83.5 12.5q-106 0 -179.5 -75.5t-73.5 -177.5z" />
<glyph unicode="9" d="M123 -21l21 155q45 -3 136 8q163 25 303 140q174 139 260 377h-6q-64 -73 -151 -113t-173 -40q-85 0 -152.5 31t-109 83.5t-63 117.5t-21.5 136q0 86 26 171t75 157t113 128t145.5 87.5t167.5 31.5q79 0 143.5 -23.5t109 -64.5t74.5 -98.5t44 -123t14 -140.5 q0 -127 -34 -256t-88.5 -234.5t-117.5 -189.5t-129 -139q-92 -78 -204 -127t-224 -64q-96 -13 -159 -10zM353 897q0 -111 55.5 -180t158.5 -69q57 0 111 21t97.5 58t75.5 86q22 30 27 61q17 70 17 147q0 63 -12.5 113t-38.5 88.5t-69 59t-102 20.5q-85 0 -159.5 -58 t-117.5 -151.5t-43 -195.5z" />
<glyph unicode=":" horiz-adv-x="462" d="M46 103q0 61 38.5 103.5t97.5 42.5q37 0 65 -16.5t43 -45.5t15 -66q0 -41 -17.5 -74t-49.5 -52.5t-73 -19.5q-52 0 -85.5 37t-33.5 91zM193 876q0 62 38.5 104.5t96.5 42.5q37 0 65.5 -16.5t43.5 -45.5t15 -66q0 -62 -39.5 -104t-101.5 -42q-52 0 -85 36.5t-33 90.5z" />
<glyph unicode=";" horiz-adv-x="462" d="M-94 -270q55 107 118 259.5t97 267.5l214 21q-59 -140 -145 -297.5t-146 -235.5zM203 876q0 62 38.5 104.5t97.5 42.5q37 0 65 -16.5t43 -45.5t15 -66q0 -62 -39 -104t-101 -42q-52 0 -85.5 36.5t-33.5 90.5z" />
<glyph unicode="&#x3c;" horiz-adv-x="1305" d="M171 523v119l981 524v-150l-821 -431v-4l821 -432v-149z" />
<glyph unicode="=" horiz-adv-x="1305" d="M123 309v130h1096v-130h-1096zM123 740v130h1096v-130h-1096z" />
<glyph unicode="&#x3e;" horiz-adv-x="1305" d="M203 0v149l830 432v4l-830 431v150l983 -522v-123z" />
<glyph unicode="?" horiz-adv-x="841" d="M180 103q0 61 38.5 103.5t97.5 42.5q55 0 89 -36.5t34 -91.5q0 -41 -17.5 -74t-50 -52.5t-72.5 -19.5q-53 0 -86 37t-33 91zM270 1422q131 81 297 81q77 0 138 -23.5t97.5 -63t55 -87.5t18.5 -100q0 -61 -17 -118t-54 -112.5t-73 -98.5t-94 -103q-23 -24 -42.5 -46.5 t-36.5 -45t-30.5 -44t-24.5 -43.5t-18.5 -44t-13 -45t-8.5 -46q-3 -28 -10 -62h-176q4 38 4 56q18 193 216 399q37 39 58 62.5t50 60t44 64.5t26.5 63.5t11.5 69.5q0 31 -8.5 57t-27 48.5t-52 35.5t-79.5 13q-123 0 -218 -62z" />
<glyph unicode="@" horiz-adv-x="1577" d="M77 456q0 112 25.5 219t73 200t118 171t157.5 133.5t195.5 86.5t227.5 31q141 0 260.5 -47.5t202 -131t129 -201t46.5 -253.5q0 -80 -14.5 -152t-40.5 -129t-62.5 -102.5t-79.5 -76t-92 -46.5t-101 -16q-72 0 -119.5 48.5t-44.5 144.5h-7q-114 -193 -311 -193 q-98 0 -166 75.5t-68 200.5q0 102 38.5 196.5t105.5 166t165 114.5t209 43q137 0 235 -46l-74 -397q-48 -242 65 -246q43 -1 85.5 26t76.5 77t55.5 127.5t21.5 168.5q0 120 -36 221t-103 173.5t-168 113t-227 40.5q-107 0 -205.5 -32.5t-180 -95.5t-142.5 -150.5t-94.5 -203 t-33.5 -245.5q0 -136 41.5 -247.5t116.5 -187.5t180.5 -117.5t231.5 -41.5q85 0 171 21t151 58l36 -96q-160 -88 -382 -88q-141 0 -263.5 48.5t-212 135.5t-141 217t-51.5 285zM548 427q0 -75 38 -120.5t108 -45.5q61 0 120 46.5t97 114t51 137.5l46 246q-43 17 -109 17 q-95 0 -176 -54t-128 -145t-47 -196z" />
<glyph unicode="A" horiz-adv-x="1244" d="M-59 0l764 1477h213l207 -1477h-187l-62 467h-508l-234 -467h-193zM434 611h429l-56 428q-20 176 -27 272h-4q-6 -13 -50.5 -115t-70.5 -155z" />
<glyph unicode="B" horiz-adv-x="1136" d="M73 11l272 1446q166 31 316 31q230 0 341 -101q107 -86 107 -230q0 -40 -9 -78t-25 -70.5t-39 -62.5t-50.5 -54.5t-59 -45t-65.5 -35.5t-70 -25v-4q105 -32 173.5 -117t68.5 -211q0 -108 -49 -197t-127 -148q-162 -120 -480 -120q-192 0 -304 22zM276 144q61 -8 149 -8 q66 0 125.5 11t113.5 36t92.5 62t61.5 92.5t23 124.5q0 63 -25 112t-68.5 78.5t-98.5 45t-118 15.5h-150zM410 851h136q106 0 191 34t134 100.5t49 154.5q0 103 -71 153t-196 50q-108 0 -151 -13z" />
<glyph unicode="C" horiz-adv-x="1215" d="M107 590q0 210 82 398t232 314q232 197 558 197q111 0 197.5 -22t122.5 -49l-59 -146q-43 26 -119.5 42.5t-171.5 16.5q-115 0 -226.5 -43t-196.5 -121q-104 -98 -164.5 -247t-60.5 -315q0 -82 14.5 -152t48.5 -131.5t85 -105t127.5 -68t172.5 -24.5q56 0 112.5 7 t110 21.5t93.5 34.5l24 -149q-155 -69 -384 -69q-278 0 -438 163.5t-160 447.5z" />
<glyph unicode="D" horiz-adv-x="1417" d="M73 6l274 1453q170 29 368 29q183 0 322 -51t221 -147q41 -42 71.5 -98t48.5 -134.5t18 -168.5q0 -202 -78 -387.5t-218 -306.5q-127 -107 -290.5 -156.5t-380.5 -49.5q-206 0 -356 17zM280 149q66 -9 191 -9q340 0 528 195q99 100 150.5 243t51.5 303q0 81 -16 148.5 t-53 125.5t-93.5 98t-141 63t-192.5 23q-128 0 -201 -15z" />
<glyph unicode="E" horiz-adv-x="1029" d="M67 0l282 1477h753l-31 -156h-569l-90 -472h537l-31 -155h-537l-101 -539h605l-30 -155h-788z" />
<glyph unicode="F" horiz-adv-x="1018" d="M67 0l282 1477h749l-31 -156h-565l-96 -497h521l-30 -153h-523l-125 -671h-182z" />
<glyph unicode="G" horiz-adv-x="1364" d="M107 598q0 189 75 369.5t213 305.5q60 52 129.5 92.5t146 69t161 43.5t172.5 15q83 0 159 -12t119.5 -26.5t69.5 -30.5l-62 -153q-119 63 -308 63q-131 0 -248.5 -46t-210.5 -133q-102 -96 -161 -243.5t-59 -298.5q0 -108 27.5 -194t84 -149t147.5 -96.5t212 -33.5 q134 0 223 42l86 441h-301l29 148h477l-133 -708q-35 -14 -78 -27t-96.5 -25t-117 -19t-125.5 -7q-318 0 -481 184q-79 87 -114.5 199t-35.5 230z" />
<glyph unicode="H" horiz-adv-x="1373" d="M67 0l282 1477h182l-119 -622h679l118 622h182l-280 -1477h-182l129 694h-677l-132 -694h-182z" />
<glyph unicode="I" horiz-adv-x="510" d="M65 0l282 1477h182l-282 -1477h-182z" />
<glyph unicode="J" horiz-adv-x="797" d="M-67 15l38 156q75 -33 186 -33q61 0 106.5 17t84 56.5t66 106.5t46.5 165l188 994h182l-192 -1017q-49 -257 -164 -371t-323 -114q-64 0 -126 12t-92 28z" />
<glyph unicode="K" horiz-adv-x="1127" d="M67 0l282 1477h180l-136 -718l8 2q50 57 147 163l519 553h228l-622 -636l379 -841h-197l-322 725l-178 -164l-108 -561h-180z" />
<glyph unicode="L" horiz-adv-x="968" d="M67 0l282 1477h182l-253 -1320h596l-31 -157h-776z" />
<glyph unicode="M" horiz-adv-x="1708" d="M29 0l383 1477h232l117 -846q29 -251 34 -370h7q67 157 173 364l456 852h239l-189 -1477h-175l105 797q40 292 80 500h-8q-122 -270 -230 -475l-440 -813h-138l-110 796q-33 265 -46 492h-6q-8 -34 -49.5 -226t-62.5 -274l-202 -797h-170z" />
<glyph unicode="N" horiz-adv-x="1384" d="M67 0l282 1477h199l337 -837q77 -198 129 -412l5 2q12 191 64 462l149 785h171l-281 -1477h-179l-338 835q-52 133 -81.5 225.5t-54.5 199.5l-7 -2q-19 -175 -77 -487l-146 -771h-172z" />
<glyph unicode="O" horiz-adv-x="1463" d="M105 577q0 131 32 263.5t96 253.5t152 208q97 93 227 146t269 53q116 0 210.5 -32.5t158.5 -89t107.5 -134t63 -164.5t19.5 -184q0 -199 -70.5 -393t-198.5 -322q-100 -99 -228.5 -153t-278.5 -54q-111 0 -204 32.5t-157.5 89t-110 133t-66.5 164t-21 183.5zM295 592 q0 -75 13.5 -141t43.5 -125.5t75.5 -102.5t113 -68.5t151.5 -25.5q93 0 181 38.5t157 108.5q100 101 159.5 275t59.5 336q0 48 -4.5 92t-16.5 91.5t-31 87t-50 75.5t-70.5 61t-95.5 39.5t-124 14.5q-187 0 -338 -147q-103 -103 -163.5 -275t-60.5 -334z" />
<glyph unicode="P" horiz-adv-x="1110" d="M67 0l280 1455q140 33 320 33q111 0 206 -28.5t155 -85.5q107 -96 107 -268q0 -117 -50 -218t-127 -167q-83 -70 -200 -105t-248 -35q-74 0 -150 11l-113 -592h-180zM387 745q71 -15 148 -15q185 0 300.5 102.5t115.5 261.5q0 64 -22 112.5t-62 77.5t-92.5 43t-117.5 14 q-101 0 -159 -15z" />
<glyph unicode="Q" horiz-adv-x="1463" d="M105 579q0 194 72 388.5t200 322.5q99 100 232 155.5t274 55.5q116 0 211 -33.5t158.5 -90.5t106.5 -135t62 -164t19 -181q0 -188 -68.5 -382.5t-190.5 -317.5q-59 -60 -134.5 -105t-147.5 -63v-10q257 -53 391 -74l-69 -152q-93 23 -199 53t-190 58t-124 46 q-79 29 -101 29q-105 6 -196 49.5t-159.5 118t-107.5 186t-39 246.5zM295 587q0 -60 9 -115t28 -107t50.5 -94.5t73 -74.5t100 -49.5t128.5 -17.5q195 0 341 143q103 103 163.5 281t60.5 339q0 39 -3.5 75.5t-12 77t-23 76.5t-35 71t-51 63t-68 49t-88 32.5t-109.5 11.5 q-190 0 -336 -145q-104 -104 -166 -279.5t-62 -336.5z" />
<glyph unicode="R" horiz-adv-x="1145" d="M67 0l280 1455q139 33 322 33q234 0 352 -108q110 -96 110 -243q0 -79 -28.5 -150.5t-77.5 -125.5t-111.5 -93.5t-133.5 -59.5l-2 -5q147 -50 165 -295q13 -180 22.5 -273.5t23.5 -134.5h-189q-6 24 -16.5 128t-18.5 229q-8 151 -64.5 219t-167.5 68h-163l-121 -644h-182 zM399 784h162q67 0 127 17t106 47.5t79 71.5t50.5 90.5t17.5 102.5q0 76 -37.5 128.5t-100.5 77t-148 24.5q-91 0 -153 -15z" />
<glyph unicode="S" horiz-adv-x="1020" d="M27 79l65 149q140 -94 314 -94q85 0 156.5 31t117 95t45.5 150q0 83 -51 148.5t-166 127.5q-145 79 -219 171.5t-74 207.5q0 97 40 179t108 137.5t159 86.5t193 31q99 0 178 -23t123 -54l-65 -149q-27 17 -60.5 31.5t-87 26.5t-109.5 12q-53 0 -99.5 -13.5t-81 -36.5 t-59.5 -53.5t-38 -66t-13 -71.5q0 -59 26.5 -106.5t74 -84.5t129.5 -83q142 -76 211.5 -170.5t69.5 -226.5q0 -76 -23.5 -145t-69 -125.5t-109 -98t-148.5 -64.5t-183 -23q-107 2 -207 32t-147 72z" />
<glyph unicode="T" horiz-adv-x="1037" d="M142 1319l31 158h1048l-31 -158h-434l-250 -1319h-182l251 1319h-433z" />
<glyph unicode="U" horiz-adv-x="1359" d="M163 412q0 102 19 203l165 862h182l-167 -875q-17 -97 -17 -186q0 -92 34 -156.5t95 -96t144 -31.5q324 0 412 468l168 877h182l-168 -883q-25 -131 -67 -233.5t-97 -175t-125.5 -119.5t-152 -69t-176.5 -22q-93 0 -170 26t-136.5 78t-92 137t-32.5 196z" />
<glyph unicode="V" horiz-adv-x="1180" d="M184 1477h184l107 -946q27 -236 29 -334h6q86 210 163 357l469 923h201l-778 -1477h-199z" />
<glyph unicode="W" horiz-adv-x="1815" d="M213 1477h184l30 -885q2 -78 2.5 -174t-2.5 -211h4q61 165 154 374l410 896h193l31 -850q5 -163 5 -293q0 -65 -1 -123h4q70 203 145 379l397 887h190l-684 -1477h-192l-38 839q-5 116 -5 191v24q1 80 10 211h-7q-86 -253 -148 -389l-415 -876h-195z" />
<glyph unicode="X" horiz-adv-x="1141" d="M-65 0l575 751l-276 726h191l140 -379q57 -162 75 -224h4q98 149 151 224l284 379h216l-570 -723l296 -754h-193l-140 366q-56 138 -94 259h-4q-104 -159 -174 -255l-265 -370h-216z" />
<glyph unicode="Y" horiz-adv-x="1132" d="M184 1477h195l142 -478q45 -158 62 -248h4q9 15 38.5 64t58.5 95.5t61 95.5l320 471h213l-630 -862l-115 -615h-180l116 613z" />
<glyph unicode="Z" horiz-adv-x="1145" d="M-44 0l19 111l1004 1204l-2 6h-701l31 156h946l-24 -118l-995 -1196l2 -8h776l-28 -155h-1028z" />
<glyph unicode="[" horiz-adv-x="621" d="M42 -243l332 1746h385l-23 -118h-236l-287 -1510h234l-22 -118h-383z" />
<glyph unicode="\" horiz-adv-x="720" d="M134 1501h142l403 -1589h-142z" />
<glyph unicode="]" horiz-adv-x="621" d="M-94 -243l21 118h238l287 1510h-235l22 118h384l-334 -1746h-383z" />
<glyph unicode="^" horiz-adv-x="1305" d="M151 414l443 1010l134 -2l443 -1008h-150l-360 851h-4l-358 -851h-148z" />
<glyph unicode="_" horiz-adv-x="1095" d="M-129 -274l22 109h1096l-23 -109h-1095z" />
<glyph unicode="`" horiz-adv-x="838" d="M316 1503h205l146 -313h-132z" />
<glyph unicode="a" horiz-adv-x="1143" d="M67 326q0 93 23 185t65 176.5t107 157t144.5 126t181.5 84t214 30.5q149 0 287 -40l-110 -554q-25 -131 -36 -263q-9 -104 -9 -186q0 -22 1 -42h-170q0 74 24 274h-5q-153 -299 -412 -299q-139 0 -222 99t-83 252zM257 360q0 -48 9 -87.5t29 -74t56.5 -54t87.5 -19.5 q56 0 116 36t112 97.5t94 152.5t61 194l61 319q-46 17 -124 17q-101 0 -194.5 -49.5t-160.5 -130t-107 -186.5t-40 -215z" />
<glyph unicode="b" horiz-adv-x="1150" d="M101 247q0 72 20 167l228 1142h182l-140 -688h4q70 105 167 161t205 56q68 0 122.5 -22t91 -58.5t61 -86t35 -103.5t10.5 -112q0 -82 -19.5 -167t-56.5 -166.5t-95 -153t-129 -125t-164 -85t-196 -31.5q-57 0 -105.5 9.5t-89.5 30.5t-70 52.5t-45 77t-16 102.5zM287 274 q0 -38 11 -67t32.5 -48.5t53.5 -29.5t74 -10q79 0 150.5 35.5t123.5 94.5t90.5 132.5t57.5 151t19 149.5q0 51 -11.5 95t-35 79.5t-63.5 56t-92 20.5q-121 0 -227.5 -114.5t-145.5 -297.5l-23 -111q-14 -61 -14 -117v-19z" />
<glyph unicode="c" horiz-adv-x="926" d="M77 387q0 90 22 177.5t61.5 164t98 142t129.5 112.5t157.5 73.5t179.5 26.5q67 0 128.5 -15t93.5 -31l-52 -145q-84 39 -180 39q-67 0 -129 -21.5t-110.5 -58.5t-88.5 -87t-66.5 -108t-41 -121t-14.5 -125q0 -131 68 -207t196 -76q125 0 245 59l17 -142 q-50 -26 -129.5 -45.5t-176.5 -19.5q-100 0 -179 31.5t-128.5 88t-75 129.5t-25.5 159z" />
<glyph unicode="d" horiz-adv-x="1150" d="M71 362q0 93 22.5 184t63.5 170.5t101 148t131 117t158 76t178 27.5q33 0 68.5 -5t66.5 -13.5t54 -18.5l94 508h180l-232 -1219q-36 -206 -44 -337h-167l29 211h-5q-72 -114 -170.5 -175t-211.5 -61q-100 0 -173 52t-108 138t-35 197zM259 385q0 -40 5.5 -76t20 -70.5 t36.5 -59t57 -39.5t80 -15q52 0 108 29t105 80t87 127t55 162l70 372q-61 46 -173 46q-92 0 -177 -47.5t-144.5 -124.5t-94.5 -178t-35 -206z" />
<glyph unicode="e" horiz-adv-x="991" d="M73 403q0 96 26.5 194t78.5 185t121 155t160.5 108t191.5 40q146 0 228.5 -77.5t82.5 -196.5q0 -81 -36.5 -143t-98.5 -100.5t-153 -62.5q-90 -24 -192 -32q-81 -6 -177 -6h-48q-5 -18 -5 -47q0 -22 3 -50q6 -65 23 -105q21 -47 56 -79t80 -47.5t101 -15.5q153 0 285 72 l26 -136q-65 -36 -157.5 -60t-193.5 -24q-102 0 -180.5 34t-126 93t-71.5 135t-24 166zM276 607h37q55 0 101 2q62 3 121.5 11t104 23.5t78 37.5t51 54.5t17.5 73.5q0 63 -44 98.5t-117 35.5q-51 0 -98.5 -19t-86 -51.5t-71.5 -75.5t-56 -91t-37 -99z" />
<glyph unicode="f" horiz-adv-x="619" d="M86 0l175 918h-142l28 142h140l12 57q46 255 172 369q50 45 116.5 69.5t135.5 24.5q95 0 147 -28l-40 -145q-43 19 -107 19q-190 0 -246 -315l-8 -51h234l-26 -142h-236l-173 -918h-182z" />
<glyph unicode="g" horiz-adv-x="1148" d="M21 -383l52 142q31 -21 75.5 -36.5t97.5 -24.5t107 -9q70 0 127.5 19t107.5 61t87 116.5t59 179.5l35 161h-4q-70 -112 -164 -169t-204 -57q-78 0 -141 31t-102.5 83t-60 117t-20.5 137q0 108 30 212.5t89 195.5t139 160t187 109t227 40q88 0 181.5 -21.5t160.5 -53.5 l-165 -876q-32 -175 -82 -290t-130 -185q-138 -117 -371 -117q-95 0 -181.5 20.5t-136.5 54.5zM263 399q0 -38 5 -72.5t19 -68.5t36.5 -58.5t59.5 -40t84 -15.5q75 0 150 58t129 150.5t74 195.5l67 355q-83 35 -174 35q-78 0 -149 -30.5t-124.5 -84t-94 -122t-61.5 -146.5 t-21 -156z" />
<glyph unicode="h" horiz-adv-x="1169" d="M61 0l296 1556h182l-131 -682h4q69 100 165.5 155.5t213.5 55.5q31 0 61.5 -6.5t60.5 -20t55 -36.5t44.5 -53.5t30.5 -73.5t11 -95q0 -93 -17 -177l-119 -623h-182l119 613q13 75 13 148q0 77 -40.5 124.5t-124.5 47.5q-53 0 -110 -29.5t-107 -81t-89.5 -127.5 t-55.5 -162l-98 -533h-182z" />
<glyph unicode="i" horiz-adv-x="500" d="M61 0l204 1060h180l-202 -1060h-182zM299 1355q1 52 35 87t82 35q49 0 79.5 -32.5t30.5 -81.5q0 -21 -6.5 -40.5t-17.5 -34.5t-26 -25.5t-34 -16.5t-41 -6q-46 0 -74 32.5t-28 82.5z" />
<glyph unicode="j" horiz-adv-x="496" d="M-243 -445l22 142q25 -8 83 -8q36 0 65 12.5t56 42.5t48 85t36 136l209 1095h180l-201 -1058q-26 -134 -58 -219.5t-78 -137.5q-44 -51 -108 -77t-136 -26q-78 0 -118 13zM299 1355q1 52 35.5 87t83.5 35q48 0 78 -32.5t30 -81.5q0 -21 -6.5 -40.5t-17.5 -34.5t-26 -25.5 t-34 -16.5t-41 -6q-46 0 -74 32.5t-28 82.5z" />
<glyph unicode="k" horiz-adv-x="998" d="M61 0l296 1556h182l-186 -975h4q42 50 99 107l372 372h226l-462 -435l315 -625h-199l-256 523l-134 -120l-77 -403h-180z" />
<glyph unicode="l" horiz-adv-x="500" d="M63 0l297 1556h181l-296 -1556h-182z" />
<glyph unicode="m" horiz-adv-x="1769" d="M63 0l140 751q36 198 50 309h159l-27 -199h6q72 110 168.5 167t203.5 57q116 0 178 -65t69 -171q70 114 170 174t218 62q49 0 93 -16t82 -48t60.5 -87.5t22.5 -126.5q0 -86 -17 -180l-119 -627h-177l114 611q15 73 15 138q0 89 -37 136.5t-122 47.5q-40 0 -81.5 -17.5 t-80.5 -51.5t-73 -80.5t-60 -108.5t-39 -131l-101 -544h-175l119 623q13 72 13 128q0 30 -3.5 54t-14 49t-27 41.5t-45.5 27t-68 10.5q-49 0 -102.5 -31t-101 -84t-84.5 -128t-52 -157l-96 -533h-178z" />
<glyph unicode="n" horiz-adv-x="1169" d="M63 0l140 751q33 160 52 309h161l-25 -207h4q46 73 108.5 125.5t134.5 79.5t148 27q40 0 77.5 -9t73 -31t61.5 -55t42 -84t16 -115q0 -68 -19 -170l-119 -621h-180l117 613q13 84 13 136q0 184 -167 184q-49 0 -104.5 -29t-106.5 -81t-92 -133t-59 -175l-96 -515h-180z " />
<glyph unicode="o" horiz-adv-x="1143" d="M77 412q0 104 27.5 204.5t80.5 184.5t123.5 148t163 100t192.5 36q84 0 153.5 -24.5t117.5 -66.5t81.5 -98.5t49 -119.5t15.5 -132q0 -98 -26.5 -195t-78.5 -182t-122.5 -150.5t-164.5 -103.5t-198 -38q-78 0 -144.5 22.5t-116 63t-84 95t-52 119.5t-17.5 137zM265 418 q0 -131 68 -214t182 -83q52 0 102 21.5t91 59t76 88.5t58.5 108.5t36.5 121t13 124.5q0 39 -7 78t-25.5 79.5t-45.5 70.5t-71 49.5t-99 19.5q-82 0 -154.5 -47.5t-120.5 -123t-76 -168t-28 -184.5z" />
<glyph unicode="p" horiz-adv-x="1150" d="M-33 -434l213 1118q36 191 59 379h167l-29 -202h4q71 106 171.5 165t210.5 59q66 0 121 -21.5t92 -57.5t62.5 -85.5t37 -104.5t11.5 -115q0 -111 -30 -219t-87 -198.5t-132 -160t-171.5 -109t-199.5 -39.5q-145 0 -228 50h-5l-85 -459h-182zM265 178q76 -59 204 -59 q85 0 165.5 50t137.5 130t92 183t35 206q0 29 -4.5 57t-14 56t-26 51.5t-38 41.5t-53 28.5t-69.5 10.5q-54 0 -111 -30.5t-108.5 -87t-93 -145.5t-61.5 -197z" />
<glyph unicode="q" horiz-adv-x="1150" d="M71 362q0 66 12 132.5t35 130t57.5 122.5t77.5 110t97.5 93t115 72t132 46.5t147.5 16.5q97 0 185.5 -20.5t154.5 -50.5l-274 -1448h-182l130 627h-5q-66 -103 -166 -160.5t-203 -57.5q-77 0 -137.5 31t-99 84.5t-58 122.5t-19.5 149zM259 383q0 -61 13 -109.5t37 -81 t58 -50t76 -17.5q83 0 162 57t134.5 151t75.5 202l68 366q-65 37 -175 37q-89 0 -172 -45.5t-143.5 -121t-97 -177.5t-36.5 -211z" />
<glyph unicode="r" horiz-adv-x="696" d="M63 0l130 684q29 165 52 376h161q-10 -79 -29 -230h6q35 75 82.5 131t110.5 90t132 34q23 0 53 -4l-36 -180q-25 4 -50 4q-77 0 -148 -58t-122 -157.5t-74 -222.5l-88 -467h-180z" />
<glyph unicode="s" horiz-adv-x="816" d="M19 50l54 134q42 -26 104.5 -45.5t123.5 -19.5q90 0 145.5 49.5t55.5 122.5q0 63 -33 106.5t-116 89.5q-46 25 -81.5 55.5t-59.5 64.5t-36.5 72.5t-12.5 79.5q0 139 108 232.5t275 93.5q68 0 128.5 -15.5t92.5 -36.5l-50 -138q-84 48 -184 48q-82 0 -135 -46t-53 -115 q0 -28 9 -52.5t28 -46t45 -40t64 -38.5q93 -51 145 -121.5t52 -157.5q0 -108 -54.5 -188t-145 -119.5t-203.5 -39.5q-83 1 -155.5 21.5t-110.5 49.5z" />
<glyph unicode="t" horiz-adv-x="685" d="M125 918l26 142h152l36 198l192 57l-48 -255h253l-28 -142h-254l-97 -515q-22 -103 -22 -169q0 -102 102 -102q51 0 84 8l-8 -142q-50 -19 -141 -19q-58 0 -102 16.5t-70 45.5t-38.5 65t-12.5 78q0 70 24 197l103 537h-151z" />
<glyph unicode="u" horiz-adv-x="1152" d="M111 282q0 68 21 180l115 598h180l-111 -591q-17 -94 -17 -155q0 -185 168 -185q49 0 103 28.5t101.5 78t85.5 123.5t54 158l103 543h182l-143 -751q-25 -122 -48 -309h-162l26 199h-4q-71 -104 -169.5 -164t-202.5 -60q-44 0 -82 9t-75.5 30.5t-64.5 55.5t-43.5 88.5 t-16.5 123.5z" />
<glyph unicode="v" horiz-adv-x="996" d="M113 1060h186l92 -604q5 -44 13.5 -103.5t13 -95.5t5.5 -62h6q66 152 115 248l322 617h199l-590 -1060h-176z" />
<glyph unicode="w" horiz-adv-x="1548" d="M134 1060h180l37 -596q5 -84 5 -182q0 -49 -1 -102h7q46 127 115 265l314 615h160l65 -604q19 -198 19 -276h4q55 163 101 269l286 611h184l-523 -1060h-169l-69 577q-17 147 -17 282h-4q-10 -24 -30 -71.5t-30.5 -72.5t-28 -62t-34.5 -70l-304 -583h-169z" />
<glyph unicode="x" horiz-adv-x="966" d="M-81 0l464 546l-245 514h197l104 -232q17 -38 40 -94.5t31 -74.5h5q8 12 19 27.5t18.5 26.5t17 24.5t18.5 25.5t20 26.5t23 30.5l197 240h209l-447 -516l251 -544h-199l-105 239q-36 76 -77 188h-6q-48 -77 -109 -162l-216 -265h-210z" />
<glyph unicode="y" horiz-adv-x="966" d="M-88 -328q113 36 195 100q124 93 207 245q10 21 4 48l-213 995h188l106 -569q32 -158 48 -280h5q83 195 113 260l272 589h193l-399 -805q-95 -191 -180 -324.5t-186 -233.5q-79 -80 -163.5 -125.5t-143.5 -58.5z" />
<glyph unicode="z" horiz-adv-x="908" d="M-46 0l19 111l516 575q104 114 221 219v7h-543l30 148h761l-25 -119l-506 -567q-116 -124 -218 -219l-2 -6h588l-30 -149h-811z" />
<glyph unicode="{" horiz-adv-x="621" d="M73 577l19 111q43 0 76.5 10t54.5 25t36 37.5t22 43.5t12 47q10 57 17.5 179t20.5 187q27 146 117.5 216t230.5 70h51l-22 -118h-39q-159 0 -198 -189q-8 -44 -11 -101.5t-6 -116.5t-11 -106q-12 -71 -40.5 -121t-67.5 -77.5t-92 -40.5v-4q60 -18 89.5 -59t29.5 -97 q0 -89 -55 -243q-27 -72 -42.5 -125.5t-15.5 -93.5q0 -62 32 -98.5t100 -37.5h40l-24 -118h-40q-118 0 -187 57.5t-69 166.5q0 39 10 87t20 80.5t29 85.5q20 57 29 85t18.5 69t9.5 70q0 15 -2.5 29t-11 31.5t-23.5 30t-42.5 20.5t-64.5 8z" />
<glyph unicode="|" horiz-adv-x="475" d="M209 -548v2192h136v-2192h-136z" />
<glyph unicode="}" horiz-adv-x="621" d="M-79 -243l22 118h40q82 0 130 48t67 140q9 53 14 159.5t15 162.5q34 197 199 240v4q-60 18 -89.5 60t-29.5 97q0 17 3 38t6 36t10.5 42t11 38.5t14 44t13.5 40.5q54 158 54 222q0 62 -32 99t-99 39h-40l25 118h38q78 0 135 -24.5t89.5 -75t32.5 -123.5q0 -98 -57 -261 q-19 -50 -29.5 -81.5t-20 -71t-9.5 -69.5q0 -15 2.5 -28.5t11.5 -30.5t24 -29t42.5 -20t64.5 -7l-20 -113q-43 0 -77 -9.5t-54.5 -24.5t-35.5 -37.5t-22.5 -43t-12.5 -46.5q-10 -57 -17 -179.5t-20 -186.5q-27 -145 -118 -215t-231 -70h-50z" />
<glyph unicode="~" horiz-adv-x="1305" d="M138 464q-5 155 69 240t190 85q41 0 84 -9.5t94 -30.5t115 -55q62 -31 101 -48.5t84.5 -30.5t84.5 -13q115 0 119 180h128q4 -87 -15 -151.5t-55.5 -101t-81.5 -54t-99 -17.5q-120 0 -305 96q-40 21 -66 33.5t-61.5 27.5t-67.5 22t-61 7q-57 0 -90.5 -47.5t-34.5 -132.5 h-132z" />
<glyph unicode="&#xa2;" d="M178 605q0 123 43 237t115.5 199.5t171.5 143t209 71.5l39 218h133l-40 -214q51 0 109.5 -16t89.5 -37l-64 -140q-83 50 -208 50q-76 0 -149.5 -38t-130 -103t-91.5 -158.5t-35 -196.5q0 -128 71.5 -208t200.5 -80q114 0 226 50l17 -138q-39 -22 -108.5 -38.5 t-138.5 -18.5l-42 -219h-134l44 221q-164 28 -251 147q-77 110 -77 268z" />
<glyph unicode="&#xa3;" d="M52 0l21 111q105 50 182.5 147t104.5 209q15 63 19 179h-197l27 138h172q4 156 27 270q38 185 156 290t297 105q65 0 118.5 -15t83.5 -36l-55 -140q-71 37 -165 37q-74 0 -130.5 -34t-90 -92t-47.5 -139q-19 -109 -19 -246h325l-26 -138h-305q-9 -110 -24 -173 q-44 -189 -202 -313v-5h638l-29 -155h-881z" />
<glyph unicode="&#xa5;" d="M94 385l19 108h321l30 160h-320l23 108h267l-225 663h186l128 -451q7 -26 18.5 -67t19.5 -72.5t14 -62.5h8q54 103 122 206l309 447h200l-499 -663h264l-19 -108h-324l-31 -160h324l-22 -108h-322l-72 -385h-172l73 385h-320z" />
<glyph unicode="&#xa8;" horiz-adv-x="838" d="M274 1357q0 32 15 58.5t41 41.5t57 15t55 -14.5t36.5 -38.5t12.5 -54q0 -48 -32.5 -82t-81.5 -34q-44 0 -73.5 31t-29.5 77zM675 1357q0 16 4 31t11.5 27.5t18 23.5t23 18t27 11t30.5 4q46 0 74.5 -30.5t28.5 -76.5q0 -48 -32.5 -82t-83.5 -34q-29 0 -52 14t-36 39 t-13 55z" />
<glyph unicode="&#xa9;" horiz-adv-x="1478" d="M140 745q0 137 52 262t140.5 215.5t212.5 144t262 53.5q134 0 255.5 -53.5t208.5 -144t137.5 -215.5t50.5 -262q0 -139 -50.5 -265t-138 -217t-209 -144.5t-256.5 -53.5q-137 0 -260.5 53.5t-212 144.5t-140.5 217t-52 265zM247 738q0 -121 43.5 -229t117.5 -185.5 t177 -123t217 -45.5q115 -1 217 44t175 123.5t115.5 188.5t42.5 234q0 121 -42.5 229.5t-116 186.5t-176 123.5t-217.5 45.5q-114 0 -216.5 -45.5t-176 -124t-117 -188.5t-43.5 -234zM439 732q0 91 34 168.5t91.5 129t133 81t157.5 29.5q81 0 149 -18.5t94 -40.5l-27 -88 q-95 52 -214 52q-147 0 -226 -85t-79 -222q0 -87 34.5 -156t105.5 -111t167 -42q66 0 126 16.5t100 43.5l24 -83q-104 -71 -270 -71q-124 0 -216 53t-138 142t-46 202z" />
<glyph unicode="&#xab;" horiz-adv-x="895" d="M73 552l324 404h157l-330 -408l221 -399h-144zM431 552l323 404h160l-333 -408l224 -399h-148z" />
<glyph unicode="&#xad;" horiz-adv-x="671" d="M79 521l26 140h524l-27 -140h-523z" />
<glyph unicode="&#xae;" horiz-adv-x="864" d="M184 1137q0 75 29 141.5t78.5 114.5t118.5 76t146 28q100 0 184 -47.5t132 -130.5t48 -182q0 -74 -28.5 -141t-77 -115t-116.5 -76.5t-144 -28.5q-101 0 -186.5 48t-134.5 131t-49 182zM276 1137q0 -121 79.5 -203.5t198.5 -82.5q77 -1 140.5 37t98.5 103.5t35 143.5 q0 122 -78.5 205.5t-199.5 83.5q-76 0 -139 -38.5t-99 -104.5t-36 -144zM412 951v360q83 10 138 10q84 0 125 -28q38 -27 38 -76q0 -32 -21 -54t-54 -32v-4q25 -8 39.5 -29t23.5 -59q11 -56 27 -88h-88q-11 13 -29 88q-5 28 -22.5 41.5t-51.5 13.5h-42v-143h-83zM498 1152 h39q39 0 62.5 13t23.5 40q0 26 -20 40.5t-59 14.5q-25 0 -46 -4v-104z" />
<glyph unicode="&#xb4;" horiz-adv-x="838" d="M443 1190l214 313h219l-291 -313h-142z" />
<glyph unicode="&#xb8;" horiz-adv-x="838" d="M57 -403l39 94q52 -30 115 -30q40 0 68 21t28 57q0 69 -144 86l126 179h117l-86 -113q54 -13 86.5 -50.5t32.5 -89.5q0 -89 -70.5 -140.5t-169.5 -51.5q-42 0 -80.5 11t-61.5 27z" />
<glyph unicode="&#xbb;" horiz-adv-x="893" d="M15 149l334 410l-224 397h147l226 -404l-323 -403h-160zM374 149l331 410l-220 397h144l228 -404l-324 -403h-159z" />
<glyph unicode="&#x2c6;" horiz-adv-x="838" d="M282 1190l255 313h130l150 -313h-135l-95 199h-4l-154 -199h-147z" />
<glyph unicode="&#x2da;" horiz-adv-x="841" d="M366 1363q-1 63 28.5 112.5t82.5 77t119 27.5q59 0 106 -24t75 -70.5t28 -107.5q-1 -61 -33.5 -109.5t-83.5 -73t-111 -24.5q-90 0 -149.5 54t-61.5 138zM475 1370q0 -48 30 -82.5t76 -34.5q49 0 81 36.5t32 92.5q0 49 -29.5 82t-79.5 33q-47 0 -78.5 -36.5t-31.5 -90.5z " />
<glyph unicode="&#x2dc;" horiz-adv-x="838" d="M303 1244q11 99 55 159.5t113 60.5q9 0 17.5 -0.5t17 -2.5t14.5 -3.5t15 -5.5t13 -5.5t14 -7t13.5 -7t14.5 -8.5t15 -8q4 -3 15 -9.5t16 -9.5t14 -7.5t14.5 -6.5t13 -3.5t14.5 -1.5q15 0 25 4t18 15t13.5 28.5t10.5 44.5h102q-13 -105 -53.5 -157.5t-115.5 -52.5 q-57 0 -129 44q-2 1 -10.5 6.5t-10.5 6.5t-9.5 5.5t-10.5 6t-9.5 4.5t-10.5 4t-9.5 3t-11 2.5t-10.5 0.5q-26 0 -40 -25t-23 -74h-105z" />
<glyph unicode="&#x401;" horiz-adv-x="1029" d="M67 0l282 1477h753l-31 -156h-571l-90 -472h539l-31 -155h-537l-103 -539h607l-30 -155h-788zM452 1683q0 48 33 82t80 34q45 0 74.5 -32t29.5 -73q0 -48 -34 -82t-83 -34q-41 0 -70.5 30.5t-29.5 74.5zM857 1683q0 48 33 82t80 34q46 0 75 -32t29 -73q0 -48 -34 -82 t-82 -34q-42 0 -71.5 30.5t-29.5 74.5z" />
<glyph unicode="&#x402;" horiz-adv-x="1391" d="M144 1319l31 158h1085l-33 -158h-506l-79 -416h4q52 34 126 57.5t148 23.5q176 0 277.5 -125t101.5 -333q0 -178 -60.5 -344t-169.5 -276q-88 -91 -188.5 -142t-198.5 -67l-34 152q174 43 279 160q85 94 132 227t47 281q0 90 -26 159t-83.5 111.5t-141.5 42.5 q-119 0 -242 -81l-140 -749h-182l250 1319h-397z" />
<glyph unicode="&#x403;" horiz-adv-x="860" d="M71 0l280 1477h692l-31 -160h-510l-249 -1317h-182zM583 1556l222 259h238l-300 -259h-160z" />
<glyph unicode="&#x404;" horiz-adv-x="1200" d="M107 609q0 194 70 366.5t197 293.5q118 109 269 169.5t327 60.5q199 0 325 -71l-57 -146q-45 25 -120 43.5t-167 17.5q-156 0 -288.5 -66.5t-219.5 -184t-117 -268.5h707l-27 -147h-699q-6 -29 -6 -85q0 -63 12 -121t36.5 -110t62.5 -94t87 -73t113 -48t139 -17 q170 0 314 72l29 -144q-69 -36 -170.5 -59t-226.5 -23q-143 0 -255.5 47.5t-185.5 132.5t-111 200.5t-38 253.5z" />
<glyph unicode="&#x405;" horiz-adv-x="1020" d="M27 79l65 149q140 -94 314 -94q85 0 156.5 31t117 95t45.5 150q0 83 -51 148.5t-166 127.5q-145 79 -219 171.5t-74 207.5q0 97 40 179t108 137.5t159 86.5t193 31q99 0 178 -23t123 -54l-65 -149q-27 17 -60.5 31.5t-87 26.5t-109.5 12q-53 0 -99.5 -13.5t-81 -36.5 t-59.5 -53.5t-38 -66t-13 -71.5q0 -59 26.5 -106.5t74 -84.5t129.5 -83q142 -76 211.5 -170.5t69.5 -226.5q0 -76 -23.5 -145t-69 -125.5t-109 -98t-148.5 -64.5t-183 -23q-106 0 -206.5 31t-147.5 73z" />
<glyph unicode="&#x406;" horiz-adv-x="510" d="M65 0l282 1477h182l-282 -1477h-182z" />
<glyph unicode="&#x407;" horiz-adv-x="510" d="M65 0l282 1477h184l-284 -1477h-182zM163 1683q0 48 33 82t80 34q45 0 74 -32t29 -73q0 -48 -33.5 -82t-82.5 -34q-41 0 -70.5 30.5t-29.5 74.5zM567 1683q0 23 9 44.5t24.5 37t36.5 25t45 9.5q30 0 54 -15.5t36 -39.5t12 -50q0 -48 -33.5 -82t-81.5 -34q-42 0 -72 30.5 t-30 74.5z" />
<glyph unicode="&#x408;" horiz-adv-x="797" d="M-67 15l38 156q75 -33 186 -33q61 0 106.5 17t84 56.5t66 106.5t46.5 165l188 994h182l-192 -1017q-49 -257 -164 -371t-323 -114q-64 0 -126 12t-92 28z" />
<glyph unicode="&#x409;" horiz-adv-x="1892" d="M-83 134q46 3 101.5 30t88.5 62q167 159 253 629l117 622h811l-107 -555q66 13 171 13q101 0 184 -25.5t145 -75.5t97 -130t35 -183q0 -110 -41 -201t-114 -157q-95 -89 -239.5 -132.5t-303.5 -43.5q-173 0 -287 17l248 1317h-453l-86 -451q-53 -286 -130 -480.5 t-188 -291.5q-53 -51 -128.5 -83.5t-157.5 -33.5zM1035 144q50 -8 142 -8q66 0 129.5 14.5t121 44.5t100.5 72.5t68.5 103t25.5 131.5q0 75 -23.5 131t-66.5 89t-100 48.5t-128 15.5q-89 0 -152 -12z" />
<glyph unicode="&#x40a;" horiz-adv-x="1907" d="M71 0l280 1477h182l-117 -596h592l114 596h182l-110 -574q69 13 165 13q97 0 180.5 -25t148.5 -74.5t102.5 -129.5t37.5 -183q0 -208 -151 -349q-93 -87 -237 -127.5t-305 -40.5q-174 0 -292 17l139 728h-595l-138 -732h-178zM1050 142q56 -6 146 -6q89 0 168 23.5 t140.5 67.5t97 112t35.5 152q0 69 -26 122.5t-71.5 86.5t-103.5 50t-125 17q-75 0 -145 -11z" />
<glyph unicode="&#x40b;" horiz-adv-x="1424" d="M144 1321l34 156h1073l-30 -156h-504l-84 -434h5q54 39 143 69.5t189 32.5q81 0 143 -25.5t100 -70.5t57.5 -103.5t19.5 -128.5q0 -90 -25 -218l-82 -443h-179l83 434q22 113 22 187q0 44 -12 80t-37 66.5t-70 47.5t-107 17q-77 0 -154.5 -30.5t-126.5 -69.5l-138 -732 h-177l250 1321h-393z" />
<glyph unicode="&#x40c;" horiz-adv-x="1145" d="M67 0l282 1477h180l-128 -666h46l609 666h224l-667 -691q75 -13 131 -48t94 -91.5t62.5 -124t42.5 -158.5q7 -37 16.5 -95.5t16 -97.5t17.5 -86.5t23 -84.5h-188q-9 29 -19 75t-16 81.5t-16 98t-14 86.5q-17 90 -41 149.5t-63.5 103.5t-98 63.5t-142.5 19.5h-41 l-130 -677h-180zM655 1556l221 259h239l-298 -259h-162z" />
<glyph unicode="&#x40e;" horiz-adv-x="1083" d="M67 4l38 151q39 -17 104 -17q47 0 90.5 20.5t79 56.5t62.5 74t50 83q12 22 14 39.5t-7 48.5l-308 1017h197l182 -662q40 -145 67 -259h4q29 63 74.5 164t65.5 143l285 614h204l-357 -712q-56 -112 -94 -185t-95.5 -175t-111.5 -177.5t-105 -124.5q-127 -128 -291 -128 q-84 0 -148 29zM500 1817h140q-1 -28 5.5 -51t20.5 -41.5t38 -29t57 -10.5q126 0 157 132h145q-23 -104 -104.5 -167t-207.5 -63q-130 0 -191.5 62.5t-59.5 167.5z" />
<glyph unicode="&#x40f;" horiz-adv-x="1334" d="M67 0l282 1477h184l-253 -1322h640l253 1322h179l-281 -1477h-404l-90 -379h-148l58 379h-420z" />
<glyph unicode="&#x410;" horiz-adv-x="1244" d="M-59 0l764 1477h213l207 -1477h-187l-62 467h-508l-234 -467h-193zM434 611h429l-56 428q-20 176 -27 272h-4q-6 -13 -50.5 -115t-70.5 -155z" />
<glyph unicode="&#x411;" horiz-adv-x="1136" d="M71 4l278 1473h745l-29 -156h-563l-77 -407q58 15 169 15q98 0 180.5 -26t144 -75.5t96.5 -129t35 -181.5q0 -234 -172 -377q-63 -53 -149.5 -88t-177.5 -50t-189 -15q-174 0 -291 17zM278 142q47 -10 147 -10q53 0 105.5 10.5t101 30.5t90.5 51t73 70t48.5 90.5 t17.5 108.5q0 145 -84.5 218t-232.5 73q-64 0 -147 -13z" />
<glyph unicode="&#x412;" horiz-adv-x="1138" d="M73 11l268 1446q167 31 318 31q229 0 340 -101q107 -86 107 -230q0 -69 -26 -131t-70 -109t-100.5 -80.5t-118.5 -50.5v-4q105 -32 173.5 -117t68.5 -211q0 -108 -49 -197t-127 -148q-162 -120 -480 -120q-192 0 -304 22zM276 144q61 -8 149 -8q66 0 125.5 11t113.5 36 t92.5 62t61.5 92.5t23 124.5q0 63 -25 112t-69 78.5t-99 45t-119 15.5h-150zM408 851h136q106 0 190.5 34t134 100.5t49.5 154.5q0 103 -71 153t-196 50q-108 0 -151 -13z" />
<glyph unicode="&#x413;" horiz-adv-x="860" d="M67 0l282 1477h694l-31 -160h-512l-251 -1317h-182z" />
<glyph unicode="&#x414;" horiz-adv-x="1316" d="M-155 -355l82 502l104 4q142 192 241 414q95 233 153 526l75 386h784l-249 -1326l124 -4l-118 -502h-149l59 355h-874l-86 -355h-146zM224 153h629l218 1168h-433l-55 -293q-57 -282 -144 -497q-100 -231 -215 -378z" />
<glyph unicode="&#x415;" horiz-adv-x="1029" d="M67 0l282 1477h753l-31 -156h-569l-90 -472h537l-31 -155h-537l-101 -539h605l-30 -155h-788z" />
<glyph unicode="&#x416;" horiz-adv-x="1689" d="M-52 0q31 49 63.5 111.5t75 151.5t62.5 128q41 79 77 135.5t77.5 104t87.5 78t102 50.5t125 30l-386 688h193l336 -668h44l122 668h173l-125 -668h48l572 668h211l-635 -691q48 -8 88.5 -27t71.5 -48t55 -64t42 -79.5t31 -88.5t24 -98q8 -42 20 -123.5t24 -142.5t29 -115 h-182q-14 48 -25 108t-22.5 137t-20.5 123q-14 80 -35.5 135t-56.5 95.5t-87.5 59.5t-124.5 19h-49l-127 -677h-175l125 677h-44q-98 0 -173 -37t-132 -107.5t-113 -187.5q-9 -19 -32.5 -68.5t-35.5 -74t-31.5 -64t-37 -72.5t-35.5 -66h-194z" />
<glyph unicode="&#x417;" horiz-adv-x="983" d="M-29 79l62 140q53 -33 140 -61.5t172 -28.5q71 0 134.5 21.5t111.5 60.5t75.5 99.5t27.5 134.5q0 53 -20 97t-53 74t-77 50.5t-91 30t-96 8.5l-83 -2l27 146h69q39 0 78.5 5t78 17t73 29t64 41t50.5 53.5t33 68t12 81.5q0 63 -28.5 111t-77.5 72.5t-112 24.5 q-137 0 -284 -85l-42 129q72 48 166 76.5t198 28.5q74 0 139.5 -20.5t117 -60.5t81.5 -104t30 -145q0 -61 -18 -115.5t-49.5 -97.5t-74 -78t-92 -58.5t-104.5 -37.5v-4q122 -27 198 -117t76 -224q0 -108 -43 -196.5t-117 -146.5t-172 -89.5t-210 -31.5q-102 0 -199.5 29 t-170.5 75z" />
<glyph unicode="&#x418;" horiz-adv-x="1378" d="M71 0l280 1477h172l-124 -662q-70 -363 -127 -583l4 -2q120 193 339 483l592 764h191l-281 -1477h-172l129 682q78 386 116 541l-4 2q-110 -181 -351 -497l-563 -728h-201z" />
<glyph unicode="&#x419;" horiz-adv-x="1378" d="M67 0l282 1477h174l-126 -662q-71 -363 -127 -583l4 -2q119 193 339 483l594 764h189l-279 -1477h-172l129 682q60 317 116 541l-7 2q-124 -205 -351 -497l-562 -728h-203zM648 1815h141q-2 -58 27.5 -95t93.5 -37q126 0 157 132h145q-22 -104 -103.5 -167t-207.5 -63 q-130 0 -192 62.5t-61 167.5z" />
<glyph unicode="&#x41a;" horiz-adv-x="1145" d="M67 0l282 1477h180l-128 -666h46l609 666h224l-667 -691q75 -13 131 -48t94 -91.5t62.5 -124t42.5 -158.5q7 -37 16.5 -95.5t16 -97.5t17.5 -86.5t23 -84.5h-188q-9 29 -19 75t-16 81.5t-16 98t-14 86.5q-17 90 -41 149.5t-63.5 103.5t-98 63.5t-142.5 19.5h-41 l-130 -677h-180z" />
<glyph unicode="&#x41b;" horiz-adv-x="1290" d="M-86 132q113 12 193 96q163 160 253 627l115 622h834l-284 -1477h-182l255 1321h-475l-86 -453q-58 -301 -133.5 -486t-182.5 -281q-47 -50 -122 -84.5t-166 -37.5z" />
<glyph unicode="&#x41c;" horiz-adv-x="1708" d="M29 0l383 1477h232l117 -846q29 -251 34 -370h7q67 157 173 364l456 852h239l-189 -1477h-175l105 797q40 292 80 500h-8q-122 -270 -230 -475l-440 -813h-138l-110 796q-33 265 -46 492h-6q-8 -34 -49.5 -226t-62.5 -274l-202 -797h-170z" />
<glyph unicode="&#x41d;" horiz-adv-x="1373" d="M67 0l282 1477h182l-119 -622h679l118 622h182l-280 -1477h-182l129 694h-677l-132 -694h-182z" />
<glyph unicode="&#x41e;" horiz-adv-x="1463" d="M105 577q0 127 31.5 256t92 247t143.5 206q97 100 231.5 157.5t277.5 57.5q116 0 210.5 -32.5t158.5 -89t107.5 -134t63 -164.5t19.5 -184q0 -192 -67 -382t-187 -318q-101 -107 -233.5 -164.5t-288.5 -57.5q-111 0 -204 32.5t-157.5 89t-110 133t-66.5 164t-21 183.5z M295 592q0 -75 13.5 -141t43.5 -125.5t75.5 -102.5t113 -68.5t151.5 -25.5q92 0 178.5 44.5t153.5 120t118.5 172t79 206t27.5 215.5q0 48 -4.5 92t-16.5 91.5t-31 87t-50 75.5t-70.5 61t-95.5 39.5t-124 14.5q-69 0 -135 -24t-121 -66.5t-103.5 -100t-85 -125.5t-63 -141.5 t-40.5 -150t-14 -148.5z" />
<glyph unicode="&#x41f;" horiz-adv-x="1338" d="M67 0l282 1477h1008l-281 -1477h-181l253 1321h-646l-253 -1321h-182z" />
<glyph unicode="&#x420;" horiz-adv-x="1110" d="M67 0l280 1455q140 33 320 33q111 0 206 -28.5t155 -85.5q107 -96 107 -268q0 -117 -50 -218t-127 -167q-83 -70 -200 -105t-248 -35q-74 0 -150 11l-113 -592h-180zM387 745q71 -15 148 -15q185 0 300.5 102.5t115.5 261.5q0 64 -22 112.5t-62 77.5t-92.5 43t-117.5 14 q-101 0 -159 -15z" />
<glyph unicode="&#x421;" horiz-adv-x="1215" d="M107 590q0 210 82 398t232 314q232 197 558 197q111 0 197.5 -22t122.5 -49l-59 -146q-43 26 -119.5 42.5t-171.5 16.5q-115 0 -226.5 -43t-196.5 -121q-104 -98 -164.5 -247t-60.5 -315q0 -82 14.5 -152t48.5 -131.5t85 -105t127.5 -68t172.5 -24.5q56 0 112.5 7 t110 21.5t93.5 34.5l24 -149q-155 -69 -384 -69q-278 0 -438 163.5t-160 447.5z" />
<glyph unicode="&#x422;" horiz-adv-x="1037" d="M142 1319l31 158h1048l-31 -158h-434l-250 -1319h-182l251 1319h-433z" />
<glyph unicode="&#x423;" horiz-adv-x="1083" d="M67 4l38 151q39 -17 104 -17q47 0 90.5 20.5t79 56.5t62.5 74t50 83q12 22 14 39.5t-7 48.5l-308 1017h197l182 -662q40 -145 67 -259h4q29 62 73.5 163t64.5 144l287 614h204l-357 -712q-8 -14 -22 -43q-58 -113 -92 -177t-89 -161.5t-105 -166t-98 -114.5 q-130 -128 -291 -128q-88 0 -148 29z" />
<glyph unicode="&#x424;" horiz-adv-x="1537" d="M121 644q0 114 24 215t66 178.5t99 141.5t123 108.5t138.5 75t144 44t141.5 13.5l24 114h171l-22 -121q99 -13 183.5 -56t150.5 -114t103.5 -178.5t37.5 -240.5q0 -143 -38.5 -266t-107 -212.5t-161 -153t-201 -96t-226.5 -33.5l-22 -120h-172l23 130q-77 11 -146.5 39.5 t-131 77t-106 113.5t-70 152.5t-25.5 188.5zM307 653q0 -184 88.5 -299.5t231.5 -144.5l203 1075q-72 -1 -145 -27.5t-141 -79.5t-121 -126t-84.5 -176.5t-31.5 -221.5zM800 199q123 5 222 56t164 136.5t100 200t35 247.5q0 189 -88 303.5t-231 135.5z" />
<glyph unicode="&#x425;" horiz-adv-x="1141" d="M-65 0l575 751l-276 726h191l140 -379q45 -119 75 -224h4q98 149 151 224l284 379h216l-570 -723l296 -754h-193l-140 366q-56 138 -94 259h-4q-104 -159 -174 -255l-265 -370h-216z" />
<glyph unicode="&#x426;" horiz-adv-x="1357" d="M71 0l280 1477h182l-253 -1322h642l253 1322h180l-253 -1326l125 -4l-118 -502h-149l59 355h-948z" />
<glyph unicode="&#x427;" horiz-adv-x="1215" d="M190 846q0 59 27 206l82 425h181l-81 -425q-22 -104 -22 -167q0 -106 64 -159t182 -53q86 0 167.5 28.5t127.5 63.5l134 712h180l-281 -1486h-180l116 614h-4q-36 -21 -83 -39t-114 -31.5t-132 -13.5q-170 0 -267 87t-97 238z" />
<glyph unicode="&#x428;" horiz-adv-x="1774" d="M67 0l282 1477h180l-253 -1322h454l249 1322h180l-252 -1322h454l251 1322h180l-282 -1477h-1443z" />
<glyph unicode="&#x429;" horiz-adv-x="1796" d="M67 0l282 1477h182l-255 -1322h454l249 1322h182l-254 -1322h454l251 1322h180l-253 -1326l124 -4l-116 -502h-151l59 355h-1388z" />
<glyph unicode="&#x42a;" horiz-adv-x="1353" d="M142 1319l31 158h586l-106 -555q87 13 167 13q100 0 183.5 -25.5t145.5 -76t96.5 -130t34.5 -182.5q0 -219 -149 -361q-94 -89 -236 -131t-312 -42q-147 0 -284 15l249 1317h-406zM504 144q50 -8 147 -8q65 0 127 14t118.5 43.5t99.5 72t68 103t25 131.5q0 96 -40 161 t-109.5 95t-165.5 30q-64 0 -151 -15z" />
<glyph unicode="&#x42b;" horiz-adv-x="1577" d="M67 2l282 1475h182l-108 -555q65 13 169 13q55 0 105 -8t95.5 -25t84 -41.5t69.5 -58.5t52.5 -76t33 -94t11.5 -111q-3 -218 -146 -358q-184 -176 -542 -176q-150 0 -288 15zM274 147q44 -11 147 -11q63 0 124.5 14.5t117 44.5t98 71.5t67.5 101t25 127.5 q0 146 -83 218.5t-229 72.5q-75 0 -148 -15zM1125 0l282 1477h188l-282 -1477h-188z" />
<glyph unicode="&#x42c;" horiz-adv-x="1134" d="M71 2l278 1475h182l-108 -555q62 13 169 13q100 0 183 -25.5t145.5 -75.5t97 -130t34.5 -183q0 -219 -145 -356q-97 -92 -240 -135t-312 -43q-147 0 -284 15zM276 147q47 -11 147 -11q66 0 129 14.5t119 44t98.5 71.5t67 101.5t24.5 127.5q0 147 -85 219t-235 72 q-88 0 -146 -15z" />
<glyph unicode="&#x42d;" horiz-adv-x="1182" d="M-27 63l56 146q63 -35 147.5 -56t164.5 -21q84 0 160 19t137.5 54.5t113.5 84.5t90.5 109.5t65 130t39.5 145.5h-673l29 149h665q2 21 2 75q0 91 -28.5 171t-80.5 142t-134 97.5t-183 35.5q-76 0 -159 -17t-146 -46l-40 138q39 20 93 37.5t129 30.5t148 13q183 0 317 -78 t204.5 -221.5t70.5 -338.5q0 -188 -64 -367t-192 -310q-217 -211 -558 -211q-112 0 -212.5 25.5t-161.5 62.5z" />
<glyph unicode="&#x42e;" horiz-adv-x="1888" d="M67 0l284 1477h182l-121 -624h224q30 124 85.5 235.5t131.5 195.5q93 102 220 159.5t263 57.5q110 0 199 -32.5t150 -89t102.5 -134t60.5 -165.5t19 -185q0 -190 -64 -379.5t-177 -318.5q-96 -106 -221 -164t-270 -58q-105 0 -193.5 32.5t-150 88.5t-104 130.5 t-62.5 158.5t-20 174q0 61 10 138h-234l-132 -697h-182zM784 592q0 -62 9 -118t27 -108.5t48 -95t70 -74.5t96 -49.5t123 -17.5q86 0 167 44.5t144.5 120t111.5 172t73.5 206t25.5 215.5q0 48 -4 91.5t-15.5 91t-29 87t-46 75.5t-65.5 61.5t-90 40t-116 14.5 q-76 0 -148 -32.5t-129 -88.5t-105 -130.5t-79.5 -158.5t-49.5 -173t-18 -173z" />
<glyph unicode="&#x42f;" horiz-adv-x="1136" d="M-52 0q21 32 46.5 79t41.5 80.5t44.5 95t38.5 80.5q24 48 41.5 80t43.5 75t51 73t56.5 61t68.5 52t78 32v7q-51 14 -93.5 40t-77.5 64t-54.5 93t-19.5 121q0 120 56 212.5t145 150.5q168 92 408 92q171 0 333 -33l-274 -1455h-182l125 646h-116q-39 0 -74 -6.5t-64 -17 t-56.5 -29.5t-48 -36t-43 -46t-37 -50t-34.5 -57t-31.5 -59t-30.5 -63q-8 -16 -41 -86t-56 -114t-45 -82h-199zM401 1030q0 -80 43 -137.5t111.5 -84t152.5 -26.5q118 0 143 2l100 544q-54 15 -154 15q-80 0 -150 -19t-125.5 -55.5t-88 -98t-32.5 -140.5z" />
<glyph unicode="&#x430;" horiz-adv-x="1143" d="M71 326q0 112 31 221.5t94 206t150 171t205.5 117.5t253.5 43q150 0 284 -40l-107 -554q-25 -131 -36 -263.5t-8 -227.5h-171q0 74 24 274h-5q-157 -299 -412 -299q-138 0 -220.5 99t-82.5 252zM259 360q0 -48 9 -87.5t29 -74t56.5 -54t87.5 -19.5q56 0 116 36 t112.5 97.5t94 152.5t60.5 194l59 319q-46 17 -124 17q-58 0 -114 -17t-105 -47.5t-93 -72t-78 -92.5t-59 -108t-38 -119.5t-13 -124.5z" />
<glyph unicode="&#x431;" horiz-adv-x="1123" d="M103 471q0 218 65.5 419.5t182.5 343.5q44 53 91.5 95.5t100 72.5t102.5 52t112 37.5t116 25.5t126 20q102 13 178 41l-27 -160q-55 -20 -151 -36q-58 -8 -88.5 -13t-82 -15.5t-83 -21t-75 -28.5t-75 -39t-67 -51.5t-66.5 -67.5q-31 -39 -59.5 -89.5t-51.5 -107 t-37 -112.5h6q66 104 166.5 163.5t221.5 59.5q111 0 192 -53.5t120.5 -144.5t39.5 -207q0 -98 -23.5 -194.5t-72 -184t-115.5 -154.5t-160.5 -107t-199.5 -40q-127 0 -214.5 62.5t-129.5 172.5t-42 261zM285 423q0 -60 13 -113.5t40 -97.5t72 -69.5t103 -25.5q68 0 128 33 t101.5 87.5t71.5 123t44 139.5t14 138q0 57 -12.5 106.5t-37.5 89.5t-68 63t-99 23q-77 0 -150.5 -46.5t-127.5 -124.5q-42 -61 -67 -147t-25 -179z" />
<glyph unicode="&#x432;" horiz-adv-x="1042" d="M94 285q0 59 10.5 133t33 158t54 161t78 145.5t100.5 108.5q127 94 289 94q86 0 152 -25.5t106.5 -82t40.5 -138.5q0 -52 -23 -97t-61.5 -77t-79.5 -54t-86 -36v-8q41 -5 79 -22t69.5 -45t51 -72t19.5 -97q0 -62 -20.5 -114t-55.5 -90t-81 -67t-100.5 -46.5t-109.5 -26 t-111 -8.5q-355 0 -355 306zM278 301q0 -190 193 -190q72 0 133 24.5t100 74t39 114.5q0 88 -62 129.5t-162 41.5q-96 0 -220 -33q-21 -109 -21 -161zM322 590q76 9 127 17.5t116.5 26.5t107.5 41q109 66 109 149q0 62 -42 94.5t-109 32.5q-54 0 -100 -23t-77.5 -58 t-58.5 -86t-43 -95.5t-30 -98.5z" />
<glyph unicode="&#x433;" horiz-adv-x="803" d="M31 249q0 41 10 77.5t25 64.5t42 56t51.5 47t62.5 41.5t66 36.5t72 35q6 3 20 9q31 15 47 22.5t43.5 22.5t43 25.5t35.5 27t30.5 31.5t18 34.5t7.5 40.5q0 51 -37 85t-108 36q-94 2 -213 -58l-30 127q127 73 278 73q139 -3 213 -73t74 -186q0 -38 -9.5 -72t-24.5 -61 t-40 -53t-50.5 -45.5t-61.5 -41t-67 -36.5t-73 -35q-45 -21 -76 -37t-64.5 -38t-53 -43.5t-32.5 -49.5t-13 -59q0 -60 38.5 -96.5t116.5 -37.5q66 -2 135.5 20t119.5 51l28 -131q-60 -35 -147.5 -58.5t-170.5 -21.5q-143 3 -224.5 73.5t-81.5 196.5z" />
<glyph unicode="&#x434;" horiz-adv-x="1099" d="M73 397q0 91 22 184.5t67 179t106.5 152.5t148 107t183.5 40q80 0 142 -27.5t101.5 -76.5t59.5 -117h4q3 29 3 99q0 94 -28 190t-85 156q-54 56 -124.5 81.5t-183.5 35.5q-118 9 -180 21l-6 156q34 -7 71.5 -12t91 -9t65.5 -5q88 -9 154 -26.5t122 -48.5t100 -79 q78 -77 117 -205t39 -271q0 -80 -10 -166t-32 -179.5t-54.5 -179t-82 -163t-110 -134.5t-142.5 -91t-176 -34q-184 0 -283.5 113.5t-99.5 308.5zM261 399q0 -57 13 -106.5t38.5 -89.5t70 -63t102.5 -23q61 0 118 35t98 91.5t72 125t46.5 136t15.5 124.5q0 55 -14 105.5 t-40.5 92t-71 66.5t-100.5 25q-69 0 -128 -33.5t-99 -87.5t-68 -123t-41 -139t-12 -136z" />
<glyph unicode="&#x435;" horiz-adv-x="991" d="M73 403q0 96 26.5 194t78.5 185t121 155t160.5 108t191.5 40q146 0 228.5 -77.5t82.5 -196.5q0 -81 -36.5 -143t-98.5 -100.5t-153 -62.5t-192.5 -32t-224.5 -6q-8 -32 -2 -97t23 -105q21 -47 56 -79t80 -47.5t101 -15.5q153 0 285 72l26 -136q-65 -36 -157.5 -60 t-193.5 -24q-102 0 -180.5 34t-126 93t-71.5 135t-24 166zM276 607q75 -1 137.5 2t122 11t104 23.5t78 37.5t51 54.5t17.5 73.5q0 63 -44 98.5t-117 35.5q-51 0 -98.5 -19t-86 -51.5t-71.5 -75.5t-56 -91t-37 -99z" />
<glyph unicode="&#x436;" horiz-adv-x="1393" d="M-75 0q16 26 34.5 60.5t31.5 61t36.5 74t37.5 76.5q73 141 162.5 219t213.5 86l-299 483h199l246 -468h40l90 468h168l-92 -468h42l423 468h206l-473 -483q158 -25 214 -286q7 -29 19.5 -94t24 -114.5t24.5 -82.5h-173q-10 27 -20 64.5t-14.5 59t-13.5 71.5t-11 58 q-26 122 -78 174.5t-158 52.5h-34l-92 -480h-171l97 480h-26q-80 0 -141 -23.5t-107.5 -71.5t-87.5 -126q-23 -42 -48.5 -93.5t-46.5 -93.5t-39 -72h-184z" />
<glyph unicode="&#x437;" horiz-adv-x="876" d="M-40 67l53 132q128 -80 280 -80q49 0 96 11t88 33t66.5 60.5t25.5 88t-24.5 86t-66.5 56t-88.5 28.5t-98.5 9h-84l21 130h73q49 0 100 11t98 32.5t76.5 59t29.5 85.5q0 66 -49.5 102t-124.5 36q-61 0 -127.5 -19.5t-123.5 -55.5l-42 115q66 43 152.5 69.5t169.5 26.5 q51 0 97.5 -8.5t90.5 -27.5t76 -47.5t51.5 -72.5t19.5 -98.5t-23.5 -101t-63.5 -79t-88.5 -54.5t-102.5 -33l-2 -2q44 -6 87.5 -25.5t79 -50.5t57.5 -75.5t22 -96.5q0 -60 -19 -110.5t-52.5 -86.5t-77 -62.5t-95.5 -42t-104.5 -23t-107.5 -7.5q-211 0 -345 88z" />
<glyph unicode="&#x438;" horiz-adv-x="1152" d="M111 282q0 68 21 180l115 598h180l-111 -591q-17 -94 -17 -155q0 -185 168 -185q49 0 103 28.5t101.5 78t85.5 123.5t54 158l103 543h182l-143 -751q-32 -179 -48 -309h-162l26 199h-4q-71 -104 -169.5 -164t-202.5 -60q-44 0 -82 9t-75.5 30.5t-64.5 55.5t-43.5 88.5 t-16.5 123.5z" />
<glyph unicode="&#x439;" horiz-adv-x="1152" d="M111 282q0 68 21 180l115 598h180l-111 -591q-17 -94 -17 -155q0 -185 168 -185q49 0 103 28.5t101.5 78t85.5 123.5t54 158l103 543h182l-143 -751q-32 -179 -48 -309h-162l26 199h-4q-71 -104 -169.5 -164t-202.5 -60q-44 0 -82 9t-75.5 30.5t-64.5 55.5t-43.5 88.5 t-16.5 123.5zM480 1497h133q-4 -45 7.5 -82t39 -58.5t65.5 -20.5q33 0 59.5 14t45.5 38t31.5 51t21.5 58h138q-19 -83 -61 -142.5t-104.5 -91t-140.5 -31.5q-70 0 -119.5 21.5t-75 60t-35.5 84t-5 99.5z" />
<glyph unicode="&#x43a;" horiz-adv-x="998" d="M63 0l202 1060h178l-88 -468h40l460 468h219l-518 -485q83 -23 137.5 -95.5t95.5 -203.5q14 -41 32 -101.5t32 -103.5t28 -71h-178q-16 32 -43.5 123.5t-44.5 135.5q-45 124 -99 170t-152 46h-33l-90 -475h-178z" />
<glyph unicode="&#x43b;" horiz-adv-x="1117" d="M-73 136q85 7 128 44q145 97 215 462l81 418h714l-202 -1060h-179l171 916h-362l-52 -272q-43 -227 -109 -371t-172 -212q-32 -25 -63 -40t-69 -23t-87 -9z" />
<glyph unicode="&#x43c;" horiz-adv-x="1461" d="M35 0l285 1060h224l85 -537q4 -32 12.5 -89.5t16 -110.5t11.5 -89h2q48 102 190 356l270 470h228l-136 -1060h-171l70 506q8 58 55 370h-9q-8 -18 -22 -46.5t-33.5 -66t-36.5 -69t-42 -78.5t-39 -72l-305 -538h-140l-81 527q-4 27 -14.5 106.5t-17.5 138t-10 100.5h-9 q-68 -305 -87 -376l-130 -502h-166z" />
<glyph unicode="&#x43d;" horiz-adv-x="1158" d="M63 0l202 1060h180l-79 -429h477l81 429h182l-201 -1060h-180l92 487h-480l-92 -487h-182z" />
<glyph unicode="&#x43e;" horiz-adv-x="1141" d="M75 412q0 104 27.5 204.5t80 184.5t123 148t162.5 100t193 36q70 0 130.5 -17t105.5 -47.5t80 -72t57 -91t33.5 -103t11.5 -110.5q0 -82 -19.5 -163.5t-54.5 -155.5t-87.5 -138t-116.5 -111t-144.5 -74t-167.5 -27q-78 0 -145 22.5t-116 63t-83.5 95t-52 119.5t-17.5 137 zM263 418q0 -131 68 -214t182 -83q62 0 121 30.5t104.5 82.5t80 119t52.5 142.5t18 148.5q0 40 -7 78.5t-25 79t-45.5 70.5t-71 49.5t-98.5 19.5q-82 0 -154.5 -47.5t-120.5 -123t-76 -168t-28 -184.5z" />
<glyph unicode="&#x43f;" horiz-adv-x="1169" d="M63 0l140 751q43 235 52 309h161l-25 -207h4q46 73 108.5 125.5t134.5 79.5t148 27q40 0 77.5 -9t73 -31t61.5 -55t42 -84t16 -115q0 -68 -19 -170l-119 -621h-180l117 613q13 84 13 136q0 184 -167 184q-49 0 -104.5 -29t-106.5 -81t-92 -133t-59 -175l-96 -515h-180z " />
<glyph unicode="&#x440;" horiz-adv-x="1154" d="M-33 -434l213 1118q36 191 59 379h167l-29 -202h4q71 106 171.5 165t210.5 59q66 0 121 -21.5t92 -57.5t62.5 -85.5t37 -104.5t11.5 -115q0 -111 -30 -219t-87 -198.5t-132 -160t-171.5 -109t-199.5 -39.5q-145 0 -228 50h-5l-85 -459h-182zM265 178q76 -59 204 -59 q85 0 165.5 50t137.5 130t92 183t35 206q0 29 -4.5 57t-14 56t-26 51.5t-38 41.5t-53 28.5t-69.5 10.5q-54 0 -111 -30.5t-109 -87t-93.5 -145.5t-60.5 -197z" />
<glyph unicode="&#x441;" horiz-adv-x="926" d="M75 387q0 90 21.5 177.5t61.5 164t98.5 142t129 112.5t157.5 73.5t180 26.5q46 0 93.5 -8.5t78.5 -18t50 -19.5l-53 -145q-83 39 -179 39q-68 0 -129.5 -21.5t-110 -58.5t-88.5 -87t-66.5 -108t-41 -121t-14.5 -125q0 -131 68 -207t195 -76q125 0 245 59l18 -142 q-50 -26 -130 -45.5t-176 -19.5q-100 0 -179 31.5t-128.5 88t-75 129.5t-25.5 159z" />
<glyph unicode="&#x442;" horiz-adv-x="1769" d="M63 0l140 751q36 198 50 309h159l-27 -199h6q72 110 168.5 167t203.5 57q116 0 178 -65t69 -171q70 114 170 174t218 62q49 0 93 -16t82 -48t60.5 -87.5t22.5 -126.5q0 -86 -17 -180l-119 -627h-177l114 611q15 73 15 138q0 89 -37 136.5t-122 47.5q-40 0 -81.5 -17.5 t-80.5 -51.5t-73 -80.5t-60 -108.5t-39 -131l-101 -544h-175l119 623q13 72 13 128q0 30 -3.5 54t-14 49t-27 41.5t-45.5 27t-68 10.5q-49 0 -102.5 -31t-101 -84t-84.5 -128t-52 -157l-96 -533h-178z" />
<glyph unicode="&#x443;" horiz-adv-x="959" d="M-88 -328q113 36 195 100q56 42 110.5 106t96.5 139q10 21 4 48l-215 995h190l106 -569q44 -219 53 -284h4q5 12 46 102t70 160l258 591h193q-250 -541 -383 -811q-95 -186 -183 -318.5t-192 -233.5q-79 -80 -163.5 -125.5t-143.5 -58.5z" />
<glyph unicode="&#x444;" horiz-adv-x="1485" d="M63 328q0 78 15 162.5t43 169.5t72 161.5t97.5 135t125 93.5t149.5 35q65 0 111.5 -39.5t63.5 -98.5h3l116 609h166l-124 -615h4q29 36 63.5 66.5t87 54t107.5 23.5q69 0 121 -30.5t82.5 -84t45 -119t14.5 -143.5q0 -76 -14 -159t-40.5 -165t-68.5 -155.5t-93.5 -130 t-119.5 -90t-143 -33.5q-70 0 -123.5 40t-74.5 98h-4l-99 -547h-173l114 551h-4q-24 -31 -47.5 -53.5t-55.5 -44t-72.5 -33t-87.5 -11.5q-119 0 -188 98.5t-69 254.5zM245 347q0 -102 39 -163t109 -61q32 0 61.5 11t53.5 31t45 45.5t36.5 56t26.5 61.5t17 63l57 276 q11 69 11 122q0 60 -37 106t-89 46q-64 0 -119.5 -43t-93 -109.5t-65 -147.5t-40 -157t-12.5 -137zM797 278q2 -34 19.5 -69t52 -61t76.5 -25q56 2 106.5 42t85 102.5t60 138.5t38 150t12.5 136q0 241 -136 241q-118 0 -199 -126q-43 -73 -63 -192q-6 -26 -15 -73t-17 -87 t-15 -76q-11 -62 -5 -101z" />
<glyph unicode="&#x445;" horiz-adv-x="966" d="M-81 0l464 546l-245 514h197l104 -232q17 -38 40 -94.5t31 -74.5h5q8 12 19 27.5t18.5 26.5t17 24.5t18.5 25.5t20 26.5t23 30.5l197 240h209l-447 -516l251 -544h-199l-105 239q-36 76 -77 188h-6q-48 -77 -109 -162l-216 -265h-210z" />
<glyph unicode="&#x446;" horiz-adv-x="1178" d="M111 282q0 68 21 180l115 598h180l-111 -591q-17 -94 -17 -155q0 -185 168 -185q50 0 104 28.5t102.5 78t86 123.5t53.5 158l103 543h180l-130 -690q-17 -96 -17 -134q0 -130 145 -133l-130 -410h-136l82 307q-61 13 -101 71q-29 52 -25 132h-4q-70 -104 -172 -166 t-209 -62q-44 0 -83 9t-77.5 30.5t-66 55.5t-44.5 88.5t-17 123.5z" />
<glyph unicode="&#x447;" horiz-adv-x="1090" d="M142 613q0 58 27 194l50 253h180l-46 -236q-25 -121 -25 -171q0 -73 41.5 -115.5t140.5 -42.5q64 0 140.5 30t120.5 71l86 464h180l-202 -1062h-180l88 447h-5q-135 -90 -291 -90t-230.5 69.5t-74.5 188.5z" />
<glyph unicode="&#x448;" horiz-adv-x="1728" d="M111 255q0 79 18 179l118 626h178l-114 -611q-16 -78 -16 -138q0 -184 150 -184q104 0 199.5 109t126.5 281l101 543h176l-119 -621q-13 -73 -13 -130q0 -29 3.5 -53.5t13 -49t25.5 -41.5t43 -27.5t64 -10.5q46 0 98.5 31.5t98.5 84.5t82.5 128.5t51.5 157.5l99 531h177 l-138 -744q-19 -104 -29 -316h-164q0 35 1.5 72.5t4.5 73.5t3 53h-5q-47 -73 -103.5 -123t-120.5 -75.5t-134 -25.5q-111 0 -175.5 66.5t-71.5 171.5q-70 -115 -169.5 -176.5t-217.5 -61.5q-44 0 -85 16.5t-77 48.5t-58 87.5t-22 127.5z" />
<glyph unicode="&#x449;" horiz-adv-x="1754" d="M111 255q0 79 18 179l118 626h178l-114 -611q-16 -78 -16 -138q0 -184 150 -184q47 0 97.5 28.5t95 77.5t80 123.5t51.5 160.5l103 543h176l-119 -621q-13 -73 -13 -130q0 -29 3.5 -53.5t13 -49t25.5 -41.5t43 -27.5t64 -10.5q46 0 98.5 31.5t98.5 84.5t82.5 128.5 t51.5 157.5l99 531h177l-127 -681q-20 -104 -20 -145q0 -59 35 -94.5t110 -36.5l-131 -410h-134l81 307q-61 12 -96 71.5t-31 129.5h-7q-151 -226 -373 -226q-109 0 -170.5 66.5t-68.5 171.5q-70 -114 -169 -176t-211 -62q-44 0 -86.5 16.5t-79.5 48.5t-60 87.5t-23 127.5z " />
<glyph unicode="&#x44a;" horiz-adv-x="1125" d="M92 914l29 146h589q-7 -12 -41 -66t-45 -72t-39 -64t-42.5 -72.5t-35.5 -67t-37.5 -77t-30.5 -74.5h2q58 66 141 106t174 40q127 0 203 -73.5t76 -200.5q0 -90 -38.5 -172.5t-104.5 -145t-161 -99.5t-202 -37q-71 0 -126.5 15t-99.5 47t-68 88t-24 133q0 138 77 320.5 t181 325.5h-377zM387 274q0 -68 41 -110.5t118 -42.5q80 0 150.5 36.5t114.5 102t44 143.5t-43.5 126t-125.5 48q-88 0 -167 -62t-109 -141q-23 -52 -23 -100z" />
<glyph unicode="&#x44b;" horiz-adv-x="1422" d="M96 217q0 62 27 193l142 650h180l-119 -488h2q54 63 136.5 102t164.5 39q128 0 206.5 -75.5t78.5 -208.5q0 -90 -38 -171t-105 -141.5t-164.5 -96t-209.5 -35.5q-301 0 -301 232zM274 241q0 -58 39.5 -89t113.5 -31q77 0 147 34t115 100t45 148q0 51 -18 89t-57.5 61.5 t-95.5 23.5q-88 0 -169 -69t-103 -155q-17 -75 -17 -112zM977 0l204 1060h189l-202 -1060h-191z" />
<glyph unicode="&#x44c;" horiz-adv-x="1014" d="M96 224q0 72 29 190l143 646h179l-121 -488h2q56 63 140 102t170 39q82 0 146.5 -32.5t101 -96.5t36.5 -150q0 -92 -38 -174.5t-105.5 -143t-165 -96t-210.5 -35.5q-51 0 -95 7t-84 24t-67.5 44t-44 68.5t-16.5 95.5zM276 249q0 -62 40 -95t113 -33q80 0 151 34t117 99.5 t46 146.5q0 80 -42 128t-129 48q-45 0 -91 -19.5t-81.5 -51t-62 -68t-38.5 -72.5q-23 -62 -23 -117z" />
<glyph unicode="&#x44d;" horiz-adv-x="964" d="M-25 52l52 134q45 -25 115 -44t140 -19q163 0 270.5 92.5t137.5 257.5h-481l21 129h475q3 20 3 40q0 82 -33.5 148t-103 107t-163.5 41q-132 0 -241 -51l-35 132q139 66 295 66q220 0 340 -132.5t120 -358.5q0 -130 -41.5 -243t-117.5 -196.5t-191 -131.5t-255 -48 q-196 4 -307 77z" />
<glyph unicode="&#x44e;" horiz-adv-x="1529" d="M63 0l200 1060h184l-83 -431h171q27 98 77 181.5t117 144.5t153 95.5t181 34.5q78 0 144.5 -24.5t113 -66.5t79.5 -99t48.5 -122t15.5 -135q0 -97 -25.5 -192.5t-75 -180t-116.5 -149.5t-157 -103t-189 -38q-94 0 -170 34.5t-124.5 93t-74.5 135t-26 161.5q0 42 7 92 h-176l-92 -491h-182zM684 418q0 -127 64 -212t174 -85q59 0 114.5 30.5t98.5 82.5t75.5 118.5t50 141.5t17.5 148q0 33 -5 66t-16 67t-29.5 63.5t-43 52.5t-60.5 36.5t-79 13.5q-63 0 -121 -32t-101 -85.5t-75 -121t-48 -141t-16 -143.5z" />
<glyph unicode="&#x44f;" horiz-adv-x="1037" d="M-33 0q26 41 49.5 86t51 103.5t43.5 90.5q104 193 272 228v5q-43 10 -81.5 29.5t-70 48.5t-50 69.5t-18.5 88.5q0 56 17 103t46 80t70 58.5t85.5 41t97 25.5t100 13.5t98.5 3.5q139 0 310 -22l-201 -1052h-177l85 447h-107q-113 0 -183 -52t-126 -163q-9 -19 -28 -58.5 t-30 -62t-27.5 -54t-32.5 -57.5h-193zM351 747q0 -43 24.5 -77t63.5 -53.5t82 -29.5t86 -10h112l67 354q-64 14 -142 14q-32 0 -61 -2.5t-59 -9t-55 -16t-47.5 -25.5t-37.5 -36t-24 -48t-9 -61z" />
<glyph unicode="&#x451;" horiz-adv-x="991" d="M73 403q0 96 26.5 194t78.5 185t121 155t160.5 108t191.5 40q146 0 228.5 -77.5t82.5 -196.5q0 -81 -36.5 -143t-98.5 -100.5t-153 -62.5t-192.5 -32t-224.5 -6q-8 -32 -2 -97t23 -105q21 -47 56 -79t80 -47.5t101 -15.5q153 0 285 72l26 -136q-65 -36 -157.5 -60 t-193.5 -24q-102 0 -180.5 34t-126 93t-71.5 135t-24 166zM276 607q75 -1 137.5 2t122 11t104 23.5t78 37.5t51 54.5t17.5 73.5q0 63 -44 98.5t-117 35.5q-51 0 -98.5 -19t-86 -51.5t-71.5 -75.5t-56 -91t-37 -99zM381 1357q0 48 33.5 81.5t80.5 33.5q31 0 54.5 -14.5 t36 -38.5t12.5 -54q0 -48 -32 -82t-81 -34q-44 0 -74 31t-30 77zM782 1357q0 48 33.5 81.5t81.5 33.5q30 0 54 -14.5t36 -38.5t12 -54q0 -48 -32.5 -82t-83.5 -34q-29 0 -52 14t-36 39t-13 55z" />
<glyph unicode="&#x452;" horiz-adv-x="1165" d="M61 0l238 1240h-136l27 130h134l33 186h180l-35 -186h552l-31 -130h-546l-63 -333h4q144 172 338 172q84 0 147.5 -33.5t102 -94t58 -140.5t19.5 -178q0 -115 -20 -230t-60 -225t-106 -207t-152 -164q-38 -37 -88 -67.5t-105 -51.5t-109 -29l-35 151q117 23 217 113 q123 95 196.5 285t73.5 397q0 322 -209 322q-76 0 -147.5 -50.5t-118.5 -127t-63 -159.5l-112 -590h-184z" />
<glyph unicode="&#x453;" horiz-adv-x="803" d="M31 249q0 41 10 77.5t25 64.5t42 56t51.5 47t62.5 41.5t66 36.5t72 35q6 3 20 9q31 15 47 22.5t43.5 22.5t43 25.5t35.5 27t30.5 31.5t18 34.5t7.5 40.5q0 51 -37 85t-108 36q-94 2 -213 -58l-30 127q127 73 278 73q139 -3 213 -73t74 -186q0 -38 -9.5 -72t-24.5 -61 t-40 -53t-50.5 -45.5t-61.5 -41t-67 -36.5t-73 -35q-45 -21 -76 -37t-64.5 -38t-53 -43.5t-32.5 -49.5t-13 -59q0 -60 38.5 -96.5t116.5 -37.5q66 -2 135.5 20t119.5 51l28 -131q-60 -35 -147.5 -58.5t-170.5 -21.5q-143 3 -224.5 73.5t-81.5 196.5zM449 1190l215 313h219 l-291 -313h-143z" />
<glyph unicode="&#x454;" horiz-adv-x="924" d="M77 439q0 130 44.5 249t125.5 211q83 88 197.5 137t245.5 49q83 0 151.5 -19t111.5 -45l-54 -134q-91 54 -211 54q-78 0 -146 -27t-119 -73.5t-86.5 -107.5t-54.5 -133h502l-23 -127h-498q-2 -19 -2 -52q7 -133 88 -215.5t223 -82.5q118 0 219 46l24 -129 q-116 -61 -300 -61q-134 0 -233.5 57.5t-152 161.5t-52.5 241z" />
<glyph unicode="&#x455;" horiz-adv-x="816" d="M19 50l54 134q42 -26 104.5 -45.5t123.5 -19.5q90 0 145.5 49.5t55.5 122.5q0 63 -33 106.5t-116 89.5q-46 25 -81.5 55.5t-59.5 64.5t-36.5 72.5t-12.5 79.5q0 139 108 232.5t275 93.5q68 0 128.5 -15.5t92.5 -36.5l-50 -138q-84 48 -184 48q-82 0 -135 -46t-53 -115 q0 -28 9 -52.5t28 -46t45 -40t64 -38.5q93 -51 145 -121.5t52 -157.5q0 -108 -54.5 -188.5t-145 -120t-203.5 -38.5q-82 0 -154.5 20.5t-111.5 50.5z" />
<glyph unicode="&#x456;" horiz-adv-x="500" d="M61 0l202 1060h182l-202 -1060h-182zM293 1372q2 54 38.5 91.5t86.5 37.5q33 0 59.5 -15.5t41 -42.5t14.5 -61q-2 -57 -38.5 -93t-93.5 -36q-47 0 -77.5 34t-30.5 85z" />
<glyph unicode="&#x457;" horiz-adv-x="500" d="M61 0l202 1060h182l-202 -1060h-182zM92 1357q0 48 33.5 81.5t81.5 33.5q23 0 42.5 -8.5t32.5 -23t20 -34t7 -41.5q0 -48 -32.5 -82t-81.5 -34q-44 0 -73.5 31t-29.5 77zM493 1357q0 49 33 82t81 33q46 0 74.5 -30.5t28.5 -76.5q0 -31 -14 -57.5t-41 -42.5t-61 -16 q-29 0 -52 14t-36 39t-13 55z" />
<glyph unicode="&#x458;" horiz-adv-x="496" d="M-243 -445l22 142q25 -8 83 -8q36 0 65 12.5t56 42.5t48 85t36 136l209 1095h180l-199 -1058q-26 -134 -58 -219.5t-78 -137.5q-44 -51 -108 -77t-136 -26q-78 0 -120 13zM295 1370q0 36 16.5 66t45.5 47.5t64 17.5q24 0 45.5 -8.5t36 -24t23 -37t9.5 -46.5 q-2 -57 -38.5 -94.5t-93.5 -37.5q-46 0 -77 33.5t-31 83.5z" />
<glyph unicode="&#x459;" horiz-adv-x="1610" d="M-75 136q71 4 119 42q74 48 125 160.5t86 299.5l78 422h690l-96 -481h4q39 41 90 71.5t107.5 46.5t111.5 16q125 0 201.5 -73.5t76.5 -202.5q0 -93 -38 -176t-105 -144t-164.5 -96.5t-208.5 -35.5q-308 0 -308 236q0 52 23 185l103 510h-343l-52 -274 q-46 -241 -109 -378.5t-167 -204.5q-90 -70 -208 -70zM874 255q0 -65 42 -99.5t117 -34.5q77 0 146.5 33.5t114.5 98.5t45 146.5t-41.5 129.5t-120.5 48q-87 0 -165.5 -64t-114.5 -145q-23 -54 -23 -113z" />
<glyph unicode="&#x45a;" horiz-adv-x="1636" d="M61 0l202 1060h182l-77 -403h425l77 403h180l-99 -479h5q53 60 135 96t162 36q128 0 210 -76t82 -206q0 -94 -38.5 -176t-106.5 -141.5t-165.5 -94t-211.5 -34.5q-53 0 -97 6.5t-83.5 22.5t-66.5 41t-43 65t-16 93q0 61 21 157l29 145h-428l-96 -515h-182zM897 247 q0 -60 43 -93t116 -33q61 0 117 20t98.5 55.5t68 88t25.5 114.5q0 52 -18.5 91t-58 63t-96.5 24q-46 0 -91 -19t-81 -50.5t-63.5 -71.5t-40.5 -83q-19 -65 -19 -106z" />
<glyph unicode="&#x45b;" horiz-adv-x="1169" d="M63 0l238 1240h-148l27 127h144l36 189h181l-37 -189h537l-29 -127h-532l-70 -366h4q68 97 164 154t213 57q31 0 61.5 -6.5t60.5 -20t55.5 -36.5t45.5 -53.5t31 -73.5t11 -95q0 -92 -17 -179l-119 -621h-182l117 613q15 62 15 143q0 38 -9 69t-28 55.5t-51.5 38.5 t-76.5 14q-52 0 -109 -29.5t-107 -81t-89.5 -127.5t-54.5 -162l-100 -533h-182z" />
<glyph unicode="&#x45c;" horiz-adv-x="998" d="M63 0l202 1060h178l-88 -468h40l460 468h219l-518 -485q83 -23 137.5 -95.5t95.5 -203.5q14 -41 32 -101.5t32 -103.5t28 -71h-178q-16 32 -43.5 123.5t-44.5 135.5q-45 124 -99 170t-152 46h-33l-90 -475h-178zM541 1190l218 313h216l-291 -313h-143z" />
<glyph unicode="&#x45e;" horiz-adv-x="959" d="M-88 -328q113 36 195 100q56 42 110.5 106t96.5 139q10 21 4 48l-215 995h190l106 -569q44 -219 53 -284h4q5 12 46 102t70 160l258 591h193q-250 -541 -383 -811q-95 -186 -183 -318.5t-192 -233.5q-79 -80 -163.5 -125.5t-143.5 -58.5zM366 1497h134q-5 -45 6.5 -82 t38.5 -58.5t66 -20.5q32 0 59 14t46 38t32 51t21 58h138q-28 -126 -108.5 -195.5t-198.5 -69.5q-56 0 -99 14.5t-70 39t-43.5 59t-21 72.5t-0.5 80z" />
<glyph unicode="&#x45f;" horiz-adv-x="1152" d="M111 282q0 68 21 180l115 598h180l-111 -591q-17 -94 -17 -155q0 -185 168 -185q49 0 103 28.5t101.5 78t85.5 123.5t54 158l103 543h182l-143 -751q-32 -179 -48 -309h-162l26 199h-4q-70 -103 -171 -163.5t-201 -60.5q-44 0 -82 9t-75.5 30.5t-64.5 55.5t-43.5 88.5 t-16.5 123.5zM316 -441l67 345l171 15l-90 -340z" />
<glyph unicode="&#x490;" horiz-adv-x="876" d="M67 0l280 1477h554l88 276h146l-107 -436h-530l-245 -1317h-186z" />
<glyph unicode="&#x491;" horiz-adv-x="814" d="M63 0l200 1060h465l83 242h140l-100 -388h-437l-171 -914h-180z" />
<glyph unicode="&#x4d9;" horiz-adv-x="972" d="M21 249q0 82 36.5 143.5t98.5 100.5t153.5 62.5t193 32t225.5 6.5q7 32 2.5 96.5t-22.5 102.5q-65 145 -237 145q-151 0 -285 -75l-31 136q66 37 159.5 61.5t193.5 24.5q103 0 182 -33.5t126.5 -93t71.5 -135.5t24 -166q0 -96 -27 -193.5t-78.5 -184.5t-120.5 -155.5 t-160.5 -108.5t-190.5 -40q-148 0 -231 77.5t-83 196.5zM197 255q0 -43 21 -74t58 -46.5t86 -15.5q41 0 81.5 13t74.5 36.5t64.5 55t54.5 69t42 78.5t29 83q-90 1 -163 -3.5t-140 -17.5t-111.5 -35.5t-70.5 -58.5t-26 -84z" />
<glyph unicode="&#x2000;" horiz-adv-x="908" />
<glyph unicode="&#x2001;" horiz-adv-x="1817" />
<glyph unicode="&#x2002;" horiz-adv-x="908" />
<glyph unicode="&#x2003;" horiz-adv-x="1817" />
<glyph unicode="&#x2004;" horiz-adv-x="605" />
<glyph unicode="&#x2005;" horiz-adv-x="454" />
<glyph unicode="&#x2006;" horiz-adv-x="302" />
<glyph unicode="&#x2007;" horiz-adv-x="302" />
<glyph unicode="&#x2008;" horiz-adv-x="227" />
<glyph unicode="&#x2009;" horiz-adv-x="363" />
<glyph unicode="&#x200a;" horiz-adv-x="100" />
<glyph unicode="&#x2010;" horiz-adv-x="671" d="M79 521l26 140h524l-27 -140h-523z" />
<glyph unicode="&#x2011;" horiz-adv-x="671" d="M79 521l26 140h524l-27 -140h-523z" />
<glyph unicode="&#x2012;" horiz-adv-x="671" d="M79 521l26 140h524l-27 -140h-523z" />
<glyph unicode="&#x2013;" horiz-adv-x="1095" d="M63 491l27 132h964l-26 -132h-965z" />
<glyph unicode="&#x2014;" horiz-adv-x="2191" d="M63 491l27 132h2060l-26 -132h-2061z" />
<glyph unicode="&#x2018;" horiz-adv-x="424" d="M160 982q61 138 146 292t141 229l128 13q-35 -67 -75 -154t-79 -185t-61 -173z" />
<glyph unicode="&#x2019;" horiz-adv-x="424" d="M138 982q53 102 116 250.5t99 262.5l199 21q-61 -137 -145.5 -291t-141.5 -230z" />
<glyph unicode="&#x201a;" horiz-adv-x="424" d="M-117 -268q57 111 120.5 261t97.5 262l206 21q-60 -138 -146.5 -294t-145.5 -235z" />
<glyph unicode="&#x201c;" horiz-adv-x="749" d="M157 982q61 138 146.5 292t143.5 229l125 13q-53 -102 -115.5 -250.5t-99.5 -261.5zM485 982q61 139 146 292.5t143 228.5l125 13q-55 -106 -118 -253.5t-97 -258.5z" />
<glyph unicode="&#x201d;" horiz-adv-x="749" d="M138 982q55 106 118 254t97 259l199 21q-61 -137 -145.5 -291t-141.5 -230zM464 982q55 106 118 254t97 259l199 21q-60 -137 -145 -291t-141 -230z" />
<glyph unicode="&#x201e;" horiz-adv-x="749" d="M-121 -268q55 103 118.5 254.5t98.5 268.5l207 21q-60 -138 -147 -294t-145 -235zM219 -268q57 111 120.5 261t97.5 262l205 21q-61 -139 -147 -295t-144 -234z" />
<glyph unicode="&#x2022;" horiz-adv-x="606" d="M88 583q-2 95 66 162.5t164 67.5t163 -66.5t67 -163.5q0 -96 -67.5 -163t-164.5 -67q-95 0 -161.5 67t-66.5 163z" />
<glyph unicode="&#x2026;" horiz-adv-x="2191" d="M157 105q0 62 39 105t99 43q56 0 89.5 -37.5t33.5 -94.5q0 -41 -17 -74t-49.5 -52.5t-73.5 -19.5q-54 0 -87.5 37t-33.5 93zM887 105q0 62 39 105t99 43q37 0 65 -17.5t43 -47.5t15 -67q0 -30 -10 -57t-28.5 -46.5t-44.5 -31t-57 -11.5q-54 0 -87.5 37t-33.5 93z M1617 105q0 62 39 105t99 43q55 0 89 -37.5t34 -94.5q0 -41 -17.5 -74t-49.5 -52.5t-73 -19.5q-54 0 -87.5 37t-33.5 93z" />
<glyph unicode="&#x202f;" horiz-adv-x="363" />
<glyph unicode="&#x2039;" horiz-adv-x="536" d="M73 552l322 404h159l-333 -408l224 -399h-144z" />
<glyph unicode="&#x203a;" horiz-adv-x="536" d="M17 149l334 410l-224 397h145l228 -404l-325 -403h-158z" />
<glyph unicode="&#x205f;" horiz-adv-x="454" />
<glyph unicode="&#x20ac;" d="M13 550l24 109h130q7 71 26 132h-134l24 110h143q38 113 106 212.5t156.5 174t200 118t229.5 43.5q161 0 278 -67l-61 -138q-98 53 -228 53q-86 0 -166.5 -33.5t-142.5 -89.5t-109 -126t-75 -147h579l-25 -110h-591q-19 -55 -26 -132h594l-25 -109h-575q0 -67 13 -128 t41 -115t68.5 -94t99.5 -63t130 -23q69 0 138 18t110 41l28 -136q-53 -30 -135.5 -52.5t-173.5 -22.5q-123 0 -221.5 45.5t-161 124t-94.5 182.5t-30 223h-144z" />
<glyph unicode="&#x2122;" horiz-adv-x="1465" d="M228 1378v99h497v-99h-190v-497h-119v497h-188zM761 881l44 596h179l103 -291q23 -83 38 -151h4q4 17 10 38.5t10.5 38.5t10 37t8.5 34l103 294h173l44 -596h-118l-22 351q-1 15 -1.5 36.5t-1 40t-1 44t-1.5 45.5h-7q-5 -17 -11.5 -41.5t-12 -45.5t-12.5 -47t-12 -43 l-109 -332h-121l-107 340q-4 21 -11.5 50.5t-16.5 64.5t-13 54h-7q-1 -18 -1.5 -52t-1.5 -62t-3 -52l-23 -351h-113z" />
<glyph unicode="&#xe000;" horiz-adv-x="1062" d="M0 0v1063h1063v-1063h-1063z" />
</font>
</defs>
</svg>
