<?xml version="1.0" standalone="no"?>
<!DOCTYPE svg PUBLIC "-//W3C//DTD SVG 1.1//EN" "http://www.w3.org/Graphics/SVG/1.1/DTD/svg11.dtd" >
<svg xmlns="http://www.w3.org/2000/svg">
<metadata></metadata>
<defs>
<font id="officinaserifcttregular" horiz-adv-x="1105" >
<font-face units-per-em="2048" ascent="1638" descent="-410" />
<missing-glyph horiz-adv-x="515" />
<glyph horiz-adv-x="2048" />
<glyph horiz-adv-x="2048" />
<glyph unicode="&#xd;" horiz-adv-x="2048" />
<glyph unicode=" "  horiz-adv-x="515" />
<glyph unicode="&#x09;" horiz-adv-x="515" />
<glyph unicode="&#xa0;" horiz-adv-x="515" />
<glyph unicode="!" horiz-adv-x="735" d="M215 124q0 62 45.5 107t108.5 48q62 -3 108.5 -48t46.5 -107q0 -64 -46.5 -108.5t-108.5 -46.5q-63 0 -108.5 45t-45.5 110zM252 1488q-3 13 5.5 19t23.5 8h168q13 0 20.5 -6.5t7.5 -20.5l-48 -873q-2 -20 -8.5 -24.5t-17.5 -4.5h-71q-13 -2 -19.5 3.5t-6.5 25.5z" />
<glyph unicode="&#x22;" horiz-adv-x="899" d="M197 1581q-3 9 4 13.5t23 7.5h128q13 0 19.5 -5.5t6.5 -15.5l-36 -534q-2 -16 -8.5 -24t-17.5 -6h-57q-13 -2 -20 6t-7 24zM524 1581q-2 9 5 13.5t22 7.5h128q13 0 19.5 -5.5t6.5 -15.5l-34 -534q-2 -16 -9.5 -24t-17.5 -6h-58q-13 -2 -20 6t-7 24z" />
<glyph unicode="#" d="M91 266v108q0 6 4 10.5t13 6.5h158l46 443h-155q-9 0 -13.5 4t-4.5 13v109q0 7 4.5 11t13.5 6h168l47 445q0 9 1 15.5t3 8.5q0 2 3 5t20 3h99q6 -2 9.5 -3t5.5 -3v-4v-22l-46 -445h270l46 445q0 9 1 15.5t3 8.5q0 2 3.5 5t19.5 3h99q7 -2 10 -3t5 -3v-4v-22l-46 -445h131 q6 0 10.5 -5t6.5 -12v-109q0 -9 -5.5 -14t-11.5 -3h-144l-46 -443h141q7 0 11 -5.5t6 -11.5v-108q0 -9 -5 -15t-12 -4h-158l-38 -393q-3 -19 -10 -25t-17 -6h-87q-19 2 -25 8.5t-4 22.5l40 393h-270l-39 -393q-2 -19 -9 -25t-18 -6h-86q-20 2 -25.5 8.5t-2.5 22.5l38 393 h-141q-9 0 -13 5t-4 14zM407 391h270l47 443h-270z" />
<glyph unicode="$" d="M133 91q0 2 2 4q0 2 1 8.5t3 8.5l38 96q2 9 5.5 10t11.5 3h3v-2l35 -16q76 -42 143.5 -62.5t135.5 -22.5v555l-42 24q-186 105 -242 190.5t-56 196.5q0 144 95 247.5t245 116.5v131q-2 13 4.5 20t22.5 7h66q13 0 20 -6.5t7 -20.5v-125q75 -5 144.5 -25t133.5 -53 q15 -11 20.5 -20t1.5 -24l-40 -98q-2 -6 -6.5 -8t-8.5 -2q-2 -3 -4.5 -3.5t-2.5 3.5h-3t-30 15q-80 38 -122.5 49.5t-82.5 16.5v-503l36 -19q162 -89 232 -185t72 -226q0 -148 -92 -259t-248 -135v-146q0 -13 -7 -18.5t-20 -7.5h-66q-15 0 -22 6.5t-5 19.5v137 q-80 4 -157.5 19.5t-140.5 44.5q-42 16 -60 29.5t-18 26.5q-2 0 -2 2zM352 1099q0 -77 33 -133.5t113 -106.5l13 -10v451q-80 -13 -119.5 -67t-39.5 -134zM631 126q73 18 115.5 78t42.5 144t-43 159t-104 112l-11 7v-500z" />
<glyph unicode="%" horiz-adv-x="1678" d="M86 1062q0 179 79.5 285.5t223.5 106.5q137 -2 211.5 -98.5t74.5 -260.5q0 -183 -81 -289.5t-220 -106.5q-131 0 -209.5 90.5t-78.5 272.5zM232 1068q0 -122 35 -185.5t107 -63.5q73 0 113.5 65t40.5 197q-2 122 -37 187.5t-104 65.5q-76 0 -115.5 -66.5t-39.5 -199.5z M526.5 -25q-7.5 6 1.5 29l441 1427q2 11 10 16t23 7h93q17 0 23.5 -8.5t0.5 -29.5l-442 -1425q-4 -10 -11 -15t-20 -7h-93q-19 0 -26.5 6zM1007 332q0 179 79 285.5t223 106.5q137 -3 211.5 -99t74.5 -260q0 -184 -81 -290t-220 -106q-131 0 -209 90.5t-78 272.5zM1152 338 q0 -122 35.5 -185.5t106.5 -63.5q73 0 113.5 65t40.5 198q0 122 -36 187t-105 65q-76 0 -115.5 -66.5t-39.5 -199.5z" />
<glyph unicode="&#x26;" horiz-adv-x="1348" d="M126 365q0 73 23.5 144t67.5 124q20 25 52 53.5t149 109.5q-25 22 -63.5 76.5t-62.5 98.5q-34 57 -49 112.5t-15 106.5q0 155 103.5 256t278.5 101q167 0 255.5 -92t88.5 -229q-3 -80 -32 -151t-75 -126q-27 -29 -60 -58.5t-135 -101.5l365 -422q32 53 49.5 116t17.5 141 v28q0 13 5.5 20t20.5 7h108q13 0 20 -7t7 -20v-13q-2 -101 -37.5 -209.5t-90.5 -177.5l139 -161q7 -9 10.5 -14.5t3.5 -8.5q0 -6 -5 -11.5t-9 -10.5l-84 -68q-7 -2 -11 -4.5t-9 -4.5h-4h-2q-11 2 -18 5.5t-13 10.5l-121 144q-140 -104 -223 -132t-189 -28 q-203 0 -329.5 108.5t-126.5 287.5zM308 380q-2 -122 78.5 -192t212.5 -70q85 0 161.5 29.5t142.5 89.5l-396 466q-25 -15 -57 -42.5t-47 -45.5q-44 -49 -69.5 -110.5t-25.5 -124.5zM396 1207q0 -46 19.5 -102t66.5 -119q19 -29 43 -59t39 -42q19 10 56 40.5t59 51.5 q53 53 79.5 111t26.5 115q0 95 -54 150.5t-134 55.5q-82 0 -141.5 -55.5t-59.5 -146.5z" />
<glyph unicode="'" horiz-adv-x="369" d="M93 1581q-2 9 2 13.5t19 7.5h138q13 -3 17.5 -7.5t4.5 -13.5l-33 -534q-2 -18 -6.5 -25t-13.5 -5h-73q-11 -2 -15 4.5t-4 25.5z" />
<glyph unicode="(" horiz-adv-x="817" d="M184 542q-3 188 41.5 368.5t135.5 354.5q53 103 104.5 181t100.5 124q19 18 28.5 25t15.5 7q5 0 9.5 -2.5t11.5 -4.5l57 -35q6 -7 10.5 -13t4.5 -12q0 -7 -3 -13.5t-19 -24.5q-24 -29 -46.5 -61t-50.5 -81q-112 -183 -166.5 -392t-52.5 -421q0 -215 53 -423t166 -391 q29 -49 51 -80.5t46 -61.5q16 -17 19 -24t3 -13q-2 -7 -5.5 -12.5t-9.5 -11.5l-57 -36q-7 -2 -11.5 -4t-9.5 -2q-6 0 -15 6.5t-29 23.5q-51 49 -108 136t-106 185q-80 156 -124 336t-44 372z" />
<glyph unicode=")" horiz-adv-x="817" d="M114 -451q0 6 3 13t20 24q22 30 44 61.5t53 80.5q111 183 165.5 391t54.5 423q0 213 -54.5 421.5t-165.5 391.5q-31 49 -53 81.5t-44 60.5q-17 17 -20 24t-3 14q-2 6 3 12t14 13l57 35q4 2 8.5 4.5t11.5 2.5q5 -3 13.5 -8.5t30.5 -23.5q48 -48 106 -135.5t109 -184.5 q77 -157 121.5 -337.5t46.5 -370.5q-2 -190 -45.5 -369t-131.5 -354q-55 -104 -107.5 -182t-98.5 -124q-22 -17 -30.5 -22.5t-13.5 -7.5q-6 0 -11 2t-9 4l-57 36q-9 6 -13 11.5t-4 12.5z" />
<glyph unicode="*" d="M190 1201v2t4 15l30 91q2 11 8.5 15.5t16.5 2.5l249 -101l-21 269q-2 8 5 14t18 6h106q9 0 16 -5.5t7 -14.5l-21 -269l248 101q9 2 15.5 -2t10.5 -16l30 -91q2 -13 3 -15l1 -2q0 -7 -3.5 -9t-11.5 -4l-262 -65l175 -205q7 -9 4.5 -17t-16.5 -16l-76 -56q-15 -10 -21 -8 t-11 11l-141 227l-142 -227q-4 -7 -8 -9t-9 -2h-2.5t-11.5 8l-77 56q-15 8 -17.5 16t6.5 17l175 205l-262 65q-11 2 -13 4t-2 9z" />
<glyph unicode="+" d="M49 509v106q0 12 5 19.5t22 7.5h395v393q-2 13 4.5 18.5t22.5 8.5h106q13 0 19 -6.5t8 -20.5v-393h397q13 0 19 -6.5t8 -20.5v-106q0 -15 -6.5 -22t-20.5 -5h-397v-398q0 -15 -7 -22t-20 -5h-106q-15 -2 -22 4.5t-5 22.5v398h-395q-16 0 -23 6t-4 21z" />
<glyph unicode="," horiz-adv-x="408" d="M-6 -205q0 4 1 6t3 13l131 441q2 13 11 18.5t22 5.5h183q12 0 18 -4.5t6 -10.5q0 -5 -2 -11t-6 -12l-255 -467q-4 -6 -7.5 -10.5t-5.5 -6.5q-2 0 -4.5 -1t-4.5 -1q-4 0 -6 1t-12 3l-57 20q-11 4 -12 7z" />
<glyph unicode="-" horiz-adv-x="779" d="M112 509v112q-2 13 5 20t22 7h500q13 0 19.5 -6.5t6.5 -20.5v-112q-2 -15 -7.5 -22t-18.5 -5h-500q-15 0 -22 6t-5 21z" />
<glyph unicode="." horiz-adv-x="654" d="M173 124q0 62 45.5 108.5t108.5 46.5q62 0 108.5 -46.5t46.5 -108.5q0 -64 -46.5 -108.5t-108.5 -46.5q-63 0 -108.5 45t-45.5 110z" />
<glyph unicode="/" horiz-adv-x="979" d="M-55 -435l853 2012q4 11 14.5 16.5t23.5 8.5h88q11 0 19 -5.5t8 -13.5q0 -2 -1 -2t-8 -19l-849 -2005q-7 -11 -14.5 -15t-21.5 -6h-86q-17 0 -25 6.5t-1 22.5z" />
<glyph unicode="0" d="M99 701q-2 340 119.5 546.5t347.5 206.5q221 0 331 -193t110 -533q0 -380 -121.5 -569.5t-336.5 -189.5q-199 0 -324.5 181.5t-125.5 550.5zM281 715q0 -308 69.5 -449.5t202.5 -141.5t202.5 137.5t69.5 466.5q0 294 -66.5 431t-196.5 139q-140 0 -211.5 -149t-69.5 -434 z" />
<glyph unicode="1" d="M166 1119v9q0 4 1 6.5t12 11.5l396 276h113q13 0 20 -6.5t7 -20.5v-1251h199q13 0 18 -6.5t8 -19.5v-91q-3 -15 -8 -21t-18 -6h-593q-15 0 -21 5.5t-6 21.5v91q0 13 6 18t21 8h225v1082l-305 -177q-9 -5 -14.5 -7t-7.5 -2q-6 0 -10 1t-6 10l-32 61q-5 3 -5 7z" />
<glyph unicode="2" d="M152 29l2 55q7 186 77 332t233 270q264 201 286 248.5t22 118.5q0 106 -54.5 174.5t-155.5 70.5q-85 -2 -136.5 -40t-102.5 -148q-22 -48 -30 -50.5t-21 2.5l-97 29q-13 2 -15.5 6.5t-2.5 12.5q-3 11 2 24.5t14 37.5q46 128 150 205t252 77q172 0 275.5 -112t103.5 -289 q0 -108 -38 -186t-295 -274q-139 -106 -198.5 -203.5t-74.5 -235.5h576q13 0 19 -6.5t8 -18.5v-102q0 -15 -7 -21t-20 -6h-743q-17 0 -24 6.5t-5 22.5z" />
<glyph unicode="3" d="M118 80l46 104q2 6 6.5 8t10.5 5l2 -2q1 -1 34 -14q59 -29 124.5 -43t129.5 -14q144 -2 218.5 74t76.5 205q-2 131 -80 200.5t-241 71.5h-80q-15 0 -21 5.5t-6 20.5v95q-2 13 5 19t22 8h80q137 0 211 74t74 189q0 100 -62 156t-155 56q-62 0 -118.5 -27.5t-105.5 -76.5 q-21 -24 -27.5 -27.5t-14.5 -3.5q-2 -2 -3 -2t-1 2h-3t-8 7l-73 62q-7 5 -10 10t-3 10q0 4 3 11t15 20q64 78 158 124.5t200 46.5q156 0 265.5 -98t109.5 -261q0 -120 -58 -201.5t-168 -125.5q128 -40 202 -136t74 -236q0 -192 -128.5 -309.5t-345.5 -117.5q-80 0 -166 16.5 t-153 45.5q-24 9 -34 21t-2 28z" />
<glyph unicode="4" d="M68 340v129l582 966q4 9 10.5 14t29.5 1l104 -17q13 -4 19 -8.5t8 -10.5q0 -5 -1 -7.5t-8 -13.5l-569 -935h418l29 356q0 15 5.5 20.5t23.5 7.5h83q13 0 19 -6.5t8 -19.5v-358h182q13 0 18.5 -6.5t8.5 -20.5v-91q0 -15 -7 -20.5t-20 -5.5h-182v-318q-2 -13 -6 -19t-18 -8 h-117q-15 0 -21 7t-6 20v318h-566q-15 -2 -22 4.5t-5 21.5z" />
<glyph unicode="5" d="M159 51l25 99q0 7 5 11.5t14 4.5h-2t42 -12q84 -24 120 -27t78 -3q175 0 259.5 92t84.5 261q0 138 -61 208.5t-167 72.5q-61 0 -113.5 -23t-145.5 -102q-13 -11 -18.5 -13.5t-13.5 1.5l-82 29q-9 2 -13.5 4.5t-4.5 4.5q-4 2 -5.5 10t1.5 17l68 707q0 20 5.5 24.5 t21.5 4.5h583q13 0 19 -6.5t8 -20.5v-103q-2 -15 -7.5 -19.5t-19.5 -4.5h-466l-49 -449l29 19q53 36 111.5 56t125.5 20q170 -2 273 -125.5t103 -306.5q0 -226 -132 -369.5t-379 -143.5q-78 2 -141 11t-118 24q-27 7 -36 17t-2 30z" />
<glyph unicode="6" d="M137 578q0 159 32 315t92 268q76 144 197.5 216.5t256.5 76.5q42 0 93 -8.5t85 -18.5q25 -11 31.5 -21.5t2.5 -23.5l-34 -84q-6 -13 -10.5 -15t-10.5 -2h-9t-7 2q-52 13 -79 17.5t-49 4.5q-62 0 -123 -26.5t-105 -66.5q-66 -60 -108 -139t-73 -244l-5 -21l5 -6 q40 76 115 123.5t170 47.5q170 0 270.5 -138t100.5 -353q0 -237 -123.5 -375t-305.5 -138q-205 0 -307 155t-102 454zM319 462q0 -170 61 -255t169 -83q108 0 176.5 92t68.5 257q0 157 -61.5 251.5t-170.5 94.5q-122 0 -182.5 -96.5t-60.5 -260.5z" />
<glyph unicode="7" d="M150 1294v101q0 13 6 20t21 7h756q13 0 19 -6.5t8 -20.5v-55l-511 -1338q-6 -15 -12 -18t-13 -3l-130 19q-11 0 -17.5 2t-6.5 7q-2 2 -3 5t7 24l478 1230h-575q-15 0 -22 5.5t-5 20.5z" />
<glyph unicode="8" horiz-adv-x="1114" d="M89 369q0 129 84 233.5t230 153.5q-120 51 -185.5 144.5t-65.5 216.5q0 141 105.5 239t299.5 98q193 0 298 -98t107 -239q0 -124 -66.5 -216.5t-183.5 -144.5q143 -49 227.5 -153.5t86.5 -233.5q0 -166 -126 -283t-343 -117q-219 0 -343.5 117t-124.5 283zM270 359 q-2 -106 77.5 -173.5t209.5 -67.5q129 0 208.5 67t79.5 174q0 95 -62 164.5t-205 135.5l-21 8l-19 -8q-146 -66 -207 -135.5t-61 -164.5zM332 1104q0 -78 54.5 -150t162.5 -125l8 -4l9 4q106 53 161.5 125t55.5 150q0 84 -63 142.5t-163 58.5q-101 0 -163 -58.5t-62 -142.5z " />
<glyph unicode="9" d="M135 940q-2 234 121.5 372t307.5 142q203 0 306 -156t103 -453q-2 -203 -45 -382.5t-116 -285.5q-73 -104 -175.5 -156t-218.5 -52q-42 0 -87.5 7t-89.5 18q-27 6 -31 15t-2 27l9 88q0 9 5.5 14.5t14.5 5.5q4 0 9.5 -1.5t29.5 -7.5q34 -11 62.5 -14t60.5 -3 q158 0 249 105.5t144 369.5l4 22l-4 4q-42 -78 -117.5 -125t-167.5 -45q-173 -2 -272.5 136.5t-99.5 354.5zM316 949q-2 -162 60 -256t173 -91q120 0 181.5 95t61.5 263q0 169 -63.5 253.5t-166.5 84.5q-111 -2 -178.5 -94t-67.5 -255z" />
<glyph unicode=":" horiz-adv-x="654" d="M173 124q0 62 45.5 108.5t108.5 46.5q62 0 108.5 -46.5t46.5 -108.5q0 -64 -46.5 -108.5t-108.5 -46.5q-63 0 -108.5 45t-45.5 110zM173 907q0 62 45.5 108.5t108.5 46.5q62 -3 108.5 -48t46.5 -107q0 -64 -46.5 -109.5t-108.5 -45.5q-63 0 -108.5 45t-45.5 110z" />
<glyph unicode=";" horiz-adv-x="654" d="M113 -199q1 2 7 13l129 441q3 13 12 17t22 7h184q13 0 18.5 -4.5t5.5 -10.5q0 -5 -2 -11t-7 -12l-254 -467q-4 -6 -7.5 -10.5t-5.5 -6.5q-2 0 -4.5 -1t-5.5 -1q-4 0 -6 1t-11 3l-57 20q-13 4 -15 7t-2 9q-2 4 -1 6zM205 907q0 62 45.5 107t110.5 48q61 -3 107.5 -48 t46.5 -107q0 -64 -45.5 -109.5t-108.5 -45.5q-64 0 -110 45t-46 110z" />
<glyph unicode="&#x3c;" d="M49 509v103q0 13 4 21.5t20 14.5l894 323q10 4 14.5 5t12.5 1q6 0 9.5 -4t9.5 -17l36 -102l3 -12t1 -6q-2 -9 -5.5 -12t-15.5 -8l-711 -254v-5l711 -251q11 -5 16 -11t5 -12q0 -2 -1 -4.5t-3 -10.5l-36 -102q-6 -15 -10.5 -18.5t-8.5 -3.5q-7 0 -13 1t-14 5l-894 323 q-15 4 -21 12.5t-3 23.5z" />
<glyph unicode="=" d="M49 356v106q-3 13 3.5 19t23.5 8h952q13 0 19 -7t8 -20v-106q0 -15 -6.5 -22t-20.5 -5h-952q-16 -2 -23 4.5t-4 22.5zM49 659v107q-3 13 3.5 18t23.5 8h952q13 -3 19 -8t8 -18v-107q0 -15 -6.5 -21.5t-20.5 -4.5h-952q-16 0 -23 5.5t-4 20.5z" />
<glyph unicode="&#x3e;" d="M53 278.5v4.5q0 6 3 12t17 11l712 251v5l-712 254q-13 5 -16.5 8t-3.5 12v5.5t4 12.5l36 102q4 13 7.5 17t11.5 4q5 -2 9.5 -2t17.5 -4l893 -323q13 -6 18 -14.5t7 -21.5v-103q0 -15 -5 -23.5t-20 -12.5l-893 -323q-10 -4 -15.5 -5t-11.5 -1t-10.5 3t-8.5 19l-36 102 q-4 8 -4 10.5z" />
<glyph unicode="?" horiz-adv-x="941" d="M84 1440.5v9.5q0 5 7.5 12t39.5 22q55 27 137 45t156 18q80 -3 152 -24t123 -65q48 -46 77 -115t29 -151q0 -86 -30 -154.5t-89 -119.5q-40 -33 -99 -61t-120 -41v-204q0 -15 -6.5 -21.5t-19.5 -4.5h-99q-15 0 -21.5 5.5t-4.5 20.5v260q-2 33 4.5 42.5t46.5 20.5 q76 20 117.5 41.5t70.5 47.5q31 31 50 72t19 94q-2 49 -16.5 86.5t-41.5 65.5q-29 25 -68.5 39t-90.5 17q-57 -3 -124.5 -19t-118.5 -41q-11 -6 -13 -6h-3q-2 -3 -4.5 -3t-2.5 3q-8 0 -12.5 3t-6.5 12l-33 84q-5 6 -5 9.5zM241 124q-2 62 44.5 107t110.5 48 q62 0 107.5 -46.5t47.5 -108.5q0 -64 -46.5 -108.5t-108.5 -46.5q-63 0 -109 45t-46 110z" />
<glyph unicode="@" horiz-adv-x="2087" d="M148 399q-2 447 305.5 753t749.5 306q330 0 530 -176t202 -477q0 -275 -164.5 -487t-381.5 -210q-95 0 -141.5 54.5t-44.5 145.5h-4q-68 -102 -145 -150t-159 -48q-86 -2 -138 62.5t-52 190.5q0 124 39 253t110 211q53 62 120.5 92t137.5 32q49 -2 89 -22t80 -66l21 53 q3 6 6.5 9.5t10.5 3.5h106q6 0 9 -5.5t1 -18.5l-108 -506q-6 -27 -6 -30.5v-7.5q-2 -5 -2 -10.5t2 -10.5q0 -61 23 -85.5t68 -24.5q148 -2 264 171.5t116 398.5q0 241 -155 385t-427 144q-399 0 -654 -271t-255 -653q0 -303 171.5 -483.5t518.5 -182.5q169 2 320 38.5 t310 108.5q57 29 56 27t1 -2q2 3 5 3t5 -3q4 0 7.5 -4t7.5 -13l27 -65q11 -27 -13.5 -45t-93.5 -48q-164 -63 -316 -94t-303 -31q-394 0 -625 205.5t-231 582.5zM865 369q0 -68 21 -95t58 -27q80 0 158 90t110 229l38 181q-43 40 -78 58t-70 18q-62 0 -107.5 -47.5 t-74.5 -129.5q-27 -74 -41 -144.5t-14 -132.5z" />
<glyph unicode="A" horiz-adv-x="1332" d="M22 27v91q0 13 5.5 18t21.5 8h108l411 1346q2 11 9 18t25 7h130q15 0 22 -6.5t12 -18.5l408 -1346h111q13 0 19.5 -6.5t6.5 -19.5v-91q0 -15 -6.5 -21t-19.5 -6h-447q-15 0 -20.5 5.5t-5.5 21.5v91q0 13 5.5 18t20.5 8h137l-86 307h-454l-83 -307h142q13 0 18 -6.5 t7 -19.5v-91q0 -15 -6 -21t-19 -6h-445q-16 0 -23 6q-5 4 -5 12q0 4 1 9zM477 606h370l-132 489q-38 133 -44 157.5t-8 52.5h-4q-11 -53 -24.5 -112.5t-22.5 -97.5z" />
<glyph unicode="B" horiz-adv-x="1229" d="M89 27v91q0 13 5 18t20 8h141v1228h-141q-15 0 -20 5t-5 21v90q0 13 5 19t20 8h553q195 0 297 -90.5t102 -269.5q0 -125 -53 -213t-166 -148q124 -32 198 -127t74 -249q-2 -89 -28.5 -163t-73.5 -124q-59 -64 -145.5 -97.5t-219.5 -33.5h-538q-15 0 -20 5.5t-5 21.5z M435 154h198q80 0 134 20t92 65q31 35 45 81.5t16 103.5q0 68 -22 121.5t-71 93.5q-40 32 -87.5 46t-118.5 14h-186v-545zM435 847h140h16q71 1 119 17q54 18 90 58q32 34 49.5 87t17.5 126q0 51 -13.5 93t-34.5 68q-32 33 -74 49t-124 16h-186v-514z" />
<glyph unicode="C" horiz-adv-x="1063" d="M114 772q0 211 35 354.5t98 234.5q62 91 154.5 138.5t215.5 47.5q75 0 139.5 -20t132.5 -56q38 -22 55.5 -38.5t19.5 -39.5v-245q0 -15 -6.5 -22t-20.5 -5h-97q-15 -2 -21.5 5t-4.5 22v188l-14 9q-33 19 -88 36t-104 17q-76 0 -127.5 -32t-86.5 -92q-40 -65 -60 -168.5 t-20 -269.5q0 -179 20 -328t62 -234q36 -76 101 -118q59 -38 125 -38h13q36 0 78.5 10.5t91.5 39.5l20 11v190q-2 13 4.5 19t21.5 8h98q13 0 19.5 -7t6.5 -20v-230q-2 -35 -9.5 -46t-32.5 -27q-73 -49 -157 -73t-164 -24q-112 0 -210.5 49.5t-162.5 160.5q-59 95 -93 241 q-32 138 -32 329v23z" />
<glyph unicode="D" horiz-adv-x="1269" d="M89 27v91q0 13 5 18t20 8h141v1228h-141q-15 0 -20 5t-5 21v90q0 13 5 19t20 8h503q101 0 181 -25.5t139 -67.5q102 -80 160 -236t58 -414q0 -236 -49 -393.5t-139 -243.5q-74 -68 -178.5 -101.5t-252.5 -33.5h-422q-15 0 -20 5.5t-5 21.5zM435 154h137q129 0 212 56 t128 189q21 65 32.5 152.5t11.5 204.5q0 162 -16 259t-45 167q-42 90 -120 134.5t-218 44.5h-122v-1207z" />
<glyph unicode="E" horiz-adv-x="1063" d="M89 27v91q0 13 5 18t20 8h141v1228h-141q-15 0 -20 5t-5 21v90q0 13 5 19t20 8h837q13 0 18.5 -6.5t7.5 -20.5v-304q0 -15 -6.5 -22t-19.5 -5h-97q-15 0 -21 5t-6 22v177h-392v-492h437q13 -2 18 -7.5t7 -19.5v-101q0 -15 -6 -20.5t-19 -5.5h-437v-561h407v198 q0 13 6 18.5t21 7.5h98q13 -2 18.5 -7.5t8.5 -18.5v-325q0 -15 -7 -21t-20 -6h-853q-15 0 -20 5.5t-5 21.5z" />
<glyph unicode="F" horiz-adv-x="1023" d="M89 27v91q0 13 5 18t20 8h141v1228h-141q-15 0 -20 5t-5 21v90q0 13 5 19t20 8h837q13 0 18.5 -6.5t7.5 -20.5v-304q0 -15 -6.5 -22t-19.5 -5h-97q-15 0 -21 5t-6 22v177h-392v-507h437q13 -2 18 -8t7 -19v-101q0 -15 -6 -21t-19 -6h-437v-555h164q13 0 20 -6.5t7 -19.5 v-91q0 -15 -7 -21t-20 -6h-485q-15 0 -20 5.5t-5 21.5z" />
<glyph unicode="G" horiz-adv-x="1224" d="M114 772q0 186 35 330.5t98 242.5q66 101 167 151.5t232 50.5q86 0 170.5 -29.5t163.5 -82.5q10 -8 15 -15.5t7 -26.5v-245q0 -15 -7 -22t-20 -5h-97q-15 -2 -22 5t-5 22v188l-13 6q-61 30 -106.5 41.5t-87.5 14.5q-72 0 -130 -29t-98 -86q-53 -76 -77.5 -197.5 t-24.5 -291.5q0 -179 21 -303t66 -210q40 -84 103.5 -123.5t154.5 -39.5q46 0 100.5 10.5t94.5 30.5v465h-177q-15 0 -21 5.5t-6 20.5v91q0 13 5.5 19t21.5 8h482q13 -2 20 -8t7 -19v-91q0 -15 -7 -22t-20 -4h-124v-480q-3 -64 -11.5 -77.5t-52.5 -33.5q-62 -29 -146 -45.5 t-171 -18.5q-139 0 -242.5 53.5t-172.5 169.5q-66 108 -95.5 248t-29.5 332z" />
<glyph unicode="H" horiz-adv-x="1433" d="M86 27v91q0 13 5.5 18t20.5 8h140v1228h-140q-15 0 -20.5 5t-5.5 21v90q0 13 5.5 19t20.5 8h460q13 0 19 -6.5t8 -20.5v-90q0 -16 -6.5 -21t-20.5 -5h-139v-507h567v507h-139q-15 0 -22 5t-5 21v90q-2 13 4.5 19t22.5 8h460q13 0 19.5 -6.5t6.5 -20.5v-90q0 -16 -6.5 -21 t-19.5 -5h-139v-1228h139q13 0 19.5 -6.5t6.5 -19.5v-91q0 -15 -6.5 -21t-19.5 -6h-460q-15 0 -22 5.5t-5 21.5v91q0 13 5.5 18t21.5 8h139v566h-567v-566h139q13 0 19 -6.5t8 -19.5v-91q0 -15 -6.5 -21t-20.5 -6h-460q-15 0 -20.5 5.5t-5.5 21.5z" />
<glyph unicode="I" horiz-adv-x="735" d="M51 27v91q0 13 5.5 18t21.5 8h201v1228h-201q-15 0 -22 5q-5 4 -5 14v7v90q0 13 5.5 19t21.5 8h583q13 0 20 -6.5t7 -20.5v-90q-2 -16 -7.5 -22.5t-19.5 -3.5h-201v-1228h201q13 0 20 -6.5t7 -19.5v-91q-2 -15 -7.5 -21t-19.5 -6h-583q-15 0 -22 6q-5 4 -5 14v7z" />
<glyph unicode="J" horiz-adv-x="981" d="M13 367v40q0 13 6 18.5t21 7.5h114q13 0 20 -6.5t7 -19.5v-13q0 -75 13.5 -124t39.5 -80q30 -38 72 -55t99 -17h11q45 0 83 14q43 16 73 49q27 32 42 79.5t15 113.5v987h-388q-15 0 -21.5 5.5t-4.5 20.5v101q0 13 5.5 19t20.5 8h542q13 0 19 -7t8 -20v-1114 q-2 -100 -27 -169.5t-68 -118.5q-53 -57 -130.5 -87t-181.5 -30q-102 0 -177.5 31t-123.5 95q-45 53 -67 127t-22 145z" />
<glyph unicode="K" horiz-adv-x="1269" d="M86 27v91q0 13 5.5 18t20.5 8h140v1228h-140q-15 0 -20.5 5t-5.5 21v90q0 13 5.5 19t20.5 8h460q13 0 19 -6.5t8 -20.5v-90q0 -16 -6.5 -21t-20.5 -5h-139v-618h5l465 618h-109q-15 0 -21.5 5t-4.5 21v90q0 13 5.5 19t20.5 8h405q13 0 19 -6.5t8 -20.5v-90q-2 -16 -8 -21 t-19 -5h-100l-482 -620l487 -608h108q13 0 19 -6.5t8 -19.5v-91q0 -15 -6.5 -21t-20.5 -6h-423q-15 0 -21.5 5.5t-3.5 21.5v91q0 13 5 18t20 8h106l-457 584h-5v-584h139q13 0 19 -6.5t8 -19.5v-91q0 -15 -6.5 -21t-20.5 -6h-460q-15 0 -20.5 5.5t-5.5 21.5z" />
<glyph unicode="L" horiz-adv-x="1063" d="M89 27v91q0 13 5 18t20 8h141v1228h-141q-15 0 -20 5t-5 21v90q0 13 5 19t20 8h461q13 0 18.5 -6.5t8.5 -20.5v-90q0 -16 -6.5 -21t-20.5 -5h-140v-1218h399l78 218q4 10 12.5 14.5t22.5 0.5l102 -37q9 -7 13 -15q2 -4 2 -9q0 -6 -2 -14l-104 -287q-7 -13 -14 -19t-20 -6 h-810q-15 0 -20 5.5t-5 21.5z" />
<glyph unicode="M" horiz-adv-x="1564" d="M66 27v91v5q0 9 5 15q7 6 22 6h124l68 1228h-154q-15 0 -22 5t-5 21v90q0 13 5 19t22 8h327q9 0 16.5 -6.5t12.5 -15.5l260 -763q13 -42 19 -66.5t15 -70.5h4q7 46 12 70.5t22 66.5l260 763q2 8 10 15t19 7h327q13 0 20 -6.5t7 -20.5v-90q0 -16 -7 -21t-20 -5h-154 l68 -1228h124q13 0 20 -6.5t7 -19.5v-91q0 -15 -7 -21t-20 -6h-453q-16 0 -22.5 5.5t-3.5 21.5v91q0 13 5 18t21 8h154l-28 951v210h-4q-9 -80 -14 -104t-13 -53l-266 -770q-7 -15 -14.5 -20.5t-18.5 -3.5h-66q-13 0 -21 4.5t-12 19.5l-266 770q-10 29 -15 53.5t-12 103.5 h-4v-210l-29 -951h155q13 0 18.5 -6.5t7.5 -19.5v-91q0 -15 -6.5 -21t-19.5 -6h-453q-15 0 -22 6q-5 4 -5 14v7z" />
<glyph unicode="N" horiz-adv-x="1351" d="M78 27v91q0 13 5.5 18t20.5 8h139v1228h-139q-16 0 -22 5q-5 4 -4 14v7v90q0 11 6.5 19t19.5 8h310q13 0 20 -5.5t13 -14.5l488 -1031q7 -17 14 -36t24 -76l15 -58l6 4l-18 108l1 1v965h-143q-15 0 -22 5t-4 21v90q-2 13 4.5 19t21.5 8h447q13 0 19.5 -6.5t6.5 -20.5v-90 q0 -16 -6.5 -21t-19.5 -5h-142v-1345q-2 -15 -8 -21t-19 -6h-121q-15 0 -23 4.5t-12 17.5l-509 1093q-27 52 -36.5 89t-23.5 103l-5 -5q9 -48 15 -103t8 -93v-962h144q13 0 18 -6.5t8 -19.5v-91q-3 -15 -8 -21t-18 -6h-445q-15 0 -20.5 5.5t-5.5 21.5z" />
<glyph unicode="O" horiz-adv-x="1229" d="M114 758v12q0 398 133 586q135 191 368 191q251 0 375.5 -209.5t124.5 -579.5q0 -371 -124 -580t-376 -209q-258 0 -379.5 209t-121.5 580zM314 758q0 -374 75 -507t226 -133q147 0 224 133t77 507q-2 359 -75 499.5t-226 140.5q-148 0 -224.5 -135t-76.5 -505z" />
<glyph unicode="P" horiz-adv-x="1116" d="M89 27v91q0 13 5 18t20 8h141v1228h-141q-15 0 -20 5t-5 21v90q0 13 5 19t20 8h549q97 0 173 -25.5t128 -71.5q56 -53 82 -129.5t26 -176.5q0 -122 -35 -213t-97 -149q-60 -56 -148.5 -83.5t-196.5 -27.5h-160v-495h164q13 0 20 -6.5t7 -19.5v-91q0 -15 -7 -21t-20 -6 h-485q-15 0 -20 5.5t-5 21.5zM435 794h145h17q88 0 138 19q54 21 92 67q29 36 46.5 94t17.5 130q0 66 -17.5 117t-48.5 81q-31 27 -78.5 41.5t-140.5 17.5h-171v-567z" />
<glyph unicode="Q" horiz-adv-x="1229" d="M114 754q0 371 125.5 580.5t386.5 212.5q224 0 354 -187.5t132 -601.5q0 -190 -30.5 -336t-114.5 -274l-5 -7q72 -63 112.5 -93.5t97.5 -62.5q27 -15 32.5 -22t5.5 -16q0 -2 -3.5 -6.5t-5.5 -8.5l-117 -80q-11 -5 -22 -5h-3q-12 1 -35 14q-40 25 -81.5 62t-108.5 104 q-55 -27 -106 -42.5t-111 -15.5q-245 0 -374 190.5t-129 594.5zM314 764q0 -359 75 -502.5t223 -143.5q150 0 226 140.5t76 493.5q0 356 -75 501t-222 145q-153 -3 -228 -143t-75 -491z" />
<glyph unicode="R" horiz-adv-x="1229" d="M89 27v91q0 13 5 18t20 8h141v1228h-141q-15 0 -20 5t-5 21v90q0 13 5 19t20 8h538q209 0 314.5 -103t105.5 -287q0 -86 -25 -161t-78 -137q-42 -48 -88.5 -77t-99.5 -45l312 -561h108q13 0 19 -6.5t8 -19.5v-91q-2 -15 -8 -21t-19 -6h-217q-17 0 -25 5.5t-15 19.5 l-349 665h-160v-546h143q13 0 18.5 -6.5t7.5 -19.5v-91q0 -15 -6.5 -21t-19.5 -6h-464q-15 0 -20 5.5t-5 21.5zM435 834h145h20q82 0 130 14q53 16 93 57q33 34 50.5 79.5t17.5 108.5q0 78 -16 126.5t-50 80.5q-33 29 -82 45t-144 16h-164v-527z" />
<glyph unicode="S" horiz-adv-x="1061" d="M93 118v256q0 13 5.5 19t21.5 8h97q13 0 18.5 -7t7.5 -20v-182l12 -4q137 -54 177 -64q28 -7 55 -7q12 0 24 1h6q115 0 185 70q72 72 72 192q0 91 -46.5 155t-187.5 146q-159 91 -186 107.5t-48 34.5q-91 64 -134 142.5t-43 184.5q0 93 36 168t105 130q62 49 137 74 t161 25q80 0 167.5 -21.5t151.5 -54.5q29 -17 35.5 -29.5t8.5 -37.5v-243q0 -15 -6.5 -21.5t-19.5 -4.5h-97q-15 0 -22 5.5t-5 20.5v179l-15 7q-85 35 -119.5 43t-84.5 8q-108 0 -171.5 -64t-63.5 -164q0 -72 31 -123t102 -98q42 -29 114 -66.5t99 -50.5q154 -91 227 -193.5 t73 -235.5q0 -199 -133 -316.5t-336 -117.5q-95 0 -212 29t-178 68q-15 6 -18 18.5t-3 33.5z" />
<glyph unicode="T" horiz-adv-x="1061" d="M55 1110v378q0 13 5.5 19t21.5 8h898q13 0 18.5 -6.5t8.5 -20.5v-378q0 -15 -6.5 -20.5t-18.5 -5.5h-102q-15 0 -20.5 5.5t-3.5 20.5v251h-235v-1217h158q13 0 18 -6.5t8 -19.5v-91q0 -15 -6.5 -21t-19.5 -6h-496q-15 0 -21.5 5.5t-4.5 21.5v91q0 13 5.5 18t20.5 8h158 v1217h-236v-251q0 -15 -6.5 -22t-19.5 -4h-97q-15 0 -22 6q-5 4 -5 14v6z" />
<glyph unicode="U" horiz-adv-x="1391" d="M55 1398v90q0 13 5.5 19t21.5 8h464q13 0 18.5 -6.5t7.5 -20.5v-90q0 -16 -6.5 -21t-19.5 -5h-141v-961q0 -82 13 -131.5t42 -82.5q34 -45 86.5 -62t137.5 -17h16q71 0 120 16q54 18 98 65q36 38 51 85.5t17 126.5v961h-141q-16 0 -22.5 5t-3.5 21v90q0 13 5 19t21 8h464 q13 0 20 -6.5t7 -20.5v-90q0 -16 -6.5 -21t-20.5 -5h-142v-965q-2 -106 -27 -179.5t-78 -128.5q-66 -68 -158 -99t-218 -31q-124 0 -218 31t-152 99q-48 53 -70 128.5t-22 179.5v965h-142q-15 0 -22 5q-5 4 -5 14v7z" />
<glyph unicode="V" horiz-adv-x="1176" d="M2 1398v90q0 13 5.5 19t21.5 8h414q13 0 18.5 -6.5t7.5 -20.5v-90q-2 -16 -7.5 -21t-18.5 -5h-131l245 -1032q2 -19 13.5 -79t18.5 -97h4q6 44 12.5 80.5t20.5 91.5l254 1036h-119q-15 0 -21 5t-6 21v92q0 13 5.5 18t21.5 7h387q13 0 18.5 -6.5t7.5 -20.5v-90 q-2 -16 -7.5 -21t-18.5 -5h-82l-365 -1347q-4 -15 -10.5 -20t-23.5 -5h-154q-17 0 -24 4.5t-9 20.5l-360 1347h-91q-15 0 -22 5q-5 4 -5 14v7z" />
<glyph unicode="W" horiz-adv-x="1655" d="M22 1398v90q0 13 5.5 19t21.5 8h413q13 0 19 -6.5t8 -20.5v-90q-2 -16 -8 -21t-19 -5h-141l168 -958q2 -22 4.5 -48t8.5 -109l5 -80h4l4 66q2 57 7.5 102.5t15.5 81.5l212 1061q2 13 6.5 19t20.5 8h128q13 -2 17.5 -7.5t8.5 -19.5l184 -1092q6 -44 12 -91.5t8 -85.5 l2 -51h5l2 73q0 57 3 92.5t10 65.5l179 973h-137q-15 0 -22 5t-5 21v90q0 13 6 19t21 8h409q13 0 18.5 -6.5t7.5 -20.5v-90q-2 -16 -7.5 -21t-18.5 -5h-95l-283 -1347q-4 -17 -9 -21t-14 -4h-165q-13 0 -16.5 4.5t-5.5 22.5l-186 1207h-5l-230 -1207q-4 -22 -8.5 -24.5 t-12.5 -2.5h-158q-11 0 -15 2t-6 25l-258 1345h-92q-16 0 -21.5 5t-5.5 21z" />
<glyph unicode="X" horiz-adv-x="1229" d="M29 27v91q0 13 5.5 18t20.5 8h104l350 645l-319 583h-101q-16 0 -23 5t-4 21v90q0 13 5.5 19t21.5 8h424q13 0 19 -6.5t8 -20.5v-90q-2 -16 -8 -21t-19 -5h-124l173 -317l55 -115q8 24 19.5 49.5t38.5 74.5l163 308h-104q-15 0 -21 5t-6 21v90q0 13 6 19t21 8h401 q13 0 18.5 -6.5t7.5 -20.5v-90q0 -16 -6.5 -21t-19.5 -5h-100l-323 -576l360 -652h102q13 0 19 -6.5t8 -19.5v-91q-2 -15 -7.5 -21t-19.5 -6h-424q-16 0 -21 5.5t-5 21.5v91q0 13 5 18t21 8h119l-210 396q-7 9 -7 10t-40 94l-44 -102l-209 -398h116q13 0 19 -6.5t8 -19.5 v-91q0 -15 -6.5 -21t-20.5 -6h-420q-15 0 -21 6q-5 4 -5 14v7z" />
<glyph unicode="Y" horiz-adv-x="1195" d="M11 1398v90q0 13 5.5 19t21.5 8h424q13 0 19 -6.5t8 -20.5v-90q-2 -16 -8 -21t-19 -5h-130l219 -448q6 -15 12.5 -27t11.5 -19q4 -11 12 -28.5t12 -22.5q0 -4 2.5 -7.5t6.5 -9.5l51 114l210 448h-135q-15 0 -21 5t-6 21v90q0 13 6 19t21 8h425q13 0 19 -6.5t8 -20.5v-90 q-2 -16 -8 -21t-19 -5h-93l-376 -728v-500h155q13 0 18.5 -6.5t8.5 -19.5v-91q0 -15 -6.5 -21t-20.5 -6h-491q-15 0 -21 5.5t-6 21.5v91q-2 13 4.5 18t22.5 8h155v495l-389 733h-82q-15 0 -21 5t-6 21z" />
<glyph unicode="Z" horiz-adv-x="1063" d="M93 27v119l650 1215h-445v-167q0 -15 -6.5 -22t-19.5 -5h-97q-15 0 -22 6t-5 21v294q-2 13 4.5 19t22.5 8h754q13 0 19 -6.5t8 -20.5v-110l-655 -1224h531l63 182q5 11 13 14.5t32 -2.5l92 -34q7 -4 13 -8.5t6 -11.5q-2 -5 -3 -10t-4 -14l-88 -243q-7 -13 -15 -20t-21 -7 h-800q-15 0 -21 5.5t-6 21.5z" />
<glyph unicode="[" horiz-adv-x="817" d="M257 -420v1980q-2 12 5.5 17.5t22.5 7.5h388q13 -2 19.5 -7.5t6.5 -17.5v-85q0 -15 -6.5 -21t-19.5 -6h-249v-1758h249q13 0 19.5 -5.5t6.5 -20.5v-84q0 -13 -6.5 -19t-19.5 -8h-390q-15 2 -21.5 8t-4.5 19z" />
<glyph unicode="\" horiz-adv-x="1102" d="M129 1583q0 7 5 11.5t18 7.5h89q13 -3 22 -8.5t16 -16.5l854 -2004l4 -12t2 -10q0 -7 -8 -10t-19 -5h-88q-13 2 -21.5 6t-14.5 15l-853 2005q-4 8 -5 12.5t-1 8.5z" />
<glyph unicode="]" horiz-adv-x="817" d="M120 -336q-2 15 4.5 21.5t21.5 4.5h248v1758h-248q-15 0 -21.5 6t-4.5 21v85q-2 12 4.5 18.5t21.5 6.5h388q12 -2 18.5 -7.5t9.5 -17.5v-1980q0 -13 -6.5 -19t-19.5 -8h-390q-15 2 -21.5 8t-4.5 19v84z" />
<glyph unicode="^" d="M137 764v5t11 23l316 705q5 11 12 13.5t18 4.5h121q8 0 16 -4t13 -14l316 -705q9 -20 10 -23t1 -5q-2 -7 -6.5 -12t-15.5 -7l-107 -30q-13 -4 -20.5 -1t-11.5 14l-257 570l-255 -570q-4 -9 -10.5 -12.5t-11.5 -3.5h-4t-6 3l-107 30q-13 2 -18.5 6.5t-3.5 12.5z" />
<glyph unicode="_" d="M0 -166h1106v-110h-1106v110z" />
<glyph unicode="`" horiz-adv-x="680" d="M112 1433q0 2 2 6t8 15l64 95q6 11 10.5 14t11.5 3q3 0 7 -2t15 -9l329 -255q5 -4 7 -8.5t2 -6.5q0 -4 -3 -8.5t-6 -8.5l-28 -42q-4 -7 -8 -8.5t-8 -1.5h-7.5t-7.5 4l-367 192q-15 6 -18 10.5t-3 10.5z" />
<glyph unicode="a" horiz-adv-x="1023" d="M89 281q0 68 22 128t62 104q59 68 170 104.5t278 45.5l46 2v80q0 108 -47.5 153.5t-139.5 45.5q-60 0 -124 -15t-122 -42q-29 -13 -30 -13h-1q-6 0 -10.5 2t-6.5 9l-34 88q-2 2 -2 6.5v11.5t7.5 14.5t41.5 22.5l31 14q53 22 122.5 36.5t134.5 14.5q82 0 139.5 -14.5 t99.5 -40.5q53 -38 81.5 -99t28.5 -156v-424q0 -100 5.5 -141t21.5 -81h104q13 0 18.5 -6.5t8.5 -20.5v-83q0 -15 -7 -21t-20 -6h-188q-25 0 -41.5 16.5t-36.5 80.5l-7 21l-8 -10q-68 -68 -147 -103.5t-163 -35.5q-129 0 -208 83t-79 229zM257 294q0 -89 44 -138.5 t115 -49.5q51 0 115 32.5t123 91.5l13 13v285h-8q-102 -2 -179 -17t-124 -42q-53 -34 -76 -75.5t-23 -99.5z" />
<glyph unicode="b" horiz-adv-x="1102" d="M15 1475v85v5q0 9 5 13q7 6 22 7h285q13 -2 20 -7.5t7 -17.5v-580l20 16q66 51 128 74t133 23q166 0 262.5 -124t96.5 -394q-3 -142 -25 -251t-64 -185q-49 -84 -125.5 -127t-188.5 -43q-84 0 -154 25t-129 84l-5 -12q-17 -42 -36.5 -69.5t-32.5 -27.5q-4 0 -7 1t-19 13 l-73 48q-11 7 -14 10t-3 10h-3t3 2v2t8 13l7 10q25 33 39 84t14 108v1178h-144q-15 0 -22 6q-5 5 -5 15v6zM354 201q53 -40 116.5 -61.5t111.5 -21.5h7q59 0 107 35q50 37 78 115q15 48 26.5 137t11.5 179q0 89 -11.5 158.5t-28.5 106.5q-25 46 -66 70.5t-102 24.5 q-47 -2 -94.5 -19.5t-113.5 -61.5l-42 -29v-633z" />
<glyph unicode="c" horiz-adv-x="954" d="M110 498q0 139 32.5 252t98.5 192q55 68 136 109.5t174 41.5q59 0 141 -21t135 -52l18 -11q10 -9 15 -15t7 -21v-199q0 -15 -6.5 -21t-20.5 -6h-90q-16 0 -21 5.5t-5 21.5v129q-38 17 -80 29t-82 12q-129 0 -201 -94q-69 -90 -69 -301v-18q0 -221 63 -317t191 -96 q53 0 119.5 20.5t128.5 58.5q11 6 15.5 8.5t9.5 2.5q2 0 5 -2.5t5 -6.5l43 -104q1 -4 1 -8q-1 -6 -3 -11q-4 -8 -25 -21q-58 -38 -149.5 -62t-173.5 -24q-102 0 -179 38.5t-130 116.5q-51 71 -77 162.5t-26 211.5z" />
<glyph unicode="d" horiz-adv-x="1144" d="M110 509q0 152 33.5 275t97.5 196q46 55 111.5 83t156.5 30q71 0 134.5 -19t117.5 -57v431h-142q-15 0 -21.5 6t-4.5 21v85q0 12 5.5 18.5t20.5 6.5h284q13 -2 18.5 -7.5t7.5 -17.5v-1284q-1 -28 -1 -47t1 -30q2 -22 8 -42l5 -20h126q13 0 19 -7t8 -20v-83q-2 -15 -8 -21 t-19 -6h-199q-19 0 -33.5 11t-35.5 67l-8 21q-78 -66 -158.5 -98t-153.5 -32q-93 0 -164 37.5t-115 111.5q-42 63 -66.5 169.5t-24.5 221.5zM292 513q0 -112 10 -189t30 -111q21 -45 63.5 -70t98.5 -25q61 0 133.5 35t133.5 94v625q-61 37 -118 53.5t-124 18.5 q-63 0 -106.5 -23.5t-70.5 -64.5q-24 -40 -37 -125t-13 -218z" />
<glyph unicode="e" horiz-adv-x="1036" d="M104 531q0 140 34.5 244.5t102.5 182.5q55 64 130.5 99.5t172.5 35.5q82 0 153 -29t122 -80q61 -66 92 -179t33 -261v-10q-2 -20 -6.5 -29t-17.5 -9h-635v-11v-13q-1 -50 13 -106q16 -62 42 -107q36 -66 103.5 -103.5t147.5 -37.5q55 0 112.5 17t130.5 59q11 5 15.5 7 t11.5 4h1h3q2 -2 5.5 -4t5.5 -7l40 -99q0 -4 1 -7.5t1 -5.5q0 -11 -20 -23.5t-62 -31.5q-62 -27 -125 -42.5t-125 -15.5q-114 2 -208.5 41t-158.5 127q-55 71 -86 167q-29 90 -29 211v16zM285 633h479q0 48 -10.5 98t-25.5 90q-29 64 -79 98.5t-118 36.5q-68 0 -121.5 -34.5 t-82.5 -96.5q-19 -42 -30.5 -94t-11.5 -98z" />
<glyph unicode="f" horiz-adv-x="735" d="M78 951v84q0 13 5.5 18.5t20.5 8.5h143v172q0 104 17 164t57 109q40 48 94 71.5t131 23.5q60 -3 125.5 -16.5t100.5 -32.5q15 -11 20 -20q4 -5 4 -12q0 -5 -2 -10l-38 -91q-4 -6 -9.5 -11t-9.5 -5h-8t-22 12q-37 15 -77.5 24.5t-74.5 13.5q-38 0 -64.5 -10.5t-41.5 -29.5 q-17 -22 -25 -53.5t-8 -86.5v-212h318q16 0 21.5 -9t0.5 -23l-28 -86q-4 -13 -12.5 -16.5t-16.5 -3.5h-283v-787h154q13 0 19 -6.5t8 -20.5v-83q0 -15 -6.5 -21t-20.5 -6h-446q-15 0 -22 5.5t-5 21.5v83q0 13 5.5 19t21.5 8h123v787h-143q-15 0 -22 6q-4 4 -4 14v7z" />
<glyph unicode="g" horiz-adv-x="1108" d="M110 559q0 133 39 238.5t110 177.5q53 55 118.5 86.5t139.5 31.5t149 -27.5t136 -79.5l6 14q6 20 18 43t28 38q7 7 12.5 9.5t20.5 -4.5l82 -46q11 -9 14 -12.5t3 -7.5q0 -3 -1 -5t-10 -24q-31 -65 -39.5 -108t-8.5 -91v-401l8 -467v-7q0 -174 -98 -277 q-100 -104 -288 -104q-82 0 -168.5 21t-150.5 52l-22 11q-17 8 -25 19t-8 21v2l6 13l38 82q5 11 7 12t8 1q5 0 5 1t37 -18q60 -29 136.5 -49t136.5 -20q103 0 162 66q57 64 57 165v7l-10 237q-73 -66 -145.5 -98t-139.5 -32q-80 0 -147 37.5t-121 121.5q-48 73 -71.5 167 t-23.5 204zM292 580q0 -91 13.5 -169.5t36.5 -121.5q27 -52 73.5 -82t97.5 -30q46 0 115 34.5t130 94.5v553l-11 6q-75 42 -122 59.5t-89 19.5q-49 0 -95.5 -25.5t-77.5 -64.5q-38 -48 -54.5 -118.5t-16.5 -155.5z" />
<glyph unicode="h" horiz-adv-x="1222" d="M78 1475v85q0 12 5.5 17.5t20.5 7.5h274q13 -2 19 -7.5t8 -17.5v-611q78 68 165 106t184 38q73 0 121.5 -22t82.5 -62q29 -40 42 -95t13 -153v-624h124q13 -2 18.5 -8t7.5 -19v-83q0 -15 -6.5 -21t-19.5 -6h-265q-16 0 -23 5.5t-4 21.5v739q0 50 -6.5 75.5t-22.5 49.5 q-19 27 -49 40t-70 13q-68 -2 -152.5 -41.5t-139.5 -92.5v-673h123q13 -2 19 -7.5t8 -19.5v-83q0 -15 -6.5 -21t-20.5 -6h-418q-15 0 -21.5 5.5t-4.5 21.5v83q0 13 5.5 19t20.5 8h127v1311h-133q-16 0 -22 6q-5 5 -4 14v7z" />
<glyph unicode="i" horiz-adv-x="614" d="M33 951v84q0 13 5.5 18.5t20.5 8.5h315q13 -3 21 -10.5t8 -23.5v-891h156q13 0 19 -7t8 -20v-83q0 -15 -7 -21t-20 -6h-483q-16 0 -23 5.5t-4 21.5v83q-3 13 3.5 19t23.5 8h158v787h-175q-15 0 -21 6q-5 4 -5 14v7zM171 1450v7q-1 49 37 87q40 41 98 41q53 0 94 -41 t41 -94q-3 -55 -42.5 -94t-92.5 -39q-55 0 -95 39t-40 94z" />
<glyph unicode="j" horiz-adv-x="603" d="M-168 -378q0 4 1 8.5t3 8.5l42 93q4 7 8 9t8 2l2 2v-2q5 0 11.5 -2t12.5 -7q59 -27 102.5 -38.5t81.5 -11.5q80 0 117.5 44t37.5 194v1002h-175q-15 0 -22 5.5t-5 21.5v84q-2 13 4.5 18.5t22.5 8.5h317q13 -3 18 -8.5t8 -18.5v-1153q0 -162 -79.5 -254t-243.5 -92 q-62 2 -122 16.5t-115 38.5q-15 8 -24 17.5t-11 13.5zM194 1450q0 53 40 93t95 42q53 0 94 -41t41 -94q-2 -55 -42 -94t-93 -39q-55 0 -95 39t-40 94z" />
<glyph unicode="k" horiz-adv-x="1163" d="M78 1475v85q0 12 5.5 17.5t20.5 7.5h270q15 -2 22 -8.5t9 -19.5v-982l340 349h-99q-15 0 -22 5.5t-5 21.5v84q0 13 6 18.5t21 8.5h420q13 0 19 -6.5t8 -20.5v-84q0 -15 -7 -22t-20 -5h-112l-359 -349l385 -438h115q13 -2 17.5 -8t6.5 -19v-83q-2 -15 -6.5 -21t-17.5 -6 h-206q-15 0 -22.5 3t-15.5 14l-446 527v-407h123q13 -2 19 -7.5t8 -19.5v-83q0 -15 -6.5 -21t-20.5 -6h-418q-15 0 -21.5 5.5t-4.5 21.5v83q0 13 5.5 19t20.5 8h127v1311h-133q-16 0 -22 6q-5 5 -4 14v7z" />
<glyph unicode="l" horiz-adv-x="614" d="M22 1475v85q0 12 5.5 18.5t21.5 6.5h274q13 -2 20 -7.5t7 -17.5v-1246q-1 -20 -1 -37q1 -49 5 -77q6 -38 18 -54q8 -15 28 -21.5t45 -6.5q19 0 43.5 5.5t45.5 13.5q15 7 18 8t7 1q5 0 8 -3.5t8 -9.5l29 -93q2 -8 2 -14q0 -8 -4 -12q-6 -8 -18 -12q-42 -15 -83 -24t-83 -9 q-73 2 -128.5 29t-76.5 78q-18 31 -25 74.5t-7 115.5v1182h-132q-16 0 -21.5 6t-5.5 21z" />
<glyph unicode="m" horiz-adv-x="1669" d="M78 951v84q0 13 5.5 18.5t20.5 8.5h212q22 0 33.5 -16t30.5 -69l4 -13q98 72 166.5 100.5t143.5 28.5q64 0 115.5 -27.5t87.5 -90.5l10 -15q78 64 159.5 97.5t157.5 35.5q53 0 97 -19t74 -50q36 -40 52.5 -95t16.5 -168v-624h124q13 0 20 -7t7 -20v-83q-3 -15 -8 -21 t-19 -6h-265q-15 0 -21 5.5t-6 21.5v739q0 88 -35 133t-109 45q-48 0 -102 -23.5t-92 -51.5l-21 -15v-717h125q13 0 18.5 -6.5t8.5 -20.5v-83q-3 -15 -8.5 -21t-18.5 -6h-266q-15 0 -21.5 5.5t-4.5 21.5v739q0 97 -39 137.5t-107 40.5q-53 0 -107.5 -24.5t-105.5 -65.5v-717 h127q13 0 18.5 -6.5t7.5 -20.5v-83q0 -15 -6.5 -21t-19.5 -6h-420q-15 0 -22 5.5t-5 21.5v83q0 13 5.5 19t21.5 8h125v648q0 49 -2 73t-7 47l-4 19h-126q-16 0 -22 6q-5 4 -4 14v7z" />
<glyph unicode="n" horiz-adv-x="1218" d="M78 951v84q0 13 5.5 18.5t20.5 8.5h221q9 0 16 -4.5t15 -15.5q9 -17 18.5 -39.5t14.5 -40.5l5 -20l20 16q90 71 174.5 103t167.5 32q66 0 118.5 -24.5t85.5 -66.5q27 -40 40 -90.5t13 -150.5v-624h124q13 -2 18.5 -8t7.5 -19v-83q0 -15 -6.5 -21t-19.5 -6h-265 q-16 0 -23 5.5t-4 21.5v739q-3 57 -10.5 82.5t-22.5 46.5q-21 25 -49.5 36t-65.5 13q-60 -2 -129.5 -30.5t-138.5 -88.5l-18 -15v-673h127q13 0 18.5 -6.5t7.5 -20.5v-83q0 -15 -6.5 -21t-19.5 -6h-420q-15 0 -22 5.5t-5 21.5v83q0 13 5.5 19t21.5 8h125v648q0 49 -2 73 t-7 47l-4 19h-126q-16 0 -22 6q-5 4 -4 14v7z" />
<glyph unicode="o" horiz-adv-x="1100" d="M110 526q0 261 115 414t334 153q206 0 319 -147t113 -408q0 -266 -118.5 -417.5t-334.5 -151.5q-203 0 -315.5 146t-112.5 411zM292 546q0 -223 62 -331.5t199 -108.5q128 0 192.5 105t64.5 329q0 197 -63 306.5t-196 109.5q-133 -2 -196 -108.5t-63 -301.5z" />
<glyph unicode="p" horiz-adv-x="1136" d="M62 951v84q0 13 5.5 18.5t21.5 8.5h198q18 0 32.5 -12t36.5 -66l9 -22l11 9q80 64 153 93t146 29q89 0 157.5 -36.5t114.5 -109.5q38 -64 58.5 -165t20.5 -229q-2 -292 -104.5 -438t-264.5 -146q-62 2 -129.5 25t-122.5 65l-9 7v-376h142q13 0 18.5 -5.5t7.5 -20.5v-84 q0 -13 -6.5 -19t-19.5 -8h-436q-16 2 -22.5 8t-3.5 19v84q0 15 5 21.5t21 4.5h126v1095q-2 53 -3 75t-6 45l-4 19h-126q-16 0 -23 6q-5 3 -5 12q0 4 1 9zM396 213q66 -49 122.5 -72t107.5 -23q60 0 105.5 27.5t70.5 80.5q22 48 32.5 128.5t10.5 194.5q0 101 -8 167.5 t-25 110.5q-25 58 -68 87.5t-94 29.5q-46 0 -105.5 -24.5t-135.5 -74.5l-13 -9v-623z" />
<glyph unicode="q" horiz-adv-x="1102" d="M110 553q0 133 34.5 240.5t102.5 181.5q49 53 117.5 85.5t152.5 32.5q74 0 148 -26.5t137 -80.5l6 14q6 20 18 43t28 38q7 7 12.5 9.5t20.5 -4.5l82 -46q11 -9 14 -12.5t3 -7.5q0 -3 -1 -5t-10 -24q-31 -65 -39.5 -108t-8.5 -91v-1102h124q13 0 18.5 -5.5t7.5 -20.5v-84 q0 -13 -6.5 -19t-19.5 -8h-434q-15 2 -21.5 8t-4.5 19v84q0 15 5.5 21.5t20.5 4.5h141v409q-73 -63 -145.5 -96.5t-139.5 -33.5q-82 0 -151.5 37.5t-116.5 117.5q-46 74 -70.5 184t-24.5 245zM292 549q-1 -19 -1 -37q0 -82 11 -150q14 -83 38 -132q25 -55 67 -83.5t97 -28.5 q58 0 126.5 35t127.5 92v614l-11 6q-73 42 -125 60.5t-96 18.5q-62 0 -107 -29.5t-74 -82.5q-30 -53 -41.5 -123t-11.5 -160z" />
<glyph unicode="r" horiz-adv-x="779" d="M78 951v84q0 13 5.5 18.5t20.5 8.5h199q22 0 47.5 -40t38.5 -104l2 -11l31 35q53 59 71 76t38 31q30 19 65 31.5t69 12.5q18 0 39.5 -6t40.5 -12q11 -7 15 -15q2 -4 2 -9q0 -4 -1 -7l-54 -122q-4 -8 -7 -11.5t-6 -1.5h-3t-7 5q-20 8 -31 10.5t-22 4.5q-36 0 -75 -25.5 t-105 -105.5l-35 -42v-619h139q13 0 19 -7t8 -20v-83q0 -15 -7 -21t-20 -6h-431q-15 0 -22 5.5t-5 21.5v83q0 13 5.5 19t21.5 8h123v648q0 25 -7.5 64.5t-15.5 74.5h-120q-16 0 -22 6q-5 4 -4 14v7z" />
<glyph unicode="s" horiz-adv-x="859" d="M93 80v203q0 13 5.5 19t21.5 8h91q13 -2 18 -8t8 -19v-129l18 -6q36 -15 86 -25.5t94 -10.5q82 0 131 42.5t49 117.5q0 36 -13 63.5t-49 55.5q-19 13 -38 24.5t-57 31.5q-49 22 -79.5 36.5t-46.5 23.5q-118 57 -163 123.5t-45 154.5q0 62 23.5 119.5t69.5 102.5 q47 42 107 64t130 22q61 0 135 -20t130 -47q11 -6 16.5 -15t7.5 -20v-193q0 -15 -6.5 -20.5t-19.5 -5.5h-91q-15 0 -22 5.5t-5 20.5v122l-13 4q-40 11 -74.5 18t-62.5 7q-73 0 -115 -38.5t-42 -108.5q0 -24 5.5 -46t16.5 -37q18 -31 60 -57.5t133 -66.5q114 -55 158.5 -87.5 t71.5 -66.5q19 -34 32.5 -75t13.5 -83q0 -137 -98.5 -224.5t-255.5 -89.5q-62 0 -138 16.5t-137 43.5q-37 15 -49 26t-12 25z" />
<glyph unicode="t" horiz-adv-x="817" d="M42 951v84v6q0 9 4 13q6 6 22 8h156v303q-3 9 1.5 14.5t21.5 11.5l118 34q6 1 10 1q5 0 9 -2q6 -2 7 -22v-340h328q15 0 20.5 -9t1.5 -23l-29 -86q-5 -11 -12.5 -16.5t-15.5 -3.5h-293v-645q0 -45 5 -69t18 -42q16 -26 42 -40q20 -10 50 -11q9 0 18 1h12q32 0 66 8 q40 10 97 38q17 7 24 10t14 3q4 0 7 -3t8 -10l27 -86q1 -5 1 -9q0 -13 -10 -23q-12 -12 -38 -24q-68 -27 -128 -40t-113 -13q-65 2 -117.5 21t-86.5 56q-33 36 -48 88t-15 162v628h-156q-15 0 -20.5 5.5t-5.5 21.5z" />
<glyph unicode="u" horiz-adv-x="1186" d="M57 951v84v6q1 9 5 13q6 6 22 8h266q13 0 18.5 -6.5t7.5 -20.5v-739q0 -89 44 -133.5t126 -44.5q49 0 113.5 24t125.5 71l25 17v694h-126q-15 0 -21 5.5t-6 21.5v84q0 13 5 18.5t22 8.5h267q13 0 18.5 -6.5t7.5 -20.5v-759q0 -44 1.5 -70.5t7.5 -48.5l5 -20h126 q13 -2 19 -8t8 -19v-83q0 -15 -6.5 -21t-20.5 -6h-186q-31 0 -46.5 13.5t-35.5 62.5l-11 23q-76 -66 -156 -98t-169 -32q-80 2 -139.5 22t-94.5 60q-38 38 -56 94q-15 48 -15 128v28v623h-124q-15 0 -22 6q-5 4 -5 14v7z" />
<glyph unicode="v" horiz-adv-x="1047" d="M11 951v84q0 13 5.5 18.5t21.5 8.5h373q13 -3 18.5 -8t8.5 -19v-75q0 -15 -7 -22t-20 -5h-122l196 -593q11 -40 20.5 -73t18.5 -66h4q7 36 12.5 58t27.5 79l215 595h-131q-15 0 -21.5 5.5t-4.5 21.5v75q0 13 5.5 18.5t20.5 8.5h368q12 0 18 -6.5t9 -20.5v-84 q0 -15 -7.5 -22t-19.5 -5h-64l-365 -935q-7 -15 -13 -16.5l-14 -3.5h-89q-11 0 -16 3t-10 17l-339 935h-72q-15 0 -21 5.5t-6 21.5z" />
<glyph unicode="w" horiz-adv-x="1475" d="M36 951v84q0 13 5 18.5t21 8.5h385q13 0 18.5 -6.5t7.5 -20.5v-75q0 -15 -6.5 -21t-19.5 -6h-144l126 -604l22 -121h5q2 30 8.5 61.5t15.5 59.5l210 711q2 9 8.5 14t22.5 8h79q13 0 20 -6.5t12 -15.5l181 -739q2 -15 6.5 -39.5t8.5 -46.5h4q0 19 4 42.5t11 43.5l156 632 h-117q-15 0 -22 5.5t-5 21.5v75q-2 13 4.5 18.5t22.5 8.5h358q13 0 20 -6.5t7 -20.5v-84q0 -15 -6.5 -22t-20.5 -5h-86l-263 -933q-2 -8 -10 -15t-17 -7h-86q-13 2 -19.5 5.5t-8.5 16.5l-175 686q-9 31 -17 84t-8 90h-4q-9 -62 -15.5 -96t-17.5 -76l-208 -688 q-5 -13 -10 -16.5t-14 -5.5h-89q-10 0 -16 6t-8 16l-228 933h-82q-16 0 -22 6q-4 4 -5 12q0 4 1 9z" />
<glyph unicode="x" d="M55 27v83q0 13 5.5 19t21.5 8h82l309 405l-270 382h-99q-15 0 -21.5 5.5t-4.5 21.5v84q0 13 5.5 18.5t20.5 8.5h369q13 0 19 -6.5t8 -20.5v-75q-2 -15 -7.5 -22t-19.5 -5h-84l147 -226l23 -40l30 45l152 221h-84q-15 0 -21.5 5.5t-4.5 21.5v75q0 13 5.5 18.5t20.5 8.5 h343q13 -3 18.5 -8t7.5 -19v-84q-2 -15 -7.5 -22t-18.5 -5h-78l-274 -365l296 -422h82q13 0 19 -7t8 -20v-83q0 -15 -6.5 -21t-20.5 -6h-353q-15 0 -21 5.5t-6 21.5v75q0 12 5.5 18t21.5 9h79l-135 205q-46 65 -46 66q0 3 -12 27l-52 -82l-153 -216h102q13 -3 18.5 -9 t7.5 -18v-75q-2 -15 -7.5 -21t-18.5 -6h-374q-15 0 -22 6q-5 4 -5 14v7z" />
<glyph unicode="y" d="M15 951v84v5q0 9 5 14q7 5 22 8h405q13 0 18.5 -6.5t7.5 -20.5v-77q-2 -15 -7.5 -21t-18.5 -4h-141l240 -709q7 -22 13.5 -44.5t29.5 -106.5l2 -9h4q2 29 8.5 58.5t25.5 96.5l185 714h-130q-15 0 -21 5.5t-6 21.5v75q0 13 5 18.5t22 8.5h384q13 -3 20 -8t7 -19v-84 q-2 -15 -8 -22t-19 -5h-82l-228 -787q-73 -247 -116 -355.5t-89 -159.5q-40 -40 -94 -63t-119 -23q-57 0 -113 17.5t-109 45.5q-34 20 -45 32.5t-2 28.5l43 88q3 9 6.5 11t10.5 0h2t35 -23q40 -27 89 -45t83 -18q27 0 53.5 12t49.5 36q15 22 33 57.5t35 82.5l46 139h-80 q-17 0 -21.5 4.5t-6.5 14.5l-318 905h-89q-15 0 -22 6q-5 4 -5 14v7z" />
<glyph unicode="z" horiz-adv-x="986" d="M104 27v87l555 804h-365v-150q-2 -15 -7.5 -21t-18.5 -6h-93q-15 0 -22 5.5t-5 21.5v267q-2 13 4.5 18.5t22.5 8.5h667q25 0 26 -1.5t1 -25.5v-91l-550 -800h413l68 170q5 13 14 16.5t26 -3.5l89 -35q11 -6 15 -14q1 -2 1 -7q0 -7 -5 -19l-93 -233q-5 -10 -10 -14.5 t-18 -4.5h-688q-15 0 -22 6q-5 4 -5 14v7z" />
<glyph unicode="{" horiz-adv-x="941" d="M141 538v79q0 13 5.5 20t21.5 7h47q49 0 77.5 5t52.5 24q31 21 48.5 60t17.5 107v394q0 98 22.5 159t77.5 107q48 40 109 57.5t159 17.5h48q13 0 18.5 -6.5t8.5 -19.5v-85q0 -15 -7 -22t-20 -5h-42q-61 0 -99 -11.5t-60 -32.5q-24 -25 -35 -62t-11 -94v-395 q0 -112 -40 -174t-120 -90q80 -32 120 -94t40 -172v-394q0 -57 11 -95t35 -62q22 -19 60 -30.5t99 -13.5h42q13 0 19 -6t8 -21v-84q-2 -13 -8 -18.5t-19 -7.5h-48q-98 0 -159 18t-109 57q-55 47 -77.5 107.5t-22.5 157.5v394q0 66 -17.5 105t-48.5 63q-25 15 -53 21t-77 8 h-47q-15 -2 -22 4.5t-5 22.5z" />
<glyph unicode="|" horiz-adv-x="671" d="M257 -526v2158q0 13 5.5 19t20.5 8h106q13 -2 19 -8t8 -19v-2158q0 -13 -6.5 -19t-20.5 -8h-106q-15 2 -21.5 7.5t-4.5 19.5z" />
<glyph unicode="}" horiz-adv-x="941" d="M89 -310q0 15 5 22t20 5h43q59 0 97 12t62 32q22 25 34.5 62.5t12.5 94.5v394q0 110 39 172t120 94q-82 29 -120.5 90.5t-38.5 173.5v395q0 57 -12.5 94.5t-34.5 61.5q-24 20 -61.5 32t-97.5 12h-43q-15 0 -20 6t-5 21v85q0 13 5 18t20 8h50q95 0 155.5 -18t111.5 -57 q53 -46 76.5 -107t23.5 -159v-394q-2 -68 15.5 -107t50.5 -60q22 -17 51 -23t80 -6h46q13 0 18.5 -6.5t7.5 -20.5v-79q0 -15 -6.5 -22t-19.5 -5h-46q-51 0 -80 -6.5t-51 -22.5q-33 -25 -49.5 -63.5t-16.5 -104.5v-394q-2 -97 -24 -157.5t-76 -107.5q-51 -39 -111.5 -56 t-155.5 -19h-50q-15 0 -20 6.5t-5 19.5v84z" />
<glyph unicode="~" horiz-adv-x="1036" d="M13 494q0 6 3 13.5t15 26.5q64 99 137 141t153 42q46 0 93.5 -13.5t131.5 -59.5q89 -53 115.5 -59.5t59.5 -6.5q53 0 96.5 25.5t79.5 77.5q9 16 20 20t30 -7l62 -37q13 -9 14 -11t1 -4q-2 -7 -5.5 -16t-9.5 -20q-68 -108 -137.5 -148t-154.5 -40q-55 0 -100 13.5 t-102 48.5q-86 50 -122.5 61.5t-69.5 13.5q-55 0 -102.5 -26.5t-83.5 -79.5q-11 -15 -20 -18.5t-26 7.5l-62 37q-15 7 -15.5 10.5t-0.5 8.5z" />
<glyph unicode="&#xa3;" horiz-adv-x="1108" d="M62 705v91q0 13 5.5 20t21.5 7h172q-19 68 -28 115.5t-9 85.5q0 192 119 309t334 121q78 0 151 -17t139 -44q27 -13 36.5 -25.5t3.5 -27.5l-45 -90q-4 -7 -8.5 -10t-9.5 -3q-2 -3 -4.5 -3t-2.5 3q-2 0 -1 -1.5t-45 20.5q-66 27 -114.5 38t-99.5 11q-128 -3 -207 -70.5 t-79 -179.5q0 -33 6 -86t17 -100l8 -46h304q13 0 19.5 -6.5t6.5 -20.5v-91q-2 -15 -7.5 -20.5t-18.5 -5.5h-268l4 -18q18 -80 27 -139.5t9 -116.5t-8 -119t-19 -113l-7 -29h598q19 0 26 -9t1 -27l-38 -86q-7 -13 -15 -17.5t-19 -4.5h-913q-15 0 -20.5 5.5t-5.5 21.5v91 q0 13 5.5 18t20.5 8h192l5 18q13 55 20.5 120.5t7.5 126.5q-2 76 -9.5 135.5t-23.5 118.5l-4 16h-203q-16 0 -23 5.5t-4 20.5z" />
<glyph unicode="&#xa9;" horiz-adv-x="1087" d="M89 1035q0 185 133.5 320t321.5 135q186 0 321 -135t135 -320q0 -188 -135 -321.5t-321 -133.5q-188 0 -321.5 133.5t-133.5 321.5zM186 1035q0 -148 105 -253t253 -105q146 0 252.5 105t106.5 253q0 145 -106.5 251.5t-252.5 106.5q-148 0 -253 -106.5t-105 -251.5z M359 1035q0 124 45 191.5t142 67.5q56 0 98 -21t44 -41v-75q0 -11 -6.5 -17.5t-16.5 -4.5h-32q-11 0 -18 5.5t-5 16.5v48q-13 2 -32 5.5t-27 3.5q-42 0 -61 -36t-19 -131q0 -111 22 -152t73 -41h5.5t38.5 7v48q0 9 5.5 14.5t17.5 7.5h32q9 0 16 -6.5t7 -15.5v-77 q-2 -25 -45.5 -40t-85.5 -15q-101 0 -149.5 70.5t-48.5 187.5z" />
<glyph unicode="&#xab;" horiz-adv-x="1061" d="M47.5 520.5q-1.5 3.5 1.5 7.5v6t10 17l372 466q9 11 13.5 14.5t11.5 3.5l2 -1q2 -2 9 -4l73 -42q9 -6 11 -9.5t2 -7.5t-1 -6.5t-6 -8.5l-287 -428l287 -426q5 -9 6 -11t1 -5q0 -6 -2 -9.5t-11 -8.5l-73 -41q-7 -4 -9 -5h-2q-7 0 -11 2.5t-14 15.5l-372 467 q-10 10 -11.5 13.5zM457 520.5q-1 3.5 1 7.5v6t11 17l371 466q9 11 14 14.5t11 3.5l2 -1q2 -2 9 -4l73 -42q9 -6 11 -9.5t2 -7.5t-1 -6.5t-5 -8.5l-289 -428l289 -426q4 -9 5 -11t1 -5q0 -6 -2 -9.5t-11 -8.5l-73 -41q-7 -4 -9 -5h-2q-6 0 -11 2.5t-14 15.5l-371 467 q-11 10 -12 13.5z" />
<glyph unicode="&#xad;" horiz-adv-x="779" d="M112 509v112q-2 13 5 20t22 7h500q13 0 19.5 -6.5t6.5 -20.5v-112q-2 -15 -7.5 -22t-18.5 -5h-500q-15 0 -22 6t-5 21z" />
<glyph unicode="&#xae;" horiz-adv-x="1087" d="M89 1035q0 185 133.5 320t321.5 135q186 0 321 -135t135 -320q0 -188 -135 -321.5t-321 -133.5q-188 0 -321.5 133.5t-133.5 321.5zM186 1035q0 -148 105 -253t253 -105q146 0 252.5 105t106.5 253q0 145 -106.5 251.5t-252.5 106.5q-148 0 -253 -106.5t-105 -251.5z M338 810v26q0 9 6 14.5t17 8.5h30v359h-30q-11 -2 -18 5t-5 18v27q0 9 6 14t17 8h201q77 0 115 -37t40 -98q0 -53 -27 -88t-71 -47l98 -161h24q9 0 14.5 -7t8.5 -16v-26q0 -11 -7 -18t-16 -5h-70q-13 -2 -21 2.5t-15 18.5l-113 196h-31v-145h31q8 0 14 -7t8 -16v-26 q0 -11 -6.5 -18t-15.5 -5h-161q-11 0 -18 5.5t-5 17.5zM491 1075h45q35 -3 55.5 18.5t20.5 58.5q0 27 -20 46.5t-48 19.5h-53v-143z" />
<glyph unicode="&#xbb;" horiz-adv-x="1061" d="M99 86v5t7 11l288 426l-288 428q-7 6 -7 8.5v6.5t1.5 7.5t11.5 9.5l74 42q4 2 6 3.5t5 1.5q4 0 9 -3.5t15 -14.5l372 -466q9 -13 10 -16.5t1 -6.5q0 -4 -1 -7.5t-10 -13.5l-372 -467q-10 -13 -15 -15.5t-9 -2.5h-5t-6 5l-74 41q-10 4 -12.5 8t-0.5 10zM509 86v5t6 11 l287 426l-287 428q-6 6 -6 8.5v6.5t1 7.5t12 9.5l73 42q4 2 6.5 3.5t4.5 1.5q4 0 8.5 -3.5t16.5 -14.5l371 -466q9 -13 10 -16.5t1 -6.5q-2 -4 -2 -7.5t-9 -13.5l-371 -467q-11 -13 -16 -15.5t-9 -2.5h-4.5t-6.5 5l-73 41q-11 4 -12 8t-1 10z" />
<glyph unicode="&#x2c6;" horiz-adv-x="4" d="M-770 1285q0 2 2 6.5t7 8.5l330 255q11 7 15.5 9t6.5 2q6 0 11 -3t11 -14l64 -95q7 -11 8 -15t1 -6q0 -6 -2.5 -10.5t-17.5 -10.5l-367 -192q-4 -4 -7.5 -4h-8.5q-4 0 -7.5 1t-7.5 9l-29 42q-3 4 -6 8.5t-3 8.5z" />
<glyph unicode="&#x2dc;" horiz-adv-x="4" d="M-808 1703q2 2 4 4.5t8 8.5l363 226q6 2 10.5 4t6.5 2q7 0 10 -3l5 -5l65 -110q4 -7 6.5 -12t0.5 -9q0 -6 -4.5 -11.5t-20.5 -10.5l-380 -153q-7 -4 -13.5 -5t-10.5 -1t-8 2t-8 7l-28 53q-3 2 -3 5.5t-3 7.5z" />
<glyph unicode="&#x401;" horiz-adv-x="1063" d="M89 27v91q0 13 5 18t20 8h141v1228h-141q-15 0 -20 5t-5 21v90q0 13 5 19t20 8h837q13 0 18.5 -6.5t7.5 -20.5v-304q0 -15 -6.5 -22t-19.5 -5h-97q-15 0 -21 5t-6 22v177h-392v-492h437q13 -2 18 -7.5t7 -19.5v-101q0 -15 -6 -20.5t-19 -5.5h-437v-561h407v198 q0 13 6 18.5t21 7.5h98q13 -2 18.5 -7.5t8.5 -18.5v-325q0 -15 -7 -21t-20 -6h-853q-15 0 -20 5.5t-5 21.5zM230 1723q-2 46 33 81.5t85 35.5q48 0 81 -35.5t35 -81.5q-2 -49 -35 -84t-81 -33q-49 -2 -83.5 33t-34.5 84zM665 1723q0 46 34.5 80.5t83.5 36.5q46 0 82 -35.5 t36 -81.5q0 -49 -36 -84t-82 -33q-49 0 -83.5 34t-34.5 83z" />
<glyph unicode="&#x402;" horiz-adv-x="1408" d="M55 1110v378q0 13 5.5 19t21.5 8h898q13 0 18.5 -6.5t8.5 -20.5v-378q0 -15 -6.5 -20.5t-18.5 -5.5h-102q-15 0 -20.5 5.5t-3.5 20.5v251h-235v-472q76 35 154.5 54t146.5 19q82 0 157.5 -29.5t125.5 -78.5q58 -59 88 -149t30 -220q0 -139 -22 -233.5t-62 -152.5 q-45 -61 -113.5 -95.5t-154.5 -34.5q-49 2 -93 11t-86 26q-20 7 -27 15t-1 19l21 95q4 19 16.5 25t34.5 -6q33 -19 72 -29.5t69 -6.5q34 0 61.5 15t50.5 44q24 36 36 99.5t12 181.5q0 99 -12.5 160t-35.5 101q-32 45 -82.5 69t-128.5 26q-46 0 -92.5 -10t-91.5 -30l-73 -33 v-714q0 -15 -6.5 -21t-19.5 -6h-312q-15 0 -21.5 5.5t-4.5 21.5v91q0 13 5.5 18t20.5 8h158v1217h-236v-251q0 -15 -6.5 -22t-19.5 -4h-97q-15 0 -22 5.5t-5 20.5z" />
<glyph unicode="&#x403;" horiz-adv-x="1023" d="M86 27v91q0 13 5.5 18t20.5 8h140v1228h-140q-15 0 -20.5 5t-5.5 21v90q0 13 5.5 19t20.5 8h837q13 0 19.5 -6.5t6.5 -20.5v-378q0 -15 -6.5 -22t-19.5 -4h-98q-15 0 -20.5 5.5t-5.5 20.5v251h-392v-1217h177q13 0 19 -6.5t8 -19.5v-91q0 -15 -6.5 -21t-20.5 -6h-498 q-15 0 -20.5 5.5t-5.5 21.5zM266 1695.5v7.5q0 2 1 4.5t10 8.5l363 226q4 2 8.5 4t8.5 2t7.5 -3t8.5 -5l64 -110q2 -7 4 -12t2 -9q0 -6 -5 -11.5t-18 -10.5l-382 -153q-8 -4 -14.5 -5t-8.5 -1q-7 -3 -10.5 0.5t-6.5 8.5l-28 53q-4 2 -4 5.5z" />
<glyph unicode="&#x404;" horiz-adv-x="1070" d="M114 772q-2 173 32.5 325.5t92.5 244.5q61 100 163 151t222 54q68 0 136.5 -20t132.5 -56q44 -27 60 -42t18 -36v-245q-2 -15 -7.5 -22t-19.5 -5h-97q-15 0 -21.5 6t-4.5 21v192l-32 15q-39 18 -89 30.5t-90 12.5q-66 0 -119 -28t-88 -78q-49 -68 -72 -181t-21 -242h437 q13 -2 19 -8t8 -19v-95q0 -15 -6.5 -20.5t-20.5 -5.5h-433v-31q0 -106 18 -215.5t48 -176.5q36 -86 100 -133t157 -47q38 0 86.5 11.5t90.5 34.5l18 9v196q0 13 5 20t22 7h97q13 0 18.5 -7t7.5 -20v-230q-2 -35 -10 -46t-32 -27q-76 -49 -162 -73t-159 -24q-127 0 -224 56.5 t-158 168.5q-62 104 -92.5 251.5t-30.5 326.5z" />
<glyph unicode="&#x405;" horiz-adv-x="1061" d="M93 118v256q0 13 5.5 19t21.5 8h97q13 0 18.5 -7t7.5 -20v-182l12 -4q137 -55 176.5 -64.5t79.5 -5.5q120 -2 191.5 69.5t71.5 192.5q0 91 -46.5 155t-187.5 146q-159 91 -186 107.5t-48 34.5q-91 64 -134 142.5t-43 184.5q0 93 36 168t105 130q62 49 137 74t161 25 q80 0 167.5 -21.5t151.5 -54.5q29 -17 35.5 -29.5t8.5 -37.5v-243q0 -15 -6.5 -21.5t-19.5 -4.5h-97q-15 0 -22 5.5t-5 20.5v179l-15 7q-85 35 -119.5 43t-84.5 8q-108 0 -171.5 -64t-63.5 -164q0 -72 31 -123t102 -98q42 -29 114 -66.5t99 -50.5q154 -91 227 -193.5 t73 -235.5q0 -199 -133 -316.5t-336 -117.5q-95 0 -212 29t-178 68q-15 6 -18 18.5t-3 33.5z" />
<glyph unicode="&#x406;" horiz-adv-x="735" d="M51 27v91q0 13 5.5 18t21.5 8h201v1228h-201q-15 0 -22 5t-5 21v90q0 13 5.5 19t21.5 8h583q13 0 20 -6.5t7 -20.5v-90q-2 -16 -7.5 -22.5t-19.5 -3.5h-201v-1228h201q13 0 20 -6.5t7 -19.5v-91q-2 -15 -7.5 -21t-19.5 -6h-583q-15 0 -22 5.5t-5 21.5z" />
<glyph unicode="&#x407;" horiz-adv-x="738" d="M31 1779q-2 48 35 85.5t88 37.5q49 0 86.5 -37.5t37.5 -85.5q0 -51 -37.5 -89t-86.5 -35q-51 0 -88 36.5t-35 87.5zM51 27v91q0 13 5.5 18t21.5 8h201v1228h-201q-15 0 -22 5t-5 21v90q0 13 5.5 19t21.5 8h583q13 0 20 -6.5t7 -20.5v-90q-2 -16 -7.5 -22.5t-19.5 -3.5 h-201v-1228h201q13 0 20 -6.5t7 -19.5v-91q-2 -15 -7.5 -21t-19.5 -6h-583q-15 0 -22 5.5t-5 21.5zM477 1779q-2 48 36 84.5t88 38.5q49 -2 85.5 -38.5t39.5 -84.5q-3 -51 -39.5 -87.5t-85.5 -36.5q-50 0 -87 36.5t-37 87.5z" />
<glyph unicode="&#x408;" horiz-adv-x="981" d="M13 367v40q0 13 6 18.5t21 7.5h114q13 0 20 -6.5t7 -19.5v-13q0 -75 13.5 -124t39.5 -80q30 -38 72 -55t99 -17q51 -2 94 14t73 49q27 32 42 79.5t15 113.5v987h-388q-15 0 -21.5 5.5t-4.5 20.5v101q0 13 5.5 19t20.5 8h542q13 0 19 -7t8 -20v-1114q-2 -100 -27 -169.5 t-68 -118.5q-53 -57 -130.5 -87t-181.5 -30q-102 0 -177.5 31t-123.5 95q-45 53 -67 127t-22 145z" />
<glyph unicode="&#x409;" horiz-adv-x="1848" d="M23.5 132.5q5.5 13.5 22.5 15.5l25 2q93 7 151.5 57t93.5 167q36 128 54.5 357t18.5 453v188h-140q-15 0 -20 5t-5 21v90q0 13 5 19t20 8h983q13 0 18.5 -6.5t7.5 -20.5v-90q0 -16 -6.5 -21t-19.5 -5h-139v-496h216q93 0 175 -22t146 -67q80 -59 122 -148.5t42 -207.5 q0 -91 -26.5 -166t-75.5 -130q-59 -66 -150.5 -100.5t-224.5 -34.5h-545q-15 0 -21 5.5t-6 21.5v91q0 13 5.5 18t21.5 8h140v1217h-357v-40q0 -177 -8.5 -383t-22.5 -341q-15 -148 -40.5 -251t-67.5 -180q-47 -82 -112 -128.5t-167 -64.5q-46 -6 -62 -2t-18 18l-32 115 q-7 15 -1.5 28.5zM1093 154h214q75 0 129 20t94 65q32 35 48.5 85t16.5 111q0 68 -21 119.5t-61 91.5q-42 38 -95 56.5t-122 18.5h-203v-567z" />
<glyph unicode="&#x40a;" horiz-adv-x="1937" d="M86 27v91q0 13 5.5 18t20.5 8h140v1228h-140q-15 0 -20.5 5t-5.5 21v90q0 13 5.5 19t20.5 8h460q13 0 19 -6.5t8 -20.5v-90q0 -16 -6.5 -21t-20.5 -5h-139v-503h567v503h-139q-15 0 -22 5t-5 21v90q-2 13 4.5 19t22.5 8h460q13 0 19.5 -6.5t6.5 -20.5v-90q0 -16 -6.5 -21 t-19.5 -5h-139v-503h216q99 0 180 -23t140 -63q80 -57 122 -149t42 -205q0 -124 -52.5 -224.5t-155.5 -151.5q-55 -29 -122.5 -41t-153.5 -12h-537q-15 0 -22 5.5t-5 21.5v91q0 13 5.5 18t21.5 8h139v571h-567v-571h139q13 0 19 -6.5t8 -19.5v-91q0 -15 -6.5 -21t-20.5 -6 h-460q-15 0 -20.5 5.5t-5.5 21.5zM1182 154h213q133 0 211 74.5t78 206.5q-2 127 -78 203.5t-221 76.5h-203v-561z" />
<glyph unicode="&#x40b;" horiz-adv-x="1587" d="M55 1110v378q0 13 5.5 19t21.5 8h898q13 0 18.5 -6.5t8.5 -20.5v-378q0 -15 -6.5 -20.5t-18.5 -5.5h-102q-15 0 -20.5 5.5t-3.5 20.5v251h-235v-472q84 35 164 54t159 19q80 0 151.5 -21t122.5 -61q57 -48 87.5 -122t30.5 -161v-453h139q13 0 20 -6.5t7 -19.5v-91 q0 -15 -7 -21t-20 -6h-460q-15 0 -22 5.5t-5 21.5v91q0 13 6 18t21 8h140v453q0 53 -13.5 90t-39.5 65q-32 29 -76 45.5t-106 16.5q-40 0 -80 -7t-79 -15q-31 -9 -69 -23.5t-71 -27.5v-597h140q13 0 18.5 -6.5t7.5 -19.5v-91q0 -15 -6.5 -21t-19.5 -6h-478q-15 0 -21.5 5.5 t-4.5 21.5v91q0 13 5.5 18t20.5 8h158v1217h-236v-251q0 -15 -6.5 -22t-19.5 -4h-97q-15 0 -22 5.5t-5 20.5z" />
<glyph unicode="&#x40c;" horiz-adv-x="1264" d="M86 27v91q0 13 5.5 18t20.5 8h140v1228h-140q-15 0 -20.5 5t-5.5 21v90q0 13 5.5 19t20.5 8h460q13 0 19 -6.5t8 -20.5v-90q0 -16 -6.5 -21t-20.5 -5h-139v-507h151q80 -2 116.5 43.5t63.5 146.5l41 163q44 177 98.5 237t177.5 84l25 5q11 0 11 1.5t2 1.5q11 0 18 -6 t11 -19l31 -100q5 -19 -3.5 -27t-27.5 -10l-33 -7q-68 -15 -92.5 -51.5t-55.5 -154.5l-34 -123q-36 -133 -73 -181.5t-90 -78.5q66 -29 109 -76.5t63 -117.5l82 -301q25 -95 51.5 -120.5t79.5 -32.5l42 -6q19 -4 27 -12.5t4 -23.5l-34 -105q-6 -16 -10.5 -19.5t-16.5 -5.5 q-6 0 -11.5 1t-32.5 3l-32 5q-66 9 -113 33.5t-73 59.5q-19 25 -34 60t-46 165l-55 223q-29 106 -68 148.5t-118 42.5h-151v-566h139q13 0 19 -6.5t8 -19.5v-91q0 -15 -6.5 -21t-20.5 -6h-460q-15 0 -20.5 5.5t-5.5 21.5zM383 1695.5v7.5q0 2 1 4.5t10 8.5l363 226 q4 2 8.5 4t8.5 2t7.5 -3t8.5 -5l64 -110q2 -7 4 -12t2 -9q0 -6 -5 -11.5t-18 -10.5l-382 -153q-8 -4 -14.5 -5t-8.5 -1q-7 -3 -10.5 0.5t-6.5 8.5l-28 53q-4 2 -4 5.5z" />
<glyph unicode="&#x40e;" horiz-adv-x="1205" d="M22 1398v92q-3 13 4 19t23 6h420q11 -2 16.5 -6.5t8.5 -18.5v-92q-3 -16 -8.5 -21t-16.5 -5h-135l228 -598q15 -46 36 -113.5t39 -126.5h7q8 50 20.5 98.5t52.5 169.5l176 570h-116q-16 0 -21.5 5t-5.5 21v92q-3 13 4 18t23 7h386q13 -2 19 -6.5t8 -18.5v-92 q0 -16 -6.5 -21t-20.5 -5h-91l-351 -1106q-33 -102 -71 -161t-88 -90q-36 -19 -83.5 -32.5t-94.5 -13.5q-65 2 -125 18.5t-115 58.5q-20 13 -26 25.5t4 27.5l46 95q5 9 9 13t13 4q4 0 9.5 -4t30.5 -21q40 -36 80 -52t74 -16q43 0 76.5 17t56.5 51q15 21 31 61t34 101l22 79 h-78q-15 -3 -22.5 2.5t-14.5 28.5l-350 914h-90q-16 0 -21.5 5t-5.5 21zM313 1859q0 1 2 3q0 11 6.5 18t16.5 9l80 13q20 2 27 -2.5t11 -14.5l7 -34q10 -61 46 -92.5t93 -28.5q55 0 90.5 30t48.5 91l7 34q2 10 9 14.5t29 2.5l79 -13q9 -2 15.5 -8.5t8.5 -18.5v-3v-1 q-6 -98 -84.5 -172t-202.5 -74q-126 0 -204.5 74t-82.5 172q-2 0 -2 1z" />
<glyph unicode="&#x40f;" horiz-adv-x="1388" d="M86 27v91q0 13 5.5 18t20.5 8h140v1228h-140q-15 0 -20.5 5t-5.5 21v90q0 13 5.5 19t20.5 8h460q13 0 19 -6.5t8 -20.5v-90q0 -16 -6.5 -21t-20.5 -5h-139v-1218h523v1218h-140q-15 0 -22 5t-5 21v90q-2 13 4.5 19t22.5 8h461q13 0 19 -7t6 -20v-90q0 -16 -6 -21t-19 -5 h-140v-1228h140q13 0 19 -6.5t6 -19.5v-91q0 -15 -6 -21t-19 -6h-492v-389q-2 -13 -7.5 -19t-19.5 -8h-127q-15 0 -22 6.5t-5 20.5v389h-492q-15 0 -20.5 5.5t-5.5 21.5z" />
<glyph unicode="&#x410;" horiz-adv-x="1332" d="M22 27v91q0 13 5.5 18t21.5 8h108l411 1346q2 11 9 18t25 7h130q15 0 22 -6.5t12 -18.5l408 -1346h111q13 0 19.5 -6.5t6.5 -19.5v-91q0 -15 -6.5 -21t-19.5 -6h-447q-15 0 -20.5 5.5t-5.5 21.5v91q0 13 5.5 18t20.5 8h137l-86 307h-454l-83 -307h142q13 0 18 -6.5 t7 -19.5v-91q0 -15 -6 -21t-19 -6h-445q-16 0 -23 5.5t-4 21.5zM477 606h370l-132 489q-38 133 -44 157.5t-8 52.5h-4q-11 -53 -24.5 -112.5t-22.5 -97.5z" />
<glyph unicode="&#x411;" horiz-adv-x="1269" d="M110 27v91q0 13 6 18t21 8h139v1228h-139q-15 0 -22 5t-5 21v90q0 13 6 19t21 8h910q12 0 17.5 -6.5t7.5 -20.5v-378q0 -15 -6.5 -20.5t-16.5 -5.5h-102q-15 0 -20 5.5t-5 20.5v251h-464v-485h217q230 -2 357 -120.5t127 -326.5q0 -219 -128 -324t-405 -105h-489 q-15 0 -22 5.5t-5 21.5zM458 154h215q133 0 209 74.5t78 206.5q0 131 -76 207.5t-223 78.5h-203v-567z" />
<glyph unicode="&#x412;" horiz-adv-x="1229" d="M89 27v91q0 13 5 18t20 8h141v1228h-141q-15 0 -20 5t-5 21v90q0 13 5 19t20 8h553q195 0 297 -90.5t102 -269.5q0 -125 -53 -213t-166 -148q124 -32 198 -127t74 -249q-2 -89 -28.5 -163t-73.5 -124q-59 -64 -145.5 -97.5t-219.5 -33.5h-538q-15 0 -20 5.5t-5 21.5z M435 154h198q80 0 134 20t92 65q31 35 45 81.5t16 103.5q0 68 -22 121.5t-71 93.5q-40 32 -87.5 46t-118.5 14h-186v-545zM435 847h140q82 -2 135.5 16.5t89.5 58.5q32 34 49.5 87t17.5 126q0 51 -13.5 93t-34.5 68q-32 33 -74 49t-124 16h-186v-514z" />
<glyph unicode="&#x413;" horiz-adv-x="1023" d="M86 27v91q0 13 5.5 18t20.5 8h140v1228h-140q-15 0 -20.5 5t-5.5 21v90q0 13 5.5 19t20.5 8h837q13 0 19.5 -6.5t6.5 -20.5v-378q0 -15 -6.5 -22t-19.5 -4h-98q-15 0 -20.5 5.5t-5.5 20.5v251h-392v-1217h177q13 0 19 -6.5t8 -19.5v-91q0 -15 -6.5 -21t-20.5 -6h-498 q-15 0 -20.5 5.5t-5.5 21.5z" />
<glyph unicode="&#x414;" horiz-adv-x="1351" d="M59 114q-2 30 8.5 35t36.5 5h75q85 171 134.5 346t68.5 361q7 63 9.5 126.5t4.5 344.5v40h-139q-15 0 -22 5t-5 21v90q0 13 5.5 19t21.5 8h982q13 0 18.5 -6.5t7.5 -20.5v-90q0 -16 -6.5 -21t-19.5 -5h-140v-1218h121q25 -2 34 -6t11 -34v-503q0 -13 -6.5 -19t-19.5 -8 h-129q-15 0 -22 6.5t-4 20.5v389h-843v-389q0 -13 -6.5 -19t-19.5 -8h-129q-15 0 -22 6.5t-5 20.5v503zM363 154h555v1207h-356v-122q0 -226 -13 -367.5t-40 -269.5q-27 -122 -63.5 -232.5t-82.5 -215.5z" />
<glyph unicode="&#x415;" horiz-adv-x="1063" d="M89 27v91q0 13 5 18t20 8h141v1228h-141q-15 0 -20 5t-5 21v90q0 13 5 19t20 8h837q13 0 18.5 -6.5t7.5 -20.5v-304q0 -15 -6.5 -22t-19.5 -5h-97q-15 0 -21 5t-6 22v177h-392v-492h437q13 -2 18 -7.5t7 -19.5v-101q0 -15 -6 -20.5t-19 -5.5h-437v-561h407v198 q0 13 6 18.5t21 7.5h98q13 -2 18.5 -7.5t8.5 -18.5v-325q0 -15 -7 -21t-20 -6h-853q-15 0 -20 5.5t-5 21.5z" />
<glyph unicode="&#x416;" horiz-adv-x="1773" d="M33 99q-6 15 1.5 23.5t29.5 12.5l42 6q51 7 78 32.5t53 120.5l82 301q17 71 60 118.5t112 75.5q-55 30 -92.5 78.5t-71.5 181.5l-33 123q-34 118 -57.5 154.5t-90.5 51.5l-34 7q-21 2 -28.5 9.5t-1.5 27.5l30 100q5 13 13 19t29 3l25 -5q64 -13 106 -34t71 -49 q27 -31 49 -82t51 -156l42 -163q25 -101 61 -146.5t118 -43.5h119v507h-139q-15 0 -21.5 5t-4.5 21v90q0 13 5.5 19t20.5 8h460q13 0 19 -6.5t8 -20.5v-90q0 -16 -6.5 -21t-20.5 -5h-140v-507h120q80 -2 116.5 43.5t63.5 146.5l42 163q27 104 48.5 155.5t50.5 82.5 q27 29 68.5 49.5t108.5 33.5l24 5q19 3 27.5 -3t14.5 -19l31 -100q5 -19 -3.5 -27t-27.5 -10l-33 -7q-68 -15 -92.5 -51.5t-55.5 -154.5l-34 -123q-36 -133 -73 -181.5t-90 -78.5q66 -29 109 -76.5t64 -117.5l81 -301q25 -95 51.5 -120.5t79.5 -32.5l42 -6q19 -4 27 -12.5 t4 -23.5l-34 -105q-6 -13 -12.5 -20t-57.5 -1l-33 5q-66 9 -113 33.5t-73 59.5q-19 25 -34 60t-46 165l-55 223q-29 106 -67.5 148.5t-118.5 42.5h-120v-566h140q13 0 19 -6.5t8 -19.5v-91q0 -15 -6.5 -21t-20.5 -6h-460q-15 0 -21.5 5.5t-4.5 21.5v91q0 13 5.5 18t20.5 8 h139v566h-119q-82 -3 -121 -43.5t-65 -147.5l-56 -223q-33 -131 -47 -166t-32 -59q-29 -35 -75.5 -59.5t-109.5 -33.5l-34 -5q-53 -6 -59.5 1t-11.5 20z" />
<glyph unicode="&#x417;" horiz-adv-x="1056" d="M99 139v230q0 13 5.5 20t21.5 7h98q13 0 18 -7t7 -20v-190l25 -13q47 -27 93.5 -37.5t96.5 -10.5q76 0 134.5 24t93.5 71q27 35 41 86t14 115q0 59 -15 111.5t-42 89.5q-33 42 -84 65t-124 25h-98q-15 0 -20 6t-5 21v95q-3 13 5 18.5t23 8.5h40q65 0 122 18.5t97 58.5 q33 33 51 85t18 112q0 48 -14.5 99.5t-39.5 86.5q-29 38 -73 61t-106 23q-49 -3 -98.5 -17t-89.5 -36l-15 -9v-188q-3 -15 -8 -22t-19 -5h-98q-15 -2 -21.5 5t-3.5 22v245q-3 22 16 38.5t58 39.5q59 33 140 54.5t161 21.5q91 0 165 -27t127 -78q49 -53 78 -130.5t31 -156.5 q0 -127 -61 -223t-163 -132q131 -35 198.5 -132.5t67.5 -236.5q0 -95 -29 -177.5t-84 -143.5q-64 -71 -156 -105t-203 -36q-93 2 -185.5 27.5t-150.5 69.5q-25 15 -33.5 25.5t-6.5 47.5z" />
<glyph unicode="&#x418;" horiz-adv-x="1433" d="M86 27v91q0 13 5.5 18t20.5 8h140v1228h-140q-15 0 -20.5 5t-5.5 21v90q0 13 5.5 19t20.5 8h460q13 0 19 -6.5t8 -20.5v-90q0 -16 -6.5 -21t-20.5 -5h-139v-726q0 -22 -2 -93t-2 -146h6q18 47 37 84t90 151l438 707v23h-139q-15 0 -22 5t-5 21v90q-2 13 4.5 19t22.5 8 h460q13 0 19.5 -6.5t6.5 -20.5v-90q0 -16 -6.5 -21t-19.5 -5h-139v-1228h139q13 0 19.5 -6.5t6.5 -19.5v-91q0 -15 -6.5 -21t-19.5 -6h-460q-15 0 -22 5.5t-5 21.5v91q0 13 5.5 18t21.5 8h139v725q-2 20 0 85.5t4 153.5h-6q-22 -59 -45.5 -104.5t-74.5 -127.5l-445 -710v-22 h139q13 0 19 -6.5t8 -19.5v-91q0 -15 -6.5 -21t-20.5 -6h-460q-15 0 -20.5 5.5t-5.5 21.5z" />
<glyph unicode="&#x419;" horiz-adv-x="1433" d="M86 27v91q0 13 5.5 18t20.5 8h140v1228h-140q-15 0 -20.5 5t-5.5 21v90q0 13 5.5 19t20.5 8h460q13 0 19 -6.5t8 -20.5v-90q0 -16 -6.5 -21t-20.5 -5h-139v-726q0 -22 -2 -93t-2 -146h6q18 47 37 84t90 151l438 707v23h-139q-15 0 -22 5t-5 21v90q-2 13 4.5 19t22.5 8 h460q13 0 19.5 -6.5t6.5 -20.5v-90q0 -16 -6.5 -21t-19.5 -5h-139v-1228h139q13 0 19.5 -6.5t6.5 -19.5v-91q0 -15 -6.5 -21t-19.5 -6h-460q-15 0 -22 5.5t-5 21.5v91q0 13 5.5 18t21.5 8h139v725q-2 20 0 85.5t4 153.5h-6q-22 -59 -45.5 -104.5t-74.5 -127.5l-445 -710v-22 h139q13 0 19 -6.5t8 -19.5v-91q0 -15 -6.5 -21t-20.5 -6h-460q-15 0 -20.5 5.5t-5.5 21.5zM427 1859q0 1 2 3q0 11 7 18t18 9l80 13q19 2 25.5 -2.5t10.5 -14.5l8 -34q11 -61 46 -92.5t93 -28.5q55 0 90 30t49 91l7 34q2 10 8.5 14.5t29.5 2.5l79 -13q8 -2 15 -8.5t9 -18.5 v-3v-1q-6 -98 -85 -172t-202 -74q-126 0 -205 74t-83 172q-2 0 -2 1z" />
<glyph unicode="&#x41a;" horiz-adv-x="1262" d="M86 27v91q0 13 5.5 18t20.5 8h140v1228h-140q-15 0 -20.5 5t-5.5 21v90q0 13 5.5 19t20.5 8h460q13 0 19 -6.5t8 -20.5v-90q0 -16 -6.5 -21t-20.5 -5h-139v-507h151q80 -2 116.5 43.5t63.5 146.5l41 163q44 177 98.5 237t177.5 84l25 5q11 0 11 1.5t2 1.5q11 0 18 -6 t11 -19l31 -100q5 -19 -3.5 -27t-27.5 -10l-33 -7q-68 -15 -92.5 -51.5t-55.5 -154.5l-34 -123q-36 -133 -73 -181.5t-90 -78.5q66 -29 109 -76.5t63 -117.5l82 -301q25 -95 51.5 -120.5t79.5 -32.5l42 -6q19 -4 27 -12.5t4 -23.5l-34 -105q-6 -16 -10.5 -19.5t-16.5 -5.5 q-6 0 -11.5 1t-32.5 3l-32 5q-66 9 -113 33.5t-73 59.5q-19 25 -34 60t-46 165l-55 223q-29 106 -68 148.5t-118 42.5h-151v-566h139q13 0 19 -6.5t8 -19.5v-91q0 -15 -6.5 -21t-20.5 -6h-460q-15 0 -20.5 5.5t-5.5 21.5z" />
<glyph unicode="&#x41b;" horiz-adv-x="1344" d="M23.5 132.5q5.5 13.5 22.5 15.5l25 2q93 7 151.5 57t93.5 167q18 66 30.5 138t22.5 231q13 201 16.5 278.5t3.5 162.5v188h-140q-15 0 -20 5t-5 21v90q0 13 5 19t20 8h983q13 0 18.5 -6.5t7.5 -20.5v-90q0 -16 -6.5 -21t-19.5 -5h-139v-1228h139q13 0 18.5 -6.5 t7.5 -19.5v-91q0 -15 -6.5 -21t-19.5 -6h-460q-15 0 -21 5.5t-6 21.5v91q0 13 5.5 18t21.5 8h140v1217h-357v-40q0 -177 -8.5 -383t-22.5 -341q-22 -205 -66 -333.5t-118 -197.5q-40 -38 -90.5 -59.5t-112.5 -33.5q-46 -6 -62 -2t-18 18l-32 115q-7 15 -1.5 28.5z" />
<glyph unicode="&#x41c;" horiz-adv-x="1564" d="M66 27v91q-2 13 5 19.5t22 6.5h124l68 1228h-154q-15 0 -22 5t-5 21v90q0 13 5 19t22 8h327q9 0 16.5 -6.5t12.5 -15.5l260 -763q13 -42 19 -66.5t15 -70.5h4q7 46 12 70.5t22 66.5l260 763q2 8 10 15t19 7h327q13 0 20 -6.5t7 -20.5v-90q0 -16 -7 -21t-20 -5h-154 l68 -1228h124q13 0 20 -6.5t7 -19.5v-91q0 -15 -7 -21t-20 -6h-453q-16 0 -22.5 5.5t-3.5 21.5v91q0 13 5 18t21 8h154l-28 951v210h-4q-9 -80 -14 -104t-13 -53l-266 -770q-7 -15 -14.5 -20.5t-18.5 -3.5h-66q-13 0 -21 4.5t-12 19.5l-266 770q-10 29 -15 53.5t-12 103.5 h-4v-210l-29 -951h155q13 0 18.5 -6.5t7.5 -19.5v-91q0 -15 -6.5 -21t-19.5 -6h-453q-15 0 -22 5.5t-5 21.5z" />
<glyph unicode="&#x41d;" horiz-adv-x="1433" d="M86 27v91q0 13 5.5 18t20.5 8h140v1228h-140q-15 0 -20.5 5t-5.5 21v90q0 13 5.5 19t20.5 8h460q13 0 19 -6.5t8 -20.5v-90q0 -16 -6.5 -21t-20.5 -5h-139v-507h567v507h-139q-15 0 -22 5t-5 21v90q-2 13 4.5 19t22.5 8h460q13 0 19.5 -6.5t6.5 -20.5v-90q0 -16 -6.5 -21 t-19.5 -5h-139v-1228h139q13 0 19.5 -6.5t6.5 -19.5v-91q0 -15 -6.5 -21t-19.5 -6h-460q-15 0 -22 5.5t-5 21.5v91q0 13 5.5 18t21.5 8h139v566h-567v-566h139q13 0 19 -6.5t8 -19.5v-91q0 -15 -6.5 -21t-20.5 -6h-460q-15 0 -20.5 5.5t-5.5 21.5z" />
<glyph unicode="&#x41e;" horiz-adv-x="1229" d="M114 758q-2 407 133 598t368 191q251 0 375.5 -209.5t124.5 -579.5q0 -371 -124 -580t-376 -209q-258 0 -379.5 209t-121.5 580zM314 758q0 -374 75 -507t226 -133q147 0 224 133t77 507q-2 359 -75 499.5t-226 140.5q-148 0 -224.5 -135t-76.5 -505z" />
<glyph unicode="&#x41f;" horiz-adv-x="1388" d="M86 27v91q0 13 5.5 18t20.5 8h140v1228h-140q-15 0 -20.5 5t-5.5 21v90q0 13 5.5 19t20.5 8h1165q13 0 19 -6.5t6 -20.5v-90q0 -16 -6 -21t-19 -5h-140v-1228h140q13 0 19 -6.5t6 -19.5v-91q0 -15 -6 -21t-19 -6h-461q-15 0 -22 5.5t-5 21.5v91q0 13 5.5 18t21.5 8h140 v1217h-523v-1217h139q13 0 19 -6.5t8 -19.5v-91q0 -15 -6.5 -21t-20.5 -6h-460q-15 0 -20.5 5.5t-5.5 21.5z" />
<glyph unicode="&#x420;" horiz-adv-x="1116" d="M89 27v91q0 13 5 18t20 8h141v1228h-141q-15 0 -20 5t-5 21v90q0 13 5 19t20 8h549q97 0 173 -25.5t128 -71.5q56 -53 82 -129.5t26 -176.5q0 -122 -35 -213t-97 -149q-60 -56 -148.5 -83.5t-196.5 -27.5h-160v-495h164q13 0 20 -6.5t7 -19.5v-91q0 -15 -7 -21t-20 -6 h-485q-15 0 -20 5.5t-5 21.5zM435 794h145q101 -2 155 19t92 67q29 36 46.5 94t17.5 130q0 66 -17.5 117t-48.5 81q-31 27 -78.5 41.5t-140.5 17.5h-171v-567z" />
<glyph unicode="&#x421;" horiz-adv-x="1063" d="M114 772q0 211 35 354.5t98 234.5q62 91 154.5 138.5t215.5 47.5q75 0 139.5 -20t132.5 -56q38 -22 55.5 -38.5t19.5 -39.5v-245q0 -15 -6.5 -22t-20.5 -5h-97q-15 -2 -21.5 5t-4.5 22v188l-14 9q-33 19 -88 36t-104 17q-76 0 -127.5 -32t-86.5 -92q-40 -65 -60 -168.5 t-20 -269.5q0 -179 20 -328t62 -234q36 -77 101 -118.5t138 -37.5q36 0 78.5 10.5t91.5 39.5l20 11v190q-2 13 4.5 19t21.5 8h98q13 0 19.5 -7t6.5 -20v-230q-2 -35 -9.5 -46t-32.5 -27q-73 -49 -157 -73t-164 -24q-112 0 -210.5 49.5t-162.5 160.5q-60 95 -93.5 241 t-31.5 352z" />
<glyph unicode="&#x422;" horiz-adv-x="1061" d="M55 1110v378q0 13 5.5 19t21.5 8h898q13 0 18.5 -6.5t8.5 -20.5v-378q0 -15 -6.5 -20.5t-18.5 -5.5h-102q-15 0 -20.5 5.5t-3.5 20.5v251h-235v-1217h158q13 0 18 -6.5t8 -19.5v-91q0 -15 -6.5 -21t-19.5 -6h-496q-15 0 -21.5 5.5t-4.5 21.5v91q0 13 5.5 18t20.5 8h158 v1217h-236v-251q0 -15 -6.5 -22t-19.5 -4h-97q-15 0 -22 5.5t-5 20.5z" />
<glyph unicode="&#x423;" horiz-adv-x="1203" d="M22 1398v92q-3 13 4 19t23 6h420q11 -2 16.5 -6.5t8.5 -18.5v-92q-3 -16 -8.5 -21t-16.5 -5h-135l228 -598q15 -46 36 -113.5t39 -126.5h7q8 50 20.5 98.5t52.5 169.5l176 570h-116q-16 0 -21.5 5t-5.5 21v92q-3 13 4 18t23 7h386q13 -2 19 -6.5t8 -18.5v-92 q0 -16 -6.5 -21t-20.5 -5h-91l-351 -1106q-33 -102 -71 -161t-88 -90q-36 -19 -83.5 -32.5t-94.5 -13.5q-65 2 -125 18.5t-115 58.5q-20 13 -26 25.5t4 27.5l46 95q5 9 9 13t13 4q4 0 9.5 -4t30.5 -21q40 -36 80 -52t74 -16q43 0 76.5 17t56.5 51q15 21 31 61t34 101l22 79 h-78q-15 -3 -22.5 2.5t-14.5 28.5l-350 914h-90q-16 0 -21.5 5t-5.5 21z" />
<glyph unicode="&#x424;" horiz-adv-x="1406" d="M110 772q0 118 18 190.5t58 130.5q57 84 153 131.5t241 47.5h32v128h-139q-15 0 -21.5 6t-4.5 21v90q-2 13 4.5 20t21.5 7h460q13 -2 19 -8t8 -19v-90q0 -15 -6.5 -21t-20.5 -6h-139v-128h33q142 0 238 -47.5t155 -131.5q38 -57 57 -130.5t19 -190.5q0 -120 -19 -192.5 t-57 -128.5q-61 -88 -162.5 -134.5t-230.5 -44.5h-33v-128h139q13 0 19 -6.5t8 -19.5v-91q0 -15 -7 -21t-20 -6h-460q-15 0 -21.5 5.5t-4.5 21.5v91q0 13 5.5 18t20.5 8h139v128h-32q-131 -2 -233 44.5t-161 134.5q-40 56 -58 128.5t-18 192.5zM292 772q0 -91 15.5 -160.5 t46.5 -107.5q34 -46 92 -71.5t147 -23.5h19v726h-19q-89 0 -147.5 -25.5t-91.5 -69.5q-31 -40 -46.5 -110.5t-15.5 -157.5zM794 409h20q87 0 145 24.5t94 70.5q29 38 44 107.5t18 160.5q-3 87 -18.5 157.5t-43.5 110.5q-36 44 -94 68.5t-145 26.5h-20v-726z" />
<glyph unicode="&#x425;" horiz-adv-x="1229" d="M29 27v91q0 13 5.5 18t20.5 8h104l350 645l-319 583h-101q-16 0 -23 5t-4 21v90q0 13 5.5 19t21.5 8h424q13 0 19 -6.5t8 -20.5v-90q-2 -16 -8 -21t-19 -5h-124l173 -317l55 -115q8 24 19.5 49.5t38.5 74.5l163 308h-104q-15 0 -21 5t-6 21v90q0 13 6 19t21 8h401 q13 0 18.5 -6.5t7.5 -20.5v-90q0 -16 -6.5 -21t-19.5 -5h-100l-323 -576l360 -652h102q13 0 19 -6.5t8 -19.5v-91q-2 -15 -7.5 -21t-19.5 -6h-424q-16 0 -21 5.5t-5 21.5v91q0 13 5 18t21 8h119l-210 396q-7 9 -7 10t-40 94l-44 -102l-209 -398h116q13 0 19 -6.5t8 -19.5 v-91q0 -15 -6.5 -21t-20.5 -6h-420q-15 0 -21.5 5.5t-4.5 21.5z" />
<glyph unicode="&#x426;" horiz-adv-x="1406" d="M110 27v91q0 13 6 18t21 8h139v1228h-139q-15 0 -22 5t-5 21v90q0 13 6 19t21 8h460q13 0 18.5 -6.5t8.5 -20.5v-90q0 -16 -7 -21t-20 -5h-139v-1218h515v1218h-139q-15 0 -22 5t-4 21v90q-2 13 4.5 19t21.5 8h460q13 0 20 -6.5t7 -20.5v-90q0 -16 -7 -21t-20 -5h-139 v-1218h122q24 -2 34 -6t10 -34v-503q0 -13 -7 -19t-20 -8h-129q-15 0 -21.5 6.5t-4.5 20.5v389h-1002q-15 0 -22 5.5t-5 21.5z" />
<glyph unicode="&#x427;" horiz-adv-x="1357" d="M44 1398v90q-2 13 4.5 19t22.5 8h460q13 0 18.5 -6.5t7.5 -20.5v-90q0 -16 -6.5 -21t-19.5 -5h-140v-405q-2 -102 54.5 -159.5t171.5 -57.5q73 0 146 16.5t161 56.5v549h-139q-15 0 -22 5t-5 21v90q0 13 6 19t21 8h460q13 0 19 -6.5t8 -20.5v-90q-2 -16 -8 -21t-19 -5 h-139v-1228h139q13 0 19 -6.5t8 -19.5v-91q-2 -15 -8 -21t-19 -6h-460q-15 0 -22 5.5t-5 21.5v91q0 13 6 18t21 8h139v531q-88 -38 -166.5 -55.5t-153.5 -17.5q-190 0 -293 95t-100 270v405h-140q-15 0 -21 5t-6 21z" />
<glyph unicode="&#x428;" horiz-adv-x="1866" d="M86 27v91q0 13 5.5 18t20.5 8h140v1228h-140q-15 0 -20.5 5t-5.5 21v90q0 13 5.5 19t20.5 8h460q13 0 19 -6.5t8 -20.5v-90q0 -16 -6.5 -21t-20.5 -5h-139v-1218h409v1334q-2 13 5 19t22 8h129q13 0 19.5 -6.5t6.5 -20.5v-1334h409v1218h-139q-15 0 -22 5t-4 21v90 q0 13 5.5 19t20.5 8h460q13 0 19 -6.5t8 -20.5v-90q-2 -16 -8 -21t-19 -5h-139v-1228h139q13 0 19 -6.5t8 -19.5v-91q-2 -15 -8 -21t-19 -6h-1642q-15 0 -20.5 5.5t-5.5 21.5z" />
<glyph unicode="&#x429;" horiz-adv-x="1866" d="M86 27v91q0 13 5.5 18t20.5 8h140v1228h-140q-15 0 -20.5 5t-5.5 21v90q0 13 5.5 19t20.5 8h460q13 0 19 -6.5t8 -20.5v-90q0 -16 -6.5 -21t-20.5 -5h-139v-1218h409v1334q-2 13 5 19t22 8h129q13 0 19.5 -6.5t6.5 -20.5v-1334h409v1218h-139q-15 0 -22 5t-4 21v90 q0 13 5.5 19t20.5 8h460q13 0 19 -6.5t8 -20.5v-90q-2 -16 -8 -21t-19 -5h-139v-1218h122q24 -2 33 -6t11 -34v-503q-2 -13 -8 -19t-19 -8h-129q-15 0 -21.5 6.5t-4.5 20.5v389h-1487q-15 0 -20.5 5.5t-5.5 21.5z" />
<glyph unicode="&#x42a;" horiz-adv-x="1395" d="M73 1110v378q-2 13 4.5 19t21.5 8h680q13 0 18 -6.5t8 -20.5v-90q0 -16 -6.5 -21t-19.5 -5h-140v-496h217q93 -2 174.5 -23t146.5 -66q80 -59 121.5 -150t41.5 -208q0 -89 -26.5 -164t-74.5 -130q-62 -71 -153.5 -103t-209.5 -32h-575q-15 0 -22 5.5t-5 21.5v91 q0 13 5.5 18t21.5 8h157v1217h-234v-251q0 -15 -6.5 -22t-20.5 -4h-98q-15 0 -21.5 5.5t-4.5 20.5zM639 154h215q68 0 120 17t92 57q36 36 56 85.5t20 121.5q0 74 -20 124.5t-65 90.5q-42 36 -90.5 53.5t-124.5 17.5h-203v-567z" />
<glyph unicode="&#x42b;" horiz-adv-x="1760" d="M86 27v91q0 13 5.5 18t20.5 8h140v1228h-140q-15 0 -20.5 5t-5.5 21v90q0 13 5.5 19t20.5 8h460q13 0 19 -6.5t8 -20.5v-90q0 -16 -6.5 -21t-20.5 -5h-139v-496h217q93 0 175 -22t146 -67q80 -59 122 -150t42 -208q0 -89 -27 -164t-76 -130q-61 -71 -153 -103t-212 -32 h-555q-15 0 -20.5 5.5t-5.5 21.5zM433 154h215q133 0 210 74.5t77 206.5q-2 131 -77 208.5t-221 77.5h-204v-567zM1161 27v91q0 13 5.5 18t21.5 8h139v1228h-139q-15 0 -22 5t-5 21v90q0 13 5.5 19t21.5 8h460q13 0 18.5 -6.5t7.5 -20.5v-90q0 -16 -6.5 -21t-19.5 -5h-139 v-1228h139q13 0 18.5 -6.5t7.5 -19.5v-91q0 -15 -6.5 -21t-19.5 -6h-460q-15 0 -22 5.5t-5 21.5z" />
<glyph unicode="&#x42c;" horiz-adv-x="1189" d="M86 27v91q0 13 5.5 18t20.5 8h140v1228h-140q-15 0 -20.5 5t-5.5 21v90q0 13 5.5 19t20.5 8h460q13 0 19 -6.5t8 -20.5v-90q0 -16 -6.5 -21t-20.5 -5h-139v-496h217q93 -2 175 -23t146 -66q80 -59 121 -150t43 -208q0 -89 -27 -164t-76 -130q-59 -68 -151 -101.5 t-218 -33.5h-551q-15 0 -20.5 5.5t-5.5 21.5zM433 154h215q78 0 128.5 20t88.5 60q34 36 52 83.5t18 115.5q0 71 -21 124t-63 93q-40 34 -92 52.5t-122 18.5h-204v-567z" />
<glyph unicode="&#x42d;" horiz-adv-x="1076" d="M99 139v230q0 13 5.5 20t21.5 7h98q13 0 18 -7t7 -20v-196l19 -9q40 -21 88.5 -33.5t88.5 -12.5q91 0 154.5 47.5t101.5 132.5q29 66 47 176t20 216v31h-434q-15 0 -21.5 5.5t-4.5 20.5v95q-2 13 4.5 19t21.5 8h438q0 129 -23 242t-70 181q-37 50 -90 78t-118 28 q-42 0 -92 -12t-87 -31l-31 -15v-192q0 -15 -7 -22t-20 -5h-97q-15 -2 -22 5t-5 22v245q0 20 15.5 35.5t62.5 42.5q61 36 130 56t140 20q118 0 219.5 -52.5t164.5 -152.5q55 -92 90 -245t35 -325q0 -179 -31 -326.5t-91 -251.5q-64 -112 -161.5 -168.5t-221.5 -56.5 q-75 0 -161 24t-160 73q-27 15 -35.5 26.5t-6.5 46.5z" />
<glyph unicode="&#x42e;" horiz-adv-x="1798" d="M86 27v91q0 13 5.5 18t20.5 8h140v1228h-140q-15 0 -20.5 5t-5.5 21v90q0 13 5.5 19t20.5 8h460q13 0 19 -6.5t8 -20.5v-90q0 -16 -6.5 -21t-20.5 -5h-139v-507h264q2 82 15.5 168t34.5 157q58 184 168.5 270.5t268.5 86.5q249 0 374.5 -209.5t125.5 -579.5 q0 -371 -125.5 -580t-374.5 -209q-169 0 -274 91.5t-160 266.5q-27 80 -41.5 179.5t-11.5 203.5h-264v-566h139q13 0 19 -6.5t8 -19.5v-91q0 -15 -6.5 -21t-20.5 -6h-460q-15 0 -20.5 5.5t-5.5 21.5zM895 758q0 -365 70.5 -503.5t218.5 -136.5q148 0 224 134.5t76 505.5 q0 357 -74 498.5t-226 141.5q-146 0 -218.5 -139.5t-70.5 -500.5z" />
<glyph unicode="&#x42f;" horiz-adv-x="1235" d="M13 99q-7 15 1 23.5t30 12.5l42 6q53 7 78.5 34.5t50.5 103.5l79 261q21 78 55.5 122.5t93.5 80.5q-133 27 -205 125.5t-72 237.5q0 188 120.5 298.5t328.5 110.5h508q13 0 19 -6.5t8 -20.5v-90q-2 -16 -7.5 -22.5t-19.5 -3.5h-139v-1228h139q13 0 19 -6.5t8 -19.5v-91 q0 -15 -6.5 -21t-20.5 -6h-460q-15 0 -21.5 5.5t-4.5 21.5v91q0 13 5.5 18t20.5 8h139v546h-143q-71 0 -113 -43t-73 -147l-66 -217q-66 -213 -119.5 -251t-141.5 -54l-28 -5q-51 -6 -59 -0.5t-13 21.5zM348 1108q0 -133 70.5 -203.5t240.5 -70.5h143v527h-169 q-142 0 -213.5 -64.5t-71.5 -188.5z" />
<glyph unicode="&#x430;" horiz-adv-x="1023" d="M89 281q0 68 22 128t62 104q59 68 170 104.5t278 45.5l46 2v80q0 108 -47.5 153.5t-139.5 45.5q-60 0 -124 -15t-122 -42q-29 -13 -30 -13h-1q-6 0 -10.5 2t-6.5 9l-34 88q-2 2 -2 6.5v11.5t7.5 14.5t41.5 22.5l31 14q53 22 122.5 36.5t134.5 14.5q82 0 139.5 -14.5 t99.5 -40.5q53 -38 81.5 -99t28.5 -156v-424q0 -100 5.5 -141t21.5 -81h104q13 0 18.5 -6.5t8.5 -20.5v-83q0 -15 -7 -21t-20 -6h-188q-25 0 -41.5 16.5t-36.5 80.5l-7 21l-8 -10q-68 -68 -147 -103.5t-163 -35.5q-129 0 -208 83t-79 229zM257 294q0 -89 44 -138.5 t115 -49.5q51 0 115 32.5t123 91.5l13 13v285h-8q-102 -2 -179 -17t-124 -42q-53 -34 -76 -75.5t-23 -99.5z" />
<glyph unicode="&#x431;" horiz-adv-x="1121" d="M118 633q0 175 13 287t44 195q42 119 124.5 205.5t213.5 146.5l367 165q17 9 33 5.5t24 -18.5l38 -78q7 -17 -2 -28t-29 -20l-413 -191q-132 -61 -199.5 -160.5t-79.5 -232.5l-7 -69h14q20 49 55.5 91t81.5 73q45 30 94.5 42.5t102.5 15.5q95 0 173.5 -38t138.5 -112 q57 -76 81.5 -168t24.5 -225q0 -141 -25.5 -226t-82.5 -160q-68 -87 -152 -125.5t-179 -38.5q-132 0 -235 67.5t-156 187.5q-35 73 -49 167t-14 242zM298 519q0 -219 67.5 -316t191.5 -97q133 0 202.5 104t69.5 305q-2 195 -71.5 302t-200.5 107q-126 0 -192.5 -103.5 t-66.5 -301.5z" />
<glyph unicode="&#x432;" horiz-adv-x="1054" d="M66 951v84q-2 13 5 18.5t22 8.5h502q74 0 117.5 -11t83.5 -34q62 -37 90 -93.5t28 -129.5q0 -82 -37 -142.5t-109 -89.5q91 -25 139.5 -93t48.5 -168q0 -68 -23.5 -120t-65.5 -92q-53 -49 -117 -69t-146 -20h-361q-15 0 -21.5 5.5t-4.5 21.5v897h-124q-15 0 -22 5.5 t-5 21.5zM384 137h209q95 -2 144.5 44.5t49.5 126.5q0 38 -9.5 67.5t-30.5 53.5q-24 25 -59.5 40.5t-83.5 15.5h-220v-348zM384 621h205q71 0 118 39t47 112q0 76 -46.5 113t-125.5 39h-198v-303z" />
<glyph unicode="&#x433;" horiz-adv-x="926" d="M78 27v83q0 13 5.5 19t20.5 8h124v787h-124q-15 0 -21.5 5.5t-4.5 21.5v84q0 13 5.5 18.5t20.5 8.5h730q13 0 19 -6.5t8 -20.5v-378q0 -15 -7 -21.5t-20 -4.5h-97q-16 0 -21.5 5.5t-5.5 20.5v267h-314v-787h157q13 0 19 -6.5t8 -20.5v-83q-2 -15 -8 -21t-19 -6h-449 q-15 0 -20.5 5.5t-5.5 21.5z" />
<glyph unicode="&#x434;" horiz-adv-x="1072" d="M44 108q-2 19 6.5 23t25.5 6h81q84 164 114 354t21 433h-124q-15 0 -22 5.5t-5 21.5v84q0 13 6 18.5t21 8.5h688q16 0 22.5 -6.5t8.5 -25.5v-893h111q13 -2 20.5 -5t9.5 -24v-384q-2 -13 -7.5 -19t-18.5 -8h-107q-15 2 -21.5 8t-4.5 19v276h-666v-276q-2 -13 -7.5 -19 t-18.5 -8h-106q-15 2 -21 8t-6 19v384zM323 137h396v787h-278v-145q-3 -190 -31 -349.5t-87 -292.5z" />
<glyph unicode="&#x435;" horiz-adv-x="1036" d="M104 531q0 140 34.5 244.5t102.5 182.5q55 64 130.5 99.5t172.5 35.5q82 0 153 -29t122 -80q61 -66 92 -179t33 -261v-10q-2 -20 -6.5 -29t-17.5 -9h-635v-11q-2 -57 13.5 -119.5t41.5 -106.5q36 -66 103.5 -103.5t147.5 -37.5q55 0 112.5 17t130.5 59q11 5 15.5 7 t11.5 4h1h3q2 -2 5.5 -4t5.5 -7l40 -99q0 -4 1 -7.5t1 -5.5q0 -11 -20 -23.5t-62 -31.5q-62 -27 -125 -42.5t-125 -15.5q-114 2 -208.5 41t-158.5 127q-55 71 -86 166.5t-29 227.5zM285 633h479q0 48 -10.5 98t-25.5 90q-29 64 -79 98.5t-118 36.5q-68 0 -121.5 -34.5 t-82.5 -96.5q-19 -42 -30.5 -94t-11.5 -98z" />
<glyph unicode="&#x436;" horiz-adv-x="1494" d="M66 105.5q2 6.5 29 12.5l27 4q49 7 66 24.5t33 58.5l68 213q18 55 54.5 90.5t91.5 50.5q-55 16 -90 57t-56 118l-23 89q-18 59 -38 86.5t-64 34.5l-31 5q-22 2 -28 7.5t-1 18.5l25 100q0 8 6 13t22 5q44 -2 91.5 -18t83.5 -47q27 -29 45.5 -66.5t38.5 -107.5l29 -115 q15 -64 46 -93t91 -27h81v416q0 13 6 18.5t21 8.5h115q13 -3 20 -8t7 -19v-416h82q57 -2 87.5 27t49.5 93l28 115q17 72 36.5 109t47.5 65q34 31 81.5 47t93.5 18q13 0 20 -4.5t9 -13.5l24 -100q2 -13 -3.5 -18.5t-24.5 -7.5l-31 -5q-47 -7 -67 -34.5t-35 -86.5l-25 -89 q-21 -77 -57 -118t-89 -57q53 -15 90 -50.5t56 -90.5l69 -213q13 -42 31 -59t69 -24l26 -4q25 -5 27 -12t0 -20l-29 -99q-5 -6 -10.5 -11t-20.5 -7q-73 2 -124 17.5t-78 51.5q-17 17 -32.5 57t-35.5 113l-44 157q-19 64 -48.5 90.5t-88.5 26.5h-84v-455q0 -15 -6.5 -21 t-20.5 -6h-115q-15 0 -21 5.5t-6 21.5v455h-83q-62 -2 -91 -27.5t-46 -89.5l-44 -157q-22 -73 -38 -113t-32 -57q-29 -36 -79.5 -52.5t-120.5 -16.5q-18 0 -24 6t-8 12l-29 99q-4 13 -2 19.5z" />
<glyph unicode="&#x437;" horiz-adv-x="928" d="M87.5 89.5q1.5 3.5 3.5 5.5l48 89q2 6 4.5 7t6.5 3h1h3q5 -2 9.5 -4t17.5 -6q68 -40 132.5 -59t129.5 -19q97 -2 151 52.5t54 139.5q0 47 -19 83.5t-49 59.5q-29 17 -68 24.5t-105 7.5h-38q-15 0 -23 7t-6 22v78q0 17 7 22.5t22 7.5h40q58 0 99 13.5t72 43.5 q22 22 35.5 53.5t13.5 73.5q0 38 -12.5 67.5t-36.5 54.5q-22 17 -52 28.5t-66 11.5q-53 0 -106 -14.5t-88 -38.5v-118q-2 -15 -7.5 -22t-19.5 -5h-70q-15 0 -22.5 6t-4.5 21v188q0 15 5 22t17 14q74 40 146 62t152 22q82 0 138.5 -19t102.5 -59q42 -40 65.5 -93t23.5 -120 q0 -86 -50 -149.5t-129 -90.5v-7q42 -9 77.5 -28.5t65.5 -49.5q36 -37 53.5 -81t17.5 -98q-2 -59 -21 -113t-58 -99q-56 -59 -135 -88t-184 -29q-80 0 -162.5 22t-148.5 62q-17 9 -24 16t-7 13q-3 4 -1.5 7.5z" />
<glyph unicode="&#x438;" horiz-adv-x="1200" d="M66 951v84q-2 13 5 18.5t22 8.5h266q13 0 18 -6.5t7 -20.5v-558l-6 -216h6q27 49 59 113t48 90l338 587q3 4 7 6t18 5h115q13 0 19 -6.5t8 -20.5v-898h123q13 0 19 -6.5t8 -20.5v-83q0 -15 -6.5 -21t-20.5 -6h-265q-15 0 -22 5.5t-5 21.5v557l7 214h-7q-50 -93 -69 -130 t-37 -71l-339 -586q-4 -7 -8.5 -9t-14.5 -2h-116q-15 0 -21.5 5.5t-4.5 21.5v897h-124q-15 0 -22 5.5t-5 21.5z" />
<glyph unicode="&#x439;" horiz-adv-x="1200" d="M66 951v84q-2 13 5 18.5t22 8.5h266q13 0 18 -6.5t7 -20.5v-558l-6 -216h6q27 49 59 113t48 90l338 587q3 4 7 6t18 5h115q13 0 19 -6.5t8 -20.5v-898h123q13 0 19 -6.5t8 -20.5v-83q0 -15 -6.5 -21t-20.5 -6h-265q-15 0 -22 5.5t-5 21.5v557l7 214h-7q-50 -93 -69 -130 t-37 -71l-339 -586q-4 -7 -8.5 -9t-14.5 -2h-116q-15 0 -21.5 5.5t-4.5 21.5v897h-124q-15 0 -22 5.5t-5 21.5zM301 1467q0 8 5.5 14.5t18.5 11.5l89 16l10 2h5q8 0 14 -4.5t11 -16.5l6 -32q9 -55 50 -86.5t100 -31.5q62 0 101 31t50 87l7 32q2 16 11 18.5t31 0.5l85 -16 q11 -3 18 -11.5t9 -14.5q0 -5 -1 -8t-7 -30q-13 -47 -33 -79.5t-52 -59.5q-44 -40 -97 -56t-122 -16q-71 -2 -125 16t-94 56q-29 24 -52 61.5t-31 77.5q-5 11 -6 20t-1 18z" />
<glyph unicode="&#x43a;" horiz-adv-x="1068" d="M66 951v84q-2 13 5 18.5t22 8.5h263q13 -3 18.5 -8t7.5 -19v-416h105q57 -2 88 27t49 93l28 115q32 129 94 184t166 55q12 -2 18.5 -5.5t9.5 -12.5l24 -100q3 -13 -2.5 -18.5t-26.5 -7.5l-30 -5q-46 -7 -66 -34.5t-37 -86.5l-23 -89q-22 -77 -57.5 -118t-88.5 -57 q53 -15 89 -50.5t57 -90.5l68 -213q13 -42 30.5 -59t69.5 -24l26 -4q25 -5 27 -12t0 -20l-29 -99q-4 -6 -9.5 -11t-21.5 -7q-122 2 -173.5 41t-95.5 198l-45 157q-19 64 -48 90.5t-89 26.5h-107v-455q-2 -15 -7.5 -21t-18.5 -6h-115q-15 0 -21.5 5.5t-4.5 21.5v897h-122 q-15 0 -22 5.5t-5 21.5z" />
<glyph unicode="&#x43b;" horiz-adv-x="1112" d="M22 80q-5 15 1 23.5t32 14.5l21 2q95 9 144.5 74t73.5 275q8 90 14 211.5t6 243.5h-124q-15 0 -20.5 5.5t-5.5 21.5v84q0 13 5.5 18.5t20.5 8.5h688q13 -3 21 -10.5t8 -23.5v-891h123q13 0 19 -6.5t8 -20.5v-83q0 -15 -6.5 -21t-20.5 -6h-415q-16 0 -22.5 5.5t-3.5 21.5 v83q0 13 5 19t21 8h124v787h-270v-37q0 -100 -9 -245.5t-19 -234.5q-27 -188 -80 -279.5t-140 -129.5q-37 -15 -70 -22t-65 -7q-24 0 -36 8t-14 25z" />
<glyph unicode="&#x43c;" horiz-adv-x="1304" d="M82 27v83q0 13 5.5 19t20.5 8h86l45 787h-85q-15 0 -21.5 5.5t-3.5 21.5v84q0 13 5 18.5t20 8.5h266q7 -3 11 -6t10 -14l169 -485q7 -25 19.5 -70.5t20.5 -79.5h4q7 34 19.5 80.5t20.5 69.5l171 485q2 11 6.5 14t13.5 6h265q13 0 18.5 -6.5t8.5 -20.5v-84q0 -15 -7 -22 t-20 -5h-84l44 -787h87q13 0 18 -6.5t9 -20.5v-83q0 -15 -7 -21t-20 -6h-224q-11 0 -14 3t-3 14l-25 768q-2 0 -1 -1t1 83h-4q-7 -31 -10 -50t-8 -32l-185 -538q-7 -15 -10.5 -19t-16.5 -2h-89q-15 0 -18.5 3t-7.5 18l-186 538q-6 13 -10 32t-8 50h-4q0 -84 0 -83v1 l-24 -768q-2 -11 -6 -14t-12 -3h-224q-15 0 -21.5 5.5t-4.5 21.5z" />
<glyph unicode="&#x43d;" horiz-adv-x="1218" d="M78 27v83q0 13 5.5 19t20.5 8h124v787h-124q-15 0 -21.5 5.5t-4.5 21.5v84q0 13 5.5 18.5t20.5 8.5h265q13 0 19 -6.5t8 -20.5v-420h427v309h-124q-15 0 -20.5 5.5t-5.5 21.5v84q0 13 5.5 18.5t20.5 8.5h416q13 0 18.5 -6.5t8.5 -20.5v-84q0 -15 -7 -22t-20 -5h-124v-787 h124q13 0 18.5 -6.5t8.5 -20.5v-83q0 -15 -7 -21t-20 -6h-266q-15 0 -21.5 5.5t-4.5 21.5v450h-427v-340h123q13 -2 19 -7.5t8 -19.5v-83q0 -15 -6 -21t-21 -6h-415q-15 0 -20.5 5.5t-5.5 21.5z" />
<glyph unicode="&#x43e;" horiz-adv-x="1100" d="M110 526q0 261 115 414t334 153q206 0 319 -147t113 -408q0 -266 -118.5 -417.5t-334.5 -151.5q-203 0 -315.5 146t-112.5 411zM292 546q0 -223 62 -331.5t199 -108.5q128 0 192.5 105t64.5 329q0 197 -63 306.5t-196 109.5q-133 -2 -196 -108.5t-63 -301.5z" />
<glyph unicode="&#x43f;" horiz-adv-x="1195" d="M78 27v83q0 13 5.5 19t20.5 8h124v787h-124q-15 0 -21.5 5.5t-4.5 21.5v84q0 13 5.5 18.5t20.5 8.5h989q13 0 18.5 -6.5t7.5 -20.5v-84q0 -15 -6.5 -22t-19.5 -5h-124v-787h124q13 0 18.5 -6.5t7.5 -20.5v-83q0 -15 -6.5 -21t-19.5 -6h-266q-15 0 -22 5.5t-5 21.5v897 h-404v-787h123q13 -2 19 -7.5t8 -19.5v-83q0 -15 -6 -21t-21 -6h-415q-15 0 -20.5 5.5t-5.5 21.5z" />
<glyph unicode="&#x440;" horiz-adv-x="1136" d="M62 951v84q0 13 5.5 18.5t21.5 8.5h198q18 0 32.5 -12t36.5 -66l9 -22l11 9q80 64 153 93t146 29q89 0 157.5 -36.5t114.5 -109.5q38 -64 58.5 -165t20.5 -229q-2 -292 -104.5 -438t-264.5 -146q-62 2 -129.5 25t-122.5 65l-9 7v-376h142q13 0 18.5 -5.5t7.5 -20.5v-84 q0 -13 -6.5 -19t-19.5 -8h-436q-16 2 -22.5 8t-3.5 19v84q0 15 5 21.5t21 4.5h126v1095q-2 53 -3 75t-6 45l-4 19h-126q-16 0 -23 5.5t-4 21.5zM396 213q66 -49 122.5 -72t107.5 -23q60 0 105.5 27.5t70.5 80.5q22 48 32.5 128.5t10.5 194.5q0 101 -8 167.5t-25 110.5 q-25 58 -68 87.5t-94 29.5q-46 0 -105.5 -24.5t-135.5 -74.5l-13 -9v-623z" />
<glyph unicode="&#x441;" horiz-adv-x="954" d="M110 498q0 139 32.5 252t98.5 192q55 68 136 109.5t174 41.5q59 0 141 -21t135 -52l18 -11q10 -9 15 -15t7 -21v-199q0 -15 -6.5 -21t-20.5 -6h-90q-16 0 -21 5.5t-5 21.5v129q-38 17 -80 29t-82 12q-129 0 -201 -94t-69 -319q0 -221 63 -317t191 -96q53 0 119.5 20.5 t128.5 58.5q11 6 15.5 8.5t9.5 2.5q2 0 5 -2.5t5 -6.5l43 -104q2 -11 -1.5 -19t-25.5 -21q-58 -38 -149.5 -62t-173.5 -24q-102 0 -179 38.5t-130 116.5q-51 71 -77 162.5t-26 211.5z" />
<glyph unicode="&#x442;" horiz-adv-x="973" d="M66 699v336q-2 13 5 18.5t22 8.5h787q13 0 19 -6.5t8 -20.5v-338q0 -16 -7 -21t-20 -5h-91q-15 -2 -21.5 4t-3.5 22v227h-194v-787h124q13 0 19 -7t8 -20v-83q0 -15 -7 -21t-20 -6h-415q-15 0 -22.5 5.5t-4.5 21.5v83q0 13 6 19t21 8h124v787h-192v-225 q-3 -15 -8.5 -21.5t-18.5 -4.5h-91q-15 0 -22 5.5t-5 20.5z" />
<glyph unicode="&#x443;" d="M15 951v84q-2 13 5 18.5t22 8.5h405q13 0 18.5 -6.5t7.5 -20.5v-77q-2 -15 -7.5 -21t-18.5 -4h-141l240 -709q7 -22 13.5 -44.5t29.5 -106.5l2 -9h4q2 29 8.5 58.5t25.5 96.5l185 714h-130q-15 0 -21 5.5t-6 21.5v75q0 13 5 18.5t22 8.5h384q13 -3 20 -8t7 -19v-84 q-2 -15 -8 -22t-19 -5h-82l-228 -787q-73 -247 -116 -355.5t-89 -159.5q-40 -40 -94 -63t-119 -23q-57 0 -113 17.5t-109 45.5q-34 20 -45 32.5t-2 28.5l43 88q3 9 6.5 11t10.5 0h2t35 -23q40 -27 89 -45t83 -18q27 0 53.5 12t49.5 36q15 22 33 57.5t35 82.5l46 139h-80 q-17 0 -21.5 4.5t-6.5 14.5l-318 905h-89q-15 0 -22 5.5t-5 21.5z" />
<glyph unicode="&#x444;" horiz-adv-x="1428" d="M110 538q0 274 89.5 414.5t238.5 140.5q47 -2 93.5 -22t99.5 -64v407h-124q-16 0 -23 5.5t-4 20.5v84q0 13 5.5 19t21.5 8h265q13 -2 18.5 -8t7.5 -19v-517q49 44 99 65t101 21q66 -2 130 -40t109 -111q40 -74 61 -179.5t21 -224.5q0 -272 -94 -420.5t-258 -148.5 q-51 0 -93 16.5t-76 52.5v-348h142q13 0 18.5 -5.5t8.5 -20.5v-84q-3 -13 -8 -19t-19 -8h-436q-15 2 -22 8t-5 19v84q-2 15 5 21.5t22 4.5h127v348q-36 -36 -78 -52.5t-86 -16.5q-83 0 -150.5 38.5t-108.5 102.5q-48 71 -73 185t-25 243zM279 542q0 -75 8.5 -153.5 t24.5 -127.5q22 -75 65 -115t110 -40q31 0 70.5 22t73.5 58v673q-32 42 -78 69.5t-86 27.5q-47 0 -82 -26.5t-58 -70.5q-25 -47 -36.5 -136.5t-11.5 -180.5zM798 186q34 -38 75 -59t78 -21q60 -2 103 41t65 119q13 53 22 127t9 149q0 80 -9.5 159.5t-28.5 130.5 q-21 59 -62 91.5t-88 32.5q-44 0 -89.5 -27.5t-74.5 -69.5v-673z" />
<glyph unicode="&#x445;" d="M55 27v83q0 13 5.5 19t21.5 8h82l309 405l-270 382h-99q-15 0 -21.5 5.5t-4.5 21.5v84q0 13 5.5 18.5t20.5 8.5h369q13 0 19 -6.5t8 -20.5v-75q-2 -15 -7.5 -22t-19.5 -5h-84l147 -226l23 -40l30 45l152 221h-84q-15 0 -21.5 5.5t-4.5 21.5v75q0 13 5.5 18.5t20.5 8.5 h343q13 -3 18.5 -8t7.5 -19v-84q-2 -15 -7.5 -22t-18.5 -5h-78l-274 -365l296 -422h82q13 0 19 -7t8 -20v-83q0 -15 -6.5 -21t-20.5 -6h-353q-15 0 -21 5.5t-6 21.5v75q0 12 5.5 18t21.5 9h79l-135 205q-47 66 -46 66.5t-12 26.5l-52 -82l-153 -216h102q13 -3 18.5 -9 t7.5 -18v-75q-2 -15 -7.5 -21t-18.5 -6h-374q-15 0 -22 5.5t-5 21.5z" />
<glyph unicode="&#x446;" horiz-adv-x="1146" d="M78 27v83q0 13 5.5 19t20.5 8h124v787h-124q-15 0 -21.5 5.5t-4.5 21.5v84q0 13 5.5 18.5t20.5 8.5h265q13 0 19 -6.5t8 -20.5v-898h387v787h-124q-15 0 -21.5 5.5t-4.5 21.5v84q0 13 5.5 18.5t20.5 8.5h265q13 0 19 -6.5t8 -20.5v-898h111q13 -2 21 -5t10 -24v-384 q0 -13 -7 -19t-20 -8h-106q-15 2 -22 8t-5 19v276h-829q-15 0 -20.5 5.5t-5.5 21.5z" />
<glyph unicode="&#x447;" horiz-adv-x="1149" d="M49 951v84q0 13 5 18.5t22 8.5h264q13 0 20 -6.5t7 -20.5v-349q0 -74 47.5 -116t140.5 -42q49 0 95.5 10.5t103.5 31.5v354h-123q-15 0 -22 5.5t-5 21.5v84q0 13 5.5 18.5t21.5 8.5h416q12 0 17.5 -6.5t7.5 -20.5v-84q0 -15 -6.5 -22t-18.5 -5h-125v-787h125 q12 0 17.5 -6.5t7.5 -20.5v-83q-2 -15 -7.5 -21t-17.5 -6h-416q-15 0 -22 5.5t-5 21.5v83q0 13 5.5 19t21.5 8h123v296q-60 -19 -116 -30.5t-107 -11.5q-168 0 -250 81t-82 231v221h-123q-16 0 -23 5.5t-4 21.5z" />
<glyph unicode="&#x448;" horiz-adv-x="1591" d="M78 27v83q0 13 5.5 19t20.5 8h124v787h-124q-15 0 -21.5 5.5t-4.5 21.5v84q0 13 5.5 18.5t20.5 8.5h265q13 0 19 -6.5t8 -20.5v-898h316v787h-123q-16 0 -23 5.5t-4 21.5v84q0 13 5 18.5t22 8.5h265q13 0 18.5 -6.5t7.5 -20.5v-898h317v787h-125q-15 0 -21.5 5.5 t-3.5 21.5v84q0 13 5 18.5t20 8.5h416q13 -3 19 -8t8 -19v-84q0 -15 -6.5 -22t-20.5 -5h-123v-787h123q13 -2 19 -7.5t8 -19.5v-83q0 -15 -6.5 -21t-20.5 -6h-1384q-15 0 -20.5 5.5t-5.5 21.5z" />
<glyph unicode="&#x449;" horiz-adv-x="1560" d="M78 27v83q0 13 5.5 19t20.5 8h124v787h-124q-15 0 -21.5 5.5t-4.5 21.5v84q0 13 5.5 18.5t20.5 8.5h265q13 0 19 -6.5t8 -20.5v-898h316v787h-123q-16 0 -23 5.5t-4 21.5v84q0 13 5 18.5t22 8.5h265q13 0 18.5 -6.5t7.5 -20.5v-898h317v787h-125q-15 0 -21.5 5.5 t-3.5 21.5v84q0 13 5 18.5t20 8.5h266q13 0 20 -6.5t7 -20.5v-898h110q13 -2 21 -5t11 -24v-384q-3 -13 -8.5 -19t-18.5 -8h-106q-15 2 -21 8t-6 19v276h-1243q-15 0 -20.5 5.5t-5.5 21.5z" />
<glyph unicode="&#x44a;" horiz-adv-x="1125" d="M59 697v338q-2 13 5 18.5t22 8.5h442q13 0 19 -6.5t8 -20.5v-391h173q76 -2 139.5 -22t109.5 -54q53 -42 84.5 -108t31.5 -148q0 -75 -31.5 -137.5t-86.5 -103.5q-51 -40 -114 -55.5t-151 -15.5h-446q-16 0 -21.5 5.5t-5.5 21.5v83q-3 13 3.5 19t23.5 8h123v787h-195 v-227q-2 -16 -7.5 -23t-18.5 -3h-80q-15 0 -21 5t-6 21zM555 137h152q62 -2 101 12.5t68 42.5q25 25 35.5 56t12.5 71q0 50 -19.5 89t-57.5 65q-29 17 -57.5 24t-82.5 10h-152v-370z" />
<glyph unicode="&#x44b;" horiz-adv-x="1433" d="M78 27v83q0 13 5.5 19t20.5 8h124v787h-124q-15 0 -21.5 5.5t-4.5 21.5v84q0 13 5.5 18.5t20.5 8.5h265q13 0 19 -6.5t8 -20.5v-391h172q76 -2 140 -22t111 -54q53 -42 82.5 -108t31.5 -148q0 -75 -30.5 -137.5t-86.5 -103.5q-50 -40 -113.5 -55.5t-151.5 -15.5h-447 q-15 0 -20.5 5.5t-5.5 21.5zM396 137h153q59 0 100 13.5t72 46.5q20 21 31.5 52.5t13.5 69.5q0 50 -21 90t-59 66q-27 15 -55.5 23.5t-81.5 8.5h-153v-370zM887 951v84q-2 13 4 18.5t23 8.5h415q13 0 19.5 -6.5t6.5 -20.5v-84q0 -15 -6.5 -22t-19.5 -5h-124v-787h124 q13 -2 19.5 -7.5t6.5 -19.5v-83q0 -15 -6.5 -21t-19.5 -6h-263q-15 0 -23 7.5t-5 25.5v891h-124q-15 0 -22 6t-5 21z" />
<glyph unicode="&#x44c;" horiz-adv-x="965" d="M78 27v83q0 13 5.5 19t20.5 8h124v787h-124q-15 0 -21.5 5.5t-4.5 21.5v84q0 13 5.5 18.5t20.5 8.5h265q13 0 19 -6.5t8 -20.5v-391h172q76 0 140 -21t111 -55q53 -42 83.5 -107t30.5 -142q-2 -80 -33 -144.5t-84 -103.5q-50 -40 -113.5 -55.5t-151.5 -15.5h-447 q-15 0 -20.5 5.5t-5.5 21.5zM396 137h153q55 0 98 14.5t70 40.5q22 22 35.5 55.5t13.5 71.5q0 50 -20 89t-56 63q-27 15 -62 25.5t-79 10.5h-153v-370z" />
<glyph unicode="&#x44d;" horiz-adv-x="990" d="M99 82v6.5t3 6.5l42 89q2 4 4 6t6 4h2h3q4 -2 9 -4t18 -6q71 -43 128.5 -61.5t114.5 -16.5q80 0 138.5 35.5t91.5 107.5q17 40 28.5 96t11.5 113v15h-323q-15 0 -20.5 6t-5.5 21v84q0 11 6.5 18.5t21.5 7.5h321q0 66 -17 136t-47 115q-33 42 -83 68.5t-107 26.5 q-40 0 -82 -11.5t-82 -30.5v-129q0 -15 -6.5 -22t-19.5 -5h-89q-15 0 -22 6t-5 21v188q-2 15 3.5 21t19.5 15l17 11q47 29 125 50t147 23q102 -2 179 -36.5t134 -98.5q55 -68 84.5 -171t31.5 -236q0 -110 -24 -218.5t-69 -182.5q-57 -95 -149 -138t-211 -43q-76 0 -152 21 t-144 63q-18 9 -25 16t-7 13z" />
<glyph unicode="&#x44e;" horiz-adv-x="1534" d="M78 951v84q0 13 5.5 18.5t20.5 8.5h265q13 0 19 -6.5t8 -20.5v-420h166q4 92 38.5 187t91.5 162q55 64 129 96.5t173 32.5q101 -2 178.5 -36.5t134.5 -105.5q55 -73 86.5 -173.5t31.5 -239.5q-3 -131 -29.5 -232t-88.5 -182q-60 -78 -143 -115.5t-187 -39.5 q-112 0 -191 42t-129 124q-47 68 -72.5 156.5t-22.5 185.5h-166v-450q0 -15 -7 -21t-20 -6h-114q-15 0 -22 5.5t-5 21.5v897h-124q-15 0 -21.5 5.5t-4.5 21.5zM732 546q0 -223 60.5 -331.5t193.5 -108.5q129 0 193 105t64 329q0 194 -63 305t-196 111q-131 0 -191.5 -107.5 t-60.5 -302.5z" />
<glyph unicode="&#x44f;" horiz-adv-x="1047" d="M34.5 105.5q3.5 6.5 27.5 12.5l31 4q42 4 64 20.5t40 68.5l52 161q16 48 41.5 79t65.5 51v7q-101 17 -160 84.5t-59 170.5q-2 63 24.5 121.5t79.5 100.5q48 38 119 57t159 19h297q13 -3 18.5 -8t7.5 -19v-898h125q13 0 18.5 -6.5t8.5 -20.5v-83q0 -15 -7 -21t-20 -6h-266 q-15 0 -20.5 5.5t-5.5 21.5v427h-120q-61 0 -92.5 -23.5t-51.5 -92.5l-46 -154q-17 -58 -33 -93.5t-31 -52.5q-31 -36 -80.5 -52.5t-125.5 -16.5q-17 2 -23 7t-8 11l-28 99q-5 13 -1.5 19.5zM306 764q0 -45 15 -79.5t53 -55.5q29 -20 65 -29t83 -9h153v333h-153 q-62 -2 -96.5 -10.5t-60.5 -26.5q-31 -22 -45 -53.5t-14 -69.5z" />
<glyph unicode="&#x451;" horiz-adv-x="1036" d="M104 531q0 140 34.5 244.5t102.5 182.5q55 64 130.5 99.5t172.5 35.5q82 0 153 -29t122 -80q61 -66 92 -179t33 -261v-10q-2 -20 -6.5 -29t-17.5 -9h-635v-11q-2 -57 13.5 -119.5t41.5 -106.5q36 -66 103.5 -103.5t147.5 -37.5q55 0 112.5 17t130.5 59q11 5 15.5 7 t11.5 4h1h3q2 -2 5.5 -4t5.5 -7l40 -99q0 -4 1 -7.5t1 -5.5q0 -11 -20 -23.5t-62 -31.5q-62 -27 -125 -42.5t-125 -15.5q-114 2 -208.5 41t-158.5 127q-55 71 -86 166.5t-29 227.5zM224 1391q0 46 34 81t82 37q49 0 83.5 -36t34.5 -82q0 -49 -34.5 -83t-83.5 -34 q-48 -2 -82 33t-34 84zM285 633h479q0 48 -10.5 98t-25.5 90q-29 64 -79 98.5t-118 36.5q-68 0 -121.5 -34.5t-82.5 -96.5q-19 -42 -30.5 -94t-11.5 -98zM659 1391q0 46 34.5 82t83.5 36q46 0 81 -36t35 -82q-2 -49 -36 -83t-80 -34q-49 0 -83.5 34t-34.5 83z" />
<glyph unicode="&#x452;" horiz-adv-x="1087" d="M78 1475v85q0 12 5.5 17.5t20.5 7.5h274q13 -2 19 -7.5t8 -17.5v-228h302q13 0 20 -9t10 -25v-57q0 -15 -6.5 -22t-20.5 -5h-305v-265q99 76 177.5 110t162.5 34q82 -2 130.5 -30t84.5 -83q34 -58 51 -136t17 -213q0 -209 -24 -373.5t-75 -297.5q-42 -106 -114 -224 t-150 -218q-15 -17 -25.5 -26t-18.5 -9q-6 0 -10.5 2t-8.5 4l-58 36q-8 6 -12 11.5t-4 12.5q-2 6 2 13t21 24q64 80 125 195t101 236q33 106 51.5 268t18.5 317q0 143 -12 202t-37 89q-21 25 -50 38t-67 13q-33 -2 -61.5 -8.5t-57.5 -17.5q-45 -19 -86 -48.5t-71 -59.5v-673 h123q13 -2 19 -7.5t8 -19.5v-83q0 -15 -6.5 -21t-20.5 -6h-418q-15 0 -21.5 5.5t-4.5 21.5v83q0 13 5.5 19t20.5 8h127v1077h-127q-15 0 -20.5 6t-5.5 21v64q0 13 5.5 18.5t20.5 8.5h127v116h-133q-15 0 -21.5 6t-4.5 21z" />
<glyph unicode="&#x453;" horiz-adv-x="928" d="M78 27v83q0 13 5.5 19t20.5 8h124v787h-124q-15 0 -21.5 5.5t-4.5 21.5v84q0 13 5.5 18.5t20.5 8.5h730q13 0 19 -6.5t8 -20.5v-378q0 -15 -7 -21.5t-20 -4.5h-97q-16 0 -21.5 5.5t-5.5 20.5v267h-314v-787h157q13 0 19 -6.5t8 -20.5v-83q-2 -15 -8 -21t-19 -6h-449 q-15 0 -20.5 5.5t-5.5 21.5zM234 1285q-2 2 0 6.5t10 8.5l329 255q9 7 13.5 9t8.5 2t9 -3t14 -14l63 -95q5 -11 7 -15t2 -6q0 -6 -3 -10.5t-16 -10.5l-368 -192q-6 -4 -9.5 -4h-5.5q-6 0 -10 1t-6 9l-28 42q-4 4 -8 8.5t-2 8.5z" />
<glyph unicode="&#x454;" horiz-adv-x="973" d="M110 551q-2 128 27 229.5t91 177.5q53 64 130 99.5t182 35.5q66 -2 145 -23t127 -50l17 -11q11 -9 15.5 -15t6.5 -21v-188q-2 -15 -7.5 -22t-18.5 -5h-88q-16 0 -21.5 6t-5.5 21v129q-43 19 -84.5 29.5t-79.5 12.5q-59 0 -109 -26.5t-81 -68.5q-33 -45 -50 -114.5 t-14 -136.5h320q13 -2 20 -8.5t10 -17.5v-84q0 -15 -6.5 -22t-20.5 -5h-323v-15q0 -57 10 -113t30 -96q31 -73 89.5 -108t140.5 -35q55 0 112.5 17.5t130.5 60.5l15 6t12 4h1h3l4 -4t7 -6l42 -89v-6.5t2 -6.5q0 -6 -7.5 -13t-22.5 -16q-72 -42 -148 -63t-149 -21 q-122 0 -214.5 44t-150.5 137q-45 71 -67 172.5t-22 228.5z" />
<glyph unicode="&#x455;" horiz-adv-x="859" d="M93 80v203q0 13 5.5 19t21.5 8h91q13 -2 18 -8t8 -19v-129l18 -6q36 -15 86 -25.5t94 -10.5q82 0 131 42.5t49 117.5q0 36 -13 63.5t-49 55.5q-19 13 -38 24.5t-57 31.5q-49 22 -79.5 36.5t-46.5 23.5q-118 57 -163 123.5t-45 154.5q0 62 23.5 119.5t69.5 102.5 q47 42 107 64t130 22q61 0 135 -20t130 -47q11 -6 16.5 -15t7.5 -20v-193q0 -15 -6.5 -20.5t-19.5 -5.5h-91q-15 0 -22 5.5t-5 20.5v122l-13 4q-40 11 -74.5 18t-62.5 7q-73 0 -115 -38.5t-42 -108.5q0 -24 5.5 -46t16.5 -37q18 -31 60 -57.5t133 -66.5q114 -55 158.5 -87.5 t71.5 -66.5q19 -34 32.5 -75t13.5 -83q0 -137 -98.5 -224.5t-255.5 -89.5q-62 0 -138 16.5t-137 43.5q-37 15 -49 26t-12 25z" />
<glyph unicode="&#x456;" horiz-adv-x="614" d="M33 951v84q0 13 5.5 18.5t20.5 8.5h315q13 -3 21 -10.5t8 -23.5v-891h156q13 0 19 -7t8 -20v-83q0 -15 -7 -21t-20 -6h-483q-16 0 -23 5.5t-4 21.5v83q-3 13 3.5 19t23.5 8h158v787h-175q-15 0 -21.5 5.5t-4.5 21.5zM171 1450q-3 53 37.5 94t97.5 41q53 0 94 -41t41 -94 q-3 -55 -42.5 -94t-92.5 -39q-55 0 -95 39t-40 94z" />
<glyph unicode="&#x457;" horiz-adv-x="636" d="M33 1374q-2 46 33.5 81t83.5 35q49 0 83.5 -35t34.5 -81q-2 -49 -35.5 -83.5t-82.5 -34.5q-48 0 -82.5 34.5t-34.5 83.5zM55 951v84q0 13 5.5 18.5t21.5 8.5h317q12 -3 18.5 -8t6.5 -19v-898h158q13 -2 18.5 -8t7.5 -19v-83q0 -15 -6.5 -21t-19.5 -6h-485q-15 0 -22 5.5 t-4 21.5v83q-2 13 4.5 19t21.5 8h160v787h-175q-15 0 -22 5.5t-5 21.5zM356 1374q0 46 34 81t83 35q46 0 82 -35t36 -81q0 -49 -36 -83.5t-82 -34.5q-49 0 -83 34.5t-34 83.5z" />
<glyph unicode="&#x458;" horiz-adv-x="603" d="M-168 -378q0 4 1 8.5t3 8.5l42 93q4 7 8 9t8 2l2 2v-2q5 0 11.5 -2t12.5 -7q59 -27 102.5 -38.5t81.5 -11.5q80 0 117.5 44t37.5 194v1002h-175q-15 0 -22 5.5t-5 21.5v84q-2 13 4.5 18.5t22.5 8.5h317q13 -3 18 -8.5t8 -18.5v-1153q0 -162 -79.5 -254t-243.5 -92 q-62 2 -122 16.5t-115 38.5q-15 8 -24 17.5t-11 13.5zM194 1450q0 53 40 93t95 42q53 0 94 -41t41 -94q-2 -55 -42 -94t-93 -39q-55 0 -95 39t-40 94z" />
<glyph unicode="&#x459;" horiz-adv-x="1477" d="M22 80q-5 15 1 23.5t32 14.5l21 2q95 9 144.5 74t73.5 275q8 90 14 211.5t6 243.5h-124q-15 0 -20.5 5.5t-5.5 21.5v84q0 13 5.5 18.5t20.5 8.5h688q13 -3 21 -10.5t8 -23.5v-384h172q166 -2 264.5 -91t100.5 -241q0 -146 -98.5 -229t-283.5 -83h-447q-16 0 -22.5 5.5 t-3.5 21.5v83q0 13 5 19t21 8h124v787h-270v-37q-2 -100 -10 -245.5t-18 -234.5q-34 -236 -121.5 -336t-237.5 -102q-22 0 -33 9t-13 24zM907 137h152q98 0 158 46.5t60 135.5q0 88 -57 138t-161 50h-152v-370z" />
<glyph unicode="&#x45a;" horiz-adv-x="1560" d="M78 27v83q0 13 5.5 19t20.5 8h124v787h-124q-15 0 -21.5 5.5t-4.5 21.5v84q0 13 5.5 18.5t20.5 8.5h265q13 0 19 -6.5t8 -20.5v-420h427v309h-124q-15 0 -20.5 5.5t-5.5 21.5v84q0 13 5.5 18.5t20.5 8.5h416q13 0 18.5 -6.5t8.5 -20.5v-84q0 -15 -7 -22t-20 -5h-124v-280 h172q166 -2 265.5 -91t99.5 -241q0 -146 -98 -229t-284 -83h-297q-15 0 -21.5 5.5t-4.5 21.5v450h-427v-340h123q13 -2 19 -7.5t8 -19.5v-83q0 -15 -6 -21t-21 -6h-415q-15 0 -20.5 5.5t-5.5 21.5zM991 137h153q97 0 157 46.5t60 135.5q0 88 -57 138t-160 50h-153v-370z" />
<glyph unicode="&#x45b;" horiz-adv-x="1222" d="M78 1475v85q0 12 5.5 17.5t20.5 7.5h274q13 -2 19 -7.5t8 -17.5v-228h302q13 0 20 -9t10 -25v-57q0 -15 -6.5 -22t-20.5 -5h-305v-265q78 68 165 106t184 38q73 0 121.5 -22t82.5 -62q29 -40 42 -95t13 -153v-624h124q13 -2 18.5 -7.5t7.5 -19.5v-83q0 -15 -6.5 -21 t-19.5 -6h-265q-16 0 -23 5.5t-4 21.5v739q0 50 -6.5 75.5t-22.5 49.5q-19 27 -49 40t-70 13q-68 -2 -152.5 -41.5t-139.5 -92.5v-673h123q13 -2 19 -7.5t8 -19.5v-83q0 -15 -6.5 -21t-20.5 -6h-418q-15 0 -21.5 5.5t-4.5 21.5v83q0 13 5.5 19t20.5 8h127v1077h-127 q-15 0 -20.5 6t-5.5 21v64q0 13 5.5 18.5t20.5 8.5h127v116h-133q-15 0 -21.5 6t-4.5 21z" />
<glyph unicode="&#x45c;" horiz-adv-x="1070" d="M66 951v84q-2 13 5 18.5t22 8.5h263q13 -3 18.5 -8t7.5 -19v-416h105q57 -2 88 27t49 93l28 115q32 129 94 184t166 55q12 -2 18.5 -5.5t9.5 -12.5l24 -100q3 -13 -2.5 -18.5t-26.5 -7.5l-30 -5q-46 -7 -66 -34.5t-37 -86.5l-23 -89q-22 -77 -57.5 -118t-88.5 -57 q53 -15 89 -50.5t57 -90.5l68 -213q13 -42 30.5 -59t69.5 -24l26 -4q25 -5 27 -12t0 -20l-29 -99q-4 -6 -9.5 -11t-21.5 -7q-122 2 -173.5 41t-95.5 198l-45 157q-19 64 -48 90.5t-89 26.5h-107v-455q-2 -15 -7.5 -21t-18.5 -6h-115q-15 0 -21.5 5.5t-4.5 21.5v897h-122 q-15 0 -22 5.5t-5 21.5zM304 1285q-2 2 0 6.5t10 8.5l329 255q9 7 13.5 9t8.5 2t9 -3t14 -14l63 -95q5 -11 7 -15t2 -6q0 -6 -3 -10.5t-16 -10.5l-368 -192q-6 -4 -9.5 -4h-5.5q-6 0 -10 1t-6 9l-28 42q-4 4 -8 8.5t-2 8.5z" />
<glyph unicode="&#x45e;" horiz-adv-x="1108" d="M15 951v84q-2 13 5 18.5t22 8.5h405q13 0 18.5 -6.5t7.5 -20.5v-77q-2 -15 -7.5 -21t-18.5 -4h-141l240 -709q7 -22 13.5 -44.5t29.5 -106.5l2 -9h4q2 29 8.5 58.5t25.5 96.5l185 714h-130q-15 0 -21 5.5t-6 21.5v75q0 13 5 18.5t22 8.5h384q13 -3 20 -8t7 -19v-84 q-2 -15 -8 -22t-19 -5h-82l-228 -787q-73 -247 -116 -355.5t-89 -159.5q-40 -40 -94 -63t-119 -23q-57 0 -113 17.5t-109 45.5q-34 20 -45 32.5t-2 28.5l43 88q3 9 6.5 11t10.5 0h2t35 -23q40 -27 89 -45t83 -18q27 0 53.5 12t49.5 36q15 22 33 57.5t35 82.5l46 139h-80 q-17 0 -21.5 4.5t-6.5 14.5l-318 905h-89q-15 0 -22 5.5t-5 21.5zM253 1467q0 8 5.5 14.5t18.5 11.5l88 16q11 2 11.5 2h4.5q9 0 14.5 -4.5t9.5 -16.5l7 -32q8 -55 49 -87.5t102 -30.5q61 0 100 31t50 87l7 32q2 16 11 18.5t31 0.5l86 -16q11 -3 18.5 -11.5t7.5 -14.5 q0 -5 -1 -8t-8 -30q-13 -47 -33 -79.5t-51 -59.5q-44 -40 -97 -56t-121 -16q-71 0 -125 17t-94 55q-29 24 -52.5 61.5t-32.5 77.5q-4 11 -5 20t-1 18z" />
<glyph unicode="&#x45f;" horiz-adv-x="1176" d="M78 27v83q0 13 5.5 19t20.5 8h124v787h-124q-15 0 -21.5 5.5t-4.5 21.5v84q0 13 5.5 18.5t20.5 8.5h265q13 0 19 -6.5t8 -20.5v-898h385v787h-124q-15 0 -20.5 5.5t-5.5 21.5v84q0 13 5.5 18.5t20.5 8.5h415q13 0 19 -6.5t8 -20.5v-84q0 -15 -6.5 -22t-20.5 -5h-123v-787 h123q13 -2 19 -7.5t8 -19.5v-83q0 -15 -6.5 -21t-20.5 -6h-405v-276q0 -13 -6.5 -19t-18.5 -8h-106q-15 2 -22 8t-5 19v276h-405q-15 0 -20.5 5.5t-5.5 21.5z" />
<glyph unicode="&#x490;" horiz-adv-x="1023" d="M86 27v91q0 13 5.5 18t20.5 8h140v1228h-140q-15 0 -20.5 5t-5.5 21v90q0 13 5.5 19t20.5 8h713v250q0 13 5.5 19t20.5 8h98q13 0 18.5 -6.5t7.5 -20.5v-378q0 -15 -6.5 -22t-19.5 -4h-516v-1217h177q13 0 19 -6.5t8 -19.5v-91q0 -15 -6.5 -21t-20.5 -6h-498 q-15 0 -20.5 5.5t-5.5 21.5z" />
<glyph unicode="&#x491;" horiz-adv-x="895" d="M78 27v83q0 13 5.5 19t20.5 8h124v787h-124q-15 0 -21.5 5.5t-4.5 21.5v84q0 13 5.5 18.5t20.5 8.5h557v299q0 13 6 19.5t21 6.5h114q13 0 19 -6.5t8 -19.5v-407q-2 -22 -9.5 -27t-21.5 -3h-402v-787h157q13 0 19 -6.5t8 -20.5v-83q-2 -15 -8 -21t-19 -6h-449 q-15 0 -20.5 5.5t-5.5 21.5z" />
<glyph unicode="&#x2000;" horiz-adv-x="974" />
<glyph unicode="&#x2001;" horiz-adv-x="1948" />
<glyph unicode="&#x2002;" horiz-adv-x="974" />
<glyph unicode="&#x2003;" horiz-adv-x="1948" />
<glyph unicode="&#x2004;" horiz-adv-x="649" />
<glyph unicode="&#x2005;" horiz-adv-x="487" />
<glyph unicode="&#x2006;" horiz-adv-x="324" />
<glyph unicode="&#x2007;" horiz-adv-x="324" />
<glyph unicode="&#x2008;" horiz-adv-x="243" />
<glyph unicode="&#x2009;" horiz-adv-x="389" />
<glyph unicode="&#x200a;" horiz-adv-x="108" />
<glyph unicode="&#x2010;" horiz-adv-x="779" d="M112 509v112q-2 13 5 20t22 7h500q13 0 19.5 -6.5t6.5 -20.5v-112q-2 -15 -7.5 -22t-18.5 -5h-500q-15 0 -22 6t-5 21z" />
<glyph unicode="&#x2011;" horiz-adv-x="779" d="M112 509v112q-2 13 5 20t22 7h500q13 0 19.5 -6.5t6.5 -20.5v-112q-2 -15 -7.5 -22t-18.5 -5h-500q-15 0 -22 6t-5 21z" />
<glyph unicode="&#x2012;" horiz-adv-x="779" d="M112 509v112q-2 13 5 20t22 7h500q13 0 19.5 -6.5t6.5 -20.5v-112q-2 -15 -7.5 -22t-18.5 -5h-500q-15 0 -22 6t-5 21z" />
<glyph unicode="&#x2013;" horiz-adv-x="1229" d="M110 517v93q-2 13 5 21t22 8h954q13 0 18.5 -7.5t7.5 -21.5v-93q0 -15 -6.5 -21.5t-19.5 -4.5h-954q-15 -2 -21 4.5t-6 21.5z" />
<glyph unicode="&#x2014;" horiz-adv-x="2211" d="M110 517v95q0 13 6 19t21 8h1936q12 0 18 -6.5t9 -20.5v-95q0 -15 -7.5 -21.5t-19.5 -4.5h-1936q-15 -2 -21 4.5t-6 21.5z" />
<glyph unicode="&#x2018;" horiz-adv-x="408" d="M11 1077q0 2 1 8t7 14l255 467q2 6 5.5 10.5t7.5 6.5l2 1q3 1 7 1q2 0 4.5 -1t13.5 -3l58 -19q10 -5 12.5 -8t2.5 -7q0 -5 -1.5 -7.5t-3.5 -13.5l-130 -440q-5 -15 -13.5 -19.5t-19.5 -4.5h-183q-15 -3 -20 1.5t-5 13.5z" />
<glyph unicode="&#x2019;" horiz-adv-x="408" d="M20.5 1106q1.5 2 6.5 15l130 441q2 13 11 17t22 6h184q13 0 19 -4t6 -11q0 -4 -2.5 -9.5t-7.5 -11.5l-254 -468q-4 -9 -7.5 -13t-5.5 -4q-2 -2 -5 -2h-5h-6t-11 4l-57 20q-13 3 -14.5 6t-1.5 10q-3 2 -1.5 4z" />
<glyph unicode="&#x201a;" horiz-adv-x="408" d="M-6 -232q0 4 1 6t3 13l131 441q2 13 11 17t22 7h183q12 -3 18 -6t6 -9q0 -5 -2 -10.5t-6 -11.5l-255 -467q-4 -6 -7.5 -11t-5.5 -7q-2 0 -4.5 -1t-4.5 -1q-4 0 -6 1t-12 3l-57 21q-11 4 -13 7t-2 8z" />
<glyph unicode="&#x201c;" horiz-adv-x="899" d="M93 1077q0 2 1 8t8 14l254 467q3 6 6 10.5t7 6.5l3 1q2 1 6 1q2 0 4 -1t14 -3l58 -19q10 -5 12.5 -8t2.5 -7q0 -5 -1 -7.5t-4 -13.5l-130 -440q-5 -15 -13.5 -19.5t-19.5 -4.5h-183q-15 -3 -20 1.5t-5 13.5zM482 1077q0 2 1.5 8t7.5 14l254 467q2 6 5.5 10.5t7.5 6.5h3 q3 0 7 2q2 0 4 -1t13 -3l57 -19q11 -5 14 -8t3 -7q0 -5 -1.5 -7.5t-3.5 -13.5l-130 -440q-5 -15 -14 -19.5t-20 -4.5h-183q-16 -3 -21.5 1.5t-3.5 13.5z" />
<glyph unicode="&#x201d;" horiz-adv-x="910" d="M127.5 1106q1.5 2 5.5 15l131 441q2 13 10.5 18t21.5 5h184q12 0 18 -4t6 -11q0 -4 -2 -9.5t-6 -11.5l-255 -468q-4 -9 -7.5 -13t-5.5 -4q-2 -2 -4.5 -2h-4.5h-6t-12 4l-57 20q-13 3 -14 6t-1 10q-3 2 -1.5 4zM517 1102v4t5 15l130 441q2 13 11.5 18t22.5 5h183 q13 0 18.5 -4t5.5 -11q0 -4 -2 -9.5t-6 -11.5l-254 -468q-5 -9 -8.5 -13t-5.5 -4q-2 -2 -4.5 -2h-4.5h-6.5t-10.5 4l-57 20q-13 3 -15 6t-2 10z" />
<glyph unicode="&#x201e;" horiz-adv-x="899" d="M78 -226q0 2 4 13l131 441q2 13 10.5 17t21.5 7h184q13 -3 19 -6t6 -9q0 -5 -2.5 -10.5t-6.5 -11.5l-255 -467q-4 -6 -7.5 -11t-5.5 -7h-4t-5 -2q-4 0 -6.5 1t-11.5 3l-57 21q-13 4 -14 7t-1 8v6zM465.5 -226q1.5 2 5.5 13l131 441q2 13 11 17t22 7h184q13 -3 18 -6t5 -9 q-2 -5 -3 -10.5t-5 -11.5l-254 -467q-4 -6 -8 -11t-6 -7h-4.5t-4.5 -2q-4 0 -6 1t-11 3l-58 21q-13 4 -15.5 7t0.5 8q-3 4 -1.5 6z" />
<glyph unicode="&#x2022;" d="M152 796q0 166 116 284.5t285 118.5q166 0 282 -118.5t119 -284.5q0 -166 -118.5 -281.5t-282.5 -115.5q-166 -3 -283.5 114.5t-117.5 282.5z" />
<glyph unicode="&#x2026;" horiz-adv-x="2211" d="M226 148q0 62 42 105t106 43q59 0 103.5 -43t44.5 -105q0 -64 -43.5 -106t-104.5 -42q-64 0 -106 42t-42 106zM958 148q0 62 42 105t106 43q59 0 103.5 -43t44.5 -105q0 -64 -43.5 -106t-104.5 -42q-64 0 -106 42t-42 106zM1690 148q0 62 41.5 105t106.5 43q60 0 103 -43 t45 -105q0 -64 -43 -106t-105 -42q-64 0 -106 42t-42 106z" />
<glyph unicode="&#x202f;" horiz-adv-x="389" />
<glyph unicode="&#x2039;" horiz-adv-x="652" d="M47.5 520.5q-1.5 3.5 1.5 7.5v6t10 17l372 466q9 11 13.5 14.5t11.5 3.5l2 -1q2 -2 9 -4l73 -42q9 -6 11 -9.5t2 -7.5t-1 -6.5t-6 -8.5l-287 -428l287 -426q5 -9 6 -11t1 -5q0 -6 -2 -9.5t-11 -8.5l-73 -41q-7 -4 -9 -5h-2q-7 0 -11 2.5t-14 15.5l-372 467 q-10 10 -11.5 13.5z" />
<glyph unicode="&#x203a;" horiz-adv-x="652" d="M99 86v5t7 11l288 426l-288 428q-7 6 -7 8.5v6.5t1.5 7.5t11.5 9.5l74 42q4 2 6 3.5t5 1.5q4 0 9 -3.5t15 -14.5l372 -466q9 -13 10 -16.5t1 -6.5q0 -4 -1 -7.5t-10 -13.5l-372 -467q-10 -13 -15 -15.5t-9 -2.5h-5t-6 5l-74 41q-10 4 -12.5 8t-0.5 10z" />
<glyph unicode="&#x205f;" horiz-adv-x="487" />
<glyph unicode="&#x2122;" horiz-adv-x="1678" d="M89 1210v210q0 13 6.5 18.5t18.5 7.5h538q11 -2 19 -7.5t8 -18.5v-210q0 -16 -8 -22t-19 -4h-59q-13 0 -20 5t-7 21v126h-115v-650h85q10 0 16.5 -6.5t9.5 -20.5v-47q-3 -13 -8 -20.5t-18 -5.5h-304q-15 0 -22 6.5t-5 19.5v47q0 11 6 18t21 9h84v650h-115v-126 q-2 -16 -8.5 -21t-17.5 -5h-61q-12 0 -20 5t-5 21zM721 612v47q0 11 5.5 19t20.5 8h63l41 661h-79q-13 0 -20 5.5t-7 21.5v46q-2 13 5.5 19.5t21.5 6.5h192q9 0 16.5 -4.5t15.5 -19.5l159 -445h4l160 450q4 10 9.5 14.5t13.5 4.5h202q13 -2 19.5 -8.5t6.5 -17.5v-48 q0 -16 -7.5 -23t-18.5 -4h-80l38 -659h62q13 0 18.5 -7.5t8.5 -19.5v-47q0 -13 -7 -20.5t-20 -5.5h-274q-16 0 -21.5 6.5t-5.5 19.5v47q-3 11 4 18t23 9h79l-16 524l-148 -402q-6 -17 -12.5 -25.5t-13.5 -5.5h-56q-8 -3 -14.5 6t-11.5 25l-139 399l-21 -521h80q11 0 18 -6.5 t9 -20.5v-47q0 -15 -8 -21.5t-19 -4.5h-270q-13 0 -19.5 5.5t-6.5 20.5z" />
<glyph unicode="&#xe000;" horiz-adv-x="1061" d="M0 0v1062h1062v-1062h-1062z" />
</font>
</defs>
</svg>
