<?xml version="1.0" standalone="no"?>
<!DOCTYPE svg PUBLIC "-//W3C//DTD SVG 1.1//EN" "http://www.w3.org/Graphics/SVG/1.1/DTD/svg11.dtd" >
<svg xmlns="http://www.w3.org/2000/svg">
<metadata></metadata>
<defs>
<font id="pf_dindisplay_pro_extrathinRg" horiz-adv-x="998" >
<font-face units-per-em="2048" ascent="1536" descent="-512" />
<missing-glyph horiz-adv-x="408" />
<glyph horiz-adv-x="2048" />
<glyph horiz-adv-x="2048" />
<glyph unicode="&#xd;" horiz-adv-x="2048" />
<glyph unicode=" "  horiz-adv-x="408" />
<glyph unicode="&#x09;" horiz-adv-x="408" />
<glyph unicode="&#xa0;" horiz-adv-x="408" />
<glyph unicode="!" horiz-adv-x="429" d="M156 56q0 21 17.5 37.5t43.5 16.5q25 0 43 -16t18 -38q0 -26 -17.5 -43t-41.5 -17q-28 0 -45.5 17t-17.5 43zM182 1510h63q0 -138 -2 -294.5t-3.5 -316t-3.5 -314.5t-2 -295h-41q0 139 -2 294.5t-3 315t-3.5 316t-2.5 294.5z" />
<glyph unicode="&#x22;" horiz-adv-x="470" d="M124 1137v373h46v-373h-46zM302 1137v373h46v-373h-46z" />
<glyph unicode="#" horiz-adv-x="1028" d="M24 495v43h221l61 441h-217v44h226l64 485h46l-65 -485h350l69 485h44l-65 -485h224v-44h-230l-64 -441h230v-43h-234l-67 -495h-48l69 495h-350l-66 -495h-48l67 495h-217zM296 538h346l62 441h-350z" />
<glyph unicode="$" d="M48 116l28 49q91 -56 199.5 -91t225.5 -35q83 0 156.5 22t129.5 64t88 105t32 147q0 92 -33 152.5t-88 100t-126.5 61t-145.5 36.5q-78 15 -158 40.5t-144.5 68.5t-104.5 110t-40 170q0 163 105.5 265t285.5 113v186h52v-184q97 -2 192 -23t177 -64l-24 -50 q-82 43 -177.5 64t-193.5 21q-66 0 -131 -18.5t-115.5 -59t-81 -103t-30.5 -151.5q0 -85 34.5 -141.5t91 -93t128.5 -59.5t148 -39q97 -19 178.5 -47t140 -75t90 -114t31.5 -166q0 -89 -33.5 -160.5t-93.5 -122.5t-144 -78t-187 -29v-196h-52v198q-118 5 -218.5 38 t-191.5 89z" />
<glyph unicode="%" horiz-adv-x="1628" d="M102 835v441q0 48 20.5 90.5t58.5 74t89 49.5t112 18q62 0 113.5 -18t88.5 -49.5t56.5 -74t19.5 -90.5v-443q0 -97 -77 -164.5t-201 -67.5q-63 0 -115 18.5t-89 51.5t-56.5 75t-19.5 89zM154 845q0 -54 21.5 -91t56.5 -60t74.5 -34t75.5 -11q35 0 75 11t73.5 34 t56.5 59.5t23 91.5v419q0 54 -23 92t-56.5 60.5t-73.5 32.5t-75 10q-38 0 -76.5 -10t-73.5 -32.5t-56.5 -60.5t-21.5 -92v-419zM323 -37l918 1587h60l-924 -1587h-54zM966 226v441q0 47 20.5 89.5t58.5 74t89 50t113 18.5t113 -18.5t88 -50t56.5 -74t19.5 -89.5v-443 q0 -98 -76.5 -165t-200.5 -67q-63 0 -115.5 18.5t-89.5 50.5t-56.5 74.5t-19.5 90.5zM1019 234q0 -54 21 -91t56 -60t74 -33.5t77 -10.5q35 0 74.5 10.5t73.5 33.5t56.5 60t22.5 91v419q0 54 -22.5 92t-56.5 61t-74.5 33t-73.5 10q-38 0 -77 -10t-74 -33t-56 -60.5 t-21 -92.5v-419z" />
<glyph unicode="&#x26;" horiz-adv-x="1675" d="M83 1107q0 117 52 226t145 190t221.5 130t277.5 49q187 0 331.5 -67t243 -182t149.5 -268.5t51 -322.5q0 -102 -25 -196.5t-68.5 -177t-101.5 -154t-126 -129.5q91 -89 179 -155.5t173 -99.5l-24 -41q-103 48 -193 114t-170 142q-126 -95 -259 -138.5t-257 -43.5 q-94 0 -174.5 24t-140 72.5t-93 124.5t-33.5 178q0 151 103 265.5t294 218.5q-80 106 -112.5 188.5t-32.5 141.5q0 58 19.5 110.5t55 91.5t87 63t113.5 24q63 0 114.5 -21.5t88 -57.5t57 -84t20.5 -100q0 -112 -88 -206t-243 -169q45 -72 102.5 -150t121.5 -157.5 t131.5 -157.5t130.5 -146q63 57 118 126.5t96.5 148.5t65 168t23.5 185q0 156 -46.5 300.5t-137.5 253t-228 174t-315 65.5q-139 0 -257 -44.5t-206 -121t-138 -175t-50 -206.5q0 -79 28 -162.5t89 -162.5l-36 -31q-65 87 -95.5 176t-30.5 177zM290 387q0 -93 32 -162 t84 -112t122.5 -65t148.5 -22q111 0 240 40t249 133q-141 148 -266 311t-235 317q-79 -42 -147.5 -89.5t-118 -102.5t-79.5 -116.5t-30 -131.5zM545 1198q0 -65 40 -145t101 -165q60 31 117 65.5t99 74.5t67 88t25 106q0 48 -19.5 88t-50.5 68.5t-72.5 43.5t-87.5 15 q-58 0 -99.5 -24.5t-67.5 -61t-39 -78.5t-13 -75z" />
<glyph unicode="'" horiz-adv-x="410" d="M189 1137v373h49v-373h-49z" />
<glyph unicode="(" horiz-adv-x="537" d="M159 644q0 118 21 241.5t63.5 242.5t102.5 227t136 197l19 -13q-130 -197 -202.5 -426t-72.5 -455q0 -245 74.5 -477.5t203.5 -423.5l-17 -14q-70 83 -130.5 187.5t-104 221.5t-68.5 241.5t-25 250.5z" />
<glyph unicode=")" horiz-adv-x="537" d="M65 -250q128 191 203 423.5t75 477.5q0 228 -73 456.5t-203 425.5l20 12q76 -89 135.5 -197.5t102 -226.5t64 -241.5t21.5 -241.5q0 -124 -25 -249.5t-68.5 -242.5t-103 -221.5t-128.5 -187.5z" />
<glyph unicode="*" horiz-adv-x="725" d="M67 1274l22 66l263 -109l-14 275h62l-16 -275l267 109l22 -66l-269 -83l178 -214l-54 -43l-159 240l-152 -240l-54 43l171 214z" />
<glyph unicode="+" d="M65 567v52h408v419h51v-419h408v-52h-408v-426h-51v426h-408z" />
<glyph unicode="," horiz-adv-x="379" d="M126 50q0 31 20.5 45.5t46.5 14.5q31 0 53.5 -22.5t22.5 -72.5t-32 -103t-85 -84l-17 25q37 28 55.5 64.5t18.5 74.5q-35 -5 -59 9t-24 49z" />
<glyph unicode="-" horiz-adv-x="779" d="M118 549v56h544v-56h-544z" />
<glyph unicode="." horiz-adv-x="375" d="M122 56q0 25 18.5 43.5t48.5 18.5q24 0 46 -18.5t22 -43.5q0 -31 -19 -49t-47 -18q-31 0 -50 18t-19 49z" />
<glyph unicode="/" horiz-adv-x="601" d="M8 -37l524 1587h58l-527 -1587h-55z" />
<glyph unicode="0" d="M76 375v750q0 80 32.5 150.5t89 122.5t133.5 82t168 30q96 0 174.5 -30t133.5 -82t85 -122.5t30 -150.5v-756q0 -81 -30 -150.5t-86.5 -121t-134.5 -81t-172 -29.5q-95 0 -173.5 30.5t-133.5 83.5t-85.5 124t-30.5 150zM132 389q0 -95 36.5 -162.5t90.5 -110t118 -61 t122 -18.5q59 0 124 18.5t120.5 61t91 109.5t35.5 163v716q0 97 -35.5 165t-91 109.5t-120.5 60.5t-124 19q-58 0 -122 -19t-118 -60.5t-90.5 -109t-36.5 -165.5v-716z" />
<glyph unicode="1" d="M215 1266l309 230h58v-1496h-56v1427l-279 -209z" />
<glyph unicode="2" d="M78 0v102q0 106 40.5 196.5t106 167.5t150.5 140t174 119q143 89 229 189.5t86 222.5q0 85 -31.5 146t-84 99.5t-119.5 56t-140 17.5q-116 0 -205 -36.5t-152 -83.5l-37 45q61 50 164.5 88.5t220.5 38.5q85 0 165 -19.5t142 -61.5t98.5 -112.5t36.5 -170.5 q0 -133 -87.5 -247t-231.5 -203q-72 -43 -154 -100.5t-150.5 -130t-114 -160.5t-45.5 -193v-60h779v-50h-840z" />
<glyph unicode="3" d="M33 124l34 41q58 -49 156 -89.5t207 -40.5q79 0 151 26t127.5 73.5t89 115t33.5 150.5q0 84 -27 149.5t-70.5 109t-96.5 66t-105 22.5h-163v52h161q37 0 86 19.5t93.5 60.5t74.5 104t30 152q0 87 -32.5 148t-81.5 99.5t-109.5 56t-114.5 17.5q-102 0 -188.5 -31 t-150.5 -85l-37 41q49 35 92.5 58.5t87 39t91.5 21.5t107 6q74 0 144 -22.5t125.5 -68t89 -115t33.5 -163.5q0 -56 -14.5 -112.5t-44.5 -105.5t-75.5 -86.5t-105.5 -57.5q70 -21 118.5 -60.5t79 -88t43.5 -106.5t13 -114q0 -95 -37 -173.5t-100 -132.5t-144 -83.5 t-173 -29.5q-138 0 -236.5 41.5t-160.5 95.5z" />
<glyph unicode="4" d="M54 252v59l524 1185h56l-522 -1190h632v479h57v-479h135v-54h-135v-252h-57v252h-690z" />
<glyph unicode="5" d="M100 126l35 39q66 -56 151 -94t183 -38q51 0 117.5 15t124 53t98 104t40.5 168v226q0 156 -69.5 235.5t-199.5 79.5q-46 0 -100.5 -15t-109.5 -38t-107 -51.5t-96 -53.5l-65 25v715h764v-54h-707v-628q120 72 234.5 113t184.5 41q159 0 241 -94.5t82 -258.5v-257 q0 -78 -31.5 -146.5t-88 -118.5t-135.5 -78t-177 -28q-70 0 -124.5 12t-99 31.5t-80 44.5t-65.5 51z" />
<glyph unicode="6" d="M89 363v766q0 83 32.5 153.5t90 121t133.5 78.5t163 28q134 0 221 -41.5t137 -92.5l-43 -44q-57 57 -130.5 90.5t-184.5 33.5q-56 0 -120.5 -18.5t-117.5 -60t-89 -111.5t-36 -172v-373q148 91 259.5 134.5t183.5 43.5q156 0 240 -94.5t84 -259.5v-172q0 -83 -31.5 -152 t-88 -121t-132.5 -81.5t-165 -29.5q-87 0 -160.5 28.5t-128 77t-86 117t-31.5 151.5zM145 389q0 -95 34 -161.5t85 -109t113 -62t118 -19.5t120 19.5t117 62t89.5 108.5t36.5 162v141q0 156 -74 234.5t-191 78.5q-50 0 -106.5 -16.5t-114 -42.5t-115.5 -58t-112 -64v-273z " />
<glyph unicode="7" d="M85 1203v293h822v-59l-577 -1437h-61l584 1444h-712v-241h-56z" />
<glyph unicode="8" d="M58 391q0 48 15.5 103t50.5 107t90 96.5t136 70.5q-65 22 -113 60t-80.5 83.5t-49 97.5t-16.5 103q0 95 34 169t89 123.5t129 75.5t156 26q83 0 157.5 -25t132.5 -73.5t91.5 -121t33.5 -163.5q0 -52 -16.5 -105.5t-50 -101.5t-84.5 -87t-123 -61q85 -24 141.5 -66t90 -93 t48 -106.5t14.5 -100.5q0 -100 -36 -177.5t-97 -130.5t-141 -80t-171 -27q-87 0 -165.5 26t-137 76t-93.5 125.5t-35 176.5zM112 389q0 -78 26.5 -143.5t76.5 -112t120.5 -72.5t159.5 -26q83 0 153.5 25t121 71.5t80 113t29.5 148.5q0 79 -28 142.5t-80 111t-122.5 74 t-155.5 26.5q-76 0 -144.5 -26.5t-120.5 -74t-84 -114t-32 -143.5zM145 1118q0 -74 28 -134t76.5 -103t111 -67t132.5 -24t135.5 24t117 66t83 103t31.5 137q0 85 -31.5 148.5t-83 105t-115.5 62t-129 20.5q-64 0 -128.5 -20.5t-114 -63t-81.5 -105t-32 -149.5z" />
<glyph unicode="9" d="M91 955v172q0 80 31.5 150.5t88 122.5t132.5 81t165 29q87 0 160.5 -28t128 -76.5t86 -118t31.5 -150.5v-766q0 -83 -33.5 -153.5t-90 -121t-132.5 -79t-163 -28.5q-135 0 -221.5 42.5t-136.5 92.5l43 43q56 -56 130 -90t185 -34q56 0 120 19t117 61t89.5 111.5 t36.5 171.5v373q-148 -91 -259.5 -134.5t-184.5 -43.5q-155 0 -239 94.5t-84 259.5zM145 970q0 -156 74 -234t191 -78q50 0 106.5 16t114 42t115 58t112.5 64v274q0 93 -34 160.5t-85 108t-113 60.5t-118 20t-120.5 -20t-118.5 -60.5t-89 -108t-35 -160.5v-142z" />
<glyph unicode=":" horiz-adv-x="377" d="M120 56q0 25 18 43.5t49 18.5q24 0 45.5 -18.5t21.5 -43.5q0 -31 -18.5 -49t-46.5 -18q-31 0 -50 18t-19 49zM120 775q0 28 18 45.5t49 17.5q24 0 45.5 -17.5t21.5 -45.5q0 -29 -18.5 -48t-46.5 -19q-31 0 -50 19t-19 48z" />
<glyph unicode=";" horiz-adv-x="377" d="M118 50q0 31 20.5 45.5t45.5 14.5q31 0 54 -22.5t23 -72.5t-33 -103t-85 -84l-17 25q37 28 55 64.5t18 74.5q-35 -5 -58 9t-23 49zM120 775q0 28 18 45.5t49 17.5q24 0 45.5 -17.5t21.5 -45.5q0 -29 -19.5 -48t-45.5 -19q-31 0 -50 19t-19 48z" />
<glyph unicode="&#x3c;" d="M65 567v52l861 371v-56l-800 -344l806 -338v-61z" />
<glyph unicode="=" d="M65 352v52h867v-52h-867zM65 719v49h867v-49h-867z" />
<glyph unicode="&#x3e;" d="M65 191v61l805 338l-800 344v56l862 -371v-52z" />
<glyph unicode="?" horiz-adv-x="909" d="M74 1431q85 46 165 65.5t173 19.5q187 0 282.5 -95t95.5 -240q0 -89 -49 -177t-113 -163q-77 -87 -124.5 -176t-47.5 -192v-160h-42v165q0 116 48 199t118 166q28 35 57.5 71.5t53 79t40 88t16.5 95.5q0 134 -88 218t-257 84q-83 0 -162 -25t-145 -62zM377 56 q0 21 17.5 37.5t44.5 16.5q24 0 42 -16t18 -38q0 -26 -17.5 -43t-40.5 -17q-29 0 -46.5 17t-17.5 43z" />
<glyph unicode="@" horiz-adv-x="1823" d="M112 708q0 174 67.5 319t183 251.5t270.5 165t331 58.5t313.5 -55t234.5 -153t147 -231.5t50 -289.5q0 -124 -28 -209.5t-74 -139t-103.5 -77.5t-115.5 -24q-73 0 -131.5 29.5t-79.5 105.5q-124 -79 -211 -100.5t-135 -21.5q-115 0 -187.5 55.5t-72.5 172.5q0 65 25 111 t62.5 74t84.5 41t92 13h327v85q0 77 -18.5 124t-51.5 74.5t-80.5 37t-106.5 9.5q-41 0 -105 -16.5t-142 -66.5l-35 46q72 46 148 66.5t136 20.5q168 0 236.5 -70.5t68.5 -203.5v-377q0 -31 9.5 -60t30 -53t55.5 -38t85 -14q54 0 101.5 26t83.5 77.5t58 127t22 175.5 q0 149 -49.5 274t-138 215.5t-217.5 141t-288 50.5q-164 0 -310 -55t-255 -155t-172.5 -236t-63.5 -298q0 -163 56.5 -301t157.5 -238.5t236.5 -157t295.5 -56.5q73 0 135.5 11t140.5 43l20 -44q-78 -35 -159.5 -46.5t-136.5 -11.5q-173 0 -319.5 60t-253 167t-165.5 252.5 t-59 319.5zM625 567q0 -48 17.5 -83t47 -57.5t66.5 -33.5t77 -11q67 0 156.5 37t172.5 93v244h-290q-39 0 -82 -7t-80 -26t-61 -57t-24 -99z" />
<glyph unicode="A" horiz-adv-x="1202" d="M52 0l515 1496h75l520 -1496h-62l-132 373h-727l-125 -373h-64zM261 425h690l-348 1017z" />
<glyph unicode="B" horiz-adv-x="1224" d="M120 0v1496l574 -2q106 0 182.5 -29.5t126.5 -79t73.5 -116t23.5 -142.5q0 -46 -11.5 -95.5t-40.5 -95.5t-78.5 -85t-124.5 -61q83 -19 137 -65t86 -102t45.5 -117t13.5 -113q0 -82 -27 -152.5t-79.5 -125.5t-127.5 -85t-170 -30h-603zM176 50h530q72 0 136.5 20.5 t115.5 63t80.5 107.5t29.5 152q0 85 -28.5 153.5t-77 117t-113 74.5t-135.5 26h-538v-714zM176 818h530q60 0 119 18.5t106.5 57t77 95.5t29.5 138q0 87 -30.5 146t-80.5 96.5t-115 55t-135 17.5h-501v-624z" />
<glyph unicode="C" horiz-adv-x="1063" d="M108 493v520q0 106 35 197t101.5 158t163 104.5t217.5 37.5q109 0 198 -22.5t171 -76.5l-35 -48q-145 96 -334 96q-87 0 -169.5 -26t-147.5 -81.5t-104 -142t-39 -206.5v-504q0 -120 39 -207t103 -145t145.5 -86t164.5 -28q100 0 185.5 29t161.5 79l35 -46 q-57 -37 -150 -73.5t-224 -36.5q-126 0 -222.5 39t-161.5 107t-99 160.5t-34 201.5z" />
<glyph unicode="D" horiz-adv-x="1234" d="M120 0v1496h549q112 0 200 -37.5t148 -102t90 -154.5t30 -197v-523q0 -106 -32 -194.5t-94 -152t-151 -99.5t-200 -36h-540zM176 48h464q79 0 158 23.5t141 76.5t101 139t39 210v497q0 122 -36 207.5t-93 139t-129 77.5t-142 24h-503v-1394z" />
<glyph unicode="E" horiz-adv-x="1127" d="M120 0v1496h944v-54h-888v-652h764v-52h-764v-688h888v-50h-944z" />
<glyph unicode="F" horiz-adv-x="1098" d="M120 0v1496h946v-54h-888v-654h764v-52h-764v-736h-58z" />
<glyph unicode="G" horiz-adv-x="1158" d="M98 493v520q0 106 36 197t104 158t165.5 104.5t219.5 37.5q108 0 201.5 -22.5t176.5 -76.5l-35 -48q-77 50 -163 73t-180 23q-87 0 -171.5 -26t-151 -81.5t-106.5 -142t-40 -206.5v-504q0 -120 39 -207t104.5 -145t148 -86t169.5 -28q28 0 71 4t95 19.5t110 42.5t114 73 v493h-267v54h326v-574q-190 -160 -442 -160h-3q-126 0 -222.5 39t-163 107t-101 160.5t-34.5 201.5z" />
<glyph unicode="H" horiz-adv-x="1272" d="M120 0v1496h56v-708h918v708h58v-1496h-58v738h-918v-738h-56z" />
<glyph unicode="I" horiz-adv-x="429" d="M187 0v1496h56v-1496h-56z" />
<glyph unicode="J" horiz-adv-x="1075" d="M67 70l31 48q64 -37 133 -61t151 -24q95 0 177.5 28t143.5 86t95.5 145t34.5 207v999h57v-1005q0 -108 -30.5 -201t-93 -161t-160.5 -107t-233 -39q-102 0 -175.5 26t-130.5 59z" />
<glyph unicode="K" horiz-adv-x="1133" d="M120 0v1496h56v-999l801 999h69l-456 -570l533 -926h-66l-506 879l-375 -471v-408h-56z" />
<glyph unicode="L" horiz-adv-x="1052" d="M118 0v1496h56v-1446h876v-50h-932z" />
<glyph unicode="M" horiz-adv-x="1497" d="M120 0v1496h60l578 -1181q135 286 282 590t284 591h54v-1496h-56v1370q-76 -166 -146.5 -313.5t-136.5 -284t-129 -266t-125 -259.5h-56l-553 1127v-1374h-56z" />
<glyph unicode="N" horiz-adv-x="1295" d="M120 0v1496h62l938 -1415v1415h57v-1496h-70l-931 1411v-1411h-56z" />
<glyph unicode="O" horiz-adv-x="1245" d="M108 482v539q0 106 35 196t101.5 155t161.5 101.5t217 36.5q120 0 214.5 -36.5t161.5 -102.5t102.5 -156t35.5 -194v-548q0 -108 -34.5 -198.5t-101.5 -154.5t-162.5 -99.5t-215.5 -35.5q-122 0 -216 36.5t-161.5 103t-102.5 157.5t-35 200zM165 487q0 -120 41 -205 t107 -140t148 -81t162 -26q94 0 177.5 27t146 83t98.5 141t36 201v516q0 117 -38 203t-102 142t-146.5 83.5t-171.5 27.5q-95 0 -179 -27.5t-146 -83.5t-97.5 -142t-35.5 -203v-516z" />
<glyph unicode="P" horiz-adv-x="1152" d="M120 0v1496h568q104 0 181.5 -37.5t128 -96.5t75.5 -134.5t25 -150.5q0 -76 -27 -150t-79 -132.5t-128 -94t-176 -35.5h-512v-665h-56zM176 717h506q72 0 135.5 23.5t114 70.5t79.5 114t29 152t-29 152t-79.5 114t-114 73t-135.5 26h-506v-725z" />
<glyph unicode="Q" horiz-adv-x="1245" d="M108 482v539q0 106 35 196t101.5 155t161.5 101.5t217 36.5q120 0 214.5 -36.5t161.5 -102.5t102.5 -156t35.5 -194v-548q0 -104 -32 -192t-94 -151t-150 -100.5t-201 -42.5v-93q0 -106 54 -156.5t156 -50.5q37 0 77 7v-52q-44 -7 -81 -7q-76 0 -126 21t-80 56.5 t-43.5 87t-13.5 111.5v74q-118 2 -208.5 40t-154.5 104t-98 155t-34 198zM165 487q0 -120 41 -205t107 -140t148 -81t162 -26q94 0 177.5 27t146 83t98.5 141t36 201v516q0 117 -38 203t-102 142t-146.5 83.5t-171.5 27.5q-95 0 -179 -27.5t-146 -83.5t-97.5 -142 t-35.5 -203v-516z" />
<glyph unicode="R" horiz-adv-x="1185" d="M122 0v1496h568q104 0 183.5 -37.5t131.5 -96.5t78.5 -134.5t26.5 -150.5q0 -63 -19.5 -127t-59 -119.5t-99.5 -97t-139 -58.5q72 -163 150 -337.5t147 -337.5h-63l-293 665h-556v-665h-56zM178 717h512q72 0 136 23.5t114 70.5t79 114t29 152t-29 152t-79 114t-114 73 t-136 26h-512v-725z" />
<glyph unicode="S" horiz-adv-x="1141" d="M70 118l30 49q101 -56 220 -92t247 -36q91 0 171 22t141 65.5t96.5 107.5t35.5 148q0 93 -36.5 154t-96.5 100t-138 61t-160 37q-87 14 -174 39.5t-156.5 70t-113 113t-43.5 170.5q0 87 33 157.5t93.5 120t146.5 77.5t194 28q112 0 219 -20.5t200 -65.5l-26 -52 q-91 45 -194.5 66t-211.5 21q-74 0 -144.5 -19t-125.5 -59.5t-89 -103.5t-34 -154q0 -85 38 -143t100 -94.5t141 -59.5t162 -38q106 -20 195 -49t151 -75.5t97 -115t35 -166.5q0 -92 -36 -164.5t-103.5 -124.5t-161 -79t-208.5 -27q-143 0 -264.5 34.5t-229.5 96.5z" />
<glyph unicode="T" horiz-adv-x="1104" d="M39 1442v54h1025v-54h-482v-1442h-56v1442h-487z" />
<glyph unicode="U" horiz-adv-x="1258" d="M112 480v1016h60v-1007q0 -120 39 -205t102.5 -140t146.5 -81t170 -26q91 0 173.5 26t145 81t101 140t38.5 205v1007h58v-1020q0 -108 -36.5 -198.5t-104 -156t-163 -101t-212.5 -35.5q-118 0 -213.5 36.5t-162.5 102t-104.5 156.5t-37.5 200z" />
<glyph unicode="V" horiz-adv-x="1156" d="M46 1498h60l470 -1435l472 1435h62l-497 -1496h-77z" />
<glyph unicode="W" horiz-adv-x="1792" d="M24 1496h61l379 -1442l389 1442h61l389 -1438l379 1438h59l-401 -1496h-79l-377 1402l-378 -1402h-79z" />
<glyph unicode="X" horiz-adv-x="1034" d="M26 0l461 768l-429 728h68l388 -671l389 671h67l-427 -728l462 -768h-67l-422 710l-423 -710h-67z" />
<glyph unicode="Y" horiz-adv-x="1013" d="M29 1496h62l417 -868l412 868h62l-446 -932v-564h-56v560z" />
<glyph unicode="Z" horiz-adv-x="1113" d="M91 0v50l868 1392h-833v54h901v-54l-864 -1392h862v-50h-934z" />
<glyph unicode="[" horiz-adv-x="477" d="M170 -241v1751h277v-51h-219v-1650h219v-50h-277z" />
<glyph unicode="\" horiz-adv-x="605" d="M-11 1574h46l547 -1665h-46z" />
<glyph unicode="]" horiz-adv-x="477" d="M85 -191h219v1650h-219v51h275v-1751h-275v50z" />
<glyph unicode="^" horiz-adv-x="976" d="M122 727l336 775h52l333 -771h-58l-303 711l-300 -715h-60z" />
<glyph unicode="_" horiz-adv-x="1063" d="M0 -152h1064v-57h-1064v57z" />
<glyph unicode="`" horiz-adv-x="1034" d="M460 1526l70 35l178 -308l-33 -18z" />
<glyph unicode="a" horiz-adv-x="978" d="M65 278q0 82 31.5 138.5t80.5 92.5t111 52.5t120 16.5h419v118q0 181 -84.5 254t-243.5 73q-89 0 -168 -23t-161 -76l-33 46q82 50 168 77.5t196 27.5q113 0 186 -27t116.5 -74.5t60.5 -112t17 -140.5v-721h-38l-16 147q-85 -56 -151 -87t-118 -48.5t-92.5 -22 t-70.5 -4.5q-145 0 -237.5 72.5t-92.5 220.5zM122 278q0 -65 22.5 -110.5t59.5 -75t87 -43.5t107 -14q49 0 104.5 15t112 38.5t110.5 54.5t102 62v323h-380q-47 0 -105 -8t-106.5 -34t-81 -74.5t-32.5 -133.5z" />
<glyph unicode="b" horiz-adv-x="1017" d="M124 0v1552h52v-655q97 60 166.5 96t120.5 54.5t87 23t69 4.5q152 0 234.5 -85t82.5 -269v-385q0 -182 -91 -266.5t-235 -84.5q-31 0 -68.5 2t-87.5 16t-118.5 43.5t-159.5 83.5l-15 -130h-37zM176 195q124 -78 238 -119t191 -41q278 0 279 330v329q0 176 -66 252.5 t-205 76.5q-40 0 -92 -15.5t-109.5 -40.5t-118.5 -60t-117 -74v-638z" />
<glyph unicode="c" horiz-adv-x="868" d="M108 377v322q0 84 28.5 153.5t81.5 120t128 77.5t168 27q79 0 161.5 -20.5t142.5 -66.5l-35 -48q-56 44 -129.5 64.5t-129.5 20.5q-70 0 -134.5 -18.5t-114 -61t-80 -109.5t-30.5 -163v-284q0 -93 30.5 -159.5t80 -108.5t114 -63t128.5 -21q29 0 64 4.5t71.5 14 t72.5 23.5t62 31l28 -45q-62 -39 -142.5 -58.5t-159.5 -19.5q-95 0 -171 29.5t-128 80t-79.5 122.5t-27.5 156z" />
<glyph unicode="d" horiz-adv-x="1017" d="M98 336v374q0 178 97.5 271.5t275.5 93.5q33 0 71 -4.5t84.5 -16.5t102.5 -35t129 -60v593h51v-1548h-37l-14 152q-85 -54 -151.5 -87.5t-119.5 -52t-93 -25t-71 -6.5q-154 0 -239.5 87t-85.5 264zM149 365q0 -176 70.5 -253t201.5 -77q80 0 196.5 48.5t240.5 133.5v680 q-129 70 -222 99t-163 29q-170 0 -247 -86t-77 -255v-319z" />
<glyph unicode="e" horiz-adv-x="991" d="M108 373v311q0 87 31 159.5t85 124t128.5 79.5t163.5 28q85 0 156.5 -26t124 -75.5t80.5 -119t28 -152.5v-196h-742v-115q0 -102 30.5 -170.5t80 -111t114 -60.5t130.5 -18q106 0 178 33.5t122 82.5l35 -39q-60 -58 -144 -90.5t-195 -32.5q-91 0 -164.5 25t-128 75 t-84 121.5t-29.5 166.5zM163 555h688v116q0 97 -30.5 164.5t-78.5 110t-107.5 62t-118.5 19.5q-62 0 -126.5 -20.5t-114 -64t-81 -112t-31.5 -165.5v-110z" />
<glyph unicode="f" horiz-adv-x="590" d="M72 1011v53h129v258q0 122 67.5 183t163.5 61h137v-56h-115q-61 0 -100 -15.5t-61 -45.5t-29 -67.5t-7 -83.5v-234h312v-53h-312v-1011h-56v1011h-129z" />
<glyph unicode="g" horiz-adv-x="1017" d="M98 338v381q0 184 91 269t234 85q31 0 71 -2.5t92 -16.5t119.5 -43t152.5 -85l14 135h37v-1156q0 -183 -110.5 -275t-305.5 -92q-83 0 -173 20.5t-150 68.5l37 48q52 -40 133 -63.5t157 -23.5t141.5 17.5t114 57t77 107t28.5 165.5v232q-85 -56 -152.5 -91t-120.5 -54.5 t-94.5 -27t-76.5 -7.5h-13q-142 0 -221 83q-82 86 -82 268zM149 367q0 -176 65.5 -252t202.5 -76q87 0 204 53t237 136v632q-127 84 -233.5 123.5t-197.5 39.5q-130 0 -204 -76.5t-74 -254.5v-325z" />
<glyph unicode="h" horiz-adv-x="1019" d="M108 0v1554h55v-655q159 100 266 138t176 38q161 0 239 -85t78 -269v-721h-54v694q0 176 -65 252.5t-204 76.5q-44 0 -97 -15.5t-110.5 -41.5t-116 -59t-112.5 -66v-841h-55z" />
<glyph unicode="i" horiz-adv-x="408" d="M154 1424q0 21 15 37t36 16t36.5 -16t15.5 -37q0 -22 -15.5 -37t-36.5 -15q-19 0 -35 15t-16 37zM176 0v1061h54v-1061h-54z" />
<glyph unicode="j" horiz-adv-x="450" d="M-11 -410h59q87 0 124 43.5t37 153.5v1274h54v-1287q0 -120 -48 -176t-157 -56h-69v48zM187 1424q0 21 15 37t34 16q22 0 37 -16t15 -37q0 -22 -14.5 -37t-37.5 -15q-19 0 -34 15t-15 37z" />
<glyph unicode="k" horiz-adv-x="939" d="M108 0v1554h55v-916h289q62 0 129.5 30.5t110.5 124.5l126 271h56l-122 -271q-29 -58 -66 -105.5t-108 -72.5q41 -2 70 -20.5t50 -47.5t36 -62t26 -66l147 -419h-56l-139 384q-24 64 -46 105t-49 62.5t-66 28t-95 6.5h-293v-586h-55z" />
<glyph unicode="l" horiz-adv-x="514" d="M209 217v1337h52v-1328q0 -48 4 -82t18.5 -55.5t42.5 -32t78 -10.5h33v-46q-13 -2 -26 -2h-24q-58 0 -94 15.5t-55 42.5t-24 68t-5 93z" />
<glyph unicode="m" horiz-adv-x="1584" d="M100 0v1061h41l15 -160q64 52 119 86t100.5 53t87 27t80.5 8q67 0 113 -17.5t75 -44.5t46.5 -61t28.5 -68q74 65 133.5 103t107 57.5t84.5 25t65 5.5q153 0 224 -93.5t71 -260.5v-721h-54v694q0 74 -12 135t-40 103.5t-74.5 66.5t-119.5 24q-86 0 -178.5 -50.5 t-198.5 -141.5q4 -33 6.5 -60t2.5 -50v-721h-52v694q0 72 -9.5 133t-37.5 105.5t-74.5 68.5t-119.5 24q-63 0 -153.5 -41.5t-220.5 -145.5v-838h-56z" />
<glyph unicode="n" horiz-adv-x="1023" d="M108 0v1061h39l16 -162q79 48 139.5 81t111 54t93 31t83.5 10q162 0 247 -85t85 -269v-721h-54v694q0 176 -72.5 252.5t-211.5 76.5q-85 0 -194.5 -52.5t-226.5 -135.5v-835h-55z" />
<glyph unicode="o" horiz-adv-x="1011" d="M98 369v335q0 85 32.5 152.5t87.5 117t129 75.5t159 26q84 0 159 -26t130.5 -75.5t87 -117.5t31.5 -152v-331q0 -178 -106.5 -283t-303.5 -105q-94 0 -168.5 28t-128 79t-81.5 121.5t-28 155.5zM152 387q0 -95 29.5 -163t79.5 -110t114 -61.5t133 -19.5q74 0 139 20.5 t113 64t75 109.5t27 160v286q0 95 -31.5 162.5t-83 110t-114 61t-125.5 18.5q-65 0 -129 -18.5t-114 -61t-81.5 -110t-31.5 -162.5v-286z" />
<glyph unicode="p" horiz-adv-x="1017" d="M108 -447v1502h37l16 -152q85 54 150.5 88t119 52t93.5 25t71 7q153 0 239 -87t86 -265v-373q0 -178 -97.5 -271.5t-275.5 -93.5q-33 0 -70.5 4.5t-84 16t-103.5 34.5t-128 60v-547h-53zM161 163q128 -70 221.5 -99t162.5 -29q169 0 246 86t77 254v319q0 176 -70.5 253.5 t-200.5 77.5q-81 0 -197 -49.5t-239 -132.5v-680z" />
<glyph unicode="q" horiz-adv-x="1017" d="M98 338v385q0 182 91 267t234 85q31 0 70 -4.5t91 -18.5t119.5 -43.5t154.5 -82.5l14 133h37v-1506h-51v610q-87 -60 -155.5 -95t-121.5 -53.5t-93.5 -24t-73.5 -5.5q-151 0 -233.5 84.5t-82.5 268.5zM149 365q0 -330 272 -330q78 0 194 47.5t243 143.5v638 q-124 83 -238 122t-193 39q-278 0 -278 -331v-329z" />
<glyph unicode="r" horiz-adv-x="605" d="M149 0v1064h44l16 -161q35 31 80 59t97.5 52t107.5 40.5t107 20.5v-72q-74 -7 -134.5 -26.5t-109.5 -42t-86 -47.5t-64 -42v-845h-58z" />
<glyph unicode="s" horiz-adv-x="934" d="M93 89l31 43q78 -51 166 -77t197 -26q51 0 107.5 11.5t103 39.5t77.5 76.5t31 121.5q0 66 -31 109t-77.5 69t-105 39t-112.5 21q-62 9 -129 24t-123 45t-92 77.5t-36 122.5q0 61 22.5 114.5t68 92.5t112 62t153.5 23q106 0 189.5 -18.5t151.5 -62.5l-29 -41 q-66 37 -140.5 56.5t-163.5 19.5q-141 0 -225.5 -65t-84.5 -183q0 -54 26.5 -89.5t72 -61t110 -40t143.5 -28.5q62 -11 125 -25.5t114.5 -46.5t83 -84t31.5 -132q0 -61 -24 -114.5t-70.5 -92t-116 -61.5t-160.5 -23q-102 0 -203.5 20.5t-192.5 83.5z" />
<glyph unicode="t" horiz-adv-x="692" d="M67 1011v53h169l21 254h33v-254h327v-53h-327v-711q0 -139 46 -200t170 -61q24 0 59.5 2t74.5 11l11 -48q-44 -10 -86.5 -12.5t-67.5 -2.5q-149 0 -205 70.5t-56 224.5v727h-169z" />
<glyph unicode="u" horiz-adv-x="1023" d="M102 341v720h54v-694q0 -176 73 -252t212 -76q85 0 194 52t227 135v835h54v-1061h-39l-15 163q-79 -47 -140.5 -81t-111.5 -55t-92 -30.5t-83 -9.5q-162 0 -247.5 84.5t-85.5 269.5z" />
<glyph unicode="v" horiz-adv-x="907" d="M29 1064h58q95 -252 181 -496.5t179 -497.5l363 994h60l-390 -1064h-68q-99 265 -191.5 532t-191.5 532z" />
<glyph unicode="w" horiz-adv-x="1421" d="M8 1064h59l304 -999l308 905h63l308 -905l305 999h58l-325 -1064h-67l-311 890l-308 -890h-68z" />
<glyph unicode="x" horiz-adv-x="835" d="M29 0l350 543l-336 518h67l302 -473l307 473h66l-340 -518l356 -543h-70l-319 495l-314 -495h-69z" />
<glyph unicode="y" horiz-adv-x="887" d="M13 1059h54l365 -1016l378 1016h52l-549 -1489h-56l153 430l-43 54z" />
<glyph unicode="z" horiz-adv-x="878" d="M54 0v48l682 967h-647v46h704v-46l-677 -967h677v-48h-739z" />
<glyph unicode="{" horiz-adv-x="477" d="M78 623v28q52 15 81.5 53t44.5 87.5t19.5 104.5t4.5 105v293q0 98 40 157t119 59h77v-33h-66q-44 0 -70 -22t-39 -53.5t-16.5 -68.5t-3.5 -69v-303q0 -130 -40 -215.5t-97 -105.5v-2q67 -21 102 -101.5t35 -202.5v-330q0 -30 3.5 -67t16.5 -68.5t39 -53.5t70 -22h66v-36 h-77q-79 0 -120 59.5t-41 157.5v304q0 76 -5.5 134.5t-21 99.5t-44.5 68t-77 43z" />
<glyph unicode="|" horiz-adv-x="344" d="M159 -352v1906h40v-1906h-40z" />
<glyph unicode="}" horiz-adv-x="477" d="M78 -207h67q44 0 70 22t39 53.5t16 68.5t3 67v330q0 122 35 202.5t102 101.5v2q-56 19 -96.5 105t-40.5 216v303q0 32 -3 69t-16 68.5t-39 53.5t-70 22h-67v33h78q78 0 118.5 -59t40.5 -157v-293q0 -50 4 -105t19.5 -104.5t44.5 -87t81 -53.5v-28q-47 -15 -76.5 -42.5 t-44.5 -68.5t-20.5 -99.5t-5.5 -134.5v-304q0 -98 -41.5 -157.5t-119.5 -59.5h-78v36z" />
<glyph unicode="~" d="M43 553q40 50 98 84t122 34q60 0 121 -19.5t119.5 -43.5t118.5 -43.5t122 -19.5q61 0 95.5 26t72.5 78l39 -28q-33 -50 -80.5 -88t-126.5 -38q-62 0 -127.5 19.5t-127.5 43.5t-120 43.5t-108 19.5q-54 0 -97.5 -30.5t-82.5 -66.5z" />
<glyph unicode="&#xa2;" d="M143 377v322q0 163 102.5 266t278.5 112v249h40v-249q76 -2 154.5 -22.5t134.5 -64.5l-35 -48q-56 44 -126.5 63.5t-127.5 21.5v-986q56 2 131.5 19.5t127.5 51.5l28 -45q-58 -37 -134.5 -56t-152.5 -22v-232h-40v232q-183 9 -282 116.5t-99 271.5zM199 391 q0 -89 27.5 -153t73.5 -106.5t103 -64t121 -26.5v984q-65 -4 -124 -26t-103.5 -64t-71 -106.5t-26.5 -153.5v-284z" />
<glyph unicode="&#xa3;" d="M72 669v39h182q-6 50 -14 80t-16 57q-25 76 -55 157t-30 160q0 70 21.5 133.5t66 113.5t114 79.5t165.5 29.5q138 0 226 -48.5t145 -129.5l-42 -29q-115 159 -336 158q-45 0 -99 -12.5t-101 -47.5t-78.5 -94.5t-31.5 -152.5q0 -46 14 -99.5t33 -107.5q22 -56 37 -107 t31 -140h317v-39h-315q0 -170 -36 -325t-144 -294h798v-50h-848v50q91 120 139 268t44 351h-187z" />
<glyph unicode="&#xa5;" d="M63 1496h63l373 -868l369 868h62l-348 -804h352v-43h-370l-36 -85v-164h406v-44h-406v-356h-57v356h-380v44h380v160l-39 89h-343v43h325z" />
<glyph unicode="&#xa8;" horiz-adv-x="986" d="M267 1424q0 21 15.5 37t34.5 16q21 0 36.5 -16t15.5 -37q0 -22 -15.5 -37t-36.5 -15q-19 0 -34.5 15t-15.5 37zM603 1424q0 21 15.5 37t34.5 16q21 0 37 -16t16 -37q0 -22 -15.5 -37t-37.5 -15q-19 0 -34.5 15t-15.5 37z" />
<glyph unicode="&#xa9;" horiz-adv-x="1666" d="M108 740q0 163 57 304t155.5 243.5t232 160.5t290.5 58q156 0 290.5 -58t234 -160.5t156 -243.5t56.5 -304t-56.5 -302.5t-156 -242t-234 -161t-290.5 -58.5t-290 58.5t-232.5 161t-155.5 242.5t-57 302zM161 740q0 -150 53 -281t144 -229t216 -154.5t269 -56.5 q143 0 268.5 56.5t219 154.5t147 229t53.5 281q0 149 -53.5 280.5t-147 229.5t-219 154.5t-268.5 56.5t-268.5 -56.5t-216.5 -154.5t-144 -229t-53 -281zM522 613v251q0 70 21 129.5t63.5 104t104.5 69t144 24.5q73 0 133 -14.5t117 -51.5l-30 -44q-52 35 -106.5 49 t-113.5 14q-54 0 -105 -16t-91 -51t-64 -89t-24 -130v-241q0 -76 24 -131.5t62.5 -92.5t90 -54.5t103.5 -17.5q63 0 118.5 19.5t107.5 54.5l33 -41q-42 -26 -105 -51t-150 -25q-82 0 -145 26t-105.5 70.5t-62.5 105.5t-20 133z" />
<glyph unicode="&#xab;" horiz-adv-x="826" d="M154 460l246 358h58l-239 -358l239 -360h-63zM408 460l245 358h59l-239 -358l239 -360h-63z" />
<glyph unicode="&#xad;" horiz-adv-x="779" d="M118 549v56h544v-56h-544z" />
<glyph unicode="&#xae;" horiz-adv-x="1169" d="M156 1068q0 98 34 183t93.5 146.5t138.5 96.5t171 35q93 0 173.5 -35t139 -96.5t91 -146.5t32.5 -183q0 -97 -34 -182t-92 -147t-138.5 -97t-171.5 -35q-92 0 -171 35t-138.5 97t-93.5 146.5t-34 182.5zM195 1068q0 -89 31 -167t85 -134.5t125.5 -89.5t156.5 -33 q84 0 155.5 33t126.5 89.5t85 134.5t30 167q0 90 -30 166.5t-85 134.5t-126.5 90t-155.5 32q-85 0 -156.5 -32t-125.5 -90t-85 -134.5t-31 -166.5zM430 803v529h208q70 0 114.5 -35.5t44.5 -100.5q0 -56 -35 -96.5t-95 -49.5l130 -247h-45l-129 245h-154v-245h-39zM469 1083 h159q56 0 92 28.5t36 84.5q0 54 -38.5 78t-87.5 24h-161v-215z" />
<glyph unicode="&#xb4;" horiz-adv-x="1034" d="M460 1253l178 308l70 -35l-215 -291z" />
<glyph unicode="&#xb8;" horiz-adv-x="878" d="M365 -379l14 41q38 -11 74 -16.5t63 -5.5q13 0 35 4t44 16t37 33t15 53q0 56 -56.5 84.5t-130.5 28.5l-11 9l46 140h48l-37 -108q62 -6 101.5 -23.5t60 -40.5t28.5 -47.5t8 -47.5q0 -21 -10 -47t-33 -47.5t-58.5 -36t-86.5 -14.5q-17 0 -58 3t-93 22z" />
<glyph unicode="&#xbb;" horiz-adv-x="826" d="M156 100l239 360l-239 358h59l245 -358l-241 -360h-63zM410 100l239 360l-239 358h59l245 -358l-241 -360h-63z" />
<glyph unicode="&#x2c6;" horiz-adv-x="1034" d="M222 1239l265 240h62l257 -240l-27 -25l-265 199l-267 -201z" />
<glyph unicode="&#x2da;" horiz-adv-x="1009" d="M350 1396q0 78 55 131t131 53q79 0 134 -53t55 -131q0 -39 -15.5 -72.5t-40.5 -59t-59 -40.5t-74 -15q-39 0 -72.5 15t-59 40.5t-40 59t-14.5 72.5zM393 1396q0 -60 41.5 -102.5t101.5 -42.5q63 0 104.5 42.5t41.5 102.5t-41.5 102.5t-104.5 42.5q-60 0 -101.5 -42.5 t-41.5 -102.5z" />
<glyph unicode="&#x2dc;" horiz-adv-x="1034" d="M232 1357q81 112 185 112q32 0 66.5 -13.5t69.5 -30t68.5 -29.5t60.5 -13q35 0 59.5 20.5t55.5 63.5l41 -23q-37 -65 -77 -90.5t-84 -25.5q-30 0 -63.5 13.5t-68.5 30t-68.5 29t-64.5 12.5q-43 0 -75.5 -23t-63.5 -60z" />
<glyph unicode="&#x401;" horiz-adv-x="1127" d="M120 0v1496h944v-54h-888v-652h764v-52h-764v-688h888v-50h-944zM371 1676q0 21 15.5 36.5t34.5 15.5q21 0 36.5 -15.5t15.5 -36.5t-15 -36.5t-37 -15.5q-19 0 -34.5 15.5t-15.5 36.5zM708 1676q0 21 15 36.5t35 15.5q21 0 36.5 -15.5t15.5 -36.5t-15.5 -36.5 t-36.5 -15.5q-19 0 -34.5 15.5t-15.5 36.5z" />
<glyph unicode="&#x402;" horiz-adv-x="1447" d="M17 1442v54h1112v-54h-634v-591q78 52 147.5 84.5t129 51t107 23.5t82.5 5q174 0 279.5 -88.5t105.5 -273.5v-295q0 -108 -35 -198t-102 -154t-162.5 -100t-215.5 -36v52q93 0 177 27t147 82.5t99 140.5t36 199v252q0 176 -83.5 256t-251.5 80q-100 0 -221 -45.5 t-239 -128.5v-785h-56v1442h-422z" />
<glyph unicode="&#x403;" horiz-adv-x="1075" d="M128 0v1496h945v-54h-889v-1442h-56zM501 1600l280 219l52 -56l-307 -191z" />
<glyph unicode="&#x404;" horiz-adv-x="1046" d="M108 493v520q0 106 35 197t101.5 158t163 104.5t217.5 37.5q109 0 198 -22.5t171 -76.5l-35 -48q-145 96 -334 96q-87 0 -169.5 -26t-147.5 -81.5t-104 -142t-39 -206.5v-204h653v-52h-653v-248q0 -120 39 -206t103 -144t146.5 -86t167.5 -28q100 0 186 27t161 77l31 -44 q-57 -37 -150 -73.5t-224 -36.5q-126 0 -222.5 39t-161.5 107t-99 160.5t-34 201.5z" />
<glyph unicode="&#x405;" horiz-adv-x="1141" d="M70 118l30 49q101 -56 220 -92t247 -36q91 0 171 22t141 65.5t96.5 107.5t35.5 148q0 93 -36.5 154t-96.5 100t-138 61t-160 37q-87 14 -174 39.5t-156.5 70t-113 113t-43.5 170.5q0 87 33 157.5t93.5 120t146.5 77.5t194 28q112 0 219 -20.5t200 -65.5l-26 -52 q-91 45 -194.5 66t-211.5 21q-74 0 -144.5 -19t-125.5 -59.5t-89 -103.5t-34 -154q0 -85 38 -143t100 -94.5t141 -59.5t162 -38q106 -20 195 -49t151 -75.5t97 -115t35 -166.5q0 -92 -36 -164.5t-103.5 -124.5t-161 -79t-208.5 -27q-143 0 -264.5 34.5t-229.5 96.5z" />
<glyph unicode="&#x406;" horiz-adv-x="429" d="M187 0v1496h56v-1496h-56z" />
<glyph unicode="&#x407;" horiz-adv-x="429" d="M-4 1813q0 21 15 36.5t35 15.5q21 0 36.5 -15.5t15.5 -36.5q0 -22 -15.5 -37t-36.5 -15q-20 0 -35 15t-15 37zM187 0v1496h56v-1496h-56zM332 1813q0 21 15.5 36.5t34.5 15.5q21 0 37 -15.5t16 -36.5q0 -22 -15.5 -37t-37.5 -15q-19 0 -34.5 15t-15.5 37z" />
<glyph unicode="&#x408;" horiz-adv-x="1075" d="M67 70l31 48q64 -37 133 -61t151 -24q95 0 177.5 28t143.5 86t95.5 145t34.5 207v999h57v-1005q0 -108 -30.5 -201t-93 -161t-160.5 -107t-233 -39q-102 0 -175.5 26t-130.5 59z" />
<glyph unicode="&#x409;" horiz-adv-x="1951" d="M48 -2q58 52 105.5 117t82.5 161.5t53.5 234.5t18.5 334v651h658v-715h499q112 0 194 -33.5t134 -89t77 -126t25 -141.5q0 -108 -36 -183.5t-97.5 -121t-145 -66t-181.5 -20.5h-526v1444h-544v-669q0 -168 -20 -295.5t-55.5 -226.5t-88 -173t-116.5 -128zM966 54h486 q81 0 150.5 17.5t121.5 58t81.5 104.5t29.5 157q0 70 -25.5 131.5t-73 107t-119.5 72.5t-163 27h-488v-675z" />
<glyph unicode="&#x40a;" horiz-adv-x="1912" d="M120 0v1496h56v-717h703v717h57v-717h499q113 0 194.5 -33.5t133.5 -88t77 -125t25 -141.5q0 -108 -35.5 -183.5t-97.5 -121t-146 -66t-182 -20.5h-525v729h-703v-729h-56zM936 54h485q81 0 150.5 17.5t122 58t81.5 104.5t29 157q0 70 -25 131.5t-72.5 107t-119 72.5 t-163.5 27h-488v-675z" />
<glyph unicode="&#x40b;" horiz-adv-x="1447" d="M17 1442v54h1112v-54h-634v-591q81 54 152.5 86.5t132.5 50t108.5 22.5t81.5 5q174 0 275 -88.5t101 -273.5v-653h-56v623q0 176 -79.5 256t-246.5 80q-100 0 -225.5 -45.5t-243.5 -128.5v-785h-56v1442h-422z" />
<glyph unicode="&#x40c;" horiz-adv-x="1119" d="M120 0v1496h56v-684h365q87 0 165.5 51t128.5 187l157 446h52l-141 -413q-37 -108 -86 -186.5t-138 -101.5q55 -11 94 -38.5t66 -65.5t45.5 -87t35.5 -103l157 -501h-58l-159 510q-25 74 -54 123t-64.5 77t-78 39t-90.5 11h-397v-760h-56zM460 1600l280 219l53 -56 l-309 -191z" />
<glyph unicode="&#x40e;" horiz-adv-x="1023" d="M33 1496h58l413 -1053h4l412 1053h62l-478 -1208q-35 -87 -68.5 -145t-73 -93t-83 -50t-97.5 -15h-41v56h35q37 0 70.5 7.5t64 29.5t57.5 60t53 96l59 139zM247 1736h49q17 -85 78.5 -126.5t131.5 -41.5q66 0 125 33.5t86 134.5h47q-6 -39 -24.5 -78.5t-51.5 -70.5 t-78.5 -50t-103.5 -19q-59 0 -104.5 19t-78.5 50t-51 71t-25 78z" />
<glyph unicode="&#x40f;" horiz-adv-x="1251" d="M110 0v1496h57v-1446h918v1446h59v-1496h-508v-338h-60v338h-466z" />
<glyph unicode="&#x410;" horiz-adv-x="1202" d="M52 0l515 1496h75l520 -1496h-62l-132 373h-727l-125 -373h-64zM261 425h690l-348 1017z" />
<glyph unicode="&#x411;" horiz-adv-x="1152" d="M120 0v1496h841v-57h-785v-658h499q113 0 194.5 -33.5t133.5 -89t77 -126t25 -141.5q0 -108 -35.5 -183.5t-98 -121t-146 -66t-181.5 -20.5h-524zM176 54h486q81 0 150 17.5t121.5 58t81.5 104.5t29 157q0 70 -25 131.5t-72.5 107t-119 72.5t-162.5 27h-489v-675z" />
<glyph unicode="&#x412;" horiz-adv-x="1224" d="M120 0v1496l574 -2q106 0 182.5 -29.5t126.5 -79t73.5 -116t23.5 -142.5q0 -46 -11.5 -95.5t-40.5 -95.5t-78.5 -85t-124.5 -61q83 -19 137 -65t86 -102t45.5 -117t13.5 -113q0 -82 -27 -152.5t-79.5 -125.5t-127.5 -85t-170 -30h-603zM176 50h530q72 0 136.5 20.5 t115.5 63t80.5 107.5t29.5 152q0 85 -28.5 153.5t-77 117t-113 74.5t-135.5 26h-538v-714zM176 818h530q60 0 119 18.5t106.5 57t77 95.5t29.5 138q0 87 -30.5 146t-80.5 96.5t-115 55t-135 17.5h-501v-624z" />
<glyph unicode="&#x413;" horiz-adv-x="1082" d="M128 0v1496h945v-54h-889v-1442h-56z" />
<glyph unicode="&#x414;" horiz-adv-x="1421" d="M21 56h107q59 70 101 138.5t70.5 155.5t44.5 205t23 290l22 651h864v-1440h104v-373h-56v317h-1225v-317h-55v373zM195 56h999v1388h-751l-22 -654q-4 -150 -24 -264t-49 -201t-68 -152t-85 -117z" />
<glyph unicode="&#x415;" horiz-adv-x="1127" d="M120 0v1496h944v-54h-888v-652h764v-52h-764v-688h888v-50h-944z" />
<glyph unicode="&#x416;" horiz-adv-x="1769" d="M43 0l146 501q15 54 34.5 103t47 87t65 65t94.5 39q-89 24 -139 101t-84 187l-131 413h52l145 -446q22 -70 56 -115t73 -73.5t81.5 -39t85.5 -10.5h286v684h59v-684h287q43 0 85 10.5t81.5 39t72 74.5t56.5 114l145 446h52l-129 -413q-35 -110 -85 -187.5t-139 -100.5 q54 -11 93 -38.5t66 -65.5t46 -87t35 -103l146 -501h-59l-147 510q-21 76 -51 125t-66 76t-79.5 38t-90.5 11h-319v-760h-59v760h-319q-49 0 -91.5 -11t-78.5 -38t-65.5 -76t-50.5 -125l-148 -510h-59z" />
<glyph unicode="&#x417;" horiz-adv-x="1085" d="M31 122l36 43q72 -56 170.5 -93t222.5 -37q87 0 167.5 26t140 73.5t95.5 115t36 152.5t-26 153t-72.5 115t-112 71.5t-141.5 24.5h-165v54h180q48 0 104.5 20t105 61t81.5 105.5t33 153.5q0 87 -35 146t-90 96t-121.5 52t-127.5 15q-112 0 -213.5 -34.5t-168.5 -86.5 l-37 44q108 74 207.5 101t223.5 27q82 0 158 -20.5t134 -64t94.5 -112t36.5 -161.5q0 -56 -17.5 -114t-51 -108t-86 -88t-119.5 -57q87 -19 142 -64t87 -100t43.5 -115t11.5 -108q0 -97 -38 -175.5t-105 -134t-158.5 -84.5t-195.5 -29q-154 0 -258 43.5t-171 93.5z" />
<glyph unicode="&#x418;" horiz-adv-x="1295" d="M122 0v1496h56v-1426l938 1426h63v-1496h-56v1413l-932 -1413h-69z" />
<glyph unicode="&#x419;" horiz-adv-x="1295" d="M122 0v1496h56v-1426l938 1426h63v-1496h-56v1413l-932 -1413h-69zM365 1767h47q17 -85 79 -127.5t132 -42.5q67 0 126 34t84 136h48q-7 -39 -25 -79.5t-50.5 -70.5t-78 -49.5t-104.5 -19.5q-58 0 -104 19.5t-78.5 49.5t-51 70.5t-24.5 79.5z" />
<glyph unicode="&#x41a;" horiz-adv-x="1119" d="M120 0v1496h56v-684h365q87 0 165.5 51t128.5 187l157 446h52l-141 -413q-37 -108 -86 -186.5t-138 -101.5q55 -11 94 -38.5t66 -65.5t45.5 -87t35.5 -103l157 -501h-58l-159 510q-25 74 -54 123t-64.5 77t-78 39t-90.5 11h-397v-760h-56z" />
<glyph unicode="&#x41b;" horiz-adv-x="1251" d="M4 -2q59 52 107 117t82.5 161.5t53 234.5t18.5 334v651h879v-1496h-59v1444h-764v-669q0 -168 -19.5 -295.5t-55 -226.5t-88 -173t-117.5 -128z" />
<glyph unicode="&#x41c;" horiz-adv-x="1497" d="M120 0v1496h60l578 -1181q135 286 282 590t284 591h54v-1496h-56v1370q-76 -166 -146.5 -313.5t-136.5 -284t-129 -266t-125 -259.5h-56l-553 1127v-1374h-56z" />
<glyph unicode="&#x41d;" horiz-adv-x="1272" d="M120 0v1496h56v-708h918v708h58v-1496h-58v738h-918v-738h-56z" />
<glyph unicode="&#x41e;" horiz-adv-x="1245" d="M108 482v539q0 106 35 196t101.5 155t161.5 101.5t217 36.5q120 0 214.5 -36.5t161.5 -102.5t102.5 -156t35.5 -194v-548q0 -108 -34.5 -198.5t-101.5 -154.5t-162.5 -99.5t-215.5 -35.5q-122 0 -216 36.5t-161.5 103t-102.5 157.5t-35 200zM165 487q0 -120 41 -205 t107 -140t148 -81t162 -26q94 0 177.5 27t146 83t98.5 141t36 201v516q0 117 -38 203t-102 142t-146.5 83.5t-171.5 27.5q-95 0 -179 -27.5t-146 -83.5t-97.5 -142t-35.5 -203v-516z" />
<glyph unicode="&#x41f;" horiz-adv-x="1251" d="M110 0v1496h1034v-1496h-59v1444h-918v-1444h-57z" />
<glyph unicode="&#x420;" horiz-adv-x="1152" d="M120 0v1496h568q104 0 181.5 -37.5t128 -96.5t75.5 -134.5t25 -150.5q0 -76 -27 -150t-79 -132.5t-128 -94t-176 -35.5h-512v-665h-56zM176 717h506q72 0 135.5 23.5t114 70.5t79.5 114t29 152t-29 152t-79.5 114t-114 73t-135.5 26h-506v-725z" />
<glyph unicode="&#x421;" horiz-adv-x="1063" d="M108 493v520q0 106 35 197t101.5 158t163 104.5t217.5 37.5q109 0 198 -22.5t171 -76.5l-35 -48q-145 96 -334 96q-87 0 -169.5 -26t-147.5 -81.5t-104 -142t-39 -206.5v-504q0 -120 39 -207t103 -145t145.5 -86t164.5 -28q100 0 185.5 29t161.5 79l35 -46 q-57 -37 -150 -73.5t-224 -36.5q-126 0 -222.5 39t-161.5 107t-99 160.5t-34 201.5z" />
<glyph unicode="&#x422;" horiz-adv-x="1104" d="M39 1442v54h1025v-54h-482v-1442h-56v1442h-487z" />
<glyph unicode="&#x423;" horiz-adv-x="1023" d="M33 1496h58l413 -1053h4l412 1053h62l-478 -1208q-35 -87 -68.5 -145t-73 -93t-83 -50t-97.5 -15h-41v56h35q37 0 70.5 7.5t64 29.5t57.5 60t53 96l59 139z" />
<glyph unicode="&#x424;" horiz-adv-x="1525" d="M108 682v219q0 106 37 204t114 173t195.5 120.5t281.5 47.5v64h54v-64q163 -2 281 -47.5t195.5 -120.5t114 -173t36.5 -204v-219q0 -109 -39.5 -209t-119 -174.5t-197 -120.5t-271.5 -48v-130h-54v130q-154 2 -271 48t-196.5 120.5t-120 174.5t-40.5 209zM165 686 q0 -120 43.5 -213.5t119.5 -158t180.5 -99.5t227.5 -35v1214q-135 0 -241 -36t-179 -103.5t-112 -160.5t-39 -210v-198zM790 180q124 0 228.5 35t180 99.5t119 158.5t43.5 213v198q0 118 -39 210.5t-112 160t-179.5 103.5t-240.5 36v-1214z" />
<glyph unicode="&#x425;" horiz-adv-x="1034" d="M26 0l461 768l-429 728h68l388 -671l389 671h67l-427 -728l462 -768h-67l-422 710l-423 -710h-67z" />
<glyph unicode="&#x426;" horiz-adv-x="1299" d="M120 0v1496h56v-1444h918v1444h58v-1444h105v-369h-56v317h-1081z" />
<glyph unicode="&#x427;" horiz-adv-x="1137" d="M74 1044v452h56v-425q0 -98 16.5 -175.5t56.5 -130.5t107 -81.5t172 -28.5q124 0 247.5 39.5t231.5 113.5v688h58v-1496h-58v749q-132 -84 -261 -114t-220 -30q-85 0 -159 19.5t-129 68.5t-86.5 135t-31.5 216z" />
<glyph unicode="&#x428;" horiz-adv-x="1983" d="M120 0v1496h56v-1446h785v1446h58v-1446h787v1446h59v-1496h-1745z" />
<glyph unicode="&#x429;" horiz-adv-x="2011" d="M120 0v1496h56v-1444h785v1444h58v-1444h787v1444h59v-1444h104v-369h-57v317h-1792z" />
<glyph unicode="&#x42a;" horiz-adv-x="1434" d="M13 1439v57h445v-715h499q113 0 194.5 -33.5t134 -89t77.5 -126t25 -141.5q0 -108 -36.5 -183.5t-98.5 -121t-145 -66t-182 -20.5h-524v1439h-389zM458 54h486q81 0 150.5 17.5t121.5 58t81 104.5t29 157q0 70 -25 131.5t-72.5 107t-119 72.5t-162.5 27h-489v-675z" />
<glyph unicode="&#x42b;" horiz-adv-x="1438" d="M120 0v1496h56v-715h499q113 0 194.5 -33.5t133.5 -89t77 -126t25 -141.5q0 -108 -35.5 -183.5t-98 -121t-146 -66t-181.5 -20.5h-524zM176 54h486q81 0 150 17.5t121.5 58t81.5 104.5t29 157q0 70 -25 131.5t-72.5 107t-119 72.5t-162.5 27h-489v-675zM1253 0v1496h56 v-1496h-56z" />
<glyph unicode="&#x42c;" horiz-adv-x="1152" d="M120 0v1496h56v-715h499q113 0 194.5 -33.5t133.5 -89t77 -126t25 -141.5q0 -108 -35.5 -183.5t-98 -121t-146 -66t-181.5 -20.5h-524zM176 54h486q81 0 150 17.5t121.5 58t81.5 104.5t29 157q0 70 -25 131.5t-72.5 107t-119 72.5t-162.5 27h-489v-675z" />
<glyph unicode="&#x42d;" horiz-adv-x="1056" d="M29 95l34 48q76 -50 162 -78t185 -28q94 0 178.5 29t149.5 88t104 148t39 208v242h-631v51h631v200q0 120 -30.5 206.5t-85.5 142t-133.5 81.5t-173.5 26q-93 0 -186.5 -25t-169.5 -75l-32 48q91 56 186.5 81t201.5 25q132 0 224.5 -38t149 -105t81.5 -158.5t25 -198.5 v-509q0 -109 -34 -203t-101 -164t-168 -111t-233 -41q-131 0 -224 36.5t-149 73.5z" />
<glyph unicode="&#x42e;" horiz-adv-x="1510" d="M120 0v1496h56v-708h241v233q0 106 31.5 196t93 155t154 101.5t213.5 36.5q120 0 211.5 -36.5t154.5 -102.5t95 -156t32 -194v-548q0 -108 -31 -198.5t-94 -154.5t-155.5 -99.5t-212.5 -35.5q-121 0 -212.5 36.5t-154 103t-94 157.5t-31.5 200v256h-241v-738h-56z M473 487q0 -120 38 -206t100 -141t140 -81t158 -26q94 0 174.5 28t138.5 84t91 141t33 201v516q0 117 -35 203t-94 142t-138.5 83.5t-169.5 27.5q-95 0 -175.5 -27.5t-138 -83.5t-90 -142t-32.5 -203v-516z" />
<glyph unicode="&#x42f;" horiz-adv-x="1228" d="M76 0l135 456q29 93 71.5 158t129.5 94q-78 19 -133 57t-90 88t-51 109t-16 117q0 76 24 151t72.5 133t125.5 95.5t182 37.5h584v-1496h-57v686h-484q-50 0 -94.5 -9.5t-82.5 -38t-71 -76.5t-54 -121l-132 -441h-59zM182 1079q0 -85 30.5 -149t82 -106.5t117.5 -63 t139 -20.5h502v702h-527q-72 0 -134 -25t-109 -73t-74 -114t-27 -151z" />
<glyph unicode="&#x430;" horiz-adv-x="978" d="M65 278q0 82 31.5 138.5t80.5 92.5t111 52.5t120 16.5h419v118q0 181 -84.5 254t-243.5 73q-89 0 -168 -23t-161 -76l-33 46q82 50 168 77.5t196 27.5q113 0 186 -27t116.5 -74.5t60.5 -112t17 -140.5v-721h-38l-16 147q-85 -56 -151 -87t-118 -48.5t-92.5 -22 t-70.5 -4.5q-145 0 -237.5 72.5t-92.5 220.5zM122 278q0 -65 22.5 -110.5t59.5 -75t87 -43.5t107 -14q49 0 104.5 15t112 38.5t110.5 54.5t102 62v323h-380q-47 0 -105 -8t-106.5 -34t-81 -74.5t-32.5 -133.5z" />
<glyph unicode="&#x431;" horiz-adv-x="1011" d="M98 369v259q0 84 3 167.5t16 162t38 150t69 133.5q30 44 74.5 81t96.5 67t108.5 54t113.5 44q48 17 93.5 33.5t86.5 33.5l19 -44q-56 -24 -112.5 -42t-108.5 -37q-129 -48 -210 -100.5t-128.5 -123t-69.5 -162.5t-35 -218h7q27 50 68.5 88t90.5 63t103.5 38t104.5 13 q184 0 286 -99t102 -272v-285q0 -178 -112 -283t-309 -105q-93 0 -167 28t-124 79t-77 121.5t-27 155.5zM152 387q0 -95 28.5 -163t75 -110t109 -61.5t132.5 -19.5q81 0 147 20.5t115 64t76 109.5t27 160v241q0 95 -27 162.5t-72.5 109.5t-109 60.5t-135.5 18.5 q-64 0 -129.5 -22.5t-118.5 -68t-85.5 -116t-32.5 -167.5v-218z" />
<glyph unicode="&#x432;" horiz-adv-x="986" d="M108 0v1061h461q85 0 144.5 -21t97.5 -58.5t55.5 -85t17.5 -101.5q0 -33 -8 -67t-27.5 -65t-54 -58t-88.5 -45q54 -19 91.5 -51.5t60.5 -70.5t33 -79.5t10 -76.5q0 -118 -79.5 -200t-228.5 -82h-485zM161 48h417q54 0 103.5 14t87 43.5t59 74t21.5 102.5q0 56 -21.5 103 t-59 79.5t-87 51t-103.5 18.5h-417v-486zM161 586h410q46 0 91.5 12t82 38t59.5 65t23 94q0 58 -23 99.5t-59.5 66.5t-87 36.5t-102.5 11.5h-394v-423z" />
<glyph unicode="&#x433;" horiz-adv-x="841" d="M108 0v1059h730v-52h-675v-1007h-55z" />
<glyph unicode="&#x434;" horiz-adv-x="1125" d="M21 48h85q35 33 64 78.5t50 110.5t35 153t18 207l20 467h689v-1016h79v-309h-52v261h-937v-261h-51v309zM178 48h752v965h-587l-22 -437q-10 -187 -43 -318.5t-100 -209.5z" />
<glyph unicode="&#x435;" horiz-adv-x="991" d="M108 373v311q0 87 31 159.5t85 124t128.5 79.5t163.5 28q85 0 156.5 -26t124 -75.5t80.5 -119t28 -152.5v-196h-742v-115q0 -102 30.5 -170.5t80 -111t114 -60.5t130.5 -18q106 0 178 33.5t122 82.5l35 -39q-60 -58 -144 -90.5t-195 -32.5q-91 0 -164.5 25t-128 75 t-84 121.5t-29.5 166.5zM163 555h688v116q0 97 -30.5 164.5t-78.5 110t-107.5 62t-118.5 19.5q-62 0 -126.5 -20.5t-114 -64t-81 -112t-31.5 -165.5v-110z" />
<glyph unicode="&#x436;" horiz-adv-x="1432" d="M43 0l104 350q22 80 55.5 135.5t110.5 74.5q-63 17 -96 71.5t-56 132.5l-96 300h53l104 -324q32 -98 88.5 -129t119.5 -31h260v484h52v-484h261q62 0 119 31t90 129l103 324h52l-95 -300q-24 -78 -56.5 -132t-95.5 -72q40 -11 66 -29.5t44.5 -45.5t31 -61.5t23.5 -73.5 l105 -350h-54l-105 356q-31 106 -84 140t-132 34h-273v-530h-52v530h-273q-79 0 -132 -34t-84 -140l-103 -356h-55z" />
<glyph unicode="&#x437;" horiz-adv-x="876" d="M29 87l31 41q57 -37 135 -65t174 -28q67 0 125.5 18.5t103 51t69.5 79t25 104.5q0 59 -21.5 103t-57 74t-79 45.5t-87.5 15.5h-147v50h145q31 0 72 12.5t77 39.5t60.5 70.5t24.5 104.5q0 59 -25.5 101.5t-67 69.5t-91.5 40t-97 13q-90 0 -166 -26t-128 -63l-32 44 q89 54 166 73.5t170 19.5q65 0 125 -16.5t105.5 -50t72.5 -85t27 -117.5q0 -79 -47 -150.5t-138 -102.5q54 -19 91.5 -49.5t60 -66t32.5 -74t10 -70.5q0 -70 -28.5 -126.5t-79.5 -95t-120.5 -60.5t-149.5 -22q-124 0 -204 31.5t-136 66.5z" />
<glyph unicode="&#x438;" horiz-adv-x="1026" d="M108 0v1059h53v-985l705 985h52v-1059h-50v979l-701 -979h-59z" />
<glyph unicode="&#x439;" horiz-adv-x="1026" d="M108 0v1059h53v-985l705 985h52v-1059h-50v979l-701 -979h-59zM241 1439h47q17 -84 79 -126.5t132 -42.5q67 0 126 34t85 135h48q-6 -39 -25 -79t-51.5 -70.5t-78 -50t-104.5 -19.5q-58 0 -103.5 19.5t-78.5 50t-51.5 70.5t-24.5 79z" />
<glyph unicode="&#x43a;" horiz-adv-x="1011" d="M159 0v1064h52v-484h338q61 0 116.5 32t92.5 128l126 324h52l-118 -300q-30 -76 -59.5 -131t-91.5 -73q39 -11 64 -29.5t42 -46.5t31 -61.5t27 -72.5l126 -350h-54l-126 356q-37 106 -87 140t-128 34h-351v-530h-52z" />
<glyph unicode="&#x43b;" horiz-adv-x="986" d="M13 4q45 37 83.5 84t65.5 115t42 163.5t15 230.5v462h660v-1059h-54v1009h-554v-460q0 -118 -15 -208.5t-44.5 -160.5t-70.5 -122t-95 -93z" />
<glyph unicode="&#x43c;" horiz-adv-x="1208" d="M108 0v1059h55l450 -823l440 823h47v-1059h-52v944l-410 -770h-50l-425 777v-951h-55z" />
<glyph unicode="&#x43d;" horiz-adv-x="1030" d="M108 0v1059h53v-495h709v495h52v-1059h-52v516h-709v-516h-53z" />
<glyph unicode="&#x43e;" horiz-adv-x="1011" d="M98 369v335q0 85 32.5 152.5t87.5 117t129 75.5t159 26q84 0 159 -26t130.5 -75.5t87 -117.5t31.5 -152v-331q0 -178 -106.5 -283t-303.5 -105q-94 0 -168.5 28t-128 79t-81.5 121.5t-28 155.5zM152 387q0 -95 29.5 -163t79.5 -110t114 -61.5t133 -19.5q74 0 139 20.5 t113 64t75 109.5t27 160v286q0 95 -31.5 162.5t-83 110t-114 61t-125.5 18.5q-65 0 -129 -18.5t-114 -61t-81.5 -110t-31.5 -162.5v-286z" />
<glyph unicode="&#x43f;" horiz-adv-x="1026" d="M108 0v1061h810v-1061h-52v1011h-705v-1011h-53z" />
<glyph unicode="&#x440;" horiz-adv-x="1017" d="M108 -447v1502h37l16 -152q85 54 150.5 88t119 52t93.5 25t71 7q153 0 239 -87t86 -265v-373q0 -178 -97.5 -271.5t-275.5 -93.5q-33 0 -70.5 4.5t-84 16t-103.5 34.5t-128 60v-547h-53zM161 163q128 -70 221.5 -99t162.5 -29q169 0 246 86t77 254v319q0 176 -70.5 253.5 t-200.5 77.5q-81 0 -197 -49.5t-239 -132.5v-680z" />
<glyph unicode="&#x441;" horiz-adv-x="868" d="M108 377v322q0 84 28.5 153.5t81.5 120t128 77.5t168 27q79 0 161.5 -20.5t142.5 -66.5l-35 -48q-56 44 -129.5 64.5t-129.5 20.5q-70 0 -134.5 -18.5t-114 -61t-80 -109.5t-30.5 -163v-284q0 -93 30.5 -159.5t80 -108.5t114 -63t128.5 -21q29 0 64 4.5t71.5 14 t72.5 23.5t62 31l28 -45q-62 -39 -142.5 -58.5t-159.5 -19.5q-95 0 -171 29.5t-128 80t-79.5 122.5t-27.5 156z" />
<glyph unicode="&#x442;" horiz-adv-x="870" d="M33 1007v52h805v-52h-376v-1007h-52v1007h-377z" />
<glyph unicode="&#x443;" horiz-adv-x="887" d="M13 1059h54l365 -1016l378 1016h52l-549 -1489h-56l153 430l-43 54z" />
<glyph unicode="&#x444;" horiz-adv-x="1241" d="M98 408v276q0 89 32.5 165.5t96 133.5t156.5 89.5t212 32.5v389h52v-389q117 0 209.5 -32.5t156.5 -89.5t97.5 -133.5t33.5 -165.5v-270q0 -89 -34.5 -166.5t-100 -135.5t-157.5 -91.5t-205 -33.5v-434h-52v434q-113 0 -205 32.5t-157.5 89t-100 133.5t-34.5 166z M154 445q0 -85 23.5 -156.5t77 -126t137.5 -87t203 -34.5v1009q-124 -4 -208.5 -36t-137 -86t-74 -125.5t-21.5 -155.5v-202zM647 41q117 2 201 34.5t137 86t78 126t25 157.5v202q0 84 -25 157t-78 127.5t-137 86.5t-201 32v-1009z" />
<glyph unicode="&#x445;" horiz-adv-x="835" d="M29 0l350 543l-336 518h67l302 -473l307 473h66l-340 -518l356 -543h-70l-319 495l-314 -495h-69z" />
<glyph unicode="&#x446;" horiz-adv-x="1056" d="M108 0v1059h53v-1011h709v1011h52v-1011h81v-309h-52v261h-843z" />
<glyph unicode="&#x447;" horiz-adv-x="895" d="M56 736v323h52v-303q0 -135 66.5 -210t223.5 -75q95 0 183 27.5t171 77.5v483h54v-1059h-54v518q-94 -56 -191 -76.5t-166 -20.5q-58 0 -119 14t-109.5 50.5t-79.5 96.5t-31 154z" />
<glyph unicode="&#x448;" horiz-adv-x="1586" d="M108 0v1059h53v-1011h603v1011h54v-1011h609v1011h52v-1059h-1371z" />
<glyph unicode="&#x449;" horiz-adv-x="1612" d="M135 0v1059h54v-1011h601v1011h55v-1011h607v1011h52v-1011h81v-309h-52v261h-1398z" />
<glyph unicode="&#x44a;" horiz-adv-x="1131" d="M11 1005v54h356v-499h397q89 0 150 -25t97.5 -64t53 -89t16.5 -102q0 -145 -93 -212.5t-250 -67.5h-423v1005h-304zM367 52h385q126 0 199.5 54.5t73.5 173.5q0 102 -67.5 166t-203.5 64h-387v-458z" />
<glyph unicode="&#x44b;" horiz-adv-x="1154" d="M108 0v1059h53v-499h397q89 0 149.5 -25t98 -64t53 -89t15.5 -102q0 -145 -93 -212.5t-249 -67.5h-424zM161 52h384q126 0 199.5 54.5t73.5 173.5q0 102 -67 166t-204 64h-386v-458zM992 0v1059h54v-1059h-54z" />
<glyph unicode="&#x44c;" horiz-adv-x="920" d="M108 0v1059h53v-499h397q89 0 149.5 -25t98 -64t53 -89t15.5 -102q0 -145 -93 -212.5t-249 -67.5h-424zM161 52h384q126 0 199.5 54.5t73.5 173.5q0 102 -67 166t-204 64h-386v-458z" />
<glyph unicode="&#x44d;" horiz-adv-x="839" d="M35 67l28 45q26 -17 62 -31t72.5 -23.5t71.5 -14t63 -4.5q74 0 138 21t112 63t76 108.5t28 159.5v127h-491v55h491v115q0 95 -22 160.5t-64 104.5t-101.5 56.5t-133.5 17.5q-29 0 -64.5 -6t-73.5 -16.5t-73.5 -25.5t-66.5 -37l-33 44q70 48 156 69.5t163 21.5 q193 0 281 -98t88 -267v-335q0 -84 -27 -156t-79 -122.5t-128.5 -80t-171.5 -29.5q-78 0 -158 20t-143 58z" />
<glyph unicode="&#x44e;" horiz-adv-x="1212" d="M108 0v1059h55v-495h180v140q0 85 29.5 152.5t80.5 117t121 75.5t155 26t156.5 -26t122.5 -75.5t79.5 -117.5t28.5 -152v-331q0 -178 -96 -283t-293 -105q-189 0 -286.5 107t-97.5 277v147h-180v-516h-55zM398 387q0 -95 25.5 -163t71.5 -110t106.5 -61.5t129.5 -19.5 q150 0 241.5 83t91.5 271v286q0 95 -28.5 162.5t-75 110t-106 61t-123.5 18.5t-125 -18.5t-106.5 -61t-73.5 -110t-28 -162.5v-286z" />
<glyph unicode="&#x44f;" horiz-adv-x="969" d="M54 0l100 330q19 62 46.5 106t85.5 70q-99 28 -150 102t-51 163q0 58 18.5 110.5t57 93t98.5 65t143 24.5h460v-1064h-50v484h-410q-70 -4 -119 -37t-78 -130l-97 -317h-54zM139 771q0 -59 21.5 -102.5t57.5 -72.5t83 -44.5t97 -15.5h414v475h-410q-54 0 -102 -13.5 t-84 -44.5t-56.5 -76.5t-20.5 -105.5z" />
<glyph unicode="&#x451;" horiz-adv-x="991" d="M108 373v311q0 87 31 159.5t85 124t128.5 79.5t163.5 28q85 0 156.5 -26t124 -75.5t80.5 -119t28 -152.5v-196h-742v-115q0 -102 30.5 -170.5t80 -111t114 -60.5t130.5 -18q106 0 178 33.5t122 82.5l35 -39q-60 -58 -144 -90.5t-195 -32.5q-91 0 -164.5 25t-128 75 t-84 121.5t-29.5 166.5zM163 555h688v116q0 97 -30.5 164.5t-78.5 110t-107.5 62t-118.5 19.5q-62 0 -126.5 -20.5t-114 -64t-81 -112t-31.5 -165.5v-110zM290 1424q0 21 15.5 37t35.5 16q22 0 37 -16t15 -37q0 -22 -15 -37t-37 -15q-19 0 -35 15t-16 37zM628 1424 q0 21 15 37t34 16q22 0 37 -16t15 -37q0 -22 -15 -37t-37 -15q-19 0 -34 15t-15 37z" />
<glyph unicode="&#x452;" horiz-adv-x="1056" d="M11 1266v47h124v241h54v-241h525v-47h-525v-378q159 100 266 138t177 38q161 0 239 -84.5t78 -269.5v-449q0 -178 -106.5 -283.5t-304.5 -105.5v54q162 0 260.5 81.5t98.5 268.5l-2 408q0 176 -65.5 251.5t-204.5 75.5q-43 0 -96 -14.5t-111 -40.5t-116.5 -59t-112.5 -68 v-829h-54v1266h-124z" />
<glyph unicode="&#x453;" horiz-adv-x="841" d="M108 0v1059h730v-52h-675v-1007h-55zM398 1253l178 308l68 -35l-214 -291z" />
<glyph unicode="&#x454;" horiz-adv-x="850" d="M98 377v322q0 84 28 153.5t81.5 120t128 77.5t168.5 27q78 0 160.5 -20.5t143.5 -66.5l-35 -48q-56 44 -130 64.5t-131 20.5q-70 0 -133.5 -18.5t-113.5 -61t-80.5 -109.5t-30.5 -163v-102h463v-55h-463v-127q0 -93 30.5 -159.5t80.5 -108.5t114 -63t129 -21 q28 0 62.5 4.5t71.5 14t73.5 23.5t61.5 31l29 -45q-63 -39 -143.5 -58.5t-158.5 -19.5q-96 0 -171.5 29.5t-128 80t-79.5 122.5t-27 156z" />
<glyph unicode="&#x455;" horiz-adv-x="934" d="M93 89l31 43q78 -51 166 -77t197 -26q51 0 107.5 11.5t103 39.5t77.5 76.5t31 121.5q0 66 -31 109t-77.5 69t-105 39t-112.5 21q-62 9 -129 24t-123 45t-92 77.5t-36 122.5q0 61 22.5 114.5t68 92.5t112 62t153.5 23q106 0 189.5 -18.5t151.5 -62.5l-29 -41 q-66 37 -140.5 56.5t-163.5 19.5q-141 0 -225.5 -65t-84.5 -183q0 -54 26.5 -89.5t72 -61t110 -40t143.5 -28.5q62 -11 125 -25.5t114.5 -46.5t83 -84t31.5 -132q0 -61 -24 -114.5t-70.5 -92t-116 -61.5t-160.5 -23q-102 0 -203.5 20.5t-192.5 83.5z" />
<glyph unicode="&#x456;" horiz-adv-x="408" d="M154 1424q0 21 15 37t36 16t36.5 -16t15.5 -37q0 -22 -15.5 -37t-36.5 -15q-19 0 -35 15t-16 37zM176 0v1061h54v-1061h-54z" />
<glyph unicode="&#x457;" horiz-adv-x="408" d="M-17 1424q0 21 15 37t35 16q21 0 36.5 -16t15.5 -37q0 -22 -15.5 -37t-36.5 -15q-19 0 -34.5 15t-15.5 37zM176 0v1061h54v-1061h-54zM319 1424q0 21 15.5 37t34.5 16q21 0 36.5 -16t15.5 -37q0 -22 -15 -37t-37 -15q-19 0 -34.5 15t-15.5 37z" />
<glyph unicode="&#x458;" horiz-adv-x="450" d="M-11 -410h59q87 0 124 43.5t37 153.5v1274h54v-1287q0 -120 -48 -176t-157 -56h-69v48zM187 1424q0 21 15 37t34 16q22 0 37 -16t15 -37q0 -22 -14.5 -37t-37.5 -15q-19 0 -34 15t-15 37z" />
<glyph unicode="&#x459;" horiz-adv-x="1518" d="M15 4q45 37 83.5 84t65.5 115t42.5 163.5t15.5 230.5v462h522v-499h398q89 0 150 -25t98 -64t53 -89t16 -102q0 -145 -93.5 -212.5t-249.5 -67.5h-426v1009h-417v-460q0 -118 -15 -208.5t-44.5 -160.5t-70.5 -122t-95 -93zM744 52h385q126 0 199.5 54.5t73.5 173.5 q0 102 -67 166t-204 64h-387v-458z" />
<glyph unicode="&#x45a;" horiz-adv-x="1518" d="M108 0v1059h53v-501h541v501h52v-499h398q89 0 150 -25t98 -64t53 -89t16 -102q0 -145 -93 -212.5t-249 -67.5h-425v510h-541v-510h-53zM754 52h386q126 0 199.5 54.5t73.5 173.5q0 102 -67.5 166t-203.5 64h-388v-458z" />
<glyph unicode="&#x45b;" horiz-adv-x="1056" d="M11 1266v47h124v241h54v-241h525v-47h-525v-378q159 100 266 138t177 38q161 0 239 -84.5t78 -269.5v-710h-54v684q0 176 -65.5 251.5t-204.5 75.5q-43 0 -96 -14.5t-111 -40.5t-116.5 -59t-112.5 -68v-829h-54v1266h-124z" />
<glyph unicode="&#x45c;" horiz-adv-x="1011" d="M159 0v1064h52v-484h338q61 0 116.5 32t92.5 128l126 324h52l-118 -300q-30 -76 -59.5 -131t-91.5 -73q39 -11 64 -29.5t42 -46.5t31 -61.5t27 -72.5l126 -350h-54l-126 356q-37 106 -87 140t-128 34h-351v-530h-52zM458 1253l178 308l70 -35l-215 -291z" />
<glyph unicode="&#x45e;" horiz-adv-x="887" d="M13 1059h54l365 -1016l378 1016h52l-549 -1489h-56l153 430l-43 54zM184 1439h48q17 -84 79 -126.5t132 -42.5q67 0 126 34t84 135h49q-7 -39 -25.5 -79t-51 -70.5t-78.5 -50t-104 -19.5t-104 19.5t-78.5 50t-51 70.5t-25.5 79z" />
<glyph unicode="&#x45f;" horiz-adv-x="1030" d="M108 0v1059h53v-1011h709v1011h52v-1059h-388v-271h-56v271h-370z" />
<glyph unicode="&#x490;" horiz-adv-x="1082" d="M128 0v1496h895v256h50v-310h-889v-1442h-56z" />
<glyph unicode="&#x491;" horiz-adv-x="816" d="M98 0v1059h681v228h48v-280h-675v-1007h-54z" />
<glyph unicode="&#x4d9;" horiz-adv-x="991" d="M108 358v195h743v116q0 99 -28 168.5t-74.5 112t-108.5 61t-130 18.5q-106 0 -185.5 -34t-129.5 -83l-34 39q61 58 151 91t200 33q182 0 287.5 -99t105.5 -290v-311q0 -89 -30 -160.5t-84.5 -122.5t-129.5 -79t-164 -28q-85 0 -156.5 26t-123.5 75t-80.5 118t-28.5 154z M163 389q0 -97 30.5 -166t78 -111t107.5 -60.5t118 -18.5q63 0 126 20.5t114 64t82.5 112t31.5 165.5v109h-688v-115z" />
<glyph unicode="&#x2000;" horiz-adv-x="932" />
<glyph unicode="&#x2001;" horiz-adv-x="1865" />
<glyph unicode="&#x2002;" horiz-adv-x="932" />
<glyph unicode="&#x2003;" horiz-adv-x="1865" />
<glyph unicode="&#x2004;" horiz-adv-x="621" />
<glyph unicode="&#x2005;" horiz-adv-x="466" />
<glyph unicode="&#x2006;" horiz-adv-x="310" />
<glyph unicode="&#x2007;" horiz-adv-x="310" />
<glyph unicode="&#x2008;" horiz-adv-x="233" />
<glyph unicode="&#x2009;" horiz-adv-x="373" />
<glyph unicode="&#x200a;" horiz-adv-x="103" />
<glyph unicode="&#x2010;" horiz-adv-x="779" d="M118 549v56h544v-56h-544z" />
<glyph unicode="&#x2011;" horiz-adv-x="779" d="M118 549v56h544v-56h-544z" />
<glyph unicode="&#x2012;" horiz-adv-x="779" d="M118 549v56h544v-56h-544z" />
<glyph unicode="&#x2013;" horiz-adv-x="1063" d="M43 543v54h978v-54h-978z" />
<glyph unicode="&#x2014;" horiz-adv-x="2148" d="M43 543v54h2063v-54h-2063z" />
<glyph unicode="&#x2018;" horiz-adv-x="404" d="M149 1340q0 50 33 103t85 83l17 -24q-37 -29 -55 -65.5t-18 -73.5q35 4 58.5 -9.5t23.5 -48.5q0 -31 -20.5 -46t-46.5 -15q-31 0 -54 23t-23 73z" />
<glyph unicode="&#x2019;" horiz-adv-x="404" d="M149 1465q0 31 21 46t47 15q31 0 53.5 -22.5t22.5 -72.5t-32.5 -103.5t-84.5 -83.5l-17 24q37 28 55 65t18 74q-35 -5 -59 9.5t-24 48.5z" />
<glyph unicode="&#x201a;" horiz-adv-x="379" d="M126 50q0 31 20.5 45.5t46.5 14.5q31 0 53.5 -22.5t22.5 -72.5t-32 -103t-85 -84l-17 25q37 28 55.5 64.5t18.5 74.5q-35 -5 -59 9t-24 49z" />
<glyph unicode="&#x201c;" horiz-adv-x="650" d="M149 1340q0 50 33 103t85 83l17 -24q-37 -29 -55 -65.5t-18 -73.5q35 4 58.5 -9.5t23.5 -48.5q0 -31 -20.5 -46t-46.5 -15q-31 0 -54 23t-23 73zM382 1340q0 50 32.5 103t84.5 83l17 -24q-37 -29 -55 -65.5t-18 -73.5q35 4 59 -9.5t24 -48.5q0 -31 -21 -46t-47 -15 q-31 0 -53.5 23t-22.5 73z" />
<glyph unicode="&#x201d;" horiz-adv-x="650" d="M152 1465q0 31 20.5 46t46.5 15q31 0 54 -22.5t23 -72.5t-33 -103.5t-85 -83.5l-17 24q37 28 55 65t18 74q-35 -5 -58.5 9.5t-23.5 48.5zM384 1465q0 31 20.5 46t47.5 15q30 0 53 -22.5t23 -72.5t-33 -103.5t-85 -83.5l-17 24q37 28 55 65t18 74q-35 -5 -58.5 9.5 t-23.5 48.5z" />
<glyph unicode="&#x201e;" horiz-adv-x="652" d="M132 50q0 31 21 45.5t46 14.5q31 0 54 -22.5t23 -72.5t-32.5 -103t-84.5 -84l-18 25q37 28 55.5 64.5t18.5 74.5q-35 -5 -59 9t-24 49zM391 50q0 31 20.5 45.5t46.5 14.5q31 0 53.5 -22.5t22.5 -72.5t-32.5 -103t-84.5 -84l-17 25q37 28 55 64.5t18 74.5q-35 -5 -58.5 9 t-23.5 49z" />
<glyph unicode="&#x2022;" horiz-adv-x="711" d="M207 599q0 67 45.5 114t110.5 47q62 0 107.5 -46.5t45.5 -114.5q0 -67 -45.5 -112.5t-107.5 -45.5q-65 0 -110.5 46.5t-45.5 111.5z" />
<glyph unicode="&#x2026;" horiz-adv-x="1245" d="M120 56q0 25 18 43.5t49 18.5q24 0 45.5 -18.5t21.5 -43.5q0 -31 -19.5 -49t-45.5 -18q-31 0 -50 18t-19 49zM564 56q0 25 18.5 43.5t49.5 18.5q24 0 45.5 -18.5t21.5 -43.5q0 -31 -19.5 -49t-45.5 -18q-31 0 -50.5 18t-19.5 49zM1013 56q0 25 20 43.5t48 18.5 q25 0 46 -18.5t21 -43.5q0 -31 -18 -49t-47 -18q-28 0 -49 18t-21 49z" />
<glyph unicode="&#x202f;" horiz-adv-x="373" />
<glyph unicode="&#x2039;" horiz-adv-x="572" d="M156 460l246 358h58l-238 -358l238 -360h-62z" />
<glyph unicode="&#x203a;" horiz-adv-x="572" d="M156 100l239 360l-239 358h59l245 -358l-241 -360h-63z" />
<glyph unicode="&#x205f;" horiz-adv-x="466" />
<glyph unicode="&#x20ac;" d="M54 634v48h858v-48h-676v-135q0 -120 40.5 -206t105.5 -144t146.5 -85t163.5 -27q161 0 298 73l23 -47q-56 -31 -134 -54.5t-183 -23.5q-126 0 -222.5 39t-161.5 107t-98.5 160.5t-33.5 201.5v141h-126zM54 843v47h126v123q0 106 35 197t101 158t163 104.5t217 37.5 q94 0 172.5 -16.5t150.5 -54.5l-25 -51q-134 72 -298 71q-86 0 -168.5 -26t-147.5 -81.5t-104.5 -142t-39.5 -206.5v-113h676v-47h-858z" />
<glyph unicode="&#x2122;" horiz-adv-x="1699" d="M81 1461v49h603v-49h-278v-808h-48v808h-277zM814 653v855h46l329 -673l331 673h41v-855h-45v758l-311 -634h-33l-312 634v-758h-46z" />
<glyph unicode="&#xe000;" horiz-adv-x="1063" d="M0 0v1064h1064v-1064h-1064z" />
</font>
</defs>
</svg>
