<?xml version="1.0" standalone="no"?>
<!DOCTYPE svg PUBLIC "-//W3C//DTD SVG 1.1//EN" "http://www.w3.org/Graphics/SVG/1.1/DTD/svg11.dtd" >
<svg xmlns="http://www.w3.org/2000/svg" xmlns:xlink="http://www.w3.org/1999/xlink" version="1.1">
<metadata>
Created by FontForge 20150318 at Thu Apr  9 05:44:32 2015
 By uniteet7
 !22! Soft 1992
</metadata>
<defs>
<font id="PragmaticaItalic001_001" horiz-adv-x="583" >
  <font-face 
    font-family="PragmaticaItalic001_001"
    font-weight="400"
    font-style="italic"
    font-stretch="normal"
    units-per-em="1000"
    panose-1="2 11 6 4 2 2 2 2 2 4"
    ascent="800"
    descent="-200"
    x-height="520"
    cap-height="718"
    bbox="-118 -233 1281.93 887"
    underline-thickness="76"
    underline-position="-93"
    unicode-range="U+0020-2219"
  />
<missing-glyph horiz-adv-x="500" 
d="M40 667h420v-667h-420v667zM60 647v-627h380v627h-380z" />
    <glyph glyph-name=".notdef" horiz-adv-x="500" 
d="M40 667h420v-667h-420v667zM60 647v-627h380v627h-380z" />
    <glyph glyph-name="glyph1" horiz-adv-x="0" 
 />
    <glyph glyph-name="nonmarkingreturn" horiz-adv-x="333" 
 />
    <glyph glyph-name="space" unicode=" " horiz-adv-x="338" 
 />
    <glyph glyph-name="exclam" unicode="!" horiz-adv-x="314" 
d="M204 718h100l-60 -275l-73 -238h-53l27 238zM49 0l24 111h102l-24 -111h-102z" />
    <glyph glyph-name="quotedbl" unicode="&#x22;" horiz-adv-x="424" 
d="M151 605l22 113h102l-25 -120q-7 -34 -17 -58.5t-32 -45.5q-40 -32 -85 -41l14 56q35 8 48.5 30.5t22.5 58.5v7h-50zM320 605l23 113h101l-24 -120q-15 -70 -50 -104q-36 -31 -85 -41l14 56q56 12 71 89v7h-50z" />
    <glyph glyph-name="numbersign" unicode="#" horiz-adv-x="1011" 
d="M615 -56h-87l34 170h-183l-35 -170h-88l35 170h-170l15 87h174l34 184h-171l18 88h172l31 171h87l-32 -171h181l33 171h87l-32 -171h171l-17 -88h-172l-35 -184h172l-17 -87h-172zM579 201l35 184h-183l-37 -184h185z" />
    <glyph glyph-name="dollar" unicode="$" horiz-adv-x="605" 
d="M125 211q-10 -68 11 -101q32 -51 104 -51l58 272q-93 31 -138 70t-46 113q0 49 22.5 91t61.5 71q67 51 183 52l13 67h55l-13 -67q39 0 80 -14.5t60 -40.5q37 -45 22 -130h-87q7 39 -8 71q-11 23 -33.5 34.5t-49.5 11.5l-54 -252q75 -16 119 -49q28 -19 49 -52t21 -87
q-4 -102 -85 -169q-69 -58 -192 -64l-18 -82h-55l19 82q-110 6 -153 58q-29 34 -36 80.5t-1 85.5h91zM291 59q60 0 101 32q67 41 67 117q0 91 -113 112zM316 416l53 244q-65 0 -106 -32q-56 -39 -53 -106q1 -71 106 -106z" />
    <glyph glyph-name="percent" unicode="%" horiz-adv-x="919" 
d="M131 0l619 718h80l-619 -718h-80zM92 520q25 109 89 163q48 41 110 41q58 0 92 -24q62 -42 53 -131q-2 -47 -18.5 -98t-51.5 -90q-60 -67 -135 -67q-54 0 -88 26q-61 39 -58 133q5 20 7 47zM530 198q30 112 90 161q48 42 110 42q50 0 90 -25q61 -42 53 -132
q0 -43 -17.5 -95.5t-51.5 -92.5q-54 -62 -135 -62q-52 0 -90 22q-60 44 -55 130q0 9 2 21.5t4 30.5zM160 520q-7 -21 -7 -39q-3 -53 17.5 -82t59.5 -29q63 0 104 68q34 56 36 121q5 47 -14 78.5t-61 31.5q-52 0 -90 -47q-32 -44 -45 -102zM598 198q-6 -21 -6 -39
q-4 -55 16 -84.5t59 -29.5q61 0 105 69q26 43 37 120q5 50 -14.5 81t-61.5 31q-51 0 -89 -45q-32 -44 -46 -103z" />
    <glyph glyph-name="ampersand" unicode="&#x26;" horiz-adv-x="695" 
d="M644 311q-15 -45 -40.5 -91.5t-50.5 -76.5l88 -143h-107l-49 75q-49 -47 -105 -69t-130 -22q-108 1 -151 52t-45 110q-10 115 86 192q44 37 141 76q-41 77 -41 126q-4 70 44 119q57 59 146 59q70 0 105 -32t35 -81q0 -68 -50 -124q-42 -51 -126 -87l117 -189
q32 46 52 106h81zM449 139l-133 216q-69 -23 -115 -70q-55 -50 -55 -116q5 -106 120 -109q40 0 88.5 14t94.5 65zM363 449q60 22 91 61t31 75q3 29 -13 47t-48 16q-44 0 -72 -30.5t-28 -68.5q0 -39 39 -100z" />
    <glyph glyph-name="quotesingle" unicode="'" horiz-adv-x="314" 
d="M178 605l26 113h100l-25 -120q-15 -70 -49 -104q-34 -31 -84 -41l13 56q35 8 48.5 31.5t19.5 57.5l3 7h-52z" />
    <glyph glyph-name="parenleft" unicode="(" horiz-adv-x="359" 
d="M301 718h80q-66 -99 -96.5 -149.5t-57.5 -109.5q-50 -107 -66 -194.5t-16 -165.5q0 -137 46 -290h-70q-35 91 -53 157.5t-22 149.5q0 95 20.5 179.5t64.5 174.5q57 108 170 248z" />
    <glyph glyph-name="parenright" unicode=")" horiz-adv-x="381" 
d="M66 -191h-79q48 70 87.5 134.5t65.5 122.5q84 180 85 350q0 131 -47 302h72q72 -174 78 -300q3 -93 -22 -184.5t-66 -174.5q-56 -107 -174 -250z" />
    <glyph glyph-name="asterisk" unicode="*" horiz-adv-x="473" 
d="M301 522l-100 -99l-36 36l95 98l-121 58l23 45l122 -57l20 134l49 -4l-19 -135l136 26l11 -49l-137 -26l64 -111l-45 -27z" />
    <glyph glyph-name="plus" unicode="+" horiz-adv-x="708" 
d="M71 379h278l69 275h51l-69 -275h279l-13 -54h-279l-70 -277h-51l70 277h-278z" />
    <glyph glyph-name="comma" unicode="," horiz-adv-x="314" 
d="M49 0l24 111h102l-24 -115q-13 -67 -50 -106q-33 -28 -85 -41l14 56q35 8 49 31t22 60v4h-52z" />
    <glyph glyph-name="hyphen" unicode="-" horiz-adv-x="424" 
d="M71 230l20 86h268l-16 -86h-272z" />
    <glyph glyph-name="period" unicode="." horiz-adv-x="314" 
d="M49 0l24 111h102l-24 -111h-102z" />
    <glyph glyph-name="slash" unicode="/" horiz-adv-x="424" 
d="M-91 -191l541 909h80l-543 -909h-78z" />
    <glyph glyph-name="zero" unicode="0" 
d="M246 -14q-70 0 -135 48.5t-62 205.5q4 197 91 341q83 145 239 152q124 0 163 -82t34 -176q0 -49 -10 -109.5t-27.5 -115.5t-49.5 -111q-88 -153 -243 -153zM255 62q34 -2 77.5 21.5t81.5 95.5q30 58 49.5 150.5t19.5 158.5q0 166 -113 166q-96 0 -156 -119
q-31 -63 -50 -146.5t-19 -157.5q0 -169 110 -169z" />
    <glyph glyph-name="one" unicode="1" 
d="M185 540l13 49q88 -2 140 33q53 33 76 96h69l-153 -718h-96l112 540h-161z" />
    <glyph glyph-name="two" unicode="2" 
d="M501 79l-18 -79h-483q16 95 65 156q27 32 64 60.5t91.5 62.5t84.5 51q96 51 146 98.5t50 124.5q0 63 -41 82.5t-85 17.5q-92 -9 -135 -64q-35 -39 -45 -100h-98q21 99 65 149q77 89 219 92q127 3 172 -48t45 -112q2 -43 -15.5 -92.5t-52.5 -88.5q-33 -37 -77 -66.5
t-117 -69.5q-100 -54 -148 -93q-51 -43 -64 -81h377z" />
    <glyph glyph-name="three" unicode="3" 
d="M24 216l90 2q-9 -65 17 -107q32 -46 118 -46q55 -1 97.5 20t65 59.5t24.5 82.5q3 73 -39.5 91t-117.5 18h-29l16 75q82 0 123 16q43 17 67.5 50t24.5 76q0 42 -27 71.5t-99 28.5q-86 0 -131 -61q-29 -25 -40 -93h-92q10 82 53 134q42 57 97.5 76t116.5 19
q117 1 164.5 -43.5t49.5 -103.5q4 -84 -49 -138q-38 -48 -101 -64l-3 -6q110 -24 108 -133q0 -39 -15 -83.5t-50 -83.5q-45 -49 -96 -65.5t-114 -20.5q-148 -3 -207 75q-44 65 -22 154z" />
    <glyph glyph-name="four" unicode="4" 
d="M344 169h-336l18 77l423 472h104l-100 -474h106l-16 -75h-107l-35 -169h-91zM124 244h239l75 356z" />
    <glyph glyph-name="five" unicode="5" 
d="M32 184h93q-3 -76 41.5 -97.5t88.5 -21.5q110 0 161 75q41 58 41 135q-1 41 -18 70t-48 44t-75 14q-87 0 -141 -63h-90l131 378h387l-15 -78h-317l-73 -210q31 23 72.5 34.5t84.5 11.5q93 0 144 -54t51 -144q0 -62 -21 -112.5t-48 -81.5q-43 -54 -102 -73t-130 -21
q-135 0 -184 72q-40 53 -33 122z" />
    <glyph glyph-name="six" unicode="6" 
d="M511 559q-2 38 -30.5 66t-95.5 25q-93 -5 -151 -77q-27 -38 -47 -89.5t-28 -89.5h3q63 73 184 79q60 1 106 -22t71 -66.5t23 -105.5q0 -115 -65 -198q-46 -55 -98.5 -72t-119.5 -22q-227 0 -223 233q6 195 94 349q94 152 265 159q117 1 158 -53.5t41 -115.5h-87zM140 225
q-4 -14 -4 -41q4 -119 139 -119q93 0 139 75q36 54 36 131q0 67 -37.5 97.5t-94.5 25.5q-79 -3 -123 -52.5t-55 -116.5z" />
    <glyph glyph-name="seven" unicode="7" 
d="M104 634l17 84h509l-12 -68q-61 -54 -129 -129t-139 -191q-99 -168 -149 -330h-102q18 59 50 137t100 187q56 89 117.5 163.5t142.5 146.5h-405z" />
    <glyph glyph-name="eight" unicode="8" 
d="M264 -10q-238 -4 -238 183q0 99 78 167q40 35 97 52q-35 16 -55 51.5t-19 76.5q0 89 74 149q68 59 178 59q95 0 148 -40.5t52 -118.5q0 -65 -39 -114.5t-102 -71.5q29 -9 52 -30.5t36 -54.5t12 -71q-3 -111 -89 -184q-72 -53 -185 -53zM256 65q77 0 125 45q59 48 59 126
q0 51 -32 80.5t-97 29.5q-85 0 -136 -45q-51 -48 -51 -116q-1 -61 37 -90.5t95 -29.5zM328 423q74 0 117.5 40t43.5 96q0 36 -27.5 63.5t-92.5 27.5q-72 0 -112.5 -39t-42.5 -91q0 -62 39.5 -79.5t74.5 -17.5z" />
    <glyph glyph-name="nine" unicode="9" 
d="M114 156q0 -37 29.5 -66t94.5 -25q94 3 151 78q50 62 80 177h-6q-60 -73 -173 -77q-97 -2 -153 49t-56 144q0 117 65 197q76 92 218 95q47 0 96 -13t87.5 -63.5t37.5 -150.5q-2 -90 -24 -184.5t-62 -167.5q-57 -98 -128 -130t-144 -32q-109 0 -154.5 48.5t-45.5 120.5h87
zM485 489q4 19 4 41q-4 120 -139 120q-94 -6 -140 -75q-35 -56 -35 -132q0 -67 37.5 -97t95.5 -28q81 4 124.5 54t52.5 117z" />
    <glyph glyph-name="colon" unicode=":" horiz-adv-x="314" 
d="M136 410l24 110h103l-25 -110h-102zM49 0l24 111h102l-24 -111h-102z" />
    <glyph glyph-name="semicolon" unicode=";" horiz-adv-x="314" 
d="M136 410l24 110h103l-25 -110h-102zM49 0l24 111h102l-24 -115q-13 -67 -50 -106q-33 -28 -85 -41l14 56q35 8 49 31t22 60v4h-52z" />
    <glyph glyph-name="less" unicode="&#x3c;" horiz-adv-x="674" 
d="M154 381l565 286l20 -64l-501 -253l375 -253l-52 -63l-423 284z" />
    <glyph glyph-name="equal" unicode="=" horiz-adv-x="708" 
d="M187 488h608l-14 -54h-608zM135 281h608l-13 -54h-608z" />
    <glyph glyph-name="greater" unicode="&#x3e;" horiz-adv-x="674" 
d="M693 318l-564 -284l-21 63l501 253l-375 253l53 64l422 -286z" />
    <glyph glyph-name="question" unicode="?" horiz-adv-x="562" 
d="M169 0l23 111h103l-24 -111h-102zM192 501h-88q16 91 67 152q65 80 199 80q102 1 154 -39.5t49 -112.5q-1 -69 -40.5 -119.5t-108.5 -97.5q-16 -12 -39 -29t-38.5 -34.5t-27 -40t-18.5 -52.5h-74q9 59 33 102q16 26 33 41.5t66 53.5q60 42 90 77t30 88q0 47 -30.5 68.5
t-82.5 21.5q-74 0 -116 -42q-40 -36 -58 -117z" />
    <glyph glyph-name="at" unicode="@" horiz-adv-x="1011" 
d="M661 -89q-61 -31 -113 -43t-124 -14q-100 -2 -172.5 27t-119.5 88.5t-58.5 144t14.5 184.5q22 90 73 170t126.5 143t166.5 98t191 35q242 -3 319 -165q38 -73 35 -155t-20 -126q-35 -136 -156 -213q-57 -31 -122 -31q-35 0 -59 9.5t-30 46.5h-6q-48 -65 -161 -65
q-122 4 -145.5 77t-2.5 162q26 101 96.5 166.5t161.5 69.5q103 2 123 -70h7l-1 25l7 26h100l-77 -302q-10 -41 -2.5 -55t28.5 -14q58 -1 102 49t60 119q16 52 18.5 114t-28.5 122q-21 47 -59 78.5t-88.5 47.5t-115.5 16q-75 0 -152.5 -29t-140.5 -79.5t-108 -119t-65 -150.5
q-46 -188 43.5 -283.5t233.5 -95.5q104 2 203 55zM634 281q16 58 2.5 108.5t-79.5 50.5q-58 3 -100.5 -42.5t-58.5 -116.5q-17 -69 1 -113t79 -44q56 0 97.5 44t58.5 113z" />
    <glyph glyph-name="A" unicode="A" horiz-adv-x="628" 
d="M151 184l-108 -184h-99l415 718h104l120 -718h-100l-30 184h-302zM195 266h249l-50 352z" />
    <glyph glyph-name="B" unicode="B" horiz-adv-x="695" 
d="M178 718h301q81 0 136 -34.5t58 -110.5q0 -84 -55 -142q-41 -41 -88 -56v-2q46 -9 78.5 -43t29.5 -103q-3 -63 -36 -112.5t-84 -78.5q-65 -36 -182 -36h-310zM255 634l-45 -223h193q61 0 98 23q32 17 50.5 48t18.5 64q5 56 -42 76q-27 12 -79 12h-194zM192 331l-53 -250
h201q74 0 115 20q78 43 80 130q0 64 -52 85q-30 15 -91 15h-200z" />
    <glyph glyph-name="C" unicode="C" horiz-adv-x="718" 
d="M583 236h100q-20 -82 -78 -151q-92 -107 -261 -111q-136 0 -215 69.5t-83 211.5q0 82 26.5 182.5t108.5 186.5q63 64 132.5 89t145.5 27q160 0 230 -81q52 -65 38 -165h-99q6 26 0.5 58.5t-28.5 56.5q-39 51 -145 48q-130 -8 -209 -102q-44 -54 -68.5 -132t-24.5 -150
q3 -104 57 -161.5t145 -55.5q103 0 157.5 60.5t70.5 119.5z" />
    <glyph glyph-name="D" unicode="D" horiz-adv-x="718" 
d="M175 718h249q58 0 105 -10.5t86 -38.5q100 -72 99 -229q-2 -74 -21 -141.5t-54.5 -125.5t-85.5 -98q-62 -48 -127 -61.5t-163 -13.5h-239zM253 634l-117 -553h142q67 0 122.5 15t98.5 55q49 46 80 123.5t32 159.5q5 121 -57.5 160.5t-143.5 39.5h-157z" />
    <glyph glyph-name="E" unicode="E" horiz-adv-x="618" 
d="M205 410h376l-18 -80h-375l-52 -246h426l-18 -84h-523l154 718h510l-18 -85h-414z" />
    <glyph glyph-name="F" unicode="F" horiz-adv-x="562" 
d="M204 403h336l-18 -83h-337l-69 -320h-95l154 718h479l-16 -85h-385z" />
    <glyph glyph-name="G" unicode="G" horiz-adv-x="740" 
d="M420 373h294l-81 -373h-74l20 92h-3q-47 -62 -105.5 -86.5t-142.5 -26.5q-109 -1 -173.5 43t-88.5 114.5t-21 151.5q8 182 114 315q61 79 139.5 108t176.5 29q148 0 217 -83q26 -33 37 -74t5 -78h-100q9 65 -31 106q-46 48 -137 48q-155 0 -239 -125q-32 -46 -51.5 -109
t-24.5 -135q-3 -78 20.5 -129t71 -76t112.5 -25q115 0 191 93q42 54 63 138h-206z" />
    <glyph glyph-name="H" unicode="H" horiz-adv-x="718" 
d="M195 336l-71 -336h-97l154 718h94l-64 -300h362l61 300h99l-152 -718h-98l72 336h-360z" />
    <glyph glyph-name="I" unicode="I" horiz-adv-x="271" 
d="M184 718h95l-152 -718h-95z" />
    <glyph glyph-name="J" unicode="J" horiz-adv-x="515" 
d="M8 236h97q-13 -52 -13 -80q3 -94 99 -94q79 0 117 59q27 47 38 117l104 480h96l-100 -472q-25 -119 -63 -173q-55 -89 -198 -89q-186 -5 -186 162q0 57 9 90z" />
    <glyph glyph-name="K" unicode="K" horiz-adv-x="674" 
d="M201 364l429 354h127l-365 -307l238 -411h-121l-198 355l-133 -111l-53 -244h-98l154 718h97z" />
    <glyph glyph-name="L" unicode="L" horiz-adv-x="538" 
d="M509 84l-20 -84h-462l154 718h97l-135 -634h366z" />
    <glyph glyph-name="M" unicode="M" horiz-adv-x="873" 
d="M344 0l-108 581h-2l-4 -26l-119 -555h-87l151 718h123l112 -593l349 593h133l-152 -718h-90l119 555l10 26h-5l-350 -581h-80z" />
    <glyph glyph-name="N" unicode="N" horiz-adv-x="740" 
d="M243 562l-119 -562h-98l153 718h94l267 -562l119 562h95l-151 -718h-95z" />
    <glyph glyph-name="O" unicode="O" horiz-adv-x="760" 
d="M346 -21q-181 -1 -241 85.5t-60 191.5q0 79 24 169t77 163q115 149 309 149q137 3 218 -66.5t81 -208.5q2 -57 -9 -115.5t-34 -114t-57 -102.5q-64 -89 -141 -119t-167 -32zM356 59q67 2 125.5 29t106.5 110q30 55 47.5 122.5t17.5 125.5q-1 104 -57 158t-152 50
q-64 0 -118.5 -26t-101.5 -98q-75 -112 -75 -259q-1 -133 67 -172.5t140 -39.5z" />
    <glyph glyph-name="P" unicode="P" horiz-adv-x="650" 
d="M181 718h276q116 0 167.5 -40t54.5 -119q0 -60 -24.5 -119.5t-69.5 -96.5q-37 -32 -86 -45t-107 -13h-208l-60 -285h-97zM260 634l-59 -268h184q84 0 129 37q61 47 61 140q-1 53 -38 72t-107 19h-170z" />
    <glyph glyph-name="Q" unicode="Q" horiz-adv-x="760" 
d="M585 56l55 -82l-65 -49l-61 89q-63 -34 -168 -35q-183 -1 -242 84t-59 193q0 79 24 168.5t77 163.5q115 149 309 149q60 3 126.5 -14.5t121 -82.5t51.5 -191q0 -144 -62 -258q-41 -79 -107 -135zM534 130q48 45 77 113q19 43 30.5 99.5t11.5 103.5q-1 104 -57 158
t-152 50q-64 0 -118.5 -26t-101.5 -98q-75 -112 -75 -259q-1 -133 67 -172.5t140 -39.5q63 1 110 25l-63 91l63 50z" />
    <glyph glyph-name="R" unicode="R" horiz-adv-x="695" 
d="M30 0l154 718h304q73 0 136 -29q74 -40 74 -136q0 -72 -58 -150q-56 -44 -91 -59v-1q59 -26 62 -100q0 -16 -3 -34.5t-16 -87.5q-10 -50 -11.5 -61t1 -28t12.5 -32h-102q-11 31 -10.5 48.5t10.5 75.5q17 80 17 101q0 48 -31.5 63.5t-81.5 15.5h-205l-66 -304h-95z
M263 634l-55 -251h215q73 0 121 40q51 46 50 120q-2 91 -119 91h-212z" />
    <glyph glyph-name="S" unicode="S" horiz-adv-x="650" 
d="M34 227h97q-14 -76 25 -119q42 -46 135 -46q106 -1 154.5 47.5t48.5 104.5q-1 40 -21.5 61t-46 29t-82.5 20q-109 26 -148 39.5t-65 45t-26 94.5q0 100 70 160q46 46 105.5 61.5t124.5 15.5q152 0 206 -73q27 -32 32 -71.5t-2 -67.5h-91q6 53 -22 86q-34 46 -129 43
q-94 -1 -141.5 -43.5t-47.5 -93.5q0 -46 34 -65.5t122 -38.5q120 -24 177.5 -54.5t61.5 -117.5q3 -53 -18.5 -102.5t-58.5 -85.5q-46 -44 -108 -58t-136 -14q-177 0 -230 89q-20 36 -23 76.5t3 77.5z" />
    <glyph glyph-name="T" unicode="T" 
d="M323 633h-232l17 85h561l-19 -85h-232l-134 -633h-96z" />
    <glyph glyph-name="U" unicode="U" horiz-adv-x="695" 
d="M162 718h94l-90 -428q-7 -42 -13 -92q0 -132 152 -133q111 0 171 69q26 30 41 69.5t26 86.5l87 428h98l-95 -440q-25 -140 -99 -213q-48 -47 -104.5 -63t-124.5 -16q-97 0 -170 36t-76 156q-2 21 7 100z" />
    <glyph glyph-name="V" unicode="V" 
d="M266 97l326 621h102l-390 -718h-123l-97 718h101z" />
    <glyph glyph-name="W" unicode="W" horiz-adv-x="898" 
d="M515 603l-252 -603h-133l-39 718h104l25 -604l261 604h117l32 -604l262 604h112l-331 -718h-124z" />
    <glyph glyph-name="X" unicode="X" horiz-adv-x="605" 
d="M311 304l-252 -304h-115l320 379l-169 339h115l133 -284l232 284h117l-304 -359l182 -359h-115z" />
    <glyph glyph-name="Y" unicode="Y" horiz-adv-x="605" 
d="M334 389l260 329h115l-345 -420l-63 -298h-96l64 298l-177 420h109z" />
    <glyph glyph-name="Z" unicode="Z" horiz-adv-x="605" 
d="M508 633h-383l20 85h509l-14 -78l-529 -556h432l-19 -84h-551l17 85z" />
    <glyph glyph-name="bracketleft" unicode="[" horiz-adv-x="359" 
d="M195 718h216l-12 -65h-126l-168 -778h126l-13 -66h-217z" />
    <glyph glyph-name="backslash" unicode="\" horiz-adv-x="674" 
d="M92 734l61 33l426 -793l-59 -33z" />
    <glyph glyph-name="bracketright" unicode="]" horiz-adv-x="359" 
d="M140 718h216l-191 -909h-216l15 66h121l168 778h-126z" />
    <glyph glyph-name="asciicircum" unicode="^" horiz-adv-x="494" 
d="M151 718h192l101 -143h-75l-123 106l-122 -106h-75z" />
    <glyph glyph-name="asciicircum" horiz-adv-x="494" 
d="M151 718h192l101 -143h-75l-123 106l-122 -106h-75z" />
    <glyph glyph-name="underscore" unicode="_" horiz-adv-x="494" 
d="M-6 -191v83h507v-83h-507z" />
    <glyph glyph-name="underscore" unicode="&#xad;" horiz-adv-x="494" 
d="M-6 -191v83h507v-83h-507z" />
    <glyph glyph-name="grave" unicode="`" horiz-adv-x="314" 
d="M279 585l-26 -112h-100l25 116q13 69 49 105q26 30 84 43l-12 -56q-35 -8 -48 -28.5t-24 -63.5v-4h52z" />
    <glyph glyph-name="a" unicode="a" horiz-adv-x="562" 
d="M162 366h-87q15 72 81 128q56 40 164 40q116 1 165 -51q40 -39 18 -119l-54 -240q-11 -49 6 -55q8 -4 34 -4l-14 -65q-9 -1 -39 -1q-49 -4 -63 22q-10 12 -10 41q-65 -75 -184 -78q-164 -10 -173 126q-6 116 105 161q34 15 79.5 22.5t108.5 11.5q84 7 102 26q17 25 17 68
q5 71 -98 71q-75 0 -115 -30q-34 -30 -43 -74zM392 263q-12 -10 -24 -13.5t-40 -6.5t-88 -9q-62 -8 -103 -31.5t-40 -81.5q3 -75 87 -75q92 6 150 72q34 45 47 106z" />
    <glyph glyph-name="b" unicode="b" horiz-adv-x="605" 
d="M166 718h94l-55 -248q74 70 180 70q65 0 127.5 -37t62.5 -160q0 -152 -76 -258q-91 -106 -215 -106q-119 0 -168 92h-2l-13 -71h-87zM156 263q-11 -42 -11 -82q0 -83 39 -109.5t80 -26.5q101 -3 166 91q51 93 51 195q3 54 -19 100.5t-99 43.5q-90 -1 -139.5 -65.5
t-67.5 -146.5z" />
    <glyph glyph-name="c" unicode="c" horiz-adv-x="562" 
d="M423 184h86q-14 -66 -59 -113q-71 -87 -197 -87q-101 -3 -159 50t-58 157q-2 129 75 239q81 110 229 110q136 0 180 -78q26 -50 20 -106h-85q0 123 -115 119q-99 0 -156 -94q-53 -80 -53 -197q0 -44 26 -92t106 -47q64 0 102.5 38t57.5 101z" />
    <glyph glyph-name="d" unicode="d" horiz-adv-x="605" 
d="M543 718h90l-154 -718h-85l11 56h-2q-29 -40 -78 -58.5t-101 -18.5q-79 0 -138 47t-56 169q3 135 71 228q78 111 223 117q129 0 161 -87zM131 249q-6 -33 -6 -68q0 -141 124 -136q97 0 159 98q23 40 36.5 90t14.5 98q3 67 -28.5 105.5t-94.5 38.5q-86 0 -136.5 -66
t-68.5 -160z" />
    <glyph glyph-name="e" unicode="e" 
d="M424 151h90q-61 -162 -235 -165q-92 -7 -166.5 32.5t-78.5 165.5q-1 37 7 83t25.5 88.5t44.5 78.5q56 65 121 85.5t127 18.5q191 -8 191 -185q0 -40 -10 -113h-406q-16 -62 6 -122q32 -72 120 -72q116 -3 164 105zM146 304h311q5 30 5 49q3 120 -116 120q-88 5 -147 -63
q-38 -46 -53 -106z" />
    <glyph glyph-name="f" unicode="f" horiz-adv-x="314" 
d="M363 520l-17 -67h-112l-95 -453h-93l99 453h-99l16 67h97l14 69q10 54 41 87q43 44 126 44q21 0 34.5 -0.5t28.5 -1.5l-14 -68q-24 6 -59 3q-60 -6 -67 -72l-14 -61h114z" />
    <glyph glyph-name="g" unicode="g" horiz-adv-x="605" 
d="M13 -59h88q0 -34 31 -55t86 -20q73 0 122 49q40 38 56 112l9 39q-61 -68 -174 -65q-191 9 -195 200q-3 136 74 237q75 94 204 102q59 3 107 -20t67 -71h4l13 71h87l-103 -477q-13 -67 -37 -117.5t-89 -90.5q-60 -33 -145 -33q-101 -2 -153 33t-52 106zM256 65
q48 2 89.5 26.5t65.5 70.5q22 37 35 88.5t13 89.5q0 63 -32 98.5t-93 34.5q-57 -1 -95 -29.5t-58 -62.5q-50 -73 -50 -177q0 -139 125 -139z" />
    <glyph glyph-name="h" unicode="h" 
d="M169 718h91l-55 -256q72 74 189 72q70 0 107 -32.5t37 -91.5q0 -26 -8 -66l-75 -344h-89l68 318q10 46 10 74q0 36 -24 55t-65 16q-80 -1 -131 -55q-39 -39 -58 -124l-58 -284h-92z" />
    <glyph glyph-name="i" unicode="i" horiz-adv-x="225" 
d="M124 520h90l-110 -520h-91zM143 622l19 96h98l-20 -96h-97z" />
    <glyph glyph-name="i" unicode="&#x456;" horiz-adv-x="225" 
d="M124 520h90l-110 -520h-91zM143 622l19 96h98l-20 -96h-97z" />
    <glyph glyph-name="i" unicode="&#xb3;" horiz-adv-x="225" 
d="M124 520h90l-110 -520h-91zM143 622l19 96h98l-20 -96h-97z" />
    <glyph glyph-name="j" unicode="j" horiz-adv-x="225" 
d="M121 520h93l-122 -566q-17 -77 -46 -105q-38 -40 -108 -41q-15 0 -27.5 0.5t-28.5 0.5l14 67q51 -2 72 14q27 22 36 74zM140 622l20 96h96l-18 -96h-98z" />
    <glyph glyph-name="k" unicode="k" horiz-adv-x="527" 
d="M171 281l286 239h118l-245 -206l158 -314h-107l-128 263l-107 -85l-36 -178h-94l155 718h92z" />
    <glyph glyph-name="l" unicode="l" horiz-adv-x="225" 
d="M165 718h90l-151 -718h-91z" />
    <glyph glyph-name="m" unicode="m" horiz-adv-x="873" 
d="M116 520h88l-13 -63h1q64 72 164 77q63 0 97 -25t42 -65q73 92 197 86q48 0 94.5 -23t46.5 -93q2 -42 -9 -78l-71 -336h-90l70 330q15 73 0 104q-20 32 -73 32q-65 0 -111 -46q-42 -34 -57 -110l-68 -310h-90l69 330q16 67 -2 104q-18 35 -70 32q-56 0 -106 -46
q-48 -42 -60 -110l-68 -310h-91z" />
    <glyph glyph-name="n" unicode="n" 
d="M127 520h89l-12 -58h1q72 74 189 72q70 0 107 -32.5t37 -91.5q0 -26 -8 -66l-75 -344h-89l68 318q10 46 10 74q0 36 -24 55t-65 16q-80 -1 -131 -55q-39 -39 -58 -124l-58 -284h-92z" />
    <glyph glyph-name="o" unicode="o" 
d="M36 275q24 110 94 180q80 85 208 85q42 2 91.5 -11t89 -61.5t36.5 -144.5q0 -127 -74 -228q-49 -67 -105.5 -90.5t-131.5 -25.5q-100 0 -158.5 52.5t-58.5 160.5q0 18 9 83zM130 250q-5 -32 -5 -58q0 -93 41 -121t84 -28q105 0 160 97q45 76 49 183q3 95 -40 124t-88 29
q-84 0 -134 -63.5t-67 -162.5z" />
    <glyph glyph-name="p" unicode="p" horiz-adv-x="605" 
d="M125 520h86l-16 -71h3q78 94 196 94q87 0 135.5 -52.5t45.5 -150.5q0 -124 -72 -241q-78 -115 -218 -115q-126 0 -164 89l-56 -264h-91zM153 256q-8 -25 -8 -65q0 -89 42.5 -117.5t81.5 -28.5q104 -3 165 111q45 79 45 187q0 139 -129 132q-148 -6 -197 -219z" />
    <glyph glyph-name="q" unicode="q" horiz-adv-x="605" 
d="M503 520h86l-149 -711h-94l55 247q-71 -72 -181 -72q-89 -3 -138.5 51.5t-49.5 149.5q0 144 76 245q83 113 222 113q115 0 158 -94h1zM136 260q-9 -39 -9 -79q0 -48 22 -93.5t95 -42.5q107 2 167 111q48 79 48 182q3 59 -26 98t-93 39q-82 0 -133.5 -61.5t-70.5 -153.5z
" />
    <glyph glyph-name="r" unicode="r" horiz-adv-x="359" 
d="M411 527l-17 -78q-81 11 -150 -35q-43 -34 -61.5 -73t-33.5 -103l-50 -238h-91l110 520h87l-20 -84h6q36 53 97 75q47 20 123 16z" />
    <glyph glyph-name="s" unicode="s" horiz-adv-x="505" 
d="M13 153h91q-8 -31 12 -68q36 -39 109 -39q74 0 113 45q26 23 26 62q1 34 -20 49.5t-71 24.5q-20 4 -51.5 11t-54.5 14.5t-37 16.5q-49 28 -49 84q-3 82 62 135q54 47 161 47q122 0 162 -52q30 -33 28 -100h-89q0 33 -11 53q-27 34 -89 37q-55 0 -100 -29q-32 -30 -32 -69
q1 -28 19 -42t45.5 -21t70.5 -14q81 -19 118 -42.5t37 -80.5q0 -82 -60 -135q-67 -52 -179 -54q-127 0 -181 57q-42 46 -30 110z" />
    <glyph glyph-name="s" horiz-adv-x="505" 
d="M13 153h91q-8 -31 12 -68q36 -39 109 -39q74 0 113 45q26 23 26 62q1 34 -20 49.5t-71 24.5q-20 4 -51.5 11t-54.5 14.5t-37 16.5q-49 28 -49 84q-3 82 62 135q54 47 161 47q122 0 162 -52q30 -33 28 -100h-89q0 33 -11 53q-27 34 -89 37q-55 0 -100 -29q-32 -30 -32 -69
q1 -28 19 -42t45.5 -21t70.5 -14q81 -19 118 -42.5t37 -80.5q0 -82 -60 -135q-67 -52 -179 -54q-127 0 -181 57q-42 46 -30 110z" />
    <glyph glyph-name="t" unicode="t" horiz-adv-x="314" 
d="M62 520h91l32 154h93l-34 -154h111l-12 -67h-112l-71 -328q-6 -38 -1.5 -55t42.5 -16q11 0 32.5 5t26.5 6l-16 -65q-61 -14 -91 -14q-47 0 -70.5 16.5t-23.5 53.5q0 19 6 49l74 348h-93z" />
    <glyph glyph-name="u" unicode="u" 
d="M455 0h-89l15 59h-2q-70 -73 -191 -73q-69 1 -106 33.5t-37 90.5q0 38 9 63l73 347h89l-67 -319q-9 -41 -9 -74q0 -34 23 -53.5t64 -17.5q78 3 132 55q41 41 57 125l59 284h94z" />
    <glyph glyph-name="v" unicode="v" horiz-adv-x="473" 
d="M201 91l233 429h101l-297 -520h-108l-85 520h98z" />
    <glyph glyph-name="w" unicode="w" horiz-adv-x="728" 
d="M392 416l-188 -416h-103l-58 520h91l39 -416l183 416h103l24 -416l205 416h99l-265 -520h-108z" />
    <glyph glyph-name="x" unicode="x" horiz-adv-x="494" 
d="M260 324l163 196h112l-231 -256l136 -264h-102l-102 214l-177 -214h-115l251 278l-129 242h100z" />
    <glyph glyph-name="y" unicode="y" horiz-adv-x="494" 
d="M-8 -188l12 67q12 -4 42 -4q26 0 43 9.5t31 28.5t29 48l22 39l-117 520h108l78 -409l217 409h100l-330 -580q-35 -64 -69 -96.5t-93 -35.5q-33 -3 -73 4z" />
    <glyph glyph-name="z" unicode="z" horiz-adv-x="473" 
d="M101 520h388l-14 -67l-378 -388h311l-16 -65h-424l16 62l386 391h-285z" />
    <glyph glyph-name="braceleft" unicode="{" horiz-adv-x="549" 
d="M207 269l17 67q31 0 65 27q41 33 60 110q3 10 6.5 26.5t6.5 28.5q3 11 5.5 26.5t4.5 28.5q23 91 87 137q54 33 114 34l-13 -52q-74 -18 -94 -99q-9 -41 -11 -53q-2 -16 -5.5 -29.5t-6.5 -28.5q-16 -64 -54 -111t-109 -76l-2 -7q57 -28 72 -73t-2 -114q-10 -38 -17 -57
q-6 -18 -15 -54q-17 -82 45 -97l-14 -54q-71 6 -96 37q-43 41 -19 135q6 18 10 31t6 21q9 29 15 57q20 76 -4 113q-14 18 -52 26z" />
    <glyph glyph-name="bar" unicode="|" horiz-adv-x="513" 
d="M157 -191l254 1019h80l-254 -1019h-80z" />
    <glyph glyph-name="bar" unicode="&#xa6;" horiz-adv-x="513" 
d="M157 -191l254 1019h80l-254 -1019h-80z" />
    <glyph glyph-name="braceright" unicode="}" horiz-adv-x="494" 
d="M437 336l-17 -67q-41 -7 -64 -26q-40 -34 -61 -113q-4 -19 -14 -57q-4 -24 -12 -52q-24 -95 -83 -135q-40 -31 -119 -37l14 54q76 15 97 97q4 15 5.5 27t4.5 27q6 38 11 57q18 68 55 112.5t110 74.5l2 7q-57 29 -73 74t1 113q3 16 18 58q3 10 9 28.5t7 24.5
q8 24 0.5 56.5t-48.5 42.5l13 52q68 -1 101 -34q38 -45 15 -137q-6 -27 -14 -55q-2 -9 -6.5 -27t-7.5 -28q-8 -38 -9.5 -63.5t14.5 -46.5q19 -27 51 -27z" />
    <glyph glyph-name="asciitilde" unicode="~" horiz-adv-x="494" 
d="M430 718q-25 -58 -34 -70q-31 -40 -78 -43q-30 0 -84 22q-40 14 -56 14q-33 0 -44 -30h-69q9 43 34 74q32 33 72 33q31 2 92 -24q30 -13 48 -13q31 0 48 37h71z" />
    <glyph glyph-name="Agrave" horiz-adv-x="306" 
d="M71 320l179 135l-19 -91l-123 -91l87 -89l-17 -80l-127 132z" />
    <glyph glyph-name="quoteleft" horiz-adv-x="314" 
d="M279 585l-26 -112h-100l25 116q13 69 49 105q26 30 84 43l-12 -56q-35 -8 -48 -28.5t-24 -63.5v-4h52z" />
    <glyph glyph-name="quoteleft" unicode="&#x2018;" horiz-adv-x="314" 
d="M279 585l-26 -112h-100l25 116q13 69 49 105q26 30 84 43l-12 -56q-35 -8 -48 -28.5t-24 -63.5v-4h52z" />
    <glyph glyph-name="quoteright" horiz-adv-x="314" 
d="M178 605l26 113h100l-25 -120q-15 -70 -49 -104q-34 -31 -84 -41l13 56q35 8 48.5 31.5t19.5 57.5l3 7h-52z" />
    <glyph glyph-name="quoteright" unicode="&#x2019;" horiz-adv-x="314" 
d="M178 605l26 113h100l-25 -120q-15 -70 -49 -104q-34 -31 -84 -41l13 56q35 8 48.5 31.5t19.5 57.5l3 7h-52z" />
    <glyph glyph-name="quoteright" unicode="&#x491;" horiz-adv-x="314" 
d="M178 605l26 113h100l-25 -120q-15 -70 -49 -104q-34 -31 -84 -41l13 56q35 8 48.5 31.5t19.5 57.5l3 7h-52z" />
    <glyph glyph-name="quoteright" unicode="&#xb4;" horiz-adv-x="314" 
d="M178 605l26 113h100l-25 -120q-15 -70 -49 -104q-34 -31 -84 -41l13 56q35 8 48.5 31.5t19.5 57.5l3 7h-52z" />
    <glyph glyph-name="quotedblleft" horiz-adv-x="424" 
d="M250 585l-25 -112h-100l24 116q9 35 18 58.5t32 46.5q24 30 82 43l-10 -56q-60 -13 -72 -92v-4h51zM420 585l-26 -112h-99l23 116q13 67 51 105q24 30 81 43l-10 -56q-59 -14 -71 -92l-3 -4h54z" />
    <glyph glyph-name="quotedblleft" unicode="&#x201c;" horiz-adv-x="424" 
d="M250 585l-25 -112h-100l24 116q9 35 18 58.5t32 46.5q24 30 82 43l-10 -56q-60 -13 -72 -92v-4h51zM420 585l-26 -112h-99l23 116q13 67 51 105q24 30 81 43l-10 -56q-59 -14 -71 -92l-3 -4h54z" />
    <glyph glyph-name="quotedblright" horiz-adv-x="424" 
d="M151 605l22 113h102l-25 -120q-7 -34 -17 -58.5t-32 -45.5q-40 -32 -85 -41l14 56q35 8 48.5 30.5t22.5 58.5v7h-50zM320 605l23 113h101l-24 -120q-15 -70 -50 -104q-36 -31 -85 -41l14 56q56 12 71 89v7h-50z" />
    <glyph glyph-name="quotedblright" unicode="&#x201d;" horiz-adv-x="424" 
d="M151 605l22 113h102l-25 -120q-7 -34 -17 -58.5t-32 -45.5q-40 -32 -85 -41l14 56q35 8 48.5 30.5t22.5 58.5v7h-50zM320 605l23 113h101l-24 -120q-15 -70 -50 -104q-36 -31 -85 -41l14 56q56 12 71 89v7h-50z" />
    <glyph glyph-name="endash" horiz-adv-x="708" 
d="M65 385h608v-54h-608v54z" />
    <glyph glyph-name="endash" unicode="&#x2013;" horiz-adv-x="708" 
d="M65 385h608v-54h-608v54z" />
    <glyph glyph-name="emdash" horiz-adv-x="853" 
d="M49 240l13 64h743l-12 -64h-744z" />
    <glyph glyph-name="emdash" unicode="&#x2014;" horiz-adv-x="853" 
d="M49 240l13 64h743l-12 -64h-744z" />
    <glyph glyph-name="trademark" horiz-adv-x="1023" 
d="M296 660h-115l14 58h308l-14 -58h-114l-76 -304h-79zM677 356l-37 274h-4l-9 -45l-57 -229h-76l90 362h103l33 -248l-1 -36h4l18 36l158 248h102l-90 -362h-74l57 229l13 45h-6l-171 -274h-53z" />
    <glyph glyph-name="trademark" unicode="&#x2122;" horiz-adv-x="1023" 
d="M296 660h-115l14 58h308l-14 -58h-114l-76 -304h-79zM677 356l-37 274h-4l-9 -45l-57 -229h-76l90 362h103l33 -248l-1 -36h4l18 36l158 248h102l-90 -362h-74l57 229l13 45h-6l-171 -274h-53z" />
    <glyph glyph-name="Atilde" horiz-adv-x="306" 
d="M218 236l-182 -135l20 91l125 92l-86 86l16 83l125 -133z" />
    <glyph glyph-name="ydieresis" unicode="&#xa1;" 
d="M328 285l255 433h109l-361 -591q-53 -85 -102.5 -112t-112.5 -25q-34 0 -77 10l17 84q28 -10 65 -13q83 0 139 107l-161 540h109zM244 859h74q-3 -28 12 -56t70 -28q90 0 120 84h75q-19 -57 -68 -98q-53 -39 -123 -39q-88 0 -125 39q-42 38 -35 98z" />
    <glyph glyph-name="ydieresis" unicode="&#x40e;" 
d="M328 285l255 433h109l-361 -591q-53 -85 -102.5 -112t-112.5 -25q-34 0 -77 10l17 84q28 -10 65 -13q83 0 139 107l-161 540h109zM244 859h74q-3 -28 12 -56t70 -28q90 0 120 84h75q-19 -57 -68 -98q-53 -39 -123 -39q-88 0 -125 39q-42 38 -35 98z" />
    <glyph glyph-name="Ydieresis" unicode="&#xa2;" horiz-adv-x="494" 
d="M-8 -188l12 67q12 -4 42 -4q26 0 43 9.5t31 28.5t29 48l22 39l-117 520h108l78 -409l217 409h100l-330 -580q-35 -64 -69 -96.5t-93 -35.5q-33 -3 -73 4zM160 718h74q-3 -28 12 -56t70 -28q90 0 120 84h75q-19 -57 -68 -98q-53 -39 -123 -39q-88 0 -125 39q-42 38 -35 98
z" />
    <glyph glyph-name="Ydieresis" unicode="&#x45e;" horiz-adv-x="494" 
d="M-8 -188l12 67q12 -4 42 -4q26 0 43 9.5t31 28.5t29 48l22 39l-117 520h108l78 -409l217 409h100l-330 -580q-35 -64 -69 -96.5t-93 -35.5q-33 -3 -73 4zM160 718h74q-3 -28 12 -56t70 -28q90 0 120 84h75q-19 -57 -68 -98q-53 -39 -123 -39q-88 0 -125 39q-42 38 -35 98
z" />
    <glyph glyph-name="Ydieresis" unicode="&#x178;" horiz-adv-x="494" 
d="M-8 -188l12 67q12 -4 42 -4q26 0 43 9.5t31 28.5t29 48l22 39l-117 520h108l78 -409l217 409h100l-330 -580q-35 -64 -69 -96.5t-93 -35.5q-33 -3 -73 4zM160 718h74q-3 -28 12 -56t70 -28q90 0 120 84h75q-19 -57 -68 -98q-53 -39 -123 -39q-88 0 -125 39q-42 38 -35 98
z" />
    <glyph glyph-name="lozenge" unicode="&#xa3;" horiz-adv-x="424" 
d="M46 -4l22 113h102l-25 -120q-7 -34 -17 -58.5t-32 -45.5q-40 -32 -85 -41l14 56q35 8 48.5 30.5t22.5 58.5v7h-50zM215 -4l23 113h101l-24 -120q-15 -70 -50 -104q-36 -31 -85 -41l14 56q56 12 71 89v7h-50z" />
    <glyph glyph-name="lozenge" unicode="&#x408;" horiz-adv-x="424" 
d="M46 -4l22 113h102l-25 -120q-7 -34 -17 -58.5t-32 -45.5q-40 -32 -85 -41l14 56q35 8 48.5 30.5t22.5 58.5v7h-50zM215 -4l23 113h101l-24 -120q-15 -70 -50 -104q-36 -31 -85 -41l14 56q56 12 71 89v7h-50z" />
    <glyph glyph-name="caron" unicode="&#xa4;" horiz-adv-x="606" 
d="M208 659l40 32l75 -101q33 21 69 34q29 9 69 11q33 0 66 -11q31 -12 51 -34l125 101l24 -32l-126 -100q15 -26 18 -61q2 -24 -5 -66q-9 -35 -28 -66q-18 -30 -48 -60l76 -101l-40 -32l-75 101q-27 -19 -68 -33q-36 -11 -71 -11q-36 0 -64 11q-31 12 -52 33l-125 -101
l-24 32l126 101q-13 25 -18 60q-3 27 6 66q8 35 27 66q19 32 48 61zM552 544q-34 45 -101 46q-66 0 -122 -46q-58 -45 -74 -111q-16 -64 18 -112q35 -46 100 -46q64 0 123 46q56 46 74 112q16 65 -18 111z" />
    <glyph glyph-name="section" unicode="&#xa7;" 
d="M444 570q6 18 6 41q0 26 -17 45t-52 18q-42 0 -66.5 -24.5t-29.5 -61.5q0 -34 19.5 -52.5t80.5 -46.5q75 -33 110.5 -68.5t38.5 -96.5q0 -82 -59 -143q-41 -48 -106 -65q40 -18 42 -77q6 -84 -56 -138q-50 -47 -137 -47q-105 0 -139 61q-17 28 -17 58.5t7 60.5l74 -2
q-9 -53 8 -77q18 -32 69 -34q51 -3 81 36q23 34 19 64q-1 33 -19 45.5t-70 37.5q-62 30 -88 45t-48.5 47t-23.5 85q-3 91 65 155q49 40 94 47q-35 35 -35 92q0 80 58 127q53 38 128 42q87 0 117 -35t30 -79q0 -24 -8 -60h-76zM311 153q57 16 99 63q34 41 33 94q0 48 -54 84
q-41 31 -104 50q-50 -4 -90 -55q-33 -37 -33 -88q0 -47 23 -72t90 -58q30 -14 36 -18z" />
    <glyph glyph-name="guilsinglright" unicode="&#xa8;" horiz-adv-x="618" 
d="M295 789l16 83h97l-19 -83h-94zM514 789l16 83h98l-17 -83h-97zM205 410h376l-18 -80h-375l-52 -246h426l-18 -84h-523l154 718h510l-18 -85h-414z" />
    <glyph glyph-name="guilsinglright" unicode="&#x203a;" horiz-adv-x="618" 
d="M295 789l16 83h97l-19 -83h-94zM514 789l16 83h98l-17 -83h-97zM205 410h376l-18 -80h-375l-52 -246h426l-18 -84h-523l154 718h510l-18 -85h-414z" />
    <glyph glyph-name="guilsinglright" unicode="&#x401;" horiz-adv-x="618" 
d="M295 789l16 83h97l-19 -83h-94zM514 789l16 83h98l-17 -83h-97zM205 410h376l-18 -80h-375l-52 -246h426l-18 -84h-523l154 718h510l-18 -85h-414z" />
    <glyph glyph-name="copyright" unicode="&#xa9;" horiz-adv-x="909" 
d="M155 356q26 104 96.5 186t165 129t186.5 47q104 0 173 -50.5t94 -134t2 -177.5q-26 -102 -98 -184.5t-165.5 -127t-184.5 -44.5q-105 0 -174.5 51.5t-93.5 134.5t-1 170zM223 356q-22 -89 2.5 -158t82 -106.5t129.5 -37.5q117 0 226 86.5t141 215.5q22 91 -2 160
t-82 106.5t-131 37.5q-75 0 -152 -39t-134.5 -108.5t-79.5 -156.5zM565 304h68q-15 -35 -53 -70q-62 -59 -135 -59q-88 -1 -109.5 38t-15.5 85q10 50 41.5 105.5t75.5 91.5q65 55 144 55q82 0 105 -39q19 -36 -3 -77h-61q10 26 0 47t-54 20q-54 0 -96 -46
q-26 -26 -46.5 -65.5t-29.5 -78.5q-9 -42 9 -64t55 -20q39 0 67.5 27.5t37.5 49.5z" />
    <glyph glyph-name="guillemotleft" unicode="&#xab;" horiz-adv-x="473" 
d="M71 320l179 135l-19 -91l-123 -91l87 -89l-17 -80l-127 132zM260 320l183 135l-20 -91l-125 -91l85 -89l-17 -80l-123 132z" />
    <glyph glyph-name="logicalnot" unicode="&#xac;" horiz-adv-x="625" 
d="M158 389l12 48h502l-52 -209h-47l40 161h-455z" />
    <glyph glyph-name="registered" unicode="&#xae;" horiz-adv-x="912" 
d="M155 356q26 104 97.5 187.5t166.5 129t184 45.5q105 0 174 -52.5t93.5 -136t1.5 -173.5q-19 -77 -65 -142.5t-109.5 -114t-133.5 -74t-140 -25.5q-103 0 -172.5 50.5t-94.5 132.5t-2 173zM223 356q-22 -89 2.5 -158t82 -106.5t129.5 -37.5q117 0 226 86.5t141 215.5
q22 91 -2 160t-82 106.5t-131 37.5q-75 0 -152 -39t-134.5 -108.5t-79.5 -156.5zM368 181h-67l168 359h125q65 0 82 -10q44 -18 30 -71q-20 -79 -108 -104l-1 -2q38 -9 28 -49q-2 -10 -15.5 -39.5t-17.5 -34.5q-15 -29 -7 -49h-70q-4 17 7 43q21 39 26 66q7 27 -6.5 33.5
t-49.5 6.5h-55zM512 492l-54 -113h79q43 0 67.5 22.5t27.5 48.5q7 26 -7.5 34t-42.5 8h-70z" />
    <glyph glyph-name="integral" unicode="&#xaf;" horiz-adv-x="271" 
d="M184 718h95l-152 -718h-95zM92 792l19 95h109l-19 -95h-109zM295 792l19 95h109l-20 -95h-108z" />
    <glyph glyph-name="integral" unicode="&#x407;" horiz-adv-x="271" 
d="M184 718h95l-152 -718h-95zM92 792l19 95h109l-19 -95h-109zM295 792l19 95h109l-20 -95h-108z" />
    <glyph glyph-name="degree" unicode="&#xb0;" horiz-adv-x="271" 
d="M111 618q0 44 30.5 72t68.5 28q39 0 69.5 -27.5t30.5 -72.5q0 -40 -30 -69t-70 -29q-43 0 -71 30t-28 68zM160 618q0 -19 14 -34t36 -15q20 0 36.5 14t16.5 35q0 23 -16.5 37t-36.5 14t-35 -13.5t-15 -37.5z" />
    <glyph glyph-name="plusminus" unicode="&#xb1;" horiz-adv-x="625" 
d="M395 231h-49l35 143h-227l12 48h227l36 144h49l-36 -144h227l-12 -48h-227zM77 63l12 49h503l-12 -49h-503z" />
    <glyph glyph-name="germandbls" unicode="&#xb2;" horiz-adv-x="271" 
d="M184 718h95l-152 -718h-95zM185 792l20 95h125l-20 -95h-125z" />
    <glyph glyph-name="germandbls" unicode="&#x406;" horiz-adv-x="271" 
d="M184 718h95l-152 -718h-95zM185 792l20 95h125l-20 -95h-125z" />
    <glyph glyph-name="paragraph" unicode="&#xb6;" horiz-adv-x="543" 
d="M78 -191l142 570q-72 1 -108 50t-19 120q17 66 76.5 116t134.5 53h83l-226 -909h-83zM227 -191l226 909h81l-226 -909h-81z" />
    <glyph glyph-name="bullet" unicode="&#xb7;" horiz-adv-x="708" 
d="M281 356q0 40 27 65t62 25q38 0 62.5 -26.5t24.5 -63.5t-26.5 -61t-60.5 -24q-38 0 -63.5 26.5t-25.5 58.5z" />
    <glyph glyph-name="bullet" unicode="&#x2022;" horiz-adv-x="708" 
d="M281 356q0 40 27 65t62 25q38 0 62.5 -26.5t24.5 -63.5t-26.5 -61t-60.5 -24q-38 0 -63.5 26.5t-25.5 58.5z" />
    <glyph glyph-name="fi" unicode="&#xb8;" 
d="M424 151h90q-61 -162 -235 -165q-92 -7 -166.5 32.5t-78.5 165.5q-1 37 7 83t25.5 88.5t44.5 78.5q56 65 121 85.5t127 18.5q191 -8 191 -185q0 -40 -10 -113h-406q-16 -62 6 -122q32 -72 120 -72q116 -3 164 105zM199 622l21 96h94l-19 -96h-96zM443 622l20 96h96
l-21 -96h-95zM146 304h311q5 30 5 49q3 120 -116 120q-88 5 -147 -63q-38 -46 -53 -106z" />
    <glyph glyph-name="fi" unicode="&#x451;" 
d="M424 151h90q-61 -162 -235 -165q-92 -7 -166.5 32.5t-78.5 165.5q-1 37 7 83t25.5 88.5t44.5 78.5q56 65 121 85.5t127 18.5q191 -8 191 -185q0 -40 -10 -113h-406q-16 -62 6 -122q32 -72 120 -72q116 -3 164 105zM199 622l21 96h94l-19 -96h-96zM443 622l20 96h96
l-21 -96h-95zM146 304h311q5 30 5 49q3 120 -116 120q-88 5 -147 -63q-38 -46 -53 -106z" />
    <glyph glyph-name="guilsinglleft" unicode="&#xb9;" horiz-adv-x="1122" 
d="M236 562l-120 -562h-95l154 718h94l265 -562l119 562h97l-152 -718h-95zM753 350q14 96 86 153q51 40 109 40q54 0 90 -25q62 -37 57 -124q-4 -106 -67 -174q-55 -60 -135 -60q-54 0 -91 21q-59 41 -54 124q0 22 5 45zM692 0l16 75h311l-17 -75h-310zM830 346
q0 -10 -0.5 -17t-1.5 -15q-7 -90 71 -90q32 1 52 17t36 40q17 34 28 104q3 45 -15.5 68.5t-56.5 21.5q-46 0 -74 -39q-26 -35 -39 -90z" />
    <glyph glyph-name="guilsinglleft" unicode="&#x2116;" horiz-adv-x="1122" 
d="M236 562l-120 -562h-95l154 718h94l265 -562l119 562h97l-152 -718h-95zM753 350q14 96 86 153q51 40 109 40q54 0 90 -25q62 -37 57 -124q-4 -106 -67 -174q-55 -60 -135 -60q-54 0 -91 21q-59 41 -54 124q0 22 5 45zM692 0l16 75h311l-17 -75h-310zM830 346
q0 -10 -0.5 -17t-1.5 -15q-7 -90 71 -90q32 1 52 17t36 40q17 34 28 104q3 45 -15.5 68.5t-56.5 21.5q-46 0 -74 -39q-26 -35 -39 -90z" />
    <glyph glyph-name="guilsinglleft" unicode="&#x2039;" horiz-adv-x="1122" 
d="M236 562l-120 -562h-95l154 718h94l265 -562l119 562h97l-152 -718h-95zM753 350q14 96 86 153q51 40 109 40q54 0 90 -25q62 -37 57 -124q-4 -106 -67 -174q-55 -60 -135 -60q-54 0 -91 21q-59 41 -54 124q0 22 5 45zM692 0l16 75h311l-17 -75h-310zM830 346
q0 -10 -0.5 -17t-1.5 -15q-7 -90 71 -90q32 1 52 17t36 40q17 34 28 104q3 45 -15.5 68.5t-56.5 21.5q-46 0 -74 -39q-26 -35 -39 -90z" />
    <glyph glyph-name="guillemotright" unicode="&#xbb;" horiz-adv-x="473" 
d="M218 236l-182 -135l20 91l125 92l-86 86l16 83l125 -133zM408 236l-183 -135l19 91l126 92l-86 86l17 83l123 -133z" />
    <glyph glyph-name="divide" unicode="&#xbc;" horiz-adv-x="640" 
d="M264 483q0 27 19 43.5t41 16.5q27 0 43 -18.5t16 -41.5q0 -25 -18.5 -42.5t-40.5 -17.5q-26 0 -43 18t-17 42zM264 192q0 26 19 43.5t41 17.5q28 0 43.5 -17.5t15.5 -43.5q0 -25 -18 -43t-41 -18q-26 0 -43 19t-17 42zM66 304v69h515v-69h-515z" />
    <glyph glyph-name="divide" unicode="&#x458;" horiz-adv-x="640" 
d="M264 483q0 27 19 43.5t41 16.5q27 0 43 -18.5t16 -41.5q0 -25 -18.5 -42.5t-40.5 -17.5q-26 0 -43 18t-17 42zM264 192q0 26 19 43.5t41 17.5q28 0 43.5 -17.5t15.5 -43.5q0 -25 -18 -43t-41 -18q-26 0 -43 19t-17 42zM66 304v69h515v-69h-515z" />
    <glyph glyph-name="dieresis" unicode="&#xbd;" horiz-adv-x="708" 
d="M112 163l246 196l-147 195l45 36l146 -195l247 197l28 -38l-246 -197l147 -196l-45 -36l-147 196l-246 -197z" />
    <glyph glyph-name="dieresis" unicode="&#x405;" horiz-adv-x="708" 
d="M112 163l246 196l-147 195l45 36l146 -195l247 197l28 -38l-246 -197l147 -196l-45 -36l-147 196l-246 -197z" />
    <glyph glyph-name="ellipsis" unicode="&#xbe;" horiz-adv-x="940" 
d="M45 0l26 111h100l-25 -111h-101zM364 0l24 111h101l-23 -111h-102zM683 0l22 111h104l-26 -111h-100z" />
    <glyph glyph-name="ellipsis" unicode="&#x2026;" horiz-adv-x="940" 
d="M45 0l26 111h100l-25 -111h-101zM364 0l24 111h101l-23 -111h-102zM683 0l22 111h104l-26 -111h-100z" />
    <glyph glyph-name="ellipsis" unicode="&#x455;" horiz-adv-x="940" 
d="M45 0l26 111h100l-25 -111h-101zM364 0l24 111h101l-23 -111h-102zM683 0l22 111h104l-26 -111h-100z" />
    <glyph glyph-name="ordfeminine" unicode="&#xbf;" horiz-adv-x="225" 
d="M124 520h90l-110 -520h-91zM21 622l19 96h96l-20 -96h-95zM264 622l20 96h95l-20 -96h-95z" />
    <glyph glyph-name="ordfeminine" unicode="&#x457;" horiz-adv-x="225" 
d="M124 520h90l-110 -520h-91zM21 622l19 96h96l-20 -96h-95zM264 622l20 96h95l-20 -96h-95z" />
    <glyph glyph-name="Adieresis" unicode="&#xc0;" horiz-adv-x="628" 
d="M151 184l-108 -184h-99l415 718h104l120 -718h-100l-30 184h-302zM195 266h249l-50 352z" />
    <glyph glyph-name="Adieresis" unicode="&#x410;" horiz-adv-x="628" 
d="M151 184l-108 -184h-99l415 718h104l120 -718h-100l-30 184h-302zM195 266h249l-50 352z" />
    <glyph glyph-name="Aring" unicode="&#xc1;" horiz-adv-x="674" 
d="M255 633l-44 -213h207q217 0 215 -176q0 -124 -99 -195q-74 -51 -184 -49h-324l152 718h510l-19 -85h-414zM195 340l-56 -259h201q70 0 110 20q84 45 84 133q1 106 -138 106h-201z" />
    <glyph glyph-name="Aring" unicode="&#x411;" horiz-adv-x="674" 
d="M255 633l-44 -213h207q217 0 215 -176q0 -124 -99 -195q-74 -51 -184 -49h-324l152 718h510l-19 -85h-414zM195 340l-56 -259h201q70 0 110 20q84 45 84 133q1 106 -138 106h-201z" />
    <glyph glyph-name="Ccedilla" unicode="&#xc2;" horiz-adv-x="695" 
d="M178 718h301q81 0 136 -34.5t58 -110.5q0 -84 -55 -142q-41 -41 -88 -56v-2q46 -9 78.5 -43t29.5 -103q-3 -63 -36 -112.5t-84 -78.5q-65 -36 -182 -36h-310zM255 634l-45 -223h193q61 0 98 23q32 17 50.5 48t18.5 64q5 56 -42 76q-27 12 -79 12h-194zM192 331l-53 -250
h201q74 0 115 20q78 43 80 130q0 64 -52 85q-30 15 -91 15h-200z" />
    <glyph glyph-name="Ccedilla" unicode="&#x412;" horiz-adv-x="695" 
d="M178 718h301q81 0 136 -34.5t58 -110.5q0 -84 -55 -142q-41 -41 -88 -56v-2q46 -9 78.5 -43t29.5 -103q-3 -63 -36 -112.5t-84 -78.5q-65 -36 -182 -36h-310zM255 634l-45 -223h193q61 0 98 23q32 17 50.5 48t18.5 64q5 56 -42 76q-27 12 -79 12h-194zM192 331l-53 -250
h201q74 0 115 20q78 43 80 130q0 64 -52 85q-30 15 -91 15h-200z" />
    <glyph glyph-name="Eacute" unicode="&#xc3;" horiz-adv-x="538" 
d="M250 633l-134 -633h-95l152 718h457l-16 -85h-364z" />
    <glyph glyph-name="Eacute" unicode="&#x413;" horiz-adv-x="538" 
d="M250 633l-134 -633h-95l152 718h457l-16 -85h-364z" />
    <glyph glyph-name="Ntilde" unicode="&#xc4;" horiz-adv-x="740" 
d="M594 81h101l-61 -243h-81l32 162h-558l-31 -162h-85l44 243h69q74 80 122 165q75 134 114 323l30 149h438zM615 634h-246l-19 -88q-23 -131 -79 -261q-45 -105 -126 -204h354z" />
    <glyph glyph-name="Ntilde" unicode="&#x414;" horiz-adv-x="740" 
d="M594 81h101l-61 -243h-81l32 162h-558l-31 -162h-85l44 243h69q74 80 122 165q75 134 114 323l30 149h438zM615 634h-246l-19 -88q-23 -131 -79 -261q-45 -105 -126 -204h354z" />
    <glyph glyph-name="Odieresis" unicode="&#xc5;" horiz-adv-x="618" 
d="M205 410h376l-18 -80h-375l-52 -246h426l-18 -84h-523l154 718h510l-18 -85h-414z" />
    <glyph glyph-name="Odieresis" unicode="&#x415;" horiz-adv-x="618" 
d="M205 410h376l-18 -80h-375l-52 -246h426l-18 -84h-523l154 718h510l-18 -85h-414z" />
    <glyph glyph-name="Udieresis" unicode="&#xc6;" horiz-adv-x="919" 
d="M355 0l81 359l-365 -359h-133l405 392l-242 326h115l228 -319l65 319h96l-70 -319l345 319h131l-381 -342l243 -376h-119l-227 359l-74 -359h-98z" />
    <glyph glyph-name="Udieresis" unicode="&#x416;" horiz-adv-x="919" 
d="M355 0l81 359l-365 -359h-133l405 392l-242 326h115l228 -319l65 319h96l-70 -319l345 319h131l-381 -342l243 -376h-119l-227 359l-74 -359h-98z" />
    <glyph glyph-name="aacute" unicode="&#xc7;" horiz-adv-x="674" 
d="M27 220h98q-11 -78 31 -116q42 -44 148 -44q98 1 151.5 52.5t55.5 118.5q0 105 -141 105h-95l16 80h88q59 0 113 30t58 103q3 44 -23 67.5t-57.5 30t-61.5 6.5q-99 0 -155 -50q-39 -37 -52 -85h-100q21 91 90 147q80 69 225 69q243 0 237 -172q-4 -133 -145 -183l-3 -4
q42 -8 77 -41.5t32 -99.5q-6 -112 -86 -183q-78 -66 -230 -71q-178 -2 -239 80q-43 59 -32 160z" />
    <glyph glyph-name="aacute" unicode="&#x417;" horiz-adv-x="674" 
d="M27 220h98q-11 -78 31 -116q42 -44 148 -44q98 1 151.5 52.5t55.5 118.5q0 105 -141 105h-95l16 80h88q59 0 113 30t58 103q3 44 -23 67.5t-57.5 30t-61.5 6.5q-99 0 -155 -50q-39 -37 -52 -85h-100q21 91 90 147q80 69 225 69q243 0 237 -172q-4 -133 -145 -183l-3 -4
q42 -8 77 -41.5t32 -99.5q-6 -112 -86 -183q-78 -66 -230 -71q-178 -2 -239 80q-43 59 -32 160z" />
    <glyph glyph-name="agrave" unicode="&#xc8;" horiz-adv-x="740" 
d="M153 140l485 578h116l-151 -718h-98l123 581l-483 -581h-118l154 718h94z" />
    <glyph glyph-name="agrave" unicode="&#x418;" horiz-adv-x="740" 
d="M153 140l485 578h116l-151 -718h-98l123 581l-483 -581h-118l154 718h94z" />
    <glyph glyph-name="acircumflex" unicode="&#xc9;" horiz-adv-x="740" 
d="M153 140l485 578h116l-151 -718h-98l123 581l-483 -581h-118l154 718h94zM304 879h75q-6 -25 11 -53t72 -28q48 0 77.5 24t39.5 57h75q-26 -64 -69 -96q-48 -39 -122 -39q-86 0 -123 39q-42 36 -36 96z" />
    <glyph glyph-name="acircumflex" unicode="&#x419;" horiz-adv-x="740" 
d="M153 140l485 578h116l-151 -718h-98l123 581l-483 -581h-118l154 718h94zM304 879h75q-6 -25 11 -53t72 -28q48 0 77.5 24t39.5 57h75q-26 -64 -69 -96q-48 -39 -122 -39q-86 0 -123 39q-42 36 -36 96z" />
    <glyph glyph-name="adieresis" unicode="&#xca;" horiz-adv-x="628" 
d="M205 389l374 329h132l-403 -342l271 -376h-120l-258 373l-77 -373h-97l154 718h94z" />
    <glyph glyph-name="adieresis" unicode="&#x41a;" horiz-adv-x="628" 
d="M205 389l374 329h132l-403 -342l271 -376h-120l-258 373l-77 -373h-97l154 718h94z" />
    <glyph glyph-name="atilde" unicode="&#xcb;" horiz-adv-x="718" 
d="M-45 0l18 84q74 -14 132 52q38 44 67 125.5t42 146.5l71 310h445l-151 -718h-96l135 634h-252l-56 -246q-26 -110 -55 -185t-76 -128q-47 -51 -99.5 -67t-124.5 -8z" />
    <glyph glyph-name="atilde" unicode="&#x41b;" horiz-adv-x="718" 
d="M-45 0l18 84q74 -14 132 52q38 44 67 125.5t42 146.5l71 310h445l-151 -718h-96l135 634h-252l-56 -246q-26 -110 -55 -185t-76 -128q-47 -51 -99.5 -67t-124.5 -8z" />
    <glyph glyph-name="aring" unicode="&#xcc;" horiz-adv-x="873" 
d="M344 0l-108 581h-2l-4 -26l-119 -555h-87l151 718h123l112 -593l349 593h133l-152 -718h-90l119 555l10 26h-5l-350 -581h-80z" />
    <glyph glyph-name="aring" unicode="&#x41c;" horiz-adv-x="873" 
d="M344 0l-108 581h-2l-4 -26l-119 -555h-87l151 718h123l112 -593l349 593h133l-152 -718h-90l119 555l10 26h-5l-350 -581h-80z" />
    <glyph glyph-name="ccedilla" unicode="&#xcd;" horiz-adv-x="718" 
d="M195 336l-71 -336h-97l154 718h94l-64 -300h362l61 300h99l-152 -718h-98l72 336h-360z" />
    <glyph glyph-name="ccedilla" unicode="&#x41d;" horiz-adv-x="718" 
d="M195 336l-71 -336h-97l154 718h94l-64 -300h362l61 300h99l-152 -718h-98l72 336h-360z" />
    <glyph glyph-name="eacute" unicode="&#xce;" horiz-adv-x="760" 
d="M346 -21q-181 -1 -241 85.5t-60 191.5q0 79 24 169t77 163q115 149 309 149q137 3 218 -66.5t81 -208.5q2 -57 -9 -115.5t-34 -114t-57 -102.5q-64 -89 -141 -119t-167 -32zM356 59q67 2 125.5 29t106.5 110q30 55 47.5 122.5t17.5 125.5q-1 104 -57 158t-152 50
q-64 0 -118.5 -26t-101.5 -98q-75 -112 -75 -259q-1 -133 67 -172.5t140 -39.5z" />
    <glyph glyph-name="eacute" unicode="&#x41e;" horiz-adv-x="760" 
d="M346 -21q-181 -1 -241 85.5t-60 191.5q0 79 24 169t77 163q115 149 309 149q137 3 218 -66.5t81 -208.5q2 -57 -9 -115.5t-34 -114t-57 -102.5q-64 -89 -141 -119t-167 -32zM356 59q67 2 125.5 29t106.5 110q30 55 47.5 122.5t17.5 125.5q-1 104 -57 158t-152 50
q-64 0 -118.5 -26t-101.5 -98q-75 -112 -75 -259q-1 -133 67 -172.5t140 -39.5z" />
    <glyph glyph-name="egrave" unicode="&#xcf;" horiz-adv-x="718" 
d="M255 634l-134 -634h-95l152 718h555l-152 -718h-98l137 634h-365z" />
    <glyph glyph-name="egrave" unicode="&#x41f;" horiz-adv-x="718" 
d="M255 634l-134 -634h-95l152 718h555l-152 -718h-98l137 634h-365z" />
    <glyph glyph-name="ecircumflex" unicode="&#xd0;" horiz-adv-x="650" 
d="M181 718h276q116 0 167.5 -40t54.5 -119q0 -60 -24.5 -119.5t-69.5 -96.5q-37 -32 -86 -45t-107 -13h-208l-60 -285h-97zM260 634l-59 -268h184q84 0 129 37q61 47 61 140q-1 53 -38 72t-107 19h-170z" />
    <glyph glyph-name="ecircumflex" unicode="&#x420;" horiz-adv-x="650" 
d="M181 718h276q116 0 167.5 -40t54.5 -119q0 -60 -24.5 -119.5t-69.5 -96.5q-37 -32 -86 -45t-107 -13h-208l-60 -285h-97zM260 634l-59 -268h184q84 0 129 37q61 47 61 140q-1 53 -38 72t-107 19h-170z" />
    <glyph glyph-name="edieresis" unicode="&#xd1;" horiz-adv-x="718" 
d="M583 236h100q-20 -82 -78 -151q-92 -107 -261 -111q-136 0 -215 69.5t-83 211.5q0 82 26.5 182.5t108.5 186.5q63 64 132.5 89t145.5 27q160 0 230 -81q52 -65 38 -165h-99q6 26 0.5 58.5t-28.5 56.5q-39 51 -145 48q-130 -8 -209 -102q-44 -54 -68.5 -132t-24.5 -150
q3 -104 57 -161.5t145 -55.5q103 0 157.5 60.5t70.5 119.5z" />
    <glyph glyph-name="edieresis" unicode="&#x421;" horiz-adv-x="718" 
d="M583 236h100q-20 -82 -78 -151q-92 -107 -261 -111q-136 0 -215 69.5t-83 211.5q0 82 26.5 182.5t108.5 186.5q63 64 132.5 89t145.5 27q160 0 230 -81q52 -65 38 -165h-99q6 26 0.5 58.5t-28.5 56.5q-39 51 -145 48q-130 -8 -209 -102q-44 -54 -68.5 -132t-24.5 -150
q3 -104 57 -161.5t145 -55.5q103 0 157.5 60.5t70.5 119.5z" />
    <glyph glyph-name="iacute" unicode="&#xd2;" 
d="M323 633h-232l17 85h561l-19 -85h-232l-134 -633h-96z" />
    <glyph glyph-name="iacute" unicode="&#x422;" 
d="M323 633h-232l17 85h561l-19 -85h-232l-134 -633h-96z" />
    <glyph glyph-name="igrave" unicode="&#xd3;" 
d="M328 285l255 433h109l-361 -591q-53 -85 -102.5 -112t-112.5 -25q-34 0 -77 10l17 84q28 -10 65 -13q83 0 139 107l-161 540h109z" />
    <glyph glyph-name="igrave" unicode="&#x423;" 
d="M328 285l255 433h109l-361 -591q-53 -85 -102.5 -112t-112.5 -25q-34 0 -77 10l17 84q28 -10 65 -13q83 0 139 107l-161 540h109z" />
    <glyph glyph-name="icircumflex" unicode="&#xd4;" horiz-adv-x="898" 
d="M340 -26l24 107h-41q-107 0 -167 40q-49 32 -75.5 80.5t-29.5 112.5q-3 79 30.5 147t93.5 114q99 73 269 73h39l25 109h95l-22 -109h39q101 0 167 -39q100 -57 105 -195q3 -92 -36 -156.5t-87 -101.5q-57 -42 -133.5 -58.5t-134.5 -16.5h-42l-23 -107h-96zM379 156
l90 417h-29q-69 0 -118 -13t-91 -51q-78 -71 -78 -185q-2 -168 200 -168h26zM475 156h28q138 0 211 64q32 29 55 78t23 107q0 103 -62.5 135.5t-137.5 32.5h-29z" />
    <glyph glyph-name="icircumflex" unicode="&#x424;" horiz-adv-x="898" 
d="M340 -26l24 107h-41q-107 0 -167 40q-49 32 -75.5 80.5t-29.5 112.5q-3 79 30.5 147t93.5 114q99 73 269 73h39l25 109h95l-22 -109h39q101 0 167 -39q100 -57 105 -195q3 -92 -36 -156.5t-87 -101.5q-57 -42 -133.5 -58.5t-134.5 -16.5h-42l-23 -107h-96zM379 156
l90 417h-29q-69 0 -118 -13t-91 -51q-78 -71 -78 -185q-2 -168 200 -168h26zM475 156h28q138 0 211 64q32 29 55 78t23 107q0 103 -62.5 135.5t-137.5 32.5h-29z" />
    <glyph glyph-name="idieresis" unicode="&#xd5;" horiz-adv-x="605" 
d="M311 304l-252 -304h-115l320 379l-169 339h115l133 -284l232 284h117l-304 -359l182 -359h-115z" />
    <glyph glyph-name="idieresis" unicode="&#x425;" horiz-adv-x="605" 
d="M311 304l-252 -304h-115l320 379l-169 339h115l133 -284l232 284h117l-304 -359l182 -359h-115z" />
    <glyph glyph-name="ntilde" unicode="&#xd6;" horiz-adv-x="740" 
d="M136 81h365l133 637h96l-135 -637h103l-60 -243h-85l35 162h-564l151 718h96z" />
    <glyph glyph-name="ntilde" unicode="&#x426;" horiz-adv-x="740" 
d="M136 81h365l133 637h96l-135 -637h103l-60 -243h-85l35 162h-564l151 718h96z" />
    <glyph glyph-name="oacute" unicode="&#xd7;" horiz-adv-x="640" 
d="M156 718h94l-45 -210q-13 -69 9 -94q21 -20 52.5 -25.5t86.5 -3.5q45 0 141 7l69 326h96l-154 -718h-95l66 311q-10 0 -50 -2.5t-61 -3.5t-34 -1q-75 0 -120.5 8.5t-76.5 36.5q-27 26 -30.5 63t6.5 96z" />
    <glyph glyph-name="oacute" unicode="&#x427;" horiz-adv-x="640" 
d="M156 718h94l-45 -210q-13 -69 9 -94q21 -20 52.5 -25.5t86.5 -3.5q45 0 141 7l69 326h96l-154 -718h-95l66 311q-10 0 -50 -2.5t-61 -3.5t-34 -1q-75 0 -120.5 8.5t-76.5 36.5q-27 26 -30.5 63t6.5 96z" />
    <glyph glyph-name="ograve" unicode="&#xd8;" horiz-adv-x="1032" 
d="M136 81h288l138 637h95l-135 -637h289l134 637h103l-155 -718h-867l153 718h92z" />
    <glyph glyph-name="ograve" unicode="&#x428;" horiz-adv-x="1032" 
d="M136 81h288l138 637h95l-135 -637h289l134 637h103l-155 -718h-867l153 718h92z" />
    <glyph glyph-name="ocircumflex" unicode="&#xd9;" horiz-adv-x="1054" 
d="M131 81h292l134 637h96l-135 -637h287l135 637h103l-135 -637h103l-61 -243h-83l32 162h-875l151 718h91z" />
    <glyph glyph-name="ocircumflex" unicode="&#x429;" horiz-adv-x="1054" 
d="M131 81h292l134 637h96l-135 -637h287l135 637h103l-135 -637h103l-61 -243h-83l32 162h-875l151 718h91z" />
    <glyph glyph-name="odieresis" unicode="&#xda;" horiz-adv-x="728" 
d="M363 718l-62 -294h184q215 0 215 -180q-1 -66 -29 -116t-71 -79q-72 -51 -184 -49h-302l132 633h-154l18 85h253zM284 343l-57 -262h178q65 0 113 20q80 49 82 133q3 109 -138 109h-178z" />
    <glyph glyph-name="odieresis" unicode="&#x42a;" horiz-adv-x="728" 
d="M363 718l-62 -294h184q215 0 215 -180q-1 -66 -29 -116t-71 -79q-72 -51 -184 -49h-302l132 633h-154l18 85h253zM284 343l-57 -262h178q65 0 113 20q80 49 82 133q3 109 -138 109h-178z" />
    <glyph glyph-name="otilde" unicode="&#xdb;" horiz-adv-x="873" 
d="M275 718l-61 -294h185q217 0 215 -180q0 -67 -27.5 -116.5t-72.5 -78.5q-74 -51 -183 -49h-304l154 718h94zM789 718h98l-154 -718h-95zM198 343l-55 -262h177q69 0 111 20q83 49 83 133q1 109 -138 109h-178z" />
    <glyph glyph-name="otilde" unicode="&#x42b;" horiz-adv-x="873" 
d="M275 718l-61 -294h185q217 0 215 -180q0 -67 -27.5 -116.5t-72.5 -78.5q-74 -51 -183 -49h-304l154 718h94zM789 718h98l-154 -718h-95zM198 343l-55 -262h177q69 0 111 20q83 49 83 133q1 109 -138 109h-178z" />
    <glyph glyph-name="uacute" unicode="&#xdc;" horiz-adv-x="650" 
d="M275 718l-61 -294h185q217 0 215 -180q0 -67 -27.5 -116.5t-72.5 -78.5q-74 -51 -183 -49h-304l154 718h94zM198 343l-55 -262h177q69 0 111 20q83 49 83 133q1 109 -138 109h-178z" />
    <glyph glyph-name="uacute" unicode="&#x42c;" horiz-adv-x="650" 
d="M275 718l-61 -294h185q217 0 215 -180q0 -67 -27.5 -116.5t-72.5 -78.5q-74 -51 -183 -49h-304l154 718h94zM198 343l-55 -262h177q69 0 111 20q83 49 83 133q1 109 -138 109h-178z" />
    <glyph glyph-name="ugrave" unicode="&#xdd;" horiz-adv-x="740" 
d="M205 508h-106q31 91 105 152q84 73 236 80q288 1 288 -267q0 -178 -80 -317q-59 -102 -141.5 -139t-190.5 -41q-166 0 -232 89q-53 73 -44 184h100q-3 -81 31 -128q41 -62 149 -62q131 0 204 92q55 65 81 179h-341l17 80h339q21 115 -26 182q-55 67 -158 65
q-87 -3 -155 -46q-53 -40 -76 -103z" />
    <glyph glyph-name="ugrave" unicode="&#x42d;" horiz-adv-x="740" 
d="M205 508h-106q31 91 105 152q84 73 236 80q288 1 288 -267q0 -178 -80 -317q-59 -102 -141.5 -139t-190.5 -41q-166 0 -232 89q-53 73 -44 184h100q-3 -81 31 -128q41 -62 149 -62q131 0 204 92q55 65 81 179h-341l17 80h339q21 115 -26 182q-55 67 -158 65
q-87 -3 -155 -46q-53 -40 -76 -103z" />
    <glyph glyph-name="ucircumflex" unicode="&#xde;" horiz-adv-x="1011" 
d="M211 416h99q32 132 128 224q104 97 260 97q138 3 219.5 -67t81.5 -208q0 -88 -25 -175.5t-76 -156.5q-65 -89 -142 -119t-167 -32q-184 0 -258 112q-62 93 -36 245h-100l-71 -336h-97l154 718h94zM600 59q150 2 230 140q29 51 47 119.5t18 134.5q-1 128 -73 167.5
t-134 33.5q-142 0 -222 -126q-32 -52 -53 -126.5t-21 -137.5q0 -128 67.5 -166.5t140.5 -38.5z" />
    <glyph glyph-name="ucircumflex" unicode="&#x42e;" horiz-adv-x="1011" 
d="M211 416h99q32 132 128 224q104 97 260 97q138 3 219.5 -67t81.5 -208q0 -88 -25 -175.5t-76 -156.5q-65 -89 -142 -119t-167 -32q-184 0 -258 112q-62 93 -36 245h-100l-71 -336h-97l154 718h94zM600 59q150 2 230 140q29 51 47 119.5t18 134.5q-1 128 -73 167.5
t-134 33.5q-142 0 -222 -126q-32 -52 -53 -126.5t-21 -137.5q0 -128 67.5 -166.5t140.5 -38.5z" />
    <glyph glyph-name="udieresis" unicode="&#xdf;" horiz-adv-x="674" 
d="M503 284h-157l-236 -284h-124l257 295q-62 6 -111 44t-48 131q2 67 34.5 122.5t92.5 88.5q69 37 172 37h309l-152 -718h-97zM579 634h-204q-72 0 -120 -31q-34 -21 -52 -56.5t-18 -77.5q4 -55 41.5 -79t104.5 -24h189z" />
    <glyph glyph-name="udieresis" unicode="&#x42f;" horiz-adv-x="674" 
d="M503 284h-157l-236 -284h-124l257 295q-62 6 -111 44t-48 131q2 67 34.5 122.5t92.5 88.5q69 37 172 37h309l-152 -718h-97zM579 634h-204q-72 0 -120 -31q-34 -21 -52 -56.5t-18 -77.5q4 -55 41.5 -79t104.5 -24h189z" />
    <glyph glyph-name="daggerdbl" unicode="&#xe0;" horiz-adv-x="562" 
d="M162 366h-87q15 72 81 128q56 40 164 40q116 1 165 -51q40 -39 18 -119l-54 -240q-11 -49 6 -55q8 -4 34 -4l-14 -65q-9 -1 -39 -1q-49 -4 -63 22q-10 12 -10 41q-65 -75 -184 -78q-164 -10 -173 126q-6 116 105 161q34 15 79.5 22.5t108.5 11.5q84 7 102 26q17 25 17 68
q5 71 -98 71q-75 0 -115 -30q-34 -30 -43 -74zM392 263q-12 -10 -24 -13.5t-40 -6.5t-88 -9q-62 -8 -103 -31.5t-40 -81.5q3 -75 87 -75q92 6 150 72q34 45 47 106z" />
    <glyph glyph-name="daggerdbl" unicode="&#x2021;" horiz-adv-x="562" 
d="M162 366h-87q15 72 81 128q56 40 164 40q116 1 165 -51q40 -39 18 -119l-54 -240q-11 -49 6 -55q8 -4 34 -4l-14 -65q-9 -1 -39 -1q-49 -4 -63 22q-10 12 -10 41q-65 -75 -184 -78q-164 -10 -173 126q-6 116 105 161q34 15 79.5 22.5t108.5 11.5q84 7 102 26q17 25 17 68
q5 71 -98 71q-75 0 -115 -30q-34 -30 -43 -74zM392 263q-12 -10 -24 -13.5t-40 -6.5t-88 -9q-62 -8 -103 -31.5t-40 -81.5q3 -75 87 -75q92 6 150 72q34 45 47 106z" />
    <glyph glyph-name="daggerdbl" unicode="&#x430;" horiz-adv-x="562" 
d="M162 366h-87q15 72 81 128q56 40 164 40q116 1 165 -51q40 -39 18 -119l-54 -240q-11 -49 6 -55q8 -4 34 -4l-14 -65q-9 -1 -39 -1q-49 -4 -63 22q-10 12 -10 41q-65 -75 -184 -78q-164 -10 -173 126q-6 116 105 161q34 15 79.5 22.5t108.5 11.5q84 7 102 26q17 25 17 68
q5 71 -98 71q-75 0 -115 -30q-34 -30 -43 -74zM392 263q-12 -10 -24 -13.5t-40 -6.5t-88 -9q-62 -8 -103 -31.5t-40 -81.5q3 -75 87 -75q92 6 150 72q34 45 47 106z" />
    <glyph glyph-name="periodcentered" unicode="&#xe1;" horiz-adv-x="605" 
d="M553 750h75q-15 -66 -65.5 -87t-132.5 -33q-77 -8 -128.5 -25t-91.5 -65q-50 -62 -65 -135h1q83 112 227 115q39 0 81 -11.5t78.5 -50.5t42.5 -118q3 -63 -15 -130t-59 -119q-47 -63 -106 -85t-131 -22q-92 0 -155 44.5t-63 179.5q5 115 40 226t89 169q53 57 120.5 78.5
t147.5 27.5q63 10 80.5 15t29.5 26zM145 250q-9 -46 -6 -75q4 -130 125 -130q102 0 159 86q57 89 53 200q-1 124 -126 124q-58 0 -120.5 -40t-84.5 -165z" />
    <glyph glyph-name="periodcentered" unicode="&#x431;" horiz-adv-x="605" 
d="M553 750h75q-15 -66 -65.5 -87t-132.5 -33q-77 -8 -128.5 -25t-91.5 -65q-50 -62 -65 -135h1q83 112 227 115q39 0 81 -11.5t78.5 -50.5t42.5 -118q3 -63 -15 -130t-59 -119q-47 -63 -106 -85t-131 -22q-92 0 -155 44.5t-63 179.5q5 115 40 226t89 169q53 57 120.5 78.5
t147.5 27.5q63 10 80.5 15t29.5 26zM145 250q-9 -46 -6 -75q4 -130 125 -130q102 0 159 86q57 89 53 200q-1 124 -126 124q-58 0 -120.5 -40t-84.5 -165z" />
    <glyph glyph-name="quotesinglbase" unicode="&#xe2;" horiz-adv-x="538" 
d="M124 520h220q79 0 106 -15q53 -26 53 -95q0 -58 -44 -105q-29 -24 -56 -34v-5q30 -5 53.5 -28.5t24.5 -66.5q1 -42 -19 -78.5t-46 -56.5q-46 -36 -143 -36h-260zM201 457l-32 -153h122q76 0 99.5 29.5t23.5 58.5q2 65 -84 65h-129zM153 240l-37 -178h133q132 0 136 98
q4 80 -101 80h-131z" />
    <glyph glyph-name="quotesinglbase" unicode="&#x201a;" horiz-adv-x="538" 
d="M124 520h220q79 0 106 -15q53 -26 53 -95q0 -58 -44 -105q-29 -24 -56 -34v-5q30 -5 53.5 -28.5t24.5 -66.5q1 -42 -19 -78.5t-46 -56.5q-46 -36 -143 -36h-260zM201 457l-32 -153h122q76 0 99.5 29.5t23.5 58.5q2 65 -84 65h-129zM153 240l-37 -178h133q132 0 136 98
q4 80 -101 80h-131z" />
    <glyph glyph-name="quotesinglbase" unicode="&#x432;" horiz-adv-x="538" 
d="M124 520h220q79 0 106 -15q53 -26 53 -95q0 -58 -44 -105q-29 -24 -56 -34v-5q30 -5 53.5 -28.5t24.5 -66.5q1 -42 -19 -78.5t-46 -56.5q-46 -36 -143 -36h-260zM201 457l-32 -153h122q76 0 99.5 29.5t23.5 58.5q2 65 -84 65h-129zM153 240l-37 -178h133q132 0 136 98
q4 80 -101 80h-131z" />
    <glyph glyph-name="quotedblbase" unicode="&#xe3;" horiz-adv-x="424" 
d="M198 453l-97 -453h-93l110 520h358l-14 -67h-264z" />
    <glyph glyph-name="quotedblbase" unicode="&#x201e;" horiz-adv-x="424" 
d="M198 453l-97 -453h-93l110 520h358l-14 -67h-264z" />
    <glyph glyph-name="quotedblbase" unicode="&#x433;" horiz-adv-x="424" 
d="M198 453l-97 -453h-93l110 520h358l-14 -67h-264z" />
    <glyph glyph-name="perthousand" unicode="&#xe4;" horiz-adv-x="605" 
d="M-46 62h62q49 49 95 154q39 74 70 215l17 89h375l-98 -458h90l-51 -196h-74l29 134h-448l-27 -134h-75zM469 457h-194l-15 -74q-23 -113 -65 -198q-35 -72 -77 -123h267z" />
    <glyph glyph-name="perthousand" unicode="&#x2030;" horiz-adv-x="605" 
d="M-46 62h62q49 49 95 154q39 74 70 215l17 89h375l-98 -458h90l-51 -196h-74l29 134h-448l-27 -134h-75zM469 457h-194l-15 -74q-23 -113 -65 -198q-35 -72 -77 -123h267z" />
    <glyph glyph-name="perthousand" unicode="&#x434;" horiz-adv-x="605" 
d="M-46 62h62q49 49 95 154q39 74 70 215l17 89h375l-98 -458h90l-51 -196h-74l29 134h-448l-27 -134h-75zM469 457h-194l-15 -74q-23 -113 -65 -198q-35 -72 -77 -123h267z" />
    <glyph glyph-name="Acircumflex" unicode="&#xe5;" 
d="M424 151h90q-61 -162 -235 -165q-92 -7 -166.5 32.5t-78.5 165.5q-1 37 7 83t25.5 88.5t44.5 78.5q56 65 121 85.5t127 18.5q191 -8 191 -185q0 -40 -10 -113h-406q-16 -62 6 -122q32 -72 120 -72q116 -3 164 105zM146 304h311q5 30 5 49q3 120 -116 120q-88 5 -147 -63
q-38 -46 -53 -106z" />
    <glyph glyph-name="Acircumflex" unicode="&#x435;" 
d="M424 151h90q-61 -162 -235 -165q-92 -7 -166.5 32.5t-78.5 165.5q-1 37 7 83t25.5 88.5t44.5 78.5q56 65 121 85.5t127 18.5q191 -8 191 -185q0 -40 -10 -113h-406q-16 -62 6 -122q32 -72 120 -72q116 -3 164 105zM146 304h311q5 30 5 49q3 120 -116 120q-88 5 -147 -63
q-38 -46 -53 -106z" />
    <glyph glyph-name="Ecircumflex" unicode="&#xe6;" horiz-adv-x="718" 
d="M260 0l54 255l-249 -255h-116l285 273l-169 247h106l149 -236l50 236h89l-49 -236l234 236h113l-268 -249l178 -271h-112l-152 255l-54 -255h-89z" />
    <glyph glyph-name="Ecircumflex" unicode="&#x436;" horiz-adv-x="718" 
d="M260 0l54 255l-249 -255h-116l285 273l-169 247h106l149 -236l50 236h89l-49 -236l234 236h113l-268 -249l178 -271h-112l-152 255l-54 -255h-89z" />
    <glyph glyph-name="Aacute" unicode="&#xe7;" horiz-adv-x="515" 
d="M6 160h85q-10 -44 18 -78t96 -37q52 -3 87.5 13.5t53 44.5t17.5 59q0 76 -99 76h-79l16 63h65q128 0 130 91q3 39 -26.5 58.5t-74.5 19.5q-52 3 -93 -22t-53 -72h-84q44 158 233 158q183 3 187 -118q3 -51 -26 -90t-76 -55v-2q35 -4 55.5 -31.5t20.5 -64.5
q0 -35 -16.5 -77t-68.5 -76.5t-149 -35.5q-64 0 -112 11.5t-77 40.5q-41 49 -30 124z" />
    <glyph glyph-name="Aacute" unicode="&#x437;" horiz-adv-x="515" 
d="M6 160h85q-10 -44 18 -78t96 -37q52 -3 87.5 13.5t53 44.5t17.5 59q0 76 -99 76h-79l16 63h65q128 0 130 91q3 39 -26.5 58.5t-74.5 19.5q-52 3 -93 -22t-53 -72h-84q44 158 233 158q183 3 187 -118q3 -51 -26 -90t-76 -55v-2q35 -4 55.5 -31.5t20.5 -64.5
q0 -35 -16.5 -77t-68.5 -76.5t-149 -35.5q-64 0 -112 11.5t-77 40.5q-41 49 -30 124z" />
    <glyph glyph-name="Edieresis" unicode="&#xe8;" horiz-adv-x="605" 
d="M130 105l345 415h114l-110 -520h-91l88 414l-345 -414h-115l111 520h91z" />
    <glyph glyph-name="Edieresis" unicode="&#x438;" horiz-adv-x="605" 
d="M130 105l345 415h114l-110 -520h-91l88 414l-345 -414h-115l111 520h91z" />
    <glyph glyph-name="Egrave" unicode="&#xe9;" horiz-adv-x="605" 
d="M130 105l345 415h114l-110 -520h-91l88 414l-345 -414h-115l111 520h91zM214 718h76q-3 -28 12 -56t71 -28q51 0 80.5 25.5t38.5 58.5h77q-25 -62 -70 -98q-53 -39 -124 -39q-84 0 -125 39q-41 41 -36 98z" />
    <glyph glyph-name="Egrave" unicode="&#x439;" horiz-adv-x="605" 
d="M130 105l345 415h114l-110 -520h-91l88 414l-345 -414h-115l111 520h91zM214 718h76q-3 -28 12 -56t71 -28q51 0 80.5 25.5t38.5 58.5h77q-25 -62 -70 -98q-53 -39 -124 -39q-84 0 -125 39q-41 41 -36 98z" />
    <glyph glyph-name="Iacute" unicode="&#xea;" horiz-adv-x="494" 
d="M165 285l255 235h115l-285 -249l194 -271h-106l-178 260l-55 -260h-91l111 520h91z" />
    <glyph glyph-name="Iacute" unicode="&#x43a;" horiz-adv-x="494" 
d="M165 285l255 235h115l-285 -249l194 -271h-106l-178 260l-55 -260h-91l111 520h91z" />
    <glyph glyph-name="Icircumflex" unicode="&#xeb;" horiz-adv-x="562" 
d="M-49 0l13 65q70 -8 109 49q30 43 70 210l41 196h369l-110 -520h-93l99 457h-194l-25 -133q-38 -175 -87 -253q-67 -87 -192 -71z" />
    <glyph glyph-name="Icircumflex" unicode="&#x43b;" horiz-adv-x="562" 
d="M-49 0l13 65q70 -8 109 49q30 43 70 210l41 196h369l-110 -520h-93l99 457h-194l-25 -133q-38 -175 -87 -253q-67 -87 -192 -71z" />
    <glyph glyph-name="Idieresis" unicode="&#xec;" horiz-adv-x="740" 
d="M279 0l-87 416h-1l-6 -27l-81 -389h-91l111 520h122l90 -423l256 423h136l-110 -520h-94l85 389l9 27h-4l-251 -416h-84z" />
    <glyph glyph-name="Idieresis" unicode="&#x43c;" horiz-adv-x="740" 
d="M279 0l-87 416h-1l-6 -27l-81 -389h-91l111 520h122l90 -423l256 423h136l-110 -520h-94l85 389l9 27h-4l-251 -416h-84z" />
    <glyph glyph-name="Igrave" unicode="&#xed;" 
d="M160 243l-52 -243h-92l111 520h91l-45 -215h258l44 215h94l-114 -520h-91l52 243h-256z" />
    <glyph glyph-name="Igrave" unicode="&#x43d;" 
d="M160 243l-52 -243h-92l111 520h91l-45 -215h258l44 215h94l-114 -520h-91l52 243h-256z" />
    <glyph glyph-name="Oacute" unicode="&#xee;" 
d="M36 275q24 110 94 180q80 85 208 85q42 2 91.5 -11t89 -61.5t36.5 -144.5q0 -127 -74 -228q-49 -67 -105.5 -90.5t-131.5 -25.5q-100 0 -158.5 52.5t-58.5 160.5q0 18 9 83zM130 250q-5 -32 -5 -58q0 -93 41 -121t84 -28q105 0 160 97q45 76 49 183q3 95 -40 124t-88 29
q-84 0 -134 -63.5t-67 -162.5z" />
    <glyph glyph-name="Oacute" unicode="&#x43e;" 
d="M36 275q24 110 94 180q80 85 208 85q42 2 91.5 -11t89 -61.5t36.5 -144.5q0 -127 -74 -228q-49 -67 -105.5 -90.5t-131.5 -25.5q-100 0 -158.5 52.5t-58.5 160.5q0 18 9 83zM130 250q-5 -32 -5 -58q0 -93 41 -121t84 -28q105 0 160 97q45 76 49 183q3 95 -40 124t-88 29
q-84 0 -134 -63.5t-67 -162.5z" />
    <glyph glyph-name="Ocircumflex" unicode="&#xef;" 
d="M201 457l-96 -457h-91l111 520h445l-111 -520h-90l97 457h-265z" />
    <glyph glyph-name="Ocircumflex" unicode="&#x43f;" 
d="M201 457l-96 -457h-91l111 520h445l-111 -520h-90l97 457h-265z" />
    <glyph glyph-name="apple" unicode="&#xf0;" horiz-adv-x="605" 
d="M125 520h86l-16 -71h3q78 94 196 94q87 0 135.5 -52.5t45.5 -150.5q0 -124 -72 -241q-78 -115 -218 -115q-126 0 -164 89l-56 -264h-91zM153 256q-8 -25 -8 -65q0 -89 42.5 -117.5t81.5 -28.5q104 -3 165 111q45 79 45 187q0 139 -129 132q-148 -6 -197 -219z" />
    <glyph glyph-name="apple" unicode="&#x440;" horiz-adv-x="605" 
d="M125 520h86l-16 -71h3q78 94 196 94q87 0 135.5 -52.5t45.5 -150.5q0 -124 -72 -241q-78 -115 -218 -115q-126 0 -164 89l-56 -264h-91zM153 256q-8 -25 -8 -65q0 -89 42.5 -117.5t81.5 -28.5q104 -3 165 111q45 79 45 187q0 139 -129 132q-148 -6 -197 -219z" />
    <glyph glyph-name="Ograve" unicode="&#xf1;" horiz-adv-x="562" 
d="M423 184h86q-14 -66 -59 -113q-71 -87 -197 -87q-101 -3 -159 50t-58 157q-2 129 75 239q81 110 229 110q136 0 180 -78q26 -50 20 -106h-85q0 123 -115 119q-99 0 -156 -94q-53 -80 -53 -197q0 -44 26 -92t106 -47q64 0 102.5 38t57.5 101z" />
    <glyph glyph-name="Ograve" unicode="&#x441;" horiz-adv-x="562" 
d="M423 184h86q-14 -66 -59 -113q-71 -87 -197 -87q-101 -3 -159 50t-58 157q-2 129 75 239q81 110 229 110q136 0 180 -78q26 -50 20 -106h-85q0 123 -115 119q-99 0 -156 -94q-53 -80 -53 -197q0 -44 26 -92t106 -47q64 0 102.5 38t57.5 101z" />
    <glyph glyph-name="Uacute" unicode="&#xf2;" horiz-adv-x="473" 
d="M231 453h-180l15 67h448l-13 -67h-178l-98 -453h-91z" />
    <glyph glyph-name="Uacute" unicode="&#x442;" horiz-adv-x="473" 
d="M231 453h-180l15 67h448l-13 -67h-178l-98 -453h-91z" />
    <glyph glyph-name="Ucircumflex" unicode="&#xf3;" horiz-adv-x="494" 
d="M-8 -188l12 67q12 -4 42 -4q26 0 43 9.5t31 28.5t29 48l22 39l-117 520h108l78 -409l217 409h100l-330 -580q-35 -64 -69 -96.5t-93 -35.5q-33 -3 -73 4z" />
    <glyph glyph-name="Ucircumflex" unicode="&#x443;" horiz-adv-x="494" 
d="M-8 -188l12 67q12 -4 42 -4q26 0 43 9.5t31 28.5t29 48l22 39l-117 520h108l78 -409l217 409h100l-330 -580q-35 -64 -69 -96.5t-93 -35.5q-33 -3 -73 4z" />
    <glyph glyph-name="Ugrave" unicode="&#xf4;" horiz-adv-x="809" 
d="M264 -191l37 178q-88 0 -148 29q-52 26 -82.5 73.5t-31.5 121.5q-1 79 35 148.5t95 109.5q100 65 247 65l39 184h91l-38 -184q105 0 168 -35q101 -57 98 -185q0 -77 -39 -156t-115 -122q-87 -49 -228 -49l-39 -178h-89zM318 49l90 421q-136 0 -203 -69q-74 -78 -74 -193
q3 -95 61.5 -128t125.5 -31zM401 49q112 0 182 56q56 44 76 102.5t20 110.5q-3 152 -190 152z" />
    <glyph glyph-name="Ugrave" unicode="&#x444;" horiz-adv-x="809" 
d="M264 -191l37 178q-88 0 -148 29q-52 26 -82.5 73.5t-31.5 121.5q-1 79 35 148.5t95 109.5q100 65 247 65l39 184h91l-38 -184q105 0 168 -35q101 -57 98 -185q0 -77 -39 -156t-115 -122q-87 -49 -228 -49l-39 -178h-89zM318 49l90 421q-136 0 -203 -69q-74 -78 -74 -193
q3 -95 61.5 -128t125.5 -31zM401 49q112 0 182 56q56 44 76 102.5t20 110.5q-3 152 -190 152z" />
    <glyph glyph-name="dotlessi" unicode="&#xf5;" horiz-adv-x="494" 
d="M260 324l163 196h112l-231 -256l136 -264h-102l-102 214l-177 -214h-115l251 278l-129 242h100z" />
    <glyph glyph-name="dotlessi" unicode="&#x445;" horiz-adv-x="494" 
d="M260 324l163 196h112l-231 -256l136 -264h-102l-102 214l-177 -214h-115l251 278l-129 242h100z" />
    <glyph glyph-name="circumflex" unicode="&#xf6;" horiz-adv-x="605" 
d="M121 62h260l98 458h90l-99 -458h93l-52 -196h-75l30 134h-452l111 520h91z" />
    <glyph glyph-name="circumflex" unicode="&#x446;" horiz-adv-x="605" 
d="M121 62h260l98 458h90l-99 -458h93l-52 -196h-75l30 134h-452l111 520h91z" />
    <glyph glyph-name="circumflex" unicode="&#x2c6;" horiz-adv-x="605" 
d="M121 62h260l98 458h90l-99 -458h93l-52 -196h-75l30 134h-452l111 520h91z" />
    <glyph glyph-name="tilde" unicode="&#xf7;" horiz-adv-x="515" 
d="M97 520h87l-33 -161q-7 -28 -5.5 -46t19.5 -28q19 -10 84 -10q16 0 53 2t54 2l54 241h89l-111 -520h-90l46 214q-17 0 -53 -1t-67 -2q-116 0 -149 38q-28 32 -15 95z" />
    <glyph glyph-name="tilde" unicode="&#x447;" horiz-adv-x="515" 
d="M97 520h87l-33 -161q-7 -28 -5.5 -46t19.5 -28q19 -10 84 -10q16 0 53 2t54 2l54 241h89l-111 -520h-90l46 214q-17 0 -53 -1t-67 -2q-116 0 -149 38q-28 32 -15 95z" />
    <glyph glyph-name="tilde" unicode="&#x2dc;" horiz-adv-x="515" 
d="M97 520h87l-33 -161q-7 -28 -5.5 -46t19.5 -28q19 -10 84 -10q16 0 53 2t54 2l54 241h89l-111 -520h-90l46 214q-17 0 -53 -1t-67 -2q-116 0 -149 38q-28 32 -15 95z" />
    <glyph glyph-name="macron" unicode="&#xf8;" horiz-adv-x="853" 
d="M124 62h216l96 458h91l-97 -458h216l98 458h89l-111 -520h-706l111 520h93z" />
    <glyph glyph-name="macron" unicode="&#x448;" horiz-adv-x="853" 
d="M124 62h216l96 458h91l-97 -458h216l98 458h89l-111 -520h-706l111 520h93z" />
    <glyph glyph-name="breve" unicode="&#xf9;" horiz-adv-x="853" 
d="M114 62h217l96 458h91l-98 -458h218l96 458h90l-96 -458h90l-53 -196h-76l31 134h-712l113 520h90z" />
    <glyph glyph-name="breve" unicode="&#x449;" horiz-adv-x="853" 
d="M114 62h217l96 458h91l-98 -458h218l96 458h90l-96 -458h90l-53 -196h-76l31 134h-712l113 520h90z" />
    <glyph glyph-name="dotaccent" unicode="&#xfa;" horiz-adv-x="605" 
d="M54 453l12 67h225l-45 -206l127 2q190 0 186 -138q-5 -77 -60.5 -127.5t-149.5 -50.5h-258l94 453h-131zM234 250l-39 -188h125q81 0 112 33t31 76q0 46 -29 64t-90 18z" />
    <glyph glyph-name="dotaccent" unicode="&#x44a;" horiz-adv-x="605" 
d="M54 453l12 67h225l-45 -206l127 2q190 0 186 -138q-5 -77 -60.5 -127.5t-149.5 -50.5h-258l94 453h-131zM234 250l-39 -188h125q81 0 112 33t31 76q0 46 -29 64t-90 18z" />
    <glyph glyph-name="ring" unicode="&#xfb;" horiz-adv-x="718" 
d="M121 520h90l-42 -206l122 2q192 0 188 -138q-3 -77 -59 -127.5t-149 -50.5h-261zM614 520h91l-111 -520h-89zM153 250l-39 -188h126q143 0 143 109q1 45 -28 63.5t-91 18.5z" />
    <glyph glyph-name="ring" unicode="&#x44b;" horiz-adv-x="718" 
d="M121 520h90l-42 -206l122 2q192 0 188 -138q-3 -77 -59 -127.5t-149 -50.5h-261zM614 520h91l-111 -520h-89zM153 250l-39 -188h126q143 0 143 109q1 45 -28 63.5t-91 18.5z" />
    <glyph glyph-name="cedilla" unicode="&#xfc;" horiz-adv-x="515" 
d="M121 520h90l-42 -206l122 2q192 0 188 -138q-3 -77 -59 -127.5t-149 -50.5h-261zM153 250l-39 -188h126q143 0 143 109q1 45 -28 63.5t-91 18.5z" />
    <glyph glyph-name="cedilla" unicode="&#x44c;" horiz-adv-x="515" 
d="M121 520h90l-42 -206l122 2q192 0 188 -138q-3 -77 -59 -127.5t-149 -50.5h-261zM153 250l-39 -188h126q143 0 143 109q1 45 -28 63.5t-91 18.5z" />
    <glyph glyph-name="hungarumlaut" unicode="&#xfd;" horiz-adv-x="562" 
d="M195 238l15 63h224q16 79 -10 122q-20 50 -101 52q-70 1 -115 -32t-63 -87h-89q20 67 60 107q74 77 207 77q207 -6 207 -196q-2 -65 -19.5 -130t-51.5 -115q-34 -51 -75.5 -76.5t-78 -32t-80.5 -6.5q-141 0 -186 78q-28 47 -23 119h88q-9 -60 21 -97q31 -39 102 -39
q56 0 113 39t80 154h-225z" />
    <glyph glyph-name="hungarumlaut" unicode="&#x44d;" horiz-adv-x="562" 
d="M195 238l15 63h224q16 79 -10 122q-20 50 -101 52q-70 1 -115 -32t-63 -87h-89q20 67 60 107q74 77 207 77q207 -6 207 -196q-2 -65 -19.5 -130t-51.5 -115q-34 -51 -75.5 -76.5t-78 -32t-80.5 -6.5q-141 0 -186 78q-28 47 -23 119h88q-9 -60 21 -97q31 -39 102 -39
q56 0 113 39t80 154h-225z" />
    <glyph glyph-name="ogonek" unicode="&#xfe;" horiz-adv-x="787" 
d="M165 305h81q23 90 85 152q85 83 215 86q40 0 88 -13.5t87 -62.5t38 -144q0 -46 -16 -106.5t-60 -121.5q-47 -66 -104.5 -90t-129.5 -26q-140 0 -194 94q-37 71 -21 170h-83l-52 -243h-91l110 520h92zM334 250q-4 -25 -4 -58q-1 -93 41 -121t84 -28q100 0 159 97
q42 72 49 183q3 95 -40 124t-88 29q-84 0 -134 -63.5t-67 -162.5z" />
    <glyph glyph-name="ogonek" unicode="&#x44e;" horiz-adv-x="787" 
d="M165 305h81q23 90 85 152q85 83 215 86q40 0 88 -13.5t87 -62.5t38 -144q0 -46 -16 -106.5t-60 -121.5q-47 -66 -104.5 -90t-129.5 -26q-140 0 -194 94q-37 71 -21 170h-83l-52 -243h-91l110 520h92zM334 250q-4 -25 -4 -58q-1 -93 41 -121t84 -28q100 0 159 97
q42 72 49 183q3 95 -40 124t-88 29q-84 0 -134 -63.5t-67 -162.5z" />
    <glyph glyph-name="fl" unicode="&#xff;" horiz-adv-x="538" 
d="M253 204l-164 -204h-105l176 205q-48 5 -81 35.5t-33 95.5q0 76 54 130t156 54h262l-110 -520h-92l47 204h-110zM414 457h-130q-139 0 -144 -111q-1 -80 106 -80h129z" />
    <glyph glyph-name="fl" unicode="&#x44f;" horiz-adv-x="538" 
d="M253 204l-164 -204h-105l176 205q-48 5 -81 35.5t-33 95.5q0 76 54 130t156 54h262l-110 -520h-92l47 204h-110zM414 457h-130q-139 0 -144 -111q-1 -80 106 -80h129z" />
    <glyph glyph-name="Otilde" unicode="&#x152;" horiz-adv-x="674" 
d="M201 364l429 354h127l-365 -307l238 -411h-121l-198 355l-133 -111l-53 -244h-98l154 718h97z" />
    <glyph glyph-name="oe" unicode="&#x153;" horiz-adv-x="505" 
d="M13 153h91q-8 -31 12 -68q36 -39 109 -39q74 0 113 45q26 23 26 62q1 34 -20 49.5t-71 24.5q-20 4 -51.5 11t-54.5 14.5t-37 16.5q-49 28 -49 84q-3 82 62 135q54 47 161 47q122 0 162 -52q30 -33 28 -100h-89q0 33 -11 53q-27 34 -89 37q-55 0 -100 -29q-32 -30 -32 -69
q1 -28 19 -42t45.5 -21t70.5 -14q81 -19 118 -42.5t37 -80.5q0 -82 -60 -135q-67 -52 -179 -54q-127 0 -181 57q-42 46 -30 110z" />
    <glyph glyph-name="florin" unicode="&#x192;" horiz-adv-x="400" 
d="M386 595q-25 -53 -66 -199h71q8 0 9 -2q3 -2 0 -11q-3 -12 -7 -16q-1 -3 -10 -3h-73q-52 -174 -95.5 -295.5t-77.5 -182.5q-60 -105 -136 -105q-29 0 -45 18q-14 20 -7 47q5 19 16 29q10 12 24 12q17 0 22 -11q8 -8 5 -31q0 -2 -2 -18q-4 -23 9 -24q62 0 191 443
q21 71 36 118h-72q-8 0 -10 2v12q3 12 7 15q2 3 11 3h75q48 146 105 220q57 72 120 72q27 0 40 -16q12 -16 6 -43q-5 -20 -19 -31q-13 -12 -29 -12q-13 0 -20 8q-5 10 -5 26v2v0.5t-1 0.5q2 21 -3 27q-1 6 -13 6q-25 0 -56 -61z" />
    <glyph glyph-name="dagger" unicode="&#x2020;" horiz-adv-x="400" 
d="M251 542q-23 -52 -31 -114h9q28 0 61 15q26 14 44 16q18 0 25 -11q9 -10 9 -32q0 -17 -10 -27q-9 -10 -26 -10q-10 0 -45 17q-38 16 -71 16q-4 -32 -5 -42q-1 -13 -1 -36q0 -25 3 -48q4 -27 10 -46q-31 -71 -54 -162q-19 -73 -54 -264h-15q17 91 33 208q11 91 11 150v33
q0 20 -1 31q18 28 36 76q14 43 23 99h-4q-27 0 -62 -16q-37 -17 -49 -17q-14 0 -23 9q-6 8 -8 27q0 21 9 31q11 11 28 11q9 0 43 -15q34 -14 65 -14h5q6 52 7 58q1 7 1.5 17t0.5 17q0 18 -3 45q-3 29 -3 39q0 22 10 33q11 12 28 12q14 0 21 -11q6 -9 8 -28q0 -11 -25 -67z
" />
    <glyph glyph-name="currency" unicode="&#x2219;" 
d="M455 0h-89l15 59h-2q-70 -73 -191 -73q-69 1 -106 33.5t-37 90.5q0 38 9 63l73 347h89l-67 -319q-9 -41 -9 -74q0 -34 23 -53.5t64 -17.5q78 3 132 55q41 41 57 125l59 284h94z" />
    <glyph glyph-name="DC4" horiz-adv-x="494" 
d="M75 289l373 518l115 -518l-374 -522zM507 289l-88 399l-288 -399l88 -403z" />
    <glyph glyph-name="onehalf" horiz-adv-x="790" 
d="M413 593q-3 0 -5 1q0 4 -1 7v11q0 61 47 112q45 51 115 64v-12q0 -9 1 -18q0 -64 -51 -115q-50 -50 -99 -50h-4h-3zM650 264q31 -44 85 -67q-56 -121 -100 -168q-46 -46 -100 -46q-25 0 -64 16t-60 16q-23 0 -64 -16t-62 -16q-30 0 -63 21q-32 24 -63 65q-47 65 -77 144
q-25 72 -27 147q0 107 61 174t158 67q35 0 76 -17q45 -16 60 -16q18 0 59 17q45 17 75 17q55 0 97 -19q43 -20 78 -61q-49 -31 -74 -71q-22 -36 -24 -89q0 -54 29 -98z" />
    <glyph glyph-name="cent" horiz-adv-x="400" 
d="M107 407q48 66 122 93l27 124q0 3 4 4q4 2 8 2q1 0 5 -2q1 0 2 -3v-2l-27 -119h5q5 0 9 1q30 0 47 -13q18 -12 18 -31q0 -8 -6 -16q-7 -5 -17 -5q-15 0 -32 21q-14 19 -27 26l-72 -313h3q12 -2 13 -2q17 0 35 9q19 12 36 29q10 10 19 25t14 15q2 0 3 -2q2 -2 2 -6
q0 -22 -45 -66q-43 -42 -87 -42h-3l-30 -128q0 -4 -4 -5q-1 -1 -7 -1q-4 0 -6 1q-2 2 -2 5v1l31 128q-41 11 -62 45q-21 33 -23 85q0 74 47 142zM156 180l69 302q-48 -21 -79 -80q-31 -58 -31 -127q0 -34 11 -61q10 -23 30 -34z" />
    <glyph glyph-name="sterling" horiz-adv-x="400" 
d="M214 411q2 -24 14 -104h78q5 0 6 -1l2 -6v-4q0 -5 -2 -9l-6 -2h-76q0 -53 -13 -99q-14 -47 -39 -89q46 -37 67 -48q19 -10 38 -10q31 0 50 25q18 27 18 70v9q0 4 -1 5q0 3 2 7q2 2 5 2q4 0 7 -7q3 -6 3 -20q0 -65 -31 -106q-32 -41 -79 -41q-28 0 -55 15q-27 16 -58 51
q-31 -31 -61 -47q-28 -13 -58 -13q-36 0 -58 21q-23 21 -23 55q0 39 28 66q28 26 70 26q28 0 53 -11q24 -9 61 -35q10 15 17 39q5 25 5 52q0 24 -2 37q-5 33 -8 46h-71q-3 0 -7 2q-1 1 -1 8q0 9 1 10q2 2 7 2h65q-4 20 -7 51q-2 34 -2 51q0 92 51 162q51 71 114 71
q27 0 44 -13q15 -13 17 -33q0 -12 -7 -23q-7 -9 -18 -9q-14 0 -35 24q-20 23 -35 25q-27 0 -51 -45q-23 -44 -23 -104q0 -22 4 -53zM90 28q20 14 38 43q-18 31 -38 48q-21 16 -40 16q-21 0 -36 -17q-14 -19 -14 -44q0 -29 14 -44q13 -15 37 -17q20 0 39 15z" />
    <glyph glyph-name="acute" horiz-adv-x="1344" 
d="M131 0l619 718h80l-619 -718h-80zM92 520q25 109 89 163q48 41 110 41q58 0 92 -24q62 -42 53 -131q-2 -47 -18.5 -98t-51.5 -90q-60 -67 -135 -67q-54 0 -88 26q-61 39 -58 133q5 20 7 47zM530 198q30 112 90 161q48 42 110 42q50 0 90 -25q61 -42 53 -132
q0 -43 -17.5 -95.5t-51.5 -92.5q-54 -62 -135 -62q-52 0 -90 22q-60 44 -55 130q0 9 2 21.5t4 30.5zM160 520q-7 -21 -7 -39q-3 -53 17.5 -82t59.5 -29q63 0 104 68q34 56 36 121q5 47 -14 78.5t-61 31.5q-52 0 -90 -47q-32 -44 -45 -102zM598 198q-6 -21 -6 -39
q-4 -55 16 -84.5t59 -29.5q61 0 105 69q26 43 37 120q5 50 -14.5 81t-61.5 31q-51 0 -89 -45q-32 -44 -46 -103zM938 198q30 112 90 161q48 42 110 42q50 0 90 -25q61 -42 53 -132q0 -43 -17.5 -95.5t-51.5 -92.5q-54 -62 -135 -62q-52 0 -90 22q-60 44 -55 130q0 9 2 21.5
t4 30.5zM1006 198q-6 -21 -6 -39q-4 -55 16 -84.5t59 -29.5q61 0 105 69q26 43 37 120q5 50 -14.5 81t-61.5 31q-51 0 -89 -45q-32 -44 -46 -103z" />
    <glyph glyph-name="notequal" horiz-adv-x="708" 
d="M130 485h301l106 179l41 -24l-92 -155h252l-14 -54h-270l-91 -153h323l-13 -54h-342l-110 -184l-39 24l95 160h-212l13 54h231l90 153h-283z" />
    <glyph glyph-name="AE" horiz-adv-x="538" 
d="M250 633l-134 -633h-95l152 718h457l-16 -85h-364z" />
    <glyph glyph-name="Oslash" horiz-adv-x="424" 
d="M198 453l-97 -453h-93l110 520h358l-14 -67h-264z" />
    <glyph glyph-name="infinity" horiz-adv-x="625" 
d="M429 183q-25 24 -43 85q-47 -59 -88 -86q-39 -27 -81 -27q-58 0 -87 45q-27 43 -12 114q18 72 65 114q45 44 104 44q41 0 68 -27q26 -29 40 -86q47 62 87 88q41 27 87 27q53 0 83 -46q27 -45 12 -112q-18 -72 -65 -114q-45 -43 -104 -44q-42 0 -66 25zM286 230
q39 30 91 107q-12 41 -39 62q-24 21 -63 21q-48 0 -85 -31q-38 -33 -49 -80q-12 -45 7 -79q21 -29 62 -31q38 0 76 31zM495 398q-35 -27 -91 -106q14 -43 38 -63q26 -21 64 -21q46 0 84 31q37 31 50 80q12 47 -8 79t-61 32q-37 0 -76 -32z" />
    <glyph glyph-name="lessequal" horiz-adv-x="625" 
d="M233 385l396 -128l-13 -53l-464 161l10 40l544 161l-13 -53zM77 63l12 48h504l-12 -48h-504z" />
    <glyph glyph-name="greaterequal" horiz-adv-x="625" 
d="M585 385l-396 128l13 53l464 -161l-10 -40l-544 -161l13 53zM77 63l12 48h504l-12 -48h-504z" />
    <glyph glyph-name="yen" horiz-adv-x="400" 
d="M133 571q0 -6 3 -15l64 -253l121 167v0q70 97 70 116q0 16 -30 22q-2 0 -3 1q-14 0 -18 2q-5 3 -5 9q0 5 5 9q3 2 13 4q3 0 7 -1h9q6 0 11 -1q24 -3 39 -3q32 0 59 4h4h3q2 0 3 1q6 0 9 -4q2 -2 4 -8q0 -6 -4 -9t-14 -3q-1 -1 -5 -3q-1 0 -11 -2q-14 -6 -36 -29
q-20 -20 -55 -67l-72 -96h114q5 0 6 -1l2 -6v-4q0 -5 -2 -9l-6 -2h-131l-58 -78h166q5 0 6 -1q2 0 2 -5v-4q0 -5 -2 -9l-7 -2h-182l-8 -13l-45 -178q-1 -7 -2 -12.5t-3 -13.5q-2 -16 -2 -19q0 -13 5 -19q4 -7 16 -10q8 -2 18 -2q22 -1 23 -14q0 -4 -5 -9q1 0 -13 -2
q-4 0 -8 1h-11q-20 2 -31 3q-19 0 -30 1q-27 0 -52 -4q-28 -2 -33 -3q-8 0 -11 3t-3 9q0 12 22 13q11 2 18 3q17 3 24 13q7 9 13 31l56 222h-166q-2 0 -3.5 0.5t-2.5 0.5l-2 10q0 6 2 8t6 2h160l-21 78h-117q-5 0 -6 1q0 2 -1 5v5q0 3 0.5 5t0.5 4q2 2 7 2h111l-43 157
q-9 33 -33 40v0h-1q-9 3 -9 11q0 6 4 9q3 2 12 4q3 0 5 -1h4q12 -2 20 -3q7 -1 24 -1q23 0 53 3q6 0 8 1h4q2 0 5 1q6 0 10 -3t4 -8q0 -6 -4 -9q-4 -2 -18 -4h-1q-30 -4 -30 -25q0 -8 1 -13z" />
    <glyph glyph-name="mu" horiz-adv-x="527" 
d="M90 19q-26 28 -34 85q-17 -79 -28 -197q-9 -109 -46 -109q-16 0 -24 11q-8 10 -10 29q0 19 31 131q28 100 50 210l47 235q3 16 10 22q6 3 23 5q11 0 19 -4q6 -4 6 -14q0 -4 -1 -6v-3l-46 -230q-4 -18 -4 -26q-2 -14 -2 -22q0 -43 23 -71q24 -25 66 -25q50 0 87 40
q36 37 51 111l45 223q3 15 10 21q8 6 23 6q11 0 19 -4q6 -4 6 -14v-6v-1t-1 -2l-48 -239q-7 -42 -8 -46q-3 -21 -3 -33q0 -27 11 -39q10 -13 32 -13q23 0 41 15q17 14 29 46q5 11 9 27q9 28 18 28q5 0 8 -4l2 -11q0 -51 -39 -102q-37 -48 -88 -50q-37 0 -56 22
q-18 23 -18 66v13q-21 -53 -55 -78q-33 -25 -79 -25q-49 0 -76 28z" />
    <glyph glyph-name="partialdiff" horiz-adv-x="505" 
d="M320 361q30 -22 47 -72q6 41 9 78q3 38 3 73q0 78 -20 118q-18 41 -56 41q-23 0 -53 -34q-26 -31 -50 -33q-15 0 -26 10q-10 9 -10 23q0 30 31 52q29 22 76 22q82 0 129 -74q48 -72 48 -198q0 -162 -66 -272q-66 -108 -163 -108q-69 0 -114 52q-44 53 -44 136
q0 86 53 148t128 62q48 0 78 -24zM311 72q36 62 36 154q0 63 -22 94q-21 32 -65 32q-55 0 -92 -61q-35 -61 -35 -157q0 -62 21 -92q21 -29 66 -31q55 0 91 61z" />
    <glyph glyph-name="summation" horiz-adv-x="515" 
d="M8 236h97q-13 -52 -13 -80q3 -94 99 -94q79 0 117 59q27 47 38 117l104 480h96l-100 -472q-25 -119 -63 -173q-55 -89 -198 -89q-186 -5 -186 162q0 57 9 90z" />
    <glyph glyph-name="product" horiz-adv-x="740" 
d="M585 236h103q-31 -92 -79 -151q-36 -41 -80 -66t-87 -34t-96 -11q-134 0 -213 70t-82 211q-3 80 24 182t110 187q61 64 131 89t146 27q159 0 232 -81q29 -36 36.5 -80t-0.5 -85h-97q5 38 -8.5 75.5t-54 63t-111.5 24.5q-102 0 -175 -69q-70 -63 -105 -178h355l-19 -80
h-353q-23 -127 33 -205q56 -75 155 -69q91 0 152 52t83 128z" />
    <glyph glyph-name="pi" horiz-adv-x="538" 
d="M410 184h85q-58 -195 -255 -200q-62 -7 -139 34.5t-77 172.5q0 135 75 239q84 110 225 110q115 0 164.5 -53.5t38.5 -130.5h-84q3 41 -18.5 81.5t-96.5 37.5q-85 -1 -128.5 -55t-63.5 -119h234l-15 -63h-231q-17 -79 10 -133q31 -60 109 -60q123 0 167 139z" />
    <glyph glyph-name="ordmasculine" horiz-adv-x="718" 
d="M-45 0l18 84q74 -14 132 52q38 44 67 125.5t42 146.5l71 310h445l-151 -718h-96l135 634h-252l-56 -246q-26 -110 -55 -185t-76 -128q-47 -51 -99.5 -67t-124.5 -8z" />
    <glyph glyph-name="Omega" horiz-adv-x="562" 
d="M-49 0l13 65q70 -8 109 49q30 43 70 210l41 196h369l-110 -520h-93l99 457h-194l-25 -133q-38 -175 -87 -253q-67 -87 -192 -71z" />
    <glyph glyph-name="ae" horiz-adv-x="718" 
d="M195 336l-71 -336h-97l154 718h94l-64 -300h362l61 300h99l-152 -718h-98l72 336h-360z" />
    <glyph glyph-name="oslash" 
d="M160 243l-52 -243h-92l111 520h91l-45 -215h258l44 215h94l-114 -520h-91l52 243h-256z" />
    <glyph glyph-name="questiondown" horiz-adv-x="225" 
d="M121 520h93l-122 -566q-17 -77 -46 -105q-38 -40 -108 -41q-15 0 -27.5 0.5t-28.5 0.5l14 67q51 -2 72 14q27 22 36 74zM140 622l20 96h96l-18 -96h-98z" />
    <glyph glyph-name="exclamdown" horiz-adv-x="650" 
d="M34 227h97q-14 -76 25 -119q42 -46 135 -46q106 -1 154.5 47.5t48.5 104.5q-1 40 -21.5 61t-46 29t-82.5 20q-109 26 -148 39.5t-65 45t-26 94.5q0 100 70 160q46 46 105.5 61.5t124.5 15.5q152 0 206 -73q27 -32 32 -71.5t-2 -67.5h-91q6 53 -22 86q-34 46 -129 43
q-94 -1 -141.5 -43.5t-47.5 -93.5q0 -46 34 -65.5t122 -38.5q120 -24 177.5 -54.5t61.5 -117.5q3 -53 -18.5 -102.5t-58.5 -85.5q-46 -44 -108 -58t-136 -14q-177 0 -230 89q-20 36 -23 76.5t3 77.5z" />
    <glyph glyph-name="radical" horiz-adv-x="623" 
d="M306 106l429 693h87l-9 -35h-61l-485 -784h-20l-51 439l-60 -19l-2 28l130 42z" />
    <glyph glyph-name="approxequal" horiz-adv-x="625" 
d="M558 239q32 12 74 39l-13 -54q-34 -21 -70 -33q-31 -9 -68 -11q-44 0 -119 30q-73 30 -115 30q-31 0 -64 -13q-33 -11 -75 -38l14 54q37 22 75 33t68 11q43 0 115 -31q69 -28 114 -30q28 0 64 13zM598 401q30 12 75 39l-14 -54q-42 -24 -70 -33q-36 -11 -68 -11
q-43 0 -118 30q-69 28 -116 30q-31 0 -64 -13q-30 -11 -74 -38l13 54q41 23 75 33q38 11 68 11q43 0 115 -31q69 -28 115 -30q24 0 63 13z" />
    <glyph glyph-name="Delta" horiz-adv-x="528" 
d="M20 23l395 616q2 3 6 7q1 1 3 1.5t4 0.5t4 -2q3 -3 3 -7l85 -618v-7q2 -2 0 -4q0 -5 -6 -8q-4 -2 -10 -2h-477q-8 0 -11 3q-2 2 -2 8q0 3 2 5q0 1 4 7zM379 528q-1 -1 -5 -6l-288 -449q-3 -6 -5 -8v-2q-1 -1 1 -5q2 0 4 -0.5t3 -1.5h343q2 0 8 2q4 1 4 4q1 1 1 5t-1 7
l-55 448q0 2 -2 6q0 1 -1.5 1.5t-3.5 0.5q-1 0 -3 -2z" />
    <glyph glyph-name="OE" horiz-adv-x="494" 
d="M165 285l255 235h115l-285 -249l194 -271h-106l-178 260l-55 -260h-91l111 520h91z" />
    <glyph glyph-name="fraction" horiz-adv-x="695" 
d="M162 718h94l-90 -428q-7 -42 -13 -92q0 -132 152 -133q111 0 171 69q26 30 41 69.5t26 86.5l87 428h98l-95 -440q-25 -140 -99 -213q-48 -47 -104.5 -63t-124.5 -16q-97 0 -170 36t-76 156q-2 21 7 100z" />
  </font>
</defs>
</svg>
