<?xml version="1.0" encoding="UTF-8" standalone="no"?>
<svg width="18px" height="18px" viewBox="0 0 18 18" version="1.1" xmlns="http://www.w3.org/2000/svg" xmlns:xlink="http://www.w3.org/1999/xlink" xmlns:sketch="http://www.bohemiancoding.com/sketch/ns">
    <!-- Generator: Sketch 3.0.1 (7597) - http://www.bohemiancoding.com/sketch -->
    <title>Phone_icon</title>
    <description>Created with Sketch.</description>
    <defs></defs>
    <g id="Welcome" stroke="none" stroke-width="1" fill="none" fill-rule="evenodd" sketch:type="MSPage">
        <g id="Phone_icon" sketch:type="MSArtboardGroup" stroke="#ECB810">
            <path d="M4.9766083,0.926441145 L6.64478234,3.741305 C6.75638756,3.93495853 6.78932217,4.1409895 6.74202026,4.36155379 C6.69513414,4.58261305 6.58744857,4.76395977 6.41904316,4.90468377 L4.66527097,6.37415222 C5.47253032,7.74713665 6.40006305,9.05727133 7.44782935,10.3050114 C8.47904344,11.532043 9.60510536,12.6719888 10.82663,13.7230682 L12.5936149,12.2547557 C12.7529479,12.1127794 12.9518299,12.0435083 13.190836,12.045617 C13.4288512,12.0485561 13.629594,12.1206895 13.7911623,12.2627678 L16.2530377,14.3491477 C16.414982,14.4921761 16.5007413,14.6716454 16.5089489,14.8874361 C16.5175325,15.1041768 16.4422175,15.2828526 16.2833402,15.4248688 L13.8614006,17.4421188 L13.4364873,17.418701 C13.1540081,17.3939873 12.7390972,17.2824807 12.1918738,17.0828159 C11.6446107,16.8836062 11.0391361,16.6151029 10.3759057,16.2773459 C9.71180382,15.939054 8.932912,15.3962827 8.03877461,14.6489921 C7.14463721,13.9017015 6.26939809,13.0171156 5.41323415,11.9984597 C4.56508979,10.9878426 3.85013016,9.97145182 3.26976193,8.94895173 C2.68901771,7.9255016 2.28539859,7.07621551 2.05985559,6.40071809 C1.8343126,5.72522068 1.67865054,5.06959436 1.59146279,4.43417464 C1.50473064,3.79879479 1.46770657,3.38237782 1.48031094,3.18583392 C1.4928755,2.98974511 1.5085094,2.84253399 1.52596525,2.74271568 L3.93370124,0.725140144 C4.1117143,0.584798124 4.30139537,0.536733726 4.50399185,0.582431811 C4.70662814,0.627674803 4.86420677,0.741889487 4.9766083,0.926441145 Z" id="Phone_icon-2" sketch:type="MSShapeGroup"></path>
        </g>
    </g>
</svg>