<?xml version="1.0" standalone="no"?>
<!DOCTYPE svg PUBLIC "-//W3C//DTD SVG 1.1//EN" "http://www.w3.org/Graphics/SVG/1.1/DTD/svg11.dtd" >
<svg xmlns="http://www.w3.org/2000/svg">
<metadata></metadata>
<defs>
<font id="rodeocbold" horiz-adv-x="1757" >
<font-face units-per-em="2048" ascent="1548" descent="-500" />
<missing-glyph horiz-adv-x="546" />
<glyph horiz-adv-x="2048" />
<glyph horiz-adv-x="2048" />
<glyph unicode="&#xd;" horiz-adv-x="2048" />
<glyph unicode=" "  horiz-adv-x="546" />
<glyph unicode="&#x09;" horiz-adv-x="546" />
<glyph unicode="&#xa0;" horiz-adv-x="546" />
<glyph unicode="!" horiz-adv-x="604" d="M141 0v342h322v-342h-322zM141 1042v420h322v-420l-84 -532h-156z" />
<glyph unicode="&#x22;" horiz-adv-x="698" d="M82 905v576h199v-576h-199zM418 905v576h198v-576h-198z" />
<glyph unicode="#" horiz-adv-x="1624" d="M47 418l78 207h291l90 249h-309l75 207h308l151 428h227l-149 -428h250l151 428h228l-152 -428h291l-76 -207h-289l-88 -249h301l-73 -207h-301l-152 -428h-227l151 428h-250l-155 -428h-225l149 428h-295zM641 625h258l90 249h-258z" />
<glyph unicode="$" horiz-adv-x="1099" d="M70 1083q0 171 100 270.5t281 106.5v166h137v-168q71 -26 145 -86v92h223v-458h-223v102q-19 51 -55 81.5t-98 49.5v-344l129 -74q166 -96 243.5 -200.5t77.5 -243.5q0 -186 -111.5 -284.5t-324.5 -98.5h-6v-213h-137v229q-86 27 -144 82v-92h-227v502h227v-121 q21 -91 154 -156v412l-133 74q-134 77 -196 165.5t-62 206.5zM334 1114q0 -52 31.5 -91t99.5 -79v309q-61 -4 -96 -41.5t-35 -97.5zM578 211q84 7 129 49t45 113q0 66 -41.5 113.5t-132.5 91.5v-367z" />
<glyph unicode="%" horiz-adv-x="1679" d="M37 1067q0 195 93 308.5t245 113.5q154 0 246 -113t92 -309t-92 -308t-246 -112q-152 0 -245 112.5t-93 307.5zM256 1067q0 -104 33 -163.5t84 -59.5q54 0 87.5 59t33.5 164t-33.5 165t-87.5 60q-51 0 -84 -60.5t-33 -164.5zM299 -31l895 1520h184l-895 -1520h-184z M965 389q0 195 93 308.5t245 113.5q154 0 245.5 -113t91.5 -309t-91.5 -308t-245.5 -112q-152 0 -245 112.5t-93 307.5zM1184 389q0 -104 32.5 -163.5t83.5 -59.5q54 0 87.5 59t33.5 164t-33.5 165t-87.5 60q-51 0 -83.5 -60t-32.5 -165z" />
<glyph unicode="&#x26;" horiz-adv-x="1566" d="M51 449q0 147 90.5 257.5t280.5 200.5q-103 145 -103 256q0 143 103.5 234.5t269.5 91.5q171 0 272 -85t101 -220q0 -95 -57.5 -169.5t-180.5 -146.5l211 -268q112 159 160 299h315v-231h-159q-84 -175 -166 -267l129 -168h196v-233h-399l-127 168q-190 -199 -434 -199 q-138 0 -253 63t-182 173.5t-67 243.5zM365 494q0 -93 74 -164.5t173 -71.5q109 0 230 109l-285 360q-92 -39 -142 -101t-50 -132zM600 1210q0 -64 86 -170q123 82 123 168q0 39 -30.5 69t-73.5 30q-49 0 -77 -26t-28 -71z" />
<glyph unicode="'" horiz-adv-x="364" d="M84 905v576h197v-576h-197z" />
<glyph unicode="(" horiz-adv-x="899" d="M225 580q0 354 147.5 589.5t415.5 319.5v-205q-128 -86 -188.5 -257.5t-60.5 -442.5q0 -545 249 -709v-207q-269 85 -416 321.5t-147 590.5z" />
<glyph unicode=")" horiz-adv-x="899" d="M111 -127q128 86 188.5 258.5t60.5 443.5q0 273 -60.5 448t-188.5 259v207q269 -85 416 -321t147 -590t-148 -590t-415 -320v205z" />
<glyph unicode="*" horiz-adv-x="995" d="M145 1169l56 166l217 -82l-8 236h174l-9 -236l222 82l53 -168l-225 -63l145 -184l-141 -103l-131 195l-129 -195l-142 105l144 182z" />
<glyph unicode="+" d="M260 528v203h514v526h209v-526h512v-203h-512v-528h-209v528h-514z" />
<glyph unicode="," horiz-adv-x="548" d="M100 -193q80 14 117 53.5t37 114.5v25h-143v342h321v-305q0 -194 -78 -286t-254 -101v157z" />
<glyph unicode="-" d="M260 526v209h1235v-209h-1235z" />
<glyph unicode="." horiz-adv-x="548" d="M115 0v342h321v-342h-321z" />
<glyph unicode="/" horiz-adv-x="671" d="M-66 -197l576 1686h174l-578 -1686h-172z" />
<glyph unicode="0" horiz-adv-x="1099" d="M61 729q0 364 130.5 562t357.5 198q231 0 360 -200.5t129 -577.5q0 -350 -132.5 -546t-356.5 -196q-227 0 -357.5 198t-130.5 562zM385 733q0 -257 45 -395.5t119 -138.5q75 0 120.5 139t45.5 395q0 258 -45 396.5t-121 138.5q-75 0 -119.5 -138.5t-44.5 -396.5z" />
<glyph unicode="1" horiz-adv-x="1099" d="M195 0v229h198v1016h-198v217h512v-1233h184v-229h-696z" />
<glyph unicode="2" horiz-adv-x="1097" d="M63 0v63q0 151 45.5 273t145.5 237q53 60 181 181t173 188q58 82 58 178q0 73 -35.5 110.5t-102.5 37.5q-159 0 -159 -273v-32h-273q-2 23 -2 67q0 215 123.5 337t343.5 122q196 0 311 -103t115 -274q0 -77 -19 -138.5t-64 -118t-91 -98t-129 -106.5q-66 -52 -102 -82 t-82.5 -75.5t-70.5 -81.5t-44 -83t-25 -98h398v211h229v-442h-924z" />
<glyph unicode="3" horiz-adv-x="1099" d="M70 453v41h262q5 -142 49.5 -209.5t136.5 -67.5q83 0 130.5 59.5t47.5 165.5q0 117 -63 173.5t-193 56.5v227h6q232 0 232 203q0 82 -35.5 125t-103.5 43q-69 0 -110 -53t-50 -156h-248q0 198 114.5 313t313.5 115q189 0 302.5 -106.5t113.5 -280.5q0 -240 -246 -322 q291 -75 291 -364q0 -197 -133 -322t-346 -125q-226 0 -348.5 125.5t-122.5 358.5z" />
<glyph unicode="4" horiz-adv-x="1097" d="M2 565l635 924h246v-889h161v-209h-161v-160h149v-231h-586v231h152v160h-541q-15 93 -55 174zM240 590h358l14 547z" />
<glyph unicode="5" horiz-adv-x="1099" d="M47 397l275 33q9 -109 56.5 -167t129.5 -58q92 0 145.5 71.5t53.5 200.5q0 118 -51 186t-132 68q-104 0 -182 -127l-236 113l56 745h803v-356h-215l-17 129h-360l-27 -358q136 84 268 84q183 0 299.5 -130.5t116.5 -343.5q0 -241 -132.5 -379.5t-362.5 -138.5 q-213 0 -342 113.5t-146 314.5z" />
<glyph unicode="6" horiz-adv-x="1099" d="M74 731q0 368 136.5 563t387.5 195q179 0 286.5 -98.5t127.5 -282.5l-246 -37q-19 104 -58 153.5t-106 49.5q-96 0 -150.5 -101.5t-54.5 -293.5v-37q131 98 262 98q169 0 275 -126t106 -337q0 -228 -129.5 -368t-332.5 -140q-232 0 -368 200.5t-136 561.5zM397 629 q0 -195 54 -303.5t137 -108.5q74 0 117 63t43 177q0 121 -49 187.5t-136 66.5q-79 0 -166 -62v-20z" />
<glyph unicode="7" horiz-adv-x="1099" d="M84 1020v442h946v-194q-339 -518 -356 -1039h182v-229h-690v229h186v13q0 204 99.5 446t300.5 545h-443v-213h-225z" />
<glyph unicode="8" horiz-adv-x="1099" d="M49 391q0 140 73 238.5t212 144.5q-121 38 -185.5 124t-64.5 208q0 167 128 275t337 108t338 -108t129 -275q0 -122 -64.5 -208t-185.5 -124q139 -45 211 -144t72 -239q0 -184 -138 -303t-360 -119q-225 0 -363.5 119t-138.5 303zM354 424q0 -98 56.5 -162.5t138.5 -64.5 t139 65.5t57 161.5t-55.5 159.5t-140.5 63.5q-83 0 -139 -64.5t-56 -158.5zM381 1071q0 -89 48.5 -147t119.5 -58q70 0 120 58.5t50 146.5t-49.5 145.5t-120.5 57.5q-72 0 -120 -57t-48 -146z" />
<glyph unicode="9" horiz-adv-x="1099" d="M57 981q0 228 129 368t332 140q232 0 368 -200t136 -560q0 -368 -136.5 -564t-387.5 -196q-179 0 -285.5 98.5t-126.5 282.5l246 37q19 -104 58 -153.5t106 -49.5q95 0 148.5 101.5t53.5 292.5v38q-131 -98 -262 -98q-169 0 -274 125.5t-105 337.5zM348 1001 q0 -121 48.5 -187t135.5 -66q80 0 166 61v18q0 196 -52.5 305t-135.5 109q-75 0 -118.5 -63t-43.5 -177z" />
<glyph unicode=":" horiz-adv-x="598" d="M137 0v342h322v-342h-322zM137 700v342h322v-342h-322z" />
<glyph unicode=";" horiz-adv-x="598" d="M127 -193q80 14 117 53.5t37 114.5v25h-144v342h322v-305q0 -194 -78 -286t-254 -101v157zM137 700v342h322v-342h-322z" />
<glyph unicode="&#x3c;" d="M270 528v203l1215 500v-227l-920 -375l920 -375v-227z" />
<glyph unicode="=" d="M260 305v205h1235v-205h-1235zM260 750v204h1235v-204h-1235z" />
<glyph unicode="&#x3e;" d="M270 27v227l922 375l-922 375v227l1215 -500v-203z" />
<glyph unicode="?" horiz-adv-x="1095" d="M45 1030v23q0 195 138.5 316.5t363.5 121.5q221 0 355 -124.5t134 -322.5q0 -172 -107 -273t-294 -101h-29l-35 -168h-151l-21 395q58 -14 105 -14q101 0 155 48.5t54 139.5q0 89 -52.5 143t-140.5 54q-84 0 -134 -55t-50 -150v-33h-291zM336 0v342h321v-342h-321z" />
<glyph unicode="@" horiz-adv-x="2109" d="M92 537q0 216 81 401t222 313.5t336 201.5t418 73q245 0 442 -89.5t312.5 -259t115.5 -389.5q0 -175 -74 -329t-212.5 -251t-309.5 -97q-109 0 -165 43.5t-56 126.5q-112 -170 -305 -170q-164 0 -249 90.5t-85 261.5q0 248 144.5 413.5t353.5 165.5q167 0 244 -135 l53 103h184l-151 -617q-7 -28 -7 -43q0 -71 97 -71q76 0 142.5 49.5t110 126t68.5 166t25 172.5q0 119 -49 223t-137 179.5t-217 119t-281 43.5q-187 0 -348 -63t-273 -172t-175.5 -260t-63.5 -324q0 -317 213 -506t569 -189q341 0 623 197l84 -121q-316 -237 -703 -237 q-206 0 -385.5 60.5t-310.5 169.5t-206 270t-75 354zM782 459q0 -94 37.5 -137t116.5 -43q88 0 162.5 57.5t99.5 161.5l55 225q-12 83 -58.5 126.5t-121.5 43.5q-117 0 -204 -127.5t-87 -306.5z" />
<glyph unicode="A" horiz-adv-x="1652" d="M57 0v238h160l324 997h-199v227h977v-227h-176l325 -997h134v-238h-650v238h156l-80 274h-424l-78 -274h162v-238h-631zM659 702h318l-158 541z" />
<glyph unicode="B" horiz-adv-x="1333" d="M33 0v238h157v997h-157v227h639q267 0 398.5 -96t131.5 -293q0 -114 -52.5 -184t-170.5 -111q133 -49 201.5 -142.5t68.5 -223.5q0 -202 -128 -307t-378 -105h-710zM539 238h108q134 0 194 42t60 144q0 113 -70 171t-206 58h-86v-415zM539 868h88q231 0 231 187 q0 100 -52 140t-171 40h-96v-367z" />
<glyph unicode="C" horiz-adv-x="1599" d="M61 729q0 215 94.5 388.5t265 272.5t384.5 99q288 0 452 -182v155h220v-506h-220q-80 146 -177.5 214.5t-227.5 68.5q-186 0 -293.5 -134t-107.5 -370q0 -235 108 -369.5t297 -134.5q154 0 263.5 94t166.5 275l260 -125q-86 -246 -269.5 -376t-447.5 -130 q-163 0 -306 57.5t-244.5 158t-159.5 241.5t-58 303z" />
<glyph unicode="D" horiz-adv-x="1540" d="M37 0v238h158v997h-158v227h719q345 0 533 -191.5t188 -539.5t-188 -539.5t-533 -191.5h-719zM543 238h116q220 0 324 121.5t104 377.5q0 253 -113.5 375.5t-344.5 122.5h-86v-997z" />
<glyph unicode="E" horiz-adv-x="1331" d="M43 0v238h158v997h-158v227h1231v-452h-264v225h-461v-358h383v-240h-383v-399h461v239h264v-477h-1231z" />
<glyph unicode="F" horiz-adv-x="1290" d="M43 0v238h158v997h-158v227h1188v-452h-262v225h-420v-358h317v-240h-317v-399h158v-238h-664z" />
<glyph unicode="G" horiz-adv-x="1650" d="M63 729q0 163 56.5 304t155 241.5t238.5 157.5t302 57q293 0 457 -182v155h217v-506h-217q-82 146 -180.5 214.5t-229.5 68.5q-189 0 -299 -133.5t-110 -368.5t110 -370.5t301 -135.5q149 0 244 73t109 198h-256v235h624v-45q0 -339 -197.5 -531t-547.5 -192 q-165 0 -309 56.5t-247 156.5t-162 241.5t-59 305.5z" />
<glyph unicode="H" horiz-adv-x="1536" d="M43 0v238h158v997h-158v227h664v-227h-158v-336h436v336h-158v227h664v-227h-158v-997h158v-238h-664v238h158v424h-436v-424h158v-238h-664z" />
<glyph unicode="I" horiz-adv-x="770" d="M45 0v238h158v997h-158v227h664v-227h-158v-997h158v-238h-664z" />
<glyph unicode="J" horiz-adv-x="800" d="M-27 -43q61 -18 115 -18q90 0 121 50.5t31 172.5v1073h-158v227h663v-227h-157v-1067q0 -264 -99.5 -387t-328.5 -123q-89 0 -187 31v268z" />
<glyph unicode="K" horiz-adv-x="1570" d="M43 0v238h158v997h-158v227h664v-227h-158v-997h158v-238h-664zM559 774l445 461h-160v227h604v-227h-121l-401 -420l454 -577h158v-238h-725v238h156z" />
<glyph unicode="L" horiz-adv-x="1261" d="M43 0v238h158v997h-158v227h664v-227h-158v-997h409v448h230v-686h-1145z" />
<glyph unicode="M" horiz-adv-x="2027" d="M43 0v238h158v997h-158v227h614l322 -901l330 901h651v-227h-158v-997h158v-238h-664v238h158v997l-450 -1235h-134l-442 1235v-997h152v-238h-537z" />
<glyph unicode="N" horiz-adv-x="1593" d="M45 0v238h158v997h-158v227h567l543 -946l-10 719h-158v227h578v-227h-158v-1235h-315l-635 1102l8 -864h158v-238h-578z" />
<glyph unicode="O" horiz-adv-x="1650" d="M63 729q0 219 97.5 392t274.5 270.5t403 97.5q217 0 387.5 -95.5t266 -269t95.5 -395.5q0 -221 -98 -395t-271.5 -269.5t-392.5 -95.5q-163 0 -305 57.5t-242 157.5t-157.5 241t-57.5 304zM453 735q0 -228 104 -365t268 -137t268.5 137t104.5 365q0 229 -104 365.5 t-269 136.5t-268.5 -136.5t-103.5 -365.5z" />
<glyph unicode="P" horiz-adv-x="1363" d="M43 0v238h158v997h-158v227h694q288 0 423.5 -108.5t135.5 -345.5q0 -241 -136 -354t-423 -113h-188v-303h158v-238h-664zM549 780h76q155 0 226 52.5t71 175.5q0 122 -71 174.5t-226 52.5h-76v-455z" />
<glyph unicode="Q" horiz-adv-x="1650" d="M63 729q0 164 58.5 306t160 241t242.5 156t301 57q172 0 315 -57t241 -157.5t152 -240.5t54 -305q0 -288 -159 -486.5t-439 -256.5q151 -86 283 -86q44 0 112 12l-73 -231q-33 -17 -82 -17q-77 0 -179 38t-196.5 76t-153.5 38q-105 0 -204 -86l-111 137q115 112 229 129 q-261 74 -406 266.5t-145 466.5zM453 735q0 -228 104 -365t268 -137t268.5 137t104.5 365q0 230 -104 366t-269 136t-268.5 -136t-103.5 -366z" />
<glyph unicode="R" horiz-adv-x="1470" d="M43 0v238h158v997h-158v227h694q291 0 424 -94.5t133 -314.5q0 -289 -247 -348l237 -467h166v-238h-410l-331 645h-160v-407h158v-238h-664zM549 877h104q140 0 203.5 40.5t63.5 139.5q0 98 -63.5 138t-203.5 40h-104v-358z" />
<glyph unicode="S" horiz-adv-x="1243" d="M100 1077q0 180 118 296t304 116q176 0 322 -113v86h235v-434h-235q0 104 -62 168t-161 64q-76 0 -121 -40.5t-45 -107.5q0 -58 36 -96t119 -76l191 -86q182 -83 269 -193t87 -264q0 -191 -121.5 -309.5t-318.5 -118.5q-220 0 -365 123v-92h-233v502h233 q0 -140 66.5 -212.5t191.5 -72.5q85 0 137 44t52 112q0 70 -48 117.5t-159 101.5l-207 102q-147 72 -216 162.5t-69 220.5z" />
<glyph unicode="T" horiz-adv-x="1288" d="M23 893v569h1232v-569h-237v342h-205v-997h158v-238h-664v238h158v997h-205v-342h-237z" />
<glyph unicode="U" horiz-adv-x="1536" d="M43 1235v227h664v-227h-158v-666q0 -338 221 -338q108 0 160.5 83.5t52.5 254.5v666h-158v227h664v-227h-158v-666q0 -295 -137 -447.5t-434 -152.5q-152 0 -260 39.5t-173.5 118t-95.5 187t-30 255.5v666h-158z" />
<glyph unicode="V" horiz-adv-x="1515" d="M45 1235v227h643v-227h-133l221 -764l232 764h-160v227h625v-227h-138l-422 -1235h-305l-420 1235h-143z" />
<glyph unicode="W" horiz-adv-x="2076" d="M20 1235v227h598v-227h-124l206 -778l213 778h-118v227h510v-227h-121l213 -778l213 778h-119v227h551v-227h-127l-393 -1235h-281l-209 750l-205 -750h-282l-391 1235h-134z" />
<glyph unicode="X" horiz-adv-x="1552" d="M27 0v238h194l361 516l-334 481h-164v227h676v-227h-129l188 -264l182 264h-104v227h573v-227h-157l-342 -487l356 -510h191v-238h-715v238h141l-209 297l-211 -297h127v-238h-624z" />
<glyph unicode="Y" horiz-adv-x="1478" d="M23 1235v227h667v-227h-127l193 -326l188 326h-125v227h606v-227h-163l-377 -625v-372h157v-238h-663v238h158v409l-353 588h-161z" />
<glyph unicode="Z" horiz-adv-x="1241" d="M37 0v238l672 995h-387v-258h-238v487h1077v-211l-682 -1013h459v303h238v-541h-1139z" />
<glyph unicode="[" horiz-adv-x="899" d="M274 -313v1777h576v-198h-277v-1379h277v-200h-576z" />
<glyph unicode="\" horiz-adv-x="671" d="M-12 1489h172l577 -1686h-172z" />
<glyph unicode="]" horiz-adv-x="899" d="M47 -113h279v1379h-279v198h578v-1777h-578v200z" />
<glyph unicode="^" horiz-adv-x="2109" d="M428 926l496 577h260l495 -577h-243l-381 381l-383 -381h-244z" />
<glyph unicode="_" horiz-adv-x="1052" d="M-2 -287h1057v-213h-1057v213z" />
<glyph unicode="`" horiz-adv-x="1054" d="M227 1563h265l202 -383h-145z" />
<glyph unicode="a" horiz-adv-x="1165" d="M55 297q0 168 100.5 267.5t270.5 99.5q115 0 258 -58v64q0 198 -178 198q-127 0 -197 -94l-229 49q28 113 141 178.5t293 65.5q261 0 372 -90.5t111 -312.5v-435h138v-229h-451v72q-128 -103 -299 -103q-151 0 -240.5 88t-89.5 240zM365 317q0 -62 32.5 -99.5t87.5 -37.5 q89 0 199 99v118q-87 66 -172 66q-70 0 -108.5 -38.5t-38.5 -107.5z" />
<glyph unicode="b" horiz-adv-x="1308" d="M31 0v229h137v1008h-137v225h450v-567q141 147 316 147q194 0 322 -154t128 -399q0 -236 -122.5 -378t-317.5 -142q-201 0 -326 168v-137h-450zM481 510q0 -143 59 -223t160 -80q103 0 163.5 79.5t60.5 223.5t-60.5 222.5t-163.5 78.5q-102 0 -160.5 -78t-58.5 -223z" />
<glyph unicode="c" horiz-adv-x="1171" d="M51 518q0 242 147.5 395.5t374.5 153.5q187 0 306 -119v94h223v-428h-236q-31 96 -95 146.5t-155 50.5q-114 0 -177.5 -75.5t-63.5 -215.5q0 -143 64 -219t184 -76q92 0 155.5 48.5t106.5 148.5l245 -125q-166 -328 -524 -328q-248 0 -401.5 150t-153.5 399z" />
<glyph unicode="d" horiz-adv-x="1316" d="M61 489q0 245 128.5 399t322.5 154q174 0 315 -147v342h-137v225h451v-1233h137v-229h-451v137q-125 -168 -325 -168q-195 0 -318 142.5t-123 377.5zM385 510q0 -144 60 -223.5t163 -79.5q101 0 160 79.5t59 223.5t-59 222.5t-160 78.5q-103 0 -163 -78.5t-60 -222.5z " />
<glyph unicode="e" horiz-adv-x="1196" d="M57 518q0 249 147.5 399t391.5 150q246 0 391.5 -157.5t145.5 -432.5v-16h-752q6 -125 70.5 -193.5t179.5 -68.5q143 0 229 141l244 -78q-59 -138 -192 -215.5t-316 -77.5q-243 0 -391 150t-148 399zM383 639h416q-6 91 -63 147t-146 56t-145 -56t-62 -147z" />
<glyph unicode="f" horiz-adv-x="661" d="M23 0v229h137v590h-137v223h137v115q0 156 101.5 244t275.5 88q253 0 329 -205l-262 -96q-24 88 -76 88q-25 0 -40 -25t-15 -71v-138h137v-223h-137v-590h137v-229h-587z" />
<glyph unicode="g" horiz-adv-x="1304" d="M66 512q0 228 129.5 379t320.5 151q93 0 167.5 -37.5t147.5 -117.5v155h451v-225h-137v-706q0 -247 -140.5 -362.5t-416.5 -115.5q-269 0 -453 127l158 179q167 -74 295 -74q125 0 184 55t59 170v68q-128 -158 -325 -158q-200 0 -320 137.5t-120 374.5zM389 510 q0 -143 60 -223t163 -80q100 0 159.5 81.5t59.5 223.5q0 145 -58.5 223t-160.5 78q-103 0 -163 -79.5t-60 -223.5z" />
<glyph unicode="h" horiz-adv-x="1257" d="M23 0v229h137v1008h-137v225h450v-516q147 96 307 96q138 0 211.5 -88.5t73.5 -259.5v-465h137v-229h-450v618q0 91 -27 132t-90 41q-85 0 -162 -68v-494h137v-229h-587z" />
<glyph unicode="i" horiz-adv-x="667" d="M47 0v229h137v588h-137v225h451v-813h137v-229h-588zM164 1317q0 74 50 125t122 51q70 0 122 -52.5t52 -123.5q0 -70 -51.5 -120t-122.5 -50q-72 0 -122 49t-50 121z" />
<glyph unicode="j" horiz-adv-x="608" d="M-70 -111q42 -6 52 -6q106 0 140 41t34 152v741h-138v225h451v-999q0 -210 -99.5 -311t-310.5 -101q-53 0 -129 13v245zM135 1311q0 74 50 125t122 51q70 0 122 -52.5t52 -123.5q0 -70 -51.5 -120t-122.5 -50q-72 0 -122 49t-50 121z" />
<glyph unicode="k" horiz-adv-x="1282" d="M43 0v229h137v1008h-137v225h451v-1233h137v-229h-588zM500 524l331 293h-190v225h598v-225h-115l-286 -256l276 -332h125v-229h-309z" />
<glyph unicode="l" horiz-adv-x="684" d="M51 0v229h137v1008h-137v225h451v-1233h137v-229h-588z" />
<glyph unicode="m" horiz-adv-x="1839" d="M35 0v229h137v588h-137v225h450v-104q159 104 293 104q170 0 242 -120q213 120 348 120q293 0 293 -348v-465h137v-229h-450v616q0 93 -26 134t-89 41q-81 0 -160 -70v-492h137v-229h-450v616q0 93 -25.5 134t-87.5 41q-83 0 -162 -70v-492h138v-229h-588z" />
<glyph unicode="n" horiz-adv-x="1239" d="M35 0v229h137v588h-137v225h450v-104q159 104 303 104q138 0 211.5 -88.5t73.5 -259.5v-465h137v-229h-450v616q0 92 -26.5 133.5t-88.5 41.5q-81 0 -160 -70v-492h138v-229h-588z" />
<glyph unicode="o" horiz-adv-x="1220" d="M53 520q0 248 153 397.5t402 149.5q248 0 400.5 -150.5t152.5 -398.5q0 -247 -153 -398t-400 -151q-249 0 -402 151t-153 400zM377 520q0 -139 62.5 -217t168.5 -78q107 0 168.5 78.5t61.5 218.5q0 138 -61.5 213.5t-168.5 75.5q-106 0 -168.5 -76.5t-62.5 -214.5z" />
<glyph unicode="p" horiz-adv-x="1300" d="M23 -113h137v930h-137v225h450v-147q71 76 146.5 111.5t168.5 35.5q195 0 323 -153.5t128 -399.5q0 -236 -122.5 -378t-317.5 -142q-201 0 -326 168v-250h137v-229h-587v229zM473 510q0 -141 59 -222t160 -81q103 0 163 80t60 223q0 144 -60 223.5t-163 79.5 q-101 0 -160 -79t-59 -224z" />
<glyph unicode="q" horiz-adv-x="1310" d="M61 489q0 246 128 399.5t323 153.5q174 0 315 -147v147h451v-225h-137v-930h137v-229h-588v229h137v250q-125 -168 -325 -168q-195 0 -318 142.5t-123 377.5zM385 510q0 -143 60 -223t163 -80q101 0 160 80t59 223q0 144 -59 223.5t-160 79.5q-103 0 -163 -79.5 t-60 -223.5z" />
<glyph unicode="r" horiz-adv-x="872" d="M33 0v229h137v590h-137v223h422v-245q47 139 141 204.5t246 65.5v-322q-185 0 -272 -80t-87 -247v-189h138v-229h-588z" />
<glyph unicode="s" horiz-adv-x="1042" d="M66 739q0 148 98.5 238t259.5 90q127 0 262 -74v49h236v-301h-236q-62 115 -219 115q-55 0 -86 -22t-31 -58q0 -38 35 -57t117 -35l170 -33q155 -31 229 -111t74 -218q0 -156 -103.5 -254.5t-269.5 -98.5q-125 0 -268 70v-39h-244v367h244v-5q0 -81 57 -127.5t156 -46.5 q67 0 105 29t38 76q0 13 -2 23.5t-8.5 19t-11.5 15t-18 12.5t-21 9.5t-27 8.5t-29.5 8t-36 8.5t-38.5 8.5l-181 40q-121 26 -186 102.5t-65 190.5z" />
<glyph unicode="t" horiz-adv-x="702" d="M39 819v223h119v119l313 264v-383h191v-223h-191v-448q0 -80 17.5 -111t70.5 -31q46 0 103 29v-233q-105 -54 -228 -54q-157 0 -216.5 66.5t-59.5 228.5v553h-119z" />
<glyph unicode="u" horiz-adv-x="1222" d="M20 817v225h451v-618q0 -109 23 -154t92 -45q82 0 159 68v524h-137v225h451v-813h137v-229h-451v74q-161 -105 -303 -105q-137 0 -210.5 89t-73.5 259v500h-138z" />
<glyph unicode="v" horiz-adv-x="1257" d="M20 817v225h594v-225h-125l168 -508l189 508h-127v225h520v-225h-149l-324 -817h-281l-319 817h-146z" />
<glyph unicode="w" horiz-adv-x="1806" d="M37 817v225h561v-225h-115l129 -465l199 690h266l203 -690l135 465h-108v225h465v-225h-146l-248 -817h-272l-203 664l-188 -664h-283l-250 817h-145z" />
<glyph unicode="x" horiz-adv-x="1118" d="M16 0v229h146l211 281l-217 307h-115v225h336l190 -290l205 290h281v-225h-135l-199 -268l225 -320h150v-229h-367l-201 307l-221 -307h-289z" />
<glyph unicode="y" horiz-adv-x="1269" d="M39 817v225h569v-225h-116l190 -461l168 461h-109v225h488v-225h-135l-457 -1159h-369v229h224l43 109l-359 821h-137z" />
<glyph unicode="z" horiz-adv-x="1024" d="M31 0v211l587 620h-331v-149h-211v360h897v-225l-574 -606h371v162h209v-373h-948z" />
<glyph unicode="{" horiz-adv-x="1054" d="M164 438v217q16 -4 41 -4q126 0 178.5 61t52.5 201v258q0 109 19.5 176.5t69 107.5t120.5 54.5t186 14.5q46 0 78 -4v-215q-24 4 -47 4q-58 0 -93 -10t-54 -36.5t-25 -62.5t-6 -98v-248q0 -144 -43 -210.5t-170 -96.5q128 -30 170.5 -95.5t42.5 -209.5v-250 q0 -62 6 -97.5t25.5 -62t54 -36t92.5 -9.5q19 0 47 4v-215q-36 -4 -78 -4q-115 0 -185.5 14t-120 53.5t-69.5 107t-20 175.5v260q0 139 -52.5 199.5t-178.5 60.5q-25 0 -41 -4z" />
<glyph unicode="|" horiz-adv-x="1052" d="M420 -498v2110h215v-2110h-215z" />
<glyph unicode="}" horiz-adv-x="1054" d="M147 -209q28 -4 48 -4q110 0 144 42.5t34 162.5v248q0 145 42.5 211t170.5 96q-127 30 -170 96.5t-43 210.5v250q0 120 -34 162.5t-144 42.5q-28 0 -48 -4v213q24 4 70 4q100 0 165 -9.5t114 -31t75 -63t38 -100t12 -147.5v-260q0 -139 52.5 -199.5t178.5 -60.5 q21 0 41 4v-221q-20 4 -37 4q-129 0 -182 -58t-53 -198v-260q0 -73 -7.5 -125.5t-27 -92.5t-48 -64.5t-74.5 -40t-102.5 -21.5t-136.5 -6q-28 0 -78 4v215z" />
<glyph unicode="~" d="M184 430v227q220 150 400 150q82 0 170 -21.5t151 -47t141.5 -47t143.5 -21.5q174 0 387 157v-227q-205 -141 -391 -141q-69 0 -149 21t-142.5 45.5t-148 45.5t-164.5 21q-173 0 -398 -162z" />
<glyph unicode="&#xa9;" d="M115 756q0 149 57.5 289t156.5 245.5t243 169.5t307 64q160 0 303.5 -61t245 -164.5t160.5 -245t59 -297.5q0 -159 -63 -302t-167.5 -244t-245.5 -160.5t-292 -59.5q-152 0 -290.5 58.5t-248.5 168.5q-109 109 -167 248t-58 291zM242 758q0 -171 87 -318.5t234.5 -234 t317.5 -86.5q126 0 243 49.5t204 134t139.5 204t52.5 251.5q0 127 -50.5 244.5t-136 204t-204 138.5t-248.5 52q-184 0 -332 -90.5t-227.5 -236t-79.5 -312.5zM467 752q0 214 113.5 339.5t302.5 125.5q158 0 258 -81t108 -212h-194q-7 73 -53.5 113t-122.5 40 q-92 0 -146.5 -83t-54.5 -236q0 -152 53.5 -230.5t155.5 -78.5q74 0 120 42t56 123h197q-8 -143 -111.5 -230t-267.5 -87q-191 0 -302.5 121.5t-111.5 333.5z" />
<glyph unicode="&#xab;" horiz-adv-x="974" d="M59 520l269 322h219l-266 -322l266 -323h-219zM428 520l268 322h219l-266 -322l266 -323h-219z" />
<glyph unicode="&#xad;" d="M260 526v209h1235v-209h-1235z" />
<glyph unicode="&#xae;" d="M115 756q0 150 56.5 289.5t155 245.5t243 169.5t309.5 63.5q161 0 305 -62t245 -166t159.5 -245t58.5 -295q0 -157 -62 -299.5t-166 -244.5t-245.5 -162t-294.5 -60q-152 0 -293.5 61.5t-244.5 164.5t-164.5 244.5t-61.5 295.5zM242 758q0 -176 87 -324t233.5 -232.5 t316.5 -84.5q127 0 245.5 50t205 134.5t138.5 201t52 242.5q0 133 -47.5 252.5t-130.5 208t-203 140t-258 51.5q-111 0 -211.5 -34.5t-177.5 -95t-134 -141t-86.5 -175t-29.5 -193.5zM561 346v850h334q362 0 362 -244q0 -84 -48.5 -143.5t-135.5 -81.5l189 -381h-230 l-162 348h-102v-348h-207zM768 819h102q90 0 132 28.5t42 92.5q0 65 -45 95t-139 30h-92v-246z" />
<glyph unicode="&#xbb;" horiz-adv-x="974" d="M53 197l269 323l-269 322h221l269 -322l-269 -323h-221zM422 197l266 323l-266 322h219l270 -322l-270 -323h-219z" />
<glyph unicode="&#x401;" horiz-adv-x="1331" d="M43 0v238h158v997h-158v227h1231v-452h-264v225h-461v-358h383v-240h-383v-399h461v239h264v-477h-1231zM281 1786q0 74 50 125t122 51q70 0 122 -52.5t52 -123.5q0 -70 -51.5 -120t-122.5 -50q-72 0 -122 49t-50 121zM741 1786q0 74 50 125t122 51q70 0 122 -52.5 t52 -123.5q0 -70 -51.5 -120t-122.5 -50q-72 0 -122 49t-50 121z" />
<glyph unicode="&#x404;" horiz-adv-x="1599" d="M61 729q0 166 55.5 307.5t153 241t235.5 155.5t300 56q288 0 452 -182v155h220v-506h-220q-80 146 -177.5 214.5t-227.5 68.5q-156 0 -257 -96t-132 -269h467v-237h-475q22 -192 128 -299t273 -107q154 0 263.5 94t166.5 275l260 -125q-86 -246 -269.5 -376t-447.5 -130 q-163 0 -306 57.5t-244.5 158t-159.5 241.5t-58 303z" />
<glyph unicode="&#x405;" d="M285 164l465 465l-465 467l143 143l465 -465l465 465l145 -143l-465 -467l465 -465l-145 -144l-465 465l-465 -465z" />
<glyph unicode="&#x406;" horiz-adv-x="770" d="M45 0v238h158v997h-158v227h664v-227h-158v-997h158v-238h-664z" />
<glyph unicode="&#x407;" horiz-adv-x="737" d="M-31 1794q0 74 50 125t122 51q70 0 122 -52.5t52 -123.5q0 -70 -51.5 -120t-122.5 -50q-72 0 -122 49t-50 121zM33 0v238h157v997h-157v227h663v-227h-157v-997h157v-238h-663zM430 1794q0 74 50 125t122 51q70 0 122 -52.5t52 -123.5q0 -70 -51.5 -120t-122.5 -50 q-72 0 -122 49t-50 121z" />
<glyph unicode="&#x408;" horiz-adv-x="1099" d="M10 219q0 108 69.5 179t172.5 71q77 0 162 -31q4 20 4 37q0 79 -31 152h-317v194h213q-109 201 -109 328q0 158 116 249t324 91q391 0 412 -385l-231 -27q-9 119 -51 172.5t-130 53.5q-67 0 -109 -42t-42 -110q0 -28 11.5 -67.5t23.5 -67.5t42.5 -95t45.5 -100h274v-194 h-223q8 -60 8 -107q0 -96 -33 -196q126 -48 164 -48q70 0 105.5 49t44.5 156l157 -37q-19 -243 -92.5 -359t-210.5 -116q-133 0 -262 129q-114 -129 -266 -129q-104 0 -173 69.5t-69 180.5zM166 238q0 -44 26 -71.5t66 -27.5q69 0 123 94q-75 84 -135 84q-38 0 -59 -21 t-21 -58z" />
<glyph unicode="&#x40e;" horiz-adv-x="1513" d="M43 1235v227h649v-227h-129l230 -479l217 479h-125v227h598v-227h-164l-447 -948q-81 -172 -171 -245t-216 -73q-76 0 -170 23v260q48 -21 107 -21q75 0 111.5 22t68.5 89l21 45l-418 848h-162zM428 1927h205q7 -70 48 -107.5t105 -37.5q65 0 105 37t49 108h205 q0 -144 -92.5 -238t-266.5 -94q-172 0 -265 94t-93 238z" />
<glyph unicode="&#x410;" horiz-adv-x="1652" d="M57 0v238h160l324 997h-199v227h977v-227h-176l325 -997h134v-238h-650v238h156l-80 274h-424l-78 -274h162v-238h-631zM659 702h318l-158 541z" />
<glyph unicode="&#x411;" horiz-adv-x="1343" d="M43 0v238h158v997h-158v227h1165v-452h-264v225h-395v-330h223q243 0 373.5 -121t130.5 -329t-130.5 -331.5t-375.5 -123.5h-727zM549 238h98q252 0 252 217q0 103 -66 158t-186 55h-98v-430z" />
<glyph unicode="&#x412;" horiz-adv-x="1333" d="M33 0v238h157v997h-157v227h639q267 0 398.5 -96t131.5 -293q0 -114 -52.5 -184t-170.5 -111q133 -49 201.5 -142.5t68.5 -223.5q0 -202 -128 -307t-378 -105h-710zM539 238h108q134 0 194 42t60 144q0 113 -70 171t-206 58h-86v-415zM539 868h88q231 0 231 187 q0 100 -52 140t-171 40h-96v-367z" />
<glyph unicode="&#x413;" horiz-adv-x="1261" d="M43 0v238h158v997h-158v227h1188v-452h-262v225h-420v-997h158v-238h-664z" />
<glyph unicode="&#x414;" horiz-adv-x="1523" d="M43 238h133q66 131 94.5 206.5t45 193.5t16.5 304v293h-146v227h1274v-227h-157v-997h157v-537h-274v299h-869v-299h-274v537zM483 238h471v997h-336v-270q0 -268 -26 -418t-109 -309z" />
<glyph unicode="&#x415;" horiz-adv-x="1331" d="M43 0v238h158v997h-158v227h1231v-452h-264v225h-461v-358h383v-240h-383v-399h461v239h264v-477h-1231z" />
<glyph unicode="&#x416;" horiz-adv-x="2406" d="M31 0v238h157l455 577l-401 420h-121v227h604v-227h-160l445 -461l-408 -536h154v-238h-725zM864 0v238h158v997h-158v227h664v-227h-158v-997h158v-238h-664zM1382 774l445 461h-160v227h604v-227h-121l-401 -420l455 -577h157v-238h-725v238h154z" />
<glyph unicode="&#x417;" horiz-adv-x="1333" d="M66 375l249 121q36 -128 110 -196.5t202 -68.5q272 0 272 211q0 102 -69.5 153.5t-198.5 51.5h-94v240h90q116 0 173.5 46.5t57.5 131.5q0 78 -55 126t-150 48q-115 0 -182 -58t-129 -188h-217v469h217v-133q72 74 155.5 117t213.5 43q216 0 353.5 -104.5t137.5 -280.5 q0 -114 -66.5 -203.5t-164.5 -109.5q284 -104 284 -381q0 -201 -161 -321t-432 -120q-233 0 -383 98t-213 308z" />
<glyph unicode="&#x418;" horiz-adv-x="1566" d="M43 0v238h158v997h-158v227h664v-227h-158v-703l452 930h515v-227h-158v-997h158v-238h-664v238h158v682l-453 -920h-514z" />
<glyph unicode="&#x419;" horiz-adv-x="1566" d="M43 0v238h158v997h-158v227h664v-227h-158v-703l452 930h515v-227h-158v-997h158v-238h-664v238h158v682l-453 -920h-514zM451 1921h204q7 -71 48.5 -108t105.5 -37q65 0 105 36.5t47 108.5h206q0 -144 -93 -238t-265 -94t-265 94t-93 238z" />
<glyph unicode="&#x41a;" horiz-adv-x="1570" d="M43 0v238h158v997h-158v227h664v-227h-158v-997h158v-238h-664zM559 774l445 461h-160v227h604v-227h-121l-401 -420l454 -577h158v-238h-725v238h156z" />
<glyph unicode="&#x41b;" horiz-adv-x="1517" d="M6 -12v260q39 -17 113 -17q42 0 70 17t51.5 63.5t35 136.5t11.5 228v559h-158v227h1329v-227h-158v-997h158v-238h-663v238h157v997h-379v-504q0 -174 -18.5 -305t-51.5 -217.5t-84 -140.5t-111.5 -76.5t-137.5 -22.5q-57 0 -164 19z" />
<glyph unicode="&#x41c;" horiz-adv-x="2027" d="M43 0v238h158v997h-158v227h614l322 -901l330 901h651v-227h-158v-997h158v-238h-664v238h158v997l-450 -1235h-134l-442 1235v-997h152v-238h-537z" />
<glyph unicode="&#x41d;" horiz-adv-x="1536" d="M43 0v238h158v997h-158v227h664v-227h-158v-336h436v336h-158v227h664v-227h-158v-997h158v-238h-664v238h158v424h-436v-424h158v-238h-664z" />
<glyph unicode="&#x41e;" horiz-adv-x="1650" d="M63 729q0 219 97.5 392t274.5 270.5t403 97.5q217 0 387.5 -95.5t266 -269t95.5 -395.5q0 -221 -98 -395t-271.5 -269.5t-392.5 -95.5q-163 0 -305 57.5t-242 157.5t-157.5 241t-57.5 304zM453 735q0 -228 104 -365t268 -137t268.5 137t104.5 365q0 229 -104 365.5 t-269 136.5t-268.5 -136.5t-103.5 -365.5z" />
<glyph unicode="&#x41f;" horiz-adv-x="1515" d="M33 0v238h157v997h-157v227h1448v-227h-158v-997h158v-238h-664v238h158v997h-436v-997h157v-238h-663z" />
<glyph unicode="&#x420;" horiz-adv-x="1363" d="M43 0v238h158v997h-158v227h694q288 0 423.5 -108.5t135.5 -345.5q0 -241 -136 -354t-423 -113h-188v-303h158v-238h-664zM549 780h76q155 0 226 52.5t71 175.5q0 122 -71 174.5t-226 52.5h-76v-455z" />
<glyph unicode="&#x421;" horiz-adv-x="1599" d="M61 729q0 215 94.5 388.5t265 272.5t384.5 99q288 0 452 -182v155h220v-506h-220q-80 146 -177.5 214.5t-227.5 68.5q-186 0 -293.5 -134t-107.5 -370q0 -235 108 -369.5t297 -134.5q154 0 263.5 94t166.5 275l260 -125q-86 -246 -269.5 -376t-447.5 -130 q-163 0 -306 57.5t-244.5 158t-159.5 241.5t-58 303z" />
<glyph unicode="&#x422;" horiz-adv-x="1288" d="M23 893v569h1232v-569h-237v342h-205v-997h158v-238h-664v238h158v997h-205v-342h-237z" />
<glyph unicode="&#x423;" horiz-adv-x="1497" d="M35 1235v227h649v-227h-129l229 -477l217 477h-124v227h598v-227h-164l-447 -948q-81 -171 -171.5 -244.5t-215.5 -73.5q-68 0 -170 25v258q48 -21 107 -21q75 0 111.5 22.5t68.5 90.5l20 43l-417 848h-162z" />
<glyph unicode="&#x424;" horiz-adv-x="1787" d="M43 733q0 233 149 338t459 105h62v59h-158v227h664v-227h-158v-59h61q310 0 459.5 -105t149.5 -338q0 -154 -54.5 -247t-184 -141t-349.5 -48h-82v-59h158v-238h-664v238h158v59h-82q-220 0 -349.5 48t-184 141t-54.5 247zM420 739q0 -109 64.5 -161t228.5 -52v420 q-117 0 -182 -24t-88 -66.5t-23 -116.5zM1061 526q164 0 228.5 52t64.5 161q0 74 -23 116.5t-88 66.5t-182 24v-420z" />
<glyph unicode="&#x425;" horiz-adv-x="1552" d="M27 0v238h194l361 516l-334 481h-164v227h676v-227h-129l188 -264l182 264h-104v227h573v-227h-157l-342 -487l356 -510h191v-238h-715v238h141l-209 297l-211 -297h127v-238h-624z" />
<glyph unicode="&#x426;" horiz-adv-x="1546" d="M43 0v238h158v997h-158v227h664v-227h-158v-997h436v997h-158v227h664v-227h-158v-997h158v-537h-277v299h-1171z" />
<glyph unicode="&#x427;" horiz-adv-x="1546" d="M43 1235v227h664v-227h-158v-166q0 -105 46.5 -145.5t156.5 -40.5q102 0 233 32v320h-158v227h664v-227h-158v-997h158v-238h-664v238h158v415q-197 -32 -305 -32q-226 0 -352.5 104t-126.5 315v195h-158z" />
<glyph unicode="&#x428;" horiz-adv-x="2199" d="M43 0v238h143v997h-143v227h635v-227h-143v-997h374v997h-143v227h635v-227h-144v-997h375v997h-143v227h635v-227h-144v-997h144v-238h-2081z" />
<glyph unicode="&#x429;" horiz-adv-x="2199" d="M43 0v238h143v997h-143v227h635v-227h-143v-997h374v997h-143v227h635v-227h-144v-997h375v997h-143v227h635v-227h-144v-997h144v-537h-275v299h-1806z" />
<glyph unicode="&#x42a;" horiz-adv-x="1619" d="M45 979v483h944v-227h-166v-330h224q243 0 373 -121t130 -329t-130.5 -331.5t-375.5 -123.5h-727v238h158v997h-190v-256h-240zM823 238h99q252 0 252 217q0 103 -66 158t-186 55h-99v-430z" />
<glyph unicode="&#x42b;" horiz-adv-x="2058" d="M43 0v238h158v997h-158v227h664v-227h-158v-330h223q243 0 373.5 -121t130.5 -329t-130.5 -331.5t-375.5 -123.5h-727zM549 238h98q252 0 252 217q0 103 -66 158t-186 55h-98v-430zM1350 0v238h157v997h-157v227h663v-227h-158v-997h158v-238h-663z" />
<glyph unicode="&#x42c;" horiz-adv-x="1343" d="M43 0v238h158v997h-158v227h664v-227h-158v-330h223q243 0 373.5 -121t130.5 -329t-130.5 -331.5t-375.5 -123.5h-727zM549 238h98q252 0 252 217q0 103 -66 158t-186 55h-98v-430z" />
<glyph unicode="&#x42d;" horiz-adv-x="1599" d="M59 475l260 125q57 -181 167 -275t264 -94q166 0 268.5 106.5t124.5 299.5h-467v237h467q-31 173 -132 269t-257 96q-130 0 -228 -68.5t-178 -214.5h-219v506h219v-155q164 182 453 182q161 0 299.5 -58t236 -158.5t152.5 -241t55 -302.5t-58 -303t-159.5 -241.5 t-244.5 -158t-306 -57.5q-264 0 -447.5 130t-269.5 376z" />
<glyph unicode="&#x42e;" horiz-adv-x="2406" d="M43 0v238h158v997h-158v227h664v-227h-158v-338h274q72 276 278 434t494 158q220 0 391.5 -99.5t264 -272t92.5 -388.5q0 -162 -57 -303t-157 -241.5t-241.5 -158t-304.5 -57.5q-324 0 -532 191.5t-228 498.5h-274v-421h158v-238h-664zM1212 735q0 -229 103 -365.5 t268 -136.5q164 0 267.5 136.5t103.5 365.5t-103 365.5t-268 136.5q-166 0 -268.5 -136t-102.5 -366z" />
<glyph unicode="&#x42f;" horiz-adv-x="1472" d="M27 0v238h166l202 399q-198 112 -198 371q0 208 130 331t375 123h738v-227h-158v-997h158v-238h-664v238h158v329h-207l-291 -567h-409zM573 1022q0 -104 67.5 -160.5t186.5 -56.5h107v430h-107q-254 0 -254 -213z" />
<glyph unicode="&#x430;" horiz-adv-x="1165" d="M55 297q0 168 100.5 267.5t270.5 99.5q115 0 258 -58v64q0 198 -178 198q-127 0 -197 -94l-229 49q28 113 141 178.5t293 65.5q261 0 372 -90.5t111 -312.5v-435h138v-229h-451v72q-128 -103 -299 -103q-151 0 -240.5 88t-89.5 240zM365 317q0 -62 32.5 -99.5t87.5 -37.5 q89 0 199 99v118q-87 66 -172 66q-70 0 -108.5 -38.5t-38.5 -107.5z" />
<glyph unicode="&#x431;" horiz-adv-x="1220" d="M70 633q0 189 40.5 328.5t120 228.5t186 138.5t249.5 68.5q116 14 163.5 31.5t61.5 56.5h252q-10 -64 -27.5 -112t-44.5 -82t-57 -57t-73.5 -38t-85 -23.5t-99.5 -15.5q-206 -24 -300 -88t-126 -209q55 79 138.5 123.5t184.5 44.5q225 0 361.5 -131.5t136.5 -374.5 q0 -248 -149 -400.5t-394 -152.5q-254 0 -396 167t-142 497zM387 500q0 -130 58.5 -202.5t162.5 -72.5q105 0 162 74t57 203q0 134 -56 209t-163 75q-101 0 -161 -78.5t-60 -207.5z" />
<glyph unicode="&#x432;" horiz-adv-x="1073" d="M35 0v229h137v588h-137v225h602q179 0 266.5 -72t87.5 -200q0 -86 -50.5 -142.5t-127.5 -82.5q207 -70 207 -238q0 -160 -94.5 -233.5t-300.5 -73.5h-590zM485 229h113q123 0 123 103q0 52 -35 80t-96 28h-105v-211zM485 616h82q129 0 129 101q0 52 -31 76t-96 24h-84 v-201z" />
<glyph unicode="&#x433;" horiz-adv-x="1032" d="M33 0v229h137v588h-137v225h973v-360h-211v135h-312v-588h138v-229h-588z" />
<glyph unicode="&#x434;" horiz-adv-x="1200" d="M31 229h116q62 131 85.5 222t23.5 245v121h-127v225h1042v-225h-127v-588h127v-465h-241v236h-658v-236h-241v465zM410 229h321v588h-221v-137q0 -141 -21 -225t-79 -226z" />
<glyph unicode="&#x435;" horiz-adv-x="1196" d="M57 518q0 249 147.5 399t391.5 150q246 0 391.5 -157.5t145.5 -432.5v-16h-752q6 -125 70.5 -193.5t179.5 -68.5q143 0 229 141l244 -78q-59 -138 -192 -215.5t-316 -77.5q-243 0 -391 150t-148 399zM383 639h416q-6 91 -63 147t-146 56t-145 -56t-62 -147z" />
<glyph unicode="&#x436;" horiz-adv-x="1873" d="M29 0h309l430 524l-332 293h103v225h-510v-225h114l287 -256l-276 -332h-125v-229zM639 0v229h137v588h-137v225h588v-225h-137v-588h137v-229h-588zM1098 524l332 293h-103v225h510v-225h-115l-286 -256l276 -332h125v-229h-309z" />
<glyph unicode="&#x437;" horiz-adv-x="1046" d="M41 244l240 104q23 -65 77.5 -105t137.5 -40q174 0 174 114q0 115 -172 115h-54v209h66q67 0 102 25t35 69q0 103 -139 103q-65 0 -115.5 -50t-75.5 -124h-235v378h223v-94q99 119 273 119q103 0 185 -31t133.5 -97.5t51.5 -160.5q0 -90 -51.5 -152t-118.5 -77 q215 -66 215 -254q0 -156 -119.5 -241t-341.5 -85q-182 0 -289.5 60.5t-201.5 214.5z" />
<glyph unicode="&#x438;" horiz-adv-x="1271" d="M35 817v225h588v-225h-138v-377l338 602h414v-225h-125v-588h137v-229h-587v229h137v375l-350 -604h-402v229h125v588h-137z" />
<glyph unicode="&#x439;" horiz-adv-x="1271" d="M35 817v225h588v-225h-138v-377l338 602h414v-225h-125v-588h137v-229h-587v229h137v375l-350 -604h-402v229h125v588h-137zM328 1456h204q7 -69 48.5 -107t105.5 -38t104.5 37t47.5 108h206q0 -143 -93 -236.5t-265 -93.5q-173 0 -265.5 93.5t-92.5 236.5z" />
<glyph unicode="&#x43a;" horiz-adv-x="1243" d="M23 0v229h137v588h-137v225h587v-225h-137v-588h137v-229h-587zM483 524l332 293h-104v225h510v-225h-113l-287 -256l277 -332h123v-229h-308z" />
<glyph unicode="&#x43b;" horiz-adv-x="1236" d="M20 -14v243q22 -10 80 -10q39 0 68.5 21.5t54 70.5t37 139t12.5 218v149h-127v225h1055v-225h-137v-588h137v-229h-588v229h138v588h-224v-256q0 -102 -12.5 -188.5t-41.5 -162t-73 -128.5t-110.5 -83t-151.5 -30q-68 0 -117 17z" />
<glyph unicode="&#x43c;" horiz-adv-x="1533" d="M43 0h444v229h-96v586l275 -815h114l285 817v-588h-96v-229h516v229h-119v588h119v225h-537l-184 -534l-182 534h-539v-225h119v-588h-119v-229z" />
<glyph unicode="&#x43d;" horiz-adv-x="1251" d="M35 0v229h125v588h-125v225h536v-225h-98v-168h313v168h-98v225h537v-225h-125v-588h125v-229h-537v229h98v211h-313v-211h98v-229h-536z" />
<glyph unicode="&#x43e;" horiz-adv-x="1220" d="M53 520q0 248 153 397.5t402 149.5q248 0 400.5 -150.5t152.5 -398.5q0 -247 -153 -398t-400 -151q-249 0 -402 151t-153 400zM377 520q0 -139 62.5 -217t168.5 -78q107 0 168.5 78.5t61.5 218.5q0 138 -61.5 213.5t-168.5 75.5q-106 0 -168.5 -76.5t-62.5 -214.5z" />
<glyph unicode="&#x43f;" horiz-adv-x="1253" d="M35 0v229h125v588h-125v225h1190v-225h-125v-588h125v-229h-537v229h98v588h-313v-588h98v-229h-536z" />
<glyph unicode="&#x440;" horiz-adv-x="1300" d="M23 -113h137v930h-137v225h450v-147q71 76 146.5 111.5t168.5 35.5q195 0 323 -153.5t128 -399.5q0 -236 -122.5 -378t-317.5 -142q-201 0 -326 168v-250h137v-229h-587v229zM473 510q0 -141 59 -222t160 -81q103 0 163 80t60 223q0 144 -60 223.5t-163 79.5 q-101 0 -160 -79t-59 -224z" />
<glyph unicode="&#x441;" horiz-adv-x="1171" d="M51 518q0 242 147.5 395.5t374.5 153.5q187 0 306 -119v94h223v-428h-236q-31 96 -95 146.5t-155 50.5q-114 0 -177.5 -75.5t-63.5 -215.5q0 -143 64 -219t184 -76q92 0 155.5 48.5t106.5 148.5l245 -125q-166 -328 -524 -328q-248 0 -401.5 150t-153.5 399z" />
<glyph unicode="&#x442;" horiz-adv-x="1062" d="M31 610v432h1005v-432h-211v207h-135v-588h137v-229h-587v229h137v588h-135v-207h-211z" />
<glyph unicode="&#x443;" horiz-adv-x="1269" d="M39 817v225h569v-225h-116l190 -461l168 461h-109v225h488v-225h-135l-457 -1159h-369v229h224l43 109l-359 821h-137z" />
<glyph unicode="&#x444;" horiz-adv-x="1767" d="M59 489q0 246 127.5 399.5t321.5 153.5q125 0 217 -88v283h-137v225h450v-508q92 88 217 88q194 0 321.5 -153.5t127.5 -399.5q0 -236 -120.5 -378t-315.5 -142q-160 0 -230 103v-185h138v-229h-588v229h137v185q-70 -103 -227 -103q-195 0 -317 142t-122 378zM383 510 q0 -143 60 -223t163 -80q66 0 119 41v524q-20 13 -31 19.5t-36 14t-52 7.5q-103 0 -163 -79.5t-60 -223.5zM1038 248q53 -41 119 -41q103 0 163 80t60 223q0 144 -60 223.5t-163 79.5q-27 0 -52 -7.5t-36 -14t-31 -19.5v-524z" />
<glyph unicode="&#x445;" horiz-adv-x="1118" d="M16 0v229h146l211 281l-217 307h-115v225h336l190 -290l205 290h281v-225h-135l-199 -268l225 -320h150v-229h-367l-201 307l-221 -307h-289z" />
<glyph unicode="&#x446;" horiz-adv-x="1253" d="M35 0v231h125v586h-125v225h536v-225h-98v-586h313v586h-98v225h537v-225h-125v-586h125v-467h-242v236h-948z" />
<glyph unicode="&#x447;" horiz-adv-x="1261" d="M35 817v225h536v-225h-98v-92q0 -61 29.5 -86t93.5 -25q102 0 190 29v174h-98v225h537v-225h-125v-588h125v-229h-537v229h98v197q-155 -33 -274 -33q-191 0 -271.5 82t-80.5 254v88h-125z" />
<glyph unicode="&#x448;" horiz-adv-x="1812" d="M35 0v229h125v588h-125v225h536v-225h-98v-588h279v588h-99v225h510v-225h-98v-588h278v588h-98v225h537v-225h-125v-588h125v-229h-1747z" />
<glyph unicode="&#x449;" horiz-adv-x="1828" d="M35 0v229h125v588h-125v225h536v-225h-98v-588h279v588h-99v225h510v-225h-98v-588h278v588h-98v225h537v-225h-125v-588h125v-467h-242v238h-1505z" />
<glyph unicode="&#x44a;" horiz-adv-x="1239" d="M12 666v376h807v-225h-137v-160h121q187 0 290 -82t103 -237q0 -159 -104 -248.5t-289 -89.5h-572v229h138v588h-146v-151h-211zM682 229h86q63 0 96 26.5t33 76.5q0 108 -131 108h-84v-211z" />
<glyph unicode="&#x44b;" horiz-adv-x="1699" d="M39 0v229h137v588h-137v225h588v-225h-138v-160h121q187 0 290.5 -82t103.5 -237q0 -159 -104.5 -248.5t-289.5 -89.5h-571zM489 229h86q63 0 96.5 26.5t33.5 76.5q0 108 -132 108h-84v-211zM1065 0v229h137v588h-137v225h588v-225h-137v-588h137v-229h-588z" />
<glyph unicode="&#x44c;" horiz-adv-x="1048" d="M39 0v229h137v588h-137v225h588v-225h-138v-160h121q187 0 290.5 -82t103.5 -237q0 -159 -104.5 -248.5t-289.5 -89.5h-571zM489 229h86q63 0 96.5 26.5t33.5 76.5q0 108 -132 108h-84v-211z" />
<glyph unicode="&#x44d;" horiz-adv-x="1171" d="M45 297l246 125q43 -100 106.5 -148.5t155.5 -48.5q206 0 242 215h-281v176h279q-20 95 -80.5 145t-151.5 50q-92 0 -157 -49.5t-95 -145.5h-235v426h223v-94q119 119 305 119q226 0 371 -153.5t145 -395.5q0 -249 -151 -399t-398 -150q-358 0 -524 328z" />
<glyph unicode="&#x44e;" horiz-adv-x="1806" d="M18 0v229h138v588h-138v225h588v-225h-137v-168h190q37 194 180 306t355 112q249 0 403 -148t154 -395t-155 -401t-402 -154q-227 0 -373.5 127t-169.5 344h-182v-211h137v-229h-588zM963 520q0 -139 62.5 -217t168.5 -78q107 0 170 78t63 217q0 138 -63 214.5t-170 76.5 q-106 0 -168.5 -76.5t-62.5 -214.5z" />
<glyph unicode="&#x44f;" horiz-adv-x="1128" d="M16 0v229h125l144 234q-56 35 -97 103.5t-41 146.5q0 158 104 243.5t292 85.5h557v-225h-125v-588h125v-229h-537v229h99v166h-93l-233 -395h-320zM446 715q0 -111 129 -111h87v213h-87q-63 0 -96 -26t-33 -76z" />
<glyph unicode="&#x451;" horiz-adv-x="1196" d="M57 518q0 249 147.5 399t391.5 150q246 0 391.5 -157.5t145.5 -432.5v-16h-752q6 -125 70.5 -193.5t179.5 -68.5q143 0 229 141l244 -78q-59 -138 -192 -215.5t-316 -77.5q-243 0 -391 150t-148 399zM197 1309q0 74 50 125t122 51q70 0 122 -52.5t52 -123.5 q0 -70 -51.5 -120t-122.5 -50q-72 0 -122 49t-50 121zM383 639h416q-6 91 -63 147t-146 56t-145 -56t-62 -147zM657 1309q0 74 50 125t122 51q70 0 122.5 -52.5t52.5 -123.5q0 -70 -52 -120t-123 -50q-72 0 -122 49t-50 121z" />
<glyph unicode="&#x453;" horiz-adv-x="1099" d="M2 -248l47 246q76 -47 119 -47q27 0 47.5 8.5t36.5 30.5t27 45.5t21.5 69.5t17.5 84.5t18 107.5l72 440h-230v226h256l27 143q83 457 405 457q108 0 211 -56l-43 -254q-70 43 -116 43q-61 0 -101 -49t-53 -145l-19 -139h207v-226h-241l-54 -346q-24 -151 -47.5 -255.5 t-59 -195.5t-80.5 -143.5t-109 -82t-148 -29.5q-121 0 -211 67z" />
<glyph unicode="&#x454;" horiz-adv-x="1171" d="M57 518q0 242 145 395.5t371 153.5q187 0 306 -119v94h223v-426h-234q-31 96 -96 146.5t-156 50.5t-152 -51t-81 -146h279v-176h-281q36 -215 242 -215q92 0 155.5 48.5t106.5 148.5l245 -125q-166 -328 -524 -328q-247 0 -398 150t-151 399z" />
<glyph unicode="&#x455;" horiz-adv-x="1734" d="M37 893v25h166q3 -80 30 -118t84 -38q54 0 84.5 33.5t30.5 93.5q0 129 -162 129v127h4q146 0 146 115q0 43 -23 67.5t-65 24.5q-43 0 -69 -30t-32 -87h-155q0 111 72 175.5t198 64.5q119 0 189.5 -59.5t70.5 -155.5q0 -137 -155 -183q184 -40 184 -205q0 -109 -84.5 -179 t-218.5 -70q-141 0 -218 70.5t-77 199.5zM332 -31l870 1520h184l-866 -1520h-188zM1038 315l400 516h155v-497h103v-115h-103v-92h97v-127h-371v127h96v92h-340q-13 55 -37 96zM1190 328h229l4 307z" />
<glyph unicode="&#x456;" horiz-adv-x="667" d="M47 0v229h137v588h-137v225h451v-813h137v-229h-588zM164 1317q0 74 50 125t122 51q70 0 122 -52.5t52 -123.5q0 -70 -51.5 -120t-122.5 -50q-72 0 -122 49t-50 121z" />
<glyph unicode="&#x457;" horiz-adv-x="665" d="M-70 1317q0 74 50 125t122 51q70 0 122 -52.5t52 -123.5q0 -70 -51.5 -120t-122.5 -50q-72 0 -122 49t-50 121zM45 0v229h137v588h-137v225h451v-813h137v-229h-588zM391 1317q0 74 50 125t122 51q70 0 122 -52.5t52 -123.5q0 -70 -51.5 -120t-122.5 -50q-72 0 -122 49 t-50 121z" />
<glyph unicode="&#x458;" d="M260 528v203h1235v-203h-1235zM723 223q0 66 46 111t110 45q63 0 109 -46t46 -110q0 -62 -45.5 -108.5t-109.5 -46.5q-65 0 -110.5 45.5t-45.5 109.5zM723 1034q0 65 46 110.5t110 45.5q63 0 109 -46t46 -110t-45 -109.5t-110 -45.5t-110.5 45.5t-45.5 109.5z" />
<glyph unicode="&#x45e;" horiz-adv-x="1251" d="M29 817v225h569v-225h-117l191 -461l166 461h-107v225h488v-225h-138l-454 -1159h-369v223h219l47 115l-360 821h-135zM303 1464h205q9 -71 50 -108t106 -37t104.5 36.5t46.5 108.5h207q0 -144 -92.5 -237.5t-265.5 -93.5q-174 0 -267.5 93.5t-93.5 237.5z" />
<glyph unicode="&#x490;" horiz-adv-x="1269" d="M-57 1235v227h647v-227h-139l208 -363l215 363h-133v227h580v-227h-166l-131 -223h186v-135h-270l-88 -140h358v-135h-428v-364h187v-238h-701v238h191v364h-402v135h346l-81 140h-265v135h183l-134 223h-163z" />
<glyph unicode="&#x491;" horiz-adv-x="1054" d="M360 1180l203 383h264l-321 -383h-146z" />
<glyph unicode="&#x2000;" horiz-adv-x="985" />
<glyph unicode="&#x2001;" horiz-adv-x="1970" />
<glyph unicode="&#x2002;" horiz-adv-x="985" />
<glyph unicode="&#x2003;" horiz-adv-x="1970" />
<glyph unicode="&#x2004;" horiz-adv-x="656" />
<glyph unicode="&#x2005;" horiz-adv-x="492" />
<glyph unicode="&#x2006;" horiz-adv-x="328" />
<glyph unicode="&#x2007;" horiz-adv-x="328" />
<glyph unicode="&#x2008;" horiz-adv-x="246" />
<glyph unicode="&#x2009;" horiz-adv-x="394" />
<glyph unicode="&#x200a;" horiz-adv-x="109" />
<glyph unicode="&#x2010;" d="M260 526v209h1235v-209h-1235z" />
<glyph unicode="&#x2011;" d="M260 526v209h1235v-209h-1235z" />
<glyph unicode="&#x2012;" d="M260 526v209h1235v-209h-1235z" />
<glyph unicode="&#x2013;" horiz-adv-x="1052" d="M-2 414v235h1057v-235h-1057z" />
<glyph unicode="&#x2014;" horiz-adv-x="2109" d="M0 414v235h2109v-235h-2109z" />
<glyph unicode="&#x2018;" horiz-adv-x="548" d="M111 797v305q0 195 77.5 286.5t253.5 100.5v-158q-80 -14 -116.5 -53.5t-36.5 -114.5v-24h143v-342h-321z" />
<glyph unicode="&#x2019;" horiz-adv-x="548" d="M113 772v158q80 14 116.5 53.5t36.5 114.5v24h-143v342h321v-305q0 -195 -77.5 -286.5t-253.5 -100.5z" />
<glyph unicode="&#x201a;" horiz-adv-x="548" d="M100 -193q80 14 117 53.5t37 114.5v25h-143v342h321v-305q0 -194 -78 -286t-254 -101v157z" />
<glyph unicode="&#x201c;" horiz-adv-x="1017" d="M117 797v305q0 194 78 286t254 101v-158q-80 -14 -117 -53.5t-37 -114.5v-24h143v-342h-321zM571 797v305q0 194 78 286t254 101v-158q-80 -14 -116.5 -53.5t-36.5 -114.5v-24h143v-342h-322z" />
<glyph unicode="&#x201d;" horiz-adv-x="1017" d="M121 772v158q80 14 116.5 53.5t36.5 114.5v24h-143v342h322v-305q0 -194 -78 -286t-254 -101zM573 772v158q80 14 117 53.5t37 114.5v24h-143v342h321v-305q0 -194 -78 -286t-254 -101z" />
<glyph unicode="&#x201e;" horiz-adv-x="1017" d="M109 -193q80 14 116.5 53.5t36.5 114.5v25h-143v342h321v-305q0 -195 -77.5 -286.5t-253.5 -100.5v157zM561 -193q80 14 117 53.5t37 114.5v25h-144v342h322v-305q0 -194 -78 -286t-254 -101v157z" />
<glyph unicode="&#x2022;" horiz-adv-x="1245" d="M317 784q0 126 90 214.5t216 88.5q125 0 214 -88.5t89 -214.5q0 -125 -89.5 -215t-215.5 -90t-215 89.5t-89 215.5z" />
<glyph unicode="&#x2026;" horiz-adv-x="2109" d="M186 0v342h322v-342h-322zM889 0v342h321v-342h-321zM1591 0v342h322v-342h-322z" />
<glyph unicode="&#x202f;" horiz-adv-x="394" />
<glyph unicode="&#x2039;" horiz-adv-x="604" d="M59 520l267 322h219l-264 -322l264 -323h-219z" />
<glyph unicode="&#x203a;" horiz-adv-x="604" d="M53 197l266 323l-266 322h221l267 -322l-267 -323h-221z" />
<glyph unicode="&#x205f;" horiz-adv-x="492" />
<glyph unicode="&#x20ac;" horiz-adv-x="1099" d="M35 475l61 193h78q-2 16 -2 63q0 39 2 57h-139l61 193h94q81 508 521 508q101 0 182 -22t119 -50v-272q-84 88 -256 88q-236 0 -277 -252h469l-63 -193h-426q-2 -16 -2 -55q0 -49 2 -65h385l-62 -193h-301q41 -250 277 -250q164 0 254 86v-272q-35 -26 -113.5 -47 t-187.5 -21q-444 0 -518 504h-158z" />
<glyph unicode="&#x2122;" d="M213 1389v116h500v-116h-172v-447h-156v447h-172zM827 942v563h203l129 -342l127 342h203v-563h-139v422l-158 -422h-64l-161 422v-422h-140z" />
<glyph unicode="&#x25fc;" horiz-adv-x="1044" d="M0 0v1044h1044v-1044h-1044z" />
</font>
</defs>
</svg>
