<?xml version="1.0" standalone="no"?>
<!DOCTYPE svg PUBLIC "-//W3C//DTD SVG 1.1//EN" "http://www.w3.org/Graphics/SVG/1.1/DTD/svg11.dtd" >
<svg xmlns="http://www.w3.org/2000/svg">
<metadata></metadata>
<defs>
<font id="rodeocregular" horiz-adv-x="1757" >
<font-face units-per-em="2048" ascent="1550" descent="-498" />
<missing-glyph horiz-adv-x="522" />
<glyph horiz-adv-x="2048" />
<glyph horiz-adv-x="2048" />
<glyph unicode="&#xd;" horiz-adv-x="2048" />
<glyph unicode=" "  horiz-adv-x="522" />
<glyph unicode="&#x09;" horiz-adv-x="522" />
<glyph unicode="&#xa0;" horiz-adv-x="522" />
<glyph unicode="!" horiz-adv-x="579" d="M172 0v256h246v-256h-246zM193 1001v461h194v-461l-43 -608h-108z" />
<glyph unicode="&#x22;" horiz-adv-x="630" d="M92 907v572h144v-572h-144zM395 907v572h144v-572h-144z" />
<glyph unicode="#" horiz-adv-x="1624" d="M92 463l55 149h318l94 273h-338l51 149h342l168 469h170l-166 -469h263l170 469h167l-163 -469h309l-51 -149h-314l-94 -273h330l-51 -149h-332l-166 -463h-172l168 463h-266l-168 -463h-170l164 463h-318zM637 612h266l96 273h-268z" />
<glyph unicode="$" horiz-adv-x="1042" d="M57 1092q0 168 110.5 273t291.5 105v156h112v-164q103 -24 181 -102v96h155v-381h-155v107q-65 91 -181 131v-463l103 -33q147 -46 227 -150.5t80 -256.5q0 -186 -110 -298.5t-300 -121.5v-174h-112v182q-116 20 -221 111v-91h-166v443h166v-133q47 -66 99 -105t122 -61 v526l-113 37q-142 47 -215.5 141t-73.5 226zM231 1112q0 -94 52.5 -147.5t175.5 -90.5v455q-110 -10 -169 -67t-59 -150zM571 154q115 13 175.5 76t60.5 169q0 210 -236 273v-518z" />
<glyph unicode="%" horiz-adv-x="1505" d="M57 1063q0 200 78 313t207 113q126 0 205.5 -113.5t79.5 -312.5t-79.5 -311.5t-205.5 -112.5q-128 0 -206.5 112.5t-78.5 311.5zM205 1063q0 -139 39 -215t98 -76t98 77.5t39 213.5q0 138 -38 215.5t-99 77.5t-99 -77.5t-38 -215.5zM233 -31l893 1520h144l-893 -1520 h-144zM877 393q0 200 78 313t206 113q126 0 205.5 -113.5t79.5 -312.5t-79.5 -311.5t-205.5 -112.5q-128 0 -206 112.5t-78 311.5zM1024 393q0 -139 39 -215t98 -76t98 77.5t39 213.5q0 138 -38 215.5t-99 77.5t-99 -77.5t-38 -215.5z" />
<glyph unicode="&#x26;" horiz-adv-x="1495" d="M96 449q0 316 322 464q-78 169 -78 258q0 139 91 228.5t241 89.5q159 0 249.5 -85t90.5 -228q0 -117 -76 -197.5t-236 -138.5l293 -396q83 163 119 340h295v-184h-160q-42 -157 -137 -309l88 -117h209v-174h-322l-100 133q-92 -88 -184 -126t-211 -38q-213 0 -353.5 137 t-140.5 343zM305 477q0 -131 93 -225t223 -94q137 0 262 116l-363 488q-103 -36 -159 -111.5t-56 -173.5zM522 1184q0 -79 76 -203q121 34 176 81.5t55 121.5q0 67 -43 108t-114 41q-68 0 -109 -40t-41 -109z" />
<glyph unicode="'" horiz-adv-x="325" d="M92 907v572h144v-572h-144z" />
<glyph unicode="(" horiz-adv-x="790" d="M217 580q0 354 142.5 590t398.5 319v-135q-174 -96 -256 -286t-82 -488q0 -302 81 -490.5t257 -284.5v-137q-257 84 -399 320.5t-142 591.5z" />
<glyph unicode=")" horiz-adv-x="790" d="M39 -197q174 96 256 286.5t82 488.5q0 302 -81 491t-257 285v135q257 -84 399 -319t142 -590t-142.5 -592.5t-398.5 -319.5v135z" />
<glyph unicode="*" horiz-adv-x="948" d="M123 1180l49 143l242 -96l-17 262h152l-17 -262l244 96l47 -143l-256 -66l170 -201l-123 -90l-141 221l-139 -221l-123 90l168 201z" />
<glyph unicode="+" d="M260 557v143h545v557h145v-557h545v-143h-545v-557h-145v557h-545z" />
<glyph unicode="," horiz-adv-x="524" d="M131 0v256h246v-256q0 -278 -246 -293v115q67 15 92 46t25 99v33h-117z" />
<glyph unicode="-" d="M260 557v143h1235v-143h-1235z" />
<glyph unicode="." horiz-adv-x="524" d="M139 0v256h246v-256h-246z" />
<glyph unicode="/" horiz-adv-x="645" d="M-55 -197l567 1686h131l-567 -1686h-131z" />
<glyph unicode="0" horiz-adv-x="1042" d="M72 729q0 366 119 563t329 197q215 0 334 -200t119 -580q0 -350 -123 -545t-330 -195q-210 0 -329 197t-119 563zM268 739q0 -286 69 -440t185 -154q112 0 182 150.5t70 421.5q0 301 -66.5 458.5t-185.5 157.5q-117 0 -185.5 -153.5t-68.5 -440.5z" />
<glyph unicode="1" horiz-adv-x="1042" d="M242 0v182h190v1102h-190v178h385v-1280h182v-182h-567z" />
<glyph unicode="2" horiz-adv-x="1044" d="M51 0v20q0 316 201 517q67 68 187 159t134 103q80 67 114 130.5t34 155.5q0 109 -59.5 172.5t-157.5 63.5q-125 0 -183.5 -96.5t-58.5 -300.5h-186q0 272 113.5 418.5t334.5 146.5q182 0 294 -111t112 -295q0 -163 -96 -282q-51 -61 -111 -111.5t-137 -104t-105 -75.5 q-106 -86 -160.5 -165t-60.5 -163h498v336h180v-518h-887z" />
<glyph unicode="3" horiz-adv-x="1044" d="M59 469v18h187v-8q0 -166 71 -258t191 -92q111 0 184.5 76.5t73.5 195.5q0 140 -85.5 212.5t-250.5 72.5h-49v170h35q150 0 228.5 63.5t78.5 182.5q0 104 -58.5 165.5t-158.5 61.5q-115 0 -170 -75t-55 -228v-8h-183v37q0 202 108.5 318t295.5 116q192 0 305 -105 t113 -276q0 -236 -228 -328q138 -51 202 -140.5t64 -231.5q0 -197 -125 -318t-333 -121q-205 0 -323 132.5t-118 367.5z" />
<glyph unicode="4" horiz-adv-x="1044" d="M29 580l573 909h182v-909h207v-164h-207v-236h142v-180h-482v180h164v236h-502q-12 102 -77 164zM205 580h403v661z" />
<glyph unicode="5" horiz-adv-x="1044" d="M53 449v30h191v-10q0 -153 62.5 -236t176.5 -83q120 0 193.5 87.5t73.5 239.5q0 143 -68.5 221t-189.5 78q-83 0 -148 -42t-104 -124l-140 111l76 741h698v-393h-169v213h-396l-41 -418q126 92 264 92q191 0 303.5 -127.5t112.5 -343.5q0 -232 -127.5 -374t-337.5 -142 q-203 0 -316.5 126.5t-113.5 353.5z" />
<glyph unicode="6" horiz-adv-x="1042" d="M74 690q0 391 128 595t363 204q182 0 286.5 -104t104.5 -287v-33h-172q0 268 -221 268q-141 0 -216 -136t-75 -406q159 141 320 141q170 0 276.5 -129.5t106.5 -347.5q0 -220 -123 -353t-317 -133q-224 0 -342.5 183.5t-118.5 537.5zM272 539q0 -188 74 -292t199 -104 q110 0 182 84t72 226q0 147 -66 230t-182 83q-66 0 -138.5 -39.5t-140.5 -114.5v-73z" />
<glyph unicode="7" horiz-adv-x="1044" d="M90 1063v399h887v-147q-196 -307 -291.5 -582t-95.5 -553h172v-180h-553v180h172q0 255 98.5 523.5t282.5 578.5h-506v-219h-166z" />
<glyph unicode="8" horiz-adv-x="1042" d="M57 391q0 142 64 240.5t184 142.5q-101 38 -158 126t-57 206q0 168 120 275.5t312 107.5t312 -107.5t120 -275.5q0 -118 -57 -206t-158 -126q120 -44 184 -142.5t64 -240.5q0 -183 -130 -302.5t-335 -119.5t-335 119.5t-130 302.5zM258 418q0 -110 77 -187t187 -77 q113 0 187.5 76.5t74.5 187.5q0 110 -75.5 186t-188.5 76q-110 0 -186 -76.5t-76 -185.5zM283 1096q0 -98 68.5 -167t168.5 -69q102 0 171 68.5t69 167.5t-69 168t-171 69q-101 0 -169 -69.5t-68 -167.5z" />
<glyph unicode="9" horiz-adv-x="1044" d="M61 1004q0 220 123 352.5t318 132.5q224 0 342.5 -182.5t118.5 -536.5q0 -397 -128.5 -599t-379.5 -202q-172 0 -273.5 106t-101.5 290v28h172q0 -268 221 -268q141 0 216 133t75 389v21q-158 -140 -320 -140q-170 0 -276.5 129t-106.5 347zM238 1008q0 -147 66.5 -231.5 t182.5 -84.5q133 0 277 156v74q0 188 -72.5 291.5t-197.5 103.5q-110 0 -183 -84t-73 -225z" />
<glyph unicode=":" horiz-adv-x="571" d="M162 0v256h246v-256h-246zM162 772v256h246v-256h-246z" />
<glyph unicode=";" horiz-adv-x="571" d="M160 0v256h246v-256q0 -278 -246 -293v115q67 15 91.5 46t24.5 99v33h-116zM160 772v256h246v-256h-246z" />
<glyph unicode="&#x3c;" d="M270 563v133l1215 498v-158l-1000 -407l1000 -406v-157z" />
<glyph unicode="=" d="M260 352v144h1235v-144h-1235zM260 762v143h1235v-143h-1235z" />
<glyph unicode="&#x3e;" d="M270 66v157l1002 406l-1002 407v158l1215 -498v-133z" />
<glyph unicode="?" horiz-adv-x="987" d="M49 1040v27q0 196 115 310t309 114q188 0 307 -112t119 -275q0 -172 -104.5 -280t-294.5 -130l-19 -278h-114l-25 454q43 -12 74 -12q135 0 208.5 64.5t73.5 179.5q0 98 -63 161.5t-166 63.5q-107 0 -169 -69.5t-62 -192.5v-25h-189zM309 0v256h246v-256h-246z" />
<glyph unicode="@" horiz-adv-x="2109" d="M111 539q0 210 82 392t222.5 308.5t331 199t402.5 72.5q235 0 429 -88t308.5 -250.5t114.5 -367.5q0 -106 -26.5 -207t-77.5 -187t-120.5 -151t-161.5 -102t-194 -37q-207 0 -207 162v20q-111 -180 -309 -180q-157 0 -240 88t-83 254q0 244 142 406.5t349 162.5 q175 0 250 -153l59 118h136l-152 -593q-8 -33 -8 -62q0 -96 104 -96t195.5 83t142.5 206.5t51 248.5q0 265 -194.5 431.5t-515.5 166.5q-187 0 -351 -65.5t-280.5 -178t-184 -269.5t-67.5 -334q0 -165 59.5 -301t165.5 -227.5t253.5 -141t322.5 -49.5q174 0 339 50.5 t300 145.5l57 -86q-305 -229 -684 -229q-278 0 -495 101t-341 293t-124 446zM748 461q0 -108 49.5 -166.5t140.5 -58.5q99 0 179.5 69.5t107.5 183.5l61 244q-17 92 -70 141.5t-135 49.5q-92 0 -169 -61.5t-120.5 -168t-43.5 -233.5z" />
<glyph unicode="A" horiz-adv-x="1529" d="M41 0v180h166l385 1102h-191v180h732v-180h-179l377 -1102h158v-180h-547v180h176l-114 338h-494l-111 -338h164v-180h-522zM573 694h369l-182 545z" />
<glyph unicode="B" horiz-adv-x="1241" d="M51 0v180h172v1102h-172v180h586q223 0 338 -95t115 -277q0 -112 -53 -186.5t-167 -125.5q147 -42 223 -136.5t76 -229.5q0 -201 -127 -306.5t-376 -105.5h-615zM432 180h205q152 0 233.5 66.5t81.5 183.5t-88.5 182.5t-259.5 65.5h-172v-498zM432 850h154q295 0 295 211 q0 107 -71 164t-210 57h-168v-432z" />
<glyph unicode="C" horiz-adv-x="1585" d="M72 729q0 166 55.5 308.5t153 241t233 154.5t291.5 56q161 0 274 -50.5t199 -162.5v186h180v-469h-194q-128 299 -443 299q-151 0 -269.5 -68t-186.5 -196t-68 -297q0 -127 39 -234t107 -179t161 -112t199 -40q176 0 317.5 114t204.5 310l180 -109 q-72 -239 -258.5 -375.5t-441.5 -136.5q-212 0 -379.5 97t-260.5 270.5t-93 392.5z" />
<glyph unicode="D" horiz-adv-x="1509" d="M51 0v180h172v1102h-172v180h670q344 0 530.5 -189.5t186.5 -535.5q0 -349 -186.5 -543t-530.5 -194h-670zM432 180h268q252 0 382 143.5t130 413.5q0 261 -125 403t-356 142h-299v-1102z" />
<glyph unicode="E" horiz-adv-x="1308" d="M51 0v180h172v1102h-172v180h1196v-434h-178v254h-637v-412h569v-176h-569v-514h637v287h178v-467h-1196z" />
<glyph unicode="F" horiz-adv-x="1212" d="M51 0v180h172v1102h-172v180h1110v-434h-176v254h-553v-412h490v-176h-490v-514h172v-180h-553z" />
<glyph unicode="G" horiz-adv-x="1599" d="M72 729q0 166 55.5 308.5t153 241t233 154.5t291.5 56q161 0 274 -50.5t199 -162.5v186h180v-469h-194q-128 299 -443 299q-151 0 -269.5 -68t-186.5 -196t-68 -297q0 -127 39 -234t107 -179t161 -112t199 -40q438 0 489 360h-268v183h500q4 -40 4 -62 q0 -311 -197.5 -494.5t-525.5 -183.5q-212 0 -379.5 97t-260.5 270.5t-93 392.5z" />
<glyph unicode="H" horiz-adv-x="1499" d="M51 0v180h172v1102h-172v180h553v-180h-172v-412h635v412h-172v180h553v-180h-172v-1102h172v-180h-553v180h172v514h-635v-514h172v-180h-553z" />
<glyph unicode="I" horiz-adv-x="655" d="M51 0v180h172v1102h-172v180h553v-180h-172v-1102h172v-180h-553z" />
<glyph unicode="J" horiz-adv-x="655" d="M-59 -152q40 -8 98 -8q59 0 96.5 22t56.5 70.5t25 105t6 146.5v1098h-172v180h553v-180h-172v-1182q0 -228 -82 -335t-276 -107q-77 0 -133 12v178z" />
<glyph unicode="K" horiz-adv-x="1366" d="M51 0v180h172v1102h-172v180h553v-180h-172v-504l498 504h-160v180h547v-180h-150l-475 -494l482 -608h172v-180h-574v180h146l-486 598v-598h172v-180h-553z" />
<glyph unicode="L" horiz-adv-x="1208" d="M51 0v180h172v1102h-172v180h553v-180h-172v-1102h526v504h179v-684h-1086z" />
<glyph unicode="M" horiz-adv-x="1914" d="M51 0v180h172v1102h-172v180h510l404 -1038l413 1038h486v-180h-172v-1102h172v-180h-553v180h172v1106l-522 -1286h-43l-510 1288v-1108h172v-180h-529z" />
<glyph unicode="N" horiz-adv-x="1583" d="M51 0v180h172v1102h-172v180h459l661 -1140v960h-172v180h533v-180h-172v-1282h-240l-712 1243v-1063h172v-180h-529z" />
<glyph unicode="O" horiz-adv-x="1607" d="M72 729q0 166 55.5 308.5t153 241t233 154.5t291.5 56q214 0 381 -97t258.5 -270t91.5 -393t-92.5 -393t-259.5 -270t-379 -97t-379.5 97t-260.5 270.5t-93 392.5zM297 731q0 -127 39 -234t107 -179t161 -112t199 -40q218 0 363 155.5t145 409.5q0 251 -143.5 406 t-364.5 155q-216 0 -361 -154.5t-145 -406.5z" />
<glyph unicode="P" horiz-adv-x="1273" d="M51 0v180h172v1102h-172v180h588q289 0 426 -106t137 -340t-137.5 -344.5t-425.5 -110.5h-207v-381h172v-180h-553zM432 735h176q191 0 280 61.5t89 213.5t-88.5 212t-280.5 60h-176v-547z" />
<glyph unicode="Q" horiz-adv-x="1607" d="M72 731q0 221 96 394.5t263 268.5t374 95q214 0 381 -96.5t258.5 -269t91.5 -392.5q0 -195 -74.5 -355.5t-210 -262.5t-311.5 -129q203 -62 272 -62q29 0 84 10l-59 -186q-20 -10 -51 -10q-71 0 -147 20t-129 44.5t-111 44.5t-97 20q-77 0 -159 -55l-72 102q59 65 139 82 q-246 60 -392 259.5t-146 477.5zM297 731q0 -127 39 -234t107 -179t161 -112t199 -40q218 0 363 155.5t145 409.5q0 251 -143.5 406t-364.5 155q-216 0 -361 -154.5t-145 -406.5z" />
<glyph unicode="R" horiz-adv-x="1316" d="M51 0v180h172v1102h-172v180h625q234 0 357.5 -97.5t123.5 -279.5q0 -143 -77.5 -237.5t-215.5 -124.5l252 -543h160v-180h-293l-332 705h-219v-525h172v-180h-553zM432 864h166q170 0 252 49.5t82 157.5q0 121 -76.5 166t-243.5 45h-180v-418z" />
<glyph unicode="S" horiz-adv-x="1157" d="M106 0v502h187v-131q115 -213 319 -213q107 0 174.5 64t67.5 165q0 88 -48.5 151t-141.5 95l-261 86q-145 47 -221 144.5t-76 232.5q0 171 114.5 282t289.5 111q182 0 317 -123v96h174v-420h-174v109q-130 158 -299 158q-99 0 -159 -54.5t-60 -144.5q0 -78 43.5 -126.5 t141.5 -82.5l251 -88q320 -111 320 -416q0 -193 -122.5 -310.5t-328.5 -117.5q-180 0 -321 123v-92h-187z" />
<glyph unicode="T" horiz-adv-x="1286" d="M72 895v567h1142v-567h-176v387h-290v-1102h172v-180h-553v180h172v1102h-291v-387h-176z" />
<glyph unicode="U" horiz-adv-x="1484" d="M51 1282v180h553v-180h-172v-780q0 -172 73.5 -254t231.5 -82q165 0 244.5 82.5t79.5 253.5v780h-172v180h545v-180h-172v-678q0 -167 -26.5 -282.5t-87 -196.5t-162 -118.5t-249.5 -37.5t-247.5 38t-158.5 119.5t-83.5 196t-24.5 281.5v678h-172z" />
<glyph unicode="V" horiz-adv-x="1531" d="M41 1282v180h541v-180h-152l344 -1003l344 1003h-168v180h541v-180h-182l-443 -1282h-219l-438 1282h-168z" />
<glyph unicode="W" horiz-adv-x="2070" d="M41 1282v180h543v-180h-183l252 -979l238 979h-184v180h661v-180h-182l254 -979l237 979h-182v180h535v-180h-183l-319 -1282h-195l-309 1159l-285 -1159h-194l-348 1282h-156z" />
<glyph unicode="X" horiz-adv-x="1452" d="M68 0v180h165l377 551l-366 551h-176v180h559v-180h-123l233 -360l244 360h-170v180h539v-180h-154l-350 -524l377 -578h174v-180h-586v180h162l-254 391l-256 -391h164v-180h-559z" />
<glyph unicode="Y" horiz-adv-x="1454" d="M41 1282v180h584v-180h-160l274 -432l285 432h-182v180h571v-180h-180l-406 -612v-490h172v-180h-553v180h172v490l-399 612h-178z" />
<glyph unicode="Z" horiz-adv-x="1146" d="M51 0v184l742 1098h-525v-254h-176v434h963v-178l-748 -1104h602v279h176v-459h-1034z" />
<glyph unicode="[" horiz-adv-x="790" d="M274 -309v1773h486v-143h-293v-1487h293v-143h-486z" />
<glyph unicode="\" horiz-adv-x="645" d="M-10 1489h131l567 -1686h-131z" />
<glyph unicode="]" horiz-adv-x="790" d="M31 -166h293v1487h-293v143h485v-1773h-485v143z" />
<glyph unicode="^" horiz-adv-x="2109" d="M432 928l526 573h191l526 -573h-186l-434 432l-437 -432h-186z" />
<glyph unicode="_" horiz-adv-x="1052" d="M-2 -350h1057v-148h-1057v148z" />
<glyph unicode="`" horiz-adv-x="1054" d="M258 1528h207l211 -361h-125z" />
<glyph unicode="a" horiz-adv-x="1093" d="M61 297q0 152 100.5 245t264.5 93q111 0 295 -74v62q0 137 -53 202.5t-166 65.5q-154 0 -248 -131l-180 45q50 119 164.5 184.5t277.5 65.5q215 0 302 -102.5t87 -325.5v-447h148v-180h-332v94q-152 -125 -322 -125q-152 0 -245 90.5t-93 237.5zM266 305q0 -61 46 -103 t120 -42q120 0 289 125v80q-76 46 -135 68t-123 22q-90 0 -143.5 -41.5t-53.5 -108.5z" />
<glyph unicode="b" horiz-adv-x="1236" d="M33 0v180h147v1110h-147v172h332v-588q78 75 160 114.5t188 39.5q205 0 334 -143t129 -385q0 -243 -129 -387t-334 -144q-189 0 -348 152v-121h-332zM365 504q0 -163 82.5 -256.5t222.5 -93.5q132 0 218.5 95t86.5 255q0 165 -84.5 258.5t-224.5 93.5t-220.5 -93.5 t-80.5 -258.5z" />
<glyph unicode="c" horiz-adv-x="1122" d="M61 512q0 240 141.5 391.5t356.5 151.5q171 0 303 -117v90h166v-383h-166q-27 113 -98 171t-176 58q-147 0 -232.5 -96t-85.5 -264q0 -166 86.5 -260t229.5 -94q103 0 188 54t137 153l162 -80q-59 -147 -189.5 -232.5t-297.5 -85.5q-232 0 -378.5 149t-146.5 394z" />
<glyph unicode="d" horiz-adv-x="1243" d="M61 500q0 242 128.5 385t332.5 143q99 0 181.5 -37t166.5 -117v416h-147v172h332v-1282h147v-180h-332v119q-157 -150 -348 -150q-204 0 -332.5 144t-128.5 387zM260 504q0 -163 82.5 -256.5t222.5 -93.5q132 0 218.5 95t86.5 255q0 165 -84.5 258.5t-224.5 93.5 t-220.5 -93.5t-80.5 -258.5z" />
<glyph unicode="e" horiz-adv-x="1136" d="M61 512q0 247 143 395t371 148q236 0 368 -155.5t132 -440.5h-807q0 -134 90 -216.5t232 -82.5q101 0 187.5 48t140.5 134l161 -86q-78 -140 -203.5 -213.5t-287.5 -73.5q-239 0 -383 147.5t-144 395.5zM285 618h581q-15 127 -90.5 196t-200.5 69t-199 -68.5t-91 -196.5z " />
<glyph unicode="f" horiz-adv-x="626" d="M41 0v180h147v678h-147v172h147v111q0 180 58 264t190 84q115 0 180.5 -63t75.5 -185l-168 -22q-11 58 -28 82t-52 24q-43 0 -57 -42t-14 -146v-107h147v-172h-147v-678h147v-180h-479z" />
<glyph unicode="g" horiz-adv-x="1245" d="M61 514q0 241 123.5 377.5t352.5 136.5q111 0 181.5 -30.5t153.5 -116.5v147h332v-172h-147v-704q0 -114 -24.5 -203t-67 -148t-104 -97t-131 -54.5t-152.5 -16.5q-232 0 -406 129l117 136q133 -107 293 -107q290 0 290 307v62q-129 -170 -348 -170q-204 0 -333.5 143 t-129.5 381zM262 512q0 -162 82 -252t223 -90q132 0 218.5 91t86.5 249t-89 252t-220 94q-140 0 -220.5 -91t-80.5 -253z" />
<glyph unicode="h" horiz-adv-x="1155" d="M41 0v180h147v1110h-147v172h332v-585q96 78 178 114.5t168 36.5q64 0 109 -17t72 -45t42 -77t20 -100.5t5 -126.5v-482h147v-180h-332v586q0 63 -2 99t-9 73.5t-21 56t-39 30t-62 11.5q-136 0 -276 -149v-527h147v-180h-479z" />
<glyph unicode="i" horiz-adv-x="561" d="M41 0v180h147v676h-147v172h332v-848h147v-180h-479zM147 1337q0 46 35 80.5t82 34.5t82 -34t35 -81q0 -51 -33.5 -84.5t-83.5 -33.5t-83.5 33.5t-33.5 84.5z" />
<glyph unicode="j" horiz-adv-x="516" d="M-39 -188q44 -7 64 -7q96 0 129.5 39.5t33.5 135.5v878h-147v172h332v-1102q0 -50 -15.5 -99t-48 -94.5t-92 -73.5t-137.5 -28q-44 0 -119 11v168zM147 1337q0 46 35 80.5t82 34.5t82 -34t35 -81q0 -51 -33.5 -84.5t-83.5 -33.5t-83.5 33.5t-33.5 84.5z" />
<glyph unicode="k" horiz-adv-x="1150" d="M41 0v180h147v1110h-147v172h332v-1282h147v-180h-479zM379 539l379 317h-135v172h471v-172h-119l-361 -303l353 -373h147v-180h-235z" />
<glyph unicode="l" horiz-adv-x="561" d="M41 0v180h147v1110h-147v172h332v-1282h147v-180h-479z" />
<glyph unicode="m" horiz-adv-x="1753" d="M41 0v180h147v676h-147v172h332v-158q101 83 180.5 120.5t165.5 37.5q97 0 162 -37.5t86 -113.5q96 78 178 114.5t168 36.5q64 0 109 -17t72 -45t42 -77t20 -100.5t5 -126.5v-482h147v-180h-332v586q0 63 -2 99t-9 73.5t-21 56t-39 30t-62 11.5q-136 0 -276 -149v-527 h147v-180h-332v586q0 63 -2 99t-9 73.5t-21 56t-39 30t-62 11.5q-136 0 -276 -149v-527h147v-180h-479z" />
<glyph unicode="n" horiz-adv-x="1155" d="M41 0v180h147v676h-147v172h332v-151q96 78 178 114.5t168 36.5q64 0 109 -17t72 -45t42 -77t20 -100.5t5 -126.5v-482h147v-180h-332v586q0 63 -2 99t-9 73.5t-21 56t-39 30t-62 11.5q-136 0 -276 -149v-527h147v-180h-479z" />
<glyph unicode="o" horiz-adv-x="1150" d="M61 512q0 247 143 395t371 148t371.5 -149t143.5 -394t-143.5 -394t-371.5 -149t-371 148t-143 395zM270 510q0 -163 82.5 -256.5t222.5 -93.5q133 0 219.5 95t86.5 255q0 165 -85 258.5t-225 93.5t-220.5 -93.5t-80.5 -258.5z" />
<glyph unicode="p" horiz-adv-x="1253" d="M41 -162h147v1018h-147v172h332v-151q81 74 160.5 112.5t183.5 38.5q207 0 341 -143.5t134 -384.5q0 -240 -134.5 -385.5t-340.5 -145.5q-183 0 -344 154v-285h147v-180h-479v180zM373 504q0 -163 82.5 -256.5t222.5 -93.5q132 0 218.5 95t86.5 255q0 165 -84.5 258.5 t-224.5 93.5t-220.5 -93.5t-80.5 -258.5z" />
<glyph unicode="q" horiz-adv-x="1243" d="M61 500q0 243 127.5 385.5t331.5 142.5q99 0 182.5 -36.5t167.5 -114.5v151h332v-172h-147v-1018h147v-180h-479v180h147v281q-157 -150 -350 -150q-203 0 -331 144.5t-128 386.5zM260 504q0 -163 82.5 -256.5t222.5 -93.5q132 0 218.5 95t86.5 255q0 165 -84.5 258.5 t-224.5 93.5t-220.5 -93.5t-80.5 -258.5z" />
<glyph unicode="r" horiz-adv-x="821" d="M41 0v180h147v676h-147v172h332v-192q52 115 121 153.5t196 38.5h80v-172h-78q-170 0 -244.5 -99.5t-74.5 -303.5v-273h147v-180h-479z" />
<glyph unicode="s" horiz-adv-x="968" d="M72 745q0 131 101.5 220.5t256.5 89.5q161 0 275 -105v78h157v-334h-157q-8 91 -80 147t-185 56q-81 0 -128.5 -35.5t-47.5 -95.5q0 -55 40 -85t126 -48l176 -37q147 -31 219 -103.5t72 -189.5q0 -149 -102.5 -241.5t-274.5 -92.5q-168 0 -278 101v-70h-166v348h166 q10 -101 81 -158t185 -57q92 0 146.5 40t54.5 101q0 57 -44.5 89t-142.5 53l-160 35q-149 32 -219.5 103.5t-70.5 190.5z" />
<glyph unicode="t" horiz-adv-x="593" d="M29 858v172h135v135l184 156v-291h195v-172h-195v-571q0 -73 18 -103t66 -30q44 0 111 28v-178q-84 -35 -164 -35q-69 0 -112.5 17.5t-65.5 57t-29.5 86.5t-7.5 122v606h-135z" />
<glyph unicode="u" horiz-adv-x="1157" d="M41 856v172h332v-637q0 -57 2 -91.5t9.5 -68.5t21.5 -51.5t38.5 -28t61.5 -10.5q133 0 278 154v561h-147v172h332v-848h147v-180h-332v123q-99 -81 -179.5 -117.5t-168.5 -36.5q-64 0 -109 17t-72 46t-42 78.5t-20 101.5t-5 128v516h-147z" />
<glyph unicode="v" horiz-adv-x="1165" d="M37 856v172h479v-172h-139l209 -582l225 582h-143v172h456v-172h-143l-330 -856h-159l-314 856h-141z" />
<glyph unicode="w" horiz-adv-x="1656" d="M37 856v172h397v-172h-90l176 -571l187 571h-109v172h465v-172h-92l178 -571l188 571h-110v172h389v-172h-103l-313 -856h-147l-232 745l-250 -745h-145l-281 856h-108z" />
<glyph unicode="x" horiz-adv-x="1118" d="M37 0v176h135l283 334l-308 346h-90v172h430v-172h-116l198 -217l189 217h-131v172h407v-172h-88l-272 -326l321 -354h82v-176h-430v176h115l-205 227l-192 -227h124v-176h-452z" />
<glyph unicode="y" horiz-adv-x="1130" d="M37 856v172h432v-172h-119l228 -571l221 571h-119v172h410v-172h-121l-461 -1198h-350v172h245l78 203l-327 823h-117z" />
<glyph unicode="z" horiz-adv-x="978" d="M51 0v201l633 669h-420v-221h-170v379h813v-194l-631 -666h451v217h180v-385h-856z" />
<glyph unicode="{" horiz-adv-x="1054" d="M174 473v150h47q135 0 189.5 62.5t54.5 213.5v254q0 94 12 156.5t37 105.5t72.5 65.5t110 32t159.5 9.5h37v-154h-41q-67 0 -107 -11t-63.5 -40.5t-31 -72t-7.5 -114.5v-247q0 -155 -42 -229.5t-165 -106.5q124 -32 165.5 -106t41.5 -230v-248q0 -72 7.5 -113.5 t30.5 -71.5t64 -41t109 -11h39v-152h-45q-77 0 -130.5 5t-99 19.5t-72.5 39t-46.5 64t-27 93t-7.5 129.5v271q0 152 -55 215t-191 63h-45z" />
<glyph unicode="|" horiz-adv-x="1052" d="M451 -498v2110h153v-2110h-153z" />
<glyph unicode="}" horiz-adv-x="1054" d="M164 -274h39q130 0 170.5 49t40.5 190v246q0 155 42 229.5t165 106.5q-123 32 -165 106.5t-42 229.5v247q0 72 -8 114t-31 72t-63.5 41t-108.5 11h-39v154h37q75 0 126.5 -4.5t98.5 -17.5t75.5 -35.5t50.5 -60t31 -90t9 -124.5v-291q0 -151 54.5 -213.5t189.5 -62.5h47 v-150h-45q-137 0 -191.5 -63t-54.5 -215v-277q0 -76 -7.5 -129.5t-27 -92.5t-46.5 -62t-73 -37t-98.5 -18.5t-130.5 -4.5h-45v152z" />
<glyph unicode="~" d="M184 465v160q217 147 400 147q83 0 170 -22t148 -48.5t136.5 -48.5t139.5 -22q94 0 188.5 40.5t210.5 121.5v-160q-211 -146 -401 -146q-70 0 -150 22t-142 49t-145 49t-157 22q-90 0 -184.5 -40.5t-213.5 -123.5z" />
<glyph unicode="&#xa9;" d="M121 750q0 147 57 285t155.5 243t241.5 168t304 63t303.5 -61t242.5 -164t157.5 -242t57.5 -292q0 -125 -40 -241.5t-111.5 -209.5t-166 -163t-209 -108t-234.5 -38q-151 0 -291 62t-242 164.5t-163.5 243t-61.5 290.5zM221 750q0 -131 53.5 -252.5t142.5 -210.5 t211 -142t253 -53q128 0 246.5 47t209.5 130.5t146 209t55 271.5q0 144 -52.5 268t-142 209t-209.5 133.5t-253 48.5q-135 0 -258 -54t-211 -143.5t-139.5 -210.5t-51.5 -251zM477 756q0 208 113 333t295 125q147 0 244 -77t108 -201h-152q-12 78 -67 121t-144 43 q-106 0 -168.5 -92t-62.5 -258q0 -163 64.5 -252.5t177.5 -89.5q85 0 141.5 48t69.5 134h149q-9 -135 -110 -219t-256 -84q-187 0 -294.5 124t-107.5 345z" />
<glyph unicode="&#xab;" horiz-adv-x="929" d="M68 520l270 322h186l-266 -322l266 -323h-186zM410 520l270 322h186l-266 -322l266 -323h-186z" />
<glyph unicode="&#xad;" d="M260 557v143h1235v-143h-1235z" />
<glyph unicode="&#xae;" d="M121 750q0 148 56 285.5t153.5 242.5t241 168t307.5 63q163 0 305.5 -61t242 -164t156.5 -242t57 -292q0 -156 -62.5 -298t-166.5 -242.5t-243.5 -160t-288.5 -59.5q-151 0 -291 62t-242 164.5t-163.5 243t-61.5 290.5zM221 750q0 -129 53 -250.5t141.5 -211t209 -143 t249.5 -53.5q103 0 201.5 30.5t182 88.5t146.5 136.5t98.5 180.5t35.5 215q0 191 -89 344.5t-239 237.5t-329 84q-140 0 -264 -54t-210 -144t-136 -210.5t-50 -250.5zM575 334v860h324q358 0 358 -236q0 -92 -50.5 -152t-143.5 -79l190 -393h-180l-176 366h-160v-366h-162z M737 805h137q113 0 165.5 31t52.5 106q0 77 -53.5 112.5t-168.5 35.5h-133v-285z" />
<glyph unicode="&#xbb;" horiz-adv-x="929" d="M63 197l267 323l-267 322h187l270 -322l-270 -323h-187zM406 197l266 323l-266 322h186l270 -322l-270 -323h-186z" />
<glyph unicode="&#x401;" horiz-adv-x="1308" d="M51 0v180h172v1102h-172v180h1196v-434h-178v254h-637v-412h569v-176h-569v-514h637v287h178v-467h-1196zM381 1772q0 46 35 80t82 34t81.5 -33.5t34.5 -80.5q0 -51 -33 -85t-83 -34t-83.5 34t-33.5 85zM776 1772q0 46 35 80t82 34q48 0 82.5 -33.5t34.5 -80.5 q0 -51 -33.5 -85t-83.5 -34t-83.5 34t-33.5 85z" />
<glyph unicode="&#x402;" horiz-adv-x="1558" d="M72 1081v381h1142v-381h-176v201h-290v-412h219q254 0 387 -116.5t133 -311.5q0 -201 -131 -321.5t-375 -120.5h-86v180h55q150 0 231 66.5t81 183.5q0 121 -77.5 192.5t-230.5 71.5h-206v-694h-381v180h172v1102h-291v-201h-176z" />
<glyph unicode="&#x403;" horiz-adv-x="1212" d="M51 0v180h172v1102h-172v180h1110v-434h-176v254h-553v-1102h172v-180h-553zM528 1534l211 360h207l-293 -360h-125z" />
<glyph unicode="&#x404;" horiz-adv-x="1585" d="M72 729q0 166 55.5 308.5t153 241t233 154.5t291.5 56q161 0 274 -50.5t199 -162.5v186h180v-469h-194q-128 299 -447 299q-195 0 -332.5 -113.5t-175.5 -308.5h574v-174h-586q5 -120 46.5 -220t109 -167.5t158 -105t192.5 -37.5q176 0 317.5 114t204.5 310l180 -109 q-72 -239 -258.5 -375.5t-441.5 -136.5q-212 0 -379.5 97t-260.5 270.5t-93 392.5z" />
<glyph unicode="&#x405;" horiz-adv-x="1157" d="M106 0v502h187v-131q115 -213 319 -213q107 0 174.5 64t67.5 165q0 88 -48.5 151t-141.5 95l-261 86q-145 47 -221 144.5t-76 232.5q0 171 114.5 282t289.5 111q182 0 317 -123v96h174v-420h-174v109q-130 158 -299 158q-99 0 -159 -54.5t-60 -144.5q0 -78 43.5 -126.5 t141.5 -82.5l251 -88q320 -111 320 -416q0 -193 -122.5 -310.5t-328.5 -117.5q-180 0 -321 123v-92h-187z" />
<glyph unicode="&#x406;" horiz-adv-x="655" d="M51 0v180h172v1102h-172v180h553v-180h-172v-1102h172v-180h-553z" />
<glyph unicode="&#x407;" horiz-adv-x="655" d="M14 1772q0 46 35 80t82 34q48 0 82.5 -33.5t34.5 -80.5q0 -51 -33.5 -85t-83.5 -34t-83.5 34t-33.5 85zM51 0v180h172v1102h-172v180h553v-180h-172v-1102h172v-180h-553zM410 1772q0 46 34.5 80t81.5 34q48 0 82.5 -33.5t34.5 -80.5q0 -51 -33.5 -85t-83.5 -34t-83 34 t-33 85z" />
<glyph unicode="&#x408;" horiz-adv-x="655" d="M-59 -152q40 -8 98 -8q59 0 96.5 22t56.5 70.5t25 105t6 146.5v1098h-172v180h553v-180h-172v-1182q0 -228 -82 -335t-276 -107q-77 0 -133 12v178z" />
<glyph unicode="&#x409;" horiz-adv-x="2082" d="M20 -12v192q52 -18 119 -18q48 0 84.5 29.5t67 97.5t47 195.5t16.5 308.5v489h-172v180h1262v-180h-172v-412h219q254 0 387 -116.5t133 -311.5q0 -201 -131 -321.5t-375 -120.5h-614v180h172v1102h-524v-520q0 -418 -97.5 -605.5t-291.5 -187.5q-81 0 -130 19zM1272 180 h203q150 0 230.5 66.5t80.5 183.5q0 121 -77 192.5t-230 71.5h-207v-514z" />
<glyph unicode="&#x40a;" horiz-adv-x="2086" d="M51 0v180h172v1102h-172v180h553v-180h-172v-412h635v412h-172v180h553v-180h-172v-412h219q254 0 387 -116.5t133 -311.5q0 -201 -131 -321.5t-375 -120.5h-614v180h172v514h-635v-514h172v-180h-553zM1276 180h203q150 0 230.5 66.5t80.5 183.5q0 121 -77 192.5 t-230 71.5h-207v-514z" />
<glyph unicode="&#x40b;" horiz-adv-x="1615" d="M72 1081v381h1142v-381h-176v201h-290v-412h266q183 0 281 -91.5t98 -305.5v-293h172v-180h-381v420q0 81 -10 130t-38 83t-76.5 47.5t-127.5 13.5h-184v-514h172v-180h-553v180h172v1102h-291v-201h-176z" />
<glyph unicode="&#x40c;" horiz-adv-x="1366" d="M51 0v180h172v1102h-172v180h553v-180h-172v-504l498 504h-160v180h547v-180h-150l-475 -494l482 -608h172v-180h-574v180h146l-486 598v-598h172v-180h-553zM623 1534l211 360h206l-292 -360h-125z" />
<glyph unicode="&#x40e;" horiz-adv-x="1501" d="M51 1282v180h555v-180h-157l292 -731l330 731h-182v180h561v-180h-180l-453 -969q-49 -107 -97 -176.5t-98 -105t-96 -49t-106 -13.5q-70 0 -119 19v184q35 -12 113 -12q68 0 105 21.5t77 92.5l25 43l-392 965h-178zM461 1831v20h157q0 -170 154 -170q74 0 113 43t39 127 h157v-20q0 -130 -81 -213.5t-228 -83.5q-163 0 -237 81t-74 216z" />
<glyph unicode="&#x40f;" horiz-adv-x="1499" d="M51 0v180h172v1102h-172v180h553v-180h-172v-1102h635v1102h-172v180h553v-180h-172v-1102h172v-180h-612v-291h-172v291h-613z" />
<glyph unicode="&#x410;" horiz-adv-x="1529" d="M41 0v180h166l385 1102h-191v180h732v-180h-179l377 -1102h158v-180h-547v180h176l-114 338h-494l-111 -338h164v-180h-522zM573 694h369l-182 545z" />
<glyph unicode="&#x411;" horiz-adv-x="1243" d="M51 0v180h172v1102h-172v180h1069v-434h-174v254h-514v-412h219q254 0 387 -116.5t133 -311.5q0 -201 -130.5 -321.5t-374.5 -120.5h-615zM432 180h203q150 0 230.5 66.5t80.5 183.5q0 121 -77 192.5t-230 71.5h-207v-514z" />
<glyph unicode="&#x412;" horiz-adv-x="1241" d="M51 0v180h172v1102h-172v180h586q223 0 338 -95t115 -277q0 -112 -53 -186.5t-167 -125.5q147 -42 223 -136.5t76 -229.5q0 -201 -127 -306.5t-376 -105.5h-615zM432 180h205q152 0 233.5 66.5t81.5 183.5t-88.5 182.5t-259.5 65.5h-172v-498zM432 850h154q295 0 295 211 q0 107 -71 164t-210 57h-168v-432z" />
<glyph unicode="&#x413;" horiz-adv-x="1212" d="M51 0v180h172v1102h-172v180h1110v-434h-176v254h-553v-1102h172v-180h-553z" />
<glyph unicode="&#x414;" horiz-adv-x="1505" d="M39 188h156q182 355 182 865v229h-172v180h1245v-180h-172v-1094h172v-479h-172v291h-1067v-291h-172v479zM397 188h672v1094h-508v-250q0 -487 -164 -844z" />
<glyph unicode="&#x415;" horiz-adv-x="1308" d="M51 0v180h172v1102h-172v180h1196v-434h-178v254h-637v-412h569v-176h-569v-514h637v287h178v-467h-1196z" />
<glyph unicode="&#x416;" horiz-adv-x="2111" d="M39 0v180h170l483 608l-477 494h-147v180h546v-180h-161l499 -504l-489 -598h149v-180h-573zM780 0v180h172v1102h-172v180h553v-180h-172v-504l496 504h-160v180h547v-180h-150l-475 -494l482 -608h172v-180h-574v180h146l-484 598v-598h172v-180h-553z" />
<glyph unicode="&#x417;" horiz-adv-x="1251" d="M47 373l166 104q67 -159 159 -235t238 -76q163 0 258 60.5t95 189.5q0 119 -90 190.5t-259 71.5h-172v172h154q128 0 211.5 61t83.5 164q0 112 -66 164.5t-202 52.5q-122 0 -208.5 -73.5t-127.5 -202.5h-193v446h178v-168q121 195 390 195q199 0 318.5 -108t119.5 -269 q0 -113 -57.5 -201.5t-161.5 -132.5q146 -42 222.5 -136.5t76.5 -227.5q0 -202 -151.5 -323.5t-405.5 -121.5q-228 0 -370.5 106.5t-205.5 297.5z" />
<glyph unicode="&#x418;" horiz-adv-x="1503" d="M51 0v180h172v1102h-172v180h553v-180h-172v-977l619 1157h401v-180h-172v-1102h172v-180h-553v180h172v959l-612 -1139h-408z" />
<glyph unicode="&#x419;" horiz-adv-x="1503" d="M51 0v180h172v1102h-172v180h553v-180h-172v-977l619 1157h401v-180h-172v-1102h172v-180h-553v180h172v959l-612 -1139h-408zM506 1831v20h158q0 -170 153 -170q74 0 113 43t39 127h157v-20q0 -130 -81 -213.5t-228 -83.5q-163 0 -237 81t-74 216z" />
<glyph unicode="&#x41a;" horiz-adv-x="1366" d="M51 0v180h172v1102h-172v180h553v-180h-172v-504l498 504h-160v180h547v-180h-150l-475 -494l482 -608h172v-180h-574v180h146l-486 598v-598h172v-180h-553z" />
<glyph unicode="&#x41b;" horiz-adv-x="1495" d="M20 -12v192q52 -18 119 -18q48 0 84.5 29.5t67 97.5t47 195.5t16.5 308.5v489h-172v180h1262v-180h-172v-1102h172v-180h-553v180h172v1102h-524v-520q0 -418 -97.5 -605.5t-291.5 -187.5q-81 0 -130 19z" />
<glyph unicode="&#x41c;" horiz-adv-x="1914" d="M51 0v180h172v1102h-172v180h510l404 -1038l413 1038h486v-180h-172v-1102h172v-180h-553v180h172v1106l-522 -1286h-43l-510 1288v-1108h172v-180h-529z" />
<glyph unicode="&#x41d;" horiz-adv-x="1499" d="M51 0v180h172v1102h-172v180h553v-180h-172v-412h635v412h-172v180h553v-180h-172v-1102h172v-180h-553v180h172v514h-635v-514h172v-180h-553z" />
<glyph unicode="&#x41e;" horiz-adv-x="1607" d="M72 729q0 166 55.5 308.5t153 241t233 154.5t291.5 56q214 0 381 -97t258.5 -270t91.5 -393t-92.5 -393t-259.5 -270t-379 -97t-379.5 97t-260.5 270.5t-93 392.5zM297 731q0 -127 39 -234t107 -179t161 -112t199 -40q218 0 363 155.5t145 409.5q0 251 -143.5 406 t-364.5 155q-216 0 -361 -154.5t-145 -406.5z" />
<glyph unicode="&#x41f;" horiz-adv-x="1499" d="M51 0v180h172v1102h-172v180h1397v-180h-172v-1102h172v-180h-553v180h172v1102h-635v-1102h172v-180h-553z" />
<glyph unicode="&#x420;" horiz-adv-x="1273" d="M51 0v180h172v1102h-172v180h588q289 0 426 -106t137 -340t-137.5 -343.5t-425.5 -109.5h-207v-383h172v-180h-553zM432 735h176q191 0 280 61.5t89 213.5t-88.5 212t-280.5 60h-176v-547z" />
<glyph unicode="&#x421;" horiz-adv-x="1585" d="M72 729q0 166 55.5 308.5t153 241t233 154.5t291.5 56q161 0 274 -50.5t199 -162.5v186h180v-469h-194q-128 299 -443 299q-151 0 -269.5 -68t-186.5 -196t-68 -297q0 -127 39 -234t107 -179t161 -112t199 -40q176 0 317.5 114t204.5 310l180 -109 q-72 -239 -258.5 -375.5t-441.5 -136.5q-212 0 -379.5 97t-260.5 270.5t-93 392.5z" />
<glyph unicode="&#x422;" horiz-adv-x="1286" d="M72 895v567h1142v-567h-176v387h-290v-1102h172v-180h-553v180h172v1102h-291v-387h-176z" />
<glyph unicode="&#x423;" horiz-adv-x="1501" d="M51 1282v180h555v-180h-157l292 -731l330 731h-182v180h561v-180h-180l-453 -969q-49 -107 -97 -176.5t-98 -105t-96 -49t-106 -13.5q-70 0 -119 19v184q35 -12 113 -12q68 0 105 21.5t77 92.5l25 43l-392 965h-178z" />
<glyph unicode="&#x424;" horiz-adv-x="1552" d="M41 733q0 224 133.5 346.5t394.5 122.5h103v80h-172v180h553v-180h-172v-80h110q260 0 390 -122t130 -347q0 -214 -136.5 -335.5t-387.5 -121.5h-106v-96h172v-180h-553v180h172v96h-107q-251 0 -387.5 121.5t-136.5 335.5zM256 733q0 -280 305 -280h111v573h-111 q-144 0 -224.5 -73.5t-80.5 -219.5zM881 453h110q305 0 305 280q0 146 -80.5 219.5t-224.5 73.5h-110v-573z" />
<glyph unicode="&#x425;" horiz-adv-x="1452" d="M68 0v180h165l377 551l-366 551h-176v180h559v-180h-123l233 -360l244 360h-170v180h539v-180h-154l-350 -524l377 -578h174v-180h-586v180h162l-254 391l-256 -391h164v-180h-559z" />
<glyph unicode="&#x426;" horiz-adv-x="1499" d="M51 0v180h172v1102h-172v180h553v-180h-172v-1102h635v1102h-172v180h553v-180h-172v-1102h172v-471h-172v291h-1225z" />
<glyph unicode="&#x427;" horiz-adv-x="1499" d="M51 1282v180h553v-180h-172v-203q0 -79 16.5 -128.5t54.5 -75.5t86.5 -35t125.5 -9q80 0 194.5 7t157.5 16v428h-172v180h553v-180h-172v-1102h172v-180h-553v180h172v496q-156 -33 -383 -33q-239 0 -350 91.5t-111 314.5v233h-172z" />
<glyph unicode="&#x428;" horiz-adv-x="2150" d="M51 0v180h172v1102h-172v180h553v-180h-172v-1102h539v1102h-172v180h553v-180h-172v-1102h538v1102h-172v180h553v-180h-172v-1102h172v-180h-2048z" />
<glyph unicode="&#x429;" horiz-adv-x="2150" d="M51 0v180h172v1102h-172v180h553v-180h-172v-1102h539v1102h-172v180h553v-180h-172v-1102h538v1102h-172v180h553v-180h-172v-1102h172v-471h-172v291h-1876z" />
<glyph unicode="&#x42a;" horiz-adv-x="1482" d="M51 1028v434h797v-180h-176v-412h219q254 0 387 -116.5t133 -311.5q0 -201 -131 -321.5t-375 -120.5h-614v180h172v1102h-236v-254h-176zM672 180h202q150 0 231 66.5t81 183.5q0 121 -77 192.5t-230 71.5h-207v-514z" />
<glyph unicode="&#x42b;" horiz-adv-x="1884" d="M51 0v180h172v1102h-172v180h553v-180h-172v-412h219q254 0 387 -116.5t133 -311.5q0 -201 -130.5 -321.5t-374.5 -120.5h-615zM432 180h203q150 0 230.5 66.5t80.5 183.5q0 121 -77 192.5t-230 71.5h-207v-514zM1280 0v180h172v1102h-172v180h553v-180h-172v-1102h172 v-180h-553z" />
<glyph unicode="&#x42c;" horiz-adv-x="1243" d="M51 0v180h172v1102h-172v180h553v-180h-172v-412h219q254 0 387 -116.5t133 -311.5q0 -201 -130.5 -321.5t-374.5 -120.5h-615zM432 180h203q150 0 230.5 66.5t80.5 183.5q0 121 -77 192.5t-230 71.5h-207v-514z" />
<glyph unicode="&#x42d;" horiz-adv-x="1576" d="M72 481l180 109q63 -196 204.5 -310t317.5 -114q102 0 192.5 37t158 104.5t109 167t46.5 219.5h-586v176h574q-38 195 -176.5 308.5t-333.5 113.5q-317 0 -445 -299h-194v469h180v-186q86 112 199 162.5t274 50.5q156 0 291.5 -56t233 -154.5t153 -241t55.5 -308.5 q0 -219 -93 -392.5t-260.5 -270.5t-379.5 -97q-255 0 -441.5 136.5t-258.5 375.5z" />
<glyph unicode="&#x42e;" horiz-adv-x="2273" d="M51 0v180h172v1102h-172v180h553v-180h-172v-412h316q29 183 129.5 324t254.5 218t338 77q214 0 381 -97t259 -270t92 -393t-92.5 -393t-260 -270t-379.5 -97q-316 0 -516 198.5t-219 526.5h-303v-514h172v-180h-553zM963 731q0 -255 143.5 -410t361.5 -155t363 155.5 t145 409.5q0 251 -143.5 406t-364.5 155q-216 0 -360.5 -154.5t-144.5 -406.5z" />
<glyph unicode="&#x42f;" horiz-adv-x="1284" d="M20 0v180h164l207 453q-137 45 -207.5 145t-70.5 242q0 201 130.5 321.5t374.5 120.5h615v-180h-172v-1102h172v-180h-553v180h172v416h-256l-281 -596h-295zM338 1036q0 -121 77 -192.5t230 -71.5h207v510h-205q-152 0 -230.5 -64t-78.5 -182z" />
<glyph unicode="&#x430;" horiz-adv-x="1093" d="M61 297q0 152 100.5 245t264.5 93q111 0 295 -74v62q0 137 -53 202.5t-166 65.5q-154 0 -248 -131l-180 45q50 119 164.5 184.5t277.5 65.5q215 0 302 -102.5t87 -325.5v-447h148v-180h-332v94q-152 -125 -322 -125q-152 0 -245 90.5t-93 237.5zM266 305q0 -61 46 -103 t120 -42q120 0 289 125v80q-76 46 -135 68t-123 22q-90 0 -143.5 -41.5t-53.5 -108.5z" />
<glyph unicode="&#x431;" horiz-adv-x="1138" d="M72 582q0 378 136 582.5t441 240.5q130 15 175.5 31t62.5 53h178q-18 -51 -37 -88t-45 -63t-51 -42.5t-65.5 -28t-77 -17.5t-97.5 -13q-196 -23 -295.5 -112t-134.5 -259q39 65 132 121.5t196 56.5q222 0 354.5 -144t132.5 -390t-137.5 -393.5t-364.5 -147.5 q-231 0 -367 167.5t-136 445.5zM276 514q0 -168 79.5 -261t219.5 -93q142 0 219.5 91.5t77.5 260.5q0 170 -76.5 263t-220.5 93q-143 0 -221 -92.5t-78 -261.5z" />
<glyph unicode="&#x432;" horiz-adv-x="950" d="M41 0v180h147v676h-147v172h461q168 0 262 -69.5t94 -204.5q0 -161 -160 -222q40 -8 74 -22.5t69.5 -41.5t56 -73t20.5 -106q0 -139 -96.5 -214t-270.5 -75h-510zM373 180h178q170 0 170 129q0 135 -191 135h-157v-264zM373 596h123q94 0 138 32.5t44 104.5 q0 64 -45 93.5t-137 29.5h-123v-260z" />
<glyph unicode="&#x433;" horiz-adv-x="976" d="M41 0v180h147v676h-147v172h895v-379h-168v207h-395v-676h147v-180h-479z" />
<glyph unicode="&#x434;" horiz-adv-x="1128" d="M41 180h113q64 134 93 246t29 287v143h-143v172h954v-172h-145v-676h145v-413h-167v233h-711v-233h-168v413zM340 180h418v676h-314v-143q0 -183 -23.5 -298.5t-80.5 -234.5z" />
<glyph unicode="&#x435;" horiz-adv-x="1136" d="M61 512q0 247 143 395t371 148q236 0 368 -155.5t132 -440.5h-807q0 -134 90 -216.5t232 -82.5q101 0 187.5 48t140.5 134l161 -86q-78 -140 -203.5 -213.5t-287.5 -73.5q-239 0 -383 147.5t-144 395.5zM285 618h581q-15 127 -90.5 196t-200.5 69t-199 -68.5t-91 -196.5z " />
<glyph unicode="&#x436;" horiz-adv-x="1699" d="M37 0v180h127l352 375l-360 301h-119v172h450v-172h-114l379 -317l-502 -539h-213zM610 0v180h148v676h-148v172h480v-172h-148v-676h148v-180h-480zM948 539l381 317h-117v172h451v-172h-119l-360 -301l352 -375h127v-180h-213z" />
<glyph unicode="&#x437;" horiz-adv-x="944" d="M39 268l172 72q58 -199 256 -199q102 0 161.5 35.5t59.5 110.5q0 78 -63.5 114.5t-163.5 36.5h-94v158h77q100 0 156.5 36t56.5 105q0 137 -182 137q-91 0 -149 -54t-78 -144h-164v352h164v-88q35 48 103.5 81.5t150.5 33.5q86 0 164 -31.5t131 -97t53 -150.5 q0 -96 -55.5 -161t-137.5 -85q45 -11 82.5 -28.5t72 -45.5t54 -71.5t19.5 -97.5q0 -81 -32.5 -143.5t-89.5 -99.5t-129.5 -56t-156.5 -19q-167 0 -275.5 69.5t-162.5 229.5z" />
<glyph unicode="&#x438;" horiz-adv-x="1165" d="M41 0v180h147v676h-147v172h479v-172h-147v-582l399 754h352v-172h-147v-676h147v-180h-479v180h148v565l-398 -745h-354z" />
<glyph unicode="&#x439;" horiz-adv-x="1165" d="M41 0v180h147v676h-147v172h479v-172h-147v-582l399 754h352v-172h-147v-676h147v-180h-479v180h148v565l-398 -745h-354zM330 1425v21h157q0 -170 154 -170q74 0 113 43t39 127h157v-21q0 -130 -81 -213.5t-228 -83.5q-163 0 -237 81t-74 216z" />
<glyph unicode="&#x43a;" horiz-adv-x="1150" d="M41 0v180h147v676h-147v172h479v-172h-147v-676h147v-180h-479zM379 539l379 317h-115v172h451v-172h-119l-361 -301l353 -375h147v-180h-235z" />
<glyph unicode="&#x43b;" horiz-adv-x="1200" d="M37 -12v172q79 -17 100 -17q32 0 54.5 8.5t43 32t33 63.5t20 105t7.5 156v348h-145v172h1005v-172h-147v-676h147v-180h-479v180h147v676h-360v-360q0 -266 -73 -396.5t-226 -130.5q-63 0 -127 19z" />
<glyph unicode="&#x43c;" horiz-adv-x="1482" d="M41 0v180h147v676h-147v172h442l269 -649l264 649h426v-172h-148v-676h148v-180h-479v180h147v697l-358 -877h-35l-359 874v-694h148v-180h-465z" />
<glyph unicode="&#x43d;" horiz-adv-x="1169" d="M41 0v180h147v676h-147v172h479v-172h-147v-238h424v238h-148v172h479v-172h-147v-676h147v-180h-479v180h148v279h-424v-279h147v-180h-479z" />
<glyph unicode="&#x43e;" horiz-adv-x="1150" d="M61 512q0 247 143 395t371 148t371.5 -149t143.5 -394t-143.5 -394t-371.5 -149t-371 148t-143 395zM270 510q0 -163 82.5 -256.5t222.5 -93.5q133 0 219.5 95t86.5 255q0 165 -85 258.5t-225 93.5t-220.5 -93.5t-80.5 -258.5z" />
<glyph unicode="&#x43f;" horiz-adv-x="1167" d="M41 0v180h147v676h-147v172h1085v-172h-147v-676h147v-180h-479v180h148v676h-422v-676h147v-180h-479z" />
<glyph unicode="&#x440;" horiz-adv-x="1253" d="M41 -162h147v1018h-147v172h332v-151q81 74 160.5 112.5t183.5 38.5q207 0 341 -143.5t134 -384.5q0 -240 -135 -385.5t-342 -145.5q-95 0 -177 37.5t-165 116.5v-285h147v-180h-479v180zM373 504q0 -163 82.5 -256.5t222.5 -93.5q132 0 218.5 95t86.5 255 q0 165 -84.5 258.5t-224.5 93.5t-220.5 -93.5t-80.5 -258.5z" />
<glyph unicode="&#x441;" horiz-adv-x="1122" d="M61 512q0 240 141.5 391.5t356.5 151.5q171 0 303 -117v90h166v-383h-166q-27 113 -98 171t-176 58q-147 0 -232.5 -96t-85.5 -264q0 -166 86.5 -260t229.5 -94q103 0 188 54t137 153l162 -80q-59 -147 -189.5 -232.5t-297.5 -85.5q-232 0 -378.5 149t-146.5 394z" />
<glyph unicode="&#x442;" horiz-adv-x="1024" d="M37 596v432h946v-432h-170v260h-211v-676h148v-180h-480v180h148v676h-211v-260h-170z" />
<glyph unicode="&#x443;" horiz-adv-x="1130" d="M37 856v172h432v-172h-119l228 -571l221 571h-119v172h410v-172h-121l-461 -1198h-350v172h245l78 203l-327 823h-117z" />
<glyph unicode="&#x444;" horiz-adv-x="1597" d="M41 502q0 260 119.5 406.5t326.5 146.5q114 0 220 -80v315h-148v172h332v-487q106 80 219 80q209 0 327.5 -135t118.5 -392q0 -245 -117 -401t-298 -156q-170 0 -250 84v-217h147v-180h-479v180h148v217q-80 -84 -250 -84q-183 0 -299.5 145t-116.5 386zM250 528 q0 -172 71 -270t207 -98q110 0 179 69v584q-82 61 -189 61q-129 0 -198.5 -94.5t-69.5 -251.5zM891 229q69 -69 178 -69q135 0 207 98.5t72 269.5q0 156 -70.5 251t-198.5 95q-106 0 -188 -61v-584z" />
<glyph unicode="&#x445;" horiz-adv-x="1085" d="M25 0v176h135l282 334l-307 346h-90v172h430v-172h-117l199 -217l188 217h-131v172h408v-172h-88l-272 -326l321 -354h82v-176h-430v176h115l-205 227l-193 -227h125v-176h-452z" />
<glyph unicode="&#x446;" horiz-adv-x="1167" d="M41 0v180h147v676h-147v172h479v-172h-147v-676h422v676h-148v172h479v-172h-147v-676h147v-413h-168v233h-917z" />
<glyph unicode="&#x447;" horiz-adv-x="1167" d="M41 856v172h479v-172h-147v-74q0 -107 43 -145.5t151 -38.5q137 0 228 18v240h-148v172h479v-172h-147v-676h147v-180h-479v180h148v279q-134 -29 -281 -29q-326 0 -326 305v121h-147z" />
<glyph unicode="&#x448;" horiz-adv-x="1724" d="M41 0v180h147v676h-147v172h479v-172h-147v-676h397v676h-147v172h479v-172h-148v-676h398v676h-148v172h479v-172h-147v-676h147v-180h-1642z" />
<glyph unicode="&#x449;" horiz-adv-x="1724" d="M41 0v180h147v676h-147v172h479v-172h-147v-676h397v676h-147v172h479v-172h-148v-676h398v676h-148v172h479v-172h-147v-676h147v-413h-167v233h-1475z" />
<glyph unicode="&#x44a;" horiz-adv-x="1155" d="M51 639v389h662v-172h-150v-238h162q172 0 270.5 -79t98.5 -222q0 -159 -98 -238t-269 -79h-496v180h148v676h-158v-217h-170zM563 180h148q95 0 140.5 31t45.5 106t-46 108.5t-142 33.5h-146v-279z" />
<glyph unicode="&#x44b;" horiz-adv-x="1511" d="M41 0v180h147v676h-147v172h479v-172h-147v-238h162q172 0 270 -79t98 -222q0 -159 -97.5 -238t-268.5 -79h-496zM373 180h147q95 0 141 31t46 106t-46.5 108.5t-142.5 33.5h-145v-279zM991 0v180h148v676h-148v172h479v-172h-147v-676h147v-180h-479z" />
<glyph unicode="&#x44c;" horiz-adv-x="944" d="M41 0v180h147v676h-147v172h479v-172h-147v-238h162q172 0 270 -79t98 -222q0 -159 -97.5 -238t-268.5 -79h-496zM373 180h147q95 0 141 31t46 106t-46.5 108.5t-142.5 33.5h-145v-279z" />
<glyph unicode="&#x44d;" horiz-adv-x="1128" d="M49 287l162 80q52 -99 137.5 -153t188.5 -54q129 0 211.5 74t103.5 225h-385v159h385q-81 256 -317 256q-105 0 -176.5 -58t-98.5 -171h-166v383h166v-90q132 117 303 117q215 0 356.5 -151.5t141.5 -391.5q0 -245 -146 -394t-378 -149q-167 0 -298 85.5t-190 232.5z" />
<glyph unicode="&#x44e;" horiz-adv-x="1679" d="M41 0v180h147v676h-147v172h479v-172h-147v-238h223q32 207 169 322t337 115q228 0 372 -149t144 -394t-144 -394t-372 -149q-217 0 -357 135t-157 355h-215v-279h147v-180h-479zM791 514q0 -166 84.5 -260t226.5 -94q143 0 226 93t83 261t-82 261t-227 93 q-144 0 -227.5 -93.5t-83.5 -260.5z" />
<glyph unicode="&#x44f;" horiz-adv-x="1054" d="M41 0v180h127l176 262q-84 25 -135 100.5t-51 174.5q0 152 100 231.5t260 79.5h496v-172h-148v-676h148v-180h-479v180h147v234h-137l-275 -414h-229zM346 721q0 -73 47.5 -104t145.5 -31h143v270h-147q-95 0 -142 -31.5t-47 -103.5z" />
<glyph unicode="&#x451;" horiz-adv-x="1136" d="M61 512q0 247 143 395t371 148q236 0 368 -155.5t132 -440.5h-807q0 -134 90 -216.5t232 -82.5q101 0 187.5 48t140.5 134l161 -86q-78 -140 -203.5 -213.5t-287.5 -73.5q-239 0 -383 147.5t-144 395.5zM268 1337q0 46 35 80.5t82 34.5t82 -34t35 -81q0 -51 -33.5 -84.5 t-83.5 -33.5t-83.5 33.5t-33.5 84.5zM285 618h581q-15 127 -90.5 196t-200.5 69t-199 -68.5t-91 -196.5zM664 1337q0 46 34.5 80.5t81.5 34.5t82 -34t35 -81q0 -51 -33.5 -84.5t-83.5 -33.5t-83 33.5t-33 84.5z" />
<glyph unicode="&#x452;" horiz-adv-x="1110" d="M41 0v180h147v942h-147v131h147v90h-147v173h332v-263h487v-131h-487v-245q96 78 178 114.5t168 36.5q64 0 109 -17t72 -45t42 -77t20 -100.5t5 -126.5v-734q0 -50 -15.5 -99t-48 -94.5t-92 -73.5t-137.5 -28q-44 0 -119 11v168q44 -7 63 -7q97 0 130.5 42.5t33.5 152.5 v586q0 63 -2 99t-9 73.5t-21 56t-39 30t-62 11.5q-136 0 -276 -149v-527h147v-180h-479z" />
<glyph unicode="&#x453;" horiz-adv-x="976" d="M41 0v180h147v676h-147v172h895v-379h-168v207h-395v-676h147v-180h-479zM395 1167l170 287h166l-235 -287h-101z" />
<glyph unicode="&#x454;" horiz-adv-x="1128" d="M68 512q0 240 141 391.5t356 151.5q171 0 303 -117v90h166v-383h-166q-27 113 -98 171t-176 58q-125 0 -204 -68.5t-103 -187.5h342v-159h-348q12 -144 97 -221.5t214 -77.5q103 0 188.5 54t137.5 153l161 -80q-59 -147 -189.5 -232.5t-297.5 -85.5q-232 0 -378 149 t-146 394z" />
<glyph unicode="&#x455;" horiz-adv-x="968" d="M72 745q0 131 101.5 220.5t256.5 89.5q161 0 275 -105v78h157v-334h-157q-8 91 -80 147t-185 56q-81 0 -128.5 -35.5t-47.5 -95.5q0 -55 40 -85t126 -48l176 -37q147 -31 219 -103.5t72 -189.5q0 -149 -102.5 -241.5t-274.5 -92.5q-168 0 -278 101v-70h-166v348h166 q10 -101 81 -158t185 -57q92 0 146.5 40t54.5 101q0 57 -44.5 89t-142.5 53l-160 35q-149 32 -219.5 103.5t-70.5 190.5z" />
<glyph unicode="&#x456;" horiz-adv-x="561" d="M41 0v180h147v676h-147v172h332v-848h147v-180h-479zM147 1337q0 46 35 80.5t82 34.5t82 -34t35 -81q0 -51 -33.5 -84.5t-83.5 -33.5t-83.5 33.5t-33.5 84.5z" />
<glyph unicode="&#x457;" horiz-adv-x="561" d="M-61 1337q0 46 34.5 80.5t81.5 34.5t82 -34t35 -81q0 -51 -33.5 -84.5t-83.5 -33.5t-83 33.5t-33 84.5zM41 0v180h147v676h-147v172h332v-848h147v-180h-479zM334 1337q0 46 35 80.5t82 34.5t81.5 -34t34.5 -81q0 -51 -33 -84.5t-83 -33.5t-83.5 33.5t-33.5 84.5z" />
<glyph unicode="&#x458;" horiz-adv-x="516" d="M-39 -188q44 -7 64 -7q96 0 129.5 39.5t33.5 135.5v878h-147v172h332v-1102q0 -50 -15.5 -99t-48 -94.5t-92 -73.5t-137.5 -28q-44 0 -119 11v168zM147 1337q0 46 35 80.5t82 34.5t82 -34t35 -81q0 -51 -33.5 -84.5t-83.5 -33.5t-83.5 33.5t-33.5 84.5z" />
<glyph unicode="&#x459;" horiz-adv-x="1599" d="M37 -12v172q79 -17 100 -17q32 0 54.5 8.5t43 32t33 63.5t20 105t7.5 156v348h-145v172h1005v-172h-147v-238h161q172 0 270.5 -79t98.5 -222q0 -159 -98 -238t-269 -79h-495v180h147v676h-360v-360q0 -266 -73 -396.5t-226 -130.5q-63 0 -127 19zM1008 180h147 q95 0 140.5 31t45.5 106t-46 108.5t-142 33.5h-145v-279z" />
<glyph unicode="&#x45a;" horiz-adv-x="1572" d="M41 0v180h147v676h-147v172h479v-172h-147v-238h424v238h-148v172h479v-172h-147v-238h162q172 0 270 -79t98 -222q0 -159 -97.5 -238t-268.5 -79h-496v180h148v279h-424v-279h147v-180h-479zM981 180h147q95 0 141 31t46 106t-46.5 108.5t-142.5 33.5h-145v-279z" />
<glyph unicode="&#x45b;" horiz-adv-x="1155" d="M41 0v180h147v942h-147v131h147v90h-147v173h332v-263h487v-131h-487v-245q96 78 178 114.5t168 36.5q64 0 109 -17t72 -45t42 -77t20 -100.5t5 -126.5v-482h147v-180h-332v586q0 63 -2 99t-9 73.5t-21 56t-39 30t-62 11.5q-136 0 -276 -149v-527h147v-180h-479z" />
<glyph unicode="&#x45c;" horiz-adv-x="1150" d="M41 0v180h147v676h-147v172h479v-172h-147v-676h147v-180h-479zM379 539l379 317h-115v172h451v-172h-119l-361 -301l353 -375h147v-180h-235zM522 1167l170 287h166l-235 -287h-101z" />
<glyph unicode="&#x45e;" horiz-adv-x="1130" d="M37 856v172h432v-172h-119l228 -571l221 571h-119v172h410v-172h-121l-461 -1198h-350v172h245l78 203l-327 823h-117zM274 1421v21h158q0 -170 154 -170q151 0 151 170h158v-21q0 -130 -81 -213.5t-228 -83.5q-163 0 -237.5 81t-74.5 216z" />
<glyph unicode="&#x45f;" horiz-adv-x="1167" d="M41 0v180h147v676h-147v172h479v-172h-147v-676h422v676h-148v172h479v-172h-147v-676h147v-180h-458v-233h-168v233h-459z" />
<glyph unicode="&#x490;" horiz-adv-x="1212" d="M51 0v180h172v1102h-172v180h934v256h176v-436h-729v-1102h172v-180h-553z" />
<glyph unicode="&#x491;" horiz-adv-x="976" d="M41 0v180h147v676h-147v172h727v207h168v-379h-563v-676h147v-180h-479z" />
<glyph unicode="&#x2000;" horiz-adv-x="947" />
<glyph unicode="&#x2001;" horiz-adv-x="1894" />
<glyph unicode="&#x2002;" horiz-adv-x="947" />
<glyph unicode="&#x2003;" horiz-adv-x="1894" />
<glyph unicode="&#x2004;" horiz-adv-x="631" />
<glyph unicode="&#x2005;" horiz-adv-x="473" />
<glyph unicode="&#x2006;" horiz-adv-x="315" />
<glyph unicode="&#x2007;" horiz-adv-x="315" />
<glyph unicode="&#x2008;" horiz-adv-x="236" />
<glyph unicode="&#x2009;" horiz-adv-x="378" />
<glyph unicode="&#x200a;" horiz-adv-x="105" />
<glyph unicode="&#x2010;" d="M260 557v143h1235v-143h-1235z" />
<glyph unicode="&#x2011;" d="M260 557v143h1235v-143h-1235z" />
<glyph unicode="&#x2012;" d="M260 557v143h1235v-143h-1235z" />
<glyph unicode="&#x2013;" horiz-adv-x="1052" d="M-2 557v143h1057v-143h-1057z" />
<glyph unicode="&#x2014;" horiz-adv-x="2109" d="M0 557v143h2109v-143h-2109z" />
<glyph unicode="&#x2018;" horiz-adv-x="524" d="M129 940v256q0 278 246 293v-115q-67 -15 -92 -46t-25 -99v-33h117v-256h-246z" />
<glyph unicode="&#x2019;" horiz-adv-x="524" d="M152 913v115q67 15 91.5 46.5t24.5 99.5v32h-116v256h245v-256q0 -278 -245 -293z" />
<glyph unicode="&#x201a;" horiz-adv-x="524" d="M131 0v256h246v-256q0 -278 -246 -293v115q67 15 92 46t25 99v33h-117z" />
<glyph unicode="&#x201c;" horiz-adv-x="921" d="M143 940v256q0 278 246 293v-115q-67 -15 -92 -46t-25 -99v-33h117v-256h-246zM528 940v256q0 278 246 293v-115q-67 -15 -92 -46t-25 -99v-33h117v-256h-246z" />
<glyph unicode="&#x201d;" horiz-adv-x="921" d="M162 913v115q67 15 92 46.5t25 99.5v32h-117v256h246v-256q0 -278 -246 -293zM547 913v115q67 15 92 46.5t25 99.5v32h-117v256h246v-256q0 -278 -246 -293z" />
<glyph unicode="&#x201e;" horiz-adv-x="921" d="M139 0v256h246v-256q0 -278 -246 -293v115q67 15 92 46t25 99v33h-117zM524 0v256h246v-256q0 -278 -246 -293v115q67 15 92 46t25 99v33h-117z" />
<glyph unicode="&#x2022;" horiz-adv-x="1245" d="M317 784q0 126 90 214.5t216 88.5q125 0 214 -88.5t89 -214.5q0 -125 -89.5 -215t-215.5 -90t-215 89.5t-89 215.5z" />
<glyph unicode="&#x2026;" horiz-adv-x="2109" d="M197 0v256h245v-256h-245zM899 0v256h246v-256h-246zM1602 0v256h245v-256h-245z" />
<glyph unicode="&#x202f;" horiz-adv-x="378" />
<glyph unicode="&#x2039;" horiz-adv-x="585" d="M68 520l270 322h184l-266 -322l266 -323h-184z" />
<glyph unicode="&#x203a;" horiz-adv-x="585" d="M63 197l267 323l-267 322h185l268 -322l-268 -323h-185z" />
<glyph unicode="&#x205f;" horiz-adv-x="473" />
<glyph unicode="&#x20ac;" horiz-adv-x="1042" d="M45 506l47 156h84q-4 36 -4 73q0 32 4 72h-131l47 154h96q32 250 150 389t330 139q96 0 174 -24t119 -56v-197q-95 95 -269 95q-138 0 -216 -91t-97 -255h510l-49 -154h-478q-2 -20 -2 -72q0 -55 2 -73h431l-48 -156h-366q20 -175 100 -264.5t215 -89.5q171 0 267 96 v-201q-36 -31 -112 -53.5t-181 -22.5q-413 0 -478 535h-145z" />
<glyph unicode="&#x2122;" d="M248 1419v82h467v-82h-176v-473h-113v473h-178zM838 946v555h153l156 -397l145 397h156v-555h-102v459l-170 -459h-58l-180 459v-459h-100z" />
<glyph unicode="&#x25fc;" horiz-adv-x="1024" d="M0 0v1024h1024v-1024h-1024z" />
</font>
</defs>
</svg>
