<?xml version="1.0" standalone="no"?>
<!DOCTYPE svg PUBLIC "-//W3C//DTD SVG 1.1//EN" "http://www.w3.org/Graphics/SVG/1.1/DTD/svg11.dtd" >
<svg xmlns="http://www.w3.org/2000/svg">
<metadata>
This is a custom SVG webfont generated by Font Squirrel.
Copyright   : Copyright c 1990 Neufville SL Copyright c 19902000 ParaType Inc All Rights Reserved Futura is a registered trade mark of Neufville SL
</metadata>
<defs>
<font id="FuturaFuturisCBold" horiz-adv-x="1220" >
<font-face units-per-em="2048" ascent="1638" descent="-410" />
<missing-glyph horiz-adv-x="477" />
<glyph unicode=" "  horiz-adv-x="477" />
<glyph unicode="&#x09;" horiz-adv-x="477" />
<glyph unicode="&#xa0;" horiz-adv-x="477" />
<glyph unicode="!" horiz-adv-x="675" d="M129 172q0 43 16.5 81t45 66.5t66.5 45t81 16.5t81 -16.5t66.5 -45t45 -66.5t16.5 -81t-16.5 -81t-45 -66.5t-66.5 -45t-81 -16.5t-81 16.5t-66.5 45t-45 66.5t-16.5 81zM145 473v961h385v-961h-385z" />
<glyph unicode="&#x22;" horiz-adv-x="835" d="M102 1434h258l-41 -574h-176zM475 1434h258l-41 -574h-176z" />
<glyph unicode="#" horiz-adv-x="1392" d="M61 406l33 204h232l36 242h-231l33 205h231l62 377h245l-61 -377h229l60 377h250l-60 -377h232l-33 -205h-232l-36 -242h231l-33 -204h-231l-66 -406h-250l66 406h-229l-64 -406h-246l64 406h-232zM571 610h230l37 242h-230z" />
<glyph unicode="$" horiz-adv-x="1142" d="M14 188l189 306q35 -37 75.5 -74t87 -65.5t95.5 -47t100 -18.5q43 0 70.5 14t43 35.5t21.5 44.5t6 41q0 49 -22.5 80t-60 52.5t-88 37.5t-103.5 35q-59 20 -119.5 51t-109.5 80t-80 121.5t-31 179.5q0 88 22.5 151.5t59.5 107.5t81 71.5t86 44t79 22.5t55 8v226h186v-226 q106 -10 193.5 -38.5t173.5 -94.5l-143 -301q-61 59 -125 93t-135 34q-55 0 -102.5 -26.5t-47.5 -96.5q0 -57 41 -81.5t127 -51.5q35 -10 67.5 -21.5t65.5 -25.5q51 -20 106.5 -52t101.5 -82t75.5 -126t29.5 -186q0 -121 -44 -203t-108.5 -133t-139 -77t-136.5 -32v-203 h-186v203q-53 6 -105.5 21.5t-107.5 41t-114.5 65.5t-129.5 95z" />
<glyph unicode="%" horiz-adv-x="1806" d="M43 1081q0 80 30.5 152t85 126t126 85t151.5 31t151.5 -31t126 -85t85 -126t30.5 -152t-30.5 -151.5t-85 -125.5t-126 -85t-151.5 -31t-151.5 31t-126 85t-85 125.5t-30.5 151.5zM276 1081q0 -68 46.5 -113.5t113.5 -45.5q68 0 114 46t46 113q0 68 -46 114t-114 46 t-114 -46t-46 -114zM344 -41l932 1516h186l-932 -1516h-186zM977 352q0 80 30.5 151.5t85 126t126 85t151.5 30.5t151.5 -30.5t126 -85t85 -126t30.5 -151.5t-30.5 -151.5t-85 -126t-126 -85t-151.5 -30.5t-151.5 30.5t-126 85t-85 126t-30.5 151.5zM1210 352 q0 -68 46.5 -113.5t113.5 -45.5q68 0 114 46t46 113q0 68 -46 114t-114 46t-114 -46t-46 -114z" />
<glyph unicode="&#x26;" horiz-adv-x="1519" d="M72 365q0 43 11 96t46 108.5t102.5 108.5t178.5 96q-66 72 -96.5 132.5t-30.5 150.5q0 78 26.5 152.5t77.5 133t128 93t177 34.5q96 0 173 -29.5t129.5 -81.5t80 -126t27.5 -160q0 -63 -16.5 -113.5t-49 -93.5t-81 -80.5t-109.5 -74.5l168 -185l203 203l202 -213 l-200 -188l301 -328h-416l-129 137q-96 -90 -192.5 -132t-231.5 -42q-123 0 -214 33t-149.5 88t-87 128t-28.5 153zM430 381q0 -16 5 -41t20.5 -47.5t46 -39.5t84.5 -17q51 0 98 21.5t104 78.5l-217 244q-63 -35 -102 -81t-39 -118zM584 1067q0 -51 31.5 -102.5t72.5 -90.5 q23 16 47.5 39t44 48.5t32.5 56.5t13 63q0 68 -37.5 99.5t-82.5 31.5q-18 0 -39 -7t-39.5 -23.5t-30.5 -44t-12 -70.5z" />
<glyph unicode="'" horiz-adv-x="462" d="M102 1434h258l-41 -574h-176z" />
<glyph unicode="(" horiz-adv-x="737" d="M139 545q0 102 11.5 214.5t44 237.5t90 262.5t149.5 288.5l201 -121q-74 -131 -121 -250.5t-74.5 -230t-38 -211t-10.5 -190.5t10.5 -190.5t38 -211t74.5 -230.5t121 -251l-201 -121q-92 150 -149.5 288t-90 263t-44 238t-11.5 215z" />
<glyph unicode=")" horiz-adv-x="737" d="M102 -338q113 203 178.5 422t65.5 461t-65.5 461t-178.5 421l201 121q92 -152 149.5 -289t90 -262t44 -237.5t11.5 -214.5t-11.5 -215t-44 -238t-90 -263t-149.5 -288z" />
<glyph unicode="*" horiz-adv-x="983" d="M57 926l234 135l-234 135l101 174l233 -135v270h201v-270l233 135l101 -174l-234 -135l234 -135l-101 -174l-233 135v-271h-201v271l-233 -135z" />
<glyph unicode="+" horiz-adv-x="1310" d="M102 614v205h451v451h205v-451h450v-205h-450v-450h-205v450h-451z" />
<glyph unicode="," horiz-adv-x="659" d="M29 -287l215 631h358l-301 -631h-272z" />
<glyph unicode="-" horiz-adv-x="860" d="M82 401v316h696v-316h-696z" />
<glyph unicode="." horiz-adv-x="675" d="M129 172q0 43 16.5 81t45 66.5t66.5 45t81 16.5t81 -16.5t66.5 -45t45 -66.5t16.5 -81t-16.5 -81t-45 -66.5t-66.5 -45t-81 -16.5t-81 16.5t-66.5 45t-45 66.5t-16.5 81z" />
<glyph unicode="/" horiz-adv-x="1048" d="M43 -430l748 1935h215l-748 -1935h-215z" />
<glyph unicode="0" d="M66 717q0 180 30.5 307t78.5 211t109.5 132t122 71.5t114.5 30t89 6.5t89.5 -6.5t114.5 -30t121.5 -71.5t110 -132t79 -211t30.5 -307q0 -182 -30.5 -308t-79 -210t-110 -132.5t-121.5 -72t-114.5 -29.5t-89.5 -6t-89 6t-114.5 29.5t-122 72t-109.5 132.5t-78.5 211 t-30.5 307zM430 717q0 -70 3 -150t20.5 -148.5t54.5 -113.5t102 -45q66 0 103 45t54 113.5t20.5 148.5t3.5 150t-3.5 149.5t-20.5 148t-54 114t-103 45.5t-102.5 -45.5t-54 -114t-20.5 -148t-3 -149.5z" />
<glyph unicode="1" d="M287 1104v330h590v-1434h-371v1104h-219z" />
<glyph unicode="2" d="M14 0l594 692q49 55 81 97t51.5 75t27.5 62.5t8 60.5q0 35 -11 69t-33.5 59.5t-54.5 42t-75 16.5q-61 0 -97 -30t-54.5 -71t-22.5 -82t-4 -61h-358q2 78 26.5 172t86 177t166 139.5t267.5 56.5q135 0 233.5 -41t163 -107.5t95.5 -153t31 -176.5q0 -80 -22.5 -149.5 t-75 -146t-136.5 -169t-205 -217.5h422v-315h-1104z" />
<glyph unicode="3" d="M57 461h359q0 -27 6 -61.5t25.5 -65.5t54.5 -52.5t94 -21.5q61 0 97 21.5t54.5 52.5t23.5 65.5t5 59.5q0 57 -21.5 89t-52 47t-65.5 18t-62 3h-45v246h45q12 0 39 4t54.5 19.5t49 47.5t21.5 89q0 47 -14 76.5t-35.5 46t-46.5 23t-45 6.5q-33 0 -61.5 -11.5t-49 -32 t-33 -48t-10.5 -60.5h-358q14 109 50 184.5t84 126.5t102.5 79t107.5 42t98 17.5t74 3.5q90 0 177 -21.5t157 -70t112 -122t42 -178.5q0 -111 -55.5 -189.5t-155.5 -102.5v-7q45 -12 90 -38.5t81.5 -70.5t60.5 -108.5t24 -150.5q0 -102 -38 -186.5t-110 -144.5t-173 -93 t-226 -33q-119 0 -204 29.5t-143.5 76t-94 103.5t-55 112.5t-26 103.5t-8.5 77z" />
<glyph unicode="4" d="M29 344v295l516 795h473v-789h160v-301h-160v-344h-344v344h-645zM356 645h318v502z" />
<glyph unicode="5" d="M72 86l30 344h43q49 -53 94.5 -87t87.5 -52.5t83 -24.5t84 -6q127 0 204.5 62.5t77.5 191.5q0 66 -28.5 109t-73.5 67.5t-102.5 34.5t-112.5 10q-59 0 -117.5 -14t-128.5 -47h-68l158 760h774v-316h-530l-33 -186q37 8 77 12t87 4q109 0 193.5 -32.5t143 -92t89.5 -140.5 t31 -177q0 -131 -50.5 -233.5t-135.5 -172t-197.5 -105.5t-235.5 -36q-131 0 -238.5 33t-205.5 94z" />
<glyph unicode="6" d="M57 479q0 135 38 247t120 230l328 478h424l-351 -502q25 8 52.5 13t66.5 5q96 0 175 -34.5t135.5 -97t87 -149.5t30.5 -190q0 -104 -34.5 -198.5t-105.5 -166t-175.5 -113.5t-241.5 -42q-123 0 -224 37t-174 104.5t-112 163.5t-39 215zM401 475q0 -92 52.5 -153.5 t148.5 -61.5q92 0 147.5 61.5t55.5 153.5q0 43 -13.5 81t-39 67.5t-63.5 47t-87 17.5q-96 0 -148.5 -62.5t-52.5 -150.5z" />
<glyph unicode="7" d="M86 1104v330h1135l-660 -1434h-430l541 1104h-586z" />
<glyph unicode="8" d="M57 393q0 94 30 159.5t72 107.5t89 65t82 33v4q-41 14 -79 41.5t-66.5 66.5t-45 91.5t-16.5 117.5q0 80 29.5 152t90 126t152.5 86t215 32t215.5 -32t152.5 -86t90 -126t30 -152q0 -66 -16.5 -118t-45 -91t-66.5 -66.5t-79 -41.5v-4q35 -10 82 -33t89 -65t71.5 -107.5 t29.5 -159.5q0 -51 -17.5 -125.5t-74.5 -143.5t-166.5 -117t-294.5 -48q-184 0 -293.5 48t-167 117t-75 143.5t-17.5 125.5zM432 444q0 -35 11.5 -68.5t35 -59t56 -41t75.5 -15.5q45 0 79 15.5t56.5 41t34 59.5t11.5 68q0 51 -19.5 86t-47.5 56.5t-58.5 30t-55.5 8.5 q-72 0 -125 -48.5t-53 -132.5zM463 1036q0 -43 14.5 -72.5t36 -47t47 -25.5t49.5 -8q27 0 53.5 8t48 26.5t35 48t13.5 70.5q0 47 -16.5 78t-39 48.5t-48 23.5t-46.5 6q-18 0 -43.5 -6t-49 -23.5t-39 -47.5t-15.5 -79z" />
<glyph unicode="9" d="M57 954q0 104 35 198.5t105.5 166.5t174 114t242.5 42q123 0 224.5 -37t174 -104.5t111.5 -164t39 -215.5q0 -135 -38 -246.5t-119 -230.5l-328 -477h-424l350 502q-25 -8 -52.5 -13.5t-66.5 -5.5q-96 0 -175 35t-135 97.5t-87 149.5t-31 189zM416 958q0 -43 13 -80.5 t39 -67.5t63.5 -47.5t86.5 -17.5q96 0 148.5 62.5t52.5 150.5q0 92 -52 154t-149 62q-92 0 -147 -62t-55 -154z" />
<glyph unicode=":" horiz-adv-x="675" d="M129 172q0 43 16.5 81t45 66.5t66.5 45t81 16.5t81 -16.5t66.5 -45t45 -66.5t16.5 -81t-16.5 -81t-45 -66.5t-66.5 -45t-81 -16.5t-81 16.5t-66.5 45t-45 66.5t-16.5 81zM129 817q0 43 16.5 81t45 66.5t66.5 45t81 16.5t81 -16.5t66.5 -45t45 -66.5t16.5 -81t-16.5 -81 t-45 -66.5t-66.5 -45t-81 -16.5t-81 16.5t-66.5 45t-45 66.5t-16.5 81z" />
<glyph unicode=";" horiz-adv-x="659" d="M29 -287l215 631h358l-301 -631h-272zM184 817q0 43 16.5 81t45 66.5t66.5 45t81 16.5t81 -16.5t66.5 -45t45 -66.5t16.5 -81t-16.5 -81t-45 -66.5t-66.5 -45t-81 -16.5t-81 16.5t-66.5 45t-45 66.5t-16.5 81z" />
<glyph unicode="&#x37e;" horiz-adv-x="659" d="M29 -287l215 631h358l-301 -631h-272zM184 817q0 43 16.5 81t45 66.5t66.5 45t81 16.5t81 -16.5t66.5 -45t45 -66.5t16.5 -81t-16.5 -81t-45 -66.5t-66.5 -45t-81 -16.5t-81 16.5t-66.5 45t-45 66.5t-16.5 81z" />
<glyph unicode="&#x3c;" horiz-adv-x="1310" d="M168 627v176l975 454v-225l-705 -317l705 -318v-225z" />
<glyph unicode="=" horiz-adv-x="1310" d="M102 430v205h1106v-205h-1106zM102 799v205h1106v-205h-1106z" />
<glyph unicode="&#x3e;" horiz-adv-x="1310" d="M168 172v225l704 318l-704 317v225l975 -454v-176z" />
<glyph unicode="?" horiz-adv-x="1075" d="M57 1016q-2 86 27 168t88 146.5t150.5 104.5t216.5 40q127 0 218 -38t149.5 -98.5t85 -137.5t26.5 -154q0 -80 -21.5 -151t-62.5 -124t-99.5 -84t-132.5 -33v-182h-344v371h99q80 0 123 23.5t64.5 54t25.5 61.5t4 45q0 70 -35 108t-100 38q-43 0 -70 -17.5t-42 -41 t-20.5 -47.5t-5.5 -36v-16h-344zM322 172q0 43 16 81t45 66.5t66.5 45t80.5 16.5t81 -16.5t67 -45t45 -66.5t16 -81t-16 -81t-45 -66.5t-67 -45t-81 -16.5t-80.5 16.5t-66.5 45t-45 66.5t-16 81z" />
<glyph unicode="@" horiz-adv-x="1798" d="M131 717q0 168 59.5 308t162 239.5t240.5 155t296 55.5q152 0 269.5 -35t203.5 -92.5t144.5 -132t94 -153.5t51 -159t15.5 -145q0 -115 -40 -199t-103.5 -139t-141 -82t-153.5 -27q-47 0 -82 14.5t-59.5 34t-41 41t-24.5 37.5q-51 -59 -114.5 -93t-127.5 -34 q-53 0 -110.5 16.5t-104.5 53.5t-76.5 97.5t-29.5 148.5q0 94 36.5 181t99 152.5t144.5 104.5t174 39q80 0 116 -33t54 -72l19 86h205l-115 -530q-25 -109 78 -109q41 0 89 13.5t89 48.5t68.5 95.5t27.5 154.5q0 145 -52 257.5t-141 189.5t-208 116t-254 39 q-147 0 -265 -52.5t-200 -140.5t-125 -204.5t-43 -245.5q0 -172 59.5 -296t152.5 -205t210 -120t231 -39q115 0 194 32t126 63l59 -91q-96 -57 -183 -79.5t-196 -22.5q-164 0 -306 49t-246.5 145.5t-165 238t-60.5 325.5zM715 651q0 -23 4 -46t16.5 -44.5t32.5 -35t55 -13.5 q57 0 98.5 29.5t66 69.5t35.5 82t11 67q0 14 -3 39.5t-15 50t-38 43t-69 18.5q-51 0 -88 -25.5t-60.5 -63.5t-34.5 -84t-11 -87z" />
<glyph unicode="A" horiz-adv-x="1478" d="M-14 0l510 1434h487l510 -1434h-430l-80 248h-487l-80 -248h-430zM575 563h328l-164 529z" />
<glyph unicode="B" horiz-adv-x="1388" d="M129 0v1434h694q145 0 230.5 -41t129.5 -99.5t56 -121t12 -103.5q0 -57 -18.5 -105.5t-49 -86t-71.5 -65.5t-84 -42v-4q35 -8 87 -29.5t100.5 -63.5t82 -108.5t33.5 -165.5q0 -76 -26.5 -147.5t-84 -127.5t-145.5 -90t-213 -34h-733zM530 287h185q23 0 59.5 3t71.5 17.5 t59.5 45t24.5 85.5q0 53 -24.5 83t-58.5 43.5t-71 15.5t-61 2h-185v-295zM530 868h168q59 0 95 13.5t56.5 34t27 44t6.5 44.5q0 57 -41 100t-144 43h-168v-279z" />
<glyph unicode="C" horiz-adv-x="1257" d="M66 717q0 180 58 320.5t158.5 237.5t232.5 148.5t278 51.5q96 0 198.5 -27t194.5 -88v-416q-29 33 -64 63.5t-76.5 55t-92 39t-107.5 14.5q-84 0 -151.5 -30.5t-115 -86t-74 -131t-26.5 -163.5q0 -82 24.5 -153t73 -123t116 -82t153.5 -30q113 0 198.5 49.5t141.5 106.5 v-407q-98 -66 -196.5 -86.5t-190.5 -20.5q-160 0 -294 54.5t-232.5 152.5t-152.5 238.5t-54 312.5z" />
<glyph unicode="D" horiz-adv-x="1456" d="M129 0v1434h524q221 0 363.5 -67t225.5 -171t116 -231t33 -248q0 -145 -43 -275.5t-133.5 -228.5t-229.5 -155.5t-332 -57.5h-524zM530 344h45q98 0 167 22.5t114 57.5t69.5 79t36 85t13.5 75.5t2 53.5q0 31 -7 92t-45 123.5t-119 110t-231 47.5h-45v-746z" />
<glyph unicode="E" horiz-adv-x="1075" d="M129 0v1434h860v-344h-459v-201h416v-316h-416v-229h459v-344h-860z" />
<glyph unicode="F" horiz-adv-x="1046" d="M129 0v1434h860v-344h-459v-216h416v-329h-416v-545h-401z" />
<glyph unicode="G" horiz-adv-x="1636" d="M66 707q0 176 54 318t153.5 241.5t239.5 154t312 54.5q168 0 286 -41t195.5 -97.5t122 -116t62.5 -94.5l-354 -165q-41 78 -119 123.5t-182 45.5q-72 0 -137.5 -25.5t-118 -76.5t-83 -129t-30.5 -184q0 -109 30.5 -191t84 -137t122 -84t146.5 -29q123 0 209 66t110 176 h-372v315h770q3 -46 3 -95q0 -41 -2 -86q-5 -97 -30 -194.5t-75 -187.5t-132 -158.5t-198.5 -109.5t-278.5 -41q-164 0 -307.5 49t-251 143.5t-168.5 234t-61 321.5z" />
<glyph unicode="H" horiz-adv-x="1548" d="M129 0v1434h401v-516h488v516h401v-1434h-401v573h-488v-573h-401z" />
<glyph unicode="I" horiz-adv-x="659" d="M129 0v1434h401v-1434h-401z" />
<glyph unicode="J" horiz-adv-x="1003" d="M0 209l258 207q6 -18 15.5 -38t25.5 -36t37.5 -27.5t52.5 -11.5q61 0 79.5 41t18.5 111v979h402v-938q0 -33 -3 -86.5t-16.5 -112.5t-41 -119.5t-77 -109t-125 -79t-184.5 -30.5q-139 0 -255.5 67.5t-186.5 182.5z" />
<glyph unicode="K" horiz-adv-x="1433" d="M129 0v1434h401v-603l433 603h471l-545 -695l559 -739h-502l-416 616v-616h-401z" />
<glyph unicode="L" horiz-adv-x="989" d="M129 0v1434h401v-1090h431v-344h-832z" />
<glyph unicode="M" horiz-adv-x="1781" d="M29 0l209 1434h401l252 -875l252 875h401l209 -1434h-385l-106 831l-242 -831h-258l-242 831l-106 -831h-385z" />
<glyph unicode="N" horiz-adv-x="1591" d="M129 0v1434h422l524 -846v846h387v-1434h-415l-531 860v-860h-387z" />
<glyph unicode="O" horiz-adv-x="1671" d="M66 717q0 143 46 279.5t141 243t240.5 171t342.5 64.5t341 -64.5t239 -171t142.5 -243t47.5 -279.5t-47.5 -279.5t-142.5 -243t-239.5 -171t-340.5 -64.5q-197 0 -342.5 64.5t-240.5 171t-141 243t-46 279.5zM479 717q0 -104 30 -181t79 -129.5t113.5 -78t134.5 -25.5 t134 25.5t113.5 78t79 129t29.5 181.5q0 104 -29.5 181t-79 129t-114 77.5t-133.5 25.5q-70 0 -134.5 -25.5t-113.5 -77.5t-79 -129t-30 -181z" />
<glyph unicode="P" horiz-adv-x="1312" d="M129 0v1434h604q154 0 254 -47.5t159.5 -119t84 -155.5t24.5 -158t-24.5 -158.5t-85 -156.5t-160.5 -119t-252 -47h-203v-473h-401zM530 788h115q68 0 107 17.5t58 43t25.5 54.5t6.5 51q0 27 -6.5 55.5t-28 53t-60 40t-102.5 15.5h-115v-330z" />
<glyph unicode="Q" horiz-adv-x="1675" d="M66 717q0 178 58 318.5t160.5 238.5t244 149.5t307.5 51.5q197 0 341 -64.5t239 -170t142.5 -243t47.5 -280.5q0 -23 -3.5 -77t-19.5 -125t-50 -148.5t-95 -145.5l194 -221l-258 -123l-143 176q-76 -41 -169 -67.5t-226 -26.5q-166 0 -307.5 52t-244 149.5t-160.5 238 t-58 318.5zM479 717q0 -104 30 -182t79 -129.5t113.5 -77t134.5 -25.5q41 0 70.5 6t51.5 17l-172 190l246 111l111 -133q25 43 37 96t12 127q0 121 -36 200.5t-90 127t-116.5 66.5t-113.5 19t-114 -19t-116 -66.5t-90 -127t-37 -200.5z" />
<glyph unicode="R" horiz-adv-x="1318" d="M129 0v1434h594q119 0 203 -28t139 -70t86 -93t46 -99t18.5 -86t3.5 -54q0 -102 -28 -175t-72 -124.5t-97 -82t-104 -49.5l401 -573h-485l-304 473v-473h-401zM530 788h99q106 0 147 51.5t41 114.5q0 31 -9 59.5t-30.5 52.5t-58.5 38t-90 14h-99v-330z" />
<glyph unicode="S" horiz-adv-x="1146" d="M14 188l191 306q86 -82 176 -136.5t180 -54.5q55 0 98 27.5t43 93.5q0 49 -21.5 78.5t-58 50t-87 34t-107.5 31.5q-43 12 -101.5 37t-112.5 72t-91 123t-37 192q0 86 32 165t94 138.5t156.5 94.5t221.5 35q84 0 154.5 -16.5t126 -39t94.5 -47t61 -39.5l-143 -301 q-51 47 -117 87t-143 40q-45 0 -74 -12t-46.5 -30.5t-23.5 -40t-6 -40.5q0 -33 16.5 -54t42 -35.5t55 -23t56.5 -14.5q80 -18 159 -48t143.5 -83t104.5 -137t40 -211q0 -106 -37 -193t-106.5 -148.5t-170 -95.5t-225.5 -34q-70 0 -133.5 12.5t-127 40t-131 70.5t-145.5 106z " />
<glyph unicode="T" horiz-adv-x="1060" d="M14 1090v344h1033v-344h-316v-1090h-401v1090h-316z" />
<glyph unicode="U" horiz-adv-x="1490" d="M115 580v854h401v-846q0 -33 6 -82t28.5 -94t69 -77t125.5 -32q80 0 126.5 32t69 77t28.5 94t6 82v846h401v-854q0 -39 -5 -99.5t-25.5 -130t-60.5 -139.5t-110.5 -126t-175 -91t-254.5 -35t-254 35t-174.5 91t-110.5 126t-60.5 139.5t-25.5 130t-5 99.5z" />
<glyph unicode="V" horiz-adv-x="1470" d="M-14 1434h473l297 -947l291 947h438l-545 -1434h-387z" />
<glyph unicode="W" horiz-adv-x="2236" d="M-14 1434h438l254 -875l225 875h430l226 -875l253 875h439l-504 -1434h-393l-236 918l-235 -918h-394z" />
<glyph unicode="X" horiz-adv-x="1460" d="M-14 0l524 754l-473 680h481l213 -387l213 387h455l-449 -660l525 -774h-474l-270 473l-287 -473h-458z" />
<glyph unicode="Y" horiz-adv-x="1363" d="M-14 1434h473l243 -504l238 504h438l-495 -877v-557h-402v557z" />
<glyph unicode="Z" horiz-adv-x="1247" d="M-14 0l659 1090h-545v344h1162l-646 -1090h588v-344h-1218z" />
<glyph unicode="[" horiz-adv-x="737" d="M160 -430v1935h504v-172h-218v-1591h218v-172h-504z" />
<glyph unicode="\" horiz-adv-x="1048" d="M43 1505h215l748 -1935h-215z" />
<glyph unicode="]" horiz-adv-x="737" d="M74 -258h217v1591h-217v172h504v-1935h-504v172z" />
<glyph unicode="^" horiz-adv-x="1187" d="M41 758l389 676h328l389 -676h-279l-274 516l-275 -516h-278z" />
<glyph unicode="_" horiz-adv-x="1024" d="M0 -225h1024v-205h-1024v205z" />
<glyph unicode="`" horiz-adv-x="1064" d="M106 1434h457l223 -330h-270z" />
<glyph unicode="a" horiz-adv-x="1304" d="M61 496q0 94 26 188t82 170t143 124t210 48q104 0 181 -36t143 -122v121h344v-989h-344v117q-53 -68 -133 -111t-191 -43q-94 0 -178 36t-146.5 104.5t-99.5 168t-37 224.5zM432 496q0 -45 12.5 -87t39 -76t66.5 -54.5t95 -20.5q96 0 155.5 63.5t59.5 174.5 q0 109 -59.5 172t-155.5 63q-55 0 -96 -20.5t-66.5 -54t-38 -75.5t-12.5 -85z" />
<glyph unicode="b" horiz-adv-x="1306" d="M115 0v1505h358v-618q72 76 141.5 107.5t169.5 31.5q123 0 210 -47t143.5 -123t82 -171t25.5 -189q0 -109 -31.5 -206t-92 -170t-145.5 -115t-192 -42q-74 0 -138 20.5t-128 73.5q-33 27 -59 60v-117h-344zM444 496q0 -45 12.5 -87t38 -76t66.5 -54.5t98 -20.5 q96 0 155.5 63.5t59.5 174.5q0 109 -59 172t-156 63q-57 0 -98 -20.5t-66.5 -53t-38 -75.5t-12.5 -86z" />
<glyph unicode="c" horiz-adv-x="940" d="M61 496q0 104 32 199.5t94.5 169t156.5 117.5t221 44q82 0 155 -18.5t159 -59.5v-311q-51 49 -112.5 75.5t-123.5 26.5q-104 0 -157.5 -70.5t-53.5 -174.5q0 -106 59.5 -173t165.5 -67q41 0 97.5 19.5t124.5 78.5v-313q-6 -4 -33 -15.5t-69 -25.5t-96 -24.5t-116 -10.5 q-109 0 -201 37t-159.5 105.5t-105.5 167t-38 223.5z" />
<glyph unicode="d" horiz-adv-x="1306" d="M61 496q0 94 26 189t82 171t144 123t211 47q98 0 170 -30.5t140 -108.5v618h358v-1505h-344v117q-53 -68 -133 -111t-191 -43q-96 0 -180 36t-147.5 104.5t-99.5 168t-36 224.5zM432 496q0 -45 12.5 -87t38 -76t66.5 -54.5t98 -20.5q96 0 155.5 63.5t59.5 174.5 q0 109 -59.5 172t-155.5 63q-57 0 -98 -20.5t-66.5 -53t-38 -75.5t-12.5 -86z" />
<glyph unicode="e" horiz-adv-x="1212" d="M61 496q0 117 38 215t109 167.5t171 108.5t227 39q117 0 204 -29.5t148.5 -79t100.5 -114t59.5 -132t27.5 -133.5q6 -52 5 -97v-25h-754v-13q0 -40 12 -77q13 -43 39.5 -76t67.5 -52.5t94 -19.5q74 0 124 32t65 91h344q-43 -127 -120 -195.5t-158 -100.5t-151.5 -37 t-103.5 -5q-115 0 -215 35t-174 102.5t-117 167t-43 228.5zM406 610h401q-2 39 -15.5 75t-39 63.5t-61.5 45t-85 17.5q-90 0 -143 -60.5t-57 -140.5z" />
<glyph unicode="f" horiz-adv-x="731" d="M14 731v258h129v195q0 29 7.5 86t43 114.5t112.5 100.5t218 43q41 0 94.5 -6t98.5 -17v-262q-23 10 -51.5 18.5t-49.5 8.5q-41 0 -63.5 -17.5t-33.5 -42t-14 -50t-3 -42.5v-129h215v-258h-215v-731h-359v731h-129z" />
<glyph unicode="g" horiz-adv-x="1320" d="M61 535q0 123 40 215t105.5 153.5t148.5 92t169 30.5q37 0 82 -5t90 -20.5t88 -42t78 -69.5v100h344v-960q0 -98 -31.5 -186.5t-98 -156t-171 -106.5t-248.5 -39q-127 0 -222 29t-161.5 80t-105.5 120.5t-51 149.5h387q2 -59 49 -90t104 -31q35 0 71 6.5t65.5 30t49 68.5 t19.5 125v77q-76 -68 -146.5 -87t-137.5 -19q-113 0 -208.5 38t-164 106.5t-106.5 168t-38 222.5zM432 516q0 -59 19.5 -103t51.5 -72t70.5 -41t79.5 -13t81 13t72 41t51.5 72t19.5 103q0 68 -24 112t-58.5 68.5t-73.5 33.5t-68 9t-66.5 -9t-72.5 -33.5t-58.5 -68.5 t-23.5 -112z" />
<glyph unicode="h" horiz-adv-x="1247" d="M115 0v1505h358v-631q55 72 136 112t186 40q121 0 190.5 -47t105 -116.5t46 -146.5t10.5 -138v-578h-359v545q0 23 -3 54.5t-15 61t-37.5 50t-70.5 20.5q-35 0 -69 -14.5t-60.5 -44t-43 -75.5t-16.5 -110v-487h-358z" />
<glyph unicode="i" horiz-adv-x="593" d="M109 1276q0 39 14 73.5t39.5 60.5t60.5 40t74 14t74 -14t60.5 -40t39.5 -60.5t14 -73.5t-14 -74t-39.5 -60.5t-60.5 -40t-74 -14.5t-74 14.5t-60.5 40t-39.5 60.5t-14 74zM119 0v989h358v-989h-358z" />
<glyph unicode="j" horiz-adv-x="593" d="M109 1276q0 39 14 73.5t39.5 60.5t60.5 40t74 14t74 -14t60.5 -40t39.5 -60.5t14 -73.5t-14 -74t-39.5 -60.5t-60.5 -40t-74 -14.5t-74 14.5t-60.5 40t-39.5 60.5t-14 74zM119 -430v1419h358v-1419h-358z" />
<glyph unicode="k" horiz-adv-x="1282" d="M115 0v1505h358v-895l336 379h444l-450 -465l502 -524h-467l-365 410v-410h-358z" />
<glyph unicode="l" horiz-adv-x="587" d="M115 0v1505h358v-1505h-358z" />
<glyph unicode="m" horiz-adv-x="1835" d="M115 0v989h358v-104q129 141 311 141q211 0 297 -152q61 78 133 115t181 37q100 0 165.5 -34t104.5 -86t54.5 -115.5t15.5 -120.5v-670h-359v578q0 12 -2 36.5t-12 51t-32.5 46t-65.5 19.5q-29 0 -57.5 -11t-51 -36t-37 -62.5t-14.5 -91.5v-530h-359v578q0 12 -2 36.5 t-12 51t-32.5 46t-65.5 19.5q-29 0 -57.5 -11t-51 -36t-37 -62.5t-14.5 -91.5v-530h-358z" />
<glyph unicode="n" horiz-adv-x="1247" d="M115 0v989h358v-115q55 72 136 112t186 40q121 0 190.5 -47t105 -116.5t46 -146.5t10.5 -138v-578h-359v545q0 23 -3 54.5t-15 61t-37.5 50t-70.5 20.5q-35 0 -69 -14.5t-60.5 -44t-43 -75.5t-16.5 -110v-487h-358z" />
<glyph unicode="o" horiz-adv-x="1306" d="M61 496q0 104 35 200.5t107.5 169t184.5 116.5t265 44q154 0 265.5 -44t184.5 -116.5t107.5 -169t34.5 -200.5q0 -106 -34.5 -202.5t-107.5 -170.5t-184.5 -117t-265.5 -43t-265.5 43t-184 117t-107.5 170.5t-35 202.5zM432 496q0 -123 56.5 -199t164.5 -76q109 0 165 76 t56 199t-56 197.5t-165 74.5t-165 -74.5t-56 -197.5z" />
<glyph unicode="p" horiz-adv-x="1306" d="M115 -430v1419h344v-121q66 82 141.5 120t183.5 38q104 0 189.5 -38t146 -107.5t93 -168t32.5 -216.5q0 -109 -31.5 -206t-92 -170t-145.5 -115t-192 -42q-88 0 -165.5 32t-145.5 105v-530h-358zM444 496q0 -45 12.5 -87t38 -76t66.5 -54.5t98 -20.5q96 0 155.5 63.5 t59.5 174.5q0 109 -59 172t-156 63q-57 0 -98 -20.5t-66.5 -53t-38 -75.5t-12.5 -86z" />
<glyph unicode="q" horiz-adv-x="1306" d="M61 496q0 94 26 189t82 171t144 123t211 47q104 0 181 -36t143 -122v121h344v-1419h-358v530q-55 -66 -133 -101.5t-177 -35.5q-96 0 -180 36t-147.5 104.5t-99.5 168t-36 224.5zM432 496q0 -45 12.5 -87t38 -76t66.5 -54.5t98 -20.5q96 0 155.5 63.5t59.5 174.5 q0 109 -59.5 172t-155.5 63q-57 0 -98 -20.5t-66.5 -53t-38 -75.5t-12.5 -86z" />
<glyph unicode="r" horiz-adv-x="845" d="M115 0v989h344v-129q8 10 15 19.5t15 19.5q63 70 134 91.5t116 21.5q20 0 51 -3t41 -5v-316q-25 10 -45 13.5t-47 3.5q-98 0 -152.5 -40t-79 -89.5t-29.5 -95.5t-5 -58v-422h-358z" />
<glyph unicode="s" horiz-adv-x="954" d="M43 66l100 247q53 -35 126 -63.5t151 -28.5q63 0 83.5 23.5t20.5 46.5q0 25 -12 40t-30.5 23t-38 12.5t-33.5 6.5q-162 25 -248 92t-86 213q0 70 22.5 133t71.5 110.5t126 76t185 28.5q121 0 218.5 -25.5t168.5 -60.5l-112 -229q-66 43 -124.5 61.5t-103.5 18.5 q-39 0 -60.5 -10.5t-32.5 -25t-13 -27.5t-2 -21q0 -23 7 -37.5t25.5 -24.5t52.5 -17t89 -14q20 -2 68.5 -13t97.5 -42t86 -89t37 -155q0 -68 -22.5 -131t-74 -112t-135.5 -79t-207 -30t-219 25t-182 78z" />
<glyph unicode="t" horiz-adv-x="716" d="M14 731v258h129v273h359v-273h200v-258h-200v-731h-359v731h-129z" />
<glyph unicode="u" horiz-adv-x="1232" d="M100 457v532h359v-540q0 -25 3 -58t18.5 -62.5t47 -50t88.5 -20.5t89 20.5t47.5 50t18.5 62.5t3 58v540h359v-532q0 -29 -3.5 -77t-18.5 -102.5t-47 -110.5t-89 -101.5t-145.5 -74t-213.5 -28.5q-127 0 -214 28.5t-144 74t-89 101.5t-47.5 110.5t-18.5 102.5t-3 77z" />
<glyph unicode="v" horiz-adv-x="1101" d="M-23 989h388l215 -530l180 530h364l-407 -989h-281z" />
<glyph unicode="w" horiz-adv-x="1605" d="M-23 989h353l186 -530l164 530h246l164 -530l186 530h352l-401 -989h-256l-168 516l-168 -516h-256z" />
<glyph unicode="x" horiz-adv-x="1232" d="M-14 0l434 528l-363 461h439l157 -264l162 264h418l-373 -465l387 -524h-416l-200 324l-211 -324h-434z" />
<glyph unicode="y" horiz-adv-x="1245" d="M-23 989h416l273 -530l231 530h371l-717 -1419h-387l301 573z" />
<glyph unicode="z" horiz-adv-x="1060" d="M0 0l502 731h-445v258h990l-508 -731h465v-258h-1004z" />
<glyph unicode="{" horiz-adv-x="1048" d="M233 401v205q68 4 107 37t58.5 77t24.5 89t5 74q0 31 -1 60.5t-3 60.5q-2 29 -3 58.5t-1 57.5q0 115 39 184.5t97 106.5t128 48t131 7v-163q-63 -10 -99 -36t-52.5 -55.5t-20.5 -57.5t-4 -42q0 -86 2 -127t5 -69.5t5 -58.5t2 -91q0 -37 -5 -70.5t-28.5 -66.5t-68.5 -61.5 t-125 -55.5v-16q80 -27 125 -55.5t68.5 -61.5t28.5 -66.5t5 -70.5q0 -61 -2 -91t-5 -59t-5 -69.5t-2 -126.5q0 -14 4 -42t20.5 -57.5t52.5 -55.5t99 -36v-164q-61 -4 -131 7.5t-128 48t-97 106.5t-39 184q0 29 1 58.5t3 58.5q2 31 3 60.5t1 60.5q0 27 -5 73t-24.5 90 t-58.5 76.5t-107 36.5z" />
<glyph unicode="|" horiz-adv-x="1032" d="M414 -537v2149h204v-2149h-204z" />
<glyph unicode="}" horiz-adv-x="1048" d="M233 -295q63 10 99.5 36t52.5 55.5t20.5 57t4.5 42.5q0 86 -2 126.5t-5.5 69.5t-5.5 58.5t-2 91.5q0 37 5.5 70.5t29 66.5t68.5 61.5t125 55.5v16q-80 27 -125 55.5t-68.5 61.5t-29 66.5t-5.5 70.5q0 61 2 91t5.5 58.5t5.5 69.5t2 127q0 14 -4.5 42t-20.5 57.5t-52 55 t-100 36.5v163q61 4 131 -7t128.5 -48t97.5 -106.5t39 -184.5q0 -29 -1 -58.5t-3 -57.5q-2 -31 -3 -61t-1 -60q0 -29 5 -74t24.5 -89t58.5 -77t106 -37v-205q-68 -4 -106.5 -36.5t-58 -76.5t-24.5 -90t-5 -73q0 -31 1 -60.5t3 -60.5q2 -29 3 -58.5t1 -58.5 q0 -115 -39 -184.5t-97.5 -106t-128 -48t-131.5 -7.5v164z" />
<glyph unicode="~" horiz-adv-x="1433" d="M164 643q27 53 60.5 97t64.5 73q43 41 95 65.5t118 24.5q63 0 123.5 -21.5t109.5 -43.5q49 -23 98.5 -41.5t104.5 -18.5q61 0 108.5 26.5t92.5 98.5l131 -90q-20 -47 -53 -93t-77 -83t-99.5 -60.5t-122.5 -23.5q-66 0 -124.5 21.5t-117.5 46.5q-82 35 -123 46t-64 11 q-35 0 -68.5 -12.5t-60.5 -34.5q-29 -23 -45 -45.5t-20 -32.5z" />
<glyph unicode="&#xa9;" horiz-adv-x="1720" d="M102 717q0 156 60.5 294t163 240.5t241 163t293.5 60.5q156 0 294 -60.5t240.5 -163t163 -241t60.5 -293.5q0 -156 -60.5 -294t-163 -240.5t-240.5 -163t-294 -60.5t-294 60.5t-240.5 163t-163 240.5t-60.5 294zM229 717q0 -131 49.5 -246t135.5 -201t200.5 -135 t245.5 -49t246 49t201 135t135 201t49 246t-49 245.5t-135 200.5t-201 135.5t-246 49.5t-245.5 -49.5t-200.5 -135.5t-135.5 -200.5t-49.5 -245.5zM434 717q0 88 32 171t90 146.5t141 101.5t186 38q66 0 134 -16.5t140 -59.5v-240q-43 33 -95 56.5t-110 23.5 q-41 0 -82 -12.5t-74.5 -38t-55 -67.5t-21.5 -103q0 -111 62.5 -167t170.5 -56q49 0 100.5 17t104.5 56v-237q-35 -18 -66.5 -31.5t-63.5 -23t-66.5 -13.5t-77.5 -4q-98 0 -180 35t-142.5 96.5t-93.5 145.5t-33 182z" />
<glyph unicode="&#xab;" horiz-adv-x="1105" d="M57 516l349 473l196 -121l-258 -352l258 -352l-196 -121zM504 516l348 473l197 -121l-258 -352l258 -352l-197 -121z" />
<glyph unicode="&#xad;" horiz-adv-x="860" d="M82 401v316h696v-316h-696z" />
<glyph unicode="&#xae;" horiz-adv-x="1720" d="M102 717q0 156 60.5 294t163 240.5t241 163t293.5 60.5q156 0 294 -60.5t240.5 -163t163 -241t60.5 -293.5q0 -156 -60.5 -294t-163 -240.5t-240.5 -163t-294 -60.5t-294 60.5t-240.5 163t-163 240.5t-60.5 294zM229 717q0 -131 49.5 -246t135.5 -201t200.5 -135 t245.5 -49t246 49t201 135t135 201t49 246t-49 245.5t-135 200.5t-201 135.5t-246 49.5t-245.5 -49.5t-200.5 -135.5t-135.5 -200.5t-49.5 -245.5zM512 293v846h397q145 0 220 -78t75 -189q0 -63 -18.5 -105t-45 -67.5t-58 -39t-56.5 -19.5l207 -348h-277l-176 334h-10v-334 h-258zM770 795h104q4 0 14.5 2t22 9t19.5 21.5t8 40.5q0 12 -2 24.5t-10 23t-25.5 16.5t-46.5 6h-84v-143z" />
<glyph unicode="&#xbb;" horiz-adv-x="1105" d="M57 164l258 352l-258 352l197 121l348 -473l-348 -473zM504 164l258 352l-258 352l196 121l349 -473l-349 -473z" />
<glyph unicode="&#x2c6;" horiz-adv-x="1187" d="M41 758l389 676h328l389 -676h-279l-274 516l-275 -516h-278z" />
<glyph unicode="&#x400;" horiz-adv-x="1075" d="M14 1928h457l223 -330h-270zM129 0v1434h860v-344h-459v-201h416v-316h-416v-229h459v-344h-860z" />
<glyph unicode="&#x401;" horiz-adv-x="1075" d="M129 0v1434h860v-344h-459v-201h416v-316h-416v-229h459v-344h-860zM182 1686q0 68 46 113.5t114 45.5t114 -46t46 -113q0 -68 -46 -114t-114 -46t-114 46t-46 114zM612 1686q0 68 46.5 113.5t113.5 45.5q68 0 114 -46t46 -113q0 -68 -46 -114t-114 -46t-114 46t-46 114z " />
<glyph unicode="&#x402;" horiz-adv-x="1589" d="M14 1090v344h1205v-344h-488v-240q80 16 146.5 20t130.5 4q31 0 82 -2t108 -14t117.5 -38.5t107.5 -73t78 -117t31 -172.5q0 -92 -23.5 -175t-80 -147.5t-149.5 -102.5t-230 -38q-51 0 -101 6v258q10 -2 18 -2h17q43 0 71.5 12.5t45 33t23.5 47t7 52.5q0 25 -9 52.5 t-32.5 49t-65.5 36t-108 14.5q-102 0 -184 -21v-532h-401v1090h-316z" />
<glyph unicode="&#x403;" horiz-adv-x="1017" d="M129 0v1434h860v-344h-459v-1090h-401zM360 1528l263 307h458l-448 -307h-273z" />
<glyph unicode="&#x404;" horiz-adv-x="1269" d="M66 737q0 160 53 295t148 233.5t226.5 154t284.5 55.5q92 0 200.5 -25t205.5 -76v-352q-78 70 -169 103.5t-184 33.5q-68 0 -129 -20.5t-110 -57.5t-82 -90t-43 -117h459v-286h-473q4 -61 28.5 -117.5t69.5 -99.5t110.5 -70t151.5 -27q104 0 198.5 36t172.5 106v-359 q-12 -8 -46 -24.5t-85.5 -32.5t-120 -28.5t-152.5 -12.5q-135 0 -264 48t-228.5 145.5t-160.5 243.5t-61 341z" />
<glyph unicode="&#x405;" horiz-adv-x="1146" d="M14 188l191 306q86 -82 176 -136.5t180 -54.5q55 0 98 27.5t43 93.5q0 49 -21.5 78.5t-58 50t-87 34t-107.5 31.5q-43 12 -101.5 37t-112.5 72t-91 123t-37 192q0 86 32 165t94 138.5t156.5 94.5t221.5 35q84 0 154.5 -16.5t126 -39t94.5 -47t61 -39.5l-143 -301 q-51 47 -117 87t-143 40q-45 0 -74 -12t-46.5 -30.5t-23.5 -40t-6 -40.5q0 -33 16.5 -54t42 -35.5t55 -23t56.5 -14.5q80 -18 159 -48t143.5 -83t104.5 -137t40 -211q0 -106 -37 -193t-106.5 -148.5t-170 -95.5t-225.5 -34q-70 0 -133.5 12.5t-127 40t-131 70.5t-145.5 106z " />
<glyph unicode="&#x406;" horiz-adv-x="659" d="M129 0v1434h401v-1434h-401z" />
<glyph unicode="&#x407;" horiz-adv-x="757" d="M25 1688q0 68 46 113.5t113 45.5q68 0 114 -46t46 -113q0 -68 -46 -114t-114 -46t-113.5 46t-45.5 114zM178 0v1434h402v-1434h-402zM414 1688q0 68 46 113.5t113 45.5q68 0 114 -46t46 -113q0 -68 -46 -114t-114 -46t-113.5 46t-45.5 114z" />
<glyph unicode="&#x408;" horiz-adv-x="1003" d="M0 209l258 207q6 -18 15.5 -38t25.5 -36t37.5 -27.5t52.5 -11.5q61 0 79.5 41t18.5 111v979h402v-938q0 -33 -3 -86.5t-16.5 -112.5t-41 -119.5t-77 -109t-125 -79t-184.5 -30.5q-139 0 -255.5 67.5t-186.5 182.5z" />
<glyph unicode="&#x409;" horiz-adv-x="2207" d="M0 0v344q23 -6 44.5 -10t43.5 -4q66 0 105.5 20.5t60 60.5t27 98t6.5 134v791h1089v-560h211q76 0 174.5 -12t184.5 -57t145 -132t59 -235q0 -150 -59 -236.5t-146 -131.5t-184.5 -57.5t-173.5 -12.5h-612v1090h-287v-566q0 -78 -11 -172t-61.5 -177t-156 -138 t-291.5 -55q-45 0 -83 3t-85 15zM1376 287h172q94 0 147.5 32.5t53.5 118.5t-52 118t-149 32h-172v-301z" />
<glyph unicode="&#x40a;" horiz-adv-x="2250" d="M129 0v1434h401v-560h488v560h401v-560h211q76 0 174.5 -12t184.5 -57t145 -132t59 -235q0 -150 -59 -236.5t-146 -131.5t-184.5 -57.5t-173.5 -12.5h-612v588h-488v-588h-401zM1419 287h172q94 0 147.5 32.5t53.5 118.5t-52 118t-149 32h-172v-301z" />
<glyph unicode="&#x40b;" horiz-adv-x="1591" d="M14 1090v344h1205v-344h-488v-236q55 8 91 12t64.5 6t53.5 2h59q133 0 223.5 -23.5t146.5 -63t85 -90t40 -103.5t11 -106v-93v-395h-401v338q0 43 -3 83t-24.5 68.5t-68.5 46t-136 17.5q-27 0 -39 -1t-23 -3t-28.5 -5t-50.5 -5v-539h-401v1090h-316z" />
<glyph unicode="&#x40c;" horiz-adv-x="1433" d="M129 0v1434h401v-603l433 603h471l-545 -695l559 -739h-502l-416 616v-616h-401zM545 1528l262 307h459l-449 -307h-272z" />
<glyph unicode="&#x40d;" horiz-adv-x="1593" d="M251 1928h457l223 -330h-270zM129 0v1434h387v-861l555 861h393v-1434h-387v860l-555 -860h-393z" />
<glyph unicode="&#x40e;" horiz-adv-x="1404" d="M0 1434h473l281 -603l229 603h436l-645 -1434h-430l195 395zM307 1741l230 86q14 -37 36.5 -60.5t50 -37t56.5 -18.5t57 -5q27 0 56.5 5t57.5 18.5t50.5 37t36.5 60.5l229 -86q-29 -63 -76 -106.5t-104 -71t-121.5 -40t-128.5 -12.5q-63 0 -127.5 12.5t-122 40t-104.5 71 t-76 106.5z" />
<glyph unicode="&#x40f;" horiz-adv-x="1536" d="M129 0v1434h401v-1090h476v1090h401v-1434h-467v-430h-344v430h-467z" />
<glyph unicode="&#x410;" horiz-adv-x="1478" d="M-14 0l510 1434h487l510 -1434h-430l-80 248h-487l-80 -248h-430zM575 563h328l-164 529z" />
<glyph unicode="&#x411;" horiz-adv-x="1361" d="M129 0v1434h1059v-344h-658v-216h211q27 0 79 -2t114.5 -13t128 -36.5t120 -74t88.5 -122t34 -182.5q0 -113 -35 -188.5t-88.5 -125.5t-119 -76.5t-129 -38t-114.5 -13.5t-78 -2h-612zM530 287h172q94 0 147.5 32.5t53.5 118.5t-52 118t-149 32h-172v-301z" />
<glyph unicode="&#x412;" horiz-adv-x="1388" d="M129 0v1434h694q145 0 230.5 -41t129.5 -99.5t56 -121t12 -103.5q0 -57 -18.5 -105.5t-49 -86t-71.5 -65.5t-84 -42v-4q35 -8 87 -29.5t100.5 -63.5t82 -108.5t33.5 -165.5q0 -76 -26.5 -147.5t-84 -127.5t-145.5 -90t-213 -34h-733zM530 287h185q23 0 59.5 3t71.5 17.5 t59.5 45t24.5 85.5q0 53 -24.5 83t-58.5 43.5t-71 15.5t-61 2h-185v-295zM530 868h168q59 0 95 13.5t56.5 34t27 44t6.5 44.5q0 57 -41 100t-144 43h-168v-279z" />
<glyph unicode="&#x413;" horiz-adv-x="1017" d="M129 0v1434h860v-344h-459v-1090h-401z" />
<glyph unicode="&#x414;" horiz-adv-x="1529" d="M0 -287v631q49 2 97 22.5t88 60.5t67 100.5t33 144.5q4 35 3 67.5t-1 67.5v627h1056v-1090h173v-631h-345v287h-827v-287h-344zM504 344h438v746h-287v-340q0 -66 -4 -125.5t-19.5 -111.5t-46 -95t-81.5 -74z" />
<glyph unicode="&#x415;" horiz-adv-x="1075" d="M129 0v1434h860v-344h-459v-201h416v-316h-416v-229h459v-344h-860z" />
<glyph unicode="&#x416;" horiz-adv-x="2134" d="M-14 0l522 731l-479 703h456l381 -623v623h402v-623l381 623h456l-479 -703l522 -731h-493l-387 631v-631h-402v631l-387 -631h-493z" />
<glyph unicode="&#x417;" horiz-adv-x="1210" d="M14 172l166 266q78 -72 172 -118t176 -46q63 0 105.5 16.5t65 40t31.5 51.5t9 50q0 63 -51 106.5t-180 43.5h-227v286h227q68 0 109.5 14.5t65.5 36t31 47t7 50.5q0 68 -56.5 105.5t-148.5 37.5q-88 0 -155.5 -27.5t-133.5 -70.5l-139 280q27 14 72 37t106.5 44.5t138 37 t166.5 15.5q121 0 222.5 -30t174 -83t113.5 -128t41 -165q0 -109 -62.5 -198t-172.5 -126v-6q43 -14 90 -38.5t86 -64.5t64.5 -98.5t25.5 -140.5q0 -102 -44 -183t-122 -138.5t-183.5 -87t-225.5 -29.5q-76 0 -141.5 9t-130 33t-135.5 64.5t-157 106.5z" />
<glyph unicode="&#x418;" horiz-adv-x="1593" d="M129 0v1434h387v-861l555 861h393v-1434h-387v860l-555 -860h-393z" />
<glyph unicode="&#x419;" horiz-adv-x="1593" d="M129 0v1434h387v-861l555 861h393v-1434h-387v860l-555 -860h-393zM367 1741l229 86q14 -37 36.5 -60.5t50.5 -37t56.5 -18.5t57.5 -5q27 0 56.5 5t57 18.5t50 37t36.5 60.5l230 -86q-29 -63 -76 -106.5t-104.5 -71t-122 -40t-127.5 -12.5t-128 12.5t-122.5 40t-104 71 t-75.5 106.5z" />
<glyph unicode="&#x41a;" horiz-adv-x="1433" d="M129 0v1434h401v-603l433 603h471l-545 -695l559 -739h-502l-416 616v-616h-401z" />
<glyph unicode="&#x41b;" horiz-adv-x="1505" d="M0 0v344q23 -6 44.5 -10t43.5 -4q66 0 105.5 20.5t60 60.5t27 98t6.5 134v791h1089v-1434h-401v1090h-287v-566q0 -78 -11 -172t-61.5 -177t-156 -138t-291.5 -55q-45 0 -83 3t-85 15z" />
<glyph unicode="&#x41c;" horiz-adv-x="1781" d="M29 0l209 1434h401l252 -875l252 875h401l209 -1434h-385l-106 831l-242 -831h-258l-242 831l-106 -831h-385z" />
<glyph unicode="&#x41d;" horiz-adv-x="1548" d="M129 0v1434h401v-516h488v516h401v-1434h-401v573h-488v-573h-401z" />
<glyph unicode="&#x41e;" horiz-adv-x="1671" d="M66 717q0 143 46 279.5t141 243t240.5 171t342.5 64.5t341 -64.5t239 -171t142.5 -243t47.5 -279.5t-47.5 -279.5t-142.5 -243t-239.5 -171t-340.5 -64.5q-197 0 -342.5 64.5t-240.5 171t-141 243t-46 279.5zM479 717q0 -104 30 -181t79 -129.5t113.5 -78t134.5 -25.5 t134 25.5t113.5 78t79 129t29.5 181.5q0 104 -29.5 181t-79 129t-114 77.5t-133.5 25.5q-70 0 -134.5 -25.5t-113.5 -77.5t-79 -129t-30 -181z" />
<glyph unicode="&#x41f;" horiz-adv-x="1536" d="M129 0v1434h1278v-1434h-401v1090h-476v-1090h-401z" />
<glyph unicode="&#x420;" horiz-adv-x="1312" d="M129 0v1434h604q154 0 254 -47.5t159.5 -119t84 -155.5t24.5 -158t-24.5 -158.5t-85 -156.5t-160.5 -119t-252 -47h-203v-473h-401zM530 788h115q68 0 107 17.5t58 43t25.5 54.5t6.5 51q0 27 -6.5 55.5t-28 53t-60 40t-102.5 15.5h-115v-330z" />
<glyph unicode="&#x421;" horiz-adv-x="1257" d="M66 717q0 180 58 320.5t158.5 237.5t232.5 148.5t278 51.5q96 0 198.5 -27t194.5 -88v-416q-29 33 -64 63.5t-76.5 55t-92 39t-107.5 14.5q-84 0 -151.5 -30.5t-115 -86t-74 -131t-26.5 -163.5q0 -82 24.5 -153t73 -123t116 -82t153.5 -30q113 0 198.5 49.5t141.5 106.5 v-407q-98 -66 -196.5 -86.5t-190.5 -20.5q-160 0 -294 54.5t-232.5 152.5t-152.5 238.5t-54 312.5z" />
<glyph unicode="&#x422;" horiz-adv-x="1060" d="M14 1090v344h1033v-344h-316v-1090h-401v1090h-316z" />
<glyph unicode="&#x423;" horiz-adv-x="1404" d="M0 1434h473l281 -603l229 603h436l-645 -1434h-430l195 395z" />
<glyph unicode="&#x424;" horiz-adv-x="1884" d="M66 774q0 125 32.5 216t88 155.5t125 104.5t145 62.5t149.5 30t135 5.5v157h402v-157q61 2 135 -5.5t149.5 -30t145 -62.5t125 -104.5t88.5 -155.5t33 -216q0 -127 -33 -218t-88.5 -154.5t-125 -103.5t-145 -61.5t-149.5 -28.5t-135 -7v-201h-402v201q-61 0 -135 7 t-149.5 28.5t-145 61.5t-125 103.5t-88 155.5t-32.5 217zM467 774q0 -96 32.5 -152.5t81 -87t100.5 -39t89 -8.5v574q-37 0 -89 -8.5t-100.5 -39t-81 -88t-32.5 -151.5zM1114 487q37 0 89 8.5t100.5 39t81 87t32.5 152.5q0 94 -32.5 151.5t-81 88t-100.5 39t-89 8.5v-574z " />
<glyph unicode="&#x425;" horiz-adv-x="1460" d="M-14 0l524 754l-473 680h481l213 -387l213 387h455l-447 -660l523 -774h-474l-270 473l-287 -473h-458z" />
<glyph unicode="&#x426;" horiz-adv-x="1591" d="M129 0v1434h401v-1090h474v1090h401v-1090h172v-631h-344v287h-1104z" />
<glyph unicode="&#x427;" horiz-adv-x="1390" d="M86 1018v416h401v-359q0 -41 3.5 -80t24 -68.5t65.5 -48t129 -18.5q25 0 58.5 4t92.5 10v560h402v-1434h-402v559q-55 -8 -91 -12t-64.5 -6t-54.5 -2h-58q-182 0 -283.5 41t-150.5 108.5t-60.5 153.5t-11.5 176z" />
<glyph unicode="&#x428;" horiz-adv-x="2150" d="M129 0v1434h401v-1090h344v1090h402v-1090h344v1090h401v-1434h-1892z" />
<glyph unicode="&#x429;" horiz-adv-x="2207" d="M129 0v1434h401v-1090h344v1090h402v-1090h344v1090h401v-1090h172v-631h-344v287h-1720z" />
<glyph unicode="&#x42a;" horiz-adv-x="1533" d="M14 1090v344h688v-560h211q76 0 174.5 -12t184.5 -57t145.5 -132t59.5 -235q0 -150 -59.5 -236.5t-146.5 -131.5t-184.5 -57.5t-173.5 -12.5h-612v1090h-287zM702 287h172q94 0 147.5 32.5t53.5 118.5t-52 118t-149 32h-172v-301z" />
<glyph unicode="&#x42b;" horiz-adv-x="1921" d="M129 0v1434h401v-560h211q76 0 174.5 -12t184.5 -57t145.5 -132t59.5 -235q0 -150 -59.5 -236.5t-146.5 -131.5t-184.5 -57.5t-173.5 -12.5h-612zM530 287h172q94 0 147.5 32.5t53.5 118.5t-52 118t-149 32h-172v-301zM1391 0v1434h401v-1434h-401z" />
<glyph unicode="&#x42c;" horiz-adv-x="1361" d="M129 0v1434h401v-560h211q76 0 174.5 -12t184.5 -57t145.5 -132t59.5 -235q0 -150 -59.5 -236.5t-146.5 -131.5t-184.5 -57.5t-173.5 -12.5h-612zM530 287h172q94 0 147.5 32.5t53.5 118.5t-52 118t-149 32h-172v-301z" />
<glyph unicode="&#x42d;" horiz-adv-x="1269" d="M86 57v359q78 -70 172 -106t199 -36q86 0 151.5 27t110.5 70t69.5 99t28.5 118h-473v286h459q-10 63 -43 116.5t-82 90.5t-110.5 57.5t-129.5 20.5q-92 0 -183 -33.5t-169 -103.5v352q96 51 204.5 76t201.5 25q154 0 284.5 -55.5t226 -154t148.5 -233.5t53 -295 q0 -195 -61.5 -341t-160.5 -243.5t-228 -145.5t-265 -48q-84 0 -152.5 12.5t-119.5 28.5t-85 32.5t-46 24.5z" />
<glyph unicode="&#x42e;" horiz-adv-x="2277" d="M129 0v1434h401v-549h156q16 119 70.5 225.5t148.5 187t227.5 129t309.5 48.5q197 0 341 -64.5t239.5 -171t142.5 -243t47 -279.5q0 -145 -47 -281.5t-142.5 -243t-240 -170t-340.5 -63.5q-147 0 -279.5 43t-235 123t-167 192.5t-76.5 251.5h-154v-569h-401zM1085 717 q0 -104 30 -181t79 -129.5t113.5 -78t134.5 -25.5t134 25.5t113.5 78t79 129t29.5 181.5q0 104 -29.5 181t-79 129t-114 77.5t-133.5 25.5q-70 0 -134.5 -25.5t-113.5 -77.5t-79 -129t-30 -181z" />
<glyph unicode="&#x42f;" horiz-adv-x="1318" d="M29 0l387 539q-72 12 -131.5 45.5t-104.5 87t-69.5 125t-24.5 159.5q0 117 33 199t85 135t113.5 82t119 42t102.5 16.5t63 3.5h588v-1434h-402v487h-36l-293 -487h-430zM473 946q0 -59 20.5 -93t51 -51.5t66.5 -22.5t67 -5h110v344h-110q-20 0 -55 -4t-68 -20.5 t-57.5 -51.5t-24.5 -96z" />
<glyph unicode="&#x430;" horiz-adv-x="1304" d="M61 496q0 94 26 188t82 170t143 124t210 48q104 0 181 -36t143 -122v121h344v-989h-344v117q-53 -68 -133 -111t-191 -43q-94 0 -178 36t-146.5 104.5t-99.5 168t-37 224.5zM432 496q0 -45 12.5 -87t39 -76t66.5 -54.5t95 -20.5q96 0 155.5 63.5t59.5 174.5 q0 109 -59.5 172t-155.5 63q-55 0 -96 -20.5t-66.5 -54t-38 -75.5t-12.5 -85z" />
<glyph unicode="&#x431;" horiz-adv-x="1290" d="M72 596q0 164 27.5 284.5t74.5 208t108.5 143.5t129 92t136 55.5t128.5 31.5q49 8 89 14.5t70.5 15.5t49 23.5t22.5 40.5h287q-4 -102 -45 -165.5t-98.5 -100.5t-118 -54.5t-101.5 -25.5q-98 -23 -177 -46t-137 -61t-95 -100.5t-51 -160.5h6q10 14 34.5 43.5t67.5 58.5 t107.5 51.5t154.5 22.5q111 0 200 -37t153.5 -101.5t99.5 -151.5t35 -185q0 -100 -32 -195.5t-100.5 -169.5t-176 -119t-261.5 -45q-145 0 -245.5 40t-166 101.5t-101 137t-52 145.5t-19.5 127t-3 82zM442 465q0 -113 57.5 -178.5t151.5 -65.5q96 0 151.5 65.5t55.5 178.5 t-54 178.5t-153 65.5q-94 0 -151.5 -65.5t-57.5 -178.5z" />
<glyph unicode="&#x432;" horiz-adv-x="1146" d="M115 0v989h647q14 0 61 -3t96.5 -24.5t88.5 -68.5t39 -133q0 -20 -4.5 -54t-21.5 -70t-51 -68.5t-93 -51.5v-4q27 -6 63.5 -20.5t70 -44t56.5 -76.5t23 -119q0 -92 -42 -143.5t-96.5 -76t-105.5 -28.5t-70 -4h-661zM459 215h157q63 0 89 28.5t26 65.5q0 51 -33.5 75 t-81.5 24h-157v-193zM459 602h147q12 0 30.5 2t35 10.5t28 26.5t11.5 49q0 27 -11.5 44.5t-28 25.5t-33.5 11t-32 3h-147v-172z" />
<glyph unicode="&#x433;" horiz-adv-x="817" d="M115 0v989h688v-258h-330v-731h-358z" />
<glyph unicode="&#x434;" horiz-adv-x="1318" d="M29 246q68 0 120 45t74 131q16 55 18.5 100t2.5 92v375h903v-743h143v-533h-315v287h-631v-287h-315v533zM455 246h348v497h-238v-178q0 -96 -19 -172.5t-91 -146.5z" />
<glyph unicode="&#x435;" horiz-adv-x="1212" d="M61 496q0 117 38 215t109 167.5t171 108.5t227 39q117 0 204 -29.5t148.5 -79t100.5 -114t59.5 -132t27.5 -134t5 -121.5h-754q-2 -47 11.5 -90t40 -76t67.5 -52.5t94 -19.5q74 0 124 32t65 91h344q-43 -127 -120 -195.5t-158 -100.5t-151.5 -37t-103.5 -5 q-115 0 -215 35t-174 102.5t-117 167t-43 228.5zM406 610h401q-2 39 -15.5 75t-39 63.5t-61.5 45t-85 17.5q-90 0 -143 -60.5t-57 -140.5z" />
<glyph unicode="&#x436;" horiz-adv-x="1761" d="M-23 0l402 516l-344 473h416l258 -416v416h344v-416l258 416h415l-344 -473l402 -516h-445l-286 430v-430h-344v430l-287 -430h-445z" />
<glyph unicode="&#x437;" horiz-adv-x="1017" d="M43 82l92 233q78 -47 146.5 -70.5t162.5 -23.5q47 0 76 10.5t44.5 25.5t20.5 31.5t5 28.5q0 31 -15.5 47.5t-39 24.5t-49 10t-44.5 2h-155v215h176q12 0 32.5 2.5t40 9.5t34 24.5t14.5 47.5q0 31 -16.5 49.5t-39 27.5t-47 11.5t-41.5 2.5q-66 0 -137.5 -24t-128.5 -60 l-96 221q82 43 195.5 70.5t222.5 27.5q57 0 127.5 -11t132 -42t103.5 -85t42 -140q0 -80 -40 -141.5t-107 -90.5v-4q109 -25 158 -95.5t49 -148.5q0 -29 -14.5 -80t-62.5 -101t-139.5 -87t-244.5 -37q-31 0 -78 3t-107.5 15.5t-129 36t-142.5 64.5z" />
<glyph unicode="&#x438;" horiz-adv-x="1290" d="M115 0v989h358v-530l358 530h345v-989h-359v545l-354 -545h-348z" />
<glyph unicode="&#x439;" horiz-adv-x="1277" d="M109 0v989h358v-530l358 530h344v-989h-358v545l-354 -545h-348zM264 1348l234 86q10 -43 32.5 -68t48 -36t49 -14t40.5 -3q14 0 38.5 3t50 14t48 36t33.5 68l233 -86q-29 -63 -72 -106.5t-97 -71t-113.5 -40t-120.5 -12.5t-121 12.5t-114 40t-98 71t-71 106.5z" />
<glyph unicode="&#x43a;" horiz-adv-x="1224" d="M115 0v989h358v-403l299 403h438l-407 -465l444 -524h-452l-322 438v-438h-358z" />
<glyph unicode="&#x43b;" horiz-adv-x="1275" d="M29 0v258q27 -8 61 -8q25 0 49.5 6t45 24.5t32.5 52.5t12 91v565h932v-989h-358v743h-230v-413q0 -47 -8 -107.5t-44 -115t-107.5 -92.5t-196.5 -38q-45 0 -101 9.5t-87 13.5z" />
<glyph unicode="&#x43c;" horiz-adv-x="1560" d="M29 0l157 989h387l207 -588l207 588h387l158 -989h-340l-84 545l-199 -545h-258l-198 545l-84 -545h-340z" />
<glyph unicode="&#x43d;" horiz-adv-x="1275" d="M115 0v989h358v-348h330v348h358v-989h-358v395h-330v-395h-358z" />
<glyph unicode="&#x43e;" horiz-adv-x="1306" d="M61 496q0 104 35 200.5t107.5 169t184.5 116.5t265 44q154 0 265.5 -44t184.5 -116.5t107.5 -169t34.5 -200.5q0 -106 -34.5 -202.5t-107.5 -170.5t-184.5 -117t-265.5 -43t-265.5 43t-184 117t-107.5 170.5t-35 202.5zM432 496q0 -123 56.5 -199t164.5 -76q109 0 165 76 t56 199t-56 197.5t-165 74.5t-165 -74.5t-56 -197.5z" />
<glyph unicode="&#x43f;" horiz-adv-x="1261" d="M115 0v989h1032v-989h-359v743h-315v-743h-358z" />
<glyph unicode="&#x440;" horiz-adv-x="1306" d="M115 -430v1419h344v-121q66 82 141.5 120t183.5 38q104 0 189.5 -38t146 -107.5t93 -168t32.5 -216.5q0 -109 -31.5 -206t-92 -170t-145.5 -115t-192 -42q-88 0 -165.5 32t-145.5 105v-530h-358zM444 496q0 -45 12.5 -87t38 -76t66.5 -54.5t98 -20.5q96 0 155.5 63.5 t59.5 174.5q0 109 -59 172t-156 63q-57 0 -98 -20.5t-66.5 -53t-38 -75.5t-12.5 -86z" />
<glyph unicode="&#x441;" horiz-adv-x="940" d="M61 496q0 104 32 199.5t94.5 169t156.5 117.5t221 44q82 0 155 -18.5t159 -59.5v-311q-51 49 -112.5 75.5t-123.5 26.5q-104 0 -157.5 -70.5t-53.5 -174.5q0 -106 59.5 -173t165.5 -67q41 0 97.5 19.5t124.5 78.5v-313q-6 -4 -33 -15.5t-69 -25.5t-96 -24.5t-116 -10.5 q-109 0 -201 37t-159.5 105.5t-105.5 167t-38 223.5z" />
<glyph unicode="&#x442;" horiz-adv-x="903" d="M14 731v258h875v-258h-258v-731h-359v731h-258z" />
<glyph unicode="&#x443;" horiz-adv-x="1245" d="M-23 989h416l273 -530l231 530h371l-717 -1419h-387l301 573z" />
<glyph unicode="&#x444;" horiz-adv-x="1611" d="M61 496q0 106 27 185t72 136t103.5 93t120.5 57.5t125.5 29t117.5 7.5v430h358v-430q53 0 116.5 -7.5t126 -29t121 -57.5t103.5 -93t71.5 -136t26.5 -185q0 -160 -58 -260.5t-144 -155.5t-184.5 -74.5t-178.5 -19.5v-416h-358v416q-80 0 -178.5 19.5t-184.5 74.5 t-144.5 155.5t-58.5 260.5zM406 487q0 -72 21.5 -123t55 -84.5t77.5 -50t89 -16.5v549q-45 0 -89 -16.5t-77.5 -50t-55 -86t-21.5 -122.5zM963 213q45 0 89 16.5t77.5 50t55 85t21.5 122.5q0 70 -21.5 122.5t-55 86t-77.5 50t-89 16.5v-549z" />
<glyph unicode="&#x445;" horiz-adv-x="1232" d="M-14 0l434 528l-363 461h439l157 -264l162 264h418l-373 -465l387 -524h-416l-200 324l-211 -324h-434z" />
<glyph unicode="&#x446;" horiz-adv-x="1304" d="M115 0v989h358v-743h301v743h359v-743h143v-533h-315v287h-846z" />
<glyph unicode="&#x447;" horiz-adv-x="1161" d="M86 596v393h344v-313q0 -41 11.5 -65.5t29.5 -37t43 -16.5t53 -4q25 0 53.5 2t67.5 12v422h359v-989h-359v322q-59 -10 -125.5 -12.5t-109.5 -2.5q-190 0 -278.5 69.5t-88.5 219.5z" />
<glyph unicode="&#x448;" horiz-adv-x="1869" d="M115 0v989h358v-743h283v743h358v-743h283v743h358v-989h-1640z" />
<glyph unicode="&#x449;" horiz-adv-x="1927" d="M115 0v989h358v-743h283v743h358v-743h283v743h358v-743h143v-533h-315v287h-1468z" />
<glyph unicode="&#x44a;" horiz-adv-x="1241" d="M14 731v258h602v-330h218q98 0 165.5 -29.5t110.5 -77.5t61.5 -107.5t18.5 -120.5q0 -74 -26.5 -133.5t-75 -102.5t-114 -65.5t-140.5 -22.5h-576v731h-244zM616 229h119q33 0 54.5 10.5t34 26t17.5 33.5t5 33q0 47 -33 72.5t-78 25.5h-119v-201z" />
<glyph unicode="&#x44b;" horiz-adv-x="1611" d="M115 0v989h358v-330h217q98 0 166 -29.5t111 -77.5t61.5 -107.5t18.5 -120.5q0 -74 -27 -133.5t-75 -102.5t-113.5 -65.5t-141.5 -22.5h-575zM473 229h119q33 0 54.5 10.5t33.5 26t17 33.5t5 33q0 47 -32.5 72.5t-77.5 25.5h-119v-201zM1139 0v989h358v-989h-358z" />
<glyph unicode="&#x44c;" horiz-adv-x="1097" d="M115 0v989h358v-330h217q98 0 166 -29.5t111 -77.5t61.5 -107.5t18.5 -120.5q0 -74 -27 -133.5t-75 -102.5t-113.5 -65.5t-141.5 -22.5h-575zM473 229h119q33 0 54.5 10.5t33.5 26t17 33.5t5 33q0 47 -32.5 72.5t-77.5 25.5h-119v-201z" />
<glyph unicode="&#x44d;" horiz-adv-x="1007" d="M86 14v287q82 -61 154.5 -78.5t128.5 -17.5q117 0 184.5 52t77.5 138h-416v215h408q-14 76 -82 131.5t-179 55.5q-90 0 -159.5 -37t-110.5 -70v273q90 39 169 51t132 12q111 0 211.5 -35t176 -101.5t120.5 -164.5t45 -223q0 -102 -33.5 -200.5t-102.5 -174.5t-173.5 -122 t-243.5 -46q-127 0 -202.5 21.5t-104.5 33.5z" />
<glyph unicode="&#x44e;" horiz-adv-x="1810" d="M115 0v989h358v-364h113q12 57 46 126.5t100.5 131t171 102.5t257.5 41q154 0 264.5 -44t183 -116.5t106.5 -169t34 -200.5q0 -106 -35 -202.5t-106.5 -170.5t-183 -117t-267.5 -43q-154 0 -259 42t-173 105.5t-100.5 140.5t-42.5 144h-109v-395h-358zM944 496 q0 -123 54.5 -199t162.5 -76q109 0 163 76t54 199t-54 197.5t-163 74.5t-163 -74.5t-54 -197.5z" />
<glyph unicode="&#x44f;" horiz-adv-x="1132" d="M57 0l258 344q-115 16 -182 103.5t-67 218.5q0 88 30.5 149.5t82.5 100t121 56t144 17.5h574v-989h-359v315h-28l-201 -315h-373zM410 643q0 -59 33.5 -86t95.5 -27h120v230h-120q-14 0 -37 -3t-43.5 -14.5t-34.5 -35t-14 -64.5z" />
<glyph unicode="&#x450;" horiz-adv-x="1212" d="M61 1479h457l223 -330h-270zM61 496q0 117 38 215t109 167.5t171 108.5t227 39q117 0 204 -29.5t148.5 -79t100.5 -114t59.5 -132t27.5 -134t5 -121.5h-754q-2 -47 11.5 -90t40 -76t67.5 -52.5t94 -19.5q74 0 124 32t65 91h344q-43 -127 -120 -195.5t-158 -100.5 t-151.5 -37t-103.5 -5q-115 0 -215 35t-174 102.5t-117 167t-43 228.5zM406 610h401q-2 39 -15.5 75t-39 63.5t-61.5 45t-85 17.5q-90 0 -143 -60.5t-57 -140.5z" />
<glyph unicode="&#x451;" horiz-adv-x="1212" d="M61 496q0 117 38 215t109 167.5t171 108.5t227 39q117 0 204 -29.5t148.5 -79t100.5 -114t59.5 -132t27.5 -134t5 -121.5h-754q-2 -47 11.5 -90t40 -76t67.5 -52.5t94 -19.5q74 0 124 32t65 91h344q-43 -127 -120 -195.5t-158 -100.5t-151.5 -37t-103.5 -5 q-115 0 -215 35t-174 102.5t-117 167t-43 228.5zM231 1262q0 68 46.5 113.5t113.5 45.5q68 0 114 -46t46 -113q0 -68 -46 -114t-114 -46t-114 46t-46 114zM406 610h401q-2 39 -15.5 75t-39 63.5t-61.5 45t-85 17.5q-90 0 -143 -60.5t-57 -140.5zM662 1262q0 68 46 113.5 t113 45.5q68 0 114 -46t46 -113q0 -68 -46 -114t-114 -46t-113.5 46t-45.5 114z" />
<glyph unicode="&#x452;" horiz-adv-x="1247" d="M-57 1161v201h172v143h358v-143h430v-201h-430v-287q55 72 136 112t186 40q121 0 190.5 -47t105 -116.5t46 -146.5t10.5 -138v-684q0 -47 -8.5 -107.5t-45 -115t-111.5 -92.5t-206 -38q-45 0 -101.5 9.5t-86.5 13.5v258q27 -8 61 -8q25 0 49.5 6t45 24.5t32.5 52t12 91.5 v557q0 23 -3 54.5t-15 61t-37.5 50t-70.5 20.5q-35 0 -69 -14.5t-60.5 -44t-43 -75.5t-16.5 -110v-487h-358v1161h-172z" />
<glyph unicode="&#x453;" horiz-adv-x="817" d="M115 0v989h688v-258h-330v-731h-358zM279 1104l221 330h458l-407 -330h-272z" />
<glyph unicode="&#x454;" horiz-adv-x="1007" d="M61 502q0 100 36 195.5t106.5 168t173 116.5t237.5 44q53 0 132 -12.5t169 -50.5v-273q-41 33 -110.5 70t-159.5 37q-111 0 -178.5 -55.5t-81.5 -131.5h408v-215h-416q10 -80 77.5 -133t184.5 -53q51 0 126 16.5t157 75.5v-287q-20 -8 -100.5 -29.5t-207.5 -21.5 q-139 0 -243.5 45t-173 121t-102.5 173.5t-34 199.5z" />
<glyph unicode="&#x455;" horiz-adv-x="954" d="M43 66l100 247q53 -35 126 -63.5t151 -28.5q63 0 83.5 23.5t20.5 46.5q0 25 -12 40t-30.5 23t-38 12.5t-33.5 6.5q-162 25 -248 92t-86 213q0 70 22.5 133t71.5 110.5t126 76t185 28.5q121 0 218.5 -25.5t168.5 -60.5l-112 -229q-66 43 -124.5 61.5t-103.5 18.5 q-39 0 -60.5 -10.5t-32.5 -25t-13 -27.5t-2 -21q0 -23 7 -37.5t25.5 -24.5t52.5 -17t89 -14q20 -2 68.5 -13t97.5 -42t86 -89t37 -155q0 -68 -22.5 -131t-74 -112t-135.5 -79t-207 -30t-219 25t-182 78z" />
<glyph unicode="&#x456;" horiz-adv-x="593" d="M109 1276q0 39 14 73.5t39.5 60.5t60.5 40t74 14t74 -14t60.5 -40t39.5 -60.5t14 -73.5t-14 -74t-39.5 -60.5t-60.5 -40t-74 -14.5t-74 14.5t-60.5 40t-39.5 60.5t-14 74zM119 0v989h358v-989h-358z" />
<glyph unicode="&#x457;" horiz-adv-x="634" d="M0 1262q0 66 40 111.5t99 45.5t99.5 -46t40.5 -111q0 -66 -40 -112t-100 -46q-59 0 -99 46t-40 112zM139 0v989h359v-989h-359zM356 1262q0 66 40 111.5t100 45.5q59 0 99 -46t40 -111q0 -66 -40 -112t-99 -46t-99.5 46t-40.5 112z" />
<glyph unicode="&#x458;" horiz-adv-x="593" d="M109 1276q0 39 14 73.5t39.5 60.5t60.5 40t74 14t74 -14t60.5 -40t39.5 -60.5t14 -73.5t-14 -74t-39.5 -60.5t-60.5 -40t-74 -14.5t-74 14.5t-60.5 40t-39.5 60.5t-14 74zM119 -430v1419h358v-1419h-358z" />
<glyph unicode="&#x459;" horiz-adv-x="1785" d="M29 0v258q27 -8 61 -8q25 0 49.5 6t45 24.5t32.5 52.5t12 91v565h932v-330h217q98 0 166 -29.5t111 -77.5t61.5 -107.5t18.5 -120.5q0 -74 -27 -133.5t-75 -102.5t-113.5 -65.5t-141.5 -22.5h-575v743h-230v-413q0 -47 -8 -107.5t-44 -115t-107.5 -92.5t-196.5 -38 q-45 0 -101 9.5t-87 13.5zM1161 229h119q33 0 54.5 10.5t33.5 26t17.5 33.5t5.5 33q0 47 -33 72.5t-78 25.5h-119v-201z" />
<glyph unicode="&#x45a;" horiz-adv-x="1785" d="M115 0v989h358v-330h330v330h358v-330h217q98 0 166 -29.5t111 -77.5t61.5 -107.5t18.5 -120.5q0 -74 -27 -133.5t-75 -102.5t-113.5 -65.5t-141.5 -22.5h-575v414h-330v-414h-358zM1161 229h119q33 0 54.5 10.5t33.5 26t17.5 33.5t5.5 33q0 47 -33 72.5t-78 25.5h-119 v-201z" />
<glyph unicode="&#x45b;" horiz-adv-x="1247" d="M-57 1161v201h172v143h358v-143h430v-201h-430v-287q55 72 136 112t186 40q121 0 190.5 -47t105 -116.5t46 -146.5t10.5 -138v-578h-359v545q0 23 -3 54.5t-15 61t-37.5 50t-70.5 20.5q-35 0 -69 -14.5t-60.5 -44t-43 -75.5t-16.5 -110v-487h-358v1161h-172z" />
<glyph unicode="&#x45c;" horiz-adv-x="1224" d="M115 0v989h358v-403l299 403h438l-407 -465l444 -524h-452l-322 438v-438h-358zM422 1104l221 330h459l-408 -330h-272z" />
<glyph unicode="&#x45d;" horiz-adv-x="1290" d="M100 1479h457l223 -330h-270zM115 0v989h358v-530l358 530h345v-989h-359v545l-354 -545h-348z" />
<glyph unicode="&#x45e;" horiz-adv-x="1245" d="M-23 989h416l273 -530l231 530h371l-717 -1419h-387l301 573zM219 1348l234 86q10 -43 32.5 -68t48 -36t49 -14t40.5 -3q14 0 38.5 3t50 14t48 36t33.5 68l233 -86q-29 -63 -72 -106.5t-97 -71t-113.5 -40t-120.5 -12.5t-121 12.5t-114 40t-98 71t-71 106.5z" />
<glyph unicode="&#x45f;" horiz-adv-x="1261" d="M115 0v989h358v-743h315v743h359v-989h-359v-348h-315v348h-358z" />
<glyph unicode="&#x490;" horiz-adv-x="1046" d="M129 0v1434h573v286h316v-630h-488v-1090h-401z" />
<glyph unicode="&#x491;" horiz-adv-x="817" d="M115 0v989h473v260h215v-518h-330v-731h-358z" />
<glyph unicode="&#x4ae;" horiz-adv-x="1363" d="M-14 1434h473l243 -504l238 504h438l-495 -877v-557h-402v557z" />
<glyph unicode="&#x4c0;" horiz-adv-x="659" d="M129 0v1434h401v-1434h-401z" />
<glyph unicode="&#x2000;" horiz-adv-x="962" />
<glyph unicode="&#x2001;" horiz-adv-x="1927" />
<glyph unicode="&#x2002;" horiz-adv-x="962" />
<glyph unicode="&#x2003;" horiz-adv-x="1927" />
<glyph unicode="&#x2004;" horiz-adv-x="641" />
<glyph unicode="&#x2005;" horiz-adv-x="481" />
<glyph unicode="&#x2006;" horiz-adv-x="319" />
<glyph unicode="&#x2007;" horiz-adv-x="319" />
<glyph unicode="&#x2008;" horiz-adv-x="239" />
<glyph unicode="&#x2009;" horiz-adv-x="385" />
<glyph unicode="&#x200a;" horiz-adv-x="106" />
<glyph unicode="&#x2010;" horiz-adv-x="860" d="M82 401v316h696v-316h-696z" />
<glyph unicode="&#x2011;" horiz-adv-x="860" d="M82 401v316h696v-316h-696z" />
<glyph unicode="&#x2012;" horiz-adv-x="860" d="M82 401v316h696v-316h-696z" />
<glyph unicode="&#x2013;" horiz-adv-x="1277" d="M102 457v205h1074v-205h-1074z" />
<glyph unicode="&#x2014;" horiz-adv-x="1748" d="M102 457v205h1545v-205h-1545z" />
<glyph unicode="&#x2018;" horiz-adv-x="688" d="M57 803l301 631h273l-215 -631h-359z" />
<glyph unicode="&#x2019;" horiz-adv-x="688" d="M57 803l215 631h359l-301 -631h-273z" />
<glyph unicode="&#x201a;" horiz-adv-x="659" d="M29 -287l215 631h358l-301 -631h-272z" />
<glyph unicode="&#x201c;" horiz-adv-x="1161" d="M57 803l301 631h273l-215 -631h-359zM530 803l301 631h273l-215 -631h-359z" />
<glyph unicode="&#x201d;" horiz-adv-x="1161" d="M57 803l215 631h359l-301 -631h-273zM530 803l215 631h359l-301 -631h-273z" />
<glyph unicode="&#x201e;" horiz-adv-x="1161" d="M57 -287l215 631h359l-301 -631h-273zM530 -287l215 631h359l-301 -631h-273z" />
<glyph unicode="&#x2022;" horiz-adv-x="1392" d="M328 717q0 76 28.5 143.5t78.5 117.5t116.5 78.5t144.5 28.5q76 0 143.5 -28.5t118 -78.5t79 -117.5t28.5 -143.5q0 -78 -28.5 -144.5t-79 -116.5t-118 -79t-143.5 -29q-78 0 -144.5 29t-116.5 79t-78.5 116.5t-28.5 144.5z" />
<glyph unicode="&#x2026;" horiz-adv-x="2027" d="M129 172q0 43 16.5 81t45 66.5t66.5 45t81 16.5t81 -16.5t66.5 -45t45 -66.5t16.5 -81t-16.5 -81t-45 -66.5t-66.5 -45t-81 -16.5t-81 16.5t-66.5 45t-45 66.5t-16.5 81zM805 172q0 43 16.5 81t45 66.5t66.5 45t81 16.5t81 -16.5t66.5 -45t45 -66.5t16.5 -81t-16.5 -81 t-45 -66.5t-66.5 -45t-81 -16.5t-81 16.5t-66.5 45t-45 66.5t-16.5 81zM1481 172q0 43 16 81t45 66.5t67 45t81 16.5t80.5 -16.5t66.5 -45t45 -66.5t16 -81t-16 -81t-45 -66.5t-66.5 -45t-80.5 -16.5t-81 16.5t-67 45t-45 66.5t-16 81z" />
<glyph unicode="&#x202f;" horiz-adv-x="385" />
<glyph unicode="&#x2039;" horiz-adv-x="659" d="M57 516l349 473l196 -121l-258 -352l258 -352l-196 -121z" />
<glyph unicode="&#x203a;" horiz-adv-x="659" d="M57 164l258 352l-258 352l197 121l348 -473l-348 -473z" />
<glyph unicode="&#x205f;" horiz-adv-x="481" />
<glyph unicode="&#x2122;" horiz-adv-x="1720" d="M41 1249v185h614v-185h-184v-635h-246v635h-184zM692 614l90 820h320l84 -473l84 473h319l90 -820h-229l-47 557l-111 -557h-213l-110 557l-47 -557h-230z" />
<glyph unicode="&#xe000;" horiz-adv-x="990" d="M0 990h990v-990h-990v990z" />
</font>
</defs>
</svg>
