<?xml version="1.0" standalone="no"?>
<!DOCTYPE svg PUBLIC "-//W3C//DTD SVG 1.1//EN" "http://www.w3.org/Graphics/SVG/1.1/DTD/svg11.dtd" >
<svg xmlns="http://www.w3.org/2000/svg">
<metadata></metadata>
<defs>
<font id="ford_antennaextralight" horiz-adv-x="1208" >
<font-face units-per-em="2048" ascent="1638" descent="-410" />
<missing-glyph horiz-adv-x="493" />
<glyph horiz-adv-x="2048" />
<glyph horiz-adv-x="2048" />
<glyph unicode="&#xd;" horiz-adv-x="2048" />
<glyph unicode=" "  horiz-adv-x="493" />
<glyph unicode="&#x09;" horiz-adv-x="493" />
<glyph unicode="&#xa0;" horiz-adv-x="493" />
<glyph unicode="!" horiz-adv-x="706" d="M276 0v178h154v-178h-154zM295 1518h117l-13 -1121h-90z" />
<glyph unicode="&#x22;" horiz-adv-x="919" d="M209 1518h106l-10 -545h-84zM604 1518h107l-11 -545h-86z" />
<glyph unicode="#" horiz-adv-x="1466" d="M141 485v97h273l69 368h-342v97h363l90 471h102l-92 -471h369l92 471h100l-90 -471h252v-97h-272l-70 -368h342v-97h-360l-95 -485h-100l92 485h-366l-95 -485h-102l94 485h-254zM510 578h377l74 376h-379z" />
<glyph unicode="$" horiz-adv-x="1345" d="M154 143l53 80q108 -73 209.5 -101t220.5 -30v670q-55 12 -95 23t-86.5 28t-78.5 36.5t-64 47.5t-51 62t-31 80.5t-12 101.5q0 186 99 278t315 99v129h98v-129q230 -10 369 -109l-53 -80q-123 84 -320 94v-585q62 -15 104.5 -26.5t94 -31t86 -40t70 -51.5t56 -68 t33.5 -87t13 -110q0 -403 -453 -424v-193h-98v193q-138 3 -252 33.5t-227 109.5zM322 1145q0 -66 20.5 -113.5t64.5 -80t96.5 -53t133.5 -40.5v565q-170 -6 -242.5 -74t-72.5 -204zM727 92q183 9 268.5 90t85.5 238q0 62 -16.5 109.5t-44 79.5t-75.5 57t-96.5 41t-121.5 34 v-649z" />
<glyph unicode="%" horiz-adv-x="2185" d="M98 1069q0 105 20.5 188t64 148.5t119.5 101t181 35.5q103 0 178.5 -35.5t119.5 -101t64.5 -149t20.5 -187.5q0 -105 -20.5 -188t-64.5 -148t-119.5 -100t-178.5 -35q-385 0 -385 471zM197 1069q0 -383 286 -383q285 0 285 383t-285 383q-286 0 -286 -383zM618 0 l844 1520h103l-846 -1520h-101zM1319 451q0 105 20.5 188t64 148.5t119 101t179.5 35.5t179.5 -35.5t119 -101t64 -148.5t20.5 -188t-20.5 -188.5t-64 -149t-119 -101t-179.5 -35.5t-179.5 35.5t-119 101t-64 149t-20.5 188.5zM1417 451q0 -383 285 -383t285 383t-285 383 t-285 -383z" />
<glyph unicode="&#x26;" horiz-adv-x="1576" d="M104 397q0 66 18.5 126t47.5 106t73.5 90.5t87.5 77t99 67.5q-84 214 -84 385q0 149 75.5 221t215.5 72t205 -70t65 -223q0 -57 -21 -110t-46 -88.5t-79 -80.5t-86.5 -67t-102.5 -67q-11 -7 -17 -11q128 -273 322 -458q51 -51 129 -113q74 92 128.5 236t112.5 374l94 -22 q-60 -235 -119 -388.5t-139 -254.5q101 -65 181 -84t170 -19h24v-96h-26q-116 0 -210 23.5t-206 99.5q-161 -146 -434 -146q-136 0 -229 26t-147.5 81t-78 130.5t-23.5 182.5zM207 397q0 -83 15 -139.5t55 -101t115.5 -65.5t189.5 -21q224 0 354 112q-72 58 -135 121 q-208 202 -336 477q-78 -53 -130.5 -102.5t-90 -123.5t-37.5 -157zM446 1249q0 -150 74 -344q70 45 112.5 76t88.5 75t68 91.5t22 101.5q0 104 -40 152.5t-134 48.5q-191 0 -191 -201z" />
<glyph unicode="'" horiz-adv-x="526" d="M209 1520h106l-10 -547h-84z" />
<glyph unicode="(" horiz-adv-x="948" d="M244 612q0 136 27 268t71 238.5t102.5 202t118 164.5t121.5 121l74 -62q-59 -52 -113.5 -115t-110 -152t-95.5 -186.5t-65.5 -222.5t-25.5 -256q0 -162 37.5 -311.5t101 -264t130.5 -198t141 -147.5l-74 -62q-63 52 -122 118.5t-118 160.5t-102.5 198t-70.5 236t-27 270z " />
<glyph unicode=")" horiz-adv-x="948" d="M193 -309q75 66 141.5 149.5t129 197.5t99.5 263t37 311t-37.5 313.5t-99.5 267.5t-129.5 202t-140.5 149l71 62q63 -52 122 -120t118 -163t103 -200.5t71 -238.5t27 -272q0 -168 -40.5 -327t-107.5 -282t-140 -215.5t-153 -158.5z" />
<glyph unicode="*" horiz-adv-x="1157" d="M147 846l359 196l-359 201l43 78l355 -213l-10 412h88l-11 -412l355 213l43 -78l-359 -201l359 -196l-43 -78l-355 211l11 -410h-88l10 410l-355 -211z" />
<glyph unicode="+" horiz-adv-x="1409" d="M225 674v98h426v426h105v-426h426v-98h-426v-426h-105v426h-426z" />
<glyph unicode="," horiz-adv-x="456" d="M133 -160q58 33 78 65.5t20 94.5h-79v180h153v-143q0 -107 -28.5 -160t-108.5 -96z" />
<glyph unicode="-" horiz-adv-x="942" d="M117 567v97h710v-97h-710z" />
<glyph unicode="." horiz-adv-x="456" d="M152 0v180h153v-180h-153z" />
<glyph unicode="/" horiz-adv-x="962" d="M0 0l852 1518h111l-852 -1518h-111z" />
<glyph unicode="0" horiz-adv-x="1466" d="M176 762q0 101 6 182.5t22 164t42.5 145.5t69 119t100 92t137.5 56.5t180 20.5q99 0 179 -20.5t138 -56.5t101 -92t69.5 -119t43 -145.5t22.5 -164.5t6 -182t-6 -182.5t-22.5 -165t-43 -146.5t-69.5 -120t-101 -92.5t-138 -57.5t-179 -21t-179.5 21t-138 57.5t-100 92.5 t-69 119.5t-42.5 147t-22 165t-6 182.5zM283 762q0 -88 4 -158t16.5 -143.5t33 -129t54.5 -105.5t80.5 -82t112.5 -51t149 -19t149 18.5t113 51t81.5 82.5t55 105.5t33 129t17 143.5t4.5 158t-4.5 158t-17 143t-33 128t-55 104.5t-81.5 80.5t-113 49.5t-149 18.5t-149 -18.5 t-112.5 -49.5t-80.5 -81t-54.5 -104.5t-33 -127.5t-16.5 -142.5t-4 -158.5z" />
<glyph unicode="1" horiz-adv-x="737" d="M80 1419v99h401v-1518h-102v1419h-299z" />
<glyph unicode="2" horiz-adv-x="1171" d="M82 0v90l514 541q77 81 117.5 125.5t87 104.5t67.5 105t35.5 101t14.5 119q0 136 -81 198t-262 62q-243 0 -409 -88l-47 86q191 98 463 98q223 0 331.5 -84t108.5 -266q0 -85 -20 -157.5t-67 -148.5t-104.5 -144t-152.5 -167l-459 -481h830v-94h-967z" />
<glyph unicode="3" horiz-adv-x="1228" d="M57 109l54 84q121 -66 231.5 -93.5t237.5 -27.5q211 0 304 80.5t93 281.5q0 72 -10.5 124t-39 97.5t-77 72.5t-126.5 42.5t-187 15.5h-191v95h186q225 0 313.5 69t88.5 230q0 148 -82.5 208t-273.5 60q-109 0 -222 -27.5t-202 -81.5l-58 80q203 123 488 123 q236 0 344 -79.5t108 -270.5q0 -149 -55.5 -235t-169.5 -117q147 -31 207.5 -130.5t60.5 -279.5q0 -128 -30.5 -216t-94.5 -140.5t-154 -75.5t-218 -23q-145 0 -269.5 31t-255.5 103z" />
<glyph unicode="4" horiz-adv-x="1345" d="M121 408v88l684 1022h117l-684 -1018h634l21 526h80v-526h295v-92h-295v-408h-101v408h-751z" />
<glyph unicode="5" horiz-adv-x="1280" d="M131 109l53 84q113 -58 214.5 -89.5t228.5 -31.5q79 0 142 10.5t120.5 38.5t96 73t61 117t22.5 168q0 118 -30 200t-87.5 128t-130 66t-168.5 20q-123 0 -209 -19.5t-174 -64.5l-90 27l39 682h848v-95h-756l-28 -514q57 33 158.5 55.5t228.5 22.5q115 0 202.5 -24 t157.5 -80t107 -157t37 -245q0 -119 -27.5 -208.5t-74 -145.5t-117.5 -90t-149 -47t-177 -13q-148 0 -265 34.5t-233 97.5z" />
<glyph unicode="6" horiz-adv-x="1386" d="M168 600q0 166 16.5 292.5t55 232t101 177t156 121.5t219 72.5t290.5 22.5h38v-95h-40q-163 0 -283.5 -26t-199.5 -72t-129.5 -122t-75.5 -163.5t-37 -208.5q123 187 473 187q141 0 239.5 -35.5t154.5 -105.5t80.5 -161.5t24.5 -215.5q0 -125 -26 -217.5t-84.5 -163 t-161 -106.5t-248.5 -36q-142 0 -243.5 32t-175 104t-109 193t-35.5 294zM272 557q0 -136 31.5 -232t93.5 -151t144 -79.5t192 -24.5q118 0 200 29.5t128 88t66 133.5t20 177t-20.5 177.5t-67 133.5t-128.5 87.5t-198 29.5q-206 0 -333.5 -95t-127.5 -274z" />
<glyph unicode="7" horiz-adv-x="1058" d="M53 1423v95h979v-86l-631 -1432h-106l627 1423h-869z" />
<glyph unicode="8" horiz-adv-x="1396" d="M150 424q0 169 71.5 274t212.5 140q-233 61 -233 336q0 89 26 155t83.5 115t154.5 73.5t235 24.5q137 0 233.5 -24.5t154 -73.5t83 -115t25.5 -155q0 -278 -231 -336q282 -75 282 -414q0 -449 -547 -449q-282 0 -416 113.5t-134 335.5zM254 428q0 -182 109 -271t337 -89 q224 0 333.5 89t109.5 271q0 183 -109.5 273t-333.5 90q-228 0 -337 -89.5t-109 -273.5zM303 1165q0 -145 92 -215.5t305 -70.5q210 0 302 70.5t92 215.5q0 144 -92.5 215.5t-301.5 71.5q-212 0 -304.5 -71.5t-92.5 -215.5z" />
<glyph unicode="9" horiz-adv-x="1386" d="M137 1020q0 125 26 217t84.5 162.5t161 106.5t248.5 36q142 0 244 -32t175 -103.5t109 -192.5t36 -294q0 -200 -24.5 -343.5t-81.5 -257t-153.5 -181.5t-239 -103t-339.5 -35h-41v94h43q163 0 283.5 26t199 73t129.5 123t75.5 163.5t35.5 208.5q-122 -186 -471 -186 q-141 0 -240 36t-155 106t-80.5 161.5t-24.5 214.5zM240 1020q0 -102 20.5 -177.5t67.5 -133.5t129 -87.5t198 -29.5q205 0 333 95.5t128 273.5q0 136 -31.5 232t-93.5 151t-143 79.5t-191 24.5q-119 0 -201.5 -29.5t-129 -87.5t-66.5 -133.5t-20 -177.5z" />
<glyph unicode=":" horiz-adv-x="497" d="M172 0v178h154v-178h-154zM172 944v176h154v-176h-154z" />
<glyph unicode=";" horiz-adv-x="497" d="M154 -160q58 33 78 65.5t20 94.5h-80v178h154v-141q0 -113 -28 -162.5t-110 -93.5zM172 944v176h154v-176h-154z" />
<glyph unicode="&#x3c;" horiz-adv-x="1409" d="M209 666v84l909 456v-96l-807 -401l807 -402v-100z" />
<glyph unicode="=" horiz-adv-x="1409" d="M238 463v96h933v-96h-933zM238 885v96h933v-96h-933z" />
<glyph unicode="&#x3e;" horiz-adv-x="1409" d="M291 207v100l807 400l-807 401v98l909 -456v-84z" />
<glyph unicode="?" horiz-adv-x="1335" d="M182 1427q95 54 230.5 84.5t269.5 30.5q143 0 237.5 -22.5t145.5 -69.5t70.5 -106.5t19.5 -147.5q0 -72 -17.5 -126.5t-59.5 -100.5t-86.5 -79t-123.5 -81q-48 -29 -78.5 -51.5t-55 -50.5t-36.5 -54.5t-18.5 -67t-6.5 -84.5t5 -110h-103q-7 101 -5.5 170t28 124t71.5 97 t124 90q65 40 100.5 64.5t70.5 54t50.5 57t25 62.5t9.5 80q0 65 -13 107t-51 78.5t-113.5 53.5t-193.5 17q-249 0 -449 -109zM549 0v170h153v-170h-153z" />
<glyph unicode="@" horiz-adv-x="2236" d="M201 600q0 458 227.5 701t689.5 243q464 0 694 -243.5t230 -700.5q0 -122 -9 -205.5t-30 -148.5t-59 -101.5t-93 -54.5t-135 -18q-66 0 -114 13.5t-74 33t-41.5 50t-19.5 56t-5 58.5q-51 -110 -147 -158.5t-262 -48.5q-441 0 -441 532q0 531 443 531q167 0 261.5 -47.5 t135.5 -153.5l21 197l73 -5v-794q0 -31 3 -55t14 -51.5t30 -45t54.5 -29.5t83.5 -12q60 0 100 16t67 47t41 88.5t19.5 128t5.5 177.5q0 423 -208.5 646.5t-637.5 223.5q-426 0 -632.5 -223.5t-206.5 -646.5q0 -419 207.5 -641.5t639.5 -222.5q332 0 576 121l35 -64 q-259 -131 -611 -131q-238 0 -415 62.5t-289 184t-166.5 294t-54.5 397.5zM711 608q0 -219 84.5 -332.5t269.5 -113.5q97 0 165.5 21.5t119 72t74.5 138t24 214.5q0 126 -24 211.5t-74 135.5t-118.5 71t-166.5 21q-185 0 -269.5 -111.5t-84.5 -327.5z" />
<glyph unicode="A" horiz-adv-x="1443" d="M61 0l609 1528h104l608 -1528h-108l-154 385h-801l-151 -385h-107zM356 483h727l-362 912z" />
<glyph unicode="B" horiz-adv-x="1409" d="M186 0v1518h645q455 0 455 -361q0 -135 -56.5 -228.5t-168.5 -127.5q262 -65 262 -379q0 -222 -125.5 -322t-384.5 -100h-627zM293 98h528q203 0 299.5 79t96.5 251q0 163 -96.5 240t-305.5 77h-522v-647zM293 844h541q99 0 168 23t106.5 65.5t53.5 94.5t16 120 q0 135 -82.5 203.5t-261.5 68.5h-541v-575z" />
<glyph unicode="C" horiz-adv-x="1454" d="M96 760q0 389 191 585.5t551 196.5q151 0 283.5 -45.5t228.5 -134.5l-74 -76q-86 76 -199 116t-239 40q-312 0 -472.5 -171t-160.5 -511q0 -682 633 -682q163 0 265.5 42.5t182.5 117.5l74 -74q-89 -86 -211.5 -136.5t-314.5 -50.5q-368 0 -553 197t-185 586z" />
<glyph unicode="D" horiz-adv-x="1519" d="M186 0v1518h482q216 0 356 -36.5t232 -125.5t130.5 -232t38.5 -364q0 -214 -43.5 -358t-141 -234t-243.5 -129t-362 -39h-449zM295 98h344q190 0 316.5 34.5t208.5 114.5t117.5 204t35.5 309q0 153 -20 260t-64.5 185.5t-121.5 124t-184 66.5t-259 21h-373v-1319z" />
<glyph unicode="E" horiz-adv-x="1277" d="M186 0v1518h963v-101h-854v-573h833v-101h-833v-645h862v-98h-971z" />
<glyph unicode="F" horiz-adv-x="1198" d="M186 0v1518h938v-101h-829v-579h811v-101h-811v-737h-109z" />
<glyph unicode="G" horiz-adv-x="1579" d="M96 760q0 402 188.5 592t553.5 190q337 0 532 -178l-74 -78q-181 156 -458 156q-315 0 -475 -167.5t-160 -514.5q0 -352 151 -519t482 -167q110 0 193 16t142 50.5t98 80.5t61 113.5t31 142.5t9 174v56h-541v100h648v-141q0 -93 -6.5 -165.5t-24 -146.5t-47 -128.5 t-78.5 -103.5t-116 -79.5t-160.5 -48t-210.5 -17.5q-384 0 -561 192.5t-177 590.5z" />
<glyph unicode="H" horiz-adv-x="1566" d="M186 0v1518h109v-670h979v670h106v-1518h-106v748h-979v-748h-109z" />
<glyph unicode="I" horiz-adv-x="505" d="M201 0v1518h104v-1518h-104z" />
<glyph unicode="J" horiz-adv-x="784" d="M68 0v98h122q168 0 240 75.5t72 240.5v1104h106v-1106q0 -215 -98.5 -314.5t-310.5 -99.5q-78 0 -131 2z" />
<glyph unicode="K" horiz-adv-x="1406" d="M186 0v1518h107v-885l827 885h127l-555 -594l629 -924h-121l-577 850l-330 -352v-498h-107z" />
<glyph unicode="L" horiz-adv-x="1183" d="M186 0v1518h109v-1420h825v-98h-934z" />
<glyph unicode="M" horiz-adv-x="1832" d="M186 0v1518h138l591 -1375l596 1375h136v-1518h-107v1341l-579 -1341h-93l-579 1341v-1341h-103z" />
<glyph unicode="N" horiz-adv-x="1568" d="M186 0v1518h121l973 -1346v1346h102v-1518h-98l-995 1374v-1374h-103z" />
<glyph unicode="O" horiz-adv-x="1695" d="M96 760q0 394 190.5 588t559.5 194q753 0 753 -782q0 -395 -191 -590t-562 -195q-368 0 -559 195.5t-191 589.5zM205 760q0 -684 641 -684q647 0 647 684q0 682 -647 682q-641 0 -641 -682z" />
<glyph unicode="P" horiz-adv-x="1413" d="M186 0v1518h645q244 0 365 -103t121 -332q0 -233 -120.5 -344.5t-360.5 -111.5h-543v-627h-107zM293 725h545q184 0 278 83.5t94 272.5q0 186 -93 262t-288 76h-536v-694z" />
<glyph unicode="Q" horiz-adv-x="1695" d="M96 760q0 399 184.5 590.5t565.5 191.5q383 0 568 -191.5t185 -590.5q0 -394 -180.5 -583.5t-554.5 -194.5q-2 -32 -2 -58q0 -37 4 -63q7 -45 33.5 -75t73 -41t125.5 -11h147v-94q-16 -2 -147 -2q-203 0 -274 75q-60 63 -60 210q0 29 2 61q-340 19 -505 209t-165 567z M205 760q0 -344 154 -514t487 -170q335 0 491 170t156 514q0 342 -156 512t-491 170q-333 0 -487 -169.5t-154 -512.5z" />
<glyph unicode="R" horiz-adv-x="1437" d="M186 0v1518h633q241 0 364.5 -102t123.5 -324q0 -404 -414 -433l389 -659h-115l-389 657h-485v-657h-107zM293 756h530q89 0 154.5 16t117 52.5t77.5 102.5t26 160q0 182 -96.5 257t-284.5 75h-524v-663z" />
<glyph unicode="S" horiz-adv-x="1415" d="M96 147l56 82q132 -84 264 -117.5t278 -33.5q243 0 363.5 80.5t120.5 255.5q0 58 -13 102.5t-47 77t-64.5 53t-95 39.5t-106.5 28t-130 26q-8 2 -14 3l-12 2q-79 15 -126 25t-110 28t-100 37.5t-78.5 49.5t-63 66.5t-36 87.5t-14.5 114q0 203 131.5 296t392.5 93 q310 0 502 -131l-57 -86q-177 119 -445 119q-214 0 -316 -69t-102 -220q0 -46 11 -83t28 -64t50 -50t64 -38t84.5 -30t96 -24.5t113.5 -23.5q226 -43 313 -74q159 -58 213 -172q35 -75 35 -180q0 -222 -147 -329t-439 -107q-165 0 -311.5 38t-288.5 129z" />
<glyph unicode="T" horiz-adv-x="1398" d="M63 1417v101h1274v-101h-583v-1417h-107v1417h-584z" />
<glyph unicode="U" horiz-adv-x="1570" d="M176 537v981h109v-973q0 -71 8.5 -128t29.5 -112t58 -95.5t90.5 -71.5t132 -46.5t178.5 -15.5q120 0 210 23.5t146 63.5t91 101t48 128t13 153v973h105v-981q0 -98 -15 -176t-55.5 -152.5t-107.5 -124t-177.5 -79.5t-257.5 -30q-107 0 -193.5 15.5t-149 42.5t-109.5 68 t-76 87t-46.5 105t-24.5 117t-7 127z" />
<glyph unicode="V" horiz-adv-x="1443" d="M63 1518h111l551 -1391l549 1391h108l-608 -1528h-104z" />
<glyph unicode="W" horiz-adv-x="2220" d="M82 1518h111l434 -1342l442 1342h88l440 -1342l437 1342h104l-498 -1528h-88l-442 1347l-440 -1347h-90z" />
<glyph unicode="X" horiz-adv-x="1406" d="M90 0l555 793l-508 725h117l453 -648l450 648h117l-512 -727l557 -791h-119l-500 713l-493 -713h-117z" />
<glyph unicode="Y" horiz-adv-x="1396" d="M35 1518h117l548 -813l549 813h113l-610 -906v-612h-107v608z" />
<glyph unicode="Z" horiz-adv-x="1345" d="M100 0v88l987 1329h-952v101h1082v-93l-986 -1327h1008v-98h-1139z" />
<glyph unicode="[" horiz-adv-x="913" d="M262 -338v1927h436v-94h-331v-1741h338v-92h-443z" />
<glyph unicode="\" horiz-adv-x="962" d="M0 1518h111l852 -1518h-111z" />
<glyph unicode="]" horiz-adv-x="913" d="M209 1495v94h442v-1927h-436v92h332v1741h-338z" />
<glyph unicode="^" d="M231 1264l310 301h125l311 -301h-113l-262 233l-262 -233h-109z" />
<glyph unicode="_" horiz-adv-x="927" d="M-76 -135h1080v-88h-1080v88z" />
<glyph unicode="`" d="M301 1544h131l313 -301h-104z" />
<glyph unicode="a" horiz-adv-x="1255" d="M102 307q0 97 26.5 165t80 115.5t145.5 74.5t212.5 39t291.5 12h74q-1 64 -5.5 108t-17 85t-35 66t-59 44t-88.5 27t-123 8q-99 0 -188.5 -29.5t-151.5 -71.5l-55 82q65 44 174.5 79.5t226.5 35.5q92 0 159.5 -10.5t114.5 -36.5t76.5 -59.5t45.5 -88t22 -114.5t6 -146 v-450q0 -100 19 -124t104 -24v-92q-8 -4 -41 -4q-98 0 -136 44.5t-38 143.5q-56 -108 -159.5 -158.5t-295.5 -50.5q-111 0 -188.5 24.5t-119 71t-59.5 103t-18 131.5zM205 313q0 -122 66 -182.5t229 -60.5q229 0 330.5 107.5t101.5 342.5v96h-70q-160 0 -267 -8.5t-186 -28 t-122 -55.5t-62.5 -86t-19.5 -125z" />
<glyph unicode="b" horiz-adv-x="1304" d="M166 2v1587h104v-647q47 109 152 157t295 48q109 0 191 -26.5t136.5 -75t88 -122t47.5 -161t14 -199.5q0 -113 -14.5 -200.5t-48.5 -161.5t-88.5 -122.5t-137 -75t-192.5 -26.5q-193 0 -294 46.5t-157 156.5l-18 -184zM270 559q0 -186 45 -292t136.5 -149.5t248.5 -43.5 q111 0 187.5 32t120.5 97t63 151t19 205q0 121 -18.5 207.5t-62 152.5t-120.5 98t-189 32q-117 0 -195.5 -24t-132.5 -80.5t-78 -150.5t-24 -235z" />
<glyph unicode="c" horiz-adv-x="1138" d="M111 563q0 143 25.5 246.5t85 181.5t162.5 117t251 39q243 0 387 -152l-74 -71q-125 125 -313 125q-229 0 -324.5 -121.5t-95.5 -366.5q0 -120 20.5 -207t68.5 -151.5t130 -96.5t201 -32q180 0 319 123l70 -68q-86 -76 -176 -114t-215 -38q-119 0 -209 26.5t-149 74.5 t-96 121.5t-52.5 161.5t-15.5 202z" />
<glyph unicode="d" horiz-adv-x="1304" d="M111 565q0 141 23.5 244t77.5 181t149 117.5t231 39.5q191 0 293.5 -47t148.5 -154v643h105v-1585l-82 -6l-13 190q-56 -112 -159.5 -160t-294.5 -48q-136 0 -230.5 39.5t-148.5 118.5t-77 182t-23 245zM215 565q0 -120 18.5 -206.5t62 -151.5t120 -97t188.5 -32 q156 0 247.5 44t137 150.5t45.5 292.5t-44.5 291.5t-136 149t-249.5 43.5q-112 0 -188.5 -31.5t-120 -96t-62 -150.5t-18.5 -206z" />
<glyph unicode="e" horiz-adv-x="1198" d="M111 563q0 106 13 188.5t47.5 159t91.5 126.5t149 80t215 30q91 0 162 -18.5t118 -46t80 -77t50 -94t26.5 -115t10.5 -122.5q1 -34 1 -81v-50h-864q1 -88 11 -154.5t38 -129t74 -102t122 -63.5t179 -24q129 0 207 29t159 89l58 -75q-87 -65 -186 -100.5t-238 -35.5 q-93 0 -168 15.5t-129 42.5t-94.5 69t-65.5 89.5t-40.5 109.5t-21 123.5t-5.5 136.5zM213 639h762q-2 42 -3.5 66.5t-5.5 62t-9.5 60t-15 53t-23 49.5t-32 41t-44 35t-57 25t-72 17t-88.5 5q-114 0 -194 -29.5t-125.5 -87t-66.5 -129t-26 -168.5z" />
<glyph unicode="f" horiz-adv-x="749" d="M68 1026v94h211v133q0 76 14 133.5t46.5 105t94 72.5t150.5 25h114v-94h-106q-61 0 -103 -18t-64.5 -53t-32 -76t-9.5 -95v-133h315v-94h-315v-1026h-104v1026h-211z" />
<glyph unicode="g" horiz-adv-x="1187" d="M70 -86q0 235 235 281q-39 13 -59.5 47.5t-20.5 81.5q0 80 58 145q-148 84 -148 305q0 190 106.5 281.5t333.5 91.5q72 0 121 -8l359 28v-88h-197q81 -44 120.5 -117t39.5 -188q0 -187 -108 -275.5t-335 -88.5q-121 0 -206 24q-45 -48 -45 -100q0 -58 50.5 -76t200.5 -18 q121 0 203.5 -7.5t147.5 -25.5t102 -50.5t55.5 -80.5t18.5 -117q0 -112 -47.5 -181t-166.5 -107t-321 -38q-265 0 -381 60t-116 221zM174 -74q0 -117 94 -161t301 -44q103 0 178 10t123 28.5t76.5 48t39.5 64.5t11 83q0 49 -15 82.5t-44 55t-83 33.5t-120 16.5t-166 4.5 t-173.5 -12.5t-115.5 -32t-66.5 -49.5t-32 -59t-7.5 -68zM238 774q0 -142 79 -207t258 -65t258.5 65t79.5 207q0 277 -338 277q-178 0 -257.5 -66.5t-79.5 -210.5z" />
<glyph unicode="h" horiz-adv-x="1241" d="M166 0v1589h104v-622q75 180 408 180q78 0 139 -11.5t103.5 -31t72.5 -52.5t47.5 -68t27 -86.5t12.5 -98.5t3 -113v-686h-104v674q0 55 -2 91t-9 79t-20.5 70t-37 55t-57.5 43.5t-84 25t-114 9.5q-79 0 -140.5 -13.5t-103.5 -41t-70 -62t-43.5 -82.5t-21.5 -97.5 t-6 -111.5v-639h-104z" />
<glyph unicode="i" horiz-adv-x="452" d="M174 0v1120h105v-1120h-105zM174 1284v199h105v-199h-105z" />
<glyph unicode="j" horiz-adv-x="452" d="M4 -252h8q101 1 131.5 38.5t30.5 145.5v1188h105v-1188q0 -80 -10 -128t-39 -82.5t-79 -48t-131 -13.5h-16v88zM174 1284v199h105v-199h-105z" />
<glyph unicode="k" horiz-adv-x="1071" d="M166 0v1589h102v-1134l592 665h117l-418 -473l463 -647h-115l-413 573l-226 -249v-324h-102z" />
<glyph unicode="l" horiz-adv-x="567" d="M174 244v1345h105v-1337q0 -94 23.5 -126t111.5 -32h51v-92q-24 -4 -80 -4q-65 0 -107 14.5t-64.5 47.5t-31 75.5t-8.5 108.5z" />
<glyph unicode="m" horiz-adv-x="2013" d="M166 0v1116l82 4l12 -157q77 184 408 184q95 0 162 -14t107 -41.5t61 -61t32 -80.5q85 197 430 197q78 0 138.5 -12t102 -30.5t70.5 -52.5t45.5 -68t25 -87t11 -98t2.5 -113v-686h-104v674q0 40 -0.5 64.5t-2.5 58.5t-7 55t-12.5 48t-19.5 43.5t-29 35.5t-40 29.5 t-52.5 20.5t-67 14t-82.5 4q-95 0 -163.5 -21t-109 -55t-64 -88.5t-31 -110.5t-7.5 -133v-639h-105v674q0 40 -0.5 64.5t-2.5 58.5t-7 55t-12.5 48t-19.5 43.5t-29 35.5t-40 29.5t-52.5 20.5t-67 14t-82.5 4q-95 0 -163.5 -21t-109 -55t-64 -88.5t-31 -110.5t-7.5 -133v-639 h-104z" />
<glyph unicode="n" horiz-adv-x="1241" d="M166 0v1116l82 4l12 -157q84 184 418 184q78 0 139 -11.5t103.5 -31t72.5 -52.5t47.5 -68t27 -86.5t12.5 -98.5t3 -113v-686h-104v674q0 55 -2 91t-9 79t-20.5 70t-37 55t-57.5 43.5t-84 25t-114 9.5q-79 0 -140.5 -13.5t-103.5 -41t-70 -62t-43.5 -82.5t-21.5 -97.5 t-6 -111.5v-639h-104z" />
<glyph unicode="o" horiz-adv-x="1273" d="M111 563q0 297 123.5 440.5t400.5 143.5q278 0 403 -144t125 -440q0 -297 -125 -441.5t-403 -144.5q-277 0 -400.5 144t-123.5 442zM215 561q0 -247 98.5 -367t321.5 -120q224 0 324 120t100 367t-100 367.5t-324 120.5q-222 0 -321 -120.5t-99 -367.5z" />
<glyph unicode="p" horiz-adv-x="1304" d="M166 -338v1454l82 4l12 -182q46 109 153.5 159t303.5 50q136 0 230 -39.5t147.5 -118t76.5 -181.5t23 -245q0 -112 -14 -199t-48 -160.5t-88.5 -121t-137.5 -74t-193 -26.5q-191 0 -294 47t-149 153v-520h-104zM270 561q0 -186 45 -291.5t136.5 -148.5t248.5 -43 q111 0 187.5 31.5t120.5 95.5t63 150t19 206t-18.5 206.5t-62.5 152t-120.5 97.5t-188.5 32q-156 0 -247.5 -43.5t-137 -150.5t-45.5 -294z" />
<glyph unicode="q" horiz-adv-x="1304" d="M111 565q0 141 23.5 244t77.5 181t149 117.5t231 39.5q193 0 294.5 -45.5t155.5 -153.5l19 195l78 -6v-1475h-105v518q-59 -109 -158 -154.5t-286 -45.5q-136 0 -230.5 39.5t-148.5 118.5t-77 182t-23 245zM215 565q0 -120 18.5 -206.5t62 -151.5t120 -97t188.5 -32 q156 0 247.5 44t137 150.5t45.5 292.5t-44.5 291.5t-136 149t-249.5 43.5q-112 0 -188.5 -31.5t-120 -96t-62 -150.5t-18.5 -206z" />
<glyph unicode="r" horiz-adv-x="706" d="M166 0v1116l82 4l12 -192q33 89 137.5 148t259.5 59v-103q-199 0 -293 -110t-94 -299v-623h-104z" />
<glyph unicode="s" horiz-adv-x="1038" d="M76 100l55 80q168 -108 393 -108q173 0 249.5 49.5t76.5 183.5q0 38 -7 65.5t-26 49.5t-40.5 37t-63.5 29.5t-82 24t-107 24.5q-63 14 -103 24t-87 25t-75.5 31t-57 39.5t-44 52t-25 66.5t-9.5 85q0 140 94 214.5t305 74.5q229 0 391 -94l-49 -86q-147 84 -340 84 q-163 0 -231 -50t-68 -145q0 -43 12.5 -74.5t33.5 -53.5t63 -39.5t85 -29.5t116 -28q66 -14 108 -24.5t91 -25.5t78.5 -31t59 -39.5t45 -52t25.5 -66.5t10 -85q0 -184 -104 -257t-328 -73q-257 0 -444 123z" />
<glyph unicode="t" horiz-adv-x="802" d="M68 1026v94h208l17 361l84 12v-373h323v-94h-323v-750q0 -48 5.5 -76.5t23 -55t54.5 -38.5t97 -12h143v-94q-8 -2 -155 -2q-87 0 -142.5 17.5t-83 55.5t-36.5 82.5t-9 114.5v758h-206z" />
<glyph unicode="u" horiz-adv-x="1230" d="M158 438v682h104v-684q0 -138 16 -194q32 -106 147 -143q77 -25 196 -25q74 0 130 10.5t93 24.5t62 44t38 53t19 69t7 73.5t1 84.5v13v674h102v-674q0 -54 -1 -89t-6 -80t-14 -74.5t-25 -64t-39 -56.5t-57 -44t-78 -34t-102.5 -19.5t-129.5 -7.5q-127 0 -215 24 t-136.5 60t-74 101.5t-31.5 123.5t-6 152z" />
<glyph unicode="v" horiz-adv-x="1069" d="M33 1120h108l396 -1005l395 1005h106l-448 -1130h-111z" />
<glyph unicode="w" horiz-adv-x="1767" d="M37 1120h106l361 -977l330 977h104l328 -975l360 975h105l-416 -1130h-101l-331 977l-330 -977h-100z" />
<glyph unicode="x" horiz-adv-x="1071" d="M51 0l426 586l-391 534h115l338 -463l335 463h113l-393 -536l428 -584h-117l-373 510l-370 -510h-111z" />
<glyph unicode="y" horiz-adv-x="1052" d="M33 1120h108l387 -993l387 993h105l-494 -1253q-42 -110 -103.5 -158.5t-166.5 -48.5h-94v88h88q71 0 110 30t66 101l47 123z" />
<glyph unicode="z" horiz-adv-x="1003" d="M76 0v84l708 942h-671v94h796v-84l-708 -944h733v-92h-858z" />
<glyph unicode="{" horiz-adv-x="989" d="M178 580v92q57 0 93.5 2t71.5 9t54 19.5t30 33.5t11 52q0 54 -57 265t-57 278q0 135 73 196.5t254 61.5h129v-94h-114q-95 0 -147.5 -20.5t-71.5 -58t-19 -103.5q0 -55 57.5 -264.5t57.5 -272.5q0 -118 -109 -149q57 -19 83 -55t26 -95q0 -64 -57.5 -273.5t-57.5 -264.5 q0 -100 49.5 -142.5t188.5 -42.5h114v-92h-129q-181 0 -254 61.5t-73 196.5q0 68 57 279t57 266q0 68 -57.5 91.5t-202.5 23.5z" />
<glyph unicode="|" horiz-adv-x="628" d="M262 -338v1927h105v-1927h-105z" />
<glyph unicode="}" horiz-adv-x="989" d="M209 -246h115q140 0 188.5 42t48.5 143q0 55 -57.5 264.5t-57.5 273.5q0 114 109 150q-109 33 -109 149q0 63 57.5 272.5t57.5 264.5q0 66 -18 103.5t-70.5 58t-148.5 20.5h-115v94h129q181 0 255.5 -62t74.5 -196q0 -67 -58.5 -277.5t-58.5 -265.5q0 -68 58 -91t202 -23 v-92q-141 0 -200.5 -22.5t-59.5 -94.5q0 -55 58.5 -266.5t58.5 -278.5q0 -134 -74.5 -196t-255.5 -62h-129v92z" />
<glyph unicode="~" d="M242 958q43 56 103 94t118 38q46 0 87.5 -15t67.5 -33.5t61 -33.5t69 -15q62 0 155 109l68 -53q-119 -146 -221 -146q-41 0 -81.5 15t-69 33t-65 33t-69.5 15q-38 0 -80.5 -27t-71.5 -67z" />
<glyph unicode="&#xa2;" horiz-adv-x="1124" d="M111 563q0 108 14.5 192.5t48 156t87 120t134 77.5t187.5 34v125h100v-125q206 -12 338 -148l-74 -69q-109 109 -270 121v-975q82 6 147 36.5t131 86.5l68 -66q-151 -135 -340 -145v-177h-100v177q-133 7 -225.5 48.5t-145.5 118t-76.5 176.5t-23.5 236zM213 561 q0 -233 85 -354.5t290 -134.5v975q-203 -12 -289 -133t-86 -353z" />
<glyph unicode="&#xa3;" horiz-adv-x="1214" d="M80 745v91h203q-52 213 -52 327q0 182 98 281.5t318 99.5q208 0 379 -76l-43 -90q-145 68 -338 68q-168 0 -238.5 -75.5t-70.5 -217.5q0 -111 51 -317h498v-91h-477q67 -270 67 -395q0 -119 -20 -180q184 -92 381 -92q61 0 98.5 11.5t57 40.5t26 65.5t6.5 97.5v45h96v-47 q0 -85 -12 -140t-43.5 -94.5t-86.5 -57t-140 -17.5q-116 0 -228.5 30.5t-199.5 77.5q-81 -90 -312 -90v92q76 0 126.5 10t81 27.5t46.5 51.5t20.5 70.5t4.5 96.5q0 115 -72 397h-225z" />
<glyph unicode="&#xa5;" horiz-adv-x="1245" d="M37 1518h110l476 -777l475 777h110l-534 -869v-65h444v-92h-444v-205h444v-94h-444v-193h-103v193h-442v94h442v205h-442v92h442v65z" />
<glyph unicode="&#xa8;" d="M346 1245v185h98v-185h-98zM766 1245v185h98v-185h-98z" />
<glyph unicode="&#xa9;" horiz-adv-x="1718" d="M98 760q0 177 47.5 320.5t140 247t237.5 160t333 56.5t333.5 -56.5t239 -160t141.5 -247t48 -320.5t-48 -320t-141.5 -247.5t-239 -161t-333.5 -56.5t-333 56.5t-237.5 161t-140 247.5t-47.5 320zM162 760q0 -164 42.5 -295.5t126.5 -227.5t217.5 -148t307.5 -52t308 52 t219 148t128 227.5t43 295.5t-43 296t-128 228t-219 147.5t-308 51.5t-307.5 -51.5t-217.5 -147.5t-126.5 -227.5t-42.5 -296.5zM365 768q0 263 134 399t373 136q97 0 191 -32t160 -91l-58 -60q-56 50 -135 77.5t-160 27.5q-200 0 -312 -116.5t-112 -340.5 q0 -226 110.5 -342.5t315.5 -116.5q189 0 302 105l55 -56q-137 -129 -359 -129q-244 0 -374.5 137t-130.5 402z" />
<glyph unicode="&#xab;" horiz-adv-x="1331" d="M193 559l309 561h96l-305 -561l305 -559h-96zM686 559l309 561h97l-306 -561l306 -559h-97z" />
<glyph unicode="&#xad;" horiz-adv-x="942" d="M117 567v97h710v-97h-710z" />
<glyph unicode="&#xae;" horiz-adv-x="1718" d="M98 760q0 177 47.5 320.5t140 247t237.5 160t333 56.5t333.5 -56.5t239 -160t141.5 -247t48 -320.5t-48 -320t-141.5 -247.5t-239 -161t-333.5 -56.5t-333 56.5t-237.5 161t-140 247.5t-47.5 320zM162 760q0 -164 42.5 -295.5t126.5 -227.5t217.5 -148t307.5 -52t308 52 t219 148t128 227.5t43 295.5t-43 296t-128 228t-219 147.5t-308 51.5t-307.5 -51.5t-217.5 -147.5t-126.5 -227.5t-42.5 -296.5zM500 238v1034h430q174 0 252 -67.5t78 -221.5q0 -143 -66.5 -212.5t-206.5 -80.5l270 -452h-83l-269 452h-325v-452h-80zM580 762h352 q127 0 188.5 49.5t61.5 169.5t-61 169.5t-191 49.5h-350v-438z" />
<glyph unicode="&#xb4;" d="M463 1243l315 301h131l-340 -301h-106z" />
<glyph unicode="&#xb8;" d="M399 -389l37 65q83 -47 187 -47q101 0 135.5 32.5t34.5 84.5q0 40 -14.5 62t-57.5 32t-123 6l-41 31l27 139h75l-18 -110q52 3 90 -1t73.5 -20t54 -52t18.5 -91q0 -39 -11 -70t-37 -58.5t-77.5 -42.5t-126.5 -15q-131 0 -226 55z" />
<glyph unicode="&#xbb;" horiz-adv-x="1331" d="M242 0l305 561l-305 559h96l309 -559l-309 -561h-96zM735 0l303 561l-303 559h96l310 -559l-310 -561h-96z" />
<glyph unicode="&#x2c6;" d="M231 1243l310 301h125l311 -301h-113l-262 234l-262 -234h-109z" />
<glyph unicode="&#x2da;" d="M373 1460q0 106 58 172t173 66q111 0 170.5 -66.5t59.5 -171.5t-59 -170t-171 -65q-115 0 -173 64t-58 171zM444 1460q0 -75 39.5 -120.5t120.5 -45.5q80 0 120 45.5t40 120.5t-40 120.5t-120 45.5q-81 0 -120.5 -45.5t-39.5 -120.5z" />
<glyph unicode="&#x2dc;" d="M242 1305q43 55 103 93t118 38q46 0 87.5 -15t67.5 -33.5t61 -33.5t69 -15q62 0 155 109l68 -53q-119 -146 -221 -146q-41 0 -81.5 15t-69 33.5t-65 33.5t-69.5 15q-38 0 -80.5 -27.5t-71.5 -67.5z" />
<glyph unicode="&#x401;" horiz-adv-x="1277" d="M186 0v1518h963v-101h-854v-573h833v-101h-833v-645h862v-98h-971zM379 1614v184h98v-184h-98zM799 1614v184h98v-184h-98z" />
<glyph unicode="&#x402;" horiz-adv-x="1761" d="M63 1417v101h1274v-101h-583v-450q79 180 407 180q78 0 138.5 -11.5t103.5 -31t73 -52.5t47.5 -68t27.5 -86.5t13 -98.5t3 -113v-754q0 -79 -10.5 -128t-39 -83t-79 -47.5t-131.5 -13.5h-19v88h10q101 1 131.5 38.5t30.5 145.5v742q0 55 -2 91t-9 79t-20 70t-36.5 55 t-57.5 43.5t-83 25t-113 9.5q-93 0 -161.5 -19.5t-110.5 -53t-67.5 -85t-35 -107t-10.5 -127.5v-655h-107v1417h-584z" />
<glyph unicode="&#x403;" horiz-adv-x="1185" d="M186 0v1518h934v-101h-825v-1417h-109zM451 1612l315 301h131l-340 -301h-106z" />
<glyph unicode="&#x404;" horiz-adv-x="1454" d="M96 760q0 386 195.5 584t542.5 198q147 0 284 -46t232 -134l-72 -76q-83 75 -200.5 115.5t-239.5 40.5q-287 0 -451.5 -155.5t-181.5 -457.5h997v-100h-999q7 -321 170 -486t461 -165q286 0 454 160l72 -74q-195 -187 -526 -187q-358 0 -548 198.5t-190 584.5z" />
<glyph unicode="&#x405;" horiz-adv-x="1415" d="M96 147l56 82q132 -84 264 -117.5t278 -33.5q243 0 363.5 80.5t120.5 255.5q0 58 -13 102.5t-47 77t-64.5 53t-95 39.5t-106.5 28t-130 26q-8 2 -14 3l-12 2q-79 15 -126 25t-110 28t-100 37.5t-78.5 49.5t-63 66.5t-36 87.5t-14.5 114q0 203 131.5 296t392.5 93 q310 0 502 -131l-57 -86q-177 119 -445 119q-214 0 -316 -69t-102 -220q0 -46 11 -83t28 -64t50 -50t64 -38t84.5 -30t96 -24.5t113.5 -23.5q226 -43 313 -74q159 -58 213 -172q35 -75 35 -180q0 -222 -147 -329t-439 -107q-165 0 -311.5 38t-288.5 129z" />
<glyph unicode="&#x406;" horiz-adv-x="505" d="M201 0v1518h104v-1518h-104z" />
<glyph unicode="&#x407;" horiz-adv-x="505" d="M-4 1614v184h98v-184h-98zM201 0v1518h104v-1518h-104zM416 1614v184h98v-184h-98z" />
<glyph unicode="&#x408;" horiz-adv-x="784" d="M68 0v98h122q168 0 240 75.5t72 240.5v1104h106v-1106q0 -215 -98.5 -314.5t-310.5 -99.5q-78 0 -131 2z" />
<glyph unicode="&#x409;" horiz-adv-x="2584" d="M94 2v96h53q86 0 110 33t24 127v1260h1183v-652h539q246 0 365.5 -97t119.5 -325q0 -230 -121 -337t-362 -107h-647v1419h-971v-1175q0 -66 -8.5 -108.5t-31 -75.5t-64.5 -47.5t-107 -14.5q-74 0 -82 4zM1464 96h545q186 0 279.5 79.5t93.5 266.5q0 95 -24 159.5 t-74.5 101.5t-118 52t-164.5 15h-537v-674z" />
<glyph unicode="&#x40a;" horiz-adv-x="2500" d="M186 0v1518h109v-670h979v670h104v-652h539q246 0 365.5 -97t119.5 -325q0 -231 -120 -337.5t-361 -106.5h-647v743h-979v-743h-109zM1378 96h545q186 0 279.5 79.5t93.5 266.5q0 95 -24 159.5t-74 101.5t-117 52t-164 15h-539v-674z" />
<glyph unicode="&#x40b;" horiz-adv-x="1761" d="M63 1417v101h1274v-101h-583v-450q79 180 407 180q78 0 138.5 -11.5t103.5 -31t73 -52.5t47.5 -68t27.5 -86.5t13 -98.5t3 -113v-686h-107v674q0 55 -2 91t-9 79t-20 70t-36.5 55t-57.5 43.5t-83 25t-113 9.5q-93 0 -161.5 -19.5t-110.5 -53t-67.5 -85t-35 -107 t-10.5 -127.5v-655h-107v1417h-584z" />
<glyph unicode="&#x40c;" horiz-adv-x="1409" d="M186 0v1518h107v-629h301l532 629h123l-571 -676l645 -842h-125l-602 786h-303v-786h-107zM559 1612l315 301h132l-340 -301h-107z" />
<glyph unicode="&#x40e;" horiz-adv-x="1402" d="M63 1518h111l555 -1039l526 1039h107l-670 -1309q-30 -60 -53.5 -95.5t-54 -64t-68.5 -40t-90 -11.5q-89 0 -107 2v96h95q69 0 104 28t74 105l78 152zM332 1864l86 18q10 -43 26 -75t46.5 -62t83 -46t124.5 -16q71 0 123.5 16t83 46t47 62t27.5 75l86 -16 q-10 -46 -25 -82.5t-43 -73.5t-66.5 -61.5t-98 -40t-134.5 -15.5q-93 0 -161.5 22t-108.5 63t-61.5 84.5t-34.5 101.5z" />
<glyph unicode="&#x40f;" horiz-adv-x="1556" d="M186 0v1518h109v-1420h969v1420h106v-1518h-536v-340h-109v340h-539z" />
<glyph unicode="&#x410;" horiz-adv-x="1447" d="M61 0l609 1528h104l608 -1528h-108l-154 385h-801l-151 -385h-107zM356 483h727l-362 912z" />
<glyph unicode="&#x411;" horiz-adv-x="1423" d="M186 0v1518h947v-101h-842v-561h540q248 0 367 -94.5t119 -321.5q0 -231 -119.5 -335.5t-361.5 -104.5h-650zM291 96h547q186 0 279 77t93 263q0 96 -24 160t-74.5 99.5t-117.5 50t-165 14.5h-538v-664z" />
<glyph unicode="&#x412;" horiz-adv-x="1409" d="M186 0v1518h645q455 0 455 -361q0 -135 -56.5 -228.5t-168.5 -127.5q262 -65 262 -379q0 -222 -125.5 -322t-384.5 -100h-627zM293 98h528q203 0 299.5 79t96.5 251q0 163 -96.5 240t-305.5 77h-522v-647zM293 844h541q99 0 168 23t106.5 65.5t53.5 94.5t16 120 q0 135 -82.5 203.5t-261.5 68.5h-541v-575z" />
<glyph unicode="&#x413;" horiz-adv-x="1185" d="M186 0v1518h934v-101h-825v-1417h-109z" />
<glyph unicode="&#x414;" horiz-adv-x="1763" d="M102 98h56q85 0 109 33t24 127v1260h1182v-1420h188v-438h-109v340h-1343v-340h-107v438zM352 96h1014v1323h-969v-1165q0 -44 -1.5 -65.5t-12 -49t-31.5 -43.5z" />
<glyph unicode="&#x415;" horiz-adv-x="1277" d="M186 0v1518h963v-101h-854v-573h833v-101h-833v-645h862v-98h-971z" />
<glyph unicode="&#x416;" horiz-adv-x="2340" d="M86 0l645 844l-567 674h125l532 -629h299v629h105v-629h299l532 629h125l-571 -676l645 -842h-125l-604 786h-301v-786h-105v786h-307l-602 -786h-125z" />
<glyph unicode="&#x417;" horiz-adv-x="1327" d="M61 111l54 86q228 -121 544 -121q130 0 216 16.5t145.5 57.5t86 110t26.5 174q0 51 -5.5 89.5t-19.5 76t-38.5 64.5t-63.5 50t-93 37t-127.5 21.5t-167.5 7.5h-311v99h307q181 0 285 31t147.5 95t43.5 173q0 148 -100 207t-331 59q-129 0 -268 -29t-233 -82l-54 86 q100 60 256 91.5t304 31.5q275 0 403.5 -79t128.5 -271q0 -155 -58.5 -235.5t-201.5 -116.5q92 -19 152 -52.5t93 -86.5t45.5 -116.5t12.5 -154.5q0 -129 -35.5 -217t-110 -140.5t-178 -75t-251.5 -22.5q-364 0 -603 136z" />
<glyph unicode="&#x418;" horiz-adv-x="1568" d="M186 0v1518h101v-1342l977 1342h118v-1518h-100v1370l-997 -1370h-99z" />
<glyph unicode="&#x419;" horiz-adv-x="1568" d="M186 0v1518h101v-1342l977 1342h118v-1518h-100v1370l-997 -1370h-99zM416 1864l86 18q10 -43 26 -75t46.5 -62t83 -46t124.5 -16q71 0 123.5 16t83 46t47 62t27.5 75l86 -16q-10 -46 -25 -82.5t-43 -73.5t-66.5 -61.5t-98 -40t-134.5 -15.5q-93 0 -161.5 22t-108.5 63 t-61.5 84.5t-34.5 101.5z" />
<glyph unicode="&#x41a;" horiz-adv-x="1409" d="M186 0v1518h107v-629h301l532 629h123l-571 -676l645 -842h-125l-602 786h-303v-786h-107z" />
<glyph unicode="&#x41b;" horiz-adv-x="1660" d="M102 2v96h54q45 0 71.5 7.5t40 29t17.5 48t4 75.5v1260h1186v-1518h-109v1419h-969v-1175q0 -131 -43.5 -188.5t-169.5 -57.5q-70 0 -82 4z" />
<glyph unicode="&#x41c;" horiz-adv-x="1832" d="M186 0v1518h138l591 -1375l596 1375h136v-1518h-107v1341l-579 -1341h-93l-579 1341v-1341h-103z" />
<glyph unicode="&#x41d;" horiz-adv-x="1566" d="M186 0v1518h109v-670h979v670h106v-1518h-106v748h-979v-748h-109z" />
<glyph unicode="&#x41e;" horiz-adv-x="1695" d="M96 760q0 394 190.5 588t559.5 194q753 0 753 -782q0 -395 -191 -590t-562 -195q-368 0 -559 195.5t-191 589.5zM205 760q0 -684 641 -684q647 0 647 684q0 682 -647 682q-641 0 -641 -682z" />
<glyph unicode="&#x41f;" horiz-adv-x="1556" d="M186 0v1518h1184v-1518h-106v1419h-971v-1419h-107z" />
<glyph unicode="&#x420;" horiz-adv-x="1413" d="M186 0v1518h645q244 0 365 -103t121 -332q0 -233 -120.5 -344.5t-360.5 -111.5h-543v-627h-107zM293 725h545q184 0 278 83.5t94 272.5q0 186 -93 262t-288 76h-536v-694z" />
<glyph unicode="&#x421;" horiz-adv-x="1454" d="M96 760q0 389 191 585.5t551 196.5q151 0 283.5 -45.5t228.5 -134.5l-74 -76q-86 76 -199 116t-239 40q-312 0 -472.5 -171t-160.5 -511q0 -682 633 -682q163 0 265.5 42.5t182.5 117.5l74 -74q-89 -86 -211.5 -136.5t-314.5 -50.5q-368 0 -553 197t-185 586z" />
<glyph unicode="&#x422;" horiz-adv-x="1398" d="M63 1417v101h1274v-101h-583v-1417h-107v1417h-584z" />
<glyph unicode="&#x423;" horiz-adv-x="1402" d="M63 1518h111l555 -1039l526 1039h107l-670 -1309q-30 -60 -53.5 -95.5t-54 -64t-68.5 -40t-90 -11.5q-89 0 -107 2v96h95q69 0 104 28t74 105l78 152z" />
<glyph unicode="&#x424;" horiz-adv-x="1798" d="M96 760q0 295 191.5 464t556.5 179v115h108v-115q365 -10 557.5 -179t192.5 -464q0 -296 -192 -463.5t-558 -177.5v-119h-108v119q-364 10 -556 177.5t-192 463.5zM203 758q0 -240 161.5 -385.5t479.5 -157.5v1088q-319 -12 -480 -157.5t-161 -387.5zM952 215 q320 12 481.5 157t161.5 386q0 243 -161.5 388t-481.5 157v-1088z" />
<glyph unicode="&#x425;" horiz-adv-x="1406" d="M90 0l555 793l-508 725h117l453 -648l450 648h117l-512 -727l557 -791h-119l-500 713l-493 -713h-117z" />
<glyph unicode="&#x426;" horiz-adv-x="1660" d="M186 0v1518h109v-1420h969v1420h106v-1420h189v-438h-109v340h-1264z" />
<glyph unicode="&#x427;" horiz-adv-x="1468" d="M139 965v553h105v-539q0 -62 6 -108.5t23 -91.5t47.5 -75.5t78 -54.5t117.5 -35.5t162 -11.5q117 0 204.5 20.5t142.5 56t89 89t47 112.5t13 134v504h108v-1518h-108v721q-35 -90 -167.5 -155.5t-351.5 -65.5q-131 0 -225 23t-149.5 60.5t-88 99.5t-43 127t-10.5 155z " />
<glyph unicode="&#x428;" horiz-adv-x="2375" d="M186 0v1522h109v-1424h840v1424h108v-1424h840v1424h106v-1522h-2003z" />
<glyph unicode="&#x429;" horiz-adv-x="2478" d="M186 0v1522h109v-1424h840v1424h108v-1424h840v1424h106v-1424h187v-438h-107v340h-2083z" />
<glyph unicode="&#x42a;" horiz-adv-x="1492" d="M80 1417v101h293v-652h538q246 0 366 -97t120 -325q0 -231 -120.5 -337.5t-361.5 -106.5h-649v1417h-186zM373 96h545q186 0 279 79t93 267q0 95 -24 159.5t-74.5 101.5t-118 52t-164.5 15h-536v-674z" />
<glyph unicode="&#x42b;" horiz-adv-x="1767" d="M186 0v1518h107v-652h538q246 0 366 -97t120 -325q0 -231 -120 -337.5t-361 -106.5h-650zM293 96h545q186 0 279 79t93 267q0 95 -24 159.5t-74.5 101.5t-118 52t-164.5 15h-536v-674zM1475 0v1518h106v-1518h-106z" />
<glyph unicode="&#x42c;" horiz-adv-x="1413" d="M186 0v1518h107v-652h538q246 0 366 -97t120 -325q0 -231 -120 -337.5t-361 -106.5h-650zM293 96h545q186 0 279 79t93 267q0 95 -24 159.5t-74.5 101.5t-118 52t-164.5 15h-536v-674z" />
<glyph unicode="&#x42d;" horiz-adv-x="1454" d="M94 164l72 74q168 -160 455 -160q296 0 459.5 165t170.5 486h-1001v100h999q-19 302 -183.5 457.5t-449.5 155.5q-122 0 -239.5 -40.5t-200.5 -115.5l-72 76q96 88 232 134t285 46q347 0 542 -198t195 -584q0 -385 -190.5 -584t-546.5 -199q-332 0 -527 187z" />
<glyph unicode="&#x42e;" horiz-adv-x="2172" d="M186 0v1518h109v-687h285q34 711 743 711q754 0 754 -782q0 -395 -191.5 -590t-562.5 -195q-733 0 -745 756h-283v-731h-109zM680 760q0 -684 643 -684q645 0 645 684q0 682 -645 682q-321 0 -482 -172t-161 -510z" />
<glyph unicode="&#x42f;" horiz-adv-x="1437" d="M131 1092q0 222 122.5 324t364.5 102h633v-1518h-106v657h-488l-387 -657h-114l389 659q-414 28 -414 433zM238 1087q0 -94 26.5 -160t78 -102.5t117 -52.5t154.5 -16h531v665h-524q-188 0 -285.5 -76t-97.5 -258z" />
<glyph unicode="&#x430;" horiz-adv-x="1255" d="M102 307q0 97 26.5 165t80 115.5t145.5 74.5t212.5 39t291.5 12h74q-1 64 -5.5 108t-17 85t-35 66t-59 44t-88.5 27t-123 8q-99 0 -188.5 -29.5t-151.5 -71.5l-55 82q65 44 174.5 79.5t226.5 35.5q92 0 159.5 -10.5t114.5 -36.5t76.5 -59.5t45.5 -88t22 -114.5t6 -146 v-450q0 -100 19 -124t104 -24v-92q-8 -4 -41 -4q-98 0 -136 44.5t-38 143.5q-56 -108 -159.5 -158.5t-295.5 -50.5q-111 0 -188.5 24.5t-119 71t-59.5 103t-18 131.5zM205 313q0 -122 66 -182.5t229 -60.5q229 0 330.5 107.5t101.5 342.5v96h-70q-160 0 -267 -8.5t-186 -28 t-122 -55.5t-62.5 -86t-19.5 -125z" />
<glyph unicode="&#x431;" horiz-adv-x="1273" d="M111 571v283q0 110 12 203t32.5 162.5t52 125.5t66 94t80 66t87.5 44t95 25t97 12t98 3h139v-94h-137q-65 0 -118 -6t-108 -23t-97 -44.5t-80 -72t-62.5 -104.5t-38.5 -144t-14 -188q52 111 159 166.5t283 55.5q140 0 238 -38t156.5 -114t85 -180.5t26.5 -247.5 q0 -291 -123.5 -434.5t-400.5 -143.5t-402.5 144.5t-125.5 449.5zM215 555q0 -245 100 -363t324 -118q223 0 321.5 118t98.5 363q0 247 -98.5 365t-321.5 118q-225 0 -324.5 -118.5t-99.5 -364.5z" />
<glyph unicode="&#x432;" horiz-adv-x="1218" d="M166 0v1120h553q189 0 272.5 -59t83.5 -205q0 -111 -34 -174t-126 -88q101 -25 145 -91.5t44 -191.5q0 -93 -24 -154t-76 -95.5t-122.5 -48t-176.5 -13.5h-539zM266 92h445q155 0 222.5 48t67.5 179q0 122 -68.5 172t-225.5 50h-441v-449zM266 633h453q144 0 199 52.5 t55 158.5q0 101 -58.5 141.5t-195.5 40.5h-453v-393z" />
<glyph unicode="&#x433;" horiz-adv-x="1007" d="M166 0v1120h792v-94h-688v-1026h-104z" />
<glyph unicode="&#x434;" horiz-adv-x="1480" d="M94 94h53q86 0 110 32t24 126v868h919v-1026h186v-434h-100v340h-1091v-340h-101v434zM340 90h756v936h-711v-778q0 -62 -8.5 -97t-36.5 -61z" />
<glyph unicode="&#x435;" horiz-adv-x="1198" d="M111 563q0 106 13 188.5t47.5 159t91.5 126.5t149 80t215 30q91 0 162 -18.5t118 -46t80 -77t50 -94t26 -115t11 -122t1 -131.5h-864q1 -88 11 -154.5t38 -129t74 -102t122 -63.5t179 -24q129 0 207 29t159 89l58 -75q-87 -65 -186 -100.5t-238 -35.5q-93 0 -168 15.5 t-129 42.5t-94.5 69t-65.5 89.5t-40.5 109.5t-21 123.5t-5.5 136.5zM213 639h762q-2 42 -3.5 66.5t-5.5 62t-9.5 60t-15 53t-23 49.5t-32 41t-44 35t-57 25t-72 17t-88.5 5q-114 0 -194 -29.5t-125.5 -87t-66.5 -129t-26 -168.5z" />
<glyph unicode="&#x436;" horiz-adv-x="1724" d="M49 0l469 614l-424 506h123l387 -456h207v456h102v-456h207l387 456h123l-424 -506l469 -614h-123l-430 561h-209v-561h-102v561h-209l-430 -561h-123z" />
<glyph unicode="&#x437;" horiz-adv-x="1116" d="M57 78l47 82q164 -88 424 -88q209 0 289 50t80 197q0 56 -7 91t-30.5 68t-67 50.5t-116.5 28t-180 10.5h-246v97h242q115 0 185.5 9.5t113 34.5t58 62.5t15.5 99.5q0 109 -73 146t-265 37q-105 0 -212 -21t-177 -61l-53 84q82 45 206.5 68.5t246.5 23.5 q239 0 336.5 -55.5t97.5 -206.5q0 -113 -39 -174t-137 -88q53 -13 90.5 -33.5t60 -45.5t35 -62t16.5 -75t4 -92q0 -101 -26 -166.5t-85 -104t-143 -54t-212 -15.5q-298 0 -478 103z" />
<glyph unicode="&#x438;" horiz-adv-x="1251" d="M166 0v1120h100v-952l703 952h118v-1120h-102v979l-721 -979h-98z" />
<glyph unicode="&#x439;" horiz-adv-x="1251" d="M166 0v1120h100v-952l703 952h118v-1120h-102v979l-721 -979h-98zM258 1495l86 18q10 -43 26 -75t47 -61.5t83.5 -45.5t124.5 -16t123.5 16t82 45.5t47 61.5t27.5 75l86 -16q-13 -58 -34.5 -102t-61.5 -85t-108.5 -63t-161.5 -22q-75 0 -134.5 15.5t-98 40t-66.5 61 t-43 72.5t-25 81z" />
<glyph unicode="&#x43a;" horiz-adv-x="1079" d="M166 0v1120h102v-456h207l387 456h123l-424 -506l469 -614h-123l-430 561h-209v-561h-102z" />
<glyph unicode="&#x43b;" horiz-adv-x="1366" d="M94 2v92h53q87 0 111.5 32.5t24.5 125.5v868h917v-1120h-104v1026h-711v-782q0 -66 -8 -108.5t-30.5 -75.5t-64 -47.5t-106.5 -14.5q-74 0 -82 4z" />
<glyph unicode="&#x43c;" horiz-adv-x="1443" d="M166 0v1120h129l446 -987l447 987h127v-1120h-105v950l-430 -950h-88l-428 950v-950h-98z" />
<glyph unicode="&#x43d;" horiz-adv-x="1251" d="M166 0v1120h104v-487h711v487h104v-1120h-104v535h-711v-535h-104z" />
<glyph unicode="&#x43e;" horiz-adv-x="1273" d="M111 563q0 297 123.5 440.5t400.5 143.5q278 0 403 -144t125 -440q0 -297 -125 -441.5t-403 -144.5q-277 0 -400.5 144t-123.5 442zM215 561q0 -247 98.5 -367t321.5 -120q224 0 324 120t100 367t-100 367.5t-324 120.5q-222 0 -321 -120.5t-99 -367.5z" />
<glyph unicode="&#x43f;" horiz-adv-x="1249" d="M166 0v1120h917v-1120h-102v1026h-713v-1026h-102z" />
<glyph unicode="&#x440;" horiz-adv-x="1304" d="M166 -338v1454l82 4l12 -182q46 109 153.5 159t303.5 50q136 0 230 -39.5t147.5 -118t76.5 -181.5t23 -245q0 -112 -14 -199t-48 -160.5t-88.5 -121t-137.5 -74t-193 -26.5q-191 0 -294 47t-149 153v-520h-104zM270 561q0 -186 45 -291.5t136.5 -148.5t248.5 -43 q111 0 187.5 31.5t120.5 95.5t63 150t19 206t-18.5 206.5t-62.5 152t-120.5 97.5t-188.5 32q-156 0 -247.5 -43.5t-137 -150.5t-45.5 -294z" />
<glyph unicode="&#x441;" horiz-adv-x="1138" d="M111 563q0 143 25.5 246.5t85 181.5t162.5 117t251 39q243 0 387 -152l-74 -71q-125 125 -313 125q-229 0 -324.5 -121.5t-95.5 -366.5q0 -120 20.5 -207t68.5 -151.5t130 -96.5t201 -32q180 0 319 123l70 -68q-86 -76 -176 -114t-215 -38q-119 0 -209 26.5t-149 74.5 t-96 121.5t-52.5 161.5t-15.5 202z" />
<glyph unicode="&#x442;" horiz-adv-x="1077" d="M51 1026v94h977v-94h-436v-1026h-105v1026h-436z" />
<glyph unicode="&#x443;" horiz-adv-x="1052" d="M33 1120h108l387 -993l387 993h105l-494 -1253q-42 -110 -103.5 -158.5t-166.5 -48.5h-94v88h88q71 0 110 30t66 101l47 123z" />
<glyph unicode="&#x444;" horiz-adv-x="2170" d="M111 565q0 141 23.5 244t77.5 181t149 117.5t231 39.5q191 0 293.5 -46.5t148.5 -152.5v641h101v-643q46 105 152 153t296 48q136 0 230 -39.5t147.5 -118t76.5 -181.5t23 -245q0 -112 -14 -199t-48 -160.5t-88.5 -121t-137.5 -74t-193 -26.5q-191 0 -293.5 47 t-150.5 153v-520h-101v522q-56 -109 -158 -156.5t-286 -47.5q-136 0 -230.5 39.5t-148.5 118.5t-77 182t-23 245zM215 565q0 -120 18.5 -206.5t62 -151.5t120 -97t188.5 -32q156 0 247.5 44t137 150.5t45.5 292.5t-44.5 291.5t-136 149t-249.5 43.5q-112 0 -188.5 -31.5 t-120 -96t-62 -150.5t-18.5 -206zM1135 561q0 -186 45.5 -291.5t137 -148.5t249.5 -43q111 0 187.5 31.5t120 95.5t62.5 150t19 206q0 96 -11.5 169t-38.5 135t-71 101.5t-111 61t-157 21.5q-156 0 -248 -43.5t-138 -150.5t-46 -294z" />
<glyph unicode="&#x445;" horiz-adv-x="1071" d="M51 0l426 586l-391 534h115l338 -463l335 463h113l-393 -536l428 -584h-117l-373 510l-370 -510h-111z" />
<glyph unicode="&#x446;" horiz-adv-x="1363" d="M166 0v1120h104v-1028h711v1028h102v-1026h189v-434h-103v340h-1003z" />
<glyph unicode="&#x447;" horiz-adv-x="1245" d="M127 760v360h102v-346q0 -74 6.5 -124.5t27 -101t57 -80.5t99.5 -48.5t152 -18.5q95 0 167 20.5t116.5 55t72 87.5t38 111t10.5 132v313h104v-1120h-104v485q-34 -84 -138.5 -135t-287.5 -51q-91 0 -159.5 14.5t-114 44.5t-75.5 68t-45.5 93.5t-21.5 110.5t-6 130z" />
<glyph unicode="&#x448;" horiz-adv-x="2019" d="M166 0v1120h104v-1028h688v1028h105v-1028h688v1028h102v-1120h-1687z" />
<glyph unicode="&#x449;" horiz-adv-x="2134" d="M166 0v1120h104v-1028h688v1028h105v-1028h688v1028h102v-1026h187v-434h-98v340h-1776z" />
<glyph unicode="&#x44a;" horiz-adv-x="1339" d="M94 1026v94h291v-377h471q371 0 371 -364q0 -188 -95 -283.5t-274 -95.5h-577v1026h-187zM385 90h463q274 0 274 287q0 145 -69.5 209.5t-208.5 64.5h-459v-561z" />
<glyph unicode="&#x44b;" horiz-adv-x="1527" d="M166 0v1120h102v-377h473q371 0 371 -364q0 -188 -96 -283.5t-273 -95.5h-577zM268 90h465q275 0 275 287q0 145 -70 209.5t-209 64.5h-461v-561zM1257 0v1120h105v-1120h-105z" />
<glyph unicode="&#x44c;" horiz-adv-x="1224" d="M166 0v1120h102v-377h473q371 0 371 -364q0 -188 -96 -283.5t-273 -95.5h-577zM268 90h465q275 0 275 287q0 145 -70 209.5t-209 64.5h-461v-561z" />
<glyph unicode="&#x44d;" horiz-adv-x="1138" d="M117 129l65 68q139 -123 322 -123q116 0 196 27t129.5 85t72 141t24.5 201h-719v95h717q-9 223 -105 325.5t-315 102.5q-191 0 -314 -127l-71 71q140 152 387 152q149 0 251 -37t161.5 -113.5t85.5 -181.5t26 -252q0 -148 -25.5 -252.5t-85 -181.5t-161.5 -114.5 t-250 -37.5q-125 0 -216 38t-175 114z" />
<glyph unicode="&#x44e;" horiz-adv-x="1636" d="M166 0v1120h104v-489h207q12 264 136 390t386 126q277 0 402 -142.5t125 -441.5q0 -301 -124.5 -443.5t-402.5 -142.5q-273 0 -395 135.5t-127 424.5h-207v-537h-104zM580 561q0 -255 97 -371t322 -116t323.5 116.5t98.5 370.5t-98.5 371t-323.5 117t-322 -116.5 t-97 -371.5z" />
<glyph unicode="&#x44f;" horiz-adv-x="1243" d="M117 788q0 332 366 332h596v-1120h-104v459h-459l-270 -459h-111l271 463q-289 29 -289 325zM223 786q0 -133 64 -185t194 -52h494v477h-490q-133 0 -197.5 -53t-64.5 -187z" />
<glyph unicode="&#x451;" horiz-adv-x="1198" d="M111 563q0 106 13 188.5t47.5 159t91.5 126.5t149 80t215 30q91 0 162 -18.5t118 -46t80 -77t50 -94t26 -115t11 -122t1 -131.5h-864q1 -88 11 -154.5t38 -129t74 -102t122 -63.5t179 -24q129 0 207 29t159 89l58 -75q-87 -65 -186 -100.5t-238 -35.5q-93 0 -168 15.5 t-129 42.5t-94.5 69t-65.5 89.5t-40.5 109.5t-21 123.5t-5.5 136.5zM213 639h762q-2 42 -3.5 66.5t-5.5 62t-9.5 60t-15 53t-23 49.5t-32 41t-44 35t-57 25t-72 17t-88.5 5q-114 0 -194 -29.5t-125.5 -87t-66.5 -129t-26 -168.5zM340 1245v185h98v-185h-98zM760 1245v185h98 v-185h-98z" />
<glyph unicode="&#x452;" horiz-adv-x="1259" d="M-14 1298v95h196v196h105v-196h311v-95h-311v-331q79 180 409 180q78 0 138.5 -11.5t103 -31t73 -53t48 -68.5t27.5 -86.5t13 -98.5t3 -112v-768q0 -74 -11 -120.5t-40 -78.5t-78.5 -45.5t-128.5 -13.5h-19v88h11q100 1 130.5 38t30.5 140v746q0 54 -2 90.5t-9 79.5 t-20.5 71t-37 55.5t-57.5 43t-83.5 25.5t-113.5 10q-95 0 -165 -20.5t-112 -55t-67.5 -88.5t-34 -111t-8.5 -133v-639h-105v1298h-196z" />
<glyph unicode="&#x453;" horiz-adv-x="1007" d="M166 0v1120h792v-94h-688v-1026h-104zM365 1243l315 301h131l-340 -301h-106z" />
<glyph unicode="&#x454;" horiz-adv-x="1138" d="M111 563q0 148 25.5 252.5t85 181t162 113.5t251.5 37q247 0 387 -152l-72 -71q-123 127 -315 127q-218 0 -314.5 -103t-105.5 -325h717v-95h-719q2 -118 24.5 -201t72 -141t129.5 -85t196 -27q182 0 321 123l68 -68q-86 -76 -176 -114t-215 -38q-149 0 -251 37.5 t-161.5 114.5t-84.5 181.5t-25 252.5z" />
<glyph unicode="&#x455;" horiz-adv-x="1038" d="M76 100l55 80q168 -108 393 -108q173 0 249.5 49.5t76.5 183.5q0 38 -7 65.5t-26 49.5t-40.5 37t-63.5 29.5t-82 24t-107 24.5q-63 14 -103 24t-87 25t-75.5 31t-57 39.5t-44 52t-25 66.5t-9.5 85q0 140 94 214.5t305 74.5q229 0 391 -94l-49 -86q-147 84 -340 84 q-163 0 -231 -50t-68 -145q0 -43 12.5 -74.5t33.5 -53.5t63 -39.5t85 -29.5t116 -28q66 -14 108 -24.5t91 -25.5t78.5 -31t59 -39.5t45 -52t25.5 -66.5t10 -85q0 -184 -104 -257t-328 -73q-257 0 -444 123z" />
<glyph unicode="&#x456;" horiz-adv-x="452" d="M174 0v1120h105v-1120h-105zM174 1284v199h105v-199h-105z" />
<glyph unicode="&#x457;" horiz-adv-x="452" d="M-8 1278v184h92v-184h-92zM174 0v1120h105v-1120h-105zM369 1278v184h92v-184h-92z" />
<glyph unicode="&#x458;" horiz-adv-x="452" d="M4 -252h8q101 1 131.5 38.5t30.5 145.5v1188h105v-1188q0 -80 -10 -128t-39 -82.5t-79 -48t-131 -13.5h-16v88zM174 1284v199h105v-199h-105z" />
<glyph unicode="&#x459;" horiz-adv-x="2136" d="M94 2v92h53q87 0 111.5 32.5t24.5 125.5v868h907v-377h463q370 0 370 -364q0 -188 -95.5 -283.5t-272.5 -95.5h-568v1026h-702v-782q0 -66 -8 -108.5t-30.5 -75.5t-64 -47.5t-106.5 -14.5q-74 0 -82 4zM1190 90h457q272 0 272 287q0 145 -70 209.5t-209 64.5h-450v-561z " />
<glyph unicode="&#x45a;" horiz-adv-x="2019" d="M166 0v1120h104v-487h703v487h102v-377h463q371 0 371 -364q0 -188 -96 -283.5t-273 -95.5h-567v535h-703v-535h-104zM1075 90h455q272 0 272 287q0 145 -68.5 209.5t-207.5 64.5h-451v-561z" />
<glyph unicode="&#x45b;" horiz-adv-x="1259" d="M-14 1298v95h196v196h105v-196h311v-95h-311v-331q79 180 409 180q78 0 138.5 -11.5t103 -31t73 -53t48 -68.5t27.5 -86.5t13 -98.5t3 -112v-686h-105v672q0 54 -2 90.5t-9 79.5t-20.5 71t-37 55.5t-57.5 43t-83.5 25.5t-113.5 10q-95 0 -165 -20.5t-112 -55t-67.5 -88.5 t-34 -111t-8.5 -133v-639h-105v1298h-196z" />
<glyph unicode="&#x45c;" horiz-adv-x="1079" d="M166 0v1120h102v-456h207l387 456h123l-424 -506l469 -614h-123l-430 561h-209v-561h-102zM414 1243l315 301h131l-340 -301h-106z" />
<glyph unicode="&#x45e;" horiz-adv-x="1052" d="M33 1120h108l387 -993l387 993h105l-494 -1253q-42 -110 -103.5 -158.5t-166.5 -48.5h-94v88h88q71 0 110 30t66 101l47 123zM160 1495l86 18q10 -43 26 -75t46.5 -61.5t83 -45.5t124.5 -16t124 16t82.5 45.5t47.5 61.5t27 75l86 -16q-10 -46 -25 -82.5t-43 -73 t-66.5 -61t-98 -40t-134.5 -15.5q-93 0 -161.5 22t-108.5 62.5t-61.5 84.5t-34.5 101z" />
<glyph unicode="&#x45f;" horiz-adv-x="1249" d="M166 0v1120h104v-1028h711v1028h102v-1120h-407v-340h-101v340h-409z" />
<glyph unicode="&#x490;" horiz-adv-x="1185" d="M186 0v1518h828v340h106v-441h-825v-1417h-109z" />
<glyph unicode="&#x491;" horiz-adv-x="1007" d="M166 0v1120h692v338h100v-432h-688v-1026h-104z" />
<glyph unicode="&#x2000;" horiz-adv-x="956" />
<glyph unicode="&#x2001;" horiz-adv-x="1913" />
<glyph unicode="&#x2002;" horiz-adv-x="956" />
<glyph unicode="&#x2003;" horiz-adv-x="1913" />
<glyph unicode="&#x2004;" horiz-adv-x="637" />
<glyph unicode="&#x2005;" horiz-adv-x="478" />
<glyph unicode="&#x2006;" horiz-adv-x="318" />
<glyph unicode="&#x2007;" horiz-adv-x="318" />
<glyph unicode="&#x2008;" horiz-adv-x="239" />
<glyph unicode="&#x2009;" horiz-adv-x="382" />
<glyph unicode="&#x200a;" horiz-adv-x="106" />
<glyph unicode="&#x2010;" horiz-adv-x="942" d="M117 567v97h710v-97h-710z" />
<glyph unicode="&#x2011;" horiz-adv-x="942" d="M117 567v97h710v-97h-710z" />
<glyph unicode="&#x2012;" horiz-adv-x="942" d="M117 567v97h710v-97h-710z" />
<glyph unicode="&#x2013;" horiz-adv-x="1406" d="M117 567v97h1175v-97h-1175z" />
<glyph unicode="&#x2014;" horiz-adv-x="1861" d="M117 567v97h1630v-97h-1630z" />
<glyph unicode="&#x2018;" horiz-adv-x="456" d="M152 1114v152q0 107 28.5 161.5t108.5 98.5l35 -60q-57 -32 -78 -66t-21 -97h80v-189h-153z" />
<glyph unicode="&#x2019;" horiz-adv-x="456" d="M133 1167q57 32 77.5 65.5t20.5 96.5h-79v189h153v-150q0 -109 -28.5 -163t-108.5 -97z" />
<glyph unicode="&#x201a;" horiz-adv-x="456" d="M133 -123q57 32 77.5 66t20.5 100h-79v186h153v-151q0 -105 -29 -161.5t-108 -98.5z" />
<glyph unicode="&#x201c;" horiz-adv-x="786" d="M152 1112v150q0 106 28.5 159.5t106.5 96.5l35 -60q-56 -31 -76.5 -64.5t-20.5 -97.5h78v-184h-151zM483 1112v150q0 106 28.5 159.5t106.5 96.5l35 -60q-56 -31 -76 -64.5t-20 -97.5h78v-184h-152z" />
<glyph unicode="&#x201d;" horiz-adv-x="786" d="M133 1169q56 33 77 67t21 97h-79v185h151v-150q0 -106 -28 -159.5t-107 -96.5zM465 1169q56 33 77 67t21 97h-80v185h152v-150q0 -106 -28.5 -159.5t-106.5 -96.5z" />
<glyph unicode="&#x201e;" horiz-adv-x="786" d="M133 -121q56 31 77 65t21 99h-79v184h151v-149q0 -106 -28 -161t-107 -97zM465 -121q56 31 77 65t21 99h-80v184h152v-149q0 -105 -28.5 -160t-106.5 -98z" />
<glyph unicode="&#x2022;" horiz-adv-x="671" d="M213 485v275h248v-275h-248z" />
<glyph unicode="&#x2026;" horiz-adv-x="1300" d="M152 0v180h153v-180h-153zM571 0v180h154v-180h-154zM995 0v180h154v-180h-154z" />
<glyph unicode="&#x202f;" horiz-adv-x="382" />
<glyph unicode="&#x2039;" horiz-adv-x="827" d="M186 559l310 561h96l-303 -561l303 -559h-96z" />
<glyph unicode="&#x203a;" horiz-adv-x="827" d="M233 0l306 561l-306 559h99l309 -559l-309 -561h-99z" />
<glyph unicode="&#x205f;" horiz-adv-x="478" />
<glyph unicode="&#x20ac;" horiz-adv-x="1323" d="M88 578v94h223q-2 31 -2 94q0 74 2 111h-223v92h229q14 139 48 242t95 179t155.5 114t222.5 38q111 0 189.5 -18t152.5 -56l-47 -88q-126 66 -293 66q-204 0 -301.5 -121t-120.5 -356h571v-92h-577q-2 -35 -2 -109v-96h579v-94h-573q10 -126 36 -217t75 -157t126 -98 t185 -32q93 0 162 14.5t135 54.5l53 -82q-77 -48 -159 -67t-195 -19q-132 0 -227.5 39.5t-156 118.5t-92.5 187.5t-43 257.5h-227z" />
<glyph unicode="&#x2122;" horiz-adv-x="2203" d="M143 1438v80h742v-80h-330v-844h-84v844h-328zM989 594v924h96l345 -809l344 809h98v-924h-84v768l-326 -768h-65l-328 768v-768h-80z" />
<glyph unicode="&#x25fc;" horiz-adv-x="1116" d="M0 0v1116h1116v-1116h-1116z" />
</font>
</defs>
</svg>
