<?xml version="1.0" standalone="no"?>
<!DOCTYPE svg PUBLIC "-//W3C//DTD SVG 1.1//EN" "http://www.w3.org/Graphics/SVG/1.1/DTD/svg11.dtd" >
<svg xmlns="http://www.w3.org/2000/svg" xmlns:xlink="http://www.w3.org/1999/xlink" version="1.1">
<metadata>
Created by FontForge 20150318 at Fri Apr 10 09:16:34 2015
 By uniteet7
Copyright (c) 2014 by Ani Petrova. All rights reserved.
</metadata>
<defs>
<font id="PH100CondCaps" horiz-adv-x="345" >
  <font-face 
    font-family="PH100CondCaps"
    font-weight="400"
    font-variant="small-caps"
    font-stretch="normal"
    units-per-em="1000"
    panose-1="0 0 5 0 0 0 0 0 0 0"
    ascent="750"
    descent="-250"
    x-height="637"
    cap-height="688"
    bbox="-218.444 -250 410 831.778"
    underline-thickness="50"
    underline-position="-50"
    unicode-range="U+0020-25CA"
  />
<missing-glyph horiz-adv-x="500" 
d="M93 750h317v-1000h-317v1000zM233 650v-37h-66v-33h166v33h-66v37h66v33h-165v-33h65zM333 450v34h-66v70h-100v-104h166zM200 520h33v-36h-33v36zM233 390v-37h-66v-33h100v70h66v33h-166v-33h66zM167 297v-34h166v100h-33v-66h-133zM267 185v23h33v-47h-100v80h-33
v-113h166v113h-100v-56h34zM333 -45v113h-166v-113h166zM200 35h100v-47h-100v47zM237 -101l-70 -47v-33h166v33h-102l70 47h32v33h-166v-33h70z" />
    <glyph glyph-name=".notdef" horiz-adv-x="500" 
d="M93 750h317v-1000h-317v1000zM233 650v-37h-66v-33h166v33h-66v37h66v33h-165v-33h65zM333 450v34h-66v70h-100v-104h166zM200 520h33v-36h-33v36zM233 390v-37h-66v-33h100v70h66v33h-166v-33h66zM167 297v-34h166v100h-33v-66h-133zM267 185v23h33v-47h-100v80h-33
v-113h166v113h-100v-56h34zM333 -45v113h-166v-113h166zM200 35h100v-47h-100v47zM237 -101l-70 -47v-33h166v33h-102l70 47h32v33h-166v-33h70z" />
    <glyph glyph-name=".null" horiz-adv-x="0" 
 />
    <glyph glyph-name="nonmarkingreturn" horiz-adv-x="333" 
 />
    <glyph glyph-name="space" unicode=" " horiz-adv-x="130" 
 />
    <glyph glyph-name="exclam" unicode="!" horiz-adv-x="119" 
d="M73 664q4 -94 3 -280.5t-6 -280.5q0 -9 -10.5 -11.5t-9.5 8.5q4 87 3.5 280.5t-4.5 280.5q0 5 5.5 8.5t12 2t6.5 -7.5zM57 34q8 2 12 -5t2 -15q-3 -11 -15 -14t-13 12q-1 18 14 22z" />
    <glyph glyph-name="quotedbl" unicode="&#x22;" 
d="M332 451v-261h-319v261h319zM19 196h307v249h-307v-249zM87 377q-4 7 -7.5 21.5t-3.5 15.5q-1 2 3 3q1 1 2 -1q1 -3 3.5 -15t4.5 -19q2 23 5 33q0 3 4 2l1 -3q-2 -7 -3.5 -20t-2.5 -17q-1 -2 -3 -2.5t-3 2.5zM208 376q-5 1 -3 4l4 1q0 3 0.5 8t0.5 8q-3 0 -4 2q-2 3 2 3
h2l-1 10h-1q-2 0 -3 1q-1 3 2 4q21 0 22 -8q0 -7 -7 -9q3 0 6 -3q5 -4 3 -12t-10 -9q-4 -1 -7 0q-3 -5 -6 0zM56 377q-1 -4 -5 -2q-1 1 -1 3l3 13q-3 0 -3 2l2 2h2q2 4 5 19q4 6 6 1l5 -19h3q3 -1 2 -4q-1 -1 -3 -1h-1q1 -6 4 -12q1 -5 -3 -4q-1 0 -2 2t-2.5 7.5t-1.5 6.5
h-8zM106 377q0 -4 -4 -2q-2 0 -1 3q0 2 1 6t1 7q-2 0 -2 2t2 2h2q4 17 5 19t3 2.5t3 -1.5l5 -19h2q4 -1 2 -4l-2 -1h-1q1 -3 2 -7t1 -5q2 -5 -2 -4q-2 0 -3 2q-3 12 -3 14h-8zM130 375q-2 0 -2 2.5t2 2.5h4v32l-4 -1q-4 0 -2 4q0 2 2 2h4h6h3q2 -2 1 -5h-5v-32h4q1 -2 1 -5
h-14zM155 374q-3 0 -3 4q0 6 -1 18.5t-1 17.5q0 3 3 3t3 -3q0 -8 1 -19t0 -16h12q-1 2 -1 6q1 2 3 1.5t2 -2.5v-8q0 -2 -4 -2h-14zM183 377q-1 -4 -5 -2q-1 1 -1 3l3 13q-3 0 -3 2l2 2h2q1 2 3 9.5t3 9.5t2.5 2.5t2.5 -1.5l5 -19h3q3 -1 2 -4l-3 -1q1 -9 3 -12q1 -5 -3 -4
q-1 0 -2 2q-3 6 -3 14h-9zM241 374q-3 0 -3 4q0 6 -1 18.5t-1 17.5q0 3 3 3t3 -3q0 -8 1 -19t0 -16h12q-1 3 0 6q0 2 2 1.5t2 -2.5v-2v-3v-3q0 -2 -4 -2h-14zM268 374l-3 3v34q-3 1 -2.5 3t2.5 3h17q3 0 3 -3t-3 -3h-12v-11h10q4 1 4 -3q0 -1 -2 -2q-4 -1 -12 -1v-14l13 1
q5 0 2 -4q-1 -2 -3 -2t-6.5 -0.5t-7.5 -0.5zM218 402q3 1 4.5 3t0.5 4.5t-5 2.5h-4l1 -10h3zM65 396q0 1 -0.5 3t-1 4.5t-0.5 4.5h-1q0 -2 -1 -6.5t-1 -5.5h5zM116 396q-1 2 -3 12q0 -1 -1 -6t-2 -6h6zM192 396q0 1 -0.5 3t-1 4.5t-0.5 4.5h-1q0 -2 -1 -6.5t-1 -5.5h5z
M218 380q8 1 8.5 8t-6.5 9h-5l-1 -17h4zM140 304q2 4 0 13q-2 -1 -2 0q-2 0 -2 2t2 2h2v21q0 4 3 3q2 0 2 -2v-22h13q-1 8 -1 22q0 3 3 3q2 -1 2 -3q0 -8 1 -22t1 -15q0 -2 -2 -3q-3 -2 -3 2q0 8 -1 12h-12v-13q-2 -1 -6 0zM243 302q-9 1 -9 18q0 9 -1 22q0 5 4 3q2 0 2 -2
v-21q0 -14 5 -14q9 0 5 35q0 3 3 2l2 -3l1 -10q1 -10 0 -14q0 -16 -12 -16zM50 303q-2 0 -2 2.5t2 2.5h4v32l-4 -1q-2 0 -2 2.5t2 3.5h13q3 0 3 -2q2 -3 -2 -3h-5v-32h5q2 0 2 -2.5t-2 -2.5q-1 -1 -7 -0.5t-7 0.5zM121 304v36q-5 0 -8 -1q-3 0 -1 4q1 2 2 2h20q1 -2 -1 -6
h-7v-34q-2 -1 -5 -1zM175 302q-3 0 -3 3q-1 1 -1 11v23q-3 1 -2 3t3 3h16q3 0 3 -3t-3 -3h-11l-1 -11h11q4 1 4 -3q0 -1 -2 -2q-5 -1 -12 -1v-14l12 1q6 0 3 -4q-2 -2 -4 -2q-1 0 -5.5 -0.5t-7.5 -0.5zM266 302q-3 0 -3 4q0 6 -1 18.5t-1 17.5q0 3 3 3t3 -3q0 -8 1 -19
t0 -16h12q-2 3 0 6q0 2 2 1.5t2 -2.5v-2v-3v-3q0 -2 -4 -2h-14zM293 302q-3 0 -3 4q1 7 0 20t-1 16t2.5 3t2.5 -3q0 -10 1 -20.5t1 -14.5h11v6q0 2 3 1l2 -2v-8q-1 -2 -4 -2h-15zM208 340q0 4 2 4q12 1 17 0q2 0 2 -3q0 -1 -2 -2q-1 -1 -4 1h-10q0 -12 1 -15h10q2 1 2 -1
q1 -3 -1 -4h-11v-15q0 -2 -3 -2.5t-3 2.5v35zM75 305q0 -4 -4 -2l-1 3q2 17 1 36q0 3 3 2q1 0 2 -2q12 -23 16 -29q-2 16 -2 29q2 1 5 1q0 -3 1 -16.5t0 -19.5q-2 -8 -6 -2q-2 3 -6.5 13t-7.5 14q1 -18 -1 -27zM147 231q-6 -1 -9 3.5t-3 11.5q0 3 2.5 3t2.5 -3q0 -5 2 -8
t6 -2t3.5 5.5t-4.5 8.5l-4.5 4.5t-4.5 6.5q-2 8 3 11t10 -3v3q1 2 4 -1v-10v-2l-3 1q-2 6 -4 7q-3 2 -5 0t0 -5l6 -6q6 -7 7 -13q2 -12 -9 -12zM61 233q-3 6 -6.5 20.5t-4.5 16.5t3 3l2 -1q2 -6 4 -17t4 -17h1q1 14 4 33q1 3 4 2l1 -3q0 -2 -2.5 -17t-3.5 -20q0 -4 -4 -2
q-1 0 -2 2zM84 230q-3 0 -3 3q-1 1 -1 11v23q-3 1 -2 3t3 3h16q3 0 3 -3t-3 -3h-12v-11h11q4 1 4 -3q0 -1 -2 -2q-5 -1 -12 -1v-14l12 1q6 0 3 -4q-2 -2 -4 -2q-1 0 -5.5 -0.5t-7.5 -0.5zM131 231q-5 1 -11 9.5t-7 9.5q0 -10 1 -18q0 -2 -3 -2t-3 2q0 32 -1 35
q-3 0 -3.5 2.5t2.5 3.5h7q16 0 17 -11q0 -7 -7 -9q-1 -1 -4 -1q7 -15 13 -16q2 0 1 -4q0 -2 -2 -1zM162 231q-2 0 -2 2.5t2 2.5h3v32l-4 -1q-3 0 -1 4q0 2 2 2h13q2 -2 1 -5h-5v-32h4q2 0 2 -2.5t-2 -2.5h-13zM191 231q-5 -1 -8.5 4.5t-3.5 13.5q0 15 6 21h1l2 1q1 4 4 1
q4 0 6 -5q6 -5 5 -20.5t-12 -15.5zM212 233q-1 -4 -4 -2l-1 3q2 17 1 36q0 3 3 2q1 0 2 -2q12 -23 16 -29q-2 16 -2 29q2 1 5 1q0 -3 1 -16.5t0 -19.5q-2 -8 -6 -2q-2 3 -6.5 13t-7.5 14q1 -18 -1 -27zM115 255q6 0 8.5 3t0 6.5t-8.5 3.5h-2v-13h2zM188 237q4 -3 7 0
q9 9 0 26q-3 7 -8 1q-4 -5 -3 -14.5t4 -12.5z" />
    <glyph glyph-name="numbersign" unicode="#" 
d="M332 451v-261h-319v261h319zM19 196h307v249h-307v-249zM87 377q-4 7 -7.5 21.5t-3.5 15.5q-1 2 3 3q1 1 2 -1q1 -3 3.5 -15t4.5 -19q2 23 5 33q0 3 4 2l1 -3q-2 -7 -3.5 -20t-2.5 -17q-1 -2 -3 -2.5t-3 2.5zM208 376q-5 1 -3 4l4 1q0 3 0.5 8t0.5 8q-3 0 -4 2q-2 3 2 3
h2l-1 10h-1q-2 0 -3 1q-1 3 2 4q21 0 22 -8q0 -7 -7 -9q3 0 6 -3q5 -4 3 -12t-10 -9q-4 -1 -7 0q-3 -5 -6 0zM56 377q-1 -4 -5 -2q-1 1 -1 3l3 13q-3 0 -3 2l2 2h2q2 4 5 19q4 6 6 1l5 -19h3q3 -1 2 -4q-1 -1 -3 -1h-1q1 -6 4 -12q1 -5 -3 -4q-1 0 -2 2t-2.5 7.5t-1.5 6.5
h-8zM106 377q0 -4 -4 -2q-2 0 -1 3q0 2 1 6t1 7q-2 0 -2 2t2 2h2q4 17 5 19t3 2.5t3 -1.5l5 -19h2q4 -1 2 -4l-2 -1h-1q1 -3 2 -7t1 -5q2 -5 -2 -4q-2 0 -3 2q-3 12 -3 14h-8zM130 375q-2 0 -2 2.5t2 2.5h4v32l-4 -1q-4 0 -2 4q0 2 2 2h4h6h3q2 -2 1 -5h-5v-32h4q1 -2 1 -5
h-14zM155 374q-3 0 -3 4q0 6 -1 18.5t-1 17.5q0 3 3 3t3 -3q0 -8 1 -19t0 -16h12q-1 2 -1 6q1 2 3 1.5t2 -2.5v-8q0 -2 -4 -2h-14zM183 377q-1 -4 -5 -2q-1 1 -1 3l3 13q-3 0 -3 2l2 2h2q1 2 3 9.5t3 9.5t2.5 2.5t2.5 -1.5l5 -19h3q3 -1 2 -4l-3 -1q1 -9 3 -12q1 -5 -3 -4
q-1 0 -2 2q-3 6 -3 14h-9zM241 374q-3 0 -3 4q0 6 -1 18.5t-1 17.5q0 3 3 3t3 -3q0 -8 1 -19t0 -16h12q-1 3 0 6q0 2 2 1.5t2 -2.5v-2v-3v-3q0 -2 -4 -2h-14zM268 374l-3 3v34q-3 1 -2.5 3t2.5 3h17q3 0 3 -3t-3 -3h-12v-11h10q4 1 4 -3q0 -1 -2 -2q-4 -1 -12 -1v-14l13 1
q5 0 2 -4q-1 -2 -3 -2t-6.5 -0.5t-7.5 -0.5zM218 402q3 1 4.5 3t0.5 4.5t-5 2.5h-4l1 -10h3zM65 396q0 1 -0.5 3t-1 4.5t-0.5 4.5h-1q0 -2 -1 -6.5t-1 -5.5h5zM116 396q-1 2 -3 12q0 -1 -1 -6t-2 -6h6zM192 396q0 1 -0.5 3t-1 4.5t-0.5 4.5h-1q0 -2 -1 -6.5t-1 -5.5h5z
M218 380q8 1 8.5 8t-6.5 9h-5l-1 -17h4zM140 304q2 4 0 13q-2 -1 -2 0q-2 0 -2 2t2 2h2v21q0 4 3 3q2 0 2 -2v-22h13q-1 8 -1 22q0 3 3 3q2 -1 2 -3q0 -8 1 -22t1 -15q0 -2 -2 -3q-3 -2 -3 2q0 8 -1 12h-12v-13q-2 -1 -6 0zM243 302q-9 1 -9 18q0 9 -1 22q0 5 4 3q2 0 2 -2
v-21q0 -14 5 -14q9 0 5 35q0 3 3 2l2 -3l1 -10q1 -10 0 -14q0 -16 -12 -16zM50 303q-2 0 -2 2.5t2 2.5h4v32l-4 -1q-2 0 -2 2.5t2 3.5h13q3 0 3 -2q2 -3 -2 -3h-5v-32h5q2 0 2 -2.5t-2 -2.5q-1 -1 -7 -0.5t-7 0.5zM121 304v36q-5 0 -8 -1q-3 0 -1 4q1 2 2 2h20q1 -2 -1 -6
h-7v-34q-2 -1 -5 -1zM175 302q-3 0 -3 3q-1 1 -1 11v23q-3 1 -2 3t3 3h16q3 0 3 -3t-3 -3h-11l-1 -11h11q4 1 4 -3q0 -1 -2 -2q-5 -1 -12 -1v-14l12 1q6 0 3 -4q-2 -2 -4 -2q-1 0 -5.5 -0.5t-7.5 -0.5zM266 302q-3 0 -3 4q0 6 -1 18.5t-1 17.5q0 3 3 3t3 -3q0 -8 1 -19
t0 -16h12q-2 3 0 6q0 2 2 1.5t2 -2.5v-2v-3v-3q0 -2 -4 -2h-14zM293 302q-3 0 -3 4q1 7 0 20t-1 16t2.5 3t2.5 -3q0 -10 1 -20.5t1 -14.5h11v6q0 2 3 1l2 -2v-8q-1 -2 -4 -2h-15zM208 340q0 4 2 4q12 1 17 0q2 0 2 -3q0 -1 -2 -2q-1 -1 -4 1h-10q0 -12 1 -15h10q2 1 2 -1
q1 -3 -1 -4h-11v-15q0 -2 -3 -2.5t-3 2.5v35zM75 305q0 -4 -4 -2l-1 3q2 17 1 36q0 3 3 2q1 0 2 -2q12 -23 16 -29q-2 16 -2 29q2 1 5 1q0 -3 1 -16.5t0 -19.5q-2 -8 -6 -2q-2 3 -6.5 13t-7.5 14q1 -18 -1 -27zM147 231q-6 -1 -9 3.5t-3 11.5q0 3 2.5 3t2.5 -3q0 -5 2 -8
t6 -2t3.5 5.5t-4.5 8.5l-4.5 4.5t-4.5 6.5q-2 8 3 11t10 -3v3q1 2 4 -1v-10v-2l-3 1q-2 6 -4 7q-3 2 -5 0t0 -5l6 -6q6 -7 7 -13q2 -12 -9 -12zM61 233q-3 6 -6.5 20.5t-4.5 16.5t3 3l2 -1q2 -6 4 -17t4 -17h1q1 14 4 33q1 3 4 2l1 -3q0 -2 -2.5 -17t-3.5 -20q0 -4 -4 -2
q-1 0 -2 2zM84 230q-3 0 -3 3q-1 1 -1 11v23q-3 1 -2 3t3 3h16q3 0 3 -3t-3 -3h-12v-11h11q4 1 4 -3q0 -1 -2 -2q-5 -1 -12 -1v-14l12 1q6 0 3 -4q-2 -2 -4 -2q-1 0 -5.5 -0.5t-7.5 -0.5zM131 231q-5 1 -11 9.5t-7 9.5q0 -10 1 -18q0 -2 -3 -2t-3 2q0 32 -1 35
q-3 0 -3.5 2.5t2.5 3.5h7q16 0 17 -11q0 -7 -7 -9q-1 -1 -4 -1q7 -15 13 -16q2 0 1 -4q0 -2 -2 -1zM162 231q-2 0 -2 2.5t2 2.5h3v32l-4 -1q-3 0 -1 4q0 2 2 2h13q2 -2 1 -5h-5v-32h4q2 0 2 -2.5t-2 -2.5h-13zM191 231q-5 -1 -8.5 4.5t-3.5 13.5q0 15 6 21h1l2 1q1 4 4 1
q4 0 6 -5q6 -5 5 -20.5t-12 -15.5zM212 233q-1 -4 -4 -2l-1 3q2 17 1 36q0 3 3 2q1 0 2 -2q12 -23 16 -29q-2 16 -2 29q2 1 5 1q0 -3 1 -16.5t0 -19.5q-2 -8 -6 -2q-2 3 -6.5 13t-7.5 14q1 -18 -1 -27zM115 255q6 0 8.5 3t0 6.5t-8.5 3.5h-2v-13h2zM188 237q4 -3 7 0
q9 9 0 26q-3 7 -8 1q-4 -5 -3 -14.5t4 -12.5z" />
    <glyph glyph-name="dollar" unicode="$" 
d="M332 451v-261h-319v261h319zM19 196h307v249h-307v-249zM87 377q-4 7 -7.5 21.5t-3.5 15.5q-1 2 3 3q1 1 2 -1q1 -3 3.5 -15t4.5 -19q2 23 5 33q0 3 4 2l1 -3q-2 -7 -3.5 -20t-2.5 -17q-1 -2 -3 -2.5t-3 2.5zM208 376q-5 1 -3 4l4 1q0 3 0.5 8t0.5 8q-3 0 -4 2q-2 3 2 3
h2l-1 10h-1q-2 0 -3 1q-1 3 2 4q21 0 22 -8q0 -7 -7 -9q3 0 6 -3q5 -4 3 -12t-10 -9q-4 -1 -7 0q-3 -5 -6 0zM56 377q-1 -4 -5 -2q-1 1 -1 3l3 13q-3 0 -3 2l2 2h2q2 4 5 19q4 6 6 1l5 -19h3q3 -1 2 -4q-1 -1 -3 -1h-1q1 -6 4 -12q1 -5 -3 -4q-1 0 -2 2t-2.5 7.5t-1.5 6.5
h-8zM106 377q0 -4 -4 -2q-2 0 -1 3q0 2 1 6t1 7q-2 0 -2 2t2 2h2q4 17 5 19t3 2.5t3 -1.5l5 -19h2q4 -1 2 -4l-2 -1h-1q1 -3 2 -7t1 -5q2 -5 -2 -4q-2 0 -3 2q-3 12 -3 14h-8zM130 375q-2 0 -2 2.5t2 2.5h4v32l-4 -1q-4 0 -2 4q0 2 2 2h4h6h3q2 -2 1 -5h-5v-32h4q1 -2 1 -5
h-14zM155 374q-3 0 -3 4q0 6 -1 18.5t-1 17.5q0 3 3 3t3 -3q0 -8 1 -19t0 -16h12q-1 2 -1 6q1 2 3 1.5t2 -2.5v-8q0 -2 -4 -2h-14zM183 377q-1 -4 -5 -2q-1 1 -1 3l3 13q-3 0 -3 2l2 2h2q1 2 3 9.5t3 9.5t2.5 2.5t2.5 -1.5l5 -19h3q3 -1 2 -4l-3 -1q1 -9 3 -12q1 -5 -3 -4
q-1 0 -2 2q-3 6 -3 14h-9zM241 374q-3 0 -3 4q0 6 -1 18.5t-1 17.5q0 3 3 3t3 -3q0 -8 1 -19t0 -16h12q-1 3 0 6q0 2 2 1.5t2 -2.5v-2v-3v-3q0 -2 -4 -2h-14zM268 374l-3 3v34q-3 1 -2.5 3t2.5 3h17q3 0 3 -3t-3 -3h-12v-11h10q4 1 4 -3q0 -1 -2 -2q-4 -1 -12 -1v-14l13 1
q5 0 2 -4q-1 -2 -3 -2t-6.5 -0.5t-7.5 -0.5zM218 402q3 1 4.5 3t0.5 4.5t-5 2.5h-4l1 -10h3zM65 396q0 1 -0.5 3t-1 4.5t-0.5 4.5h-1q0 -2 -1 -6.5t-1 -5.5h5zM116 396q-1 2 -3 12q0 -1 -1 -6t-2 -6h6zM192 396q0 1 -0.5 3t-1 4.5t-0.5 4.5h-1q0 -2 -1 -6.5t-1 -5.5h5z
M218 380q8 1 8.5 8t-6.5 9h-5l-1 -17h4zM140 304q2 4 0 13q-2 -1 -2 0q-2 0 -2 2t2 2h2v21q0 4 3 3q2 0 2 -2v-22h13q-1 8 -1 22q0 3 3 3q2 -1 2 -3q0 -8 1 -22t1 -15q0 -2 -2 -3q-3 -2 -3 2q0 8 -1 12h-12v-13q-2 -1 -6 0zM243 302q-9 1 -9 18q0 9 -1 22q0 5 4 3q2 0 2 -2
v-21q0 -14 5 -14q9 0 5 35q0 3 3 2l2 -3l1 -10q1 -10 0 -14q0 -16 -12 -16zM50 303q-2 0 -2 2.5t2 2.5h4v32l-4 -1q-2 0 -2 2.5t2 3.5h13q3 0 3 -2q2 -3 -2 -3h-5v-32h5q2 0 2 -2.5t-2 -2.5q-1 -1 -7 -0.5t-7 0.5zM121 304v36q-5 0 -8 -1q-3 0 -1 4q1 2 2 2h20q1 -2 -1 -6
h-7v-34q-2 -1 -5 -1zM175 302q-3 0 -3 3q-1 1 -1 11v23q-3 1 -2 3t3 3h16q3 0 3 -3t-3 -3h-11l-1 -11h11q4 1 4 -3q0 -1 -2 -2q-5 -1 -12 -1v-14l12 1q6 0 3 -4q-2 -2 -4 -2q-1 0 -5.5 -0.5t-7.5 -0.5zM266 302q-3 0 -3 4q0 6 -1 18.5t-1 17.5q0 3 3 3t3 -3q0 -8 1 -19
t0 -16h12q-2 3 0 6q0 2 2 1.5t2 -2.5v-2v-3v-3q0 -2 -4 -2h-14zM293 302q-3 0 -3 4q1 7 0 20t-1 16t2.5 3t2.5 -3q0 -10 1 -20.5t1 -14.5h11v6q0 2 3 1l2 -2v-8q-1 -2 -4 -2h-15zM208 340q0 4 2 4q12 1 17 0q2 0 2 -3q0 -1 -2 -2q-1 -1 -4 1h-10q0 -12 1 -15h10q2 1 2 -1
q1 -3 -1 -4h-11v-15q0 -2 -3 -2.5t-3 2.5v35zM75 305q0 -4 -4 -2l-1 3q2 17 1 36q0 3 3 2q1 0 2 -2q12 -23 16 -29q-2 16 -2 29q2 1 5 1q0 -3 1 -16.5t0 -19.5q-2 -8 -6 -2q-2 3 -6.5 13t-7.5 14q1 -18 -1 -27zM147 231q-6 -1 -9 3.5t-3 11.5q0 3 2.5 3t2.5 -3q0 -5 2 -8
t6 -2t3.5 5.5t-4.5 8.5l-4.5 4.5t-4.5 6.5q-2 8 3 11t10 -3v3q1 2 4 -1v-10v-2l-3 1q-2 6 -4 7q-3 2 -5 0t0 -5l6 -6q6 -7 7 -13q2 -12 -9 -12zM61 233q-3 6 -6.5 20.5t-4.5 16.5t3 3l2 -1q2 -6 4 -17t4 -17h1q1 14 4 33q1 3 4 2l1 -3q0 -2 -2.5 -17t-3.5 -20q0 -4 -4 -2
q-1 0 -2 2zM84 230q-3 0 -3 3q-1 1 -1 11v23q-3 1 -2 3t3 3h16q3 0 3 -3t-3 -3h-12v-11h11q4 1 4 -3q0 -1 -2 -2q-5 -1 -12 -1v-14l12 1q6 0 3 -4q-2 -2 -4 -2q-1 0 -5.5 -0.5t-7.5 -0.5zM131 231q-5 1 -11 9.5t-7 9.5q0 -10 1 -18q0 -2 -3 -2t-3 2q0 32 -1 35
q-3 0 -3.5 2.5t2.5 3.5h7q16 0 17 -11q0 -7 -7 -9q-1 -1 -4 -1q7 -15 13 -16q2 0 1 -4q0 -2 -2 -1zM162 231q-2 0 -2 2.5t2 2.5h3v32l-4 -1q-3 0 -1 4q0 2 2 2h13q2 -2 1 -5h-5v-32h4q2 0 2 -2.5t-2 -2.5h-13zM191 231q-5 -1 -8.5 4.5t-3.5 13.5q0 15 6 21h1l2 1q1 4 4 1
q4 0 6 -5q6 -5 5 -20.5t-12 -15.5zM212 233q-1 -4 -4 -2l-1 3q2 17 1 36q0 3 3 2q1 0 2 -2q12 -23 16 -29q-2 16 -2 29q2 1 5 1q0 -3 1 -16.5t0 -19.5q-2 -8 -6 -2q-2 3 -6.5 13t-7.5 14q1 -18 -1 -27zM115 255q6 0 8.5 3t0 6.5t-8.5 3.5h-2v-13h2zM188 237q4 -3 7 0
q9 9 0 26q-3 7 -8 1q-4 -5 -3 -14.5t4 -12.5z" />
    <glyph glyph-name="percent" unicode="%" 
d="M332 451v-261h-319v261h319zM19 196h307v249h-307v-249zM87 377q-4 7 -7.5 21.5t-3.5 15.5q-1 2 3 3q1 1 2 -1q1 -3 3.5 -15t4.5 -19q2 23 5 33q0 3 4 2l1 -3q-2 -7 -3.5 -20t-2.5 -17q-1 -2 -3 -2.5t-3 2.5zM208 376q-5 1 -3 4l4 1q0 3 0.5 8t0.5 8q-3 0 -4 2q-2 3 2 3
h2l-1 10h-1q-2 0 -3 1q-1 3 2 4q21 0 22 -8q0 -7 -7 -9q3 0 6 -3q5 -4 3 -12t-10 -9q-4 -1 -7 0q-3 -5 -6 0zM56 377q-1 -4 -5 -2q-1 1 -1 3l3 13q-3 0 -3 2l2 2h2q2 4 5 19q4 6 6 1l5 -19h3q3 -1 2 -4q-1 -1 -3 -1h-1q1 -6 4 -12q1 -5 -3 -4q-1 0 -2 2t-2.5 7.5t-1.5 6.5
h-8zM106 377q0 -4 -4 -2q-2 0 -1 3q0 2 1 6t1 7q-2 0 -2 2t2 2h2q4 17 5 19t3 2.5t3 -1.5l5 -19h2q4 -1 2 -4l-2 -1h-1q1 -3 2 -7t1 -5q2 -5 -2 -4q-2 0 -3 2q-3 12 -3 14h-8zM130 375q-2 0 -2 2.5t2 2.5h4v32l-4 -1q-4 0 -2 4q0 2 2 2h4h6h3q2 -2 1 -5h-5v-32h4q1 -2 1 -5
h-14zM155 374q-3 0 -3 4q0 6 -1 18.5t-1 17.5q0 3 3 3t3 -3q0 -8 1 -19t0 -16h12q-1 2 -1 6q1 2 3 1.5t2 -2.5v-8q0 -2 -4 -2h-14zM183 377q-1 -4 -5 -2q-1 1 -1 3l3 13q-3 0 -3 2l2 2h2q1 2 3 9.5t3 9.5t2.5 2.5t2.5 -1.5l5 -19h3q3 -1 2 -4l-3 -1q1 -9 3 -12q1 -5 -3 -4
q-1 0 -2 2q-3 6 -3 14h-9zM241 374q-3 0 -3 4q0 6 -1 18.5t-1 17.5q0 3 3 3t3 -3q0 -8 1 -19t0 -16h12q-1 3 0 6q0 2 2 1.5t2 -2.5v-2v-3v-3q0 -2 -4 -2h-14zM268 374l-3 3v34q-3 1 -2.5 3t2.5 3h17q3 0 3 -3t-3 -3h-12v-11h10q4 1 4 -3q0 -1 -2 -2q-4 -1 -12 -1v-14l13 1
q5 0 2 -4q-1 -2 -3 -2t-6.5 -0.5t-7.5 -0.5zM218 402q3 1 4.5 3t0.5 4.5t-5 2.5h-4l1 -10h3zM65 396q0 1 -0.5 3t-1 4.5t-0.5 4.5h-1q0 -2 -1 -6.5t-1 -5.5h5zM116 396q-1 2 -3 12q0 -1 -1 -6t-2 -6h6zM192 396q0 1 -0.5 3t-1 4.5t-0.5 4.5h-1q0 -2 -1 -6.5t-1 -5.5h5z
M218 380q8 1 8.5 8t-6.5 9h-5l-1 -17h4zM140 304q2 4 0 13q-2 -1 -2 0q-2 0 -2 2t2 2h2v21q0 4 3 3q2 0 2 -2v-22h13q-1 8 -1 22q0 3 3 3q2 -1 2 -3q0 -8 1 -22t1 -15q0 -2 -2 -3q-3 -2 -3 2q0 8 -1 12h-12v-13q-2 -1 -6 0zM243 302q-9 1 -9 18q0 9 -1 22q0 5 4 3q2 0 2 -2
v-21q0 -14 5 -14q9 0 5 35q0 3 3 2l2 -3l1 -10q1 -10 0 -14q0 -16 -12 -16zM50 303q-2 0 -2 2.5t2 2.5h4v32l-4 -1q-2 0 -2 2.5t2 3.5h13q3 0 3 -2q2 -3 -2 -3h-5v-32h5q2 0 2 -2.5t-2 -2.5q-1 -1 -7 -0.5t-7 0.5zM121 304v36q-5 0 -8 -1q-3 0 -1 4q1 2 2 2h20q1 -2 -1 -6
h-7v-34q-2 -1 -5 -1zM175 302q-3 0 -3 3q-1 1 -1 11v23q-3 1 -2 3t3 3h16q3 0 3 -3t-3 -3h-11l-1 -11h11q4 1 4 -3q0 -1 -2 -2q-5 -1 -12 -1v-14l12 1q6 0 3 -4q-2 -2 -4 -2q-1 0 -5.5 -0.5t-7.5 -0.5zM266 302q-3 0 -3 4q0 6 -1 18.5t-1 17.5q0 3 3 3t3 -3q0 -8 1 -19
t0 -16h12q-2 3 0 6q0 2 2 1.5t2 -2.5v-2v-3v-3q0 -2 -4 -2h-14zM293 302q-3 0 -3 4q1 7 0 20t-1 16t2.5 3t2.5 -3q0 -10 1 -20.5t1 -14.5h11v6q0 2 3 1l2 -2v-8q-1 -2 -4 -2h-15zM208 340q0 4 2 4q12 1 17 0q2 0 2 -3q0 -1 -2 -2q-1 -1 -4 1h-10q0 -12 1 -15h10q2 1 2 -1
q1 -3 -1 -4h-11v-15q0 -2 -3 -2.5t-3 2.5v35zM75 305q0 -4 -4 -2l-1 3q2 17 1 36q0 3 3 2q1 0 2 -2q12 -23 16 -29q-2 16 -2 29q2 1 5 1q0 -3 1 -16.5t0 -19.5q-2 -8 -6 -2q-2 3 -6.5 13t-7.5 14q1 -18 -1 -27zM147 231q-6 -1 -9 3.5t-3 11.5q0 3 2.5 3t2.5 -3q0 -5 2 -8
t6 -2t3.5 5.5t-4.5 8.5l-4.5 4.5t-4.5 6.5q-2 8 3 11t10 -3v3q1 2 4 -1v-10v-2l-3 1q-2 6 -4 7q-3 2 -5 0t0 -5l6 -6q6 -7 7 -13q2 -12 -9 -12zM61 233q-3 6 -6.5 20.5t-4.5 16.5t3 3l2 -1q2 -6 4 -17t4 -17h1q1 14 4 33q1 3 4 2l1 -3q0 -2 -2.5 -17t-3.5 -20q0 -4 -4 -2
q-1 0 -2 2zM84 230q-3 0 -3 3q-1 1 -1 11v23q-3 1 -2 3t3 3h16q3 0 3 -3t-3 -3h-12v-11h11q4 1 4 -3q0 -1 -2 -2q-5 -1 -12 -1v-14l12 1q6 0 3 -4q-2 -2 -4 -2q-1 0 -5.5 -0.5t-7.5 -0.5zM131 231q-5 1 -11 9.5t-7 9.5q0 -10 1 -18q0 -2 -3 -2t-3 2q0 32 -1 35
q-3 0 -3.5 2.5t2.5 3.5h7q16 0 17 -11q0 -7 -7 -9q-1 -1 -4 -1q7 -15 13 -16q2 0 1 -4q0 -2 -2 -1zM162 231q-2 0 -2 2.5t2 2.5h3v32l-4 -1q-3 0 -1 4q0 2 2 2h13q2 -2 1 -5h-5v-32h4q2 0 2 -2.5t-2 -2.5h-13zM191 231q-5 -1 -8.5 4.5t-3.5 13.5q0 15 6 21h1l2 1q1 4 4 1
q4 0 6 -5q6 -5 5 -20.5t-12 -15.5zM212 233q-1 -4 -4 -2l-1 3q2 17 1 36q0 3 3 2q1 0 2 -2q12 -23 16 -29q-2 16 -2 29q2 1 5 1q0 -3 1 -16.5t0 -19.5q-2 -8 -6 -2q-2 3 -6.5 13t-7.5 14q1 -18 -1 -27zM115 255q6 0 8.5 3t0 6.5t-8.5 3.5h-2v-13h2zM188 237q4 -3 7 0
q9 9 0 26q-3 7 -8 1q-4 -5 -3 -14.5t4 -12.5z" />
    <glyph glyph-name="ampersand" unicode="&#x26;" 
d="M332 451v-261h-319v261h319zM19 196h307v249h-307v-249zM87 377q-4 7 -7.5 21.5t-3.5 15.5q-1 2 3 3q1 1 2 -1q1 -3 3.5 -15t4.5 -19q2 23 5 33q0 3 4 2l1 -3q-2 -7 -3.5 -20t-2.5 -17q-1 -2 -3 -2.5t-3 2.5zM208 376q-5 1 -3 4l4 1q0 3 0.5 8t0.5 8q-3 0 -4 2q-2 3 2 3
h2l-1 10h-1q-2 0 -3 1q-1 3 2 4q21 0 22 -8q0 -7 -7 -9q3 0 6 -3q5 -4 3 -12t-10 -9q-4 -1 -7 0q-3 -5 -6 0zM56 377q-1 -4 -5 -2q-1 1 -1 3l3 13q-3 0 -3 2l2 2h2q2 4 5 19q4 6 6 1l5 -19h3q3 -1 2 -4q-1 -1 -3 -1h-1q1 -6 4 -12q1 -5 -3 -4q-1 0 -2 2t-2.5 7.5t-1.5 6.5
h-8zM106 377q0 -4 -4 -2q-2 0 -1 3q0 2 1 6t1 7q-2 0 -2 2t2 2h2q4 17 5 19t3 2.5t3 -1.5l5 -19h2q4 -1 2 -4l-2 -1h-1q1 -3 2 -7t1 -5q2 -5 -2 -4q-2 0 -3 2q-3 12 -3 14h-8zM130 375q-2 0 -2 2.5t2 2.5h4v32l-4 -1q-4 0 -2 4q0 2 2 2h4h6h3q2 -2 1 -5h-5v-32h4q1 -2 1 -5
h-14zM155 374q-3 0 -3 4q0 6 -1 18.5t-1 17.5q0 3 3 3t3 -3q0 -8 1 -19t0 -16h12q-1 2 -1 6q1 2 3 1.5t2 -2.5v-8q0 -2 -4 -2h-14zM183 377q-1 -4 -5 -2q-1 1 -1 3l3 13q-3 0 -3 2l2 2h2q1 2 3 9.5t3 9.5t2.5 2.5t2.5 -1.5l5 -19h3q3 -1 2 -4l-3 -1q1 -9 3 -12q1 -5 -3 -4
q-1 0 -2 2q-3 6 -3 14h-9zM241 374q-3 0 -3 4q0 6 -1 18.5t-1 17.5q0 3 3 3t3 -3q0 -8 1 -19t0 -16h12q-1 3 0 6q0 2 2 1.5t2 -2.5v-2v-3v-3q0 -2 -4 -2h-14zM268 374l-3 3v34q-3 1 -2.5 3t2.5 3h17q3 0 3 -3t-3 -3h-12v-11h10q4 1 4 -3q0 -1 -2 -2q-4 -1 -12 -1v-14l13 1
q5 0 2 -4q-1 -2 -3 -2t-6.5 -0.5t-7.5 -0.5zM218 402q3 1 4.5 3t0.5 4.5t-5 2.5h-4l1 -10h3zM65 396q0 1 -0.5 3t-1 4.5t-0.5 4.5h-1q0 -2 -1 -6.5t-1 -5.5h5zM116 396q-1 2 -3 12q0 -1 -1 -6t-2 -6h6zM192 396q0 1 -0.5 3t-1 4.5t-0.5 4.5h-1q0 -2 -1 -6.5t-1 -5.5h5z
M218 380q8 1 8.5 8t-6.5 9h-5l-1 -17h4zM140 304q2 4 0 13q-2 -1 -2 0q-2 0 -2 2t2 2h2v21q0 4 3 3q2 0 2 -2v-22h13q-1 8 -1 22q0 3 3 3q2 -1 2 -3q0 -8 1 -22t1 -15q0 -2 -2 -3q-3 -2 -3 2q0 8 -1 12h-12v-13q-2 -1 -6 0zM243 302q-9 1 -9 18q0 9 -1 22q0 5 4 3q2 0 2 -2
v-21q0 -14 5 -14q9 0 5 35q0 3 3 2l2 -3l1 -10q1 -10 0 -14q0 -16 -12 -16zM50 303q-2 0 -2 2.5t2 2.5h4v32l-4 -1q-2 0 -2 2.5t2 3.5h13q3 0 3 -2q2 -3 -2 -3h-5v-32h5q2 0 2 -2.5t-2 -2.5q-1 -1 -7 -0.5t-7 0.5zM121 304v36q-5 0 -8 -1q-3 0 -1 4q1 2 2 2h20q1 -2 -1 -6
h-7v-34q-2 -1 -5 -1zM175 302q-3 0 -3 3q-1 1 -1 11v23q-3 1 -2 3t3 3h16q3 0 3 -3t-3 -3h-11l-1 -11h11q4 1 4 -3q0 -1 -2 -2q-5 -1 -12 -1v-14l12 1q6 0 3 -4q-2 -2 -4 -2q-1 0 -5.5 -0.5t-7.5 -0.5zM266 302q-3 0 -3 4q0 6 -1 18.5t-1 17.5q0 3 3 3t3 -3q0 -8 1 -19
t0 -16h12q-2 3 0 6q0 2 2 1.5t2 -2.5v-2v-3v-3q0 -2 -4 -2h-14zM293 302q-3 0 -3 4q1 7 0 20t-1 16t2.5 3t2.5 -3q0 -10 1 -20.5t1 -14.5h11v6q0 2 3 1l2 -2v-8q-1 -2 -4 -2h-15zM208 340q0 4 2 4q12 1 17 0q2 0 2 -3q0 -1 -2 -2q-1 -1 -4 1h-10q0 -12 1 -15h10q2 1 2 -1
q1 -3 -1 -4h-11v-15q0 -2 -3 -2.5t-3 2.5v35zM75 305q0 -4 -4 -2l-1 3q2 17 1 36q0 3 3 2q1 0 2 -2q12 -23 16 -29q-2 16 -2 29q2 1 5 1q0 -3 1 -16.5t0 -19.5q-2 -8 -6 -2q-2 3 -6.5 13t-7.5 14q1 -18 -1 -27zM147 231q-6 -1 -9 3.5t-3 11.5q0 3 2.5 3t2.5 -3q0 -5 2 -8
t6 -2t3.5 5.5t-4.5 8.5l-4.5 4.5t-4.5 6.5q-2 8 3 11t10 -3v3q1 2 4 -1v-10v-2l-3 1q-2 6 -4 7q-3 2 -5 0t0 -5l6 -6q6 -7 7 -13q2 -12 -9 -12zM61 233q-3 6 -6.5 20.5t-4.5 16.5t3 3l2 -1q2 -6 4 -17t4 -17h1q1 14 4 33q1 3 4 2l1 -3q0 -2 -2.5 -17t-3.5 -20q0 -4 -4 -2
q-1 0 -2 2zM84 230q-3 0 -3 3q-1 1 -1 11v23q-3 1 -2 3t3 3h16q3 0 3 -3t-3 -3h-12v-11h11q4 1 4 -3q0 -1 -2 -2q-5 -1 -12 -1v-14l12 1q6 0 3 -4q-2 -2 -4 -2q-1 0 -5.5 -0.5t-7.5 -0.5zM131 231q-5 1 -11 9.5t-7 9.5q0 -10 1 -18q0 -2 -3 -2t-3 2q0 32 -1 35
q-3 0 -3.5 2.5t2.5 3.5h7q16 0 17 -11q0 -7 -7 -9q-1 -1 -4 -1q7 -15 13 -16q2 0 1 -4q0 -2 -2 -1zM162 231q-2 0 -2 2.5t2 2.5h3v32l-4 -1q-3 0 -1 4q0 2 2 2h13q2 -2 1 -5h-5v-32h4q2 0 2 -2.5t-2 -2.5h-13zM191 231q-5 -1 -8.5 4.5t-3.5 13.5q0 15 6 21h1l2 1q1 4 4 1
q4 0 6 -5q6 -5 5 -20.5t-12 -15.5zM212 233q-1 -4 -4 -2l-1 3q2 17 1 36q0 3 3 2q1 0 2 -2q12 -23 16 -29q-2 16 -2 29q2 1 5 1q0 -3 1 -16.5t0 -19.5q-2 -8 -6 -2q-2 3 -6.5 13t-7.5 14q1 -18 -1 -27zM115 255q6 0 8.5 3t0 6.5t-8.5 3.5h-2v-13h2zM188 237q4 -3 7 0
q9 9 0 26q-3 7 -8 1q-4 -5 -3 -14.5t4 -12.5z" />
    <glyph glyph-name="quotesingle" unicode="'" 
d="M332 451v-261h-319v261h319zM19 196h307v249h-307v-249zM87 377q-4 7 -7.5 21.5t-3.5 15.5q-1 2 3 3q1 1 2 -1q1 -3 3.5 -15t4.5 -19q2 23 5 33q0 3 4 2l1 -3q-2 -7 -3.5 -20t-2.5 -17q-1 -2 -3 -2.5t-3 2.5zM208 376q-5 1 -3 4l4 1q0 3 0.5 8t0.5 8q-3 0 -4 2q-2 3 2 3
h2l-1 10h-1q-2 0 -3 1q-1 3 2 4q21 0 22 -8q0 -7 -7 -9q3 0 6 -3q5 -4 3 -12t-10 -9q-4 -1 -7 0q-3 -5 -6 0zM56 377q-1 -4 -5 -2q-1 1 -1 3l3 13q-3 0 -3 2l2 2h2q2 4 5 19q4 6 6 1l5 -19h3q3 -1 2 -4q-1 -1 -3 -1h-1q1 -6 4 -12q1 -5 -3 -4q-1 0 -2 2t-2.5 7.5t-1.5 6.5
h-8zM106 377q0 -4 -4 -2q-2 0 -1 3q0 2 1 6t1 7q-2 0 -2 2t2 2h2q4 17 5 19t3 2.5t3 -1.5l5 -19h2q4 -1 2 -4l-2 -1h-1q1 -3 2 -7t1 -5q2 -5 -2 -4q-2 0 -3 2q-3 12 -3 14h-8zM130 375q-2 0 -2 2.5t2 2.5h4v32l-4 -1q-4 0 -2 4q0 2 2 2h4h6h3q2 -2 1 -5h-5v-32h4q1 -2 1 -5
h-14zM155 374q-3 0 -3 4q0 6 -1 18.5t-1 17.5q0 3 3 3t3 -3q0 -8 1 -19t0 -16h12q-1 2 -1 6q1 2 3 1.5t2 -2.5v-8q0 -2 -4 -2h-14zM183 377q-1 -4 -5 -2q-1 1 -1 3l3 13q-3 0 -3 2l2 2h2q1 2 3 9.5t3 9.5t2.5 2.5t2.5 -1.5l5 -19h3q3 -1 2 -4l-3 -1q1 -9 3 -12q1 -5 -3 -4
q-1 0 -2 2q-3 6 -3 14h-9zM241 374q-3 0 -3 4q0 6 -1 18.5t-1 17.5q0 3 3 3t3 -3q0 -8 1 -19t0 -16h12q-1 3 0 6q0 2 2 1.5t2 -2.5v-2v-3v-3q0 -2 -4 -2h-14zM268 374l-3 3v34q-3 1 -2.5 3t2.5 3h17q3 0 3 -3t-3 -3h-12v-11h10q4 1 4 -3q0 -1 -2 -2q-4 -1 -12 -1v-14l13 1
q5 0 2 -4q-1 -2 -3 -2t-6.5 -0.5t-7.5 -0.5zM218 402q3 1 4.5 3t0.5 4.5t-5 2.5h-4l1 -10h3zM65 396q0 1 -0.5 3t-1 4.5t-0.5 4.5h-1q0 -2 -1 -6.5t-1 -5.5h5zM116 396q-1 2 -3 12q0 -1 -1 -6t-2 -6h6zM192 396q0 1 -0.5 3t-1 4.5t-0.5 4.5h-1q0 -2 -1 -6.5t-1 -5.5h5z
M218 380q8 1 8.5 8t-6.5 9h-5l-1 -17h4zM140 304q2 4 0 13q-2 -1 -2 0q-2 0 -2 2t2 2h2v21q0 4 3 3q2 0 2 -2v-22h13q-1 8 -1 22q0 3 3 3q2 -1 2 -3q0 -8 1 -22t1 -15q0 -2 -2 -3q-3 -2 -3 2q0 8 -1 12h-12v-13q-2 -1 -6 0zM243 302q-9 1 -9 18q0 9 -1 22q0 5 4 3q2 0 2 -2
v-21q0 -14 5 -14q9 0 5 35q0 3 3 2l2 -3l1 -10q1 -10 0 -14q0 -16 -12 -16zM50 303q-2 0 -2 2.5t2 2.5h4v32l-4 -1q-2 0 -2 2.5t2 3.5h13q3 0 3 -2q2 -3 -2 -3h-5v-32h5q2 0 2 -2.5t-2 -2.5q-1 -1 -7 -0.5t-7 0.5zM121 304v36q-5 0 -8 -1q-3 0 -1 4q1 2 2 2h20q1 -2 -1 -6
h-7v-34q-2 -1 -5 -1zM175 302q-3 0 -3 3q-1 1 -1 11v23q-3 1 -2 3t3 3h16q3 0 3 -3t-3 -3h-11l-1 -11h11q4 1 4 -3q0 -1 -2 -2q-5 -1 -12 -1v-14l12 1q6 0 3 -4q-2 -2 -4 -2q-1 0 -5.5 -0.5t-7.5 -0.5zM266 302q-3 0 -3 4q0 6 -1 18.5t-1 17.5q0 3 3 3t3 -3q0 -8 1 -19
t0 -16h12q-2 3 0 6q0 2 2 1.5t2 -2.5v-2v-3v-3q0 -2 -4 -2h-14zM293 302q-3 0 -3 4q1 7 0 20t-1 16t2.5 3t2.5 -3q0 -10 1 -20.5t1 -14.5h11v6q0 2 3 1l2 -2v-8q-1 -2 -4 -2h-15zM208 340q0 4 2 4q12 1 17 0q2 0 2 -3q0 -1 -2 -2q-1 -1 -4 1h-10q0 -12 1 -15h10q2 1 2 -1
q1 -3 -1 -4h-11v-15q0 -2 -3 -2.5t-3 2.5v35zM75 305q0 -4 -4 -2l-1 3q2 17 1 36q0 3 3 2q1 0 2 -2q12 -23 16 -29q-2 16 -2 29q2 1 5 1q0 -3 1 -16.5t0 -19.5q-2 -8 -6 -2q-2 3 -6.5 13t-7.5 14q1 -18 -1 -27zM147 231q-6 -1 -9 3.5t-3 11.5q0 3 2.5 3t2.5 -3q0 -5 2 -8
t6 -2t3.5 5.5t-4.5 8.5l-4.5 4.5t-4.5 6.5q-2 8 3 11t10 -3v3q1 2 4 -1v-10v-2l-3 1q-2 6 -4 7q-3 2 -5 0t0 -5l6 -6q6 -7 7 -13q2 -12 -9 -12zM61 233q-3 6 -6.5 20.5t-4.5 16.5t3 3l2 -1q2 -6 4 -17t4 -17h1q1 14 4 33q1 3 4 2l1 -3q0 -2 -2.5 -17t-3.5 -20q0 -4 -4 -2
q-1 0 -2 2zM84 230q-3 0 -3 3q-1 1 -1 11v23q-3 1 -2 3t3 3h16q3 0 3 -3t-3 -3h-12v-11h11q4 1 4 -3q0 -1 -2 -2q-5 -1 -12 -1v-14l12 1q6 0 3 -4q-2 -2 -4 -2q-1 0 -5.5 -0.5t-7.5 -0.5zM131 231q-5 1 -11 9.5t-7 9.5q0 -10 1 -18q0 -2 -3 -2t-3 2q0 32 -1 35
q-3 0 -3.5 2.5t2.5 3.5h7q16 0 17 -11q0 -7 -7 -9q-1 -1 -4 -1q7 -15 13 -16q2 0 1 -4q0 -2 -2 -1zM162 231q-2 0 -2 2.5t2 2.5h3v32l-4 -1q-3 0 -1 4q0 2 2 2h13q2 -2 1 -5h-5v-32h4q2 0 2 -2.5t-2 -2.5h-13zM191 231q-5 -1 -8.5 4.5t-3.5 13.5q0 15 6 21h1l2 1q1 4 4 1
q4 0 6 -5q6 -5 5 -20.5t-12 -15.5zM212 233q-1 -4 -4 -2l-1 3q2 17 1 36q0 3 3 2q1 0 2 -2q12 -23 16 -29q-2 16 -2 29q2 1 5 1q0 -3 1 -16.5t0 -19.5q-2 -8 -6 -2q-2 3 -6.5 13t-7.5 14q1 -18 -1 -27zM115 255q6 0 8.5 3t0 6.5t-8.5 3.5h-2v-13h2zM188 237q4 -3 7 0
q9 9 0 26q-3 7 -8 1q-4 -5 -3 -14.5t4 -12.5z" />
    <glyph glyph-name="parenleft" unicode="(" 
d="M332 451v-261h-319v261h319zM19 196h307v249h-307v-249zM87 377q-4 7 -7.5 21.5t-3.5 15.5q-1 2 3 3q1 1 2 -1q1 -3 3.5 -15t4.5 -19q2 23 5 33q0 3 4 2l1 -3q-2 -7 -3.5 -20t-2.5 -17q-1 -2 -3 -2.5t-3 2.5zM208 376q-5 1 -3 4l4 1q0 3 0.5 8t0.5 8q-3 0 -4 2q-2 3 2 3
h2l-1 10h-1q-2 0 -3 1q-1 3 2 4q21 0 22 -8q0 -7 -7 -9q3 0 6 -3q5 -4 3 -12t-10 -9q-4 -1 -7 0q-3 -5 -6 0zM56 377q-1 -4 -5 -2q-1 1 -1 3l3 13q-3 0 -3 2l2 2h2q2 4 5 19q4 6 6 1l5 -19h3q3 -1 2 -4q-1 -1 -3 -1h-1q1 -6 4 -12q1 -5 -3 -4q-1 0 -2 2t-2.5 7.5t-1.5 6.5
h-8zM106 377q0 -4 -4 -2q-2 0 -1 3q0 2 1 6t1 7q-2 0 -2 2t2 2h2q4 17 5 19t3 2.5t3 -1.5l5 -19h2q4 -1 2 -4l-2 -1h-1q1 -3 2 -7t1 -5q2 -5 -2 -4q-2 0 -3 2q-3 12 -3 14h-8zM130 375q-2 0 -2 2.5t2 2.5h4v32l-4 -1q-4 0 -2 4q0 2 2 2h4h6h3q2 -2 1 -5h-5v-32h4q1 -2 1 -5
h-14zM155 374q-3 0 -3 4q0 6 -1 18.5t-1 17.5q0 3 3 3t3 -3q0 -8 1 -19t0 -16h12q-1 2 -1 6q1 2 3 1.5t2 -2.5v-8q0 -2 -4 -2h-14zM183 377q-1 -4 -5 -2q-1 1 -1 3l3 13q-3 0 -3 2l2 2h2q1 2 3 9.5t3 9.5t2.5 2.5t2.5 -1.5l5 -19h3q3 -1 2 -4l-3 -1q1 -9 3 -12q1 -5 -3 -4
q-1 0 -2 2q-3 6 -3 14h-9zM241 374q-3 0 -3 4q0 6 -1 18.5t-1 17.5q0 3 3 3t3 -3q0 -8 1 -19t0 -16h12q-1 3 0 6q0 2 2 1.5t2 -2.5v-2v-3v-3q0 -2 -4 -2h-14zM268 374l-3 3v34q-3 1 -2.5 3t2.5 3h17q3 0 3 -3t-3 -3h-12v-11h10q4 1 4 -3q0 -1 -2 -2q-4 -1 -12 -1v-14l13 1
q5 0 2 -4q-1 -2 -3 -2t-6.5 -0.5t-7.5 -0.5zM218 402q3 1 4.5 3t0.5 4.5t-5 2.5h-4l1 -10h3zM65 396q0 1 -0.5 3t-1 4.5t-0.5 4.5h-1q0 -2 -1 -6.5t-1 -5.5h5zM116 396q-1 2 -3 12q0 -1 -1 -6t-2 -6h6zM192 396q0 1 -0.5 3t-1 4.5t-0.5 4.5h-1q0 -2 -1 -6.5t-1 -5.5h5z
M218 380q8 1 8.5 8t-6.5 9h-5l-1 -17h4zM140 304q2 4 0 13q-2 -1 -2 0q-2 0 -2 2t2 2h2v21q0 4 3 3q2 0 2 -2v-22h13q-1 8 -1 22q0 3 3 3q2 -1 2 -3q0 -8 1 -22t1 -15q0 -2 -2 -3q-3 -2 -3 2q0 8 -1 12h-12v-13q-2 -1 -6 0zM243 302q-9 1 -9 18q0 9 -1 22q0 5 4 3q2 0 2 -2
v-21q0 -14 5 -14q9 0 5 35q0 3 3 2l2 -3l1 -10q1 -10 0 -14q0 -16 -12 -16zM50 303q-2 0 -2 2.5t2 2.5h4v32l-4 -1q-2 0 -2 2.5t2 3.5h13q3 0 3 -2q2 -3 -2 -3h-5v-32h5q2 0 2 -2.5t-2 -2.5q-1 -1 -7 -0.5t-7 0.5zM121 304v36q-5 0 -8 -1q-3 0 -1 4q1 2 2 2h20q1 -2 -1 -6
h-7v-34q-2 -1 -5 -1zM175 302q-3 0 -3 3q-1 1 -1 11v23q-3 1 -2 3t3 3h16q3 0 3 -3t-3 -3h-11l-1 -11h11q4 1 4 -3q0 -1 -2 -2q-5 -1 -12 -1v-14l12 1q6 0 3 -4q-2 -2 -4 -2q-1 0 -5.5 -0.5t-7.5 -0.5zM266 302q-3 0 -3 4q0 6 -1 18.5t-1 17.5q0 3 3 3t3 -3q0 -8 1 -19
t0 -16h12q-2 3 0 6q0 2 2 1.5t2 -2.5v-2v-3v-3q0 -2 -4 -2h-14zM293 302q-3 0 -3 4q1 7 0 20t-1 16t2.5 3t2.5 -3q0 -10 1 -20.5t1 -14.5h11v6q0 2 3 1l2 -2v-8q-1 -2 -4 -2h-15zM208 340q0 4 2 4q12 1 17 0q2 0 2 -3q0 -1 -2 -2q-1 -1 -4 1h-10q0 -12 1 -15h10q2 1 2 -1
q1 -3 -1 -4h-11v-15q0 -2 -3 -2.5t-3 2.5v35zM75 305q0 -4 -4 -2l-1 3q2 17 1 36q0 3 3 2q1 0 2 -2q12 -23 16 -29q-2 16 -2 29q2 1 5 1q0 -3 1 -16.5t0 -19.5q-2 -8 -6 -2q-2 3 -6.5 13t-7.5 14q1 -18 -1 -27zM147 231q-6 -1 -9 3.5t-3 11.5q0 3 2.5 3t2.5 -3q0 -5 2 -8
t6 -2t3.5 5.5t-4.5 8.5l-4.5 4.5t-4.5 6.5q-2 8 3 11t10 -3v3q1 2 4 -1v-10v-2l-3 1q-2 6 -4 7q-3 2 -5 0t0 -5l6 -6q6 -7 7 -13q2 -12 -9 -12zM61 233q-3 6 -6.5 20.5t-4.5 16.5t3 3l2 -1q2 -6 4 -17t4 -17h1q1 14 4 33q1 3 4 2l1 -3q0 -2 -2.5 -17t-3.5 -20q0 -4 -4 -2
q-1 0 -2 2zM84 230q-3 0 -3 3q-1 1 -1 11v23q-3 1 -2 3t3 3h16q3 0 3 -3t-3 -3h-12v-11h11q4 1 4 -3q0 -1 -2 -2q-5 -1 -12 -1v-14l12 1q6 0 3 -4q-2 -2 -4 -2q-1 0 -5.5 -0.5t-7.5 -0.5zM131 231q-5 1 -11 9.5t-7 9.5q0 -10 1 -18q0 -2 -3 -2t-3 2q0 32 -1 35
q-3 0 -3.5 2.5t2.5 3.5h7q16 0 17 -11q0 -7 -7 -9q-1 -1 -4 -1q7 -15 13 -16q2 0 1 -4q0 -2 -2 -1zM162 231q-2 0 -2 2.5t2 2.5h3v32l-4 -1q-3 0 -1 4q0 2 2 2h13q2 -2 1 -5h-5v-32h4q2 0 2 -2.5t-2 -2.5h-13zM191 231q-5 -1 -8.5 4.5t-3.5 13.5q0 15 6 21h1l2 1q1 4 4 1
q4 0 6 -5q6 -5 5 -20.5t-12 -15.5zM212 233q-1 -4 -4 -2l-1 3q2 17 1 36q0 3 3 2q1 0 2 -2q12 -23 16 -29q-2 16 -2 29q2 1 5 1q0 -3 1 -16.5t0 -19.5q-2 -8 -6 -2q-2 3 -6.5 13t-7.5 14q1 -18 -1 -27zM115 255q6 0 8.5 3t0 6.5t-8.5 3.5h-2v-13h2zM188 237q4 -3 7 0
q9 9 0 26q-3 7 -8 1q-4 -5 -3 -14.5t4 -12.5z" />
    <glyph glyph-name="parenright" unicode=")" 
d="M332 451v-261h-319v261h319zM19 196h307v249h-307v-249zM87 377q-4 7 -7.5 21.5t-3.5 15.5q-1 2 3 3q1 1 2 -1q1 -3 3.5 -15t4.5 -19q2 23 5 33q0 3 4 2l1 -3q-2 -7 -3.5 -20t-2.5 -17q-1 -2 -3 -2.5t-3 2.5zM208 376q-5 1 -3 4l4 1q0 3 0.5 8t0.5 8q-3 0 -4 2q-2 3 2 3
h2l-1 10h-1q-2 0 -3 1q-1 3 2 4q21 0 22 -8q0 -7 -7 -9q3 0 6 -3q5 -4 3 -12t-10 -9q-4 -1 -7 0q-3 -5 -6 0zM56 377q-1 -4 -5 -2q-1 1 -1 3l3 13q-3 0 -3 2l2 2h2q2 4 5 19q4 6 6 1l5 -19h3q3 -1 2 -4q-1 -1 -3 -1h-1q1 -6 4 -12q1 -5 -3 -4q-1 0 -2 2t-2.5 7.5t-1.5 6.5
h-8zM106 377q0 -4 -4 -2q-2 0 -1 3q0 2 1 6t1 7q-2 0 -2 2t2 2h2q4 17 5 19t3 2.5t3 -1.5l5 -19h2q4 -1 2 -4l-2 -1h-1q1 -3 2 -7t1 -5q2 -5 -2 -4q-2 0 -3 2q-3 12 -3 14h-8zM130 375q-2 0 -2 2.5t2 2.5h4v32l-4 -1q-4 0 -2 4q0 2 2 2h4h6h3q2 -2 1 -5h-5v-32h4q1 -2 1 -5
h-14zM155 374q-3 0 -3 4q0 6 -1 18.5t-1 17.5q0 3 3 3t3 -3q0 -8 1 -19t0 -16h12q-1 2 -1 6q1 2 3 1.5t2 -2.5v-8q0 -2 -4 -2h-14zM183 377q-1 -4 -5 -2q-1 1 -1 3l3 13q-3 0 -3 2l2 2h2q1 2 3 9.5t3 9.5t2.5 2.5t2.5 -1.5l5 -19h3q3 -1 2 -4l-3 -1q1 -9 3 -12q1 -5 -3 -4
q-1 0 -2 2q-3 6 -3 14h-9zM241 374q-3 0 -3 4q0 6 -1 18.5t-1 17.5q0 3 3 3t3 -3q0 -8 1 -19t0 -16h12q-1 3 0 6q0 2 2 1.5t2 -2.5v-2v-3v-3q0 -2 -4 -2h-14zM268 374l-3 3v34q-3 1 -2.5 3t2.5 3h17q3 0 3 -3t-3 -3h-12v-11h10q4 1 4 -3q0 -1 -2 -2q-4 -1 -12 -1v-14l13 1
q5 0 2 -4q-1 -2 -3 -2t-6.5 -0.5t-7.5 -0.5zM218 402q3 1 4.5 3t0.5 4.5t-5 2.5h-4l1 -10h3zM65 396q0 1 -0.5 3t-1 4.5t-0.5 4.5h-1q0 -2 -1 -6.5t-1 -5.5h5zM116 396q-1 2 -3 12q0 -1 -1 -6t-2 -6h6zM192 396q0 1 -0.5 3t-1 4.5t-0.5 4.5h-1q0 -2 -1 -6.5t-1 -5.5h5z
M218 380q8 1 8.5 8t-6.5 9h-5l-1 -17h4zM140 304q2 4 0 13q-2 -1 -2 0q-2 0 -2 2t2 2h2v21q0 4 3 3q2 0 2 -2v-22h13q-1 8 -1 22q0 3 3 3q2 -1 2 -3q0 -8 1 -22t1 -15q0 -2 -2 -3q-3 -2 -3 2q0 8 -1 12h-12v-13q-2 -1 -6 0zM243 302q-9 1 -9 18q0 9 -1 22q0 5 4 3q2 0 2 -2
v-21q0 -14 5 -14q9 0 5 35q0 3 3 2l2 -3l1 -10q1 -10 0 -14q0 -16 -12 -16zM50 303q-2 0 -2 2.5t2 2.5h4v32l-4 -1q-2 0 -2 2.5t2 3.5h13q3 0 3 -2q2 -3 -2 -3h-5v-32h5q2 0 2 -2.5t-2 -2.5q-1 -1 -7 -0.5t-7 0.5zM121 304v36q-5 0 -8 -1q-3 0 -1 4q1 2 2 2h20q1 -2 -1 -6
h-7v-34q-2 -1 -5 -1zM175 302q-3 0 -3 3q-1 1 -1 11v23q-3 1 -2 3t3 3h16q3 0 3 -3t-3 -3h-11l-1 -11h11q4 1 4 -3q0 -1 -2 -2q-5 -1 -12 -1v-14l12 1q6 0 3 -4q-2 -2 -4 -2q-1 0 -5.5 -0.5t-7.5 -0.5zM266 302q-3 0 -3 4q0 6 -1 18.5t-1 17.5q0 3 3 3t3 -3q0 -8 1 -19
t0 -16h12q-2 3 0 6q0 2 2 1.5t2 -2.5v-2v-3v-3q0 -2 -4 -2h-14zM293 302q-3 0 -3 4q1 7 0 20t-1 16t2.5 3t2.5 -3q0 -10 1 -20.5t1 -14.5h11v6q0 2 3 1l2 -2v-8q-1 -2 -4 -2h-15zM208 340q0 4 2 4q12 1 17 0q2 0 2 -3q0 -1 -2 -2q-1 -1 -4 1h-10q0 -12 1 -15h10q2 1 2 -1
q1 -3 -1 -4h-11v-15q0 -2 -3 -2.5t-3 2.5v35zM75 305q0 -4 -4 -2l-1 3q2 17 1 36q0 3 3 2q1 0 2 -2q12 -23 16 -29q-2 16 -2 29q2 1 5 1q0 -3 1 -16.5t0 -19.5q-2 -8 -6 -2q-2 3 -6.5 13t-7.5 14q1 -18 -1 -27zM147 231q-6 -1 -9 3.5t-3 11.5q0 3 2.5 3t2.5 -3q0 -5 2 -8
t6 -2t3.5 5.5t-4.5 8.5l-4.5 4.5t-4.5 6.5q-2 8 3 11t10 -3v3q1 2 4 -1v-10v-2l-3 1q-2 6 -4 7q-3 2 -5 0t0 -5l6 -6q6 -7 7 -13q2 -12 -9 -12zM61 233q-3 6 -6.5 20.5t-4.5 16.5t3 3l2 -1q2 -6 4 -17t4 -17h1q1 14 4 33q1 3 4 2l1 -3q0 -2 -2.5 -17t-3.5 -20q0 -4 -4 -2
q-1 0 -2 2zM84 230q-3 0 -3 3q-1 1 -1 11v23q-3 1 -2 3t3 3h16q3 0 3 -3t-3 -3h-12v-11h11q4 1 4 -3q0 -1 -2 -2q-5 -1 -12 -1v-14l12 1q6 0 3 -4q-2 -2 -4 -2q-1 0 -5.5 -0.5t-7.5 -0.5zM131 231q-5 1 -11 9.5t-7 9.5q0 -10 1 -18q0 -2 -3 -2t-3 2q0 32 -1 35
q-3 0 -3.5 2.5t2.5 3.5h7q16 0 17 -11q0 -7 -7 -9q-1 -1 -4 -1q7 -15 13 -16q2 0 1 -4q0 -2 -2 -1zM162 231q-2 0 -2 2.5t2 2.5h3v32l-4 -1q-3 0 -1 4q0 2 2 2h13q2 -2 1 -5h-5v-32h4q2 0 2 -2.5t-2 -2.5h-13zM191 231q-5 -1 -8.5 4.5t-3.5 13.5q0 15 6 21h1l2 1q1 4 4 1
q4 0 6 -5q6 -5 5 -20.5t-12 -15.5zM212 233q-1 -4 -4 -2l-1 3q2 17 1 36q0 3 3 2q1 0 2 -2q12 -23 16 -29q-2 16 -2 29q2 1 5 1q0 -3 1 -16.5t0 -19.5q-2 -8 -6 -2q-2 3 -6.5 13t-7.5 14q1 -18 -1 -27zM115 255q6 0 8.5 3t0 6.5t-8.5 3.5h-2v-13h2zM188 237q4 -3 7 0
q9 9 0 26q-3 7 -8 1q-4 -5 -3 -14.5t4 -12.5z" />
    <glyph glyph-name="asterisk" unicode="*" 
d="M332 451v-261h-319v261h319zM19 196h307v249h-307v-249zM87 377q-4 7 -7.5 21.5t-3.5 15.5q-1 2 3 3q1 1 2 -1q1 -3 3.5 -15t4.5 -19q2 23 5 33q0 3 4 2l1 -3q-2 -7 -3.5 -20t-2.5 -17q-1 -2 -3 -2.5t-3 2.5zM208 376q-5 1 -3 4l4 1q0 3 0.5 8t0.5 8q-3 0 -4 2q-2 3 2 3
h2l-1 10h-1q-2 0 -3 1q-1 3 2 4q21 0 22 -8q0 -7 -7 -9q3 0 6 -3q5 -4 3 -12t-10 -9q-4 -1 -7 0q-3 -5 -6 0zM56 377q-1 -4 -5 -2q-1 1 -1 3l3 13q-3 0 -3 2l2 2h2q2 4 5 19q4 6 6 1l5 -19h3q3 -1 2 -4q-1 -1 -3 -1h-1q1 -6 4 -12q1 -5 -3 -4q-1 0 -2 2t-2.5 7.5t-1.5 6.5
h-8zM106 377q0 -4 -4 -2q-2 0 -1 3q0 2 1 6t1 7q-2 0 -2 2t2 2h2q4 17 5 19t3 2.5t3 -1.5l5 -19h2q4 -1 2 -4l-2 -1h-1q1 -3 2 -7t1 -5q2 -5 -2 -4q-2 0 -3 2q-3 12 -3 14h-8zM130 375q-2 0 -2 2.5t2 2.5h4v32l-4 -1q-4 0 -2 4q0 2 2 2h4h6h3q2 -2 1 -5h-5v-32h4q1 -2 1 -5
h-14zM155 374q-3 0 -3 4q0 6 -1 18.5t-1 17.5q0 3 3 3t3 -3q0 -8 1 -19t0 -16h12q-1 2 -1 6q1 2 3 1.5t2 -2.5v-8q0 -2 -4 -2h-14zM183 377q-1 -4 -5 -2q-1 1 -1 3l3 13q-3 0 -3 2l2 2h2q1 2 3 9.5t3 9.5t2.5 2.5t2.5 -1.5l5 -19h3q3 -1 2 -4l-3 -1q1 -9 3 -12q1 -5 -3 -4
q-1 0 -2 2q-3 6 -3 14h-9zM241 374q-3 0 -3 4q0 6 -1 18.5t-1 17.5q0 3 3 3t3 -3q0 -8 1 -19t0 -16h12q-1 3 0 6q0 2 2 1.5t2 -2.5v-2v-3v-3q0 -2 -4 -2h-14zM268 374l-3 3v34q-3 1 -2.5 3t2.5 3h17q3 0 3 -3t-3 -3h-12v-11h10q4 1 4 -3q0 -1 -2 -2q-4 -1 -12 -1v-14l13 1
q5 0 2 -4q-1 -2 -3 -2t-6.5 -0.5t-7.5 -0.5zM218 402q3 1 4.5 3t0.5 4.5t-5 2.5h-4l1 -10h3zM65 396q0 1 -0.5 3t-1 4.5t-0.5 4.5h-1q0 -2 -1 -6.5t-1 -5.5h5zM116 396q-1 2 -3 12q0 -1 -1 -6t-2 -6h6zM192 396q0 1 -0.5 3t-1 4.5t-0.5 4.5h-1q0 -2 -1 -6.5t-1 -5.5h5z
M218 380q8 1 8.5 8t-6.5 9h-5l-1 -17h4zM140 304q2 4 0 13q-2 -1 -2 0q-2 0 -2 2t2 2h2v21q0 4 3 3q2 0 2 -2v-22h13q-1 8 -1 22q0 3 3 3q2 -1 2 -3q0 -8 1 -22t1 -15q0 -2 -2 -3q-3 -2 -3 2q0 8 -1 12h-12v-13q-2 -1 -6 0zM243 302q-9 1 -9 18q0 9 -1 22q0 5 4 3q2 0 2 -2
v-21q0 -14 5 -14q9 0 5 35q0 3 3 2l2 -3l1 -10q1 -10 0 -14q0 -16 -12 -16zM50 303q-2 0 -2 2.5t2 2.5h4v32l-4 -1q-2 0 -2 2.5t2 3.5h13q3 0 3 -2q2 -3 -2 -3h-5v-32h5q2 0 2 -2.5t-2 -2.5q-1 -1 -7 -0.5t-7 0.5zM121 304v36q-5 0 -8 -1q-3 0 -1 4q1 2 2 2h20q1 -2 -1 -6
h-7v-34q-2 -1 -5 -1zM175 302q-3 0 -3 3q-1 1 -1 11v23q-3 1 -2 3t3 3h16q3 0 3 -3t-3 -3h-11l-1 -11h11q4 1 4 -3q0 -1 -2 -2q-5 -1 -12 -1v-14l12 1q6 0 3 -4q-2 -2 -4 -2q-1 0 -5.5 -0.5t-7.5 -0.5zM266 302q-3 0 -3 4q0 6 -1 18.5t-1 17.5q0 3 3 3t3 -3q0 -8 1 -19
t0 -16h12q-2 3 0 6q0 2 2 1.5t2 -2.5v-2v-3v-3q0 -2 -4 -2h-14zM293 302q-3 0 -3 4q1 7 0 20t-1 16t2.5 3t2.5 -3q0 -10 1 -20.5t1 -14.5h11v6q0 2 3 1l2 -2v-8q-1 -2 -4 -2h-15zM208 340q0 4 2 4q12 1 17 0q2 0 2 -3q0 -1 -2 -2q-1 -1 -4 1h-10q0 -12 1 -15h10q2 1 2 -1
q1 -3 -1 -4h-11v-15q0 -2 -3 -2.5t-3 2.5v35zM75 305q0 -4 -4 -2l-1 3q2 17 1 36q0 3 3 2q1 0 2 -2q12 -23 16 -29q-2 16 -2 29q2 1 5 1q0 -3 1 -16.5t0 -19.5q-2 -8 -6 -2q-2 3 -6.5 13t-7.5 14q1 -18 -1 -27zM147 231q-6 -1 -9 3.5t-3 11.5q0 3 2.5 3t2.5 -3q0 -5 2 -8
t6 -2t3.5 5.5t-4.5 8.5l-4.5 4.5t-4.5 6.5q-2 8 3 11t10 -3v3q1 2 4 -1v-10v-2l-3 1q-2 6 -4 7q-3 2 -5 0t0 -5l6 -6q6 -7 7 -13q2 -12 -9 -12zM61 233q-3 6 -6.5 20.5t-4.5 16.5t3 3l2 -1q2 -6 4 -17t4 -17h1q1 14 4 33q1 3 4 2l1 -3q0 -2 -2.5 -17t-3.5 -20q0 -4 -4 -2
q-1 0 -2 2zM84 230q-3 0 -3 3q-1 1 -1 11v23q-3 1 -2 3t3 3h16q3 0 3 -3t-3 -3h-12v-11h11q4 1 4 -3q0 -1 -2 -2q-5 -1 -12 -1v-14l12 1q6 0 3 -4q-2 -2 -4 -2q-1 0 -5.5 -0.5t-7.5 -0.5zM131 231q-5 1 -11 9.5t-7 9.5q0 -10 1 -18q0 -2 -3 -2t-3 2q0 32 -1 35
q-3 0 -3.5 2.5t2.5 3.5h7q16 0 17 -11q0 -7 -7 -9q-1 -1 -4 -1q7 -15 13 -16q2 0 1 -4q0 -2 -2 -1zM162 231q-2 0 -2 2.5t2 2.5h3v32l-4 -1q-3 0 -1 4q0 2 2 2h13q2 -2 1 -5h-5v-32h4q2 0 2 -2.5t-2 -2.5h-13zM191 231q-5 -1 -8.5 4.5t-3.5 13.5q0 15 6 21h1l2 1q1 4 4 1
q4 0 6 -5q6 -5 5 -20.5t-12 -15.5zM212 233q-1 -4 -4 -2l-1 3q2 17 1 36q0 3 3 2q1 0 2 -2q12 -23 16 -29q-2 16 -2 29q2 1 5 1q0 -3 1 -16.5t0 -19.5q-2 -8 -6 -2q-2 3 -6.5 13t-7.5 14q1 -18 -1 -27zM115 255q6 0 8.5 3t0 6.5t-8.5 3.5h-2v-13h2zM188 237q4 -3 7 0
q9 9 0 26q-3 7 -8 1q-4 -5 -3 -14.5t4 -12.5z" />
    <glyph glyph-name="plus" unicode="+" 
d="M332 451v-261h-319v261h319zM19 196h307v249h-307v-249zM87 377q-4 7 -7.5 21.5t-3.5 15.5q-1 2 3 3q1 1 2 -1q1 -3 3.5 -15t4.5 -19q2 23 5 33q0 3 4 2l1 -3q-2 -7 -3.5 -20t-2.5 -17q-1 -2 -3 -2.5t-3 2.5zM208 376q-5 1 -3 4l4 1q0 3 0.5 8t0.5 8q-3 0 -4 2q-2 3 2 3
h2l-1 10h-1q-2 0 -3 1q-1 3 2 4q21 0 22 -8q0 -7 -7 -9q3 0 6 -3q5 -4 3 -12t-10 -9q-4 -1 -7 0q-3 -5 -6 0zM56 377q-1 -4 -5 -2q-1 1 -1 3l3 13q-3 0 -3 2l2 2h2q2 4 5 19q4 6 6 1l5 -19h3q3 -1 2 -4q-1 -1 -3 -1h-1q1 -6 4 -12q1 -5 -3 -4q-1 0 -2 2t-2.5 7.5t-1.5 6.5
h-8zM106 377q0 -4 -4 -2q-2 0 -1 3q0 2 1 6t1 7q-2 0 -2 2t2 2h2q4 17 5 19t3 2.5t3 -1.5l5 -19h2q4 -1 2 -4l-2 -1h-1q1 -3 2 -7t1 -5q2 -5 -2 -4q-2 0 -3 2q-3 12 -3 14h-8zM130 375q-2 0 -2 2.5t2 2.5h4v32l-4 -1q-4 0 -2 4q0 2 2 2h4h6h3q2 -2 1 -5h-5v-32h4q1 -2 1 -5
h-14zM155 374q-3 0 -3 4q0 6 -1 18.5t-1 17.5q0 3 3 3t3 -3q0 -8 1 -19t0 -16h12q-1 2 -1 6q1 2 3 1.5t2 -2.5v-8q0 -2 -4 -2h-14zM183 377q-1 -4 -5 -2q-1 1 -1 3l3 13q-3 0 -3 2l2 2h2q1 2 3 9.5t3 9.5t2.5 2.5t2.5 -1.5l5 -19h3q3 -1 2 -4l-3 -1q1 -9 3 -12q1 -5 -3 -4
q-1 0 -2 2q-3 6 -3 14h-9zM241 374q-3 0 -3 4q0 6 -1 18.5t-1 17.5q0 3 3 3t3 -3q0 -8 1 -19t0 -16h12q-1 3 0 6q0 2 2 1.5t2 -2.5v-2v-3v-3q0 -2 -4 -2h-14zM268 374l-3 3v34q-3 1 -2.5 3t2.5 3h17q3 0 3 -3t-3 -3h-12v-11h10q4 1 4 -3q0 -1 -2 -2q-4 -1 -12 -1v-14l13 1
q5 0 2 -4q-1 -2 -3 -2t-6.5 -0.5t-7.5 -0.5zM218 402q3 1 4.5 3t0.5 4.5t-5 2.5h-4l1 -10h3zM65 396q0 1 -0.5 3t-1 4.5t-0.5 4.5h-1q0 -2 -1 -6.5t-1 -5.5h5zM116 396q-1 2 -3 12q0 -1 -1 -6t-2 -6h6zM192 396q0 1 -0.5 3t-1 4.5t-0.5 4.5h-1q0 -2 -1 -6.5t-1 -5.5h5z
M218 380q8 1 8.5 8t-6.5 9h-5l-1 -17h4zM140 304q2 4 0 13q-2 -1 -2 0q-2 0 -2 2t2 2h2v21q0 4 3 3q2 0 2 -2v-22h13q-1 8 -1 22q0 3 3 3q2 -1 2 -3q0 -8 1 -22t1 -15q0 -2 -2 -3q-3 -2 -3 2q0 8 -1 12h-12v-13q-2 -1 -6 0zM243 302q-9 1 -9 18q0 9 -1 22q0 5 4 3q2 0 2 -2
v-21q0 -14 5 -14q9 0 5 35q0 3 3 2l2 -3l1 -10q1 -10 0 -14q0 -16 -12 -16zM50 303q-2 0 -2 2.5t2 2.5h4v32l-4 -1q-2 0 -2 2.5t2 3.5h13q3 0 3 -2q2 -3 -2 -3h-5v-32h5q2 0 2 -2.5t-2 -2.5q-1 -1 -7 -0.5t-7 0.5zM121 304v36q-5 0 -8 -1q-3 0 -1 4q1 2 2 2h20q1 -2 -1 -6
h-7v-34q-2 -1 -5 -1zM175 302q-3 0 -3 3q-1 1 -1 11v23q-3 1 -2 3t3 3h16q3 0 3 -3t-3 -3h-11l-1 -11h11q4 1 4 -3q0 -1 -2 -2q-5 -1 -12 -1v-14l12 1q6 0 3 -4q-2 -2 -4 -2q-1 0 -5.5 -0.5t-7.5 -0.5zM266 302q-3 0 -3 4q0 6 -1 18.5t-1 17.5q0 3 3 3t3 -3q0 -8 1 -19
t0 -16h12q-2 3 0 6q0 2 2 1.5t2 -2.5v-2v-3v-3q0 -2 -4 -2h-14zM293 302q-3 0 -3 4q1 7 0 20t-1 16t2.5 3t2.5 -3q0 -10 1 -20.5t1 -14.5h11v6q0 2 3 1l2 -2v-8q-1 -2 -4 -2h-15zM208 340q0 4 2 4q12 1 17 0q2 0 2 -3q0 -1 -2 -2q-1 -1 -4 1h-10q0 -12 1 -15h10q2 1 2 -1
q1 -3 -1 -4h-11v-15q0 -2 -3 -2.5t-3 2.5v35zM75 305q0 -4 -4 -2l-1 3q2 17 1 36q0 3 3 2q1 0 2 -2q12 -23 16 -29q-2 16 -2 29q2 1 5 1q0 -3 1 -16.5t0 -19.5q-2 -8 -6 -2q-2 3 -6.5 13t-7.5 14q1 -18 -1 -27zM147 231q-6 -1 -9 3.5t-3 11.5q0 3 2.5 3t2.5 -3q0 -5 2 -8
t6 -2t3.5 5.5t-4.5 8.5l-4.5 4.5t-4.5 6.5q-2 8 3 11t10 -3v3q1 2 4 -1v-10v-2l-3 1q-2 6 -4 7q-3 2 -5 0t0 -5l6 -6q6 -7 7 -13q2 -12 -9 -12zM61 233q-3 6 -6.5 20.5t-4.5 16.5t3 3l2 -1q2 -6 4 -17t4 -17h1q1 14 4 33q1 3 4 2l1 -3q0 -2 -2.5 -17t-3.5 -20q0 -4 -4 -2
q-1 0 -2 2zM84 230q-3 0 -3 3q-1 1 -1 11v23q-3 1 -2 3t3 3h16q3 0 3 -3t-3 -3h-12v-11h11q4 1 4 -3q0 -1 -2 -2q-5 -1 -12 -1v-14l12 1q6 0 3 -4q-2 -2 -4 -2q-1 0 -5.5 -0.5t-7.5 -0.5zM131 231q-5 1 -11 9.5t-7 9.5q0 -10 1 -18q0 -2 -3 -2t-3 2q0 32 -1 35
q-3 0 -3.5 2.5t2.5 3.5h7q16 0 17 -11q0 -7 -7 -9q-1 -1 -4 -1q7 -15 13 -16q2 0 1 -4q0 -2 -2 -1zM162 231q-2 0 -2 2.5t2 2.5h3v32l-4 -1q-3 0 -1 4q0 2 2 2h13q2 -2 1 -5h-5v-32h4q2 0 2 -2.5t-2 -2.5h-13zM191 231q-5 -1 -8.5 4.5t-3.5 13.5q0 15 6 21h1l2 1q1 4 4 1
q4 0 6 -5q6 -5 5 -20.5t-12 -15.5zM212 233q-1 -4 -4 -2l-1 3q2 17 1 36q0 3 3 2q1 0 2 -2q12 -23 16 -29q-2 16 -2 29q2 1 5 1q0 -3 1 -16.5t0 -19.5q-2 -8 -6 -2q-2 3 -6.5 13t-7.5 14q1 -18 -1 -27zM115 255q6 0 8.5 3t0 6.5t-8.5 3.5h-2v-13h2zM188 237q4 -3 7 0
q9 9 0 26q-3 7 -8 1q-4 -5 -3 -14.5t4 -12.5z" />
    <glyph glyph-name="comma" unicode="," horiz-adv-x="122" 
d="M79 11q-3 -65 -16 -97q-3 -5 -8.5 -7t-9 1.5t-1.5 10.5q6 19 8 32t1 24.5t0 33.5q0 11 13.5 12.5t12.5 -10.5z" />
    <glyph glyph-name="hyphen" unicode="-" 
d="M332 451v-261h-319v261h319zM19 196h307v249h-307v-249zM87 377q-4 7 -7.5 21.5t-3.5 15.5q-1 2 3 3q1 1 2 -1q1 -3 3.5 -15t4.5 -19q2 23 5 33q0 3 4 2l1 -3q-2 -7 -3.5 -20t-2.5 -17q-1 -2 -3 -2.5t-3 2.5zM208 376q-5 1 -3 4l4 1q0 3 0.5 8t0.5 8q-3 0 -4 2q-2 3 2 3
h2l-1 10h-1q-2 0 -3 1q-1 3 2 4q21 0 22 -8q0 -7 -7 -9q3 0 6 -3q5 -4 3 -12t-10 -9q-4 -1 -7 0q-3 -5 -6 0zM56 377q-1 -4 -5 -2q-1 1 -1 3l3 13q-3 0 -3 2l2 2h2q2 4 5 19q4 6 6 1l5 -19h3q3 -1 2 -4q-1 -1 -3 -1h-1q1 -6 4 -12q1 -5 -3 -4q-1 0 -2 2t-2.5 7.5t-1.5 6.5
h-8zM106 377q0 -4 -4 -2q-2 0 -1 3q0 2 1 6t1 7q-2 0 -2 2t2 2h2q4 17 5 19t3 2.5t3 -1.5l5 -19h2q4 -1 2 -4l-2 -1h-1q1 -3 2 -7t1 -5q2 -5 -2 -4q-2 0 -3 2q-3 12 -3 14h-8zM130 375q-2 0 -2 2.5t2 2.5h4v32l-4 -1q-4 0 -2 4q0 2 2 2h4h6h3q2 -2 1 -5h-5v-32h4q1 -2 1 -5
h-14zM155 374q-3 0 -3 4q0 6 -1 18.5t-1 17.5q0 3 3 3t3 -3q0 -8 1 -19t0 -16h12q-1 2 -1 6q1 2 3 1.5t2 -2.5v-8q0 -2 -4 -2h-14zM183 377q-1 -4 -5 -2q-1 1 -1 3l3 13q-3 0 -3 2l2 2h2q1 2 3 9.5t3 9.5t2.5 2.5t2.5 -1.5l5 -19h3q3 -1 2 -4l-3 -1q1 -9 3 -12q1 -5 -3 -4
q-1 0 -2 2q-3 6 -3 14h-9zM241 374q-3 0 -3 4q0 6 -1 18.5t-1 17.5q0 3 3 3t3 -3q0 -8 1 -19t0 -16h12q-1 3 0 6q0 2 2 1.5t2 -2.5v-2v-3v-3q0 -2 -4 -2h-14zM268 374l-3 3v34q-3 1 -2.5 3t2.5 3h17q3 0 3 -3t-3 -3h-12v-11h10q4 1 4 -3q0 -1 -2 -2q-4 -1 -12 -1v-14l13 1
q5 0 2 -4q-1 -2 -3 -2t-6.5 -0.5t-7.5 -0.5zM218 402q3 1 4.5 3t0.5 4.5t-5 2.5h-4l1 -10h3zM65 396q0 1 -0.5 3t-1 4.5t-0.5 4.5h-1q0 -2 -1 -6.5t-1 -5.5h5zM116 396q-1 2 -3 12q0 -1 -1 -6t-2 -6h6zM192 396q0 1 -0.5 3t-1 4.5t-0.5 4.5h-1q0 -2 -1 -6.5t-1 -5.5h5z
M218 380q8 1 8.5 8t-6.5 9h-5l-1 -17h4zM140 304q2 4 0 13q-2 -1 -2 0q-2 0 -2 2t2 2h2v21q0 4 3 3q2 0 2 -2v-22h13q-1 8 -1 22q0 3 3 3q2 -1 2 -3q0 -8 1 -22t1 -15q0 -2 -2 -3q-3 -2 -3 2q0 8 -1 12h-12v-13q-2 -1 -6 0zM243 302q-9 1 -9 18q0 9 -1 22q0 5 4 3q2 0 2 -2
v-21q0 -14 5 -14q9 0 5 35q0 3 3 2l2 -3l1 -10q1 -10 0 -14q0 -16 -12 -16zM50 303q-2 0 -2 2.5t2 2.5h4v32l-4 -1q-2 0 -2 2.5t2 3.5h13q3 0 3 -2q2 -3 -2 -3h-5v-32h5q2 0 2 -2.5t-2 -2.5q-1 -1 -7 -0.5t-7 0.5zM121 304v36q-5 0 -8 -1q-3 0 -1 4q1 2 2 2h20q1 -2 -1 -6
h-7v-34q-2 -1 -5 -1zM175 302q-3 0 -3 3q-1 1 -1 11v23q-3 1 -2 3t3 3h16q3 0 3 -3t-3 -3h-11l-1 -11h11q4 1 4 -3q0 -1 -2 -2q-5 -1 -12 -1v-14l12 1q6 0 3 -4q-2 -2 -4 -2q-1 0 -5.5 -0.5t-7.5 -0.5zM266 302q-3 0 -3 4q0 6 -1 18.5t-1 17.5q0 3 3 3t3 -3q0 -8 1 -19
t0 -16h12q-2 3 0 6q0 2 2 1.5t2 -2.5v-2v-3v-3q0 -2 -4 -2h-14zM293 302q-3 0 -3 4q1 7 0 20t-1 16t2.5 3t2.5 -3q0 -10 1 -20.5t1 -14.5h11v6q0 2 3 1l2 -2v-8q-1 -2 -4 -2h-15zM208 340q0 4 2 4q12 1 17 0q2 0 2 -3q0 -1 -2 -2q-1 -1 -4 1h-10q0 -12 1 -15h10q2 1 2 -1
q1 -3 -1 -4h-11v-15q0 -2 -3 -2.5t-3 2.5v35zM75 305q0 -4 -4 -2l-1 3q2 17 1 36q0 3 3 2q1 0 2 -2q12 -23 16 -29q-2 16 -2 29q2 1 5 1q0 -3 1 -16.5t0 -19.5q-2 -8 -6 -2q-2 3 -6.5 13t-7.5 14q1 -18 -1 -27zM147 231q-6 -1 -9 3.5t-3 11.5q0 3 2.5 3t2.5 -3q0 -5 2 -8
t6 -2t3.5 5.5t-4.5 8.5l-4.5 4.5t-4.5 6.5q-2 8 3 11t10 -3v3q1 2 4 -1v-10v-2l-3 1q-2 6 -4 7q-3 2 -5 0t0 -5l6 -6q6 -7 7 -13q2 -12 -9 -12zM61 233q-3 6 -6.5 20.5t-4.5 16.5t3 3l2 -1q2 -6 4 -17t4 -17h1q1 14 4 33q1 3 4 2l1 -3q0 -2 -2.5 -17t-3.5 -20q0 -4 -4 -2
q-1 0 -2 2zM84 230q-3 0 -3 3q-1 1 -1 11v23q-3 1 -2 3t3 3h16q3 0 3 -3t-3 -3h-12v-11h11q4 1 4 -3q0 -1 -2 -2q-5 -1 -12 -1v-14l12 1q6 0 3 -4q-2 -2 -4 -2q-1 0 -5.5 -0.5t-7.5 -0.5zM131 231q-5 1 -11 9.5t-7 9.5q0 -10 1 -18q0 -2 -3 -2t-3 2q0 32 -1 35
q-3 0 -3.5 2.5t2.5 3.5h7q16 0 17 -11q0 -7 -7 -9q-1 -1 -4 -1q7 -15 13 -16q2 0 1 -4q0 -2 -2 -1zM162 231q-2 0 -2 2.5t2 2.5h3v32l-4 -1q-3 0 -1 4q0 2 2 2h13q2 -2 1 -5h-5v-32h4q2 0 2 -2.5t-2 -2.5h-13zM191 231q-5 -1 -8.5 4.5t-3.5 13.5q0 15 6 21h1l2 1q1 4 4 1
q4 0 6 -5q6 -5 5 -20.5t-12 -15.5zM212 233q-1 -4 -4 -2l-1 3q2 17 1 36q0 3 3 2q1 0 2 -2q12 -23 16 -29q-2 16 -2 29q2 1 5 1q0 -3 1 -16.5t0 -19.5q-2 -8 -6 -2q-2 3 -6.5 13t-7.5 14q1 -18 -1 -27zM115 255q6 0 8.5 3t0 6.5t-8.5 3.5h-2v-13h2zM188 237q4 -3 7 0
q9 9 0 26q-3 7 -8 1q-4 -5 -3 -14.5t4 -12.5z" />
    <glyph glyph-name="period" unicode="." horiz-adv-x="120" 
d="M59 38q9 2 14 -6t3 -18q-3 -12 -18 -16q-14 -3 -15 13q0 21 16 27z" />
    <glyph glyph-name="slash" unicode="/" 
d="M332 451v-261h-319v261h319zM19 196h307v249h-307v-249zM87 377q-4 7 -7.5 21.5t-3.5 15.5q-1 2 3 3q1 1 2 -1q1 -3 3.5 -15t4.5 -19q2 23 5 33q0 3 4 2l1 -3q-2 -7 -3.5 -20t-2.5 -17q-1 -2 -3 -2.5t-3 2.5zM208 376q-5 1 -3 4l4 1q0 3 0.5 8t0.5 8q-3 0 -4 2q-2 3 2 3
h2l-1 10h-1q-2 0 -3 1q-1 3 2 4q21 0 22 -8q0 -7 -7 -9q3 0 6 -3q5 -4 3 -12t-10 -9q-4 -1 -7 0q-3 -5 -6 0zM56 377q-1 -4 -5 -2q-1 1 -1 3l3 13q-3 0 -3 2l2 2h2q2 4 5 19q4 6 6 1l5 -19h3q3 -1 2 -4q-1 -1 -3 -1h-1q1 -6 4 -12q1 -5 -3 -4q-1 0 -2 2t-2.5 7.5t-1.5 6.5
h-8zM106 377q0 -4 -4 -2q-2 0 -1 3q0 2 1 6t1 7q-2 0 -2 2t2 2h2q4 17 5 19t3 2.5t3 -1.5l5 -19h2q4 -1 2 -4l-2 -1h-1q1 -3 2 -7t1 -5q2 -5 -2 -4q-2 0 -3 2q-3 12 -3 14h-8zM130 375q-2 0 -2 2.5t2 2.5h4v32l-4 -1q-4 0 -2 4q0 2 2 2h4h6h3q2 -2 1 -5h-5v-32h4q1 -2 1 -5
h-14zM155 374q-3 0 -3 4q0 6 -1 18.5t-1 17.5q0 3 3 3t3 -3q0 -8 1 -19t0 -16h12q-1 2 -1 6q1 2 3 1.5t2 -2.5v-8q0 -2 -4 -2h-14zM183 377q-1 -4 -5 -2q-1 1 -1 3l3 13q-3 0 -3 2l2 2h2q1 2 3 9.5t3 9.5t2.5 2.5t2.5 -1.5l5 -19h3q3 -1 2 -4l-3 -1q1 -9 3 -12q1 -5 -3 -4
q-1 0 -2 2q-3 6 -3 14h-9zM241 374q-3 0 -3 4q0 6 -1 18.5t-1 17.5q0 3 3 3t3 -3q0 -8 1 -19t0 -16h12q-1 3 0 6q0 2 2 1.5t2 -2.5v-2v-3v-3q0 -2 -4 -2h-14zM268 374l-3 3v34q-3 1 -2.5 3t2.5 3h17q3 0 3 -3t-3 -3h-12v-11h10q4 1 4 -3q0 -1 -2 -2q-4 -1 -12 -1v-14l13 1
q5 0 2 -4q-1 -2 -3 -2t-6.5 -0.5t-7.5 -0.5zM218 402q3 1 4.5 3t0.5 4.5t-5 2.5h-4l1 -10h3zM65 396q0 1 -0.5 3t-1 4.5t-0.5 4.5h-1q0 -2 -1 -6.5t-1 -5.5h5zM116 396q-1 2 -3 12q0 -1 -1 -6t-2 -6h6zM192 396q0 1 -0.5 3t-1 4.5t-0.5 4.5h-1q0 -2 -1 -6.5t-1 -5.5h5z
M218 380q8 1 8.5 8t-6.5 9h-5l-1 -17h4zM140 304q2 4 0 13q-2 -1 -2 0q-2 0 -2 2t2 2h2v21q0 4 3 3q2 0 2 -2v-22h13q-1 8 -1 22q0 3 3 3q2 -1 2 -3q0 -8 1 -22t1 -15q0 -2 -2 -3q-3 -2 -3 2q0 8 -1 12h-12v-13q-2 -1 -6 0zM243 302q-9 1 -9 18q0 9 -1 22q0 5 4 3q2 0 2 -2
v-21q0 -14 5 -14q9 0 5 35q0 3 3 2l2 -3l1 -10q1 -10 0 -14q0 -16 -12 -16zM50 303q-2 0 -2 2.5t2 2.5h4v32l-4 -1q-2 0 -2 2.5t2 3.5h13q3 0 3 -2q2 -3 -2 -3h-5v-32h5q2 0 2 -2.5t-2 -2.5q-1 -1 -7 -0.5t-7 0.5zM121 304v36q-5 0 -8 -1q-3 0 -1 4q1 2 2 2h20q1 -2 -1 -6
h-7v-34q-2 -1 -5 -1zM175 302q-3 0 -3 3q-1 1 -1 11v23q-3 1 -2 3t3 3h16q3 0 3 -3t-3 -3h-11l-1 -11h11q4 1 4 -3q0 -1 -2 -2q-5 -1 -12 -1v-14l12 1q6 0 3 -4q-2 -2 -4 -2q-1 0 -5.5 -0.5t-7.5 -0.5zM266 302q-3 0 -3 4q0 6 -1 18.5t-1 17.5q0 3 3 3t3 -3q0 -8 1 -19
t0 -16h12q-2 3 0 6q0 2 2 1.5t2 -2.5v-2v-3v-3q0 -2 -4 -2h-14zM293 302q-3 0 -3 4q1 7 0 20t-1 16t2.5 3t2.5 -3q0 -10 1 -20.5t1 -14.5h11v6q0 2 3 1l2 -2v-8q-1 -2 -4 -2h-15zM208 340q0 4 2 4q12 1 17 0q2 0 2 -3q0 -1 -2 -2q-1 -1 -4 1h-10q0 -12 1 -15h10q2 1 2 -1
q1 -3 -1 -4h-11v-15q0 -2 -3 -2.5t-3 2.5v35zM75 305q0 -4 -4 -2l-1 3q2 17 1 36q0 3 3 2q1 0 2 -2q12 -23 16 -29q-2 16 -2 29q2 1 5 1q0 -3 1 -16.5t0 -19.5q-2 -8 -6 -2q-2 3 -6.5 13t-7.5 14q1 -18 -1 -27zM147 231q-6 -1 -9 3.5t-3 11.5q0 3 2.5 3t2.5 -3q0 -5 2 -8
t6 -2t3.5 5.5t-4.5 8.5l-4.5 4.5t-4.5 6.5q-2 8 3 11t10 -3v3q1 2 4 -1v-10v-2l-3 1q-2 6 -4 7q-3 2 -5 0t0 -5l6 -6q6 -7 7 -13q2 -12 -9 -12zM61 233q-3 6 -6.5 20.5t-4.5 16.5t3 3l2 -1q2 -6 4 -17t4 -17h1q1 14 4 33q1 3 4 2l1 -3q0 -2 -2.5 -17t-3.5 -20q0 -4 -4 -2
q-1 0 -2 2zM84 230q-3 0 -3 3q-1 1 -1 11v23q-3 1 -2 3t3 3h16q3 0 3 -3t-3 -3h-12v-11h11q4 1 4 -3q0 -1 -2 -2q-5 -1 -12 -1v-14l12 1q6 0 3 -4q-2 -2 -4 -2q-1 0 -5.5 -0.5t-7.5 -0.5zM131 231q-5 1 -11 9.5t-7 9.5q0 -10 1 -18q0 -2 -3 -2t-3 2q0 32 -1 35
q-3 0 -3.5 2.5t2.5 3.5h7q16 0 17 -11q0 -7 -7 -9q-1 -1 -4 -1q7 -15 13 -16q2 0 1 -4q0 -2 -2 -1zM162 231q-2 0 -2 2.5t2 2.5h3v32l-4 -1q-3 0 -1 4q0 2 2 2h13q2 -2 1 -5h-5v-32h4q2 0 2 -2.5t-2 -2.5h-13zM191 231q-5 -1 -8.5 4.5t-3.5 13.5q0 15 6 21h1l2 1q1 4 4 1
q4 0 6 -5q6 -5 5 -20.5t-12 -15.5zM212 233q-1 -4 -4 -2l-1 3q2 17 1 36q0 3 3 2q1 0 2 -2q12 -23 16 -29q-2 16 -2 29q2 1 5 1q0 -3 1 -16.5t0 -19.5q-2 -8 -6 -2q-2 3 -6.5 13t-7.5 14q1 -18 -1 -27zM115 255q6 0 8.5 3t0 6.5t-8.5 3.5h-2v-13h2zM188 237q4 -3 7 0
q9 9 0 26q-3 7 -8 1q-4 -5 -3 -14.5t4 -12.5z" />
    <glyph glyph-name="zero" unicode="0" horiz-adv-x="262" 
d="M142 673q8 6 12.5 0t-0.5 -13q42 1 65 -113.5t21 -259.5q-2 -121 -22.5 -204.5t-56.5 -83.5q-28 0 -49.5 36.5t-32.5 89t-16.5 98t-5.5 75.5q-1 64 3.5 126.5t25 139.5t56.5 109zM140 639q-31 -45 -46 -157t-13 -189q3 -70 25 -169.5t56 -99.5q36 0 49 154t-5.5 307
t-57.5 149q-6 0 -8 5z" />
    <glyph glyph-name="one" unicode="1" horiz-adv-x="232" 
d="M125 669q4 7 10.5 8.5t11.5 -2t5 -7.5q0 -106 -2 -322.5t-2 -322.5h21h27h22q6 0 8 -5.5t0 -11t-7 -5.5q-25 -1 -99 -1h-99q-10 0 -6 12q3 10 10 10q60 3 97 1q0 100 3 299.5t3 298.5q-14 -34 -36 -106t-36 -105q-4 -10 -18 -7q-10 2 -6 11q14 34 43.5 123t49.5 132z" />
    <glyph glyph-name="two" unicode="2" horiz-adv-x="256" 
d="M168 670q37 -13 37 -71q2 -85 -41 -274t-84 -270q17 0 29.5 -3.5t31.5 -12t36 -13.5q28 -8 37 4q7 9 8 30t-1.5 40.5t-5.5 44t-3 35.5q0 7 4.5 9.5t9 0t4.5 -9.5q0 -10 4 -34.5t6 -45.5t1.5 -43.5t-9.5 -37.5t-26 -19q-14 -4 -31.5 1t-39 14.5t-32.5 12.5q-12 3 -18.5 4
t-12 -2.5t-7 -6t-6.5 -12t-8 -14.5q-12 -18 -17 -4q-6 20 11 42l4 5q43 82 89.5 279t42.5 280q-1 33 -14 42q-39 28 -70 -58.5t-28 -143.5q0 -7 -5 -10t-11 0t-6 10q-2 39 10 96.5t42 103t69 31.5z" />
    <glyph glyph-name="three" unicode="3" horiz-adv-x="214" 
d="M13 675q22 -1 70.5 -1.5t74.5 -2.5q4 0 7 -3t2 -7q-12 -38 -48.5 -94.5t-47.5 -79.5q47 3 75 -29q32 -37 40.5 -98t0 -118t-26.5 -114q-44 -129 -92 -129q-61 0 -61 292q0 6 5.5 7.5t11.5 -1.5t6 -9q0 -256 39 -263q26 -4 52 68q20 54 33 110.5t10.5 124t-30.5 108.5
q-27 41 -77 31q-6 -2 -10 3.5t-1 12.5q13 31 47.5 83t47.5 88q-19 1 -63.5 1t-67.5 2q-13 1 -9 11q3 8 12 7z" />
    <glyph glyph-name="four" unicode="4" horiz-adv-x="230" 
d="M174 668q0 -53 -1 -156t-1 -184t3 -157q12 0 48 -2q13 -1 8 -11q-3 -7 -12 -7q-16 1 -44 1q3 -70 9 -141q1 -9 -12 -11q-9 0 -11 7q-6 72 -9 145q-20 -1 -40.5 -2.5t-48.5 -4.5t-50 -5q-10 -1 -14.5 4.5t-1.5 13.5q17 49 84 277t69 235q2 8 13 8t11 -10zM153 607
q-13 -41 -58.5 -203.5t-74.5 -244.5q29 2 71 5.5t61 4.5q-5 147 1 438z" />
    <glyph glyph-name="five" unicode="5" horiz-adv-x="226" 
d="M170 679q7 1 7 -6q-1 -11 -11 -14q-29 -4 -128 -2q-1 -22 1.5 -76t-0.5 -76q61 27 103.5 0t50.5 -96q8 -63 1 -163q-1 -9 -2.5 -44t-3.5 -54t-6.5 -47.5t-12.5 -48t-19 -32.5q-17 -17 -42.5 -20.5t-45.5 9.5q-24 17 -32 67t-8.5 131t-3.5 112q-1 6 4.5 9t12 1.5t7.5 -7.5
q2 -24 3 -106.5t9 -133.5t29 -58q57 -19 73 67q4 24 8 83q1 10 4 51t4 65t1.5 59t-3.5 61t-13 44q-33 68 -127 25q-13 -6 -20 4q-3 5 5 10q5 5 5.5 28.5t-1 69t-1.5 66.5q-6 9 -2 14.5t15 5.5q16 0 44.5 -1.5t50 -1t44.5 4.5z" />
    <glyph glyph-name="six" unicode="6" horiz-adv-x="239" 
d="M141 653q-53 -6 -67 -181q-4 -60 -4 -137q28 47 60 68t50 8q25 -18 33.5 -88t3.5 -141.5t-16 -110.5q-10 -37 -27 -55.5t-40 -17.5q-29 1 -49 27t-28.5 68t-11.5 79t-2 74q-7 -7 -13 -3t-3 12q6 20 19 45q1 15 1.5 88.5t5.5 116.5q10 85 33 129.5t61 43.5q27 -1 47 -38
t26 -108q0 -4 -2 -7t-5 -4t-6 -1t-5.5 2.5t-2.5 7.5q-5 50 -21 88t-37 35zM71 298q-8 -85 2 -159q7 -54 25 -87t37 -34q19 -2 33 28.5t20 91.5q4 44 4 87q0 61 -4.5 98.5t-17.5 56t-37.5 -1.5t-61.5 -80z" />
    <glyph glyph-name="seven" unicode="7" horiz-adv-x="182" 
d="M171 674q4 0 8 -2.5t3 -6.5q-14 -86 -61 -304t-64 -350q-1 -9 -13 -10q-10 2 -10 9q18 142 63 358q53 247 60 284l-147 -3q-7 0 -9.5 6.5t0.5 12.5t10 6h160z" />
    <glyph glyph-name="eight" unicode="8" horiz-adv-x="231" 
d="M113 680q38 -4 61 -30t24 -65q1 -30 -11.5 -58.5t-37.5 -40.5q48 -38 69 -103q17 -57 12 -136.5t-31 -148.5q-37 -98 -93 -98q-36 0 -58.5 48t-27.5 112.5t-3 125t10 91.5q19 77 62 103q-30 11 -43 46q-11 33 -9.5 68t22.5 61t54 25zM108 660q-31 -3 -42 -36t-7 -67
q2 -20 18 -43.5t28 -23.5q25 5 48.5 29.5t22.5 58.5q-2 32 -20.5 56t-47.5 26zM133 470q-29 3 -52.5 -26t-33.5 -75q-5 -24 -6 -80t3 -118t21 -107t44 -42q37 5 70 83t33 168q0 140 -79 197z" />
    <glyph glyph-name="nine" unicode="9" horiz-adv-x="234" 
d="M143 673q35 -8 50.5 -50t12.5 -88.5t-5 -87.5q-3 -31 -7 -62t-10 -66t-10 -59t-13 -65t-13 -58.5t-15 -65.5t-14 -62q-3 -10 -18 -10q-12 1 -9 10q61 242 77 360q-10 -28 -26.5 -43t-33.5 -16t-34 11t-29 36q-22 43 -25 102t9.5 109t43 81.5t69.5 23.5zM131 653
q-22 3 -43.5 -20.5t-35.5 -69.5q-22 -68 1 -156q13 -47 30 -65t34.5 -9t33.5 40q42 77 31 200q-7 74 -51 80z" />
    <glyph glyph-name="colon" unicode=":" 
d="M332 451v-261h-319v261h319zM19 196h307v249h-307v-249zM87 377q-4 7 -7.5 21.5t-3.5 15.5q-1 2 3 3q1 1 2 -1q1 -3 3.5 -15t4.5 -19q2 23 5 33q0 3 4 2l1 -3q-2 -7 -3.5 -20t-2.5 -17q-1 -2 -3 -2.5t-3 2.5zM208 376q-5 1 -3 4l4 1q0 3 0.5 8t0.5 8q-3 0 -4 2q-2 3 2 3
h2l-1 10h-1q-2 0 -3 1q-1 3 2 4q21 0 22 -8q0 -7 -7 -9q3 0 6 -3q5 -4 3 -12t-10 -9q-4 -1 -7 0q-3 -5 -6 0zM56 377q-1 -4 -5 -2q-1 1 -1 3l3 13q-3 0 -3 2l2 2h2q2 4 5 19q4 6 6 1l5 -19h3q3 -1 2 -4q-1 -1 -3 -1h-1q1 -6 4 -12q1 -5 -3 -4q-1 0 -2 2t-2.5 7.5t-1.5 6.5
h-8zM106 377q0 -4 -4 -2q-2 0 -1 3q0 2 1 6t1 7q-2 0 -2 2t2 2h2q4 17 5 19t3 2.5t3 -1.5l5 -19h2q4 -1 2 -4l-2 -1h-1q1 -3 2 -7t1 -5q2 -5 -2 -4q-2 0 -3 2q-3 12 -3 14h-8zM130 375q-2 0 -2 2.5t2 2.5h4v32l-4 -1q-4 0 -2 4q0 2 2 2h4h6h3q2 -2 1 -5h-5v-32h4q1 -2 1 -5
h-14zM155 374q-3 0 -3 4q0 6 -1 18.5t-1 17.5q0 3 3 3t3 -3q0 -8 1 -19t0 -16h12q-1 2 -1 6q1 2 3 1.5t2 -2.5v-8q0 -2 -4 -2h-14zM183 377q-1 -4 -5 -2q-1 1 -1 3l3 13q-3 0 -3 2l2 2h2q1 2 3 9.5t3 9.5t2.5 2.5t2.5 -1.5l5 -19h3q3 -1 2 -4l-3 -1q1 -9 3 -12q1 -5 -3 -4
q-1 0 -2 2q-3 6 -3 14h-9zM241 374q-3 0 -3 4q0 6 -1 18.5t-1 17.5q0 3 3 3t3 -3q0 -8 1 -19t0 -16h12q-1 3 0 6q0 2 2 1.5t2 -2.5v-2v-3v-3q0 -2 -4 -2h-14zM268 374l-3 3v34q-3 1 -2.5 3t2.5 3h17q3 0 3 -3t-3 -3h-12v-11h10q4 1 4 -3q0 -1 -2 -2q-4 -1 -12 -1v-14l13 1
q5 0 2 -4q-1 -2 -3 -2t-6.5 -0.5t-7.5 -0.5zM218 402q3 1 4.5 3t0.5 4.5t-5 2.5h-4l1 -10h3zM65 396q0 1 -0.5 3t-1 4.5t-0.5 4.5h-1q0 -2 -1 -6.5t-1 -5.5h5zM116 396q-1 2 -3 12q0 -1 -1 -6t-2 -6h6zM192 396q0 1 -0.5 3t-1 4.5t-0.5 4.5h-1q0 -2 -1 -6.5t-1 -5.5h5z
M218 380q8 1 8.5 8t-6.5 9h-5l-1 -17h4zM140 304q2 4 0 13q-2 -1 -2 0q-2 0 -2 2t2 2h2v21q0 4 3 3q2 0 2 -2v-22h13q-1 8 -1 22q0 3 3 3q2 -1 2 -3q0 -8 1 -22t1 -15q0 -2 -2 -3q-3 -2 -3 2q0 8 -1 12h-12v-13q-2 -1 -6 0zM243 302q-9 1 -9 18q0 9 -1 22q0 5 4 3q2 0 2 -2
v-21q0 -14 5 -14q9 0 5 35q0 3 3 2l2 -3l1 -10q1 -10 0 -14q0 -16 -12 -16zM50 303q-2 0 -2 2.5t2 2.5h4v32l-4 -1q-2 0 -2 2.5t2 3.5h13q3 0 3 -2q2 -3 -2 -3h-5v-32h5q2 0 2 -2.5t-2 -2.5q-1 -1 -7 -0.5t-7 0.5zM121 304v36q-5 0 -8 -1q-3 0 -1 4q1 2 2 2h20q1 -2 -1 -6
h-7v-34q-2 -1 -5 -1zM175 302q-3 0 -3 3q-1 1 -1 11v23q-3 1 -2 3t3 3h16q3 0 3 -3t-3 -3h-11l-1 -11h11q4 1 4 -3q0 -1 -2 -2q-5 -1 -12 -1v-14l12 1q6 0 3 -4q-2 -2 -4 -2q-1 0 -5.5 -0.5t-7.5 -0.5zM266 302q-3 0 -3 4q0 6 -1 18.5t-1 17.5q0 3 3 3t3 -3q0 -8 1 -19
t0 -16h12q-2 3 0 6q0 2 2 1.5t2 -2.5v-2v-3v-3q0 -2 -4 -2h-14zM293 302q-3 0 -3 4q1 7 0 20t-1 16t2.5 3t2.5 -3q0 -10 1 -20.5t1 -14.5h11v6q0 2 3 1l2 -2v-8q-1 -2 -4 -2h-15zM208 340q0 4 2 4q12 1 17 0q2 0 2 -3q0 -1 -2 -2q-1 -1 -4 1h-10q0 -12 1 -15h10q2 1 2 -1
q1 -3 -1 -4h-11v-15q0 -2 -3 -2.5t-3 2.5v35zM75 305q0 -4 -4 -2l-1 3q2 17 1 36q0 3 3 2q1 0 2 -2q12 -23 16 -29q-2 16 -2 29q2 1 5 1q0 -3 1 -16.5t0 -19.5q-2 -8 -6 -2q-2 3 -6.5 13t-7.5 14q1 -18 -1 -27zM147 231q-6 -1 -9 3.5t-3 11.5q0 3 2.5 3t2.5 -3q0 -5 2 -8
t6 -2t3.5 5.5t-4.5 8.5l-4.5 4.5t-4.5 6.5q-2 8 3 11t10 -3v3q1 2 4 -1v-10v-2l-3 1q-2 6 -4 7q-3 2 -5 0t0 -5l6 -6q6 -7 7 -13q2 -12 -9 -12zM61 233q-3 6 -6.5 20.5t-4.5 16.5t3 3l2 -1q2 -6 4 -17t4 -17h1q1 14 4 33q1 3 4 2l1 -3q0 -2 -2.5 -17t-3.5 -20q0 -4 -4 -2
q-1 0 -2 2zM84 230q-3 0 -3 3q-1 1 -1 11v23q-3 1 -2 3t3 3h16q3 0 3 -3t-3 -3h-12v-11h11q4 1 4 -3q0 -1 -2 -2q-5 -1 -12 -1v-14l12 1q6 0 3 -4q-2 -2 -4 -2q-1 0 -5.5 -0.5t-7.5 -0.5zM131 231q-5 1 -11 9.5t-7 9.5q0 -10 1 -18q0 -2 -3 -2t-3 2q0 32 -1 35
q-3 0 -3.5 2.5t2.5 3.5h7q16 0 17 -11q0 -7 -7 -9q-1 -1 -4 -1q7 -15 13 -16q2 0 1 -4q0 -2 -2 -1zM162 231q-2 0 -2 2.5t2 2.5h3v32l-4 -1q-3 0 -1 4q0 2 2 2h13q2 -2 1 -5h-5v-32h4q2 0 2 -2.5t-2 -2.5h-13zM191 231q-5 -1 -8.5 4.5t-3.5 13.5q0 15 6 21h1l2 1q1 4 4 1
q4 0 6 -5q6 -5 5 -20.5t-12 -15.5zM212 233q-1 -4 -4 -2l-1 3q2 17 1 36q0 3 3 2q1 0 2 -2q12 -23 16 -29q-2 16 -2 29q2 1 5 1q0 -3 1 -16.5t0 -19.5q-2 -8 -6 -2q-2 3 -6.5 13t-7.5 14q1 -18 -1 -27zM115 255q6 0 8.5 3t0 6.5t-8.5 3.5h-2v-13h2zM188 237q4 -3 7 0
q9 9 0 26q-3 7 -8 1q-4 -5 -3 -14.5t4 -12.5z" />
    <glyph glyph-name="semicolon" unicode=";" 
d="M332 451v-261h-319v261h319zM19 196h307v249h-307v-249zM87 377q-4 7 -7.5 21.5t-3.5 15.5q-1 2 3 3q1 1 2 -1q1 -3 3.5 -15t4.5 -19q2 23 5 33q0 3 4 2l1 -3q-2 -7 -3.5 -20t-2.5 -17q-1 -2 -3 -2.5t-3 2.5zM208 376q-5 1 -3 4l4 1q0 3 0.5 8t0.5 8q-3 0 -4 2q-2 3 2 3
h2l-1 10h-1q-2 0 -3 1q-1 3 2 4q21 0 22 -8q0 -7 -7 -9q3 0 6 -3q5 -4 3 -12t-10 -9q-4 -1 -7 0q-3 -5 -6 0zM56 377q-1 -4 -5 -2q-1 1 -1 3l3 13q-3 0 -3 2l2 2h2q2 4 5 19q4 6 6 1l5 -19h3q3 -1 2 -4q-1 -1 -3 -1h-1q1 -6 4 -12q1 -5 -3 -4q-1 0 -2 2t-2.5 7.5t-1.5 6.5
h-8zM106 377q0 -4 -4 -2q-2 0 -1 3q0 2 1 6t1 7q-2 0 -2 2t2 2h2q4 17 5 19t3 2.5t3 -1.5l5 -19h2q4 -1 2 -4l-2 -1h-1q1 -3 2 -7t1 -5q2 -5 -2 -4q-2 0 -3 2q-3 12 -3 14h-8zM130 375q-2 0 -2 2.5t2 2.5h4v32l-4 -1q-4 0 -2 4q0 2 2 2h4h6h3q2 -2 1 -5h-5v-32h4q1 -2 1 -5
h-14zM155 374q-3 0 -3 4q0 6 -1 18.5t-1 17.5q0 3 3 3t3 -3q0 -8 1 -19t0 -16h12q-1 2 -1 6q1 2 3 1.5t2 -2.5v-8q0 -2 -4 -2h-14zM183 377q-1 -4 -5 -2q-1 1 -1 3l3 13q-3 0 -3 2l2 2h2q1 2 3 9.5t3 9.5t2.5 2.5t2.5 -1.5l5 -19h3q3 -1 2 -4l-3 -1q1 -9 3 -12q1 -5 -3 -4
q-1 0 -2 2q-3 6 -3 14h-9zM241 374q-3 0 -3 4q0 6 -1 18.5t-1 17.5q0 3 3 3t3 -3q0 -8 1 -19t0 -16h12q-1 3 0 6q0 2 2 1.5t2 -2.5v-2v-3v-3q0 -2 -4 -2h-14zM268 374l-3 3v34q-3 1 -2.5 3t2.5 3h17q3 0 3 -3t-3 -3h-12v-11h10q4 1 4 -3q0 -1 -2 -2q-4 -1 -12 -1v-14l13 1
q5 0 2 -4q-1 -2 -3 -2t-6.5 -0.5t-7.5 -0.5zM218 402q3 1 4.5 3t0.5 4.5t-5 2.5h-4l1 -10h3zM65 396q0 1 -0.5 3t-1 4.5t-0.5 4.5h-1q0 -2 -1 -6.5t-1 -5.5h5zM116 396q-1 2 -3 12q0 -1 -1 -6t-2 -6h6zM192 396q0 1 -0.5 3t-1 4.5t-0.5 4.5h-1q0 -2 -1 -6.5t-1 -5.5h5z
M218 380q8 1 8.5 8t-6.5 9h-5l-1 -17h4zM140 304q2 4 0 13q-2 -1 -2 0q-2 0 -2 2t2 2h2v21q0 4 3 3q2 0 2 -2v-22h13q-1 8 -1 22q0 3 3 3q2 -1 2 -3q0 -8 1 -22t1 -15q0 -2 -2 -3q-3 -2 -3 2q0 8 -1 12h-12v-13q-2 -1 -6 0zM243 302q-9 1 -9 18q0 9 -1 22q0 5 4 3q2 0 2 -2
v-21q0 -14 5 -14q9 0 5 35q0 3 3 2l2 -3l1 -10q1 -10 0 -14q0 -16 -12 -16zM50 303q-2 0 -2 2.5t2 2.5h4v32l-4 -1q-2 0 -2 2.5t2 3.5h13q3 0 3 -2q2 -3 -2 -3h-5v-32h5q2 0 2 -2.5t-2 -2.5q-1 -1 -7 -0.5t-7 0.5zM121 304v36q-5 0 -8 -1q-3 0 -1 4q1 2 2 2h20q1 -2 -1 -6
h-7v-34q-2 -1 -5 -1zM175 302q-3 0 -3 3q-1 1 -1 11v23q-3 1 -2 3t3 3h16q3 0 3 -3t-3 -3h-11l-1 -11h11q4 1 4 -3q0 -1 -2 -2q-5 -1 -12 -1v-14l12 1q6 0 3 -4q-2 -2 -4 -2q-1 0 -5.5 -0.5t-7.5 -0.5zM266 302q-3 0 -3 4q0 6 -1 18.5t-1 17.5q0 3 3 3t3 -3q0 -8 1 -19
t0 -16h12q-2 3 0 6q0 2 2 1.5t2 -2.5v-2v-3v-3q0 -2 -4 -2h-14zM293 302q-3 0 -3 4q1 7 0 20t-1 16t2.5 3t2.5 -3q0 -10 1 -20.5t1 -14.5h11v6q0 2 3 1l2 -2v-8q-1 -2 -4 -2h-15zM208 340q0 4 2 4q12 1 17 0q2 0 2 -3q0 -1 -2 -2q-1 -1 -4 1h-10q0 -12 1 -15h10q2 1 2 -1
q1 -3 -1 -4h-11v-15q0 -2 -3 -2.5t-3 2.5v35zM75 305q0 -4 -4 -2l-1 3q2 17 1 36q0 3 3 2q1 0 2 -2q12 -23 16 -29q-2 16 -2 29q2 1 5 1q0 -3 1 -16.5t0 -19.5q-2 -8 -6 -2q-2 3 -6.5 13t-7.5 14q1 -18 -1 -27zM147 231q-6 -1 -9 3.5t-3 11.5q0 3 2.5 3t2.5 -3q0 -5 2 -8
t6 -2t3.5 5.5t-4.5 8.5l-4.5 4.5t-4.5 6.5q-2 8 3 11t10 -3v3q1 2 4 -1v-10v-2l-3 1q-2 6 -4 7q-3 2 -5 0t0 -5l6 -6q6 -7 7 -13q2 -12 -9 -12zM61 233q-3 6 -6.5 20.5t-4.5 16.5t3 3l2 -1q2 -6 4 -17t4 -17h1q1 14 4 33q1 3 4 2l1 -3q0 -2 -2.5 -17t-3.5 -20q0 -4 -4 -2
q-1 0 -2 2zM84 230q-3 0 -3 3q-1 1 -1 11v23q-3 1 -2 3t3 3h16q3 0 3 -3t-3 -3h-12v-11h11q4 1 4 -3q0 -1 -2 -2q-5 -1 -12 -1v-14l12 1q6 0 3 -4q-2 -2 -4 -2q-1 0 -5.5 -0.5t-7.5 -0.5zM131 231q-5 1 -11 9.5t-7 9.5q0 -10 1 -18q0 -2 -3 -2t-3 2q0 32 -1 35
q-3 0 -3.5 2.5t2.5 3.5h7q16 0 17 -11q0 -7 -7 -9q-1 -1 -4 -1q7 -15 13 -16q2 0 1 -4q0 -2 -2 -1zM162 231q-2 0 -2 2.5t2 2.5h3v32l-4 -1q-3 0 -1 4q0 2 2 2h13q2 -2 1 -5h-5v-32h4q2 0 2 -2.5t-2 -2.5h-13zM191 231q-5 -1 -8.5 4.5t-3.5 13.5q0 15 6 21h1l2 1q1 4 4 1
q4 0 6 -5q6 -5 5 -20.5t-12 -15.5zM212 233q-1 -4 -4 -2l-1 3q2 17 1 36q0 3 3 2q1 0 2 -2q12 -23 16 -29q-2 16 -2 29q2 1 5 1q0 -3 1 -16.5t0 -19.5q-2 -8 -6 -2q-2 3 -6.5 13t-7.5 14q1 -18 -1 -27zM115 255q6 0 8.5 3t0 6.5t-8.5 3.5h-2v-13h2zM188 237q4 -3 7 0
q9 9 0 26q-3 7 -8 1q-4 -5 -3 -14.5t4 -12.5z" />
    <glyph glyph-name="less" unicode="&#x3c;" 
d="M332 451v-261h-319v261h319zM19 196h307v249h-307v-249zM87 377q-4 7 -7.5 21.5t-3.5 15.5q-1 2 3 3q1 1 2 -1q1 -3 3.5 -15t4.5 -19q2 23 5 33q0 3 4 2l1 -3q-2 -7 -3.5 -20t-2.5 -17q-1 -2 -3 -2.5t-3 2.5zM208 376q-5 1 -3 4l4 1q0 3 0.5 8t0.5 8q-3 0 -4 2q-2 3 2 3
h2l-1 10h-1q-2 0 -3 1q-1 3 2 4q21 0 22 -8q0 -7 -7 -9q3 0 6 -3q5 -4 3 -12t-10 -9q-4 -1 -7 0q-3 -5 -6 0zM56 377q-1 -4 -5 -2q-1 1 -1 3l3 13q-3 0 -3 2l2 2h2q2 4 5 19q4 6 6 1l5 -19h3q3 -1 2 -4q-1 -1 -3 -1h-1q1 -6 4 -12q1 -5 -3 -4q-1 0 -2 2t-2.5 7.5t-1.5 6.5
h-8zM106 377q0 -4 -4 -2q-2 0 -1 3q0 2 1 6t1 7q-2 0 -2 2t2 2h2q4 17 5 19t3 2.5t3 -1.5l5 -19h2q4 -1 2 -4l-2 -1h-1q1 -3 2 -7t1 -5q2 -5 -2 -4q-2 0 -3 2q-3 12 -3 14h-8zM130 375q-2 0 -2 2.5t2 2.5h4v32l-4 -1q-4 0 -2 4q0 2 2 2h4h6h3q2 -2 1 -5h-5v-32h4q1 -2 1 -5
h-14zM155 374q-3 0 -3 4q0 6 -1 18.5t-1 17.5q0 3 3 3t3 -3q0 -8 1 -19t0 -16h12q-1 2 -1 6q1 2 3 1.5t2 -2.5v-8q0 -2 -4 -2h-14zM183 377q-1 -4 -5 -2q-1 1 -1 3l3 13q-3 0 -3 2l2 2h2q1 2 3 9.5t3 9.5t2.5 2.5t2.5 -1.5l5 -19h3q3 -1 2 -4l-3 -1q1 -9 3 -12q1 -5 -3 -4
q-1 0 -2 2q-3 6 -3 14h-9zM241 374q-3 0 -3 4q0 6 -1 18.5t-1 17.5q0 3 3 3t3 -3q0 -8 1 -19t0 -16h12q-1 3 0 6q0 2 2 1.5t2 -2.5v-2v-3v-3q0 -2 -4 -2h-14zM268 374l-3 3v34q-3 1 -2.5 3t2.5 3h17q3 0 3 -3t-3 -3h-12v-11h10q4 1 4 -3q0 -1 -2 -2q-4 -1 -12 -1v-14l13 1
q5 0 2 -4q-1 -2 -3 -2t-6.5 -0.5t-7.5 -0.5zM218 402q3 1 4.5 3t0.5 4.5t-5 2.5h-4l1 -10h3zM65 396q0 1 -0.5 3t-1 4.5t-0.5 4.5h-1q0 -2 -1 -6.5t-1 -5.5h5zM116 396q-1 2 -3 12q0 -1 -1 -6t-2 -6h6zM192 396q0 1 -0.5 3t-1 4.5t-0.5 4.5h-1q0 -2 -1 -6.5t-1 -5.5h5z
M218 380q8 1 8.5 8t-6.5 9h-5l-1 -17h4zM140 304q2 4 0 13q-2 -1 -2 0q-2 0 -2 2t2 2h2v21q0 4 3 3q2 0 2 -2v-22h13q-1 8 -1 22q0 3 3 3q2 -1 2 -3q0 -8 1 -22t1 -15q0 -2 -2 -3q-3 -2 -3 2q0 8 -1 12h-12v-13q-2 -1 -6 0zM243 302q-9 1 -9 18q0 9 -1 22q0 5 4 3q2 0 2 -2
v-21q0 -14 5 -14q9 0 5 35q0 3 3 2l2 -3l1 -10q1 -10 0 -14q0 -16 -12 -16zM50 303q-2 0 -2 2.5t2 2.5h4v32l-4 -1q-2 0 -2 2.5t2 3.5h13q3 0 3 -2q2 -3 -2 -3h-5v-32h5q2 0 2 -2.5t-2 -2.5q-1 -1 -7 -0.5t-7 0.5zM121 304v36q-5 0 -8 -1q-3 0 -1 4q1 2 2 2h20q1 -2 -1 -6
h-7v-34q-2 -1 -5 -1zM175 302q-3 0 -3 3q-1 1 -1 11v23q-3 1 -2 3t3 3h16q3 0 3 -3t-3 -3h-11l-1 -11h11q4 1 4 -3q0 -1 -2 -2q-5 -1 -12 -1v-14l12 1q6 0 3 -4q-2 -2 -4 -2q-1 0 -5.5 -0.5t-7.5 -0.5zM266 302q-3 0 -3 4q0 6 -1 18.5t-1 17.5q0 3 3 3t3 -3q0 -8 1 -19
t0 -16h12q-2 3 0 6q0 2 2 1.5t2 -2.5v-2v-3v-3q0 -2 -4 -2h-14zM293 302q-3 0 -3 4q1 7 0 20t-1 16t2.5 3t2.5 -3q0 -10 1 -20.5t1 -14.5h11v6q0 2 3 1l2 -2v-8q-1 -2 -4 -2h-15zM208 340q0 4 2 4q12 1 17 0q2 0 2 -3q0 -1 -2 -2q-1 -1 -4 1h-10q0 -12 1 -15h10q2 1 2 -1
q1 -3 -1 -4h-11v-15q0 -2 -3 -2.5t-3 2.5v35zM75 305q0 -4 -4 -2l-1 3q2 17 1 36q0 3 3 2q1 0 2 -2q12 -23 16 -29q-2 16 -2 29q2 1 5 1q0 -3 1 -16.5t0 -19.5q-2 -8 -6 -2q-2 3 -6.5 13t-7.5 14q1 -18 -1 -27zM147 231q-6 -1 -9 3.5t-3 11.5q0 3 2.5 3t2.5 -3q0 -5 2 -8
t6 -2t3.5 5.5t-4.5 8.5l-4.5 4.5t-4.5 6.5q-2 8 3 11t10 -3v3q1 2 4 -1v-10v-2l-3 1q-2 6 -4 7q-3 2 -5 0t0 -5l6 -6q6 -7 7 -13q2 -12 -9 -12zM61 233q-3 6 -6.5 20.5t-4.5 16.5t3 3l2 -1q2 -6 4 -17t4 -17h1q1 14 4 33q1 3 4 2l1 -3q0 -2 -2.5 -17t-3.5 -20q0 -4 -4 -2
q-1 0 -2 2zM84 230q-3 0 -3 3q-1 1 -1 11v23q-3 1 -2 3t3 3h16q3 0 3 -3t-3 -3h-12v-11h11q4 1 4 -3q0 -1 -2 -2q-5 -1 -12 -1v-14l12 1q6 0 3 -4q-2 -2 -4 -2q-1 0 -5.5 -0.5t-7.5 -0.5zM131 231q-5 1 -11 9.5t-7 9.5q0 -10 1 -18q0 -2 -3 -2t-3 2q0 32 -1 35
q-3 0 -3.5 2.5t2.5 3.5h7q16 0 17 -11q0 -7 -7 -9q-1 -1 -4 -1q7 -15 13 -16q2 0 1 -4q0 -2 -2 -1zM162 231q-2 0 -2 2.5t2 2.5h3v32l-4 -1q-3 0 -1 4q0 2 2 2h13q2 -2 1 -5h-5v-32h4q2 0 2 -2.5t-2 -2.5h-13zM191 231q-5 -1 -8.5 4.5t-3.5 13.5q0 15 6 21h1l2 1q1 4 4 1
q4 0 6 -5q6 -5 5 -20.5t-12 -15.5zM212 233q-1 -4 -4 -2l-1 3q2 17 1 36q0 3 3 2q1 0 2 -2q12 -23 16 -29q-2 16 -2 29q2 1 5 1q0 -3 1 -16.5t0 -19.5q-2 -8 -6 -2q-2 3 -6.5 13t-7.5 14q1 -18 -1 -27zM115 255q6 0 8.5 3t0 6.5t-8.5 3.5h-2v-13h2zM188 237q4 -3 7 0
q9 9 0 26q-3 7 -8 1q-4 -5 -3 -14.5t4 -12.5z" />
    <glyph glyph-name="equal" unicode="=" 
d="M332 451v-261h-319v261h319zM19 196h307v249h-307v-249zM87 377q-4 7 -7.5 21.5t-3.5 15.5q-1 2 3 3q1 1 2 -1q1 -3 3.5 -15t4.5 -19q2 23 5 33q0 3 4 2l1 -3q-2 -7 -3.5 -20t-2.5 -17q-1 -2 -3 -2.5t-3 2.5zM208 376q-5 1 -3 4l4 1q0 3 0.5 8t0.5 8q-3 0 -4 2q-2 3 2 3
h2l-1 10h-1q-2 0 -3 1q-1 3 2 4q21 0 22 -8q0 -7 -7 -9q3 0 6 -3q5 -4 3 -12t-10 -9q-4 -1 -7 0q-3 -5 -6 0zM56 377q-1 -4 -5 -2q-1 1 -1 3l3 13q-3 0 -3 2l2 2h2q2 4 5 19q4 6 6 1l5 -19h3q3 -1 2 -4q-1 -1 -3 -1h-1q1 -6 4 -12q1 -5 -3 -4q-1 0 -2 2t-2.5 7.5t-1.5 6.5
h-8zM106 377q0 -4 -4 -2q-2 0 -1 3q0 2 1 6t1 7q-2 0 -2 2t2 2h2q4 17 5 19t3 2.5t3 -1.5l5 -19h2q4 -1 2 -4l-2 -1h-1q1 -3 2 -7t1 -5q2 -5 -2 -4q-2 0 -3 2q-3 12 -3 14h-8zM130 375q-2 0 -2 2.5t2 2.5h4v32l-4 -1q-4 0 -2 4q0 2 2 2h4h6h3q2 -2 1 -5h-5v-32h4q1 -2 1 -5
h-14zM155 374q-3 0 -3 4q0 6 -1 18.5t-1 17.5q0 3 3 3t3 -3q0 -8 1 -19t0 -16h12q-1 2 -1 6q1 2 3 1.5t2 -2.5v-8q0 -2 -4 -2h-14zM183 377q-1 -4 -5 -2q-1 1 -1 3l3 13q-3 0 -3 2l2 2h2q1 2 3 9.5t3 9.5t2.5 2.5t2.5 -1.5l5 -19h3q3 -1 2 -4l-3 -1q1 -9 3 -12q1 -5 -3 -4
q-1 0 -2 2q-3 6 -3 14h-9zM241 374q-3 0 -3 4q0 6 -1 18.5t-1 17.5q0 3 3 3t3 -3q0 -8 1 -19t0 -16h12q-1 3 0 6q0 2 2 1.5t2 -2.5v-2v-3v-3q0 -2 -4 -2h-14zM268 374l-3 3v34q-3 1 -2.5 3t2.5 3h17q3 0 3 -3t-3 -3h-12v-11h10q4 1 4 -3q0 -1 -2 -2q-4 -1 -12 -1v-14l13 1
q5 0 2 -4q-1 -2 -3 -2t-6.5 -0.5t-7.5 -0.5zM218 402q3 1 4.5 3t0.5 4.5t-5 2.5h-4l1 -10h3zM65 396q0 1 -0.5 3t-1 4.5t-0.5 4.5h-1q0 -2 -1 -6.5t-1 -5.5h5zM116 396q-1 2 -3 12q0 -1 -1 -6t-2 -6h6zM192 396q0 1 -0.5 3t-1 4.5t-0.5 4.5h-1q0 -2 -1 -6.5t-1 -5.5h5z
M218 380q8 1 8.5 8t-6.5 9h-5l-1 -17h4zM140 304q2 4 0 13q-2 -1 -2 0q-2 0 -2 2t2 2h2v21q0 4 3 3q2 0 2 -2v-22h13q-1 8 -1 22q0 3 3 3q2 -1 2 -3q0 -8 1 -22t1 -15q0 -2 -2 -3q-3 -2 -3 2q0 8 -1 12h-12v-13q-2 -1 -6 0zM243 302q-9 1 -9 18q0 9 -1 22q0 5 4 3q2 0 2 -2
v-21q0 -14 5 -14q9 0 5 35q0 3 3 2l2 -3l1 -10q1 -10 0 -14q0 -16 -12 -16zM50 303q-2 0 -2 2.5t2 2.5h4v32l-4 -1q-2 0 -2 2.5t2 3.5h13q3 0 3 -2q2 -3 -2 -3h-5v-32h5q2 0 2 -2.5t-2 -2.5q-1 -1 -7 -0.5t-7 0.5zM121 304v36q-5 0 -8 -1q-3 0 -1 4q1 2 2 2h20q1 -2 -1 -6
h-7v-34q-2 -1 -5 -1zM175 302q-3 0 -3 3q-1 1 -1 11v23q-3 1 -2 3t3 3h16q3 0 3 -3t-3 -3h-11l-1 -11h11q4 1 4 -3q0 -1 -2 -2q-5 -1 -12 -1v-14l12 1q6 0 3 -4q-2 -2 -4 -2q-1 0 -5.5 -0.5t-7.5 -0.5zM266 302q-3 0 -3 4q0 6 -1 18.5t-1 17.5q0 3 3 3t3 -3q0 -8 1 -19
t0 -16h12q-2 3 0 6q0 2 2 1.5t2 -2.5v-2v-3v-3q0 -2 -4 -2h-14zM293 302q-3 0 -3 4q1 7 0 20t-1 16t2.5 3t2.5 -3q0 -10 1 -20.5t1 -14.5h11v6q0 2 3 1l2 -2v-8q-1 -2 -4 -2h-15zM208 340q0 4 2 4q12 1 17 0q2 0 2 -3q0 -1 -2 -2q-1 -1 -4 1h-10q0 -12 1 -15h10q2 1 2 -1
q1 -3 -1 -4h-11v-15q0 -2 -3 -2.5t-3 2.5v35zM75 305q0 -4 -4 -2l-1 3q2 17 1 36q0 3 3 2q1 0 2 -2q12 -23 16 -29q-2 16 -2 29q2 1 5 1q0 -3 1 -16.5t0 -19.5q-2 -8 -6 -2q-2 3 -6.5 13t-7.5 14q1 -18 -1 -27zM147 231q-6 -1 -9 3.5t-3 11.5q0 3 2.5 3t2.5 -3q0 -5 2 -8
t6 -2t3.5 5.5t-4.5 8.5l-4.5 4.5t-4.5 6.5q-2 8 3 11t10 -3v3q1 2 4 -1v-10v-2l-3 1q-2 6 -4 7q-3 2 -5 0t0 -5l6 -6q6 -7 7 -13q2 -12 -9 -12zM61 233q-3 6 -6.5 20.5t-4.5 16.5t3 3l2 -1q2 -6 4 -17t4 -17h1q1 14 4 33q1 3 4 2l1 -3q0 -2 -2.5 -17t-3.5 -20q0 -4 -4 -2
q-1 0 -2 2zM84 230q-3 0 -3 3q-1 1 -1 11v23q-3 1 -2 3t3 3h16q3 0 3 -3t-3 -3h-12v-11h11q4 1 4 -3q0 -1 -2 -2q-5 -1 -12 -1v-14l12 1q6 0 3 -4q-2 -2 -4 -2q-1 0 -5.5 -0.5t-7.5 -0.5zM131 231q-5 1 -11 9.5t-7 9.5q0 -10 1 -18q0 -2 -3 -2t-3 2q0 32 -1 35
q-3 0 -3.5 2.5t2.5 3.5h7q16 0 17 -11q0 -7 -7 -9q-1 -1 -4 -1q7 -15 13 -16q2 0 1 -4q0 -2 -2 -1zM162 231q-2 0 -2 2.5t2 2.5h3v32l-4 -1q-3 0 -1 4q0 2 2 2h13q2 -2 1 -5h-5v-32h4q2 0 2 -2.5t-2 -2.5h-13zM191 231q-5 -1 -8.5 4.5t-3.5 13.5q0 15 6 21h1l2 1q1 4 4 1
q4 0 6 -5q6 -5 5 -20.5t-12 -15.5zM212 233q-1 -4 -4 -2l-1 3q2 17 1 36q0 3 3 2q1 0 2 -2q12 -23 16 -29q-2 16 -2 29q2 1 5 1q0 -3 1 -16.5t0 -19.5q-2 -8 -6 -2q-2 3 -6.5 13t-7.5 14q1 -18 -1 -27zM115 255q6 0 8.5 3t0 6.5t-8.5 3.5h-2v-13h2zM188 237q4 -3 7 0
q9 9 0 26q-3 7 -8 1q-4 -5 -3 -14.5t4 -12.5z" />
    <glyph glyph-name="greater" unicode="&#x3e;" 
d="M332 451v-261h-319v261h319zM19 196h307v249h-307v-249zM87 377q-4 7 -7.5 21.5t-3.5 15.5q-1 2 3 3q1 1 2 -1q1 -3 3.5 -15t4.5 -19q2 23 5 33q0 3 4 2l1 -3q-2 -7 -3.5 -20t-2.5 -17q-1 -2 -3 -2.5t-3 2.5zM208 376q-5 1 -3 4l4 1q0 3 0.5 8t0.5 8q-3 0 -4 2q-2 3 2 3
h2l-1 10h-1q-2 0 -3 1q-1 3 2 4q21 0 22 -8q0 -7 -7 -9q3 0 6 -3q5 -4 3 -12t-10 -9q-4 -1 -7 0q-3 -5 -6 0zM56 377q-1 -4 -5 -2q-1 1 -1 3l3 13q-3 0 -3 2l2 2h2q2 4 5 19q4 6 6 1l5 -19h3q3 -1 2 -4q-1 -1 -3 -1h-1q1 -6 4 -12q1 -5 -3 -4q-1 0 -2 2t-2.5 7.5t-1.5 6.5
h-8zM106 377q0 -4 -4 -2q-2 0 -1 3q0 2 1 6t1 7q-2 0 -2 2t2 2h2q4 17 5 19t3 2.5t3 -1.5l5 -19h2q4 -1 2 -4l-2 -1h-1q1 -3 2 -7t1 -5q2 -5 -2 -4q-2 0 -3 2q-3 12 -3 14h-8zM130 375q-2 0 -2 2.5t2 2.5h4v32l-4 -1q-4 0 -2 4q0 2 2 2h4h6h3q2 -2 1 -5h-5v-32h4q1 -2 1 -5
h-14zM155 374q-3 0 -3 4q0 6 -1 18.5t-1 17.5q0 3 3 3t3 -3q0 -8 1 -19t0 -16h12q-1 2 -1 6q1 2 3 1.5t2 -2.5v-8q0 -2 -4 -2h-14zM183 377q-1 -4 -5 -2q-1 1 -1 3l3 13q-3 0 -3 2l2 2h2q1 2 3 9.5t3 9.5t2.5 2.5t2.5 -1.5l5 -19h3q3 -1 2 -4l-3 -1q1 -9 3 -12q1 -5 -3 -4
q-1 0 -2 2q-3 6 -3 14h-9zM241 374q-3 0 -3 4q0 6 -1 18.5t-1 17.5q0 3 3 3t3 -3q0 -8 1 -19t0 -16h12q-1 3 0 6q0 2 2 1.5t2 -2.5v-2v-3v-3q0 -2 -4 -2h-14zM268 374l-3 3v34q-3 1 -2.5 3t2.5 3h17q3 0 3 -3t-3 -3h-12v-11h10q4 1 4 -3q0 -1 -2 -2q-4 -1 -12 -1v-14l13 1
q5 0 2 -4q-1 -2 -3 -2t-6.5 -0.5t-7.5 -0.5zM218 402q3 1 4.5 3t0.5 4.5t-5 2.5h-4l1 -10h3zM65 396q0 1 -0.5 3t-1 4.5t-0.5 4.5h-1q0 -2 -1 -6.5t-1 -5.5h5zM116 396q-1 2 -3 12q0 -1 -1 -6t-2 -6h6zM192 396q0 1 -0.5 3t-1 4.5t-0.5 4.5h-1q0 -2 -1 -6.5t-1 -5.5h5z
M218 380q8 1 8.5 8t-6.5 9h-5l-1 -17h4zM140 304q2 4 0 13q-2 -1 -2 0q-2 0 -2 2t2 2h2v21q0 4 3 3q2 0 2 -2v-22h13q-1 8 -1 22q0 3 3 3q2 -1 2 -3q0 -8 1 -22t1 -15q0 -2 -2 -3q-3 -2 -3 2q0 8 -1 12h-12v-13q-2 -1 -6 0zM243 302q-9 1 -9 18q0 9 -1 22q0 5 4 3q2 0 2 -2
v-21q0 -14 5 -14q9 0 5 35q0 3 3 2l2 -3l1 -10q1 -10 0 -14q0 -16 -12 -16zM50 303q-2 0 -2 2.5t2 2.5h4v32l-4 -1q-2 0 -2 2.5t2 3.5h13q3 0 3 -2q2 -3 -2 -3h-5v-32h5q2 0 2 -2.5t-2 -2.5q-1 -1 -7 -0.5t-7 0.5zM121 304v36q-5 0 -8 -1q-3 0 -1 4q1 2 2 2h20q1 -2 -1 -6
h-7v-34q-2 -1 -5 -1zM175 302q-3 0 -3 3q-1 1 -1 11v23q-3 1 -2 3t3 3h16q3 0 3 -3t-3 -3h-11l-1 -11h11q4 1 4 -3q0 -1 -2 -2q-5 -1 -12 -1v-14l12 1q6 0 3 -4q-2 -2 -4 -2q-1 0 -5.5 -0.5t-7.5 -0.5zM266 302q-3 0 -3 4q0 6 -1 18.5t-1 17.5q0 3 3 3t3 -3q0 -8 1 -19
t0 -16h12q-2 3 0 6q0 2 2 1.5t2 -2.5v-2v-3v-3q0 -2 -4 -2h-14zM293 302q-3 0 -3 4q1 7 0 20t-1 16t2.5 3t2.5 -3q0 -10 1 -20.5t1 -14.5h11v6q0 2 3 1l2 -2v-8q-1 -2 -4 -2h-15zM208 340q0 4 2 4q12 1 17 0q2 0 2 -3q0 -1 -2 -2q-1 -1 -4 1h-10q0 -12 1 -15h10q2 1 2 -1
q1 -3 -1 -4h-11v-15q0 -2 -3 -2.5t-3 2.5v35zM75 305q0 -4 -4 -2l-1 3q2 17 1 36q0 3 3 2q1 0 2 -2q12 -23 16 -29q-2 16 -2 29q2 1 5 1q0 -3 1 -16.5t0 -19.5q-2 -8 -6 -2q-2 3 -6.5 13t-7.5 14q1 -18 -1 -27zM147 231q-6 -1 -9 3.5t-3 11.5q0 3 2.5 3t2.5 -3q0 -5 2 -8
t6 -2t3.5 5.5t-4.5 8.5l-4.5 4.5t-4.5 6.5q-2 8 3 11t10 -3v3q1 2 4 -1v-10v-2l-3 1q-2 6 -4 7q-3 2 -5 0t0 -5l6 -6q6 -7 7 -13q2 -12 -9 -12zM61 233q-3 6 -6.5 20.5t-4.5 16.5t3 3l2 -1q2 -6 4 -17t4 -17h1q1 14 4 33q1 3 4 2l1 -3q0 -2 -2.5 -17t-3.5 -20q0 -4 -4 -2
q-1 0 -2 2zM84 230q-3 0 -3 3q-1 1 -1 11v23q-3 1 -2 3t3 3h16q3 0 3 -3t-3 -3h-12v-11h11q4 1 4 -3q0 -1 -2 -2q-5 -1 -12 -1v-14l12 1q6 0 3 -4q-2 -2 -4 -2q-1 0 -5.5 -0.5t-7.5 -0.5zM131 231q-5 1 -11 9.5t-7 9.5q0 -10 1 -18q0 -2 -3 -2t-3 2q0 32 -1 35
q-3 0 -3.5 2.5t2.5 3.5h7q16 0 17 -11q0 -7 -7 -9q-1 -1 -4 -1q7 -15 13 -16q2 0 1 -4q0 -2 -2 -1zM162 231q-2 0 -2 2.5t2 2.5h3v32l-4 -1q-3 0 -1 4q0 2 2 2h13q2 -2 1 -5h-5v-32h4q2 0 2 -2.5t-2 -2.5h-13zM191 231q-5 -1 -8.5 4.5t-3.5 13.5q0 15 6 21h1l2 1q1 4 4 1
q4 0 6 -5q6 -5 5 -20.5t-12 -15.5zM212 233q-1 -4 -4 -2l-1 3q2 17 1 36q0 3 3 2q1 0 2 -2q12 -23 16 -29q-2 16 -2 29q2 1 5 1q0 -3 1 -16.5t0 -19.5q-2 -8 -6 -2q-2 3 -6.5 13t-7.5 14q1 -18 -1 -27zM115 255q6 0 8.5 3t0 6.5t-8.5 3.5h-2v-13h2zM188 237q4 -3 7 0
q9 9 0 26q-3 7 -8 1q-4 -5 -3 -14.5t4 -12.5z" />
    <glyph glyph-name="question" unicode="?" horiz-adv-x="267" 
d="M99 658q24 17 57 17t51 -25q14 -19 17 -47.5t-7.5 -67t-19 -63t-28 -69.5t-22.5 -54q-44 -112 -47 -256q-1 -11 -13 -13q-10 -2 -9 8q4 142 49 268q4 12 21.5 54.5t29 73t19.5 67.5t3 57q-8 28 -31.5 39.5t-49.5 -2.5q-61 -33 -53 -136q1 -10 -12 -15q-9 -4 -10 5
q-8 117 55 159zM91 33q5 -1 7.5 -7t1.5 -11t-7.5 -10.5t-11.5 -4.5q-14 5 -9.5 20.5t19.5 12.5z" />
    <glyph glyph-name="at" unicode="@" 
d="M332 451v-261h-319v261h319zM19 196h307v249h-307v-249zM87 377q-4 7 -7.5 21.5t-3.5 15.5q-1 2 3 3q1 1 2 -1q1 -3 3.5 -15t4.5 -19q2 23 5 33q0 3 4 2l1 -3q-2 -7 -3.5 -20t-2.5 -17q-1 -2 -3 -2.5t-3 2.5zM208 376q-5 1 -3 4l4 1q0 3 0.5 8t0.5 8q-3 0 -4 2q-2 3 2 3
h2l-1 10h-1q-2 0 -3 1q-1 3 2 4q21 0 22 -8q0 -7 -7 -9q3 0 6 -3q5 -4 3 -12t-10 -9q-4 -1 -7 0q-3 -5 -6 0zM56 377q-1 -4 -5 -2q-1 1 -1 3l3 13q-3 0 -3 2l2 2h2q2 4 5 19q4 6 6 1l5 -19h3q3 -1 2 -4q-1 -1 -3 -1h-1q1 -6 4 -12q1 -5 -3 -4q-1 0 -2 2t-2.5 7.5t-1.5 6.5
h-8zM106 377q0 -4 -4 -2q-2 0 -1 3q0 2 1 6t1 7q-2 0 -2 2t2 2h2q4 17 5 19t3 2.5t3 -1.5l5 -19h2q4 -1 2 -4l-2 -1h-1q1 -3 2 -7t1 -5q2 -5 -2 -4q-2 0 -3 2q-3 12 -3 14h-8zM130 375q-2 0 -2 2.5t2 2.5h4v32l-4 -1q-4 0 -2 4q0 2 2 2h4h6h3q2 -2 1 -5h-5v-32h4q1 -2 1 -5
h-14zM155 374q-3 0 -3 4q0 6 -1 18.5t-1 17.5q0 3 3 3t3 -3q0 -8 1 -19t0 -16h12q-1 2 -1 6q1 2 3 1.5t2 -2.5v-8q0 -2 -4 -2h-14zM183 377q-1 -4 -5 -2q-1 1 -1 3l3 13q-3 0 -3 2l2 2h2q1 2 3 9.5t3 9.5t2.5 2.5t2.5 -1.5l5 -19h3q3 -1 2 -4l-3 -1q1 -9 3 -12q1 -5 -3 -4
q-1 0 -2 2q-3 6 -3 14h-9zM241 374q-3 0 -3 4q0 6 -1 18.5t-1 17.5q0 3 3 3t3 -3q0 -8 1 -19t0 -16h12q-1 3 0 6q0 2 2 1.5t2 -2.5v-2v-3v-3q0 -2 -4 -2h-14zM268 374l-3 3v34q-3 1 -2.5 3t2.5 3h17q3 0 3 -3t-3 -3h-12v-11h10q4 1 4 -3q0 -1 -2 -2q-4 -1 -12 -1v-14l13 1
q5 0 2 -4q-1 -2 -3 -2t-6.5 -0.5t-7.5 -0.5zM218 402q3 1 4.5 3t0.5 4.5t-5 2.5h-4l1 -10h3zM65 396q0 1 -0.5 3t-1 4.5t-0.5 4.5h-1q0 -2 -1 -6.5t-1 -5.5h5zM116 396q-1 2 -3 12q0 -1 -1 -6t-2 -6h6zM192 396q0 1 -0.5 3t-1 4.5t-0.5 4.5h-1q0 -2 -1 -6.5t-1 -5.5h5z
M218 380q8 1 8.5 8t-6.5 9h-5l-1 -17h4zM140 304q2 4 0 13q-2 -1 -2 0q-2 0 -2 2t2 2h2v21q0 4 3 3q2 0 2 -2v-22h13q-1 8 -1 22q0 3 3 3q2 -1 2 -3q0 -8 1 -22t1 -15q0 -2 -2 -3q-3 -2 -3 2q0 8 -1 12h-12v-13q-2 -1 -6 0zM243 302q-9 1 -9 18q0 9 -1 22q0 5 4 3q2 0 2 -2
v-21q0 -14 5 -14q9 0 5 35q0 3 3 2l2 -3l1 -10q1 -10 0 -14q0 -16 -12 -16zM50 303q-2 0 -2 2.5t2 2.5h4v32l-4 -1q-2 0 -2 2.5t2 3.5h13q3 0 3 -2q2 -3 -2 -3h-5v-32h5q2 0 2 -2.5t-2 -2.5q-1 -1 -7 -0.5t-7 0.5zM121 304v36q-5 0 -8 -1q-3 0 -1 4q1 2 2 2h20q1 -2 -1 -6
h-7v-34q-2 -1 -5 -1zM175 302q-3 0 -3 3q-1 1 -1 11v23q-3 1 -2 3t3 3h16q3 0 3 -3t-3 -3h-11l-1 -11h11q4 1 4 -3q0 -1 -2 -2q-5 -1 -12 -1v-14l12 1q6 0 3 -4q-2 -2 -4 -2q-1 0 -5.5 -0.5t-7.5 -0.5zM266 302q-3 0 -3 4q0 6 -1 18.5t-1 17.5q0 3 3 3t3 -3q0 -8 1 -19
t0 -16h12q-2 3 0 6q0 2 2 1.5t2 -2.5v-2v-3v-3q0 -2 -4 -2h-14zM293 302q-3 0 -3 4q1 7 0 20t-1 16t2.5 3t2.5 -3q0 -10 1 -20.5t1 -14.5h11v6q0 2 3 1l2 -2v-8q-1 -2 -4 -2h-15zM208 340q0 4 2 4q12 1 17 0q2 0 2 -3q0 -1 -2 -2q-1 -1 -4 1h-10q0 -12 1 -15h10q2 1 2 -1
q1 -3 -1 -4h-11v-15q0 -2 -3 -2.5t-3 2.5v35zM75 305q0 -4 -4 -2l-1 3q2 17 1 36q0 3 3 2q1 0 2 -2q12 -23 16 -29q-2 16 -2 29q2 1 5 1q0 -3 1 -16.5t0 -19.5q-2 -8 -6 -2q-2 3 -6.5 13t-7.5 14q1 -18 -1 -27zM147 231q-6 -1 -9 3.5t-3 11.5q0 3 2.5 3t2.5 -3q0 -5 2 -8
t6 -2t3.5 5.5t-4.5 8.5l-4.5 4.5t-4.5 6.5q-2 8 3 11t10 -3v3q1 2 4 -1v-10v-2l-3 1q-2 6 -4 7q-3 2 -5 0t0 -5l6 -6q6 -7 7 -13q2 -12 -9 -12zM61 233q-3 6 -6.5 20.5t-4.5 16.5t3 3l2 -1q2 -6 4 -17t4 -17h1q1 14 4 33q1 3 4 2l1 -3q0 -2 -2.5 -17t-3.5 -20q0 -4 -4 -2
q-1 0 -2 2zM84 230q-3 0 -3 3q-1 1 -1 11v23q-3 1 -2 3t3 3h16q3 0 3 -3t-3 -3h-12v-11h11q4 1 4 -3q0 -1 -2 -2q-5 -1 -12 -1v-14l12 1q6 0 3 -4q-2 -2 -4 -2q-1 0 -5.5 -0.5t-7.5 -0.5zM131 231q-5 1 -11 9.5t-7 9.5q0 -10 1 -18q0 -2 -3 -2t-3 2q0 32 -1 35
q-3 0 -3.5 2.5t2.5 3.5h7q16 0 17 -11q0 -7 -7 -9q-1 -1 -4 -1q7 -15 13 -16q2 0 1 -4q0 -2 -2 -1zM162 231q-2 0 -2 2.5t2 2.5h3v32l-4 -1q-3 0 -1 4q0 2 2 2h13q2 -2 1 -5h-5v-32h4q2 0 2 -2.5t-2 -2.5h-13zM191 231q-5 -1 -8.5 4.5t-3.5 13.5q0 15 6 21h1l2 1q1 4 4 1
q4 0 6 -5q6 -5 5 -20.5t-12 -15.5zM212 233q-1 -4 -4 -2l-1 3q2 17 1 36q0 3 3 2q1 0 2 -2q12 -23 16 -29q-2 16 -2 29q2 1 5 1q0 -3 1 -16.5t0 -19.5q-2 -8 -6 -2q-2 3 -6.5 13t-7.5 14q1 -18 -1 -27zM115 255q6 0 8.5 3t0 6.5t-8.5 3.5h-2v-13h2zM188 237q4 -3 7 0
q9 9 0 26q-3 7 -8 1q-4 -5 -3 -14.5t4 -12.5z" />
    <glyph glyph-name="A" unicode="A" horiz-adv-x="258" 
d="M118 674q2 9 9.5 10t9.5 -9q6 -47 26 -167t26 -185q40 5 45 -6q2 -6 -11 -11q-12 -4 -32 -5q19 -223 30 -287q1 -7 -5 -11.5t-13.5 -4t-8.5 8.5q-6 34 -10.5 75t-7 70t-6 77.5t-5.5 71.5q-47 3 -89 -1q-24 -185 -27 -289q0 -11 -13 -12t-13 12q3 91 28 288q-9 2 -12 7
t1.5 9t13.5 4q38 277 64 355zM123 618q-3 -14 -20.5 -140.5t-22.5 -156.5q48 4 83 1q-1 18 -8.5 71.5t-17.5 121.5t-14 103z" />
    <glyph glyph-name="B" unicode="B" horiz-adv-x="267" 
d="M25 680q69 9 118.5 -16t48.5 -90q0 -43 -27.5 -85t-64.5 -59q69 -15 101 -68q37 -67 34.5 -149t-39.5 -143q-19 -31 -59.5 -50.5t-79.5 -17.5q-1 -10 -7 -14t-11 1t-3 16q-16 3 -26 10q-5 3 -6 9t3 8t11 -1q10 -7 20 -8q22 192 22 390q-23 0 -29.5 6.5t3.5 13t26 6.5
q-2 139 -9 223q-13 0 -27 -3q-12 -3 -12 7q2 11 13 14zM73 661q9 -102 9 -217q37 14 63 52t26 77q0 35 -24 59.5t-74 28.5zM82 413q0 -199 -22 -392q31 0 63 17t49 41q23 34 32 88t2.5 107t-39 93.5t-85.5 45.5z" />
    <glyph glyph-name="C" unicode="C" horiz-adv-x="223" 
d="M124 684q21 -1 35 -15t19 -38.5t7 -44t2 -49.5v-38q0 -6 -5.5 -8.5t-11.5 -0.5t-6 9v19.5t-0.5 27t-1.5 28.5t-4 29.5t-8 24.5t-13 19t-18 8q-8 1 -15 -2.5t-12 -10.5t-9 -15t-7 -19.5t-5.5 -21t-4 -22.5t-2 -20.5t-1.5 -18t-1 -13.5q-9 -132 -2 -311q0 -3 2 -42.5
t4 -59.5q7 -48 14.5 -62t18 0t27.5 59q12 30 25 78q4 11 18 8q9 -2 7 -11q-16 -54 -26 -81q-32 -83 -61 -88q-8 -1 -14.5 2t-11 11t-8 15t-5.5 19l-3 18t-2.5 17.5t-1.5 12.5q-22 172 -6 407q1 21 3 39t8 46.5t14.5 48t24.5 33.5t37 13z" />
    <glyph glyph-name="D" unicode="D" horiz-adv-x="257" 
d="M25 684q63 5 111 -48t70 -134.5t18 -168.5q-3 -51 -11.5 -97t-26 -94t-50.5 -85t-78 -56q-22 -9 -22 17t2 123t2 138.5t-0.5 118t-3.5 138.5t-8 123q-10 -3 -18.5 1t-6.5 11q4 13 22 13zM53 660q5 -60 8 -121.5t3 -136.5v-117.5t-2 -137t-2 -121.5q63 32 98 116.5
t39 188.5q5 113 -35 212t-109 117z" />
    <glyph glyph-name="E" unicode="E" horiz-adv-x="222" 
d="M186 683q7 0 9.5 -5.5t0 -11t-9.5 -5.5q-13 0 -52.5 1.5t-60.5 0.5q2 -50 0.5 -140t0.5 -140q14 3 30.5 4t36.5 1t31 1q7 0 11 -4.5t2 -10t-10 -5.5q-56 -1 -101 -6q0 -10 0.5 -27.5t0.5 -25.5q5 -119 4 -151q0 -107 7 -139q13 0 48.5 4t56.5 3q13 -1 8 -12
q-4 -10 -14 -9q-19 1 -56 -3t-57 -3q-7 0 -9 6q-11 46 -9 142q0 31 -2 87t-2 73q-2 53 0 177.5t-1 176.5q-7 1 -9 5.5t2 9.5t12 6q18 4 66 1.5t66 -1.5z" />
    <glyph glyph-name="F" unicode="F" horiz-adv-x="199" 
d="M163 682q10 -1 12.5 -7t-2 -11.5t-11.5 -4.5q-61 6 -99 1q-2 -14 -3 -33.5t-1 -35.5t1.5 -44.5t2.5 -42t3 -48t3 -43.5q31 2 94 -2q14 -1 5 -13q-7 -7 -14 -8q-18 1 -83 -1q5 -77 8.5 -214.5t3.5 -147.5q1 -21 -14 -25q-11 -3 -11 8q-6 237 -12 359q-1 24 -4.5 93.5
t-4 97.5t0.5 87q2 34 20 35q61 5 105 0z" />
    <glyph glyph-name="G" unicode="G" horiz-adv-x="230" 
d="M180 532q1 -12 -12 -16q-13 -5 -16 15v5q-1 59 -21 103q-9 23 -19 17q-32 -18 -44.5 -142t-8.5 -224q0 -7 1 -29t1.5 -36.5t2 -39t3.5 -41.5t5 -38.5t7.5 -35.5t10 -26.5t13.5 -18t18 -4.5q36 5 42 136v62.5t1 61.5q-6 0 -15.5 1t-17.5 1.5t-18 0.5q-13 0 -10 11
q3 10 13 10q13 0 28.5 -2t30.5 -1q8 0 12 -4.5t2 -10.5q2 -149 -8 -208q-8 -45 -33 -67.5t-51 -13t-38 48.5q-16 51 -21 140q-3 93 -4 199t17 196.5t53 100.5q60 17 76 -151z" />
    <glyph glyph-name="H" unicode="H" horiz-adv-x="286" 
d="M198 676q-1 -59 0.5 -125t7 -150.5t9 -128.5t12.5 -145.5t10 -115.5q1 -7 -4 -10.5t-11 -1.5t-6 10q-17 173 -25 285l-100 -1q13 -123 14 -138q1 -17 -2 -150q0 -11 -12 -13q-11 -2 -11 9q3 153 1 172q-2 20 -7 59.5t-7 59.5h-22q-14 0 -9 11q5 10 15 10h14q0 4 -0.5 12
t-0.5 12q-4 65 -5 186t-2 149q0 6 5.5 10t11.5 2.5t6 -9.5q0 -14 1.5 -146.5t6.5 -202.5q0 -9 1 -13l100 2q-15 215 -13 359q0 7 5.5 10.5t11 1.5t5.5 -10z" />
    <glyph glyph-name="I" unicode="I" horiz-adv-x="141" 
d="M105 687q8 0 11.5 -5t1 -10.5t-10.5 -5.5q-6 0 -18 -1t-18 -1q7 -427 -12 -641q5 1 23 0t19 -1q12 1 17 -11q3 -8 -7 -9q-48 -4 -118 0q-11 1 -13 12q-2 8 7 9h2q23 -2 46 0q21 222 12 641q-24 -2 -49 0q-6 0 -8 5.5t1.5 10.5t10.5 5q36 -2 103 2z" />
    <glyph glyph-name="J" unicode="J" horiz-adv-x="207" 
d="M148 682q3 0 4.5 -1t1.5 -3.5v-5v-6.5v-7q0 -56 3 -182.5t2 -198.5q0 -172 -15 -222q-11 -39 -36 -51q-14 -7 -32 -5t-29 12t-18.5 22.5t-11 33.5t-4.5 29t-1 37v29q-1 10 13 7q12 -1 12 -10q3 -64 4 -73q6 -61 33 -67q41 -10 52 70q1 8 4 35q9 80 4 269.5t-2 266.5v2
q-44 -4 -79 -3q-14 0 -17.5 6t3 11.5t15.5 5.5z" />
    <glyph glyph-name="K" unicode="K" horiz-adv-x="227" 
d="M158 675q3 -99 -4.5 -163.5t-34.5 -101.5q77 -214 108 -397q1 -8 -4 -12.5t-11.5 -2t-7.5 10.5q-29 163 -104 381q-11 -14 -28 -26q4 -235 -1 -353q0 -7 -6 -10.5t-12 -0.5t-6 13q0 36 2 159t1 176.5t-7 147t-19 173.5q-2 11 11 17q11 5 12 -7q23 -141 26 -287
q74 64 59 270q-2 18 14 22q12 4 12 -9z" />
    <glyph glyph-name="L" unicode="L" horiz-adv-x="221" 
d="M81 669q-5 -92 4 -323.5t-3 -323.5q16 -1 46.5 -0.5t49.5 -1.5q3 22 4 61t3 58q1 6 7 8t11 -1t4 -9q-3 -17 -3 -62.5t-7 -69.5q-2 -9 -13 -6q-36 3 -109 3q-8 0 -13 6t-4 15q12 96 3 326.5t-3 325.5q1 12 11 10q13 -1 12 -16z" />
    <glyph glyph-name="M" unicode="M" horiz-adv-x="321" 
d="M204 681q2 11 17 10.5t14 -13.5q2 -21 13 -188.5t24.5 -296t31.5 -183.5q2 -6 -3 -11.5t-11.5 -5t-9.5 6.5q-8 25 -16 76.5t-13.5 103t-11.5 130.5t-8.5 124.5t-7 122.5t-5.5 90q-3 -42 -15.5 -279.5t-26.5 -332.5q-1 -11 -14.5 -10t-15.5 13q-8 52 -20.5 181
t-24.5 268.5t-14 162.5q-4 -66 -6.5 -298t-15.5 -344q-2 -14 -14 -13q-10 0 -9 13q14 118 16 336t14 330q1 13 16.5 13.5t16.5 -12.5q3 -31 27 -300.5t30 -315.5q6 75 13.5 216.5t14 251t14.5 154.5z" />
    <glyph glyph-name="N" unicode="N" horiz-adv-x="284" 
d="M207 680q11 -220 14 -296t2.5 -182t-9.5 -191q-1 -8 -11 -9.5t-13 7.5q-27 97 -42.5 183.5t-34 222.5t-35.5 239q16 -359 8 -639q-1 -14 -12 -14q-14 2 -14 20q6 95 4 361.5t-2 291.5q-1 9 5.5 13t14.5 0.5t10 -12.5q24 -129 50 -309.5t56 -305.5q2 54 2.5 107
t-1.5 123.5t-3.5 111t-6 138.5t-6.5 137q0 6 5.5 10t12 2t6.5 -9z" />
    <glyph glyph-name="O" unicode="O" horiz-adv-x="246" 
d="M107 686q105 -85 103 -343q-2 -283 -64 -337q-18 -17 -40 -8t-37 41q-23 51 -32 167.5t4.5 251t51.5 212.5q-11 5 -4.5 14t18.5 2zM110 652q-33 -84 -45 -218.5t-1.5 -248t36.5 -150.5q11 -15 20 -16.5t16 5.5q24 17 39.5 148t1 280.5t-66.5 199.5z" />
    <glyph glyph-name="P" unicode="P" horiz-adv-x="224" 
d="M34 684q82 -5 128 -47t47.5 -103t-28.5 -133q-38 -78 -112 -113q0 -8 -1 -65.5t-1 -78.5t2 -61.5t7 -70.5q1 -8 -4.5 -12t-12.5 -2t-8 10q-12 79 -8 271q-13 -1 -13 9t14 16l-3 355q-3 0 -7 0.5t-6 0.5q-12 1 -7 14q4 11 13 10zM66 659q0 -114 1 -195.5t2 -115.5l1 -33
q56 27 88 92q24 56 26 107t-29 91.5t-89 53.5z" />
    <glyph glyph-name="Q" unicode="Q" horiz-adv-x="256" 
d="M98 686q29 -23 49 -55.5t30 -63t15 -75t5.5 -73.5t0.5 -77q0 -4 -0.5 -37t-0.5 -44t-1 -41t-3 -46t-4.5 -40t-6.5 -43t-10 -35l36 -54q4 -5 0 -10t-9.5 -5t-9.5 4l-28 40q-21 -34 -49.5 -34t-47.5 41q-6 14 -11 32.5t-8.5 33.5t-5.5 39t-3.5 37t-2 40.5t-0.5 36.5v38v33
q0 232 53 340q-8 5 -8.5 11t5.5 8t15 -1zM103 652q-46 -104 -46 -328q0 -222 29 -277q15 -26 34 -23t27 28l-44 65q-4 6 0 11t10 5t10 -5l33 -48q5 27 8 62t4 62t1.5 74t1.5 71q10 219 -68 303z" />
    <glyph glyph-name="R" unicode="R" horiz-adv-x="261" 
d="M19 680q56 12 106.5 -1.5t82.5 -58.5t27 -113q-5 -65 -45.5 -109.5t-75.5 -45.5q23 -31 65 -170.5t74 -163.5q7 -5 5.5 -12t-7 -9.5t-11.5 1.5q-35 28 -62.5 108.5t-50.5 155.5t-50 92q7 -252 7 -343q0 -9 -6 -12t-12 1t-6 12q0 82 -4.5 308.5t-2.5 340.5q-10 -1 -32 -5
q-11 -3 -11 9.5t9 14.5zM77 661q-3 -91 -1 -282q7 -7 21.5 -7.5t32.5 8t34.5 24t29 44t14.5 65.5q3 60 -32.5 102t-98.5 46z" />
    <glyph glyph-name="S" unicode="S" horiz-adv-x="236" 
d="M199 669q1 -69 -3 -147q-1 -22 -13 -21q-9 2 -10 10q0 34 -20 76t-44 63q-38 34 -45 -18q-6 -39 8 -91q16 -61 64.5 -176t52.5 -142q13 -80 -1 -148q-13 -65 -52 -73q-23 -5 -42 11t-28 38q-42 109 -24 253q1 8 6.5 11t10.5 -0.5t4 -11.5q-9 -66 1 -140q0 -2 2 -17
t3 -20.5t3 -19t5 -20.5t7 -17.5t9 -17.5t12 -13q17 -16 30.5 -9t20.5 21.5t11 32.5q17 96 -6 160q-4 12 -27.5 64.5t-48.5 115.5t-39 115q-23 83 1.5 124t67 15t64.5 -106q1 14 0 50.5t-1 43.5q0 10 11 13q10 2 10 -9z" />
    <glyph glyph-name="T" unicode="T" horiz-adv-x="212" 
d="M13 684q32 1 95 0t94 -1q14 0 8 -13q-4 -11 -13 -11h-25.5h-30.5h-26q9 -91 10.5 -196.5t-1 -253.5t-2.5 -197q0 -10 -13 -12q-12 -1 -12 8q0 46 2.5 197.5t0.5 256.5t-11 198h-81q-13 0 -8 13q4 11 13 11z" />
    <glyph glyph-name="U" unicode="U" horiz-adv-x="255" 
d="M169 674q0 13 12.5 10.5t11.5 -14.5q0 -53 9 -198.5t10 -221.5q0 -247 -68 -251q-89 -5 -92 252v12q-6 274 -10 411q0 7 6 11.5t12.5 2.5t6.5 -10l9 -414q0 -27 1.5 -56.5t7 -79t20.5 -79.5t37 -27q37 5 43.5 128.5t-5 312t-11.5 211.5z" />
    <glyph glyph-name="V" unicode="V" horiz-adv-x="254" 
d="M64 676q8 -76 16 -200.5t18.5 -228.5t31.5 -198q4 53 11.5 153.5t12.5 162t13.5 147t17.5 159.5q1 7 8 10t13 0.5t5 -10.5q-17 -119 -34.5 -338t-29.5 -318q-1 -13 -8 -18t-14 -0.5t-9 15.5q-24 99 -37 208t-22 242t-18 211q0 4 2 7t6 3.5t7.5 0.5t6.5 -2.5t3 -5.5z" />
    <glyph glyph-name="W" unicode="W" horiz-adv-x="340" 
d="M58 681q35 -138 65 -621q23 397 49 606q2 12 14.5 14t14.5 -11q3 -34 25.5 -298t28.5 -322q7 86 9.5 302.5t15.5 325.5q1 7 7 10t11 -0.5t4 -11.5q-12 -101 -13.5 -336.5t-22.5 -317.5q-2 -9 -7.5 -12t-10.5 0t-6 11q-49 390 -56 622q-6 -81 -14.5 -205t-13 -186
t-11 -129.5t-12.5 -104.5q-1 -7 -7 -9.5t-11 1.5t-4 12q-6 22 -31 306.5t-45 342.5q-3 11 8 16q10 5 13 -5z" />
    <glyph glyph-name="X" unicode="X" horiz-adv-x="217" 
d="M35 683q26 -61 73 -247q9 47 29 130t26 112q3 11 16 10q8 -3 8 -11q-10 -46 -32.5 -138.5t-33.5 -143.5q6 -25 21.5 -95.5t23.5 -106t22.5 -89t28.5 -95.5q2 -6 -3.5 -10.5t-12 -4.5t-8.5 6q-10 30 -19.5 62.5t-19 72t-15 66t-16 75t-14.5 68.5q-37 -200 -74 -342
q-3 -11 -17 -13q-9 -1 -8 6v2q16 74 48.5 222t37.5 169q-43 185 -85 286q-2 6 3 10.5t12 4.5t9 -6z" />
    <glyph glyph-name="Y" unicode="Y" horiz-adv-x="253" 
d="M170 675q0 6 6.5 8t12.5 -1.5t6 -9.5q-1 -58 0 -166t-1 -167q-6 -215 -23 -272q-14 -52 -38 -62q-35 -16 -62 9q-12 11 -19 26.5t-9.5 35.5t-3 34t0.5 38.5t1 32.5q0 6 6.5 7.5t12.5 -1.5t6 -9q0 -9 -0.5 -26.5t-0.5 -32t1 -26.5q8 -60 30 -70q17 -8 29 2t18.5 35.5
t9 37.5t4.5 33q7 51 10 110q-15 1 -29 19t-25 50t-20.5 67.5t-18 80.5t-14 80.5t-12 76t-9.5 58.5q-2 10 12 14q12 4 13 -6q4 -21 18 -111t23 -132q36 -160 63 -171q3 60 2 207t0 201z" />
    <glyph glyph-name="Z" unicode="Z" horiz-adv-x="226" 
d="M15 684q24 1 61 0.5t59 -0.5q13 0 10 -16q-9 -52 -28.5 -198.5t-39.5 -251.5t-49 -195q50 -4 142 7q10 1 8 -12q-2 -10 -11 -11q-98 -11 -154 -6q-16 1 -11 19q30 90 49.5 190t41 257t27.5 196q-14 0 -49 1t-59 0q-11 -1 -11 8q2 10 14 12z" />
    <glyph glyph-name="bracketleft" unicode="[" 
d="M332 451v-261h-319v261h319zM19 196h307v249h-307v-249zM87 377q-4 7 -7.5 21.5t-3.5 15.5q-1 2 3 3q1 1 2 -1q1 -3 3.5 -15t4.5 -19q2 23 5 33q0 3 4 2l1 -3q-2 -7 -3.5 -20t-2.5 -17q-1 -2 -3 -2.5t-3 2.5zM208 376q-5 1 -3 4l4 1q0 3 0.5 8t0.5 8q-3 0 -4 2q-2 3 2 3
h2l-1 10h-1q-2 0 -3 1q-1 3 2 4q21 0 22 -8q0 -7 -7 -9q3 0 6 -3q5 -4 3 -12t-10 -9q-4 -1 -7 0q-3 -5 -6 0zM56 377q-1 -4 -5 -2q-1 1 -1 3l3 13q-3 0 -3 2l2 2h2q2 4 5 19q4 6 6 1l5 -19h3q3 -1 2 -4q-1 -1 -3 -1h-1q1 -6 4 -12q1 -5 -3 -4q-1 0 -2 2t-2.5 7.5t-1.5 6.5
h-8zM106 377q0 -4 -4 -2q-2 0 -1 3q0 2 1 6t1 7q-2 0 -2 2t2 2h2q4 17 5 19t3 2.5t3 -1.5l5 -19h2q4 -1 2 -4l-2 -1h-1q1 -3 2 -7t1 -5q2 -5 -2 -4q-2 0 -3 2q-3 12 -3 14h-8zM130 375q-2 0 -2 2.5t2 2.5h4v32l-4 -1q-4 0 -2 4q0 2 2 2h4h6h3q2 -2 1 -5h-5v-32h4q1 -2 1 -5
h-14zM155 374q-3 0 -3 4q0 6 -1 18.5t-1 17.5q0 3 3 3t3 -3q0 -8 1 -19t0 -16h12q-1 2 -1 6q1 2 3 1.5t2 -2.5v-8q0 -2 -4 -2h-14zM183 377q-1 -4 -5 -2q-1 1 -1 3l3 13q-3 0 -3 2l2 2h2q1 2 3 9.5t3 9.5t2.5 2.5t2.5 -1.5l5 -19h3q3 -1 2 -4l-3 -1q1 -9 3 -12q1 -5 -3 -4
q-1 0 -2 2q-3 6 -3 14h-9zM241 374q-3 0 -3 4q0 6 -1 18.5t-1 17.5q0 3 3 3t3 -3q0 -8 1 -19t0 -16h12q-1 3 0 6q0 2 2 1.5t2 -2.5v-2v-3v-3q0 -2 -4 -2h-14zM268 374l-3 3v34q-3 1 -2.5 3t2.5 3h17q3 0 3 -3t-3 -3h-12v-11h10q4 1 4 -3q0 -1 -2 -2q-4 -1 -12 -1v-14l13 1
q5 0 2 -4q-1 -2 -3 -2t-6.5 -0.5t-7.5 -0.5zM218 402q3 1 4.5 3t0.5 4.5t-5 2.5h-4l1 -10h3zM65 396q0 1 -0.5 3t-1 4.5t-0.5 4.5h-1q0 -2 -1 -6.5t-1 -5.5h5zM116 396q-1 2 -3 12q0 -1 -1 -6t-2 -6h6zM192 396q0 1 -0.5 3t-1 4.5t-0.5 4.5h-1q0 -2 -1 -6.5t-1 -5.5h5z
M218 380q8 1 8.5 8t-6.5 9h-5l-1 -17h4zM140 304q2 4 0 13q-2 -1 -2 0q-2 0 -2 2t2 2h2v21q0 4 3 3q2 0 2 -2v-22h13q-1 8 -1 22q0 3 3 3q2 -1 2 -3q0 -8 1 -22t1 -15q0 -2 -2 -3q-3 -2 -3 2q0 8 -1 12h-12v-13q-2 -1 -6 0zM243 302q-9 1 -9 18q0 9 -1 22q0 5 4 3q2 0 2 -2
v-21q0 -14 5 -14q9 0 5 35q0 3 3 2l2 -3l1 -10q1 -10 0 -14q0 -16 -12 -16zM50 303q-2 0 -2 2.5t2 2.5h4v32l-4 -1q-2 0 -2 2.5t2 3.5h13q3 0 3 -2q2 -3 -2 -3h-5v-32h5q2 0 2 -2.5t-2 -2.5q-1 -1 -7 -0.5t-7 0.5zM121 304v36q-5 0 -8 -1q-3 0 -1 4q1 2 2 2h20q1 -2 -1 -6
h-7v-34q-2 -1 -5 -1zM175 302q-3 0 -3 3q-1 1 -1 11v23q-3 1 -2 3t3 3h16q3 0 3 -3t-3 -3h-11l-1 -11h11q4 1 4 -3q0 -1 -2 -2q-5 -1 -12 -1v-14l12 1q6 0 3 -4q-2 -2 -4 -2q-1 0 -5.5 -0.5t-7.5 -0.5zM266 302q-3 0 -3 4q0 6 -1 18.5t-1 17.5q0 3 3 3t3 -3q0 -8 1 -19
t0 -16h12q-2 3 0 6q0 2 2 1.5t2 -2.5v-2v-3v-3q0 -2 -4 -2h-14zM293 302q-3 0 -3 4q1 7 0 20t-1 16t2.5 3t2.5 -3q0 -10 1 -20.5t1 -14.5h11v6q0 2 3 1l2 -2v-8q-1 -2 -4 -2h-15zM208 340q0 4 2 4q12 1 17 0q2 0 2 -3q0 -1 -2 -2q-1 -1 -4 1h-10q0 -12 1 -15h10q2 1 2 -1
q1 -3 -1 -4h-11v-15q0 -2 -3 -2.5t-3 2.5v35zM75 305q0 -4 -4 -2l-1 3q2 17 1 36q0 3 3 2q1 0 2 -2q12 -23 16 -29q-2 16 -2 29q2 1 5 1q0 -3 1 -16.5t0 -19.5q-2 -8 -6 -2q-2 3 -6.5 13t-7.5 14q1 -18 -1 -27zM147 231q-6 -1 -9 3.5t-3 11.5q0 3 2.5 3t2.5 -3q0 -5 2 -8
t6 -2t3.5 5.5t-4.5 8.5l-4.5 4.5t-4.5 6.5q-2 8 3 11t10 -3v3q1 2 4 -1v-10v-2l-3 1q-2 6 -4 7q-3 2 -5 0t0 -5l6 -6q6 -7 7 -13q2 -12 -9 -12zM61 233q-3 6 -6.5 20.5t-4.5 16.5t3 3l2 -1q2 -6 4 -17t4 -17h1q1 14 4 33q1 3 4 2l1 -3q0 -2 -2.5 -17t-3.5 -20q0 -4 -4 -2
q-1 0 -2 2zM84 230q-3 0 -3 3q-1 1 -1 11v23q-3 1 -2 3t3 3h16q3 0 3 -3t-3 -3h-12v-11h11q4 1 4 -3q0 -1 -2 -2q-5 -1 -12 -1v-14l12 1q6 0 3 -4q-2 -2 -4 -2q-1 0 -5.5 -0.5t-7.5 -0.5zM131 231q-5 1 -11 9.5t-7 9.5q0 -10 1 -18q0 -2 -3 -2t-3 2q0 32 -1 35
q-3 0 -3.5 2.5t2.5 3.5h7q16 0 17 -11q0 -7 -7 -9q-1 -1 -4 -1q7 -15 13 -16q2 0 1 -4q0 -2 -2 -1zM162 231q-2 0 -2 2.5t2 2.5h3v32l-4 -1q-3 0 -1 4q0 2 2 2h13q2 -2 1 -5h-5v-32h4q2 0 2 -2.5t-2 -2.5h-13zM191 231q-5 -1 -8.5 4.5t-3.5 13.5q0 15 6 21h1l2 1q1 4 4 1
q4 0 6 -5q6 -5 5 -20.5t-12 -15.5zM212 233q-1 -4 -4 -2l-1 3q2 17 1 36q0 3 3 2q1 0 2 -2q12 -23 16 -29q-2 16 -2 29q2 1 5 1q0 -3 1 -16.5t0 -19.5q-2 -8 -6 -2q-2 3 -6.5 13t-7.5 14q1 -18 -1 -27zM115 255q6 0 8.5 3t0 6.5t-8.5 3.5h-2v-13h2zM188 237q4 -3 7 0
q9 9 0 26q-3 7 -8 1q-4 -5 -3 -14.5t4 -12.5z" />
    <glyph glyph-name="backslash" unicode="\" 
d="M332 451v-261h-319v261h319zM19 196h307v249h-307v-249zM87 377q-4 7 -7.5 21.5t-3.5 15.5q-1 2 3 3q1 1 2 -1q1 -3 3.5 -15t4.5 -19q2 23 5 33q0 3 4 2l1 -3q-2 -7 -3.5 -20t-2.5 -17q-1 -2 -3 -2.5t-3 2.5zM208 376q-5 1 -3 4l4 1q0 3 0.5 8t0.5 8q-3 0 -4 2q-2 3 2 3
h2l-1 10h-1q-2 0 -3 1q-1 3 2 4q21 0 22 -8q0 -7 -7 -9q3 0 6 -3q5 -4 3 -12t-10 -9q-4 -1 -7 0q-3 -5 -6 0zM56 377q-1 -4 -5 -2q-1 1 -1 3l3 13q-3 0 -3 2l2 2h2q2 4 5 19q4 6 6 1l5 -19h3q3 -1 2 -4q-1 -1 -3 -1h-1q1 -6 4 -12q1 -5 -3 -4q-1 0 -2 2t-2.5 7.5t-1.5 6.5
h-8zM106 377q0 -4 -4 -2q-2 0 -1 3q0 2 1 6t1 7q-2 0 -2 2t2 2h2q4 17 5 19t3 2.5t3 -1.5l5 -19h2q4 -1 2 -4l-2 -1h-1q1 -3 2 -7t1 -5q2 -5 -2 -4q-2 0 -3 2q-3 12 -3 14h-8zM130 375q-2 0 -2 2.5t2 2.5h4v32l-4 -1q-4 0 -2 4q0 2 2 2h4h6h3q2 -2 1 -5h-5v-32h4q1 -2 1 -5
h-14zM155 374q-3 0 -3 4q0 6 -1 18.5t-1 17.5q0 3 3 3t3 -3q0 -8 1 -19t0 -16h12q-1 2 -1 6q1 2 3 1.5t2 -2.5v-8q0 -2 -4 -2h-14zM183 377q-1 -4 -5 -2q-1 1 -1 3l3 13q-3 0 -3 2l2 2h2q1 2 3 9.5t3 9.5t2.5 2.5t2.5 -1.5l5 -19h3q3 -1 2 -4l-3 -1q1 -9 3 -12q1 -5 -3 -4
q-1 0 -2 2q-3 6 -3 14h-9zM241 374q-3 0 -3 4q0 6 -1 18.5t-1 17.5q0 3 3 3t3 -3q0 -8 1 -19t0 -16h12q-1 3 0 6q0 2 2 1.5t2 -2.5v-2v-3v-3q0 -2 -4 -2h-14zM268 374l-3 3v34q-3 1 -2.5 3t2.5 3h17q3 0 3 -3t-3 -3h-12v-11h10q4 1 4 -3q0 -1 -2 -2q-4 -1 -12 -1v-14l13 1
q5 0 2 -4q-1 -2 -3 -2t-6.5 -0.5t-7.5 -0.5zM218 402q3 1 4.5 3t0.5 4.5t-5 2.5h-4l1 -10h3zM65 396q0 1 -0.5 3t-1 4.5t-0.5 4.5h-1q0 -2 -1 -6.5t-1 -5.5h5zM116 396q-1 2 -3 12q0 -1 -1 -6t-2 -6h6zM192 396q0 1 -0.5 3t-1 4.5t-0.5 4.5h-1q0 -2 -1 -6.5t-1 -5.5h5z
M218 380q8 1 8.5 8t-6.5 9h-5l-1 -17h4zM140 304q2 4 0 13q-2 -1 -2 0q-2 0 -2 2t2 2h2v21q0 4 3 3q2 0 2 -2v-22h13q-1 8 -1 22q0 3 3 3q2 -1 2 -3q0 -8 1 -22t1 -15q0 -2 -2 -3q-3 -2 -3 2q0 8 -1 12h-12v-13q-2 -1 -6 0zM243 302q-9 1 -9 18q0 9 -1 22q0 5 4 3q2 0 2 -2
v-21q0 -14 5 -14q9 0 5 35q0 3 3 2l2 -3l1 -10q1 -10 0 -14q0 -16 -12 -16zM50 303q-2 0 -2 2.5t2 2.5h4v32l-4 -1q-2 0 -2 2.5t2 3.5h13q3 0 3 -2q2 -3 -2 -3h-5v-32h5q2 0 2 -2.5t-2 -2.5q-1 -1 -7 -0.5t-7 0.5zM121 304v36q-5 0 -8 -1q-3 0 -1 4q1 2 2 2h20q1 -2 -1 -6
h-7v-34q-2 -1 -5 -1zM175 302q-3 0 -3 3q-1 1 -1 11v23q-3 1 -2 3t3 3h16q3 0 3 -3t-3 -3h-11l-1 -11h11q4 1 4 -3q0 -1 -2 -2q-5 -1 -12 -1v-14l12 1q6 0 3 -4q-2 -2 -4 -2q-1 0 -5.5 -0.5t-7.5 -0.5zM266 302q-3 0 -3 4q0 6 -1 18.5t-1 17.5q0 3 3 3t3 -3q0 -8 1 -19
t0 -16h12q-2 3 0 6q0 2 2 1.5t2 -2.5v-2v-3v-3q0 -2 -4 -2h-14zM293 302q-3 0 -3 4q1 7 0 20t-1 16t2.5 3t2.5 -3q0 -10 1 -20.5t1 -14.5h11v6q0 2 3 1l2 -2v-8q-1 -2 -4 -2h-15zM208 340q0 4 2 4q12 1 17 0q2 0 2 -3q0 -1 -2 -2q-1 -1 -4 1h-10q0 -12 1 -15h10q2 1 2 -1
q1 -3 -1 -4h-11v-15q0 -2 -3 -2.5t-3 2.5v35zM75 305q0 -4 -4 -2l-1 3q2 17 1 36q0 3 3 2q1 0 2 -2q12 -23 16 -29q-2 16 -2 29q2 1 5 1q0 -3 1 -16.5t0 -19.5q-2 -8 -6 -2q-2 3 -6.5 13t-7.5 14q1 -18 -1 -27zM147 231q-6 -1 -9 3.5t-3 11.5q0 3 2.5 3t2.5 -3q0 -5 2 -8
t6 -2t3.5 5.5t-4.5 8.5l-4.5 4.5t-4.5 6.5q-2 8 3 11t10 -3v3q1 2 4 -1v-10v-2l-3 1q-2 6 -4 7q-3 2 -5 0t0 -5l6 -6q6 -7 7 -13q2 -12 -9 -12zM61 233q-3 6 -6.5 20.5t-4.5 16.5t3 3l2 -1q2 -6 4 -17t4 -17h1q1 14 4 33q1 3 4 2l1 -3q0 -2 -2.5 -17t-3.5 -20q0 -4 -4 -2
q-1 0 -2 2zM84 230q-3 0 -3 3q-1 1 -1 11v23q-3 1 -2 3t3 3h16q3 0 3 -3t-3 -3h-12v-11h11q4 1 4 -3q0 -1 -2 -2q-5 -1 -12 -1v-14l12 1q6 0 3 -4q-2 -2 -4 -2q-1 0 -5.5 -0.5t-7.5 -0.5zM131 231q-5 1 -11 9.5t-7 9.5q0 -10 1 -18q0 -2 -3 -2t-3 2q0 32 -1 35
q-3 0 -3.5 2.5t2.5 3.5h7q16 0 17 -11q0 -7 -7 -9q-1 -1 -4 -1q7 -15 13 -16q2 0 1 -4q0 -2 -2 -1zM162 231q-2 0 -2 2.5t2 2.5h3v32l-4 -1q-3 0 -1 4q0 2 2 2h13q2 -2 1 -5h-5v-32h4q2 0 2 -2.5t-2 -2.5h-13zM191 231q-5 -1 -8.5 4.5t-3.5 13.5q0 15 6 21h1l2 1q1 4 4 1
q4 0 6 -5q6 -5 5 -20.5t-12 -15.5zM212 233q-1 -4 -4 -2l-1 3q2 17 1 36q0 3 3 2q1 0 2 -2q12 -23 16 -29q-2 16 -2 29q2 1 5 1q0 -3 1 -16.5t0 -19.5q-2 -8 -6 -2q-2 3 -6.5 13t-7.5 14q1 -18 -1 -27zM115 255q6 0 8.5 3t0 6.5t-8.5 3.5h-2v-13h2zM188 237q4 -3 7 0
q9 9 0 26q-3 7 -8 1q-4 -5 -3 -14.5t4 -12.5z" />
    <glyph glyph-name="bracketright" unicode="]" 
d="M332 451v-261h-319v261h319zM19 196h307v249h-307v-249zM87 377q-4 7 -7.5 21.5t-3.5 15.5q-1 2 3 3q1 1 2 -1q1 -3 3.5 -15t4.5 -19q2 23 5 33q0 3 4 2l1 -3q-2 -7 -3.5 -20t-2.5 -17q-1 -2 -3 -2.5t-3 2.5zM208 376q-5 1 -3 4l4 1q0 3 0.5 8t0.5 8q-3 0 -4 2q-2 3 2 3
h2l-1 10h-1q-2 0 -3 1q-1 3 2 4q21 0 22 -8q0 -7 -7 -9q3 0 6 -3q5 -4 3 -12t-10 -9q-4 -1 -7 0q-3 -5 -6 0zM56 377q-1 -4 -5 -2q-1 1 -1 3l3 13q-3 0 -3 2l2 2h2q2 4 5 19q4 6 6 1l5 -19h3q3 -1 2 -4q-1 -1 -3 -1h-1q1 -6 4 -12q1 -5 -3 -4q-1 0 -2 2t-2.5 7.5t-1.5 6.5
h-8zM106 377q0 -4 -4 -2q-2 0 -1 3q0 2 1 6t1 7q-2 0 -2 2t2 2h2q4 17 5 19t3 2.5t3 -1.5l5 -19h2q4 -1 2 -4l-2 -1h-1q1 -3 2 -7t1 -5q2 -5 -2 -4q-2 0 -3 2q-3 12 -3 14h-8zM130 375q-2 0 -2 2.5t2 2.5h4v32l-4 -1q-4 0 -2 4q0 2 2 2h4h6h3q2 -2 1 -5h-5v-32h4q1 -2 1 -5
h-14zM155 374q-3 0 -3 4q0 6 -1 18.5t-1 17.5q0 3 3 3t3 -3q0 -8 1 -19t0 -16h12q-1 2 -1 6q1 2 3 1.5t2 -2.5v-8q0 -2 -4 -2h-14zM183 377q-1 -4 -5 -2q-1 1 -1 3l3 13q-3 0 -3 2l2 2h2q1 2 3 9.5t3 9.5t2.5 2.5t2.5 -1.5l5 -19h3q3 -1 2 -4l-3 -1q1 -9 3 -12q1 -5 -3 -4
q-1 0 -2 2q-3 6 -3 14h-9zM241 374q-3 0 -3 4q0 6 -1 18.5t-1 17.5q0 3 3 3t3 -3q0 -8 1 -19t0 -16h12q-1 3 0 6q0 2 2 1.5t2 -2.5v-2v-3v-3q0 -2 -4 -2h-14zM268 374l-3 3v34q-3 1 -2.5 3t2.5 3h17q3 0 3 -3t-3 -3h-12v-11h10q4 1 4 -3q0 -1 -2 -2q-4 -1 -12 -1v-14l13 1
q5 0 2 -4q-1 -2 -3 -2t-6.5 -0.5t-7.5 -0.5zM218 402q3 1 4.5 3t0.5 4.5t-5 2.5h-4l1 -10h3zM65 396q0 1 -0.5 3t-1 4.5t-0.5 4.5h-1q0 -2 -1 -6.5t-1 -5.5h5zM116 396q-1 2 -3 12q0 -1 -1 -6t-2 -6h6zM192 396q0 1 -0.5 3t-1 4.5t-0.5 4.5h-1q0 -2 -1 -6.5t-1 -5.5h5z
M218 380q8 1 8.5 8t-6.5 9h-5l-1 -17h4zM140 304q2 4 0 13q-2 -1 -2 0q-2 0 -2 2t2 2h2v21q0 4 3 3q2 0 2 -2v-22h13q-1 8 -1 22q0 3 3 3q2 -1 2 -3q0 -8 1 -22t1 -15q0 -2 -2 -3q-3 -2 -3 2q0 8 -1 12h-12v-13q-2 -1 -6 0zM243 302q-9 1 -9 18q0 9 -1 22q0 5 4 3q2 0 2 -2
v-21q0 -14 5 -14q9 0 5 35q0 3 3 2l2 -3l1 -10q1 -10 0 -14q0 -16 -12 -16zM50 303q-2 0 -2 2.5t2 2.5h4v32l-4 -1q-2 0 -2 2.5t2 3.5h13q3 0 3 -2q2 -3 -2 -3h-5v-32h5q2 0 2 -2.5t-2 -2.5q-1 -1 -7 -0.5t-7 0.5zM121 304v36q-5 0 -8 -1q-3 0 -1 4q1 2 2 2h20q1 -2 -1 -6
h-7v-34q-2 -1 -5 -1zM175 302q-3 0 -3 3q-1 1 -1 11v23q-3 1 -2 3t3 3h16q3 0 3 -3t-3 -3h-11l-1 -11h11q4 1 4 -3q0 -1 -2 -2q-5 -1 -12 -1v-14l12 1q6 0 3 -4q-2 -2 -4 -2q-1 0 -5.5 -0.5t-7.5 -0.5zM266 302q-3 0 -3 4q0 6 -1 18.5t-1 17.5q0 3 3 3t3 -3q0 -8 1 -19
t0 -16h12q-2 3 0 6q0 2 2 1.5t2 -2.5v-2v-3v-3q0 -2 -4 -2h-14zM293 302q-3 0 -3 4q1 7 0 20t-1 16t2.5 3t2.5 -3q0 -10 1 -20.5t1 -14.5h11v6q0 2 3 1l2 -2v-8q-1 -2 -4 -2h-15zM208 340q0 4 2 4q12 1 17 0q2 0 2 -3q0 -1 -2 -2q-1 -1 -4 1h-10q0 -12 1 -15h10q2 1 2 -1
q1 -3 -1 -4h-11v-15q0 -2 -3 -2.5t-3 2.5v35zM75 305q0 -4 -4 -2l-1 3q2 17 1 36q0 3 3 2q1 0 2 -2q12 -23 16 -29q-2 16 -2 29q2 1 5 1q0 -3 1 -16.5t0 -19.5q-2 -8 -6 -2q-2 3 -6.5 13t-7.5 14q1 -18 -1 -27zM147 231q-6 -1 -9 3.5t-3 11.5q0 3 2.5 3t2.5 -3q0 -5 2 -8
t6 -2t3.5 5.5t-4.5 8.5l-4.5 4.5t-4.5 6.5q-2 8 3 11t10 -3v3q1 2 4 -1v-10v-2l-3 1q-2 6 -4 7q-3 2 -5 0t0 -5l6 -6q6 -7 7 -13q2 -12 -9 -12zM61 233q-3 6 -6.5 20.5t-4.5 16.5t3 3l2 -1q2 -6 4 -17t4 -17h1q1 14 4 33q1 3 4 2l1 -3q0 -2 -2.5 -17t-3.5 -20q0 -4 -4 -2
q-1 0 -2 2zM84 230q-3 0 -3 3q-1 1 -1 11v23q-3 1 -2 3t3 3h16q3 0 3 -3t-3 -3h-12v-11h11q4 1 4 -3q0 -1 -2 -2q-5 -1 -12 -1v-14l12 1q6 0 3 -4q-2 -2 -4 -2q-1 0 -5.5 -0.5t-7.5 -0.5zM131 231q-5 1 -11 9.5t-7 9.5q0 -10 1 -18q0 -2 -3 -2t-3 2q0 32 -1 35
q-3 0 -3.5 2.5t2.5 3.5h7q16 0 17 -11q0 -7 -7 -9q-1 -1 -4 -1q7 -15 13 -16q2 0 1 -4q0 -2 -2 -1zM162 231q-2 0 -2 2.5t2 2.5h3v32l-4 -1q-3 0 -1 4q0 2 2 2h13q2 -2 1 -5h-5v-32h4q2 0 2 -2.5t-2 -2.5h-13zM191 231q-5 -1 -8.5 4.5t-3.5 13.5q0 15 6 21h1l2 1q1 4 4 1
q4 0 6 -5q6 -5 5 -20.5t-12 -15.5zM212 233q-1 -4 -4 -2l-1 3q2 17 1 36q0 3 3 2q1 0 2 -2q12 -23 16 -29q-2 16 -2 29q2 1 5 1q0 -3 1 -16.5t0 -19.5q-2 -8 -6 -2q-2 3 -6.5 13t-7.5 14q1 -18 -1 -27zM115 255q6 0 8.5 3t0 6.5t-8.5 3.5h-2v-13h2zM188 237q4 -3 7 0
q9 9 0 26q-3 7 -8 1q-4 -5 -3 -14.5t4 -12.5z" />
    <glyph glyph-name="asciicircum" unicode="^" 
d="M332 451v-261h-319v261h319zM19 196h307v249h-307v-249zM87 377q-4 7 -7.5 21.5t-3.5 15.5q-1 2 3 3q1 1 2 -1q1 -3 3.5 -15t4.5 -19q2 23 5 33q0 3 4 2l1 -3q-2 -7 -3.5 -20t-2.5 -17q-1 -2 -3 -2.5t-3 2.5zM208 376q-5 1 -3 4l4 1q0 3 0.5 8t0.5 8q-3 0 -4 2q-2 3 2 3
h2l-1 10h-1q-2 0 -3 1q-1 3 2 4q21 0 22 -8q0 -7 -7 -9q3 0 6 -3q5 -4 3 -12t-10 -9q-4 -1 -7 0q-3 -5 -6 0zM56 377q-1 -4 -5 -2q-1 1 -1 3l3 13q-3 0 -3 2l2 2h2q2 4 5 19q4 6 6 1l5 -19h3q3 -1 2 -4q-1 -1 -3 -1h-1q1 -6 4 -12q1 -5 -3 -4q-1 0 -2 2t-2.5 7.5t-1.5 6.5
h-8zM106 377q0 -4 -4 -2q-2 0 -1 3q0 2 1 6t1 7q-2 0 -2 2t2 2h2q4 17 5 19t3 2.5t3 -1.5l5 -19h2q4 -1 2 -4l-2 -1h-1q1 -3 2 -7t1 -5q2 -5 -2 -4q-2 0 -3 2q-3 12 -3 14h-8zM130 375q-2 0 -2 2.5t2 2.5h4v32l-4 -1q-4 0 -2 4q0 2 2 2h4h6h3q2 -2 1 -5h-5v-32h4q1 -2 1 -5
h-14zM155 374q-3 0 -3 4q0 6 -1 18.5t-1 17.5q0 3 3 3t3 -3q0 -8 1 -19t0 -16h12q-1 2 -1 6q1 2 3 1.5t2 -2.5v-8q0 -2 -4 -2h-14zM183 377q-1 -4 -5 -2q-1 1 -1 3l3 13q-3 0 -3 2l2 2h2q1 2 3 9.5t3 9.5t2.5 2.5t2.5 -1.5l5 -19h3q3 -1 2 -4l-3 -1q1 -9 3 -12q1 -5 -3 -4
q-1 0 -2 2q-3 6 -3 14h-9zM241 374q-3 0 -3 4q0 6 -1 18.5t-1 17.5q0 3 3 3t3 -3q0 -8 1 -19t0 -16h12q-1 3 0 6q0 2 2 1.5t2 -2.5v-2v-3v-3q0 -2 -4 -2h-14zM268 374l-3 3v34q-3 1 -2.5 3t2.5 3h17q3 0 3 -3t-3 -3h-12v-11h10q4 1 4 -3q0 -1 -2 -2q-4 -1 -12 -1v-14l13 1
q5 0 2 -4q-1 -2 -3 -2t-6.5 -0.5t-7.5 -0.5zM218 402q3 1 4.5 3t0.5 4.5t-5 2.5h-4l1 -10h3zM65 396q0 1 -0.5 3t-1 4.5t-0.5 4.5h-1q0 -2 -1 -6.5t-1 -5.5h5zM116 396q-1 2 -3 12q0 -1 -1 -6t-2 -6h6zM192 396q0 1 -0.5 3t-1 4.5t-0.5 4.5h-1q0 -2 -1 -6.5t-1 -5.5h5z
M218 380q8 1 8.5 8t-6.5 9h-5l-1 -17h4zM140 304q2 4 0 13q-2 -1 -2 0q-2 0 -2 2t2 2h2v21q0 4 3 3q2 0 2 -2v-22h13q-1 8 -1 22q0 3 3 3q2 -1 2 -3q0 -8 1 -22t1 -15q0 -2 -2 -3q-3 -2 -3 2q0 8 -1 12h-12v-13q-2 -1 -6 0zM243 302q-9 1 -9 18q0 9 -1 22q0 5 4 3q2 0 2 -2
v-21q0 -14 5 -14q9 0 5 35q0 3 3 2l2 -3l1 -10q1 -10 0 -14q0 -16 -12 -16zM50 303q-2 0 -2 2.5t2 2.5h4v32l-4 -1q-2 0 -2 2.5t2 3.5h13q3 0 3 -2q2 -3 -2 -3h-5v-32h5q2 0 2 -2.5t-2 -2.5q-1 -1 -7 -0.5t-7 0.5zM121 304v36q-5 0 -8 -1q-3 0 -1 4q1 2 2 2h20q1 -2 -1 -6
h-7v-34q-2 -1 -5 -1zM175 302q-3 0 -3 3q-1 1 -1 11v23q-3 1 -2 3t3 3h16q3 0 3 -3t-3 -3h-11l-1 -11h11q4 1 4 -3q0 -1 -2 -2q-5 -1 -12 -1v-14l12 1q6 0 3 -4q-2 -2 -4 -2q-1 0 -5.5 -0.5t-7.5 -0.5zM266 302q-3 0 -3 4q0 6 -1 18.5t-1 17.5q0 3 3 3t3 -3q0 -8 1 -19
t0 -16h12q-2 3 0 6q0 2 2 1.5t2 -2.5v-2v-3v-3q0 -2 -4 -2h-14zM293 302q-3 0 -3 4q1 7 0 20t-1 16t2.5 3t2.5 -3q0 -10 1 -20.5t1 -14.5h11v6q0 2 3 1l2 -2v-8q-1 -2 -4 -2h-15zM208 340q0 4 2 4q12 1 17 0q2 0 2 -3q0 -1 -2 -2q-1 -1 -4 1h-10q0 -12 1 -15h10q2 1 2 -1
q1 -3 -1 -4h-11v-15q0 -2 -3 -2.5t-3 2.5v35zM75 305q0 -4 -4 -2l-1 3q2 17 1 36q0 3 3 2q1 0 2 -2q12 -23 16 -29q-2 16 -2 29q2 1 5 1q0 -3 1 -16.5t0 -19.5q-2 -8 -6 -2q-2 3 -6.5 13t-7.5 14q1 -18 -1 -27zM147 231q-6 -1 -9 3.5t-3 11.5q0 3 2.5 3t2.5 -3q0 -5 2 -8
t6 -2t3.5 5.5t-4.5 8.5l-4.5 4.5t-4.5 6.5q-2 8 3 11t10 -3v3q1 2 4 -1v-10v-2l-3 1q-2 6 -4 7q-3 2 -5 0t0 -5l6 -6q6 -7 7 -13q2 -12 -9 -12zM61 233q-3 6 -6.5 20.5t-4.5 16.5t3 3l2 -1q2 -6 4 -17t4 -17h1q1 14 4 33q1 3 4 2l1 -3q0 -2 -2.5 -17t-3.5 -20q0 -4 -4 -2
q-1 0 -2 2zM84 230q-3 0 -3 3q-1 1 -1 11v23q-3 1 -2 3t3 3h16q3 0 3 -3t-3 -3h-12v-11h11q4 1 4 -3q0 -1 -2 -2q-5 -1 -12 -1v-14l12 1q6 0 3 -4q-2 -2 -4 -2q-1 0 -5.5 -0.5t-7.5 -0.5zM131 231q-5 1 -11 9.5t-7 9.5q0 -10 1 -18q0 -2 -3 -2t-3 2q0 32 -1 35
q-3 0 -3.5 2.5t2.5 3.5h7q16 0 17 -11q0 -7 -7 -9q-1 -1 -4 -1q7 -15 13 -16q2 0 1 -4q0 -2 -2 -1zM162 231q-2 0 -2 2.5t2 2.5h3v32l-4 -1q-3 0 -1 4q0 2 2 2h13q2 -2 1 -5h-5v-32h4q2 0 2 -2.5t-2 -2.5h-13zM191 231q-5 -1 -8.5 4.5t-3.5 13.5q0 15 6 21h1l2 1q1 4 4 1
q4 0 6 -5q6 -5 5 -20.5t-12 -15.5zM212 233q-1 -4 -4 -2l-1 3q2 17 1 36q0 3 3 2q1 0 2 -2q12 -23 16 -29q-2 16 -2 29q2 1 5 1q0 -3 1 -16.5t0 -19.5q-2 -8 -6 -2q-2 3 -6.5 13t-7.5 14q1 -18 -1 -27zM115 255q6 0 8.5 3t0 6.5t-8.5 3.5h-2v-13h2zM188 237q4 -3 7 0
q9 9 0 26q-3 7 -8 1q-4 -5 -3 -14.5t4 -12.5z" />
    <glyph glyph-name="underscore" unicode="_" 
d="M332 451v-261h-319v261h319zM19 196h307v249h-307v-249zM87 377q-4 7 -7.5 21.5t-3.5 15.5q-1 2 3 3q1 1 2 -1q1 -3 3.5 -15t4.5 -19q2 23 5 33q0 3 4 2l1 -3q-2 -7 -3.5 -20t-2.5 -17q-1 -2 -3 -2.5t-3 2.5zM208 376q-5 1 -3 4l4 1q0 3 0.5 8t0.5 8q-3 0 -4 2q-2 3 2 3
h2l-1 10h-1q-2 0 -3 1q-1 3 2 4q21 0 22 -8q0 -7 -7 -9q3 0 6 -3q5 -4 3 -12t-10 -9q-4 -1 -7 0q-3 -5 -6 0zM56 377q-1 -4 -5 -2q-1 1 -1 3l3 13q-3 0 -3 2l2 2h2q2 4 5 19q4 6 6 1l5 -19h3q3 -1 2 -4q-1 -1 -3 -1h-1q1 -6 4 -12q1 -5 -3 -4q-1 0 -2 2t-2.5 7.5t-1.5 6.5
h-8zM106 377q0 -4 -4 -2q-2 0 -1 3q0 2 1 6t1 7q-2 0 -2 2t2 2h2q4 17 5 19t3 2.5t3 -1.5l5 -19h2q4 -1 2 -4l-2 -1h-1q1 -3 2 -7t1 -5q2 -5 -2 -4q-2 0 -3 2q-3 12 -3 14h-8zM130 375q-2 0 -2 2.5t2 2.5h4v32l-4 -1q-4 0 -2 4q0 2 2 2h4h6h3q2 -2 1 -5h-5v-32h4q1 -2 1 -5
h-14zM155 374q-3 0 -3 4q0 6 -1 18.5t-1 17.5q0 3 3 3t3 -3q0 -8 1 -19t0 -16h12q-1 2 -1 6q1 2 3 1.5t2 -2.5v-8q0 -2 -4 -2h-14zM183 377q-1 -4 -5 -2q-1 1 -1 3l3 13q-3 0 -3 2l2 2h2q1 2 3 9.5t3 9.5t2.5 2.5t2.5 -1.5l5 -19h3q3 -1 2 -4l-3 -1q1 -9 3 -12q1 -5 -3 -4
q-1 0 -2 2q-3 6 -3 14h-9zM241 374q-3 0 -3 4q0 6 -1 18.5t-1 17.5q0 3 3 3t3 -3q0 -8 1 -19t0 -16h12q-1 3 0 6q0 2 2 1.5t2 -2.5v-2v-3v-3q0 -2 -4 -2h-14zM268 374l-3 3v34q-3 1 -2.5 3t2.5 3h17q3 0 3 -3t-3 -3h-12v-11h10q4 1 4 -3q0 -1 -2 -2q-4 -1 -12 -1v-14l13 1
q5 0 2 -4q-1 -2 -3 -2t-6.5 -0.5t-7.5 -0.5zM218 402q3 1 4.5 3t0.5 4.5t-5 2.5h-4l1 -10h3zM65 396q0 1 -0.5 3t-1 4.5t-0.5 4.5h-1q0 -2 -1 -6.5t-1 -5.5h5zM116 396q-1 2 -3 12q0 -1 -1 -6t-2 -6h6zM192 396q0 1 -0.5 3t-1 4.5t-0.5 4.5h-1q0 -2 -1 -6.5t-1 -5.5h5z
M218 380q8 1 8.5 8t-6.5 9h-5l-1 -17h4zM140 304q2 4 0 13q-2 -1 -2 0q-2 0 -2 2t2 2h2v21q0 4 3 3q2 0 2 -2v-22h13q-1 8 -1 22q0 3 3 3q2 -1 2 -3q0 -8 1 -22t1 -15q0 -2 -2 -3q-3 -2 -3 2q0 8 -1 12h-12v-13q-2 -1 -6 0zM243 302q-9 1 -9 18q0 9 -1 22q0 5 4 3q2 0 2 -2
v-21q0 -14 5 -14q9 0 5 35q0 3 3 2l2 -3l1 -10q1 -10 0 -14q0 -16 -12 -16zM50 303q-2 0 -2 2.5t2 2.5h4v32l-4 -1q-2 0 -2 2.5t2 3.5h13q3 0 3 -2q2 -3 -2 -3h-5v-32h5q2 0 2 -2.5t-2 -2.5q-1 -1 -7 -0.5t-7 0.5zM121 304v36q-5 0 -8 -1q-3 0 -1 4q1 2 2 2h20q1 -2 -1 -6
h-7v-34q-2 -1 -5 -1zM175 302q-3 0 -3 3q-1 1 -1 11v23q-3 1 -2 3t3 3h16q3 0 3 -3t-3 -3h-11l-1 -11h11q4 1 4 -3q0 -1 -2 -2q-5 -1 -12 -1v-14l12 1q6 0 3 -4q-2 -2 -4 -2q-1 0 -5.5 -0.5t-7.5 -0.5zM266 302q-3 0 -3 4q0 6 -1 18.5t-1 17.5q0 3 3 3t3 -3q0 -8 1 -19
t0 -16h12q-2 3 0 6q0 2 2 1.5t2 -2.5v-2v-3v-3q0 -2 -4 -2h-14zM293 302q-3 0 -3 4q1 7 0 20t-1 16t2.5 3t2.5 -3q0 -10 1 -20.5t1 -14.5h11v6q0 2 3 1l2 -2v-8q-1 -2 -4 -2h-15zM208 340q0 4 2 4q12 1 17 0q2 0 2 -3q0 -1 -2 -2q-1 -1 -4 1h-10q0 -12 1 -15h10q2 1 2 -1
q1 -3 -1 -4h-11v-15q0 -2 -3 -2.5t-3 2.5v35zM75 305q0 -4 -4 -2l-1 3q2 17 1 36q0 3 3 2q1 0 2 -2q12 -23 16 -29q-2 16 -2 29q2 1 5 1q0 -3 1 -16.5t0 -19.5q-2 -8 -6 -2q-2 3 -6.5 13t-7.5 14q1 -18 -1 -27zM147 231q-6 -1 -9 3.5t-3 11.5q0 3 2.5 3t2.5 -3q0 -5 2 -8
t6 -2t3.5 5.5t-4.5 8.5l-4.5 4.5t-4.5 6.5q-2 8 3 11t10 -3v3q1 2 4 -1v-10v-2l-3 1q-2 6 -4 7q-3 2 -5 0t0 -5l6 -6q6 -7 7 -13q2 -12 -9 -12zM61 233q-3 6 -6.5 20.5t-4.5 16.5t3 3l2 -1q2 -6 4 -17t4 -17h1q1 14 4 33q1 3 4 2l1 -3q0 -2 -2.5 -17t-3.5 -20q0 -4 -4 -2
q-1 0 -2 2zM84 230q-3 0 -3 3q-1 1 -1 11v23q-3 1 -2 3t3 3h16q3 0 3 -3t-3 -3h-12v-11h11q4 1 4 -3q0 -1 -2 -2q-5 -1 -12 -1v-14l12 1q6 0 3 -4q-2 -2 -4 -2q-1 0 -5.5 -0.5t-7.5 -0.5zM131 231q-5 1 -11 9.5t-7 9.5q0 -10 1 -18q0 -2 -3 -2t-3 2q0 32 -1 35
q-3 0 -3.5 2.5t2.5 3.5h7q16 0 17 -11q0 -7 -7 -9q-1 -1 -4 -1q7 -15 13 -16q2 0 1 -4q0 -2 -2 -1zM162 231q-2 0 -2 2.5t2 2.5h3v32l-4 -1q-3 0 -1 4q0 2 2 2h13q2 -2 1 -5h-5v-32h4q2 0 2 -2.5t-2 -2.5h-13zM191 231q-5 -1 -8.5 4.5t-3.5 13.5q0 15 6 21h1l2 1q1 4 4 1
q4 0 6 -5q6 -5 5 -20.5t-12 -15.5zM212 233q-1 -4 -4 -2l-1 3q2 17 1 36q0 3 3 2q1 0 2 -2q12 -23 16 -29q-2 16 -2 29q2 1 5 1q0 -3 1 -16.5t0 -19.5q-2 -8 -6 -2q-2 3 -6.5 13t-7.5 14q1 -18 -1 -27zM115 255q6 0 8.5 3t0 6.5t-8.5 3.5h-2v-13h2zM188 237q4 -3 7 0
q9 9 0 26q-3 7 -8 1q-4 -5 -3 -14.5t4 -12.5z" />
    <glyph glyph-name="grave" unicode="`" horiz-adv-x="157" 
d="M103 771q7 -7 -1 -12q-7 -3 -14 4l-44 47q-3 4 0 9.5t8.5 6t9.5 -4.5z" />
    <glyph glyph-name="a" unicode="a" horiz-adv-x="251" 
d="M96 624q0 16 12 15q14 -2 19 -19q22 -95 49 -275l6 -45q6 0 17 -0.5t16 -0.5q11 0 13 -9q-1 -8 -10 -9h-32q3 -22 7.5 -66.5t8 -71t9.5 -64t13 -69.5q1 -5 -4.5 -9.5t-12.5 -3.5t-8 8q-8 33 -14 71.5t-9.5 64.5t-8.5 71.5t-8 68.5q-55 2 -94 -2q-19 -130 -28 -271
q-1 -12 -13 -9q-10 3 -10 15q0 88 27 283q22 147 55 327zM111 591q-10 -54 -23 -152.5t-20 -138.5q20 2 89 2l-3 23q-7 60 -43 266z" />
    <glyph glyph-name="b" unicode="b" horiz-adv-x="310" 
d="M59 634q168 18 168 -102q0 -41 -23 -75t-61 -49q32 -4 58.5 -26t40.5 -51q48 -97 3 -214q-21 -55 -59 -88.5t-89 -25.5q-5 -5 -12.5 -4t-8.5 8q-16 6 -24 11q-10 6 -5 18q4 8 12 3t19 -9q21 173 18 364q-20 0 -23 13q-3 12 13 14q2 0 4.5 0.5t5.5 0.5q-3 93 -12 190
q-16 -2 -22 -2t-9 5.5t-1.5 12t7.5 6.5zM109 613q9 -93 12 -192q37 13 59 43.5t22 72.5q0 43 -24.5 59.5t-68.5 16.5zM121 392q3 -177 -20 -366q47 -6 80 31q43 46 55.5 120t-15.5 140q-25 58 -100 75z" />
    <glyph glyph-name="c" unicode="c" horiz-adv-x="281" 
d="M134 638q10 0 19 -7t16 -20.5t13 -27t11.5 -32.5t8.5 -31t7 -29t5 -20q3 -10 -9 -11t-15 8q-38 143 -58 141q-13 0 -23.5 -52t-15.5 -130q-7 -135 0 -258q0 -3 0.5 -14.5t1 -16t1 -16t1.5 -17.5t3 -16.5t4 -17t5 -14.5t7 -14.5t9 -11.5q14 -13 25 -12t18.5 15.5t12 28.5
t5.5 26q3 23 4 64.5t2 56.5q0 7 6.5 8.5t12.5 -1.5t6 -9q-1 -15 -2 -57t-4 -64q-8 -73 -41 -84q-14 -2 -25 -4t-20.5 5t-16.5 13t-13 19t-10 22.5t-7 25t-4.5 26.5t-3 25.5t-2 23t-0.5 18.5q-2 53 -2.5 100t2.5 145t20 157t46 59z" />
    <glyph glyph-name="d" unicode="d" horiz-adv-x="305" 
d="M54 635q39 7 71 -8t51 -43.5t32 -66t18.5 -72t5.5 -66.5q6 -342 -154 -380q-4 -1 -8 0.5t-4 3.5q-1 2 -1 6q0 26 2.5 145.5t2.5 166t-2.5 134t-8.5 160.5q-2 0 -5 -0.5t-4 -0.5q-10 -2 -9 6q2 11 13 15zM83 615q5 -58 7.5 -116t2.5 -125.5v-109.5t-2 -125.5t-2 -116.5
q122 47 119 353q0 33 -6.5 69t-20 75t-39 65.5t-59.5 30.5z" />
    <glyph glyph-name="e" unicode="e" horiz-adv-x="225" 
d="M173 636q8 0 11 -5t-0.5 -10.5t-10.5 -5.5q-5 -3 -53 -1l-49 1q1 -22 1 -253q46 1 93 9q10 1 10 -7q-2 -11 -13 -14q-60 -8 -91 -9q0 -6 0.5 -20.5t0.5 -21.5q5 -114 4 -141q0 -101 7 -136q17 0 52.5 9t54.5 8q12 -1 8 -13q-4 -11 -14 -10q-20 1 -57 -8t-57 -8
q-8 0 -10 6q-9 36 -13 291q-1 49 0 160t-2 160q-18 -4 -21 5q-3 10 13 13q2 1 4 1q19 4 66 1.5t66 -1.5z" />
    <glyph glyph-name="f" unicode="f" horiz-adv-x="175" 
d="M21 637q41 6 120 0q13 -2 9 -14q-4 -10 -15 -9q-67 6 -100 2q-3 -17 -3.5 -36t0 -31.5t2.5 -35.5t3 -34q1 -13 1.5 -28.5t1 -35t0.5 -29.5q32 2 92 -2q14 -1 5 -13q-7 -7 -14 -8q-56 4 -83 3q0 -5 2.5 -71t5 -152t3.5 -131q0 -6 -6.5 -9t-13 -0.5t-6.5 8.5q-1 63 -5 178
t-5 153q-1 13 -2 68.5t-3 85.5q-7 77 -1 129q1 9 12 12z" />
    <glyph glyph-name="g" unicode="g" horiz-adv-x="237" 
d="M111 640q45 0 63 -170q1 -10 -13 -8q-10 3 -12 10q-9 74 -16 98q-7 27 -13.5 37.5t-12.5 5t-11.5 -18t-11.5 -35.5q-35 -123 -25 -341q4 -126 28 -165q11 -19 25.5 -27t25.5 8q20 38 22 123q1 16 1 49.5t1 50.5q-44 -2 -49 -2q-13 0 -10 11q3 10 13 10q14 0 28.5 1
t28.5 1q16 0 16 -20q-1 -23 -2 -60.5t-3 -63t-7 -55.5q-4 -25 -16 -49.5t-26 -26.5q-23 -4 -43.5 8.5t-29.5 33.5q-21 46 -25 142q-7 108 -4 176q4 109 19 177q24 100 59 100z" />
    <glyph glyph-name="h" unicode="h" horiz-adv-x="287" 
d="M77 629q-1 12 10 10t12 -13q8 -139 8 -287q62 -2 94 -2q1 55 -4.5 147.5t-5.5 141.5q0 13 12 10q10 -4 11 -13q0 -51 5.5 -147.5t4.5 -156.5q-3 -202 1 -309q1 -12 -10.5 -9.5t-11.5 12.5q-2 50 -2 304q-32 0 -94 2q0 -33 2 -151t-1 -156q0 -8 -5.5 -10.5t-11 1.5
t-5.5 11q4 26 1 155.5t-3 149.5h-22q-21 0 -20 8q2 10 25 12h17q1 141 -7 290z" />
    <glyph glyph-name="i" unicode="i" horiz-adv-x="172" 
d="M34 641q51 3 108 -2q13 -1 5 -13q-6 -10 -14 -9l-33 1q11 -129 11.5 -298.5t-4.5 -298.5q12 0 36 -2q13 -1 5 -13q-6 -10 -14 -9q-10 1 -47 2t-48 0q-12 -1 -9.5 10t12.5 12q14 1 39 1q0 22 2.5 140.5t2.5 165.5t-2 134.5t-8 156.5q-31 0 -46 -1q-12 -1 -9 12q3 10 13 11
z" />
    <glyph glyph-name="j" unicode="j" horiz-adv-x="209" 
d="M128 631q-1 10 14 8q12 -3 13 -11q0 -19 2.5 -153.5t1.5 -197.5q0 -68 -8 -143q-7 -59 -13 -79q-11 -39 -36 -52q-14 -7 -31.5 -4.5t-29.5 12.5q-11 10 -18.5 22.5t-11 33.5t-4.5 29t-1 36v29q0 6 6 8t11.5 -1.5t5.5 -9.5q3 -64 4 -72q9 -57 37 -64q16 -4 26.5 3t16 28.5
t7 30t3.5 32.5q1 6 1 8q8 72 9 153.5t-2 199.5t-3 154z" />
    <glyph glyph-name="k" unicode="k" horiz-adv-x="248" 
d="M55 677q15 -94 22 -317q70 139 80 266q2 11 15 11q10 0 9 -10q-10 -124 -64 -242q79 -228 106 -374q1 -8 -4 -11.5t-11.5 -1.5t-7.5 10q-25 139 -101 358q-14 -26 -22 -38q1 -2 0.5 -158.5t-0.5 -158.5q0 -6 -5.5 -9.5t-11 -0.5t-5.5 12q0 36 1 154.5t0.5 179t-6 154.5
t-17.5 166q-2 11 11 16q9 4 11 -6z" />
    <glyph glyph-name="l" unicode="l" horiz-adv-x="238" 
d="M87 626q-5 -94 3 -299t-4 -300q12 -1 44 -2.5t51 -3.5q5 21 4.5 45t0.5 44q1 5 7 6.5t11.5 -1.5t5.5 -10q-2 -15 -2 -47t-7 -55q-1 -6 -12 -6q-48 4 -108 4q-10 0 -15.5 6t-4.5 15q12 94 5 302.5t-2 301.5q0 8 6 11t11.5 0t5.5 -11z" />
    <glyph glyph-name="m" unicode="m" horiz-adv-x="315" 
d="M220 637q3 -28 10 -173t17.5 -276t25.5 -177q4 -10 -9 -12q-11 -2 -14 7q-34 99 -42 321q0 15 -1 116t-4 130q-2 -21 -21 -241.5t-32 -312.5q-1 -6 -7.5 -10t-13 -2t-6.5 10q0 61 -11 157q-3 30 -6.5 74t-5.5 64q-5 40 -14.5 148t-13.5 147q-4 -64 -6 -276.5t-15 -317.5
q-2 -12 -15 -13q-10 -1 -10 9v2q11 102 14 309.5t16 317.5q1 12 13.5 12t14.5 -11q9 -43 15 -94t13.5 -130.5t9.5 -100.5q7 -62 16 -256l1 10q36 487 54 567q3 12 18 12q10 1 9 -10z" />
    <glyph glyph-name="n" unicode="n" horiz-adv-x="231" 
d="M45 632q15 -69 32 -134t29 -119t24 -136q1 -9 9.5 -80t14.5 -102q4 79 1 363q-3 191 -3 192q1 16 14 19q10 3 11 -9v-5q-1 -17 0 -111t1 -112q2 -249 -11 -399q-1 -10 -13 -12q-10 0 -10 8q0 14 -5.5 50.5t-15.5 94t-15 97.5q-10 70 -16 106.5t-10 54.5t-16 66.5
t-25 104.5q1 -40 1 -155t2 -175q6 -213 6 -225q0 -10 -11 -13t-11 8q-2 40 -4 116t-3 116q-2 63 1 194.5t0 195.5q0 7 10.5 9t12.5 -8z" />
    <glyph glyph-name="o" unicode="o" horiz-adv-x="255" 
d="M100 645q112 -65 107 -376q-2 -107 -20 -183.5t-57 -85.5q-15 -4 -30 4q-41 20 -58.5 139.5t-4.5 261.5t51 222q-7 7 -3 13t15 5zM105 611q-16 -35 -29 -101q-23 -124 -17 -286q8 -146 43 -192q30 -39 52 32q25 82 28 213q2 104 -16.5 197t-60.5 137z" />
    <glyph glyph-name="p" unicode="p" horiz-adv-x="236" 
d="M42 635q80 14 126 -45q38 -48 39 -136t-38 -160t-103 -74q-10 -131 5 -201q5 -20 -7 -19q-12 2 -16 16q-13 77 -7 209q-15 0 -16 12q0 11 13 10q2 0 4 -1q0 1 2 42.5t3.5 84t2.5 93.5t-1 91t-7 57q-5 0 -8 4.5t-1 10t9 6.5zM63 615q7 -14 10.5 -53.5t2.5 -90t-2.5 -95
t-4 -86.5t-2.5 -46q49 4 81 64.5t33 135.5q1 73 -30 122.5t-88 48.5z" />
    <glyph glyph-name="q" unicode="q" horiz-adv-x="293" 
d="M66 606q11 20 19.5 26t19 0t26.5 -27q41 -58 58 -164q9 -55 9 -157v-23.5v-25.5v-23.5t-0.5 -25t-1.5 -23t-2.5 -25t-3 -23t-4.5 -25t-6 -23.5q8 -11 24.5 -33.5t25.5 -33.5q4 -5 0.5 -10t-9.5 -5.5t-10 3.5q-7 9 -20 26.5t-20 26.5q-13 -28 -32 -37q-18 -8 -35.5 0
t-27.5 25q-7 11 -12.5 26t-9 28.5t-7 33.5t-5 32.5t-3 35.5t-2 32t-1.5 32.5t-1 27.5q-13 250 31 329zM94 608q-9 -15 -15.5 -31t-11 -35t-7.5 -33t-4.5 -36.5t-2 -34t0 -37t1 -33t2 -35t1.5 -31.5q0 -7 2 -46.5t3.5 -60.5t5.5 -54t11 -57.5t17 -40.5q13 -20 25 -20
t19.5 11.5t13.5 28.5l-36 47q-4 5 -0.5 10t9.5 5.5t10 -3.5l24 -31q16 89 9 256q-7 183 -77 261z" />
    <glyph glyph-name="r" unicode="r" horiz-adv-x="243" 
d="M46 636q70 -5 107 -54t34 -116q-2 -51 -28 -93.5t-58 -53.5q54 -102 118 -302q4 -11 -9 -17q-10 -4 -13 6q-70 218 -120 305q-20 -2 -40 5q2 -58 6.5 -160.5t6.5 -142.5q0 -10 -13 -13q-11 -1 -11 8q-2 44 -6.5 147t-6.5 157.5t-2 138.5t4 156q-4 14 6.5 21.5t24.5 7.5z
M39 610q-7 -114 -3 -273q37 -16 80 21t45 109q2 56 -32.5 100t-89.5 43z" />
    <glyph glyph-name="s" unicode="s" horiz-adv-x="247" 
d="M68 639q28 3 52.5 -24.5t41.5 -70.5v74q0 11 11 15q8 1 9 -6q2 -77 -3 -153q-1 -9 -6 -12t-9.5 0.5t-4.5 9.5q-1 32 -22.5 77.5t-44.5 59.5q-13 7 -24.5 0t-13.5 -24q-6 -48 60 -182.5t74 -175.5q19 -77 5 -147t-60 -79q-22 -5 -42 10t-29 36q-41 92 -21 243
q1 8 7.5 10.5t12 -0.5t4.5 -11q-8 -71 -1 -135q11 -97 40 -122q23 -19 39.5 -0.5t21.5 47.5q13 66 -5 147q-14 62 -62.5 151t-63.5 152q-10 40 -1.5 73t35.5 37z" />
    <glyph glyph-name="t" unicode="t" horiz-adv-x="224" 
d="M14 640q31 0 94 -1t95 0q14 0 8 -13q-4 -11 -13 -11h-82q9 -91 10.5 -186t-1 -229.5t-2.5 -187.5q0 -6 -6.5 -9t-13 -2t-6.5 7q0 40 3 185t1 237.5t-11 185.5h-81q-14 0 -8 13q4 11 13 11z" />
    <glyph glyph-name="u" unicode="u" horiz-adv-x="233" 
d="M152 626q0 8 6 10.5t11.5 -1t5.5 -10.5q-1 -47 4 -135t9.5 -161.5t2 -152t-14.5 -122.5q-7 -25 -22.5 -43t-36.5 -10q-23 9 -38.5 35.5t-21 65t-7.5 67t-2 62.5v6v4.5v4.5q-6 256 -8 381q-1 12 11 13q9 -1 10 -10q1 -32 5 -170.5t5 -213.5v-28v-34t1 -32t3.5 -35.5t7 -30
t11.5 -30t16 -22.5q9 -8 15.5 -9.5t11 4t7.5 12t7 17.5q13 40 15.5 118.5t-2 153.5t-9 164t-3.5 132z" />
    <glyph glyph-name="v" unicode="v" horiz-adv-x="245" 
d="M52 630q5 -41 20.5 -254.5t40.5 -327.5q2 27 16.5 247t29.5 334q1 6 7.5 8.5t12.5 0t5 -9.5q-14 -110 -30 -317.5t-25 -293.5q-1 -11 -7.5 -15.5t-13 -0.5t-8.5 14q-23 89 -35 190t-21 228t-17 195q-1 6 5 8.5t13 0.5t7 -7z" />
    <glyph glyph-name="w" unicode="w" horiz-adv-x="323" 
d="M43 632q43 -224 61 -528q7 119 26.5 287t23.5 220q1 11 12 12q9 1 9 -8v-2q-7 -55 4 -155t28.5 -216t21.5 -160q3 47 8 169t10.5 208t15.5 168q1 7 7 9.5t11.5 -1t4.5 -11.5q-12 -99 -22.5 -302t-25.5 -315q-2 -14 -13 -9q-9 4 -9 14q-5 78 -31 245.5t-26 246.5
q-3 -26 -12.5 -115t-14 -134.5t-9.5 -114.5t-6 -121q0 -11 -6.5 -17.5t-13 -2t-6.5 18.5q0 69 -20 253t-47 350q-2 12 10 16q8 3 9 -5z" />
    <glyph glyph-name="x" unicode="x" horiz-adv-x="236" 
d="M177 630q-3 -18 -53 -268q6 -23 20 -83.5t22 -92t22 -79.5t28 -87q2 -6 -3 -10.5t-11.5 -4.5t-8.5 6q-40 106 -81 316q-47 -217 -84 -317q-4 -11 -17 -10q-11 1 -7 11q49 130 94 351q-35 141 -92 264q-3 6 1.5 10.5t11.5 4t9 -5.5q53 -115 81 -235q38 194 43 225
q2 12 16 13q9 -1 9 -8z" />
    <glyph glyph-name="y" unicode="y" horiz-adv-x="259" 
d="M161 631q0 6 7 8.5t13 0t6 -8.5q-2 -227 -7 -389q13 -1 17 -7t-1.5 -11.5t-16.5 -4.5q-1 -10 -6 -52t-8 -57t-10 -43t-16.5 -42t-23.5 -21q-35 -16 -61 8q-25 23 -29.5 71t0.5 81q0 6 5.5 7.5t11.5 -1.5t6 -9v-73q6 -62 32 -68q16 -4 27.5 4.5t18 26t9.5 32.5t6 33
q1 6 1 8q8 61 10 96q-36 5 -70 131q-17 64 -57 274q-2 10 10 14q11 4 13 -6q28 -157 48 -239q1 -3 5 -20.5t7.5 -29.5t9 -31t11 -31t12 -23t13.5 -14q4 70 4.5 205t2.5 181z" />
    <glyph glyph-name="z" unicode="z" horiz-adv-x="215" 
d="M36 640q24 0 63 -2t64 -2q9 0 6 -12q-1 -1 -1 -1.5v-1.5q-10 -49 -34 -185.5t-46 -227t-54 -179.5q53 -5 144 2q11 1 7 -14q-3 -11 -11 -12q-109 -8 -163 0q-13 1 -6 19q25 69 46 150t32.5 138t29 154t27.5 147q-22 0 -55.5 2t-50.5 2q-8 0 -10.5 5.5t1 11.5t11.5 6z" />
    <glyph glyph-name="braceleft" unicode="{" 
d="M332 451v-261h-319v261h319zM19 196h307v249h-307v-249zM87 377q-4 7 -7.5 21.5t-3.5 15.5q-1 2 3 3q1 1 2 -1q1 -3 3.5 -15t4.5 -19q2 23 5 33q0 3 4 2l1 -3q-2 -7 -3.5 -20t-2.5 -17q-1 -2 -3 -2.5t-3 2.5zM208 376q-5 1 -3 4l4 1q0 3 0.5 8t0.5 8q-3 0 -4 2q-2 3 2 3
h2l-1 10h-1q-2 0 -3 1q-1 3 2 4q21 0 22 -8q0 -7 -7 -9q3 0 6 -3q5 -4 3 -12t-10 -9q-4 -1 -7 0q-3 -5 -6 0zM56 377q-1 -4 -5 -2q-1 1 -1 3l3 13q-3 0 -3 2l2 2h2q2 4 5 19q4 6 6 1l5 -19h3q3 -1 2 -4q-1 -1 -3 -1h-1q1 -6 4 -12q1 -5 -3 -4q-1 0 -2 2t-2.5 7.5t-1.5 6.5
h-8zM106 377q0 -4 -4 -2q-2 0 -1 3q0 2 1 6t1 7q-2 0 -2 2t2 2h2q4 17 5 19t3 2.5t3 -1.5l5 -19h2q4 -1 2 -4l-2 -1h-1q1 -3 2 -7t1 -5q2 -5 -2 -4q-2 0 -3 2q-3 12 -3 14h-8zM130 375q-2 0 -2 2.5t2 2.5h4v32l-4 -1q-4 0 -2 4q0 2 2 2h4h6h3q2 -2 1 -5h-5v-32h4q1 -2 1 -5
h-14zM155 374q-3 0 -3 4q0 6 -1 18.5t-1 17.5q0 3 3 3t3 -3q0 -8 1 -19t0 -16h12q-1 2 -1 6q1 2 3 1.5t2 -2.5v-8q0 -2 -4 -2h-14zM183 377q-1 -4 -5 -2q-1 1 -1 3l3 13q-3 0 -3 2l2 2h2q1 2 3 9.5t3 9.5t2.5 2.5t2.5 -1.5l5 -19h3q3 -1 2 -4l-3 -1q1 -9 3 -12q1 -5 -3 -4
q-1 0 -2 2q-3 6 -3 14h-9zM241 374q-3 0 -3 4q0 6 -1 18.5t-1 17.5q0 3 3 3t3 -3q0 -8 1 -19t0 -16h12q-1 3 0 6q0 2 2 1.5t2 -2.5v-2v-3v-3q0 -2 -4 -2h-14zM268 374l-3 3v34q-3 1 -2.5 3t2.5 3h17q3 0 3 -3t-3 -3h-12v-11h10q4 1 4 -3q0 -1 -2 -2q-4 -1 -12 -1v-14l13 1
q5 0 2 -4q-1 -2 -3 -2t-6.5 -0.5t-7.5 -0.5zM218 402q3 1 4.5 3t0.5 4.5t-5 2.5h-4l1 -10h3zM65 396q0 1 -0.5 3t-1 4.5t-0.5 4.5h-1q0 -2 -1 -6.5t-1 -5.5h5zM116 396q-1 2 -3 12q0 -1 -1 -6t-2 -6h6zM192 396q0 1 -0.5 3t-1 4.5t-0.5 4.5h-1q0 -2 -1 -6.5t-1 -5.5h5z
M218 380q8 1 8.5 8t-6.5 9h-5l-1 -17h4zM140 304q2 4 0 13q-2 -1 -2 0q-2 0 -2 2t2 2h2v21q0 4 3 3q2 0 2 -2v-22h13q-1 8 -1 22q0 3 3 3q2 -1 2 -3q0 -8 1 -22t1 -15q0 -2 -2 -3q-3 -2 -3 2q0 8 -1 12h-12v-13q-2 -1 -6 0zM243 302q-9 1 -9 18q0 9 -1 22q0 5 4 3q2 0 2 -2
v-21q0 -14 5 -14q9 0 5 35q0 3 3 2l2 -3l1 -10q1 -10 0 -14q0 -16 -12 -16zM50 303q-2 0 -2 2.5t2 2.5h4v32l-4 -1q-2 0 -2 2.5t2 3.5h13q3 0 3 -2q2 -3 -2 -3h-5v-32h5q2 0 2 -2.5t-2 -2.5q-1 -1 -7 -0.5t-7 0.5zM121 304v36q-5 0 -8 -1q-3 0 -1 4q1 2 2 2h20q1 -2 -1 -6
h-7v-34q-2 -1 -5 -1zM175 302q-3 0 -3 3q-1 1 -1 11v23q-3 1 -2 3t3 3h16q3 0 3 -3t-3 -3h-11l-1 -11h11q4 1 4 -3q0 -1 -2 -2q-5 -1 -12 -1v-14l12 1q6 0 3 -4q-2 -2 -4 -2q-1 0 -5.5 -0.5t-7.5 -0.5zM266 302q-3 0 -3 4q0 6 -1 18.5t-1 17.5q0 3 3 3t3 -3q0 -8 1 -19
t0 -16h12q-2 3 0 6q0 2 2 1.5t2 -2.5v-2v-3v-3q0 -2 -4 -2h-14zM293 302q-3 0 -3 4q1 7 0 20t-1 16t2.5 3t2.5 -3q0 -10 1 -20.5t1 -14.5h11v6q0 2 3 1l2 -2v-8q-1 -2 -4 -2h-15zM208 340q0 4 2 4q12 1 17 0q2 0 2 -3q0 -1 -2 -2q-1 -1 -4 1h-10q0 -12 1 -15h10q2 1 2 -1
q1 -3 -1 -4h-11v-15q0 -2 -3 -2.5t-3 2.5v35zM75 305q0 -4 -4 -2l-1 3q2 17 1 36q0 3 3 2q1 0 2 -2q12 -23 16 -29q-2 16 -2 29q2 1 5 1q0 -3 1 -16.5t0 -19.5q-2 -8 -6 -2q-2 3 -6.5 13t-7.5 14q1 -18 -1 -27zM147 231q-6 -1 -9 3.5t-3 11.5q0 3 2.5 3t2.5 -3q0 -5 2 -8
t6 -2t3.5 5.5t-4.5 8.5l-4.5 4.5t-4.5 6.5q-2 8 3 11t10 -3v3q1 2 4 -1v-10v-2l-3 1q-2 6 -4 7q-3 2 -5 0t0 -5l6 -6q6 -7 7 -13q2 -12 -9 -12zM61 233q-3 6 -6.5 20.5t-4.5 16.5t3 3l2 -1q2 -6 4 -17t4 -17h1q1 14 4 33q1 3 4 2l1 -3q0 -2 -2.5 -17t-3.5 -20q0 -4 -4 -2
q-1 0 -2 2zM84 230q-3 0 -3 3q-1 1 -1 11v23q-3 1 -2 3t3 3h16q3 0 3 -3t-3 -3h-12v-11h11q4 1 4 -3q0 -1 -2 -2q-5 -1 -12 -1v-14l12 1q6 0 3 -4q-2 -2 -4 -2q-1 0 -5.5 -0.5t-7.5 -0.5zM131 231q-5 1 -11 9.5t-7 9.5q0 -10 1 -18q0 -2 -3 -2t-3 2q0 32 -1 35
q-3 0 -3.5 2.5t2.5 3.5h7q16 0 17 -11q0 -7 -7 -9q-1 -1 -4 -1q7 -15 13 -16q2 0 1 -4q0 -2 -2 -1zM162 231q-2 0 -2 2.5t2 2.5h3v32l-4 -1q-3 0 -1 4q0 2 2 2h13q2 -2 1 -5h-5v-32h4q2 0 2 -2.5t-2 -2.5h-13zM191 231q-5 -1 -8.5 4.5t-3.5 13.5q0 15 6 21h1l2 1q1 4 4 1
q4 0 6 -5q6 -5 5 -20.5t-12 -15.5zM212 233q-1 -4 -4 -2l-1 3q2 17 1 36q0 3 3 2q1 0 2 -2q12 -23 16 -29q-2 16 -2 29q2 1 5 1q0 -3 1 -16.5t0 -19.5q-2 -8 -6 -2q-2 3 -6.5 13t-7.5 14q1 -18 -1 -27zM115 255q6 0 8.5 3t0 6.5t-8.5 3.5h-2v-13h2zM188 237q4 -3 7 0
q9 9 0 26q-3 7 -8 1q-4 -5 -3 -14.5t4 -12.5z" />
    <glyph glyph-name="bar" unicode="|" 
d="M332 451v-261h-319v261h319zM19 196h307v249h-307v-249zM87 377q-4 7 -7.5 21.5t-3.5 15.5q-1 2 3 3q1 1 2 -1q1 -3 3.5 -15t4.5 -19q2 23 5 33q0 3 4 2l1 -3q-2 -7 -3.5 -20t-2.5 -17q-1 -2 -3 -2.5t-3 2.5zM208 376q-5 1 -3 4l4 1q0 3 0.5 8t0.5 8q-3 0 -4 2q-2 3 2 3
h2l-1 10h-1q-2 0 -3 1q-1 3 2 4q21 0 22 -8q0 -7 -7 -9q3 0 6 -3q5 -4 3 -12t-10 -9q-4 -1 -7 0q-3 -5 -6 0zM56 377q-1 -4 -5 -2q-1 1 -1 3l3 13q-3 0 -3 2l2 2h2q2 4 5 19q4 6 6 1l5 -19h3q3 -1 2 -4q-1 -1 -3 -1h-1q1 -6 4 -12q1 -5 -3 -4q-1 0 -2 2t-2.5 7.5t-1.5 6.5
h-8zM106 377q0 -4 -4 -2q-2 0 -1 3q0 2 1 6t1 7q-2 0 -2 2t2 2h2q4 17 5 19t3 2.5t3 -1.5l5 -19h2q4 -1 2 -4l-2 -1h-1q1 -3 2 -7t1 -5q2 -5 -2 -4q-2 0 -3 2q-3 12 -3 14h-8zM130 375q-2 0 -2 2.5t2 2.5h4v32l-4 -1q-4 0 -2 4q0 2 2 2h4h6h3q2 -2 1 -5h-5v-32h4q1 -2 1 -5
h-14zM155 374q-3 0 -3 4q0 6 -1 18.5t-1 17.5q0 3 3 3t3 -3q0 -8 1 -19t0 -16h12q-1 2 -1 6q1 2 3 1.5t2 -2.5v-8q0 -2 -4 -2h-14zM183 377q-1 -4 -5 -2q-1 1 -1 3l3 13q-3 0 -3 2l2 2h2q1 2 3 9.5t3 9.5t2.5 2.5t2.5 -1.5l5 -19h3q3 -1 2 -4l-3 -1q1 -9 3 -12q1 -5 -3 -4
q-1 0 -2 2q-3 6 -3 14h-9zM241 374q-3 0 -3 4q0 6 -1 18.5t-1 17.5q0 3 3 3t3 -3q0 -8 1 -19t0 -16h12q-1 3 0 6q0 2 2 1.5t2 -2.5v-2v-3v-3q0 -2 -4 -2h-14zM268 374l-3 3v34q-3 1 -2.5 3t2.5 3h17q3 0 3 -3t-3 -3h-12v-11h10q4 1 4 -3q0 -1 -2 -2q-4 -1 -12 -1v-14l13 1
q5 0 2 -4q-1 -2 -3 -2t-6.5 -0.5t-7.5 -0.5zM218 402q3 1 4.5 3t0.5 4.5t-5 2.5h-4l1 -10h3zM65 396q0 1 -0.5 3t-1 4.5t-0.5 4.5h-1q0 -2 -1 -6.5t-1 -5.5h5zM116 396q-1 2 -3 12q0 -1 -1 -6t-2 -6h6zM192 396q0 1 -0.5 3t-1 4.5t-0.5 4.5h-1q0 -2 -1 -6.5t-1 -5.5h5z
M218 380q8 1 8.5 8t-6.5 9h-5l-1 -17h4zM140 304q2 4 0 13q-2 -1 -2 0q-2 0 -2 2t2 2h2v21q0 4 3 3q2 0 2 -2v-22h13q-1 8 -1 22q0 3 3 3q2 -1 2 -3q0 -8 1 -22t1 -15q0 -2 -2 -3q-3 -2 -3 2q0 8 -1 12h-12v-13q-2 -1 -6 0zM243 302q-9 1 -9 18q0 9 -1 22q0 5 4 3q2 0 2 -2
v-21q0 -14 5 -14q9 0 5 35q0 3 3 2l2 -3l1 -10q1 -10 0 -14q0 -16 -12 -16zM50 303q-2 0 -2 2.5t2 2.5h4v32l-4 -1q-2 0 -2 2.5t2 3.5h13q3 0 3 -2q2 -3 -2 -3h-5v-32h5q2 0 2 -2.5t-2 -2.5q-1 -1 -7 -0.5t-7 0.5zM121 304v36q-5 0 -8 -1q-3 0 -1 4q1 2 2 2h20q1 -2 -1 -6
h-7v-34q-2 -1 -5 -1zM175 302q-3 0 -3 3q-1 1 -1 11v23q-3 1 -2 3t3 3h16q3 0 3 -3t-3 -3h-11l-1 -11h11q4 1 4 -3q0 -1 -2 -2q-5 -1 -12 -1v-14l12 1q6 0 3 -4q-2 -2 -4 -2q-1 0 -5.5 -0.5t-7.5 -0.5zM266 302q-3 0 -3 4q0 6 -1 18.5t-1 17.5q0 3 3 3t3 -3q0 -8 1 -19
t0 -16h12q-2 3 0 6q0 2 2 1.5t2 -2.5v-2v-3v-3q0 -2 -4 -2h-14zM293 302q-3 0 -3 4q1 7 0 20t-1 16t2.5 3t2.5 -3q0 -10 1 -20.5t1 -14.5h11v6q0 2 3 1l2 -2v-8q-1 -2 -4 -2h-15zM208 340q0 4 2 4q12 1 17 0q2 0 2 -3q0 -1 -2 -2q-1 -1 -4 1h-10q0 -12 1 -15h10q2 1 2 -1
q1 -3 -1 -4h-11v-15q0 -2 -3 -2.5t-3 2.5v35zM75 305q0 -4 -4 -2l-1 3q2 17 1 36q0 3 3 2q1 0 2 -2q12 -23 16 -29q-2 16 -2 29q2 1 5 1q0 -3 1 -16.5t0 -19.5q-2 -8 -6 -2q-2 3 -6.5 13t-7.5 14q1 -18 -1 -27zM147 231q-6 -1 -9 3.5t-3 11.5q0 3 2.5 3t2.5 -3q0 -5 2 -8
t6 -2t3.5 5.5t-4.5 8.5l-4.5 4.5t-4.5 6.5q-2 8 3 11t10 -3v3q1 2 4 -1v-10v-2l-3 1q-2 6 -4 7q-3 2 -5 0t0 -5l6 -6q6 -7 7 -13q2 -12 -9 -12zM61 233q-3 6 -6.5 20.5t-4.5 16.5t3 3l2 -1q2 -6 4 -17t4 -17h1q1 14 4 33q1 3 4 2l1 -3q0 -2 -2.5 -17t-3.5 -20q0 -4 -4 -2
q-1 0 -2 2zM84 230q-3 0 -3 3q-1 1 -1 11v23q-3 1 -2 3t3 3h16q3 0 3 -3t-3 -3h-12v-11h11q4 1 4 -3q0 -1 -2 -2q-5 -1 -12 -1v-14l12 1q6 0 3 -4q-2 -2 -4 -2q-1 0 -5.5 -0.5t-7.5 -0.5zM131 231q-5 1 -11 9.5t-7 9.5q0 -10 1 -18q0 -2 -3 -2t-3 2q0 32 -1 35
q-3 0 -3.5 2.5t2.5 3.5h7q16 0 17 -11q0 -7 -7 -9q-1 -1 -4 -1q7 -15 13 -16q2 0 1 -4q0 -2 -2 -1zM162 231q-2 0 -2 2.5t2 2.5h3v32l-4 -1q-3 0 -1 4q0 2 2 2h13q2 -2 1 -5h-5v-32h4q2 0 2 -2.5t-2 -2.5h-13zM191 231q-5 -1 -8.5 4.5t-3.5 13.5q0 15 6 21h1l2 1q1 4 4 1
q4 0 6 -5q6 -5 5 -20.5t-12 -15.5zM212 233q-1 -4 -4 -2l-1 3q2 17 1 36q0 3 3 2q1 0 2 -2q12 -23 16 -29q-2 16 -2 29q2 1 5 1q0 -3 1 -16.5t0 -19.5q-2 -8 -6 -2q-2 3 -6.5 13t-7.5 14q1 -18 -1 -27zM115 255q6 0 8.5 3t0 6.5t-8.5 3.5h-2v-13h2zM188 237q4 -3 7 0
q9 9 0 26q-3 7 -8 1q-4 -5 -3 -14.5t4 -12.5z" />
    <glyph glyph-name="braceright" unicode="}" 
d="M332 451v-261h-319v261h319zM19 196h307v249h-307v-249zM87 377q-4 7 -7.5 21.5t-3.5 15.5q-1 2 3 3q1 1 2 -1q1 -3 3.5 -15t4.5 -19q2 23 5 33q0 3 4 2l1 -3q-2 -7 -3.5 -20t-2.5 -17q-1 -2 -3 -2.5t-3 2.5zM208 376q-5 1 -3 4l4 1q0 3 0.5 8t0.5 8q-3 0 -4 2q-2 3 2 3
h2l-1 10h-1q-2 0 -3 1q-1 3 2 4q21 0 22 -8q0 -7 -7 -9q3 0 6 -3q5 -4 3 -12t-10 -9q-4 -1 -7 0q-3 -5 -6 0zM56 377q-1 -4 -5 -2q-1 1 -1 3l3 13q-3 0 -3 2l2 2h2q2 4 5 19q4 6 6 1l5 -19h3q3 -1 2 -4q-1 -1 -3 -1h-1q1 -6 4 -12q1 -5 -3 -4q-1 0 -2 2t-2.5 7.5t-1.5 6.5
h-8zM106 377q0 -4 -4 -2q-2 0 -1 3q0 2 1 6t1 7q-2 0 -2 2t2 2h2q4 17 5 19t3 2.5t3 -1.5l5 -19h2q4 -1 2 -4l-2 -1h-1q1 -3 2 -7t1 -5q2 -5 -2 -4q-2 0 -3 2q-3 12 -3 14h-8zM130 375q-2 0 -2 2.5t2 2.5h4v32l-4 -1q-4 0 -2 4q0 2 2 2h4h6h3q2 -2 1 -5h-5v-32h4q1 -2 1 -5
h-14zM155 374q-3 0 -3 4q0 6 -1 18.5t-1 17.5q0 3 3 3t3 -3q0 -8 1 -19t0 -16h12q-1 2 -1 6q1 2 3 1.5t2 -2.5v-8q0 -2 -4 -2h-14zM183 377q-1 -4 -5 -2q-1 1 -1 3l3 13q-3 0 -3 2l2 2h2q1 2 3 9.5t3 9.5t2.5 2.5t2.5 -1.5l5 -19h3q3 -1 2 -4l-3 -1q1 -9 3 -12q1 -5 -3 -4
q-1 0 -2 2q-3 6 -3 14h-9zM241 374q-3 0 -3 4q0 6 -1 18.5t-1 17.5q0 3 3 3t3 -3q0 -8 1 -19t0 -16h12q-1 3 0 6q0 2 2 1.5t2 -2.5v-2v-3v-3q0 -2 -4 -2h-14zM268 374l-3 3v34q-3 1 -2.5 3t2.5 3h17q3 0 3 -3t-3 -3h-12v-11h10q4 1 4 -3q0 -1 -2 -2q-4 -1 -12 -1v-14l13 1
q5 0 2 -4q-1 -2 -3 -2t-6.5 -0.5t-7.5 -0.5zM218 402q3 1 4.5 3t0.5 4.5t-5 2.5h-4l1 -10h3zM65 396q0 1 -0.5 3t-1 4.5t-0.5 4.5h-1q0 -2 -1 -6.5t-1 -5.5h5zM116 396q-1 2 -3 12q0 -1 -1 -6t-2 -6h6zM192 396q0 1 -0.5 3t-1 4.5t-0.5 4.5h-1q0 -2 -1 -6.5t-1 -5.5h5z
M218 380q8 1 8.5 8t-6.5 9h-5l-1 -17h4zM140 304q2 4 0 13q-2 -1 -2 0q-2 0 -2 2t2 2h2v21q0 4 3 3q2 0 2 -2v-22h13q-1 8 -1 22q0 3 3 3q2 -1 2 -3q0 -8 1 -22t1 -15q0 -2 -2 -3q-3 -2 -3 2q0 8 -1 12h-12v-13q-2 -1 -6 0zM243 302q-9 1 -9 18q0 9 -1 22q0 5 4 3q2 0 2 -2
v-21q0 -14 5 -14q9 0 5 35q0 3 3 2l2 -3l1 -10q1 -10 0 -14q0 -16 -12 -16zM50 303q-2 0 -2 2.5t2 2.5h4v32l-4 -1q-2 0 -2 2.5t2 3.5h13q3 0 3 -2q2 -3 -2 -3h-5v-32h5q2 0 2 -2.5t-2 -2.5q-1 -1 -7 -0.5t-7 0.5zM121 304v36q-5 0 -8 -1q-3 0 -1 4q1 2 2 2h20q1 -2 -1 -6
h-7v-34q-2 -1 -5 -1zM175 302q-3 0 -3 3q-1 1 -1 11v23q-3 1 -2 3t3 3h16q3 0 3 -3t-3 -3h-11l-1 -11h11q4 1 4 -3q0 -1 -2 -2q-5 -1 -12 -1v-14l12 1q6 0 3 -4q-2 -2 -4 -2q-1 0 -5.5 -0.5t-7.5 -0.5zM266 302q-3 0 -3 4q0 6 -1 18.5t-1 17.5q0 3 3 3t3 -3q0 -8 1 -19
t0 -16h12q-2 3 0 6q0 2 2 1.5t2 -2.5v-2v-3v-3q0 -2 -4 -2h-14zM293 302q-3 0 -3 4q1 7 0 20t-1 16t2.5 3t2.5 -3q0 -10 1 -20.5t1 -14.5h11v6q0 2 3 1l2 -2v-8q-1 -2 -4 -2h-15zM208 340q0 4 2 4q12 1 17 0q2 0 2 -3q0 -1 -2 -2q-1 -1 -4 1h-10q0 -12 1 -15h10q2 1 2 -1
q1 -3 -1 -4h-11v-15q0 -2 -3 -2.5t-3 2.5v35zM75 305q0 -4 -4 -2l-1 3q2 17 1 36q0 3 3 2q1 0 2 -2q12 -23 16 -29q-2 16 -2 29q2 1 5 1q0 -3 1 -16.5t0 -19.5q-2 -8 -6 -2q-2 3 -6.5 13t-7.5 14q1 -18 -1 -27zM147 231q-6 -1 -9 3.5t-3 11.5q0 3 2.5 3t2.5 -3q0 -5 2 -8
t6 -2t3.5 5.5t-4.5 8.5l-4.5 4.5t-4.5 6.5q-2 8 3 11t10 -3v3q1 2 4 -1v-10v-2l-3 1q-2 6 -4 7q-3 2 -5 0t0 -5l6 -6q6 -7 7 -13q2 -12 -9 -12zM61 233q-3 6 -6.5 20.5t-4.5 16.5t3 3l2 -1q2 -6 4 -17t4 -17h1q1 14 4 33q1 3 4 2l1 -3q0 -2 -2.5 -17t-3.5 -20q0 -4 -4 -2
q-1 0 -2 2zM84 230q-3 0 -3 3q-1 1 -1 11v23q-3 1 -2 3t3 3h16q3 0 3 -3t-3 -3h-12v-11h11q4 1 4 -3q0 -1 -2 -2q-5 -1 -12 -1v-14l12 1q6 0 3 -4q-2 -2 -4 -2q-1 0 -5.5 -0.5t-7.5 -0.5zM131 231q-5 1 -11 9.5t-7 9.5q0 -10 1 -18q0 -2 -3 -2t-3 2q0 32 -1 35
q-3 0 -3.5 2.5t2.5 3.5h7q16 0 17 -11q0 -7 -7 -9q-1 -1 -4 -1q7 -15 13 -16q2 0 1 -4q0 -2 -2 -1zM162 231q-2 0 -2 2.5t2 2.5h3v32l-4 -1q-3 0 -1 4q0 2 2 2h13q2 -2 1 -5h-5v-32h4q2 0 2 -2.5t-2 -2.5h-13zM191 231q-5 -1 -8.5 4.5t-3.5 13.5q0 15 6 21h1l2 1q1 4 4 1
q4 0 6 -5q6 -5 5 -20.5t-12 -15.5zM212 233q-1 -4 -4 -2l-1 3q2 17 1 36q0 3 3 2q1 0 2 -2q12 -23 16 -29q-2 16 -2 29q2 1 5 1q0 -3 1 -16.5t0 -19.5q-2 -8 -6 -2q-2 3 -6.5 13t-7.5 14q1 -18 -1 -27zM115 255q6 0 8.5 3t0 6.5t-8.5 3.5h-2v-13h2zM188 237q4 -3 7 0
q9 9 0 26q-3 7 -8 1q-4 -5 -3 -14.5t4 -12.5z" />
    <glyph glyph-name="asciitilde" unicode="~" 
d="M332 451v-261h-319v261h319zM19 196h307v249h-307v-249zM87 377q-4 7 -7.5 21.5t-3.5 15.5q-1 2 3 3q1 1 2 -1q1 -3 3.5 -15t4.5 -19q2 23 5 33q0 3 4 2l1 -3q-2 -7 -3.5 -20t-2.5 -17q-1 -2 -3 -2.5t-3 2.5zM208 376q-5 1 -3 4l4 1q0 3 0.5 8t0.5 8q-3 0 -4 2q-2 3 2 3
h2l-1 10h-1q-2 0 -3 1q-1 3 2 4q21 0 22 -8q0 -7 -7 -9q3 0 6 -3q5 -4 3 -12t-10 -9q-4 -1 -7 0q-3 -5 -6 0zM56 377q-1 -4 -5 -2q-1 1 -1 3l3 13q-3 0 -3 2l2 2h2q2 4 5 19q4 6 6 1l5 -19h3q3 -1 2 -4q-1 -1 -3 -1h-1q1 -6 4 -12q1 -5 -3 -4q-1 0 -2 2t-2.5 7.5t-1.5 6.5
h-8zM106 377q0 -4 -4 -2q-2 0 -1 3q0 2 1 6t1 7q-2 0 -2 2t2 2h2q4 17 5 19t3 2.5t3 -1.5l5 -19h2q4 -1 2 -4l-2 -1h-1q1 -3 2 -7t1 -5q2 -5 -2 -4q-2 0 -3 2q-3 12 -3 14h-8zM130 375q-2 0 -2 2.5t2 2.5h4v32l-4 -1q-4 0 -2 4q0 2 2 2h4h6h3q2 -2 1 -5h-5v-32h4q1 -2 1 -5
h-14zM155 374q-3 0 -3 4q0 6 -1 18.5t-1 17.5q0 3 3 3t3 -3q0 -8 1 -19t0 -16h12q-1 2 -1 6q1 2 3 1.5t2 -2.5v-8q0 -2 -4 -2h-14zM183 377q-1 -4 -5 -2q-1 1 -1 3l3 13q-3 0 -3 2l2 2h2q1 2 3 9.5t3 9.5t2.5 2.5t2.5 -1.5l5 -19h3q3 -1 2 -4l-3 -1q1 -9 3 -12q1 -5 -3 -4
q-1 0 -2 2q-3 6 -3 14h-9zM241 374q-3 0 -3 4q0 6 -1 18.5t-1 17.5q0 3 3 3t3 -3q0 -8 1 -19t0 -16h12q-1 3 0 6q0 2 2 1.5t2 -2.5v-2v-3v-3q0 -2 -4 -2h-14zM268 374l-3 3v34q-3 1 -2.5 3t2.5 3h17q3 0 3 -3t-3 -3h-12v-11h10q4 1 4 -3q0 -1 -2 -2q-4 -1 -12 -1v-14l13 1
q5 0 2 -4q-1 -2 -3 -2t-6.5 -0.5t-7.5 -0.5zM218 402q3 1 4.5 3t0.5 4.5t-5 2.5h-4l1 -10h3zM65 396q0 1 -0.5 3t-1 4.5t-0.5 4.5h-1q0 -2 -1 -6.5t-1 -5.5h5zM116 396q-1 2 -3 12q0 -1 -1 -6t-2 -6h6zM192 396q0 1 -0.5 3t-1 4.5t-0.5 4.5h-1q0 -2 -1 -6.5t-1 -5.5h5z
M218 380q8 1 8.5 8t-6.5 9h-5l-1 -17h4zM140 304q2 4 0 13q-2 -1 -2 0q-2 0 -2 2t2 2h2v21q0 4 3 3q2 0 2 -2v-22h13q-1 8 -1 22q0 3 3 3q2 -1 2 -3q0 -8 1 -22t1 -15q0 -2 -2 -3q-3 -2 -3 2q0 8 -1 12h-12v-13q-2 -1 -6 0zM243 302q-9 1 -9 18q0 9 -1 22q0 5 4 3q2 0 2 -2
v-21q0 -14 5 -14q9 0 5 35q0 3 3 2l2 -3l1 -10q1 -10 0 -14q0 -16 -12 -16zM50 303q-2 0 -2 2.5t2 2.5h4v32l-4 -1q-2 0 -2 2.5t2 3.5h13q3 0 3 -2q2 -3 -2 -3h-5v-32h5q2 0 2 -2.5t-2 -2.5q-1 -1 -7 -0.5t-7 0.5zM121 304v36q-5 0 -8 -1q-3 0 -1 4q1 2 2 2h20q1 -2 -1 -6
h-7v-34q-2 -1 -5 -1zM175 302q-3 0 -3 3q-1 1 -1 11v23q-3 1 -2 3t3 3h16q3 0 3 -3t-3 -3h-11l-1 -11h11q4 1 4 -3q0 -1 -2 -2q-5 -1 -12 -1v-14l12 1q6 0 3 -4q-2 -2 -4 -2q-1 0 -5.5 -0.5t-7.5 -0.5zM266 302q-3 0 -3 4q0 6 -1 18.5t-1 17.5q0 3 3 3t3 -3q0 -8 1 -19
t0 -16h12q-2 3 0 6q0 2 2 1.5t2 -2.5v-2v-3v-3q0 -2 -4 -2h-14zM293 302q-3 0 -3 4q1 7 0 20t-1 16t2.5 3t2.5 -3q0 -10 1 -20.5t1 -14.5h11v6q0 2 3 1l2 -2v-8q-1 -2 -4 -2h-15zM208 340q0 4 2 4q12 1 17 0q2 0 2 -3q0 -1 -2 -2q-1 -1 -4 1h-10q0 -12 1 -15h10q2 1 2 -1
q1 -3 -1 -4h-11v-15q0 -2 -3 -2.5t-3 2.5v35zM75 305q0 -4 -4 -2l-1 3q2 17 1 36q0 3 3 2q1 0 2 -2q12 -23 16 -29q-2 16 -2 29q2 1 5 1q0 -3 1 -16.5t0 -19.5q-2 -8 -6 -2q-2 3 -6.5 13t-7.5 14q1 -18 -1 -27zM147 231q-6 -1 -9 3.5t-3 11.5q0 3 2.5 3t2.5 -3q0 -5 2 -8
t6 -2t3.5 5.5t-4.5 8.5l-4.5 4.5t-4.5 6.5q-2 8 3 11t10 -3v3q1 2 4 -1v-10v-2l-3 1q-2 6 -4 7q-3 2 -5 0t0 -5l6 -6q6 -7 7 -13q2 -12 -9 -12zM61 233q-3 6 -6.5 20.5t-4.5 16.5t3 3l2 -1q2 -6 4 -17t4 -17h1q1 14 4 33q1 3 4 2l1 -3q0 -2 -2.5 -17t-3.5 -20q0 -4 -4 -2
q-1 0 -2 2zM84 230q-3 0 -3 3q-1 1 -1 11v23q-3 1 -2 3t3 3h16q3 0 3 -3t-3 -3h-12v-11h11q4 1 4 -3q0 -1 -2 -2q-5 -1 -12 -1v-14l12 1q6 0 3 -4q-2 -2 -4 -2q-1 0 -5.5 -0.5t-7.5 -0.5zM131 231q-5 1 -11 9.5t-7 9.5q0 -10 1 -18q0 -2 -3 -2t-3 2q0 32 -1 35
q-3 0 -3.5 2.5t2.5 3.5h7q16 0 17 -11q0 -7 -7 -9q-1 -1 -4 -1q7 -15 13 -16q2 0 1 -4q0 -2 -2 -1zM162 231q-2 0 -2 2.5t2 2.5h3v32l-4 -1q-3 0 -1 4q0 2 2 2h13q2 -2 1 -5h-5v-32h4q2 0 2 -2.5t-2 -2.5h-13zM191 231q-5 -1 -8.5 4.5t-3.5 13.5q0 15 6 21h1l2 1q1 4 4 1
q4 0 6 -5q6 -5 5 -20.5t-12 -15.5zM212 233q-1 -4 -4 -2l-1 3q2 17 1 36q0 3 3 2q1 0 2 -2q12 -23 16 -29q-2 16 -2 29q2 1 5 1q0 -3 1 -16.5t0 -19.5q-2 -8 -6 -2q-2 3 -6.5 13t-7.5 14q1 -18 -1 -27zM115 255q6 0 8.5 3t0 6.5t-8.5 3.5h-2v-13h2zM188 237q4 -3 7 0
q9 9 0 26q-3 7 -8 1q-4 -5 -3 -14.5t4 -12.5z" />
    <glyph glyph-name="exclamdown" unicode="&#xa1;" 
d="M332 451v-261h-319v261h319zM19 196h307v249h-307v-249zM87 377q-4 7 -7.5 21.5t-3.5 15.5q-1 2 3 3q1 1 2 -1q1 -3 3.5 -15t4.5 -19q2 23 5 33q0 3 4 2l1 -3q-2 -7 -3.5 -20t-2.5 -17q-1 -2 -3 -2.5t-3 2.5zM208 376q-5 1 -3 4l4 1q0 3 0.5 8t0.5 8q-3 0 -4 2q-2 3 2 3
h2l-1 10h-1q-2 0 -3 1q-1 3 2 4q21 0 22 -8q0 -7 -7 -9q3 0 6 -3q5 -4 3 -12t-10 -9q-4 -1 -7 0q-3 -5 -6 0zM56 377q-1 -4 -5 -2q-1 1 -1 3l3 13q-3 0 -3 2l2 2h2q2 4 5 19q4 6 6 1l5 -19h3q3 -1 2 -4q-1 -1 -3 -1h-1q1 -6 4 -12q1 -5 -3 -4q-1 0 -2 2t-2.5 7.5t-1.5 6.5
h-8zM106 377q0 -4 -4 -2q-2 0 -1 3q0 2 1 6t1 7q-2 0 -2 2t2 2h2q4 17 5 19t3 2.5t3 -1.5l5 -19h2q4 -1 2 -4l-2 -1h-1q1 -3 2 -7t1 -5q2 -5 -2 -4q-2 0 -3 2q-3 12 -3 14h-8zM130 375q-2 0 -2 2.5t2 2.5h4v32l-4 -1q-4 0 -2 4q0 2 2 2h4h6h3q2 -2 1 -5h-5v-32h4q1 -2 1 -5
h-14zM155 374q-3 0 -3 4q0 6 -1 18.5t-1 17.5q0 3 3 3t3 -3q0 -8 1 -19t0 -16h12q-1 2 -1 6q1 2 3 1.5t2 -2.5v-8q0 -2 -4 -2h-14zM183 377q-1 -4 -5 -2q-1 1 -1 3l3 13q-3 0 -3 2l2 2h2q1 2 3 9.5t3 9.5t2.5 2.5t2.5 -1.5l5 -19h3q3 -1 2 -4l-3 -1q1 -9 3 -12q1 -5 -3 -4
q-1 0 -2 2q-3 6 -3 14h-9zM241 374q-3 0 -3 4q0 6 -1 18.5t-1 17.5q0 3 3 3t3 -3q0 -8 1 -19t0 -16h12q-1 3 0 6q0 2 2 1.5t2 -2.5v-2v-3v-3q0 -2 -4 -2h-14zM268 374l-3 3v34q-3 1 -2.5 3t2.5 3h17q3 0 3 -3t-3 -3h-12v-11h10q4 1 4 -3q0 -1 -2 -2q-4 -1 -12 -1v-14l13 1
q5 0 2 -4q-1 -2 -3 -2t-6.5 -0.5t-7.5 -0.5zM218 402q3 1 4.5 3t0.5 4.5t-5 2.5h-4l1 -10h3zM65 396q0 1 -0.5 3t-1 4.5t-0.5 4.5h-1q0 -2 -1 -6.5t-1 -5.5h5zM116 396q-1 2 -3 12q0 -1 -1 -6t-2 -6h6zM192 396q0 1 -0.5 3t-1 4.5t-0.5 4.5h-1q0 -2 -1 -6.5t-1 -5.5h5z
M218 380q8 1 8.5 8t-6.5 9h-5l-1 -17h4zM140 304q2 4 0 13q-2 -1 -2 0q-2 0 -2 2t2 2h2v21q0 4 3 3q2 0 2 -2v-22h13q-1 8 -1 22q0 3 3 3q2 -1 2 -3q0 -8 1 -22t1 -15q0 -2 -2 -3q-3 -2 -3 2q0 8 -1 12h-12v-13q-2 -1 -6 0zM243 302q-9 1 -9 18q0 9 -1 22q0 5 4 3q2 0 2 -2
v-21q0 -14 5 -14q9 0 5 35q0 3 3 2l2 -3l1 -10q1 -10 0 -14q0 -16 -12 -16zM50 303q-2 0 -2 2.5t2 2.5h4v32l-4 -1q-2 0 -2 2.5t2 3.5h13q3 0 3 -2q2 -3 -2 -3h-5v-32h5q2 0 2 -2.5t-2 -2.5q-1 -1 -7 -0.5t-7 0.5zM121 304v36q-5 0 -8 -1q-3 0 -1 4q1 2 2 2h20q1 -2 -1 -6
h-7v-34q-2 -1 -5 -1zM175 302q-3 0 -3 3q-1 1 -1 11v23q-3 1 -2 3t3 3h16q3 0 3 -3t-3 -3h-11l-1 -11h11q4 1 4 -3q0 -1 -2 -2q-5 -1 -12 -1v-14l12 1q6 0 3 -4q-2 -2 -4 -2q-1 0 -5.5 -0.5t-7.5 -0.5zM266 302q-3 0 -3 4q0 6 -1 18.5t-1 17.5q0 3 3 3t3 -3q0 -8 1 -19
t0 -16h12q-2 3 0 6q0 2 2 1.5t2 -2.5v-2v-3v-3q0 -2 -4 -2h-14zM293 302q-3 0 -3 4q1 7 0 20t-1 16t2.5 3t2.5 -3q0 -10 1 -20.5t1 -14.5h11v6q0 2 3 1l2 -2v-8q-1 -2 -4 -2h-15zM208 340q0 4 2 4q12 1 17 0q2 0 2 -3q0 -1 -2 -2q-1 -1 -4 1h-10q0 -12 1 -15h10q2 1 2 -1
q1 -3 -1 -4h-11v-15q0 -2 -3 -2.5t-3 2.5v35zM75 305q0 -4 -4 -2l-1 3q2 17 1 36q0 3 3 2q1 0 2 -2q12 -23 16 -29q-2 16 -2 29q2 1 5 1q0 -3 1 -16.5t0 -19.5q-2 -8 -6 -2q-2 3 -6.5 13t-7.5 14q1 -18 -1 -27zM147 231q-6 -1 -9 3.5t-3 11.5q0 3 2.5 3t2.5 -3q0 -5 2 -8
t6 -2t3.5 5.5t-4.5 8.5l-4.5 4.5t-4.5 6.5q-2 8 3 11t10 -3v3q1 2 4 -1v-10v-2l-3 1q-2 6 -4 7q-3 2 -5 0t0 -5l6 -6q6 -7 7 -13q2 -12 -9 -12zM61 233q-3 6 -6.5 20.5t-4.5 16.5t3 3l2 -1q2 -6 4 -17t4 -17h1q1 14 4 33q1 3 4 2l1 -3q0 -2 -2.5 -17t-3.5 -20q0 -4 -4 -2
q-1 0 -2 2zM84 230q-3 0 -3 3q-1 1 -1 11v23q-3 1 -2 3t3 3h16q3 0 3 -3t-3 -3h-12v-11h11q4 1 4 -3q0 -1 -2 -2q-5 -1 -12 -1v-14l12 1q6 0 3 -4q-2 -2 -4 -2q-1 0 -5.5 -0.5t-7.5 -0.5zM131 231q-5 1 -11 9.5t-7 9.5q0 -10 1 -18q0 -2 -3 -2t-3 2q0 32 -1 35
q-3 0 -3.5 2.5t2.5 3.5h7q16 0 17 -11q0 -7 -7 -9q-1 -1 -4 -1q7 -15 13 -16q2 0 1 -4q0 -2 -2 -1zM162 231q-2 0 -2 2.5t2 2.5h3v32l-4 -1q-3 0 -1 4q0 2 2 2h13q2 -2 1 -5h-5v-32h4q2 0 2 -2.5t-2 -2.5h-13zM191 231q-5 -1 -8.5 4.5t-3.5 13.5q0 15 6 21h1l2 1q1 4 4 1
q4 0 6 -5q6 -5 5 -20.5t-12 -15.5zM212 233q-1 -4 -4 -2l-1 3q2 17 1 36q0 3 3 2q1 0 2 -2q12 -23 16 -29q-2 16 -2 29q2 1 5 1q0 -3 1 -16.5t0 -19.5q-2 -8 -6 -2q-2 3 -6.5 13t-7.5 14q1 -18 -1 -27zM115 255q6 0 8.5 3t0 6.5t-8.5 3.5h-2v-13h2zM188 237q4 -3 7 0
q9 9 0 26q-3 7 -8 1q-4 -5 -3 -14.5t4 -12.5z" />
    <glyph glyph-name="cent" unicode="&#xa2;" 
d="M332 451v-261h-319v261h319zM19 196h307v249h-307v-249zM87 377q-4 7 -7.5 21.5t-3.5 15.5q-1 2 3 3q1 1 2 -1q1 -3 3.5 -15t4.5 -19q2 23 5 33q0 3 4 2l1 -3q-2 -7 -3.5 -20t-2.5 -17q-1 -2 -3 -2.5t-3 2.5zM208 376q-5 1 -3 4l4 1q0 3 0.5 8t0.5 8q-3 0 -4 2q-2 3 2 3
h2l-1 10h-1q-2 0 -3 1q-1 3 2 4q21 0 22 -8q0 -7 -7 -9q3 0 6 -3q5 -4 3 -12t-10 -9q-4 -1 -7 0q-3 -5 -6 0zM56 377q-1 -4 -5 -2q-1 1 -1 3l3 13q-3 0 -3 2l2 2h2q2 4 5 19q4 6 6 1l5 -19h3q3 -1 2 -4q-1 -1 -3 -1h-1q1 -6 4 -12q1 -5 -3 -4q-1 0 -2 2t-2.5 7.5t-1.5 6.5
h-8zM106 377q0 -4 -4 -2q-2 0 -1 3q0 2 1 6t1 7q-2 0 -2 2t2 2h2q4 17 5 19t3 2.5t3 -1.5l5 -19h2q4 -1 2 -4l-2 -1h-1q1 -3 2 -7t1 -5q2 -5 -2 -4q-2 0 -3 2q-3 12 -3 14h-8zM130 375q-2 0 -2 2.5t2 2.5h4v32l-4 -1q-4 0 -2 4q0 2 2 2h4h6h3q2 -2 1 -5h-5v-32h4q1 -2 1 -5
h-14zM155 374q-3 0 -3 4q0 6 -1 18.5t-1 17.5q0 3 3 3t3 -3q0 -8 1 -19t0 -16h12q-1 2 -1 6q1 2 3 1.5t2 -2.5v-8q0 -2 -4 -2h-14zM183 377q-1 -4 -5 -2q-1 1 -1 3l3 13q-3 0 -3 2l2 2h2q1 2 3 9.5t3 9.5t2.5 2.5t2.5 -1.5l5 -19h3q3 -1 2 -4l-3 -1q1 -9 3 -12q1 -5 -3 -4
q-1 0 -2 2q-3 6 -3 14h-9zM241 374q-3 0 -3 4q0 6 -1 18.5t-1 17.5q0 3 3 3t3 -3q0 -8 1 -19t0 -16h12q-1 3 0 6q0 2 2 1.5t2 -2.5v-2v-3v-3q0 -2 -4 -2h-14zM268 374l-3 3v34q-3 1 -2.5 3t2.5 3h17q3 0 3 -3t-3 -3h-12v-11h10q4 1 4 -3q0 -1 -2 -2q-4 -1 -12 -1v-14l13 1
q5 0 2 -4q-1 -2 -3 -2t-6.5 -0.5t-7.5 -0.5zM218 402q3 1 4.5 3t0.5 4.5t-5 2.5h-4l1 -10h3zM65 396q0 1 -0.5 3t-1 4.5t-0.5 4.5h-1q0 -2 -1 -6.5t-1 -5.5h5zM116 396q-1 2 -3 12q0 -1 -1 -6t-2 -6h6zM192 396q0 1 -0.5 3t-1 4.5t-0.5 4.5h-1q0 -2 -1 -6.5t-1 -5.5h5z
M218 380q8 1 8.5 8t-6.5 9h-5l-1 -17h4zM140 304q2 4 0 13q-2 -1 -2 0q-2 0 -2 2t2 2h2v21q0 4 3 3q2 0 2 -2v-22h13q-1 8 -1 22q0 3 3 3q2 -1 2 -3q0 -8 1 -22t1 -15q0 -2 -2 -3q-3 -2 -3 2q0 8 -1 12h-12v-13q-2 -1 -6 0zM243 302q-9 1 -9 18q0 9 -1 22q0 5 4 3q2 0 2 -2
v-21q0 -14 5 -14q9 0 5 35q0 3 3 2l2 -3l1 -10q1 -10 0 -14q0 -16 -12 -16zM50 303q-2 0 -2 2.5t2 2.5h4v32l-4 -1q-2 0 -2 2.5t2 3.5h13q3 0 3 -2q2 -3 -2 -3h-5v-32h5q2 0 2 -2.5t-2 -2.5q-1 -1 -7 -0.5t-7 0.5zM121 304v36q-5 0 -8 -1q-3 0 -1 4q1 2 2 2h20q1 -2 -1 -6
h-7v-34q-2 -1 -5 -1zM175 302q-3 0 -3 3q-1 1 -1 11v23q-3 1 -2 3t3 3h16q3 0 3 -3t-3 -3h-11l-1 -11h11q4 1 4 -3q0 -1 -2 -2q-5 -1 -12 -1v-14l12 1q6 0 3 -4q-2 -2 -4 -2q-1 0 -5.5 -0.5t-7.5 -0.5zM266 302q-3 0 -3 4q0 6 -1 18.5t-1 17.5q0 3 3 3t3 -3q0 -8 1 -19
t0 -16h12q-2 3 0 6q0 2 2 1.5t2 -2.5v-2v-3v-3q0 -2 -4 -2h-14zM293 302q-3 0 -3 4q1 7 0 20t-1 16t2.5 3t2.5 -3q0 -10 1 -20.5t1 -14.5h11v6q0 2 3 1l2 -2v-8q-1 -2 -4 -2h-15zM208 340q0 4 2 4q12 1 17 0q2 0 2 -3q0 -1 -2 -2q-1 -1 -4 1h-10q0 -12 1 -15h10q2 1 2 -1
q1 -3 -1 -4h-11v-15q0 -2 -3 -2.5t-3 2.5v35zM75 305q0 -4 -4 -2l-1 3q2 17 1 36q0 3 3 2q1 0 2 -2q12 -23 16 -29q-2 16 -2 29q2 1 5 1q0 -3 1 -16.5t0 -19.5q-2 -8 -6 -2q-2 3 -6.5 13t-7.5 14q1 -18 -1 -27zM147 231q-6 -1 -9 3.5t-3 11.5q0 3 2.5 3t2.5 -3q0 -5 2 -8
t6 -2t3.5 5.5t-4.5 8.5l-4.5 4.5t-4.5 6.5q-2 8 3 11t10 -3v3q1 2 4 -1v-10v-2l-3 1q-2 6 -4 7q-3 2 -5 0t0 -5l6 -6q6 -7 7 -13q2 -12 -9 -12zM61 233q-3 6 -6.5 20.5t-4.5 16.5t3 3l2 -1q2 -6 4 -17t4 -17h1q1 14 4 33q1 3 4 2l1 -3q0 -2 -2.5 -17t-3.5 -20q0 -4 -4 -2
q-1 0 -2 2zM84 230q-3 0 -3 3q-1 1 -1 11v23q-3 1 -2 3t3 3h16q3 0 3 -3t-3 -3h-12v-11h11q4 1 4 -3q0 -1 -2 -2q-5 -1 -12 -1v-14l12 1q6 0 3 -4q-2 -2 -4 -2q-1 0 -5.5 -0.5t-7.5 -0.5zM131 231q-5 1 -11 9.5t-7 9.5q0 -10 1 -18q0 -2 -3 -2t-3 2q0 32 -1 35
q-3 0 -3.5 2.5t2.5 3.5h7q16 0 17 -11q0 -7 -7 -9q-1 -1 -4 -1q7 -15 13 -16q2 0 1 -4q0 -2 -2 -1zM162 231q-2 0 -2 2.5t2 2.5h3v32l-4 -1q-3 0 -1 4q0 2 2 2h13q2 -2 1 -5h-5v-32h4q2 0 2 -2.5t-2 -2.5h-13zM191 231q-5 -1 -8.5 4.5t-3.5 13.5q0 15 6 21h1l2 1q1 4 4 1
q4 0 6 -5q6 -5 5 -20.5t-12 -15.5zM212 233q-1 -4 -4 -2l-1 3q2 17 1 36q0 3 3 2q1 0 2 -2q12 -23 16 -29q-2 16 -2 29q2 1 5 1q0 -3 1 -16.5t0 -19.5q-2 -8 -6 -2q-2 3 -6.5 13t-7.5 14q1 -18 -1 -27zM115 255q6 0 8.5 3t0 6.5t-8.5 3.5h-2v-13h2zM188 237q4 -3 7 0
q9 9 0 26q-3 7 -8 1q-4 -5 -3 -14.5t4 -12.5z" />
    <glyph glyph-name="sterling" unicode="&#xa3;" 
d="M332 451v-261h-319v261h319zM19 196h307v249h-307v-249zM87 377q-4 7 -7.5 21.5t-3.5 15.5q-1 2 3 3q1 1 2 -1q1 -3 3.5 -15t4.5 -19q2 23 5 33q0 3 4 2l1 -3q-2 -7 -3.5 -20t-2.5 -17q-1 -2 -3 -2.5t-3 2.5zM208 376q-5 1 -3 4l4 1q0 3 0.5 8t0.5 8q-3 0 -4 2q-2 3 2 3
h2l-1 10h-1q-2 0 -3 1q-1 3 2 4q21 0 22 -8q0 -7 -7 -9q3 0 6 -3q5 -4 3 -12t-10 -9q-4 -1 -7 0q-3 -5 -6 0zM56 377q-1 -4 -5 -2q-1 1 -1 3l3 13q-3 0 -3 2l2 2h2q2 4 5 19q4 6 6 1l5 -19h3q3 -1 2 -4q-1 -1 -3 -1h-1q1 -6 4 -12q1 -5 -3 -4q-1 0 -2 2t-2.5 7.5t-1.5 6.5
h-8zM106 377q0 -4 -4 -2q-2 0 -1 3q0 2 1 6t1 7q-2 0 -2 2t2 2h2q4 17 5 19t3 2.5t3 -1.5l5 -19h2q4 -1 2 -4l-2 -1h-1q1 -3 2 -7t1 -5q2 -5 -2 -4q-2 0 -3 2q-3 12 -3 14h-8zM130 375q-2 0 -2 2.5t2 2.5h4v32l-4 -1q-4 0 -2 4q0 2 2 2h4h6h3q2 -2 1 -5h-5v-32h4q1 -2 1 -5
h-14zM155 374q-3 0 -3 4q0 6 -1 18.5t-1 17.5q0 3 3 3t3 -3q0 -8 1 -19t0 -16h12q-1 2 -1 6q1 2 3 1.5t2 -2.5v-8q0 -2 -4 -2h-14zM183 377q-1 -4 -5 -2q-1 1 -1 3l3 13q-3 0 -3 2l2 2h2q1 2 3 9.5t3 9.5t2.5 2.5t2.5 -1.5l5 -19h3q3 -1 2 -4l-3 -1q1 -9 3 -12q1 -5 -3 -4
q-1 0 -2 2q-3 6 -3 14h-9zM241 374q-3 0 -3 4q0 6 -1 18.5t-1 17.5q0 3 3 3t3 -3q0 -8 1 -19t0 -16h12q-1 3 0 6q0 2 2 1.5t2 -2.5v-2v-3v-3q0 -2 -4 -2h-14zM268 374l-3 3v34q-3 1 -2.5 3t2.5 3h17q3 0 3 -3t-3 -3h-12v-11h10q4 1 4 -3q0 -1 -2 -2q-4 -1 -12 -1v-14l13 1
q5 0 2 -4q-1 -2 -3 -2t-6.5 -0.5t-7.5 -0.5zM218 402q3 1 4.5 3t0.5 4.5t-5 2.5h-4l1 -10h3zM65 396q0 1 -0.5 3t-1 4.5t-0.5 4.5h-1q0 -2 -1 -6.5t-1 -5.5h5zM116 396q-1 2 -3 12q0 -1 -1 -6t-2 -6h6zM192 396q0 1 -0.5 3t-1 4.5t-0.5 4.5h-1q0 -2 -1 -6.5t-1 -5.5h5z
M218 380q8 1 8.5 8t-6.5 9h-5l-1 -17h4zM140 304q2 4 0 13q-2 -1 -2 0q-2 0 -2 2t2 2h2v21q0 4 3 3q2 0 2 -2v-22h13q-1 8 -1 22q0 3 3 3q2 -1 2 -3q0 -8 1 -22t1 -15q0 -2 -2 -3q-3 -2 -3 2q0 8 -1 12h-12v-13q-2 -1 -6 0zM243 302q-9 1 -9 18q0 9 -1 22q0 5 4 3q2 0 2 -2
v-21q0 -14 5 -14q9 0 5 35q0 3 3 2l2 -3l1 -10q1 -10 0 -14q0 -16 -12 -16zM50 303q-2 0 -2 2.5t2 2.5h4v32l-4 -1q-2 0 -2 2.5t2 3.5h13q3 0 3 -2q2 -3 -2 -3h-5v-32h5q2 0 2 -2.5t-2 -2.5q-1 -1 -7 -0.5t-7 0.5zM121 304v36q-5 0 -8 -1q-3 0 -1 4q1 2 2 2h20q1 -2 -1 -6
h-7v-34q-2 -1 -5 -1zM175 302q-3 0 -3 3q-1 1 -1 11v23q-3 1 -2 3t3 3h16q3 0 3 -3t-3 -3h-11l-1 -11h11q4 1 4 -3q0 -1 -2 -2q-5 -1 -12 -1v-14l12 1q6 0 3 -4q-2 -2 -4 -2q-1 0 -5.5 -0.5t-7.5 -0.5zM266 302q-3 0 -3 4q0 6 -1 18.5t-1 17.5q0 3 3 3t3 -3q0 -8 1 -19
t0 -16h12q-2 3 0 6q0 2 2 1.5t2 -2.5v-2v-3v-3q0 -2 -4 -2h-14zM293 302q-3 0 -3 4q1 7 0 20t-1 16t2.5 3t2.5 -3q0 -10 1 -20.5t1 -14.5h11v6q0 2 3 1l2 -2v-8q-1 -2 -4 -2h-15zM208 340q0 4 2 4q12 1 17 0q2 0 2 -3q0 -1 -2 -2q-1 -1 -4 1h-10q0 -12 1 -15h10q2 1 2 -1
q1 -3 -1 -4h-11v-15q0 -2 -3 -2.5t-3 2.5v35zM75 305q0 -4 -4 -2l-1 3q2 17 1 36q0 3 3 2q1 0 2 -2q12 -23 16 -29q-2 16 -2 29q2 1 5 1q0 -3 1 -16.5t0 -19.5q-2 -8 -6 -2q-2 3 -6.5 13t-7.5 14q1 -18 -1 -27zM147 231q-6 -1 -9 3.5t-3 11.5q0 3 2.5 3t2.5 -3q0 -5 2 -8
t6 -2t3.5 5.5t-4.5 8.5l-4.5 4.5t-4.5 6.5q-2 8 3 11t10 -3v3q1 2 4 -1v-10v-2l-3 1q-2 6 -4 7q-3 2 -5 0t0 -5l6 -6q6 -7 7 -13q2 -12 -9 -12zM61 233q-3 6 -6.5 20.5t-4.5 16.5t3 3l2 -1q2 -6 4 -17t4 -17h1q1 14 4 33q1 3 4 2l1 -3q0 -2 -2.5 -17t-3.5 -20q0 -4 -4 -2
q-1 0 -2 2zM84 230q-3 0 -3 3q-1 1 -1 11v23q-3 1 -2 3t3 3h16q3 0 3 -3t-3 -3h-12v-11h11q4 1 4 -3q0 -1 -2 -2q-5 -1 -12 -1v-14l12 1q6 0 3 -4q-2 -2 -4 -2q-1 0 -5.5 -0.5t-7.5 -0.5zM131 231q-5 1 -11 9.5t-7 9.5q0 -10 1 -18q0 -2 -3 -2t-3 2q0 32 -1 35
q-3 0 -3.5 2.5t2.5 3.5h7q16 0 17 -11q0 -7 -7 -9q-1 -1 -4 -1q7 -15 13 -16q2 0 1 -4q0 -2 -2 -1zM162 231q-2 0 -2 2.5t2 2.5h3v32l-4 -1q-3 0 -1 4q0 2 2 2h13q2 -2 1 -5h-5v-32h4q2 0 2 -2.5t-2 -2.5h-13zM191 231q-5 -1 -8.5 4.5t-3.5 13.5q0 15 6 21h1l2 1q1 4 4 1
q4 0 6 -5q6 -5 5 -20.5t-12 -15.5zM212 233q-1 -4 -4 -2l-1 3q2 17 1 36q0 3 3 2q1 0 2 -2q12 -23 16 -29q-2 16 -2 29q2 1 5 1q0 -3 1 -16.5t0 -19.5q-2 -8 -6 -2q-2 3 -6.5 13t-7.5 14q1 -18 -1 -27zM115 255q6 0 8.5 3t0 6.5t-8.5 3.5h-2v-13h2zM188 237q4 -3 7 0
q9 9 0 26q-3 7 -8 1q-4 -5 -3 -14.5t4 -12.5z" />
    <glyph glyph-name="currency" unicode="&#xa4;" 
d="M332 451v-261h-319v261h319zM19 196h307v249h-307v-249zM87 377q-4 7 -7.5 21.5t-3.5 15.5q-1 2 3 3q1 1 2 -1q1 -3 3.5 -15t4.5 -19q2 23 5 33q0 3 4 2l1 -3q-2 -7 -3.5 -20t-2.5 -17q-1 -2 -3 -2.5t-3 2.5zM208 376q-5 1 -3 4l4 1q0 3 0.5 8t0.5 8q-3 0 -4 2q-2 3 2 3
h2l-1 10h-1q-2 0 -3 1q-1 3 2 4q21 0 22 -8q0 -7 -7 -9q3 0 6 -3q5 -4 3 -12t-10 -9q-4 -1 -7 0q-3 -5 -6 0zM56 377q-1 -4 -5 -2q-1 1 -1 3l3 13q-3 0 -3 2l2 2h2q2 4 5 19q4 6 6 1l5 -19h3q3 -1 2 -4q-1 -1 -3 -1h-1q1 -6 4 -12q1 -5 -3 -4q-1 0 -2 2t-2.5 7.5t-1.5 6.5
h-8zM106 377q0 -4 -4 -2q-2 0 -1 3q0 2 1 6t1 7q-2 0 -2 2t2 2h2q4 17 5 19t3 2.5t3 -1.5l5 -19h2q4 -1 2 -4l-2 -1h-1q1 -3 2 -7t1 -5q2 -5 -2 -4q-2 0 -3 2q-3 12 -3 14h-8zM130 375q-2 0 -2 2.5t2 2.5h4v32l-4 -1q-4 0 -2 4q0 2 2 2h4h6h3q2 -2 1 -5h-5v-32h4q1 -2 1 -5
h-14zM155 374q-3 0 -3 4q0 6 -1 18.5t-1 17.5q0 3 3 3t3 -3q0 -8 1 -19t0 -16h12q-1 2 -1 6q1 2 3 1.5t2 -2.5v-8q0 -2 -4 -2h-14zM183 377q-1 -4 -5 -2q-1 1 -1 3l3 13q-3 0 -3 2l2 2h2q1 2 3 9.5t3 9.5t2.5 2.5t2.5 -1.5l5 -19h3q3 -1 2 -4l-3 -1q1 -9 3 -12q1 -5 -3 -4
q-1 0 -2 2q-3 6 -3 14h-9zM241 374q-3 0 -3 4q0 6 -1 18.5t-1 17.5q0 3 3 3t3 -3q0 -8 1 -19t0 -16h12q-1 3 0 6q0 2 2 1.5t2 -2.5v-2v-3v-3q0 -2 -4 -2h-14zM268 374l-3 3v34q-3 1 -2.5 3t2.5 3h17q3 0 3 -3t-3 -3h-12v-11h10q4 1 4 -3q0 -1 -2 -2q-4 -1 -12 -1v-14l13 1
q5 0 2 -4q-1 -2 -3 -2t-6.5 -0.5t-7.5 -0.5zM218 402q3 1 4.5 3t0.5 4.5t-5 2.5h-4l1 -10h3zM65 396q0 1 -0.5 3t-1 4.5t-0.5 4.5h-1q0 -2 -1 -6.5t-1 -5.5h5zM116 396q-1 2 -3 12q0 -1 -1 -6t-2 -6h6zM192 396q0 1 -0.5 3t-1 4.5t-0.5 4.5h-1q0 -2 -1 -6.5t-1 -5.5h5z
M218 380q8 1 8.5 8t-6.5 9h-5l-1 -17h4zM140 304q2 4 0 13q-2 -1 -2 0q-2 0 -2 2t2 2h2v21q0 4 3 3q2 0 2 -2v-22h13q-1 8 -1 22q0 3 3 3q2 -1 2 -3q0 -8 1 -22t1 -15q0 -2 -2 -3q-3 -2 -3 2q0 8 -1 12h-12v-13q-2 -1 -6 0zM243 302q-9 1 -9 18q0 9 -1 22q0 5 4 3q2 0 2 -2
v-21q0 -14 5 -14q9 0 5 35q0 3 3 2l2 -3l1 -10q1 -10 0 -14q0 -16 -12 -16zM50 303q-2 0 -2 2.5t2 2.5h4v32l-4 -1q-2 0 -2 2.5t2 3.5h13q3 0 3 -2q2 -3 -2 -3h-5v-32h5q2 0 2 -2.5t-2 -2.5q-1 -1 -7 -0.5t-7 0.5zM121 304v36q-5 0 -8 -1q-3 0 -1 4q1 2 2 2h20q1 -2 -1 -6
h-7v-34q-2 -1 -5 -1zM175 302q-3 0 -3 3q-1 1 -1 11v23q-3 1 -2 3t3 3h16q3 0 3 -3t-3 -3h-11l-1 -11h11q4 1 4 -3q0 -1 -2 -2q-5 -1 -12 -1v-14l12 1q6 0 3 -4q-2 -2 -4 -2q-1 0 -5.5 -0.5t-7.5 -0.5zM266 302q-3 0 -3 4q0 6 -1 18.5t-1 17.5q0 3 3 3t3 -3q0 -8 1 -19
t0 -16h12q-2 3 0 6q0 2 2 1.5t2 -2.5v-2v-3v-3q0 -2 -4 -2h-14zM293 302q-3 0 -3 4q1 7 0 20t-1 16t2.5 3t2.5 -3q0 -10 1 -20.5t1 -14.5h11v6q0 2 3 1l2 -2v-8q-1 -2 -4 -2h-15zM208 340q0 4 2 4q12 1 17 0q2 0 2 -3q0 -1 -2 -2q-1 -1 -4 1h-10q0 -12 1 -15h10q2 1 2 -1
q1 -3 -1 -4h-11v-15q0 -2 -3 -2.5t-3 2.5v35zM75 305q0 -4 -4 -2l-1 3q2 17 1 36q0 3 3 2q1 0 2 -2q12 -23 16 -29q-2 16 -2 29q2 1 5 1q0 -3 1 -16.5t0 -19.5q-2 -8 -6 -2q-2 3 -6.5 13t-7.5 14q1 -18 -1 -27zM147 231q-6 -1 -9 3.5t-3 11.5q0 3 2.5 3t2.5 -3q0 -5 2 -8
t6 -2t3.5 5.5t-4.5 8.5l-4.5 4.5t-4.5 6.5q-2 8 3 11t10 -3v3q1 2 4 -1v-10v-2l-3 1q-2 6 -4 7q-3 2 -5 0t0 -5l6 -6q6 -7 7 -13q2 -12 -9 -12zM61 233q-3 6 -6.5 20.5t-4.5 16.5t3 3l2 -1q2 -6 4 -17t4 -17h1q1 14 4 33q1 3 4 2l1 -3q0 -2 -2.5 -17t-3.5 -20q0 -4 -4 -2
q-1 0 -2 2zM84 230q-3 0 -3 3q-1 1 -1 11v23q-3 1 -2 3t3 3h16q3 0 3 -3t-3 -3h-12v-11h11q4 1 4 -3q0 -1 -2 -2q-5 -1 -12 -1v-14l12 1q6 0 3 -4q-2 -2 -4 -2q-1 0 -5.5 -0.5t-7.5 -0.5zM131 231q-5 1 -11 9.5t-7 9.5q0 -10 1 -18q0 -2 -3 -2t-3 2q0 32 -1 35
q-3 0 -3.5 2.5t2.5 3.5h7q16 0 17 -11q0 -7 -7 -9q-1 -1 -4 -1q7 -15 13 -16q2 0 1 -4q0 -2 -2 -1zM162 231q-2 0 -2 2.5t2 2.5h3v32l-4 -1q-3 0 -1 4q0 2 2 2h13q2 -2 1 -5h-5v-32h4q2 0 2 -2.5t-2 -2.5h-13zM191 231q-5 -1 -8.5 4.5t-3.5 13.5q0 15 6 21h1l2 1q1 4 4 1
q4 0 6 -5q6 -5 5 -20.5t-12 -15.5zM212 233q-1 -4 -4 -2l-1 3q2 17 1 36q0 3 3 2q1 0 2 -2q12 -23 16 -29q-2 16 -2 29q2 1 5 1q0 -3 1 -16.5t0 -19.5q-2 -8 -6 -2q-2 3 -6.5 13t-7.5 14q1 -18 -1 -27zM115 255q6 0 8.5 3t0 6.5t-8.5 3.5h-2v-13h2zM188 237q4 -3 7 0
q9 9 0 26q-3 7 -8 1q-4 -5 -3 -14.5t4 -12.5z" />
    <glyph glyph-name="yen" unicode="&#xa5;" 
d="M332 451v-261h-319v261h319zM19 196h307v249h-307v-249zM87 377q-4 7 -7.5 21.5t-3.5 15.5q-1 2 3 3q1 1 2 -1q1 -3 3.5 -15t4.5 -19q2 23 5 33q0 3 4 2l1 -3q-2 -7 -3.5 -20t-2.5 -17q-1 -2 -3 -2.5t-3 2.5zM208 376q-5 1 -3 4l4 1q0 3 0.5 8t0.5 8q-3 0 -4 2q-2 3 2 3
h2l-1 10h-1q-2 0 -3 1q-1 3 2 4q21 0 22 -8q0 -7 -7 -9q3 0 6 -3q5 -4 3 -12t-10 -9q-4 -1 -7 0q-3 -5 -6 0zM56 377q-1 -4 -5 -2q-1 1 -1 3l3 13q-3 0 -3 2l2 2h2q2 4 5 19q4 6 6 1l5 -19h3q3 -1 2 -4q-1 -1 -3 -1h-1q1 -6 4 -12q1 -5 -3 -4q-1 0 -2 2t-2.5 7.5t-1.5 6.5
h-8zM106 377q0 -4 -4 -2q-2 0 -1 3q0 2 1 6t1 7q-2 0 -2 2t2 2h2q4 17 5 19t3 2.5t3 -1.5l5 -19h2q4 -1 2 -4l-2 -1h-1q1 -3 2 -7t1 -5q2 -5 -2 -4q-2 0 -3 2q-3 12 -3 14h-8zM130 375q-2 0 -2 2.5t2 2.5h4v32l-4 -1q-4 0 -2 4q0 2 2 2h4h6h3q2 -2 1 -5h-5v-32h4q1 -2 1 -5
h-14zM155 374q-3 0 -3 4q0 6 -1 18.5t-1 17.5q0 3 3 3t3 -3q0 -8 1 -19t0 -16h12q-1 2 -1 6q1 2 3 1.5t2 -2.5v-8q0 -2 -4 -2h-14zM183 377q-1 -4 -5 -2q-1 1 -1 3l3 13q-3 0 -3 2l2 2h2q1 2 3 9.5t3 9.5t2.5 2.5t2.5 -1.5l5 -19h3q3 -1 2 -4l-3 -1q1 -9 3 -12q1 -5 -3 -4
q-1 0 -2 2q-3 6 -3 14h-9zM241 374q-3 0 -3 4q0 6 -1 18.5t-1 17.5q0 3 3 3t3 -3q0 -8 1 -19t0 -16h12q-1 3 0 6q0 2 2 1.5t2 -2.5v-2v-3v-3q0 -2 -4 -2h-14zM268 374l-3 3v34q-3 1 -2.5 3t2.5 3h17q3 0 3 -3t-3 -3h-12v-11h10q4 1 4 -3q0 -1 -2 -2q-4 -1 -12 -1v-14l13 1
q5 0 2 -4q-1 -2 -3 -2t-6.5 -0.5t-7.5 -0.5zM218 402q3 1 4.5 3t0.5 4.5t-5 2.5h-4l1 -10h3zM65 396q0 1 -0.5 3t-1 4.5t-0.5 4.5h-1q0 -2 -1 -6.5t-1 -5.5h5zM116 396q-1 2 -3 12q0 -1 -1 -6t-2 -6h6zM192 396q0 1 -0.5 3t-1 4.5t-0.5 4.5h-1q0 -2 -1 -6.5t-1 -5.5h5z
M218 380q8 1 8.5 8t-6.5 9h-5l-1 -17h4zM140 304q2 4 0 13q-2 -1 -2 0q-2 0 -2 2t2 2h2v21q0 4 3 3q2 0 2 -2v-22h13q-1 8 -1 22q0 3 3 3q2 -1 2 -3q0 -8 1 -22t1 -15q0 -2 -2 -3q-3 -2 -3 2q0 8 -1 12h-12v-13q-2 -1 -6 0zM243 302q-9 1 -9 18q0 9 -1 22q0 5 4 3q2 0 2 -2
v-21q0 -14 5 -14q9 0 5 35q0 3 3 2l2 -3l1 -10q1 -10 0 -14q0 -16 -12 -16zM50 303q-2 0 -2 2.5t2 2.5h4v32l-4 -1q-2 0 -2 2.5t2 3.5h13q3 0 3 -2q2 -3 -2 -3h-5v-32h5q2 0 2 -2.5t-2 -2.5q-1 -1 -7 -0.5t-7 0.5zM121 304v36q-5 0 -8 -1q-3 0 -1 4q1 2 2 2h20q1 -2 -1 -6
h-7v-34q-2 -1 -5 -1zM175 302q-3 0 -3 3q-1 1 -1 11v23q-3 1 -2 3t3 3h16q3 0 3 -3t-3 -3h-11l-1 -11h11q4 1 4 -3q0 -1 -2 -2q-5 -1 -12 -1v-14l12 1q6 0 3 -4q-2 -2 -4 -2q-1 0 -5.5 -0.5t-7.5 -0.5zM266 302q-3 0 -3 4q0 6 -1 18.5t-1 17.5q0 3 3 3t3 -3q0 -8 1 -19
t0 -16h12q-2 3 0 6q0 2 2 1.5t2 -2.5v-2v-3v-3q0 -2 -4 -2h-14zM293 302q-3 0 -3 4q1 7 0 20t-1 16t2.5 3t2.5 -3q0 -10 1 -20.5t1 -14.5h11v6q0 2 3 1l2 -2v-8q-1 -2 -4 -2h-15zM208 340q0 4 2 4q12 1 17 0q2 0 2 -3q0 -1 -2 -2q-1 -1 -4 1h-10q0 -12 1 -15h10q2 1 2 -1
q1 -3 -1 -4h-11v-15q0 -2 -3 -2.5t-3 2.5v35zM75 305q0 -4 -4 -2l-1 3q2 17 1 36q0 3 3 2q1 0 2 -2q12 -23 16 -29q-2 16 -2 29q2 1 5 1q0 -3 1 -16.5t0 -19.5q-2 -8 -6 -2q-2 3 -6.5 13t-7.5 14q1 -18 -1 -27zM147 231q-6 -1 -9 3.5t-3 11.5q0 3 2.5 3t2.5 -3q0 -5 2 -8
t6 -2t3.5 5.5t-4.5 8.5l-4.5 4.5t-4.5 6.5q-2 8 3 11t10 -3v3q1 2 4 -1v-10v-2l-3 1q-2 6 -4 7q-3 2 -5 0t0 -5l6 -6q6 -7 7 -13q2 -12 -9 -12zM61 233q-3 6 -6.5 20.5t-4.5 16.5t3 3l2 -1q2 -6 4 -17t4 -17h1q1 14 4 33q1 3 4 2l1 -3q0 -2 -2.5 -17t-3.5 -20q0 -4 -4 -2
q-1 0 -2 2zM84 230q-3 0 -3 3q-1 1 -1 11v23q-3 1 -2 3t3 3h16q3 0 3 -3t-3 -3h-12v-11h11q4 1 4 -3q0 -1 -2 -2q-5 -1 -12 -1v-14l12 1q6 0 3 -4q-2 -2 -4 -2q-1 0 -5.5 -0.5t-7.5 -0.5zM131 231q-5 1 -11 9.5t-7 9.5q0 -10 1 -18q0 -2 -3 -2t-3 2q0 32 -1 35
q-3 0 -3.5 2.5t2.5 3.5h7q16 0 17 -11q0 -7 -7 -9q-1 -1 -4 -1q7 -15 13 -16q2 0 1 -4q0 -2 -2 -1zM162 231q-2 0 -2 2.5t2 2.5h3v32l-4 -1q-3 0 -1 4q0 2 2 2h13q2 -2 1 -5h-5v-32h4q2 0 2 -2.5t-2 -2.5h-13zM191 231q-5 -1 -8.5 4.5t-3.5 13.5q0 15 6 21h1l2 1q1 4 4 1
q4 0 6 -5q6 -5 5 -20.5t-12 -15.5zM212 233q-1 -4 -4 -2l-1 3q2 17 1 36q0 3 3 2q1 0 2 -2q12 -23 16 -29q-2 16 -2 29q2 1 5 1q0 -3 1 -16.5t0 -19.5q-2 -8 -6 -2q-2 3 -6.5 13t-7.5 14q1 -18 -1 -27zM115 255q6 0 8.5 3t0 6.5t-8.5 3.5h-2v-13h2zM188 237q4 -3 7 0
q9 9 0 26q-3 7 -8 1q-4 -5 -3 -14.5t4 -12.5z" />
    <glyph glyph-name="brokenbar" unicode="&#xa6;" 
d="M332 451v-261h-319v261h319zM19 196h307v249h-307v-249zM87 377q-4 7 -7.5 21.5t-3.5 15.5q-1 2 3 3q1 1 2 -1q1 -3 3.5 -15t4.5 -19q2 23 5 33q0 3 4 2l1 -3q-2 -7 -3.5 -20t-2.5 -17q-1 -2 -3 -2.5t-3 2.5zM208 376q-5 1 -3 4l4 1q0 3 0.5 8t0.5 8q-3 0 -4 2q-2 3 2 3
h2l-1 10h-1q-2 0 -3 1q-1 3 2 4q21 0 22 -8q0 -7 -7 -9q3 0 6 -3q5 -4 3 -12t-10 -9q-4 -1 -7 0q-3 -5 -6 0zM56 377q-1 -4 -5 -2q-1 1 -1 3l3 13q-3 0 -3 2l2 2h2q2 4 5 19q4 6 6 1l5 -19h3q3 -1 2 -4q-1 -1 -3 -1h-1q1 -6 4 -12q1 -5 -3 -4q-1 0 -2 2t-2.5 7.5t-1.5 6.5
h-8zM106 377q0 -4 -4 -2q-2 0 -1 3q0 2 1 6t1 7q-2 0 -2 2t2 2h2q4 17 5 19t3 2.5t3 -1.5l5 -19h2q4 -1 2 -4l-2 -1h-1q1 -3 2 -7t1 -5q2 -5 -2 -4q-2 0 -3 2q-3 12 -3 14h-8zM130 375q-2 0 -2 2.5t2 2.5h4v32l-4 -1q-4 0 -2 4q0 2 2 2h4h6h3q2 -2 1 -5h-5v-32h4q1 -2 1 -5
h-14zM155 374q-3 0 -3 4q0 6 -1 18.5t-1 17.5q0 3 3 3t3 -3q0 -8 1 -19t0 -16h12q-1 2 -1 6q1 2 3 1.5t2 -2.5v-8q0 -2 -4 -2h-14zM183 377q-1 -4 -5 -2q-1 1 -1 3l3 13q-3 0 -3 2l2 2h2q1 2 3 9.5t3 9.5t2.5 2.5t2.5 -1.5l5 -19h3q3 -1 2 -4l-3 -1q1 -9 3 -12q1 -5 -3 -4
q-1 0 -2 2q-3 6 -3 14h-9zM241 374q-3 0 -3 4q0 6 -1 18.5t-1 17.5q0 3 3 3t3 -3q0 -8 1 -19t0 -16h12q-1 3 0 6q0 2 2 1.5t2 -2.5v-2v-3v-3q0 -2 -4 -2h-14zM268 374l-3 3v34q-3 1 -2.5 3t2.5 3h17q3 0 3 -3t-3 -3h-12v-11h10q4 1 4 -3q0 -1 -2 -2q-4 -1 -12 -1v-14l13 1
q5 0 2 -4q-1 -2 -3 -2t-6.5 -0.5t-7.5 -0.5zM218 402q3 1 4.5 3t0.5 4.5t-5 2.5h-4l1 -10h3zM65 396q0 1 -0.5 3t-1 4.5t-0.5 4.5h-1q0 -2 -1 -6.5t-1 -5.5h5zM116 396q-1 2 -3 12q0 -1 -1 -6t-2 -6h6zM192 396q0 1 -0.5 3t-1 4.5t-0.5 4.5h-1q0 -2 -1 -6.5t-1 -5.5h5z
M218 380q8 1 8.5 8t-6.5 9h-5l-1 -17h4zM140 304q2 4 0 13q-2 -1 -2 0q-2 0 -2 2t2 2h2v21q0 4 3 3q2 0 2 -2v-22h13q-1 8 -1 22q0 3 3 3q2 -1 2 -3q0 -8 1 -22t1 -15q0 -2 -2 -3q-3 -2 -3 2q0 8 -1 12h-12v-13q-2 -1 -6 0zM243 302q-9 1 -9 18q0 9 -1 22q0 5 4 3q2 0 2 -2
v-21q0 -14 5 -14q9 0 5 35q0 3 3 2l2 -3l1 -10q1 -10 0 -14q0 -16 -12 -16zM50 303q-2 0 -2 2.5t2 2.5h4v32l-4 -1q-2 0 -2 2.5t2 3.5h13q3 0 3 -2q2 -3 -2 -3h-5v-32h5q2 0 2 -2.5t-2 -2.5q-1 -1 -7 -0.5t-7 0.5zM121 304v36q-5 0 -8 -1q-3 0 -1 4q1 2 2 2h20q1 -2 -1 -6
h-7v-34q-2 -1 -5 -1zM175 302q-3 0 -3 3q-1 1 -1 11v23q-3 1 -2 3t3 3h16q3 0 3 -3t-3 -3h-11l-1 -11h11q4 1 4 -3q0 -1 -2 -2q-5 -1 -12 -1v-14l12 1q6 0 3 -4q-2 -2 -4 -2q-1 0 -5.5 -0.5t-7.5 -0.5zM266 302q-3 0 -3 4q0 6 -1 18.5t-1 17.5q0 3 3 3t3 -3q0 -8 1 -19
t0 -16h12q-2 3 0 6q0 2 2 1.5t2 -2.5v-2v-3v-3q0 -2 -4 -2h-14zM293 302q-3 0 -3 4q1 7 0 20t-1 16t2.5 3t2.5 -3q0 -10 1 -20.5t1 -14.5h11v6q0 2 3 1l2 -2v-8q-1 -2 -4 -2h-15zM208 340q0 4 2 4q12 1 17 0q2 0 2 -3q0 -1 -2 -2q-1 -1 -4 1h-10q0 -12 1 -15h10q2 1 2 -1
q1 -3 -1 -4h-11v-15q0 -2 -3 -2.5t-3 2.5v35zM75 305q0 -4 -4 -2l-1 3q2 17 1 36q0 3 3 2q1 0 2 -2q12 -23 16 -29q-2 16 -2 29q2 1 5 1q0 -3 1 -16.5t0 -19.5q-2 -8 -6 -2q-2 3 -6.5 13t-7.5 14q1 -18 -1 -27zM147 231q-6 -1 -9 3.5t-3 11.5q0 3 2.5 3t2.5 -3q0 -5 2 -8
t6 -2t3.5 5.5t-4.5 8.5l-4.5 4.5t-4.5 6.5q-2 8 3 11t10 -3v3q1 2 4 -1v-10v-2l-3 1q-2 6 -4 7q-3 2 -5 0t0 -5l6 -6q6 -7 7 -13q2 -12 -9 -12zM61 233q-3 6 -6.5 20.5t-4.5 16.5t3 3l2 -1q2 -6 4 -17t4 -17h1q1 14 4 33q1 3 4 2l1 -3q0 -2 -2.5 -17t-3.5 -20q0 -4 -4 -2
q-1 0 -2 2zM84 230q-3 0 -3 3q-1 1 -1 11v23q-3 1 -2 3t3 3h16q3 0 3 -3t-3 -3h-12v-11h11q4 1 4 -3q0 -1 -2 -2q-5 -1 -12 -1v-14l12 1q6 0 3 -4q-2 -2 -4 -2q-1 0 -5.5 -0.5t-7.5 -0.5zM131 231q-5 1 -11 9.5t-7 9.5q0 -10 1 -18q0 -2 -3 -2t-3 2q0 32 -1 35
q-3 0 -3.5 2.5t2.5 3.5h7q16 0 17 -11q0 -7 -7 -9q-1 -1 -4 -1q7 -15 13 -16q2 0 1 -4q0 -2 -2 -1zM162 231q-2 0 -2 2.5t2 2.5h3v32l-4 -1q-3 0 -1 4q0 2 2 2h13q2 -2 1 -5h-5v-32h4q2 0 2 -2.5t-2 -2.5h-13zM191 231q-5 -1 -8.5 4.5t-3.5 13.5q0 15 6 21h1l2 1q1 4 4 1
q4 0 6 -5q6 -5 5 -20.5t-12 -15.5zM212 233q-1 -4 -4 -2l-1 3q2 17 1 36q0 3 3 2q1 0 2 -2q12 -23 16 -29q-2 16 -2 29q2 1 5 1q0 -3 1 -16.5t0 -19.5q-2 -8 -6 -2q-2 3 -6.5 13t-7.5 14q1 -18 -1 -27zM115 255q6 0 8.5 3t0 6.5t-8.5 3.5h-2v-13h2zM188 237q4 -3 7 0
q9 9 0 26q-3 7 -8 1q-4 -5 -3 -14.5t4 -12.5z" />
    <glyph glyph-name="section" unicode="&#xa7;" 
d="M332 451v-261h-319v261h319zM19 196h307v249h-307v-249zM87 377q-4 7 -7.5 21.5t-3.5 15.5q-1 2 3 3q1 1 2 -1q1 -3 3.5 -15t4.5 -19q2 23 5 33q0 3 4 2l1 -3q-2 -7 -3.5 -20t-2.5 -17q-1 -2 -3 -2.5t-3 2.5zM208 376q-5 1 -3 4l4 1q0 3 0.5 8t0.5 8q-3 0 -4 2q-2 3 2 3
h2l-1 10h-1q-2 0 -3 1q-1 3 2 4q21 0 22 -8q0 -7 -7 -9q3 0 6 -3q5 -4 3 -12t-10 -9q-4 -1 -7 0q-3 -5 -6 0zM56 377q-1 -4 -5 -2q-1 1 -1 3l3 13q-3 0 -3 2l2 2h2q2 4 5 19q4 6 6 1l5 -19h3q3 -1 2 -4q-1 -1 -3 -1h-1q1 -6 4 -12q1 -5 -3 -4q-1 0 -2 2t-2.5 7.5t-1.5 6.5
h-8zM106 377q0 -4 -4 -2q-2 0 -1 3q0 2 1 6t1 7q-2 0 -2 2t2 2h2q4 17 5 19t3 2.5t3 -1.5l5 -19h2q4 -1 2 -4l-2 -1h-1q1 -3 2 -7t1 -5q2 -5 -2 -4q-2 0 -3 2q-3 12 -3 14h-8zM130 375q-2 0 -2 2.5t2 2.5h4v32l-4 -1q-4 0 -2 4q0 2 2 2h4h6h3q2 -2 1 -5h-5v-32h4q1 -2 1 -5
h-14zM155 374q-3 0 -3 4q0 6 -1 18.5t-1 17.5q0 3 3 3t3 -3q0 -8 1 -19t0 -16h12q-1 2 -1 6q1 2 3 1.5t2 -2.5v-8q0 -2 -4 -2h-14zM183 377q-1 -4 -5 -2q-1 1 -1 3l3 13q-3 0 -3 2l2 2h2q1 2 3 9.5t3 9.5t2.5 2.5t2.5 -1.5l5 -19h3q3 -1 2 -4l-3 -1q1 -9 3 -12q1 -5 -3 -4
q-1 0 -2 2q-3 6 -3 14h-9zM241 374q-3 0 -3 4q0 6 -1 18.5t-1 17.5q0 3 3 3t3 -3q0 -8 1 -19t0 -16h12q-1 3 0 6q0 2 2 1.5t2 -2.5v-2v-3v-3q0 -2 -4 -2h-14zM268 374l-3 3v34q-3 1 -2.5 3t2.5 3h17q3 0 3 -3t-3 -3h-12v-11h10q4 1 4 -3q0 -1 -2 -2q-4 -1 -12 -1v-14l13 1
q5 0 2 -4q-1 -2 -3 -2t-6.5 -0.5t-7.5 -0.5zM218 402q3 1 4.5 3t0.5 4.5t-5 2.5h-4l1 -10h3zM65 396q0 1 -0.5 3t-1 4.5t-0.5 4.5h-1q0 -2 -1 -6.5t-1 -5.5h5zM116 396q-1 2 -3 12q0 -1 -1 -6t-2 -6h6zM192 396q0 1 -0.5 3t-1 4.5t-0.5 4.5h-1q0 -2 -1 -6.5t-1 -5.5h5z
M218 380q8 1 8.5 8t-6.5 9h-5l-1 -17h4zM140 304q2 4 0 13q-2 -1 -2 0q-2 0 -2 2t2 2h2v21q0 4 3 3q2 0 2 -2v-22h13q-1 8 -1 22q0 3 3 3q2 -1 2 -3q0 -8 1 -22t1 -15q0 -2 -2 -3q-3 -2 -3 2q0 8 -1 12h-12v-13q-2 -1 -6 0zM243 302q-9 1 -9 18q0 9 -1 22q0 5 4 3q2 0 2 -2
v-21q0 -14 5 -14q9 0 5 35q0 3 3 2l2 -3l1 -10q1 -10 0 -14q0 -16 -12 -16zM50 303q-2 0 -2 2.5t2 2.5h4v32l-4 -1q-2 0 -2 2.5t2 3.5h13q3 0 3 -2q2 -3 -2 -3h-5v-32h5q2 0 2 -2.5t-2 -2.5q-1 -1 -7 -0.5t-7 0.5zM121 304v36q-5 0 -8 -1q-3 0 -1 4q1 2 2 2h20q1 -2 -1 -6
h-7v-34q-2 -1 -5 -1zM175 302q-3 0 -3 3q-1 1 -1 11v23q-3 1 -2 3t3 3h16q3 0 3 -3t-3 -3h-11l-1 -11h11q4 1 4 -3q0 -1 -2 -2q-5 -1 -12 -1v-14l12 1q6 0 3 -4q-2 -2 -4 -2q-1 0 -5.5 -0.5t-7.5 -0.5zM266 302q-3 0 -3 4q0 6 -1 18.5t-1 17.5q0 3 3 3t3 -3q0 -8 1 -19
t0 -16h12q-2 3 0 6q0 2 2 1.5t2 -2.5v-2v-3v-3q0 -2 -4 -2h-14zM293 302q-3 0 -3 4q1 7 0 20t-1 16t2.5 3t2.5 -3q0 -10 1 -20.5t1 -14.5h11v6q0 2 3 1l2 -2v-8q-1 -2 -4 -2h-15zM208 340q0 4 2 4q12 1 17 0q2 0 2 -3q0 -1 -2 -2q-1 -1 -4 1h-10q0 -12 1 -15h10q2 1 2 -1
q1 -3 -1 -4h-11v-15q0 -2 -3 -2.5t-3 2.5v35zM75 305q0 -4 -4 -2l-1 3q2 17 1 36q0 3 3 2q1 0 2 -2q12 -23 16 -29q-2 16 -2 29q2 1 5 1q0 -3 1 -16.5t0 -19.5q-2 -8 -6 -2q-2 3 -6.5 13t-7.5 14q1 -18 -1 -27zM147 231q-6 -1 -9 3.5t-3 11.5q0 3 2.5 3t2.5 -3q0 -5 2 -8
t6 -2t3.5 5.5t-4.5 8.5l-4.5 4.5t-4.5 6.5q-2 8 3 11t10 -3v3q1 2 4 -1v-10v-2l-3 1q-2 6 -4 7q-3 2 -5 0t0 -5l6 -6q6 -7 7 -13q2 -12 -9 -12zM61 233q-3 6 -6.5 20.5t-4.5 16.5t3 3l2 -1q2 -6 4 -17t4 -17h1q1 14 4 33q1 3 4 2l1 -3q0 -2 -2.5 -17t-3.5 -20q0 -4 -4 -2
q-1 0 -2 2zM84 230q-3 0 -3 3q-1 1 -1 11v23q-3 1 -2 3t3 3h16q3 0 3 -3t-3 -3h-12v-11h11q4 1 4 -3q0 -1 -2 -2q-5 -1 -12 -1v-14l12 1q6 0 3 -4q-2 -2 -4 -2q-1 0 -5.5 -0.5t-7.5 -0.5zM131 231q-5 1 -11 9.5t-7 9.5q0 -10 1 -18q0 -2 -3 -2t-3 2q0 32 -1 35
q-3 0 -3.5 2.5t2.5 3.5h7q16 0 17 -11q0 -7 -7 -9q-1 -1 -4 -1q7 -15 13 -16q2 0 1 -4q0 -2 -2 -1zM162 231q-2 0 -2 2.5t2 2.5h3v32l-4 -1q-3 0 -1 4q0 2 2 2h13q2 -2 1 -5h-5v-32h4q2 0 2 -2.5t-2 -2.5h-13zM191 231q-5 -1 -8.5 4.5t-3.5 13.5q0 15 6 21h1l2 1q1 4 4 1
q4 0 6 -5q6 -5 5 -20.5t-12 -15.5zM212 233q-1 -4 -4 -2l-1 3q2 17 1 36q0 3 3 2q1 0 2 -2q12 -23 16 -29q-2 16 -2 29q2 1 5 1q0 -3 1 -16.5t0 -19.5q-2 -8 -6 -2q-2 3 -6.5 13t-7.5 14q1 -18 -1 -27zM115 255q6 0 8.5 3t0 6.5t-8.5 3.5h-2v-13h2zM188 237q4 -3 7 0
q9 9 0 26q-3 7 -8 1q-4 -5 -3 -14.5t4 -12.5z" />
    <glyph glyph-name="dieresis" unicode="&#xa8;" horiz-adv-x="178" 
d="M132 790q6 0 7.5 -6t-1 -12t-8.5 -6q-21 0 -21 12q0 11 23 12zM50 789q24 0 24 -12q0 -13 -21 -13q-7 0 -10 6t-1 12.5t8 6.5z" />
    <glyph glyph-name="copyright" unicode="&#xa9;" 
d="M332 451v-261h-319v261h319zM19 196h307v249h-307v-249zM87 377q-4 7 -7.5 21.5t-3.5 15.5q-1 2 3 3q1 1 2 -1q1 -3 3.5 -15t4.5 -19q2 23 5 33q0 3 4 2l1 -3q-2 -7 -3.5 -20t-2.5 -17q-1 -2 -3 -2.5t-3 2.5zM208 376q-5 1 -3 4l4 1q0 3 0.5 8t0.5 8q-3 0 -4 2q-2 3 2 3
h2l-1 10h-1q-2 0 -3 1q-1 3 2 4q21 0 22 -8q0 -7 -7 -9q3 0 6 -3q5 -4 3 -12t-10 -9q-4 -1 -7 0q-3 -5 -6 0zM56 377q-1 -4 -5 -2q-1 1 -1 3l3 13q-3 0 -3 2l2 2h2q2 4 5 19q4 6 6 1l5 -19h3q3 -1 2 -4q-1 -1 -3 -1h-1q1 -6 4 -12q1 -5 -3 -4q-1 0 -2 2t-2.5 7.5t-1.5 6.5
h-8zM106 377q0 -4 -4 -2q-2 0 -1 3q0 2 1 6t1 7q-2 0 -2 2t2 2h2q4 17 5 19t3 2.5t3 -1.5l5 -19h2q4 -1 2 -4l-2 -1h-1q1 -3 2 -7t1 -5q2 -5 -2 -4q-2 0 -3 2q-3 12 -3 14h-8zM130 375q-2 0 -2 2.5t2 2.5h4v32l-4 -1q-4 0 -2 4q0 2 2 2h4h6h3q2 -2 1 -5h-5v-32h4q1 -2 1 -5
h-14zM155 374q-3 0 -3 4q0 6 -1 18.5t-1 17.5q0 3 3 3t3 -3q0 -8 1 -19t0 -16h12q-1 2 -1 6q1 2 3 1.5t2 -2.5v-8q0 -2 -4 -2h-14zM183 377q-1 -4 -5 -2q-1 1 -1 3l3 13q-3 0 -3 2l2 2h2q1 2 3 9.5t3 9.5t2.5 2.5t2.5 -1.5l5 -19h3q3 -1 2 -4l-3 -1q1 -9 3 -12q1 -5 -3 -4
q-1 0 -2 2q-3 6 -3 14h-9zM241 374q-3 0 -3 4q0 6 -1 18.5t-1 17.5q0 3 3 3t3 -3q0 -8 1 -19t0 -16h12q-1 3 0 6q0 2 2 1.5t2 -2.5v-2v-3v-3q0 -2 -4 -2h-14zM268 374l-3 3v34q-3 1 -2.5 3t2.5 3h17q3 0 3 -3t-3 -3h-12v-11h10q4 1 4 -3q0 -1 -2 -2q-4 -1 -12 -1v-14l13 1
q5 0 2 -4q-1 -2 -3 -2t-6.5 -0.5t-7.5 -0.5zM218 402q3 1 4.5 3t0.5 4.5t-5 2.5h-4l1 -10h3zM65 396q0 1 -0.5 3t-1 4.5t-0.5 4.5h-1q0 -2 -1 -6.5t-1 -5.5h5zM116 396q-1 2 -3 12q0 -1 -1 -6t-2 -6h6zM192 396q0 1 -0.5 3t-1 4.5t-0.5 4.5h-1q0 -2 -1 -6.5t-1 -5.5h5z
M218 380q8 1 8.5 8t-6.5 9h-5l-1 -17h4zM140 304q2 4 0 13q-2 -1 -2 0q-2 0 -2 2t2 2h2v21q0 4 3 3q2 0 2 -2v-22h13q-1 8 -1 22q0 3 3 3q2 -1 2 -3q0 -8 1 -22t1 -15q0 -2 -2 -3q-3 -2 -3 2q0 8 -1 12h-12v-13q-2 -1 -6 0zM243 302q-9 1 -9 18q0 9 -1 22q0 5 4 3q2 0 2 -2
v-21q0 -14 5 -14q9 0 5 35q0 3 3 2l2 -3l1 -10q1 -10 0 -14q0 -16 -12 -16zM50 303q-2 0 -2 2.5t2 2.5h4v32l-4 -1q-2 0 -2 2.5t2 3.5h13q3 0 3 -2q2 -3 -2 -3h-5v-32h5q2 0 2 -2.5t-2 -2.5q-1 -1 -7 -0.5t-7 0.5zM121 304v36q-5 0 -8 -1q-3 0 -1 4q1 2 2 2h20q1 -2 -1 -6
h-7v-34q-2 -1 -5 -1zM175 302q-3 0 -3 3q-1 1 -1 11v23q-3 1 -2 3t3 3h16q3 0 3 -3t-3 -3h-11l-1 -11h11q4 1 4 -3q0 -1 -2 -2q-5 -1 -12 -1v-14l12 1q6 0 3 -4q-2 -2 -4 -2q-1 0 -5.5 -0.5t-7.5 -0.5zM266 302q-3 0 -3 4q0 6 -1 18.5t-1 17.5q0 3 3 3t3 -3q0 -8 1 -19
t0 -16h12q-2 3 0 6q0 2 2 1.5t2 -2.5v-2v-3v-3q0 -2 -4 -2h-14zM293 302q-3 0 -3 4q1 7 0 20t-1 16t2.5 3t2.5 -3q0 -10 1 -20.5t1 -14.5h11v6q0 2 3 1l2 -2v-8q-1 -2 -4 -2h-15zM208 340q0 4 2 4q12 1 17 0q2 0 2 -3q0 -1 -2 -2q-1 -1 -4 1h-10q0 -12 1 -15h10q2 1 2 -1
q1 -3 -1 -4h-11v-15q0 -2 -3 -2.5t-3 2.5v35zM75 305q0 -4 -4 -2l-1 3q2 17 1 36q0 3 3 2q1 0 2 -2q12 -23 16 -29q-2 16 -2 29q2 1 5 1q0 -3 1 -16.5t0 -19.5q-2 -8 -6 -2q-2 3 -6.5 13t-7.5 14q1 -18 -1 -27zM147 231q-6 -1 -9 3.5t-3 11.5q0 3 2.5 3t2.5 -3q0 -5 2 -8
t6 -2t3.5 5.5t-4.5 8.5l-4.5 4.5t-4.5 6.5q-2 8 3 11t10 -3v3q1 2 4 -1v-10v-2l-3 1q-2 6 -4 7q-3 2 -5 0t0 -5l6 -6q6 -7 7 -13q2 -12 -9 -12zM61 233q-3 6 -6.5 20.5t-4.5 16.5t3 3l2 -1q2 -6 4 -17t4 -17h1q1 14 4 33q1 3 4 2l1 -3q0 -2 -2.5 -17t-3.5 -20q0 -4 -4 -2
q-1 0 -2 2zM84 230q-3 0 -3 3q-1 1 -1 11v23q-3 1 -2 3t3 3h16q3 0 3 -3t-3 -3h-12v-11h11q4 1 4 -3q0 -1 -2 -2q-5 -1 -12 -1v-14l12 1q6 0 3 -4q-2 -2 -4 -2q-1 0 -5.5 -0.5t-7.5 -0.5zM131 231q-5 1 -11 9.5t-7 9.5q0 -10 1 -18q0 -2 -3 -2t-3 2q0 32 -1 35
q-3 0 -3.5 2.5t2.5 3.5h7q16 0 17 -11q0 -7 -7 -9q-1 -1 -4 -1q7 -15 13 -16q2 0 1 -4q0 -2 -2 -1zM162 231q-2 0 -2 2.5t2 2.5h3v32l-4 -1q-3 0 -1 4q0 2 2 2h13q2 -2 1 -5h-5v-32h4q2 0 2 -2.5t-2 -2.5h-13zM191 231q-5 -1 -8.5 4.5t-3.5 13.5q0 15 6 21h1l2 1q1 4 4 1
q4 0 6 -5q6 -5 5 -20.5t-12 -15.5zM212 233q-1 -4 -4 -2l-1 3q2 17 1 36q0 3 3 2q1 0 2 -2q12 -23 16 -29q-2 16 -2 29q2 1 5 1q0 -3 1 -16.5t0 -19.5q-2 -8 -6 -2q-2 3 -6.5 13t-7.5 14q1 -18 -1 -27zM115 255q6 0 8.5 3t0 6.5t-8.5 3.5h-2v-13h2zM188 237q4 -3 7 0
q9 9 0 26q-3 7 -8 1q-4 -5 -3 -14.5t4 -12.5z" />
    <glyph glyph-name="guillemotleft" unicode="&#xab;" 
d="M332 451v-261h-319v261h319zM19 196h307v249h-307v-249zM87 377q-4 7 -7.5 21.5t-3.5 15.5q-1 2 3 3q1 1 2 -1q1 -3 3.5 -15t4.5 -19q2 23 5 33q0 3 4 2l1 -3q-2 -7 -3.5 -20t-2.5 -17q-1 -2 -3 -2.5t-3 2.5zM208 376q-5 1 -3 4l4 1q0 3 0.5 8t0.5 8q-3 0 -4 2q-2 3 2 3
h2l-1 10h-1q-2 0 -3 1q-1 3 2 4q21 0 22 -8q0 -7 -7 -9q3 0 6 -3q5 -4 3 -12t-10 -9q-4 -1 -7 0q-3 -5 -6 0zM56 377q-1 -4 -5 -2q-1 1 -1 3l3 13q-3 0 -3 2l2 2h2q2 4 5 19q4 6 6 1l5 -19h3q3 -1 2 -4q-1 -1 -3 -1h-1q1 -6 4 -12q1 -5 -3 -4q-1 0 -2 2t-2.5 7.5t-1.5 6.5
h-8zM106 377q0 -4 -4 -2q-2 0 -1 3q0 2 1 6t1 7q-2 0 -2 2t2 2h2q4 17 5 19t3 2.5t3 -1.5l5 -19h2q4 -1 2 -4l-2 -1h-1q1 -3 2 -7t1 -5q2 -5 -2 -4q-2 0 -3 2q-3 12 -3 14h-8zM130 375q-2 0 -2 2.5t2 2.5h4v32l-4 -1q-4 0 -2 4q0 2 2 2h4h6h3q2 -2 1 -5h-5v-32h4q1 -2 1 -5
h-14zM155 374q-3 0 -3 4q0 6 -1 18.5t-1 17.5q0 3 3 3t3 -3q0 -8 1 -19t0 -16h12q-1 2 -1 6q1 2 3 1.5t2 -2.5v-8q0 -2 -4 -2h-14zM183 377q-1 -4 -5 -2q-1 1 -1 3l3 13q-3 0 -3 2l2 2h2q1 2 3 9.5t3 9.5t2.5 2.5t2.5 -1.5l5 -19h3q3 -1 2 -4l-3 -1q1 -9 3 -12q1 -5 -3 -4
q-1 0 -2 2q-3 6 -3 14h-9zM241 374q-3 0 -3 4q0 6 -1 18.5t-1 17.5q0 3 3 3t3 -3q0 -8 1 -19t0 -16h12q-1 3 0 6q0 2 2 1.5t2 -2.5v-2v-3v-3q0 -2 -4 -2h-14zM268 374l-3 3v34q-3 1 -2.5 3t2.5 3h17q3 0 3 -3t-3 -3h-12v-11h10q4 1 4 -3q0 -1 -2 -2q-4 -1 -12 -1v-14l13 1
q5 0 2 -4q-1 -2 -3 -2t-6.5 -0.5t-7.5 -0.5zM218 402q3 1 4.5 3t0.5 4.5t-5 2.5h-4l1 -10h3zM65 396q0 1 -0.5 3t-1 4.5t-0.5 4.5h-1q0 -2 -1 -6.5t-1 -5.5h5zM116 396q-1 2 -3 12q0 -1 -1 -6t-2 -6h6zM192 396q0 1 -0.5 3t-1 4.5t-0.5 4.5h-1q0 -2 -1 -6.5t-1 -5.5h5z
M218 380q8 1 8.5 8t-6.5 9h-5l-1 -17h4zM140 304q2 4 0 13q-2 -1 -2 0q-2 0 -2 2t2 2h2v21q0 4 3 3q2 0 2 -2v-22h13q-1 8 -1 22q0 3 3 3q2 -1 2 -3q0 -8 1 -22t1 -15q0 -2 -2 -3q-3 -2 -3 2q0 8 -1 12h-12v-13q-2 -1 -6 0zM243 302q-9 1 -9 18q0 9 -1 22q0 5 4 3q2 0 2 -2
v-21q0 -14 5 -14q9 0 5 35q0 3 3 2l2 -3l1 -10q1 -10 0 -14q0 -16 -12 -16zM50 303q-2 0 -2 2.5t2 2.5h4v32l-4 -1q-2 0 -2 2.5t2 3.5h13q3 0 3 -2q2 -3 -2 -3h-5v-32h5q2 0 2 -2.5t-2 -2.5q-1 -1 -7 -0.5t-7 0.5zM121 304v36q-5 0 -8 -1q-3 0 -1 4q1 2 2 2h20q1 -2 -1 -6
h-7v-34q-2 -1 -5 -1zM175 302q-3 0 -3 3q-1 1 -1 11v23q-3 1 -2 3t3 3h16q3 0 3 -3t-3 -3h-11l-1 -11h11q4 1 4 -3q0 -1 -2 -2q-5 -1 -12 -1v-14l12 1q6 0 3 -4q-2 -2 -4 -2q-1 0 -5.5 -0.5t-7.5 -0.5zM266 302q-3 0 -3 4q0 6 -1 18.5t-1 17.5q0 3 3 3t3 -3q0 -8 1 -19
t0 -16h12q-2 3 0 6q0 2 2 1.5t2 -2.5v-2v-3v-3q0 -2 -4 -2h-14zM293 302q-3 0 -3 4q1 7 0 20t-1 16t2.5 3t2.5 -3q0 -10 1 -20.5t1 -14.5h11v6q0 2 3 1l2 -2v-8q-1 -2 -4 -2h-15zM208 340q0 4 2 4q12 1 17 0q2 0 2 -3q0 -1 -2 -2q-1 -1 -4 1h-10q0 -12 1 -15h10q2 1 2 -1
q1 -3 -1 -4h-11v-15q0 -2 -3 -2.5t-3 2.5v35zM75 305q0 -4 -4 -2l-1 3q2 17 1 36q0 3 3 2q1 0 2 -2q12 -23 16 -29q-2 16 -2 29q2 1 5 1q0 -3 1 -16.5t0 -19.5q-2 -8 -6 -2q-2 3 -6.5 13t-7.5 14q1 -18 -1 -27zM147 231q-6 -1 -9 3.5t-3 11.5q0 3 2.5 3t2.5 -3q0 -5 2 -8
t6 -2t3.5 5.5t-4.5 8.5l-4.5 4.5t-4.5 6.5q-2 8 3 11t10 -3v3q1 2 4 -1v-10v-2l-3 1q-2 6 -4 7q-3 2 -5 0t0 -5l6 -6q6 -7 7 -13q2 -12 -9 -12zM61 233q-3 6 -6.5 20.5t-4.5 16.5t3 3l2 -1q2 -6 4 -17t4 -17h1q1 14 4 33q1 3 4 2l1 -3q0 -2 -2.5 -17t-3.5 -20q0 -4 -4 -2
q-1 0 -2 2zM84 230q-3 0 -3 3q-1 1 -1 11v23q-3 1 -2 3t3 3h16q3 0 3 -3t-3 -3h-12v-11h11q4 1 4 -3q0 -1 -2 -2q-5 -1 -12 -1v-14l12 1q6 0 3 -4q-2 -2 -4 -2q-1 0 -5.5 -0.5t-7.5 -0.5zM131 231q-5 1 -11 9.5t-7 9.5q0 -10 1 -18q0 -2 -3 -2t-3 2q0 32 -1 35
q-3 0 -3.5 2.5t2.5 3.5h7q16 0 17 -11q0 -7 -7 -9q-1 -1 -4 -1q7 -15 13 -16q2 0 1 -4q0 -2 -2 -1zM162 231q-2 0 -2 2.5t2 2.5h3v32l-4 -1q-3 0 -1 4q0 2 2 2h13q2 -2 1 -5h-5v-32h4q2 0 2 -2.5t-2 -2.5h-13zM191 231q-5 -1 -8.5 4.5t-3.5 13.5q0 15 6 21h1l2 1q1 4 4 1
q4 0 6 -5q6 -5 5 -20.5t-12 -15.5zM212 233q-1 -4 -4 -2l-1 3q2 17 1 36q0 3 3 2q1 0 2 -2q12 -23 16 -29q-2 16 -2 29q2 1 5 1q0 -3 1 -16.5t0 -19.5q-2 -8 -6 -2q-2 3 -6.5 13t-7.5 14q1 -18 -1 -27zM115 255q6 0 8.5 3t0 6.5t-8.5 3.5h-2v-13h2zM188 237q4 -3 7 0
q9 9 0 26q-3 7 -8 1q-4 -5 -3 -14.5t4 -12.5z" />
    <glyph glyph-name="logicalnot" unicode="&#xac;" 
d="M332 451v-261h-319v261h319zM19 196h307v249h-307v-249zM87 377q-4 7 -7.5 21.5t-3.5 15.5q-1 2 3 3q1 1 2 -1q1 -3 3.5 -15t4.5 -19q2 23 5 33q0 3 4 2l1 -3q-2 -7 -3.5 -20t-2.5 -17q-1 -2 -3 -2.5t-3 2.5zM208 376q-5 1 -3 4l4 1q0 3 0.5 8t0.5 8q-3 0 -4 2q-2 3 2 3
h2l-1 10h-1q-2 0 -3 1q-1 3 2 4q21 0 22 -8q0 -7 -7 -9q3 0 6 -3q5 -4 3 -12t-10 -9q-4 -1 -7 0q-3 -5 -6 0zM56 377q-1 -4 -5 -2q-1 1 -1 3l3 13q-3 0 -3 2l2 2h2q2 4 5 19q4 6 6 1l5 -19h3q3 -1 2 -4q-1 -1 -3 -1h-1q1 -6 4 -12q1 -5 -3 -4q-1 0 -2 2t-2.5 7.5t-1.5 6.5
h-8zM106 377q0 -4 -4 -2q-2 0 -1 3q0 2 1 6t1 7q-2 0 -2 2t2 2h2q4 17 5 19t3 2.5t3 -1.5l5 -19h2q4 -1 2 -4l-2 -1h-1q1 -3 2 -7t1 -5q2 -5 -2 -4q-2 0 -3 2q-3 12 -3 14h-8zM130 375q-2 0 -2 2.5t2 2.5h4v32l-4 -1q-4 0 -2 4q0 2 2 2h4h6h3q2 -2 1 -5h-5v-32h4q1 -2 1 -5
h-14zM155 374q-3 0 -3 4q0 6 -1 18.5t-1 17.5q0 3 3 3t3 -3q0 -8 1 -19t0 -16h12q-1 2 -1 6q1 2 3 1.5t2 -2.5v-8q0 -2 -4 -2h-14zM183 377q-1 -4 -5 -2q-1 1 -1 3l3 13q-3 0 -3 2l2 2h2q1 2 3 9.5t3 9.5t2.5 2.5t2.5 -1.5l5 -19h3q3 -1 2 -4l-3 -1q1 -9 3 -12q1 -5 -3 -4
q-1 0 -2 2q-3 6 -3 14h-9zM241 374q-3 0 -3 4q0 6 -1 18.5t-1 17.5q0 3 3 3t3 -3q0 -8 1 -19t0 -16h12q-1 3 0 6q0 2 2 1.5t2 -2.5v-2v-3v-3q0 -2 -4 -2h-14zM268 374l-3 3v34q-3 1 -2.5 3t2.5 3h17q3 0 3 -3t-3 -3h-12v-11h10q4 1 4 -3q0 -1 -2 -2q-4 -1 -12 -1v-14l13 1
q5 0 2 -4q-1 -2 -3 -2t-6.5 -0.5t-7.5 -0.5zM218 402q3 1 4.5 3t0.5 4.5t-5 2.5h-4l1 -10h3zM65 396q0 1 -0.5 3t-1 4.5t-0.5 4.5h-1q0 -2 -1 -6.5t-1 -5.5h5zM116 396q-1 2 -3 12q0 -1 -1 -6t-2 -6h6zM192 396q0 1 -0.5 3t-1 4.5t-0.5 4.5h-1q0 -2 -1 -6.5t-1 -5.5h5z
M218 380q8 1 8.5 8t-6.5 9h-5l-1 -17h4zM140 304q2 4 0 13q-2 -1 -2 0q-2 0 -2 2t2 2h2v21q0 4 3 3q2 0 2 -2v-22h13q-1 8 -1 22q0 3 3 3q2 -1 2 -3q0 -8 1 -22t1 -15q0 -2 -2 -3q-3 -2 -3 2q0 8 -1 12h-12v-13q-2 -1 -6 0zM243 302q-9 1 -9 18q0 9 -1 22q0 5 4 3q2 0 2 -2
v-21q0 -14 5 -14q9 0 5 35q0 3 3 2l2 -3l1 -10q1 -10 0 -14q0 -16 -12 -16zM50 303q-2 0 -2 2.5t2 2.5h4v32l-4 -1q-2 0 -2 2.5t2 3.5h13q3 0 3 -2q2 -3 -2 -3h-5v-32h5q2 0 2 -2.5t-2 -2.5q-1 -1 -7 -0.5t-7 0.5zM121 304v36q-5 0 -8 -1q-3 0 -1 4q1 2 2 2h20q1 -2 -1 -6
h-7v-34q-2 -1 -5 -1zM175 302q-3 0 -3 3q-1 1 -1 11v23q-3 1 -2 3t3 3h16q3 0 3 -3t-3 -3h-11l-1 -11h11q4 1 4 -3q0 -1 -2 -2q-5 -1 -12 -1v-14l12 1q6 0 3 -4q-2 -2 -4 -2q-1 0 -5.5 -0.5t-7.5 -0.5zM266 302q-3 0 -3 4q0 6 -1 18.5t-1 17.5q0 3 3 3t3 -3q0 -8 1 -19
t0 -16h12q-2 3 0 6q0 2 2 1.5t2 -2.5v-2v-3v-3q0 -2 -4 -2h-14zM293 302q-3 0 -3 4q1 7 0 20t-1 16t2.5 3t2.5 -3q0 -10 1 -20.5t1 -14.5h11v6q0 2 3 1l2 -2v-8q-1 -2 -4 -2h-15zM208 340q0 4 2 4q12 1 17 0q2 0 2 -3q0 -1 -2 -2q-1 -1 -4 1h-10q0 -12 1 -15h10q2 1 2 -1
q1 -3 -1 -4h-11v-15q0 -2 -3 -2.5t-3 2.5v35zM75 305q0 -4 -4 -2l-1 3q2 17 1 36q0 3 3 2q1 0 2 -2q12 -23 16 -29q-2 16 -2 29q2 1 5 1q0 -3 1 -16.5t0 -19.5q-2 -8 -6 -2q-2 3 -6.5 13t-7.5 14q1 -18 -1 -27zM147 231q-6 -1 -9 3.5t-3 11.5q0 3 2.5 3t2.5 -3q0 -5 2 -8
t6 -2t3.5 5.5t-4.5 8.5l-4.5 4.5t-4.5 6.5q-2 8 3 11t10 -3v3q1 2 4 -1v-10v-2l-3 1q-2 6 -4 7q-3 2 -5 0t0 -5l6 -6q6 -7 7 -13q2 -12 -9 -12zM61 233q-3 6 -6.5 20.5t-4.5 16.5t3 3l2 -1q2 -6 4 -17t4 -17h1q1 14 4 33q1 3 4 2l1 -3q0 -2 -2.5 -17t-3.5 -20q0 -4 -4 -2
q-1 0 -2 2zM84 230q-3 0 -3 3q-1 1 -1 11v23q-3 1 -2 3t3 3h16q3 0 3 -3t-3 -3h-12v-11h11q4 1 4 -3q0 -1 -2 -2q-5 -1 -12 -1v-14l12 1q6 0 3 -4q-2 -2 -4 -2q-1 0 -5.5 -0.5t-7.5 -0.5zM131 231q-5 1 -11 9.5t-7 9.5q0 -10 1 -18q0 -2 -3 -2t-3 2q0 32 -1 35
q-3 0 -3.5 2.5t2.5 3.5h7q16 0 17 -11q0 -7 -7 -9q-1 -1 -4 -1q7 -15 13 -16q2 0 1 -4q0 -2 -2 -1zM162 231q-2 0 -2 2.5t2 2.5h3v32l-4 -1q-3 0 -1 4q0 2 2 2h13q2 -2 1 -5h-5v-32h4q2 0 2 -2.5t-2 -2.5h-13zM191 231q-5 -1 -8.5 4.5t-3.5 13.5q0 15 6 21h1l2 1q1 4 4 1
q4 0 6 -5q6 -5 5 -20.5t-12 -15.5zM212 233q-1 -4 -4 -2l-1 3q2 17 1 36q0 3 3 2q1 0 2 -2q12 -23 16 -29q-2 16 -2 29q2 1 5 1q0 -3 1 -16.5t0 -19.5q-2 -8 -6 -2q-2 3 -6.5 13t-7.5 14q1 -18 -1 -27zM115 255q6 0 8.5 3t0 6.5t-8.5 3.5h-2v-13h2zM188 237q4 -3 7 0
q9 9 0 26q-3 7 -8 1q-4 -5 -3 -14.5t4 -12.5z" />
    <glyph glyph-name="registered" unicode="&#xae;" 
d="M332 451v-261h-319v261h319zM19 196h307v249h-307v-249zM87 377q-4 7 -7.5 21.5t-3.5 15.5q-1 2 3 3q1 1 2 -1q1 -3 3.5 -15t4.5 -19q2 23 5 33q0 3 4 2l1 -3q-2 -7 -3.5 -20t-2.5 -17q-1 -2 -3 -2.5t-3 2.5zM208 376q-5 1 -3 4l4 1q0 3 0.5 8t0.5 8q-3 0 -4 2q-2 3 2 3
h2l-1 10h-1q-2 0 -3 1q-1 3 2 4q21 0 22 -8q0 -7 -7 -9q3 0 6 -3q5 -4 3 -12t-10 -9q-4 -1 -7 0q-3 -5 -6 0zM56 377q-1 -4 -5 -2q-1 1 -1 3l3 13q-3 0 -3 2l2 2h2q2 4 5 19q4 6 6 1l5 -19h3q3 -1 2 -4q-1 -1 -3 -1h-1q1 -6 4 -12q1 -5 -3 -4q-1 0 -2 2t-2.5 7.5t-1.5 6.5
h-8zM106 377q0 -4 -4 -2q-2 0 -1 3q0 2 1 6t1 7q-2 0 -2 2t2 2h2q4 17 5 19t3 2.5t3 -1.5l5 -19h2q4 -1 2 -4l-2 -1h-1q1 -3 2 -7t1 -5q2 -5 -2 -4q-2 0 -3 2q-3 12 -3 14h-8zM130 375q-2 0 -2 2.5t2 2.5h4v32l-4 -1q-4 0 -2 4q0 2 2 2h4h6h3q2 -2 1 -5h-5v-32h4q1 -2 1 -5
h-14zM155 374q-3 0 -3 4q0 6 -1 18.5t-1 17.5q0 3 3 3t3 -3q0 -8 1 -19t0 -16h12q-1 2 -1 6q1 2 3 1.5t2 -2.5v-8q0 -2 -4 -2h-14zM183 377q-1 -4 -5 -2q-1 1 -1 3l3 13q-3 0 -3 2l2 2h2q1 2 3 9.5t3 9.5t2.5 2.5t2.5 -1.5l5 -19h3q3 -1 2 -4l-3 -1q1 -9 3 -12q1 -5 -3 -4
q-1 0 -2 2q-3 6 -3 14h-9zM241 374q-3 0 -3 4q0 6 -1 18.5t-1 17.5q0 3 3 3t3 -3q0 -8 1 -19t0 -16h12q-1 3 0 6q0 2 2 1.5t2 -2.5v-2v-3v-3q0 -2 -4 -2h-14zM268 374l-3 3v34q-3 1 -2.5 3t2.5 3h17q3 0 3 -3t-3 -3h-12v-11h10q4 1 4 -3q0 -1 -2 -2q-4 -1 -12 -1v-14l13 1
q5 0 2 -4q-1 -2 -3 -2t-6.5 -0.5t-7.5 -0.5zM218 402q3 1 4.5 3t0.5 4.5t-5 2.5h-4l1 -10h3zM65 396q0 1 -0.5 3t-1 4.5t-0.5 4.5h-1q0 -2 -1 -6.5t-1 -5.5h5zM116 396q-1 2 -3 12q0 -1 -1 -6t-2 -6h6zM192 396q0 1 -0.5 3t-1 4.5t-0.5 4.5h-1q0 -2 -1 -6.5t-1 -5.5h5z
M218 380q8 1 8.5 8t-6.5 9h-5l-1 -17h4zM140 304q2 4 0 13q-2 -1 -2 0q-2 0 -2 2t2 2h2v21q0 4 3 3q2 0 2 -2v-22h13q-1 8 -1 22q0 3 3 3q2 -1 2 -3q0 -8 1 -22t1 -15q0 -2 -2 -3q-3 -2 -3 2q0 8 -1 12h-12v-13q-2 -1 -6 0zM243 302q-9 1 -9 18q0 9 -1 22q0 5 4 3q2 0 2 -2
v-21q0 -14 5 -14q9 0 5 35q0 3 3 2l2 -3l1 -10q1 -10 0 -14q0 -16 -12 -16zM50 303q-2 0 -2 2.5t2 2.5h4v32l-4 -1q-2 0 -2 2.5t2 3.5h13q3 0 3 -2q2 -3 -2 -3h-5v-32h5q2 0 2 -2.5t-2 -2.5q-1 -1 -7 -0.5t-7 0.5zM121 304v36q-5 0 -8 -1q-3 0 -1 4q1 2 2 2h20q1 -2 -1 -6
h-7v-34q-2 -1 -5 -1zM175 302q-3 0 -3 3q-1 1 -1 11v23q-3 1 -2 3t3 3h16q3 0 3 -3t-3 -3h-11l-1 -11h11q4 1 4 -3q0 -1 -2 -2q-5 -1 -12 -1v-14l12 1q6 0 3 -4q-2 -2 -4 -2q-1 0 -5.5 -0.5t-7.5 -0.5zM266 302q-3 0 -3 4q0 6 -1 18.5t-1 17.5q0 3 3 3t3 -3q0 -8 1 -19
t0 -16h12q-2 3 0 6q0 2 2 1.5t2 -2.5v-2v-3v-3q0 -2 -4 -2h-14zM293 302q-3 0 -3 4q1 7 0 20t-1 16t2.5 3t2.5 -3q0 -10 1 -20.5t1 -14.5h11v6q0 2 3 1l2 -2v-8q-1 -2 -4 -2h-15zM208 340q0 4 2 4q12 1 17 0q2 0 2 -3q0 -1 -2 -2q-1 -1 -4 1h-10q0 -12 1 -15h10q2 1 2 -1
q1 -3 -1 -4h-11v-15q0 -2 -3 -2.5t-3 2.5v35zM75 305q0 -4 -4 -2l-1 3q2 17 1 36q0 3 3 2q1 0 2 -2q12 -23 16 -29q-2 16 -2 29q2 1 5 1q0 -3 1 -16.5t0 -19.5q-2 -8 -6 -2q-2 3 -6.5 13t-7.5 14q1 -18 -1 -27zM147 231q-6 -1 -9 3.5t-3 11.5q0 3 2.5 3t2.5 -3q0 -5 2 -8
t6 -2t3.5 5.5t-4.5 8.5l-4.5 4.5t-4.5 6.5q-2 8 3 11t10 -3v3q1 2 4 -1v-10v-2l-3 1q-2 6 -4 7q-3 2 -5 0t0 -5l6 -6q6 -7 7 -13q2 -12 -9 -12zM61 233q-3 6 -6.5 20.5t-4.5 16.5t3 3l2 -1q2 -6 4 -17t4 -17h1q1 14 4 33q1 3 4 2l1 -3q0 -2 -2.5 -17t-3.5 -20q0 -4 -4 -2
q-1 0 -2 2zM84 230q-3 0 -3 3q-1 1 -1 11v23q-3 1 -2 3t3 3h16q3 0 3 -3t-3 -3h-12v-11h11q4 1 4 -3q0 -1 -2 -2q-5 -1 -12 -1v-14l12 1q6 0 3 -4q-2 -2 -4 -2q-1 0 -5.5 -0.5t-7.5 -0.5zM131 231q-5 1 -11 9.5t-7 9.5q0 -10 1 -18q0 -2 -3 -2t-3 2q0 32 -1 35
q-3 0 -3.5 2.5t2.5 3.5h7q16 0 17 -11q0 -7 -7 -9q-1 -1 -4 -1q7 -15 13 -16q2 0 1 -4q0 -2 -2 -1zM162 231q-2 0 -2 2.5t2 2.5h3v32l-4 -1q-3 0 -1 4q0 2 2 2h13q2 -2 1 -5h-5v-32h4q2 0 2 -2.5t-2 -2.5h-13zM191 231q-5 -1 -8.5 4.5t-3.5 13.5q0 15 6 21h1l2 1q1 4 4 1
q4 0 6 -5q6 -5 5 -20.5t-12 -15.5zM212 233q-1 -4 -4 -2l-1 3q2 17 1 36q0 3 3 2q1 0 2 -2q12 -23 16 -29q-2 16 -2 29q2 1 5 1q0 -3 1 -16.5t0 -19.5q-2 -8 -6 -2q-2 3 -6.5 13t-7.5 14q1 -18 -1 -27zM115 255q6 0 8.5 3t0 6.5t-8.5 3.5h-2v-13h2zM188 237q4 -3 7 0
q9 9 0 26q-3 7 -8 1q-4 -5 -3 -14.5t4 -12.5z" />
    <glyph glyph-name="macron" unicode="&#xaf;" horiz-adv-x="202" 
d="M146 785q8 0 11.5 -5t0.5 -10t-11 -5q-49 -2 -95 3q-7 1 -9 6.5t1.5 10t10.5 3.5q24 -3 91 -3z" />
    <glyph glyph-name="degree" unicode="&#xb0;" 
d="M332 451v-261h-319v261h319zM19 196h307v249h-307v-249zM87 377q-4 7 -7.5 21.5t-3.5 15.5q-1 2 3 3q1 1 2 -1q1 -3 3.5 -15t4.5 -19q2 23 5 33q0 3 4 2l1 -3q-2 -7 -3.5 -20t-2.5 -17q-1 -2 -3 -2.5t-3 2.5zM208 376q-5 1 -3 4l4 1q0 3 0.5 8t0.5 8q-3 0 -4 2q-2 3 2 3
h2l-1 10h-1q-2 0 -3 1q-1 3 2 4q21 0 22 -8q0 -7 -7 -9q3 0 6 -3q5 -4 3 -12t-10 -9q-4 -1 -7 0q-3 -5 -6 0zM56 377q-1 -4 -5 -2q-1 1 -1 3l3 13q-3 0 -3 2l2 2h2q2 4 5 19q4 6 6 1l5 -19h3q3 -1 2 -4q-1 -1 -3 -1h-1q1 -6 4 -12q1 -5 -3 -4q-1 0 -2 2t-2.5 7.5t-1.5 6.5
h-8zM106 377q0 -4 -4 -2q-2 0 -1 3q0 2 1 6t1 7q-2 0 -2 2t2 2h2q4 17 5 19t3 2.5t3 -1.5l5 -19h2q4 -1 2 -4l-2 -1h-1q1 -3 2 -7t1 -5q2 -5 -2 -4q-2 0 -3 2q-3 12 -3 14h-8zM130 375q-2 0 -2 2.5t2 2.5h4v32l-4 -1q-4 0 -2 4q0 2 2 2h4h6h3q2 -2 1 -5h-5v-32h4q1 -2 1 -5
h-14zM155 374q-3 0 -3 4q0 6 -1 18.5t-1 17.5q0 3 3 3t3 -3q0 -8 1 -19t0 -16h12q-1 2 -1 6q1 2 3 1.5t2 -2.5v-8q0 -2 -4 -2h-14zM183 377q-1 -4 -5 -2q-1 1 -1 3l3 13q-3 0 -3 2l2 2h2q1 2 3 9.5t3 9.5t2.5 2.5t2.5 -1.5l5 -19h3q3 -1 2 -4l-3 -1q1 -9 3 -12q1 -5 -3 -4
q-1 0 -2 2q-3 6 -3 14h-9zM241 374q-3 0 -3 4q0 6 -1 18.5t-1 17.5q0 3 3 3t3 -3q0 -8 1 -19t0 -16h12q-1 3 0 6q0 2 2 1.5t2 -2.5v-2v-3v-3q0 -2 -4 -2h-14zM268 374l-3 3v34q-3 1 -2.5 3t2.5 3h17q3 0 3 -3t-3 -3h-12v-11h10q4 1 4 -3q0 -1 -2 -2q-4 -1 -12 -1v-14l13 1
q5 0 2 -4q-1 -2 -3 -2t-6.5 -0.5t-7.5 -0.5zM218 402q3 1 4.5 3t0.5 4.5t-5 2.5h-4l1 -10h3zM65 396q0 1 -0.5 3t-1 4.5t-0.5 4.5h-1q0 -2 -1 -6.5t-1 -5.5h5zM116 396q-1 2 -3 12q0 -1 -1 -6t-2 -6h6zM192 396q0 1 -0.5 3t-1 4.5t-0.5 4.5h-1q0 -2 -1 -6.5t-1 -5.5h5z
M218 380q8 1 8.5 8t-6.5 9h-5l-1 -17h4zM140 304q2 4 0 13q-2 -1 -2 0q-2 0 -2 2t2 2h2v21q0 4 3 3q2 0 2 -2v-22h13q-1 8 -1 22q0 3 3 3q2 -1 2 -3q0 -8 1 -22t1 -15q0 -2 -2 -3q-3 -2 -3 2q0 8 -1 12h-12v-13q-2 -1 -6 0zM243 302q-9 1 -9 18q0 9 -1 22q0 5 4 3q2 0 2 -2
v-21q0 -14 5 -14q9 0 5 35q0 3 3 2l2 -3l1 -10q1 -10 0 -14q0 -16 -12 -16zM50 303q-2 0 -2 2.5t2 2.5h4v32l-4 -1q-2 0 -2 2.5t2 3.5h13q3 0 3 -2q2 -3 -2 -3h-5v-32h5q2 0 2 -2.5t-2 -2.5q-1 -1 -7 -0.5t-7 0.5zM121 304v36q-5 0 -8 -1q-3 0 -1 4q1 2 2 2h20q1 -2 -1 -6
h-7v-34q-2 -1 -5 -1zM175 302q-3 0 -3 3q-1 1 -1 11v23q-3 1 -2 3t3 3h16q3 0 3 -3t-3 -3h-11l-1 -11h11q4 1 4 -3q0 -1 -2 -2q-5 -1 -12 -1v-14l12 1q6 0 3 -4q-2 -2 -4 -2q-1 0 -5.5 -0.5t-7.5 -0.5zM266 302q-3 0 -3 4q0 6 -1 18.5t-1 17.5q0 3 3 3t3 -3q0 -8 1 -19
t0 -16h12q-2 3 0 6q0 2 2 1.5t2 -2.5v-2v-3v-3q0 -2 -4 -2h-14zM293 302q-3 0 -3 4q1 7 0 20t-1 16t2.5 3t2.5 -3q0 -10 1 -20.5t1 -14.5h11v6q0 2 3 1l2 -2v-8q-1 -2 -4 -2h-15zM208 340q0 4 2 4q12 1 17 0q2 0 2 -3q0 -1 -2 -2q-1 -1 -4 1h-10q0 -12 1 -15h10q2 1 2 -1
q1 -3 -1 -4h-11v-15q0 -2 -3 -2.5t-3 2.5v35zM75 305q0 -4 -4 -2l-1 3q2 17 1 36q0 3 3 2q1 0 2 -2q12 -23 16 -29q-2 16 -2 29q2 1 5 1q0 -3 1 -16.5t0 -19.5q-2 -8 -6 -2q-2 3 -6.5 13t-7.5 14q1 -18 -1 -27zM147 231q-6 -1 -9 3.5t-3 11.5q0 3 2.5 3t2.5 -3q0 -5 2 -8
t6 -2t3.5 5.5t-4.5 8.5l-4.5 4.5t-4.5 6.5q-2 8 3 11t10 -3v3q1 2 4 -1v-10v-2l-3 1q-2 6 -4 7q-3 2 -5 0t0 -5l6 -6q6 -7 7 -13q2 -12 -9 -12zM61 233q-3 6 -6.5 20.5t-4.5 16.5t3 3l2 -1q2 -6 4 -17t4 -17h1q1 14 4 33q1 3 4 2l1 -3q0 -2 -2.5 -17t-3.5 -20q0 -4 -4 -2
q-1 0 -2 2zM84 230q-3 0 -3 3q-1 1 -1 11v23q-3 1 -2 3t3 3h16q3 0 3 -3t-3 -3h-12v-11h11q4 1 4 -3q0 -1 -2 -2q-5 -1 -12 -1v-14l12 1q6 0 3 -4q-2 -2 -4 -2q-1 0 -5.5 -0.5t-7.5 -0.5zM131 231q-5 1 -11 9.5t-7 9.5q0 -10 1 -18q0 -2 -3 -2t-3 2q0 32 -1 35
q-3 0 -3.5 2.5t2.5 3.5h7q16 0 17 -11q0 -7 -7 -9q-1 -1 -4 -1q7 -15 13 -16q2 0 1 -4q0 -2 -2 -1zM162 231q-2 0 -2 2.5t2 2.5h3v32l-4 -1q-3 0 -1 4q0 2 2 2h13q2 -2 1 -5h-5v-32h4q2 0 2 -2.5t-2 -2.5h-13zM191 231q-5 -1 -8.5 4.5t-3.5 13.5q0 15 6 21h1l2 1q1 4 4 1
q4 0 6 -5q6 -5 5 -20.5t-12 -15.5zM212 233q-1 -4 -4 -2l-1 3q2 17 1 36q0 3 3 2q1 0 2 -2q12 -23 16 -29q-2 16 -2 29q2 1 5 1q0 -3 1 -16.5t0 -19.5q-2 -8 -6 -2q-2 3 -6.5 13t-7.5 14q1 -18 -1 -27zM115 255q6 0 8.5 3t0 6.5t-8.5 3.5h-2v-13h2zM188 237q4 -3 7 0
q9 9 0 26q-3 7 -8 1q-4 -5 -3 -14.5t4 -12.5z" />
    <glyph glyph-name="plusminus" unicode="&#xb1;" 
d="M332 451v-261h-319v261h319zM19 196h307v249h-307v-249zM87 377q-4 7 -7.5 21.5t-3.5 15.5q-1 2 3 3q1 1 2 -1q1 -3 3.5 -15t4.5 -19q2 23 5 33q0 3 4 2l1 -3q-2 -7 -3.5 -20t-2.5 -17q-1 -2 -3 -2.5t-3 2.5zM208 376q-5 1 -3 4l4 1q0 3 0.5 8t0.5 8q-3 0 -4 2q-2 3 2 3
h2l-1 10h-1q-2 0 -3 1q-1 3 2 4q21 0 22 -8q0 -7 -7 -9q3 0 6 -3q5 -4 3 -12t-10 -9q-4 -1 -7 0q-3 -5 -6 0zM56 377q-1 -4 -5 -2q-1 1 -1 3l3 13q-3 0 -3 2l2 2h2q2 4 5 19q4 6 6 1l5 -19h3q3 -1 2 -4q-1 -1 -3 -1h-1q1 -6 4 -12q1 -5 -3 -4q-1 0 -2 2t-2.5 7.5t-1.5 6.5
h-8zM106 377q0 -4 -4 -2q-2 0 -1 3q0 2 1 6t1 7q-2 0 -2 2t2 2h2q4 17 5 19t3 2.5t3 -1.5l5 -19h2q4 -1 2 -4l-2 -1h-1q1 -3 2 -7t1 -5q2 -5 -2 -4q-2 0 -3 2q-3 12 -3 14h-8zM130 375q-2 0 -2 2.5t2 2.5h4v32l-4 -1q-4 0 -2 4q0 2 2 2h4h6h3q2 -2 1 -5h-5v-32h4q1 -2 1 -5
h-14zM155 374q-3 0 -3 4q0 6 -1 18.5t-1 17.5q0 3 3 3t3 -3q0 -8 1 -19t0 -16h12q-1 2 -1 6q1 2 3 1.5t2 -2.5v-8q0 -2 -4 -2h-14zM183 377q-1 -4 -5 -2q-1 1 -1 3l3 13q-3 0 -3 2l2 2h2q1 2 3 9.5t3 9.5t2.5 2.5t2.5 -1.5l5 -19h3q3 -1 2 -4l-3 -1q1 -9 3 -12q1 -5 -3 -4
q-1 0 -2 2q-3 6 -3 14h-9zM241 374q-3 0 -3 4q0 6 -1 18.5t-1 17.5q0 3 3 3t3 -3q0 -8 1 -19t0 -16h12q-1 3 0 6q0 2 2 1.5t2 -2.5v-2v-3v-3q0 -2 -4 -2h-14zM268 374l-3 3v34q-3 1 -2.5 3t2.5 3h17q3 0 3 -3t-3 -3h-12v-11h10q4 1 4 -3q0 -1 -2 -2q-4 -1 -12 -1v-14l13 1
q5 0 2 -4q-1 -2 -3 -2t-6.5 -0.5t-7.5 -0.5zM218 402q3 1 4.5 3t0.5 4.5t-5 2.5h-4l1 -10h3zM65 396q0 1 -0.5 3t-1 4.5t-0.5 4.5h-1q0 -2 -1 -6.5t-1 -5.5h5zM116 396q-1 2 -3 12q0 -1 -1 -6t-2 -6h6zM192 396q0 1 -0.5 3t-1 4.5t-0.5 4.5h-1q0 -2 -1 -6.5t-1 -5.5h5z
M218 380q8 1 8.5 8t-6.5 9h-5l-1 -17h4zM140 304q2 4 0 13q-2 -1 -2 0q-2 0 -2 2t2 2h2v21q0 4 3 3q2 0 2 -2v-22h13q-1 8 -1 22q0 3 3 3q2 -1 2 -3q0 -8 1 -22t1 -15q0 -2 -2 -3q-3 -2 -3 2q0 8 -1 12h-12v-13q-2 -1 -6 0zM243 302q-9 1 -9 18q0 9 -1 22q0 5 4 3q2 0 2 -2
v-21q0 -14 5 -14q9 0 5 35q0 3 3 2l2 -3l1 -10q1 -10 0 -14q0 -16 -12 -16zM50 303q-2 0 -2 2.5t2 2.5h4v32l-4 -1q-2 0 -2 2.5t2 3.5h13q3 0 3 -2q2 -3 -2 -3h-5v-32h5q2 0 2 -2.5t-2 -2.5q-1 -1 -7 -0.5t-7 0.5zM121 304v36q-5 0 -8 -1q-3 0 -1 4q1 2 2 2h20q1 -2 -1 -6
h-7v-34q-2 -1 -5 -1zM175 302q-3 0 -3 3q-1 1 -1 11v23q-3 1 -2 3t3 3h16q3 0 3 -3t-3 -3h-11l-1 -11h11q4 1 4 -3q0 -1 -2 -2q-5 -1 -12 -1v-14l12 1q6 0 3 -4q-2 -2 -4 -2q-1 0 -5.5 -0.5t-7.5 -0.5zM266 302q-3 0 -3 4q0 6 -1 18.5t-1 17.5q0 3 3 3t3 -3q0 -8 1 -19
t0 -16h12q-2 3 0 6q0 2 2 1.5t2 -2.5v-2v-3v-3q0 -2 -4 -2h-14zM293 302q-3 0 -3 4q1 7 0 20t-1 16t2.5 3t2.5 -3q0 -10 1 -20.5t1 -14.5h11v6q0 2 3 1l2 -2v-8q-1 -2 -4 -2h-15zM208 340q0 4 2 4q12 1 17 0q2 0 2 -3q0 -1 -2 -2q-1 -1 -4 1h-10q0 -12 1 -15h10q2 1 2 -1
q1 -3 -1 -4h-11v-15q0 -2 -3 -2.5t-3 2.5v35zM75 305q0 -4 -4 -2l-1 3q2 17 1 36q0 3 3 2q1 0 2 -2q12 -23 16 -29q-2 16 -2 29q2 1 5 1q0 -3 1 -16.5t0 -19.5q-2 -8 -6 -2q-2 3 -6.5 13t-7.5 14q1 -18 -1 -27zM147 231q-6 -1 -9 3.5t-3 11.5q0 3 2.5 3t2.5 -3q0 -5 2 -8
t6 -2t3.5 5.5t-4.5 8.5l-4.5 4.5t-4.5 6.5q-2 8 3 11t10 -3v3q1 2 4 -1v-10v-2l-3 1q-2 6 -4 7q-3 2 -5 0t0 -5l6 -6q6 -7 7 -13q2 -12 -9 -12zM61 233q-3 6 -6.5 20.5t-4.5 16.5t3 3l2 -1q2 -6 4 -17t4 -17h1q1 14 4 33q1 3 4 2l1 -3q0 -2 -2.5 -17t-3.5 -20q0 -4 -4 -2
q-1 0 -2 2zM84 230q-3 0 -3 3q-1 1 -1 11v23q-3 1 -2 3t3 3h16q3 0 3 -3t-3 -3h-12v-11h11q4 1 4 -3q0 -1 -2 -2q-5 -1 -12 -1v-14l12 1q6 0 3 -4q-2 -2 -4 -2q-1 0 -5.5 -0.5t-7.5 -0.5zM131 231q-5 1 -11 9.5t-7 9.5q0 -10 1 -18q0 -2 -3 -2t-3 2q0 32 -1 35
q-3 0 -3.5 2.5t2.5 3.5h7q16 0 17 -11q0 -7 -7 -9q-1 -1 -4 -1q7 -15 13 -16q2 0 1 -4q0 -2 -2 -1zM162 231q-2 0 -2 2.5t2 2.5h3v32l-4 -1q-3 0 -1 4q0 2 2 2h13q2 -2 1 -5h-5v-32h4q2 0 2 -2.5t-2 -2.5h-13zM191 231q-5 -1 -8.5 4.5t-3.5 13.5q0 15 6 21h1l2 1q1 4 4 1
q4 0 6 -5q6 -5 5 -20.5t-12 -15.5zM212 233q-1 -4 -4 -2l-1 3q2 17 1 36q0 3 3 2q1 0 2 -2q12 -23 16 -29q-2 16 -2 29q2 1 5 1q0 -3 1 -16.5t0 -19.5q-2 -8 -6 -2q-2 3 -6.5 13t-7.5 14q1 -18 -1 -27zM115 255q6 0 8.5 3t0 6.5t-8.5 3.5h-2v-13h2zM188 237q4 -3 7 0
q9 9 0 26q-3 7 -8 1q-4 -5 -3 -14.5t4 -12.5z" />
    <glyph glyph-name="acute" unicode="&#xb4;" horiz-adv-x="129" 
d="M87 821q4 6 10 4.5t8.5 -6t-0.5 -9.5l-44 -47q-9 -10 -16 -1q-4 4 1 9z" />
    <glyph glyph-name="paragraph" unicode="&#xb6;" 
d="M332 451v-261h-319v261h319zM19 196h307v249h-307v-249zM87 377q-4 7 -7.5 21.5t-3.5 15.5q-1 2 3 3q1 1 2 -1q1 -3 3.5 -15t4.5 -19q2 23 5 33q0 3 4 2l1 -3q-2 -7 -3.5 -20t-2.5 -17q-1 -2 -3 -2.5t-3 2.5zM208 376q-5 1 -3 4l4 1q0 3 0.5 8t0.5 8q-3 0 -4 2q-2 3 2 3
h2l-1 10h-1q-2 0 -3 1q-1 3 2 4q21 0 22 -8q0 -7 -7 -9q3 0 6 -3q5 -4 3 -12t-10 -9q-4 -1 -7 0q-3 -5 -6 0zM56 377q-1 -4 -5 -2q-1 1 -1 3l3 13q-3 0 -3 2l2 2h2q2 4 5 19q4 6 6 1l5 -19h3q3 -1 2 -4q-1 -1 -3 -1h-1q1 -6 4 -12q1 -5 -3 -4q-1 0 -2 2t-2.5 7.5t-1.5 6.5
h-8zM106 377q0 -4 -4 -2q-2 0 -1 3q0 2 1 6t1 7q-2 0 -2 2t2 2h2q4 17 5 19t3 2.5t3 -1.5l5 -19h2q4 -1 2 -4l-2 -1h-1q1 -3 2 -7t1 -5q2 -5 -2 -4q-2 0 -3 2q-3 12 -3 14h-8zM130 375q-2 0 -2 2.5t2 2.5h4v32l-4 -1q-4 0 -2 4q0 2 2 2h4h6h3q2 -2 1 -5h-5v-32h4q1 -2 1 -5
h-14zM155 374q-3 0 -3 4q0 6 -1 18.5t-1 17.5q0 3 3 3t3 -3q0 -8 1 -19t0 -16h12q-1 2 -1 6q1 2 3 1.5t2 -2.5v-8q0 -2 -4 -2h-14zM183 377q-1 -4 -5 -2q-1 1 -1 3l3 13q-3 0 -3 2l2 2h2q1 2 3 9.5t3 9.5t2.5 2.5t2.5 -1.5l5 -19h3q3 -1 2 -4l-3 -1q1 -9 3 -12q1 -5 -3 -4
q-1 0 -2 2q-3 6 -3 14h-9zM241 374q-3 0 -3 4q0 6 -1 18.5t-1 17.5q0 3 3 3t3 -3q0 -8 1 -19t0 -16h12q-1 3 0 6q0 2 2 1.5t2 -2.5v-2v-3v-3q0 -2 -4 -2h-14zM268 374l-3 3v34q-3 1 -2.5 3t2.5 3h17q3 0 3 -3t-3 -3h-12v-11h10q4 1 4 -3q0 -1 -2 -2q-4 -1 -12 -1v-14l13 1
q5 0 2 -4q-1 -2 -3 -2t-6.5 -0.5t-7.5 -0.5zM218 402q3 1 4.5 3t0.5 4.5t-5 2.5h-4l1 -10h3zM65 396q0 1 -0.5 3t-1 4.5t-0.5 4.5h-1q0 -2 -1 -6.5t-1 -5.5h5zM116 396q-1 2 -3 12q0 -1 -1 -6t-2 -6h6zM192 396q0 1 -0.5 3t-1 4.5t-0.5 4.5h-1q0 -2 -1 -6.5t-1 -5.5h5z
M218 380q8 1 8.5 8t-6.5 9h-5l-1 -17h4zM140 304q2 4 0 13q-2 -1 -2 0q-2 0 -2 2t2 2h2v21q0 4 3 3q2 0 2 -2v-22h13q-1 8 -1 22q0 3 3 3q2 -1 2 -3q0 -8 1 -22t1 -15q0 -2 -2 -3q-3 -2 -3 2q0 8 -1 12h-12v-13q-2 -1 -6 0zM243 302q-9 1 -9 18q0 9 -1 22q0 5 4 3q2 0 2 -2
v-21q0 -14 5 -14q9 0 5 35q0 3 3 2l2 -3l1 -10q1 -10 0 -14q0 -16 -12 -16zM50 303q-2 0 -2 2.5t2 2.5h4v32l-4 -1q-2 0 -2 2.5t2 3.5h13q3 0 3 -2q2 -3 -2 -3h-5v-32h5q2 0 2 -2.5t-2 -2.5q-1 -1 -7 -0.5t-7 0.5zM121 304v36q-5 0 -8 -1q-3 0 -1 4q1 2 2 2h20q1 -2 -1 -6
h-7v-34q-2 -1 -5 -1zM175 302q-3 0 -3 3q-1 1 -1 11v23q-3 1 -2 3t3 3h16q3 0 3 -3t-3 -3h-11l-1 -11h11q4 1 4 -3q0 -1 -2 -2q-5 -1 -12 -1v-14l12 1q6 0 3 -4q-2 -2 -4 -2q-1 0 -5.5 -0.5t-7.5 -0.5zM266 302q-3 0 -3 4q0 6 -1 18.5t-1 17.5q0 3 3 3t3 -3q0 -8 1 -19
t0 -16h12q-2 3 0 6q0 2 2 1.5t2 -2.5v-2v-3v-3q0 -2 -4 -2h-14zM293 302q-3 0 -3 4q1 7 0 20t-1 16t2.5 3t2.5 -3q0 -10 1 -20.5t1 -14.5h11v6q0 2 3 1l2 -2v-8q-1 -2 -4 -2h-15zM208 340q0 4 2 4q12 1 17 0q2 0 2 -3q0 -1 -2 -2q-1 -1 -4 1h-10q0 -12 1 -15h10q2 1 2 -1
q1 -3 -1 -4h-11v-15q0 -2 -3 -2.5t-3 2.5v35zM75 305q0 -4 -4 -2l-1 3q2 17 1 36q0 3 3 2q1 0 2 -2q12 -23 16 -29q-2 16 -2 29q2 1 5 1q0 -3 1 -16.5t0 -19.5q-2 -8 -6 -2q-2 3 -6.5 13t-7.5 14q1 -18 -1 -27zM147 231q-6 -1 -9 3.5t-3 11.5q0 3 2.5 3t2.5 -3q0 -5 2 -8
t6 -2t3.5 5.5t-4.5 8.5l-4.5 4.5t-4.5 6.5q-2 8 3 11t10 -3v3q1 2 4 -1v-10v-2l-3 1q-2 6 -4 7q-3 2 -5 0t0 -5l6 -6q6 -7 7 -13q2 -12 -9 -12zM61 233q-3 6 -6.5 20.5t-4.5 16.5t3 3l2 -1q2 -6 4 -17t4 -17h1q1 14 4 33q1 3 4 2l1 -3q0 -2 -2.5 -17t-3.5 -20q0 -4 -4 -2
q-1 0 -2 2zM84 230q-3 0 -3 3q-1 1 -1 11v23q-3 1 -2 3t3 3h16q3 0 3 -3t-3 -3h-12v-11h11q4 1 4 -3q0 -1 -2 -2q-5 -1 -12 -1v-14l12 1q6 0 3 -4q-2 -2 -4 -2q-1 0 -5.5 -0.5t-7.5 -0.5zM131 231q-5 1 -11 9.5t-7 9.5q0 -10 1 -18q0 -2 -3 -2t-3 2q0 32 -1 35
q-3 0 -3.5 2.5t2.5 3.5h7q16 0 17 -11q0 -7 -7 -9q-1 -1 -4 -1q7 -15 13 -16q2 0 1 -4q0 -2 -2 -1zM162 231q-2 0 -2 2.5t2 2.5h3v32l-4 -1q-3 0 -1 4q0 2 2 2h13q2 -2 1 -5h-5v-32h4q2 0 2 -2.5t-2 -2.5h-13zM191 231q-5 -1 -8.5 4.5t-3.5 13.5q0 15 6 21h1l2 1q1 4 4 1
q4 0 6 -5q6 -5 5 -20.5t-12 -15.5zM212 233q-1 -4 -4 -2l-1 3q2 17 1 36q0 3 3 2q1 0 2 -2q12 -23 16 -29q-2 16 -2 29q2 1 5 1q0 -3 1 -16.5t0 -19.5q-2 -8 -6 -2q-2 3 -6.5 13t-7.5 14q1 -18 -1 -27zM115 255q6 0 8.5 3t0 6.5t-8.5 3.5h-2v-13h2zM188 237q4 -3 7 0
q9 9 0 26q-3 7 -8 1q-4 -5 -3 -14.5t4 -12.5z" />
    <glyph glyph-name="periodcentered" unicode="&#xb7;" horiz-adv-x="626" 
 />
    <glyph glyph-name="cedilla" unicode="&#xb8;" horiz-adv-x="169" 
d="M74 11q4 12 14 9q6 -2 5 -9q-3 -12 -8 -42q29 0 43.5 -13t6.5 -40q-6 -18 -25 -31t-43 -9q-15 2 -25 10t-9 18q2 14 12 15q5 -2 6 -7q-1 -13 17 -15.5t29 5.5q16 10 15.5 28.5t-15.5 20.5q-2 0 -6.5 0.5t-6.5 0.5t-5.5 0.5t-5 1.5t-3.5 2t-3 2.5t-1.5 3.5t0.5 5l2 6z" />
    <glyph glyph-name="guillemotright" unicode="&#xbb;" 
d="M332 451v-261h-319v261h319zM19 196h307v249h-307v-249zM87 377q-4 7 -7.5 21.5t-3.5 15.5q-1 2 3 3q1 1 2 -1q1 -3 3.5 -15t4.5 -19q2 23 5 33q0 3 4 2l1 -3q-2 -7 -3.5 -20t-2.5 -17q-1 -2 -3 -2.5t-3 2.5zM208 376q-5 1 -3 4l4 1q0 3 0.5 8t0.5 8q-3 0 -4 2q-2 3 2 3
h2l-1 10h-1q-2 0 -3 1q-1 3 2 4q21 0 22 -8q0 -7 -7 -9q3 0 6 -3q5 -4 3 -12t-10 -9q-4 -1 -7 0q-3 -5 -6 0zM56 377q-1 -4 -5 -2q-1 1 -1 3l3 13q-3 0 -3 2l2 2h2q2 4 5 19q4 6 6 1l5 -19h3q3 -1 2 -4q-1 -1 -3 -1h-1q1 -6 4 -12q1 -5 -3 -4q-1 0 -2 2t-2.5 7.5t-1.5 6.5
h-8zM106 377q0 -4 -4 -2q-2 0 -1 3q0 2 1 6t1 7q-2 0 -2 2t2 2h2q4 17 5 19t3 2.5t3 -1.5l5 -19h2q4 -1 2 -4l-2 -1h-1q1 -3 2 -7t1 -5q2 -5 -2 -4q-2 0 -3 2q-3 12 -3 14h-8zM130 375q-2 0 -2 2.5t2 2.5h4v32l-4 -1q-4 0 -2 4q0 2 2 2h4h6h3q2 -2 1 -5h-5v-32h4q1 -2 1 -5
h-14zM155 374q-3 0 -3 4q0 6 -1 18.5t-1 17.5q0 3 3 3t3 -3q0 -8 1 -19t0 -16h12q-1 2 -1 6q1 2 3 1.5t2 -2.5v-8q0 -2 -4 -2h-14zM183 377q-1 -4 -5 -2q-1 1 -1 3l3 13q-3 0 -3 2l2 2h2q1 2 3 9.5t3 9.5t2.5 2.5t2.5 -1.5l5 -19h3q3 -1 2 -4l-3 -1q1 -9 3 -12q1 -5 -3 -4
q-1 0 -2 2q-3 6 -3 14h-9zM241 374q-3 0 -3 4q0 6 -1 18.5t-1 17.5q0 3 3 3t3 -3q0 -8 1 -19t0 -16h12q-1 3 0 6q0 2 2 1.5t2 -2.5v-2v-3v-3q0 -2 -4 -2h-14zM268 374l-3 3v34q-3 1 -2.5 3t2.5 3h17q3 0 3 -3t-3 -3h-12v-11h10q4 1 4 -3q0 -1 -2 -2q-4 -1 -12 -1v-14l13 1
q5 0 2 -4q-1 -2 -3 -2t-6.5 -0.5t-7.5 -0.5zM218 402q3 1 4.5 3t0.5 4.5t-5 2.5h-4l1 -10h3zM65 396q0 1 -0.5 3t-1 4.5t-0.5 4.5h-1q0 -2 -1 -6.5t-1 -5.5h5zM116 396q-1 2 -3 12q0 -1 -1 -6t-2 -6h6zM192 396q0 1 -0.5 3t-1 4.5t-0.5 4.5h-1q0 -2 -1 -6.5t-1 -5.5h5z
M218 380q8 1 8.5 8t-6.5 9h-5l-1 -17h4zM140 304q2 4 0 13q-2 -1 -2 0q-2 0 -2 2t2 2h2v21q0 4 3 3q2 0 2 -2v-22h13q-1 8 -1 22q0 3 3 3q2 -1 2 -3q0 -8 1 -22t1 -15q0 -2 -2 -3q-3 -2 -3 2q0 8 -1 12h-12v-13q-2 -1 -6 0zM243 302q-9 1 -9 18q0 9 -1 22q0 5 4 3q2 0 2 -2
v-21q0 -14 5 -14q9 0 5 35q0 3 3 2l2 -3l1 -10q1 -10 0 -14q0 -16 -12 -16zM50 303q-2 0 -2 2.5t2 2.5h4v32l-4 -1q-2 0 -2 2.5t2 3.5h13q3 0 3 -2q2 -3 -2 -3h-5v-32h5q2 0 2 -2.5t-2 -2.5q-1 -1 -7 -0.5t-7 0.5zM121 304v36q-5 0 -8 -1q-3 0 -1 4q1 2 2 2h20q1 -2 -1 -6
h-7v-34q-2 -1 -5 -1zM175 302q-3 0 -3 3q-1 1 -1 11v23q-3 1 -2 3t3 3h16q3 0 3 -3t-3 -3h-11l-1 -11h11q4 1 4 -3q0 -1 -2 -2q-5 -1 -12 -1v-14l12 1q6 0 3 -4q-2 -2 -4 -2q-1 0 -5.5 -0.5t-7.5 -0.5zM266 302q-3 0 -3 4q0 6 -1 18.5t-1 17.5q0 3 3 3t3 -3q0 -8 1 -19
t0 -16h12q-2 3 0 6q0 2 2 1.5t2 -2.5v-2v-3v-3q0 -2 -4 -2h-14zM293 302q-3 0 -3 4q1 7 0 20t-1 16t2.5 3t2.5 -3q0 -10 1 -20.5t1 -14.5h11v6q0 2 3 1l2 -2v-8q-1 -2 -4 -2h-15zM208 340q0 4 2 4q12 1 17 0q2 0 2 -3q0 -1 -2 -2q-1 -1 -4 1h-10q0 -12 1 -15h10q2 1 2 -1
q1 -3 -1 -4h-11v-15q0 -2 -3 -2.5t-3 2.5v35zM75 305q0 -4 -4 -2l-1 3q2 17 1 36q0 3 3 2q1 0 2 -2q12 -23 16 -29q-2 16 -2 29q2 1 5 1q0 -3 1 -16.5t0 -19.5q-2 -8 -6 -2q-2 3 -6.5 13t-7.5 14q1 -18 -1 -27zM147 231q-6 -1 -9 3.5t-3 11.5q0 3 2.5 3t2.5 -3q0 -5 2 -8
t6 -2t3.5 5.5t-4.5 8.5l-4.5 4.5t-4.5 6.5q-2 8 3 11t10 -3v3q1 2 4 -1v-10v-2l-3 1q-2 6 -4 7q-3 2 -5 0t0 -5l6 -6q6 -7 7 -13q2 -12 -9 -12zM61 233q-3 6 -6.5 20.5t-4.5 16.5t3 3l2 -1q2 -6 4 -17t4 -17h1q1 14 4 33q1 3 4 2l1 -3q0 -2 -2.5 -17t-3.5 -20q0 -4 -4 -2
q-1 0 -2 2zM84 230q-3 0 -3 3q-1 1 -1 11v23q-3 1 -2 3t3 3h16q3 0 3 -3t-3 -3h-12v-11h11q4 1 4 -3q0 -1 -2 -2q-5 -1 -12 -1v-14l12 1q6 0 3 -4q-2 -2 -4 -2q-1 0 -5.5 -0.5t-7.5 -0.5zM131 231q-5 1 -11 9.5t-7 9.5q0 -10 1 -18q0 -2 -3 -2t-3 2q0 32 -1 35
q-3 0 -3.5 2.5t2.5 3.5h7q16 0 17 -11q0 -7 -7 -9q-1 -1 -4 -1q7 -15 13 -16q2 0 1 -4q0 -2 -2 -1zM162 231q-2 0 -2 2.5t2 2.5h3v32l-4 -1q-3 0 -1 4q0 2 2 2h13q2 -2 1 -5h-5v-32h4q2 0 2 -2.5t-2 -2.5h-13zM191 231q-5 -1 -8.5 4.5t-3.5 13.5q0 15 6 21h1l2 1q1 4 4 1
q4 0 6 -5q6 -5 5 -20.5t-12 -15.5zM212 233q-1 -4 -4 -2l-1 3q2 17 1 36q0 3 3 2q1 0 2 -2q12 -23 16 -29q-2 16 -2 29q2 1 5 1q0 -3 1 -16.5t0 -19.5q-2 -8 -6 -2q-2 3 -6.5 13t-7.5 14q1 -18 -1 -27zM115 255q6 0 8.5 3t0 6.5t-8.5 3.5h-2v-13h2zM188 237q4 -3 7 0
q9 9 0 26q-3 7 -8 1q-4 -5 -3 -14.5t4 -12.5z" />
    <glyph glyph-name="questiondown" unicode="&#xbf;" 
d="M332 451v-261h-319v261h319zM19 196h307v249h-307v-249zM87 377q-4 7 -7.5 21.5t-3.5 15.5q-1 2 3 3q1 1 2 -1q1 -3 3.5 -15t4.5 -19q2 23 5 33q0 3 4 2l1 -3q-2 -7 -3.5 -20t-2.5 -17q-1 -2 -3 -2.5t-3 2.5zM208 376q-5 1 -3 4l4 1q0 3 0.5 8t0.5 8q-3 0 -4 2q-2 3 2 3
h2l-1 10h-1q-2 0 -3 1q-1 3 2 4q21 0 22 -8q0 -7 -7 -9q3 0 6 -3q5 -4 3 -12t-10 -9q-4 -1 -7 0q-3 -5 -6 0zM56 377q-1 -4 -5 -2q-1 1 -1 3l3 13q-3 0 -3 2l2 2h2q2 4 5 19q4 6 6 1l5 -19h3q3 -1 2 -4q-1 -1 -3 -1h-1q1 -6 4 -12q1 -5 -3 -4q-1 0 -2 2t-2.5 7.5t-1.5 6.5
h-8zM106 377q0 -4 -4 -2q-2 0 -1 3q0 2 1 6t1 7q-2 0 -2 2t2 2h2q4 17 5 19t3 2.5t3 -1.5l5 -19h2q4 -1 2 -4l-2 -1h-1q1 -3 2 -7t1 -5q2 -5 -2 -4q-2 0 -3 2q-3 12 -3 14h-8zM130 375q-2 0 -2 2.5t2 2.5h4v32l-4 -1q-4 0 -2 4q0 2 2 2h4h6h3q2 -2 1 -5h-5v-32h4q1 -2 1 -5
h-14zM155 374q-3 0 -3 4q0 6 -1 18.5t-1 17.5q0 3 3 3t3 -3q0 -8 1 -19t0 -16h12q-1 2 -1 6q1 2 3 1.5t2 -2.5v-8q0 -2 -4 -2h-14zM183 377q-1 -4 -5 -2q-1 1 -1 3l3 13q-3 0 -3 2l2 2h2q1 2 3 9.5t3 9.5t2.5 2.5t2.5 -1.5l5 -19h3q3 -1 2 -4l-3 -1q1 -9 3 -12q1 -5 -3 -4
q-1 0 -2 2q-3 6 -3 14h-9zM241 374q-3 0 -3 4q0 6 -1 18.5t-1 17.5q0 3 3 3t3 -3q0 -8 1 -19t0 -16h12q-1 3 0 6q0 2 2 1.5t2 -2.5v-2v-3v-3q0 -2 -4 -2h-14zM268 374l-3 3v34q-3 1 -2.5 3t2.5 3h17q3 0 3 -3t-3 -3h-12v-11h10q4 1 4 -3q0 -1 -2 -2q-4 -1 -12 -1v-14l13 1
q5 0 2 -4q-1 -2 -3 -2t-6.5 -0.5t-7.5 -0.5zM218 402q3 1 4.5 3t0.5 4.5t-5 2.5h-4l1 -10h3zM65 396q0 1 -0.5 3t-1 4.5t-0.5 4.5h-1q0 -2 -1 -6.5t-1 -5.5h5zM116 396q-1 2 -3 12q0 -1 -1 -6t-2 -6h6zM192 396q0 1 -0.5 3t-1 4.5t-0.5 4.5h-1q0 -2 -1 -6.5t-1 -5.5h5z
M218 380q8 1 8.5 8t-6.5 9h-5l-1 -17h4zM140 304q2 4 0 13q-2 -1 -2 0q-2 0 -2 2t2 2h2v21q0 4 3 3q2 0 2 -2v-22h13q-1 8 -1 22q0 3 3 3q2 -1 2 -3q0 -8 1 -22t1 -15q0 -2 -2 -3q-3 -2 -3 2q0 8 -1 12h-12v-13q-2 -1 -6 0zM243 302q-9 1 -9 18q0 9 -1 22q0 5 4 3q2 0 2 -2
v-21q0 -14 5 -14q9 0 5 35q0 3 3 2l2 -3l1 -10q1 -10 0 -14q0 -16 -12 -16zM50 303q-2 0 -2 2.5t2 2.5h4v32l-4 -1q-2 0 -2 2.5t2 3.5h13q3 0 3 -2q2 -3 -2 -3h-5v-32h5q2 0 2 -2.5t-2 -2.5q-1 -1 -7 -0.5t-7 0.5zM121 304v36q-5 0 -8 -1q-3 0 -1 4q1 2 2 2h20q1 -2 -1 -6
h-7v-34q-2 -1 -5 -1zM175 302q-3 0 -3 3q-1 1 -1 11v23q-3 1 -2 3t3 3h16q3 0 3 -3t-3 -3h-11l-1 -11h11q4 1 4 -3q0 -1 -2 -2q-5 -1 -12 -1v-14l12 1q6 0 3 -4q-2 -2 -4 -2q-1 0 -5.5 -0.5t-7.5 -0.5zM266 302q-3 0 -3 4q0 6 -1 18.5t-1 17.5q0 3 3 3t3 -3q0 -8 1 -19
t0 -16h12q-2 3 0 6q0 2 2 1.5t2 -2.5v-2v-3v-3q0 -2 -4 -2h-14zM293 302q-3 0 -3 4q1 7 0 20t-1 16t2.5 3t2.5 -3q0 -10 1 -20.5t1 -14.5h11v6q0 2 3 1l2 -2v-8q-1 -2 -4 -2h-15zM208 340q0 4 2 4q12 1 17 0q2 0 2 -3q0 -1 -2 -2q-1 -1 -4 1h-10q0 -12 1 -15h10q2 1 2 -1
q1 -3 -1 -4h-11v-15q0 -2 -3 -2.5t-3 2.5v35zM75 305q0 -4 -4 -2l-1 3q2 17 1 36q0 3 3 2q1 0 2 -2q12 -23 16 -29q-2 16 -2 29q2 1 5 1q0 -3 1 -16.5t0 -19.5q-2 -8 -6 -2q-2 3 -6.5 13t-7.5 14q1 -18 -1 -27zM147 231q-6 -1 -9 3.5t-3 11.5q0 3 2.5 3t2.5 -3q0 -5 2 -8
t6 -2t3.5 5.5t-4.5 8.5l-4.5 4.5t-4.5 6.5q-2 8 3 11t10 -3v3q1 2 4 -1v-10v-2l-3 1q-2 6 -4 7q-3 2 -5 0t0 -5l6 -6q6 -7 7 -13q2 -12 -9 -12zM61 233q-3 6 -6.5 20.5t-4.5 16.5t3 3l2 -1q2 -6 4 -17t4 -17h1q1 14 4 33q1 3 4 2l1 -3q0 -2 -2.5 -17t-3.5 -20q0 -4 -4 -2
q-1 0 -2 2zM84 230q-3 0 -3 3q-1 1 -1 11v23q-3 1 -2 3t3 3h16q3 0 3 -3t-3 -3h-12v-11h11q4 1 4 -3q0 -1 -2 -2q-5 -1 -12 -1v-14l12 1q6 0 3 -4q-2 -2 -4 -2q-1 0 -5.5 -0.5t-7.5 -0.5zM131 231q-5 1 -11 9.5t-7 9.5q0 -10 1 -18q0 -2 -3 -2t-3 2q0 32 -1 35
q-3 0 -3.5 2.5t2.5 3.5h7q16 0 17 -11q0 -7 -7 -9q-1 -1 -4 -1q7 -15 13 -16q2 0 1 -4q0 -2 -2 -1zM162 231q-2 0 -2 2.5t2 2.5h3v32l-4 -1q-3 0 -1 4q0 2 2 2h13q2 -2 1 -5h-5v-32h4q2 0 2 -2.5t-2 -2.5h-13zM191 231q-5 -1 -8.5 4.5t-3.5 13.5q0 15 6 21h1l2 1q1 4 4 1
q4 0 6 -5q6 -5 5 -20.5t-12 -15.5zM212 233q-1 -4 -4 -2l-1 3q2 17 1 36q0 3 3 2q1 0 2 -2q12 -23 16 -29q-2 16 -2 29q2 1 5 1q0 -3 1 -16.5t0 -19.5q-2 -8 -6 -2q-2 3 -6.5 13t-7.5 14q1 -18 -1 -27zM115 255q6 0 8.5 3t0 6.5t-8.5 3.5h-2v-13h2zM188 237q4 -3 7 0
q9 9 0 26q-3 7 -8 1q-4 -5 -3 -14.5t4 -12.5z" />
    <glyph glyph-name="Agrave" unicode="&#xc0;" horiz-adv-x="258" 
d="M142 740q7 -7 -1 -12q-8 -2 -14 4l-44 47q-3 4 0 9.5t8.5 6t9.5 -4.5zM118 674q2 9 9.5 10t9.5 -9q6 -47 26 -167t26 -185q40 5 45 -6q2 -6 -11 -11q-12 -4 -32 -5q19 -223 30 -287q1 -7 -5 -11.5t-13.5 -4t-8.5 8.5q-6 34 -10.5 75t-7 70t-6 77.5t-5.5 71.5
q-47 3 -89 -1q-24 -185 -27 -289q0 -11 -13 -12t-13 12q3 91 28 288q-9 2 -12 7t1.5 9t13.5 4q38 277 64 355zM123 618q-3 -14 -20.5 -140.5t-22.5 -156.5q48 4 83 1q-1 18 -8.5 71.5t-17.5 121.5t-14 103z" />
    <glyph glyph-name="Aacute" unicode="&#xc1;" horiz-adv-x="258" 
d="M159 790q4 6 10 4.5t8.5 -6t-0.5 -9.5l-44 -47q-9 -10 -16 -1q-4 4 1 9zM118 674q2 9 9.5 10t9.5 -9q6 -47 26 -167t26 -185q40 5 45 -6q2 -6 -11 -11q-12 -4 -32 -5q19 -223 30 -287q1 -7 -5 -11.5t-13.5 -4t-8.5 8.5q-6 34 -10.5 75t-7 70t-6 77.5t-5.5 71.5
q-47 3 -89 -1q-24 -185 -27 -289q0 -11 -13 -12t-13 12q3 91 28 288q-9 2 -12 7t1.5 9t13.5 4q38 277 64 355zM123 618q-3 -14 -20.5 -140.5t-22.5 -156.5q48 4 83 1q-1 18 -8.5 71.5t-17.5 121.5t-14 103z" />
    <glyph glyph-name="Acircumflex" unicode="&#xc2;" horiz-adv-x="258" 
d="M130 763q-10 -6 -22 -16t-16 -13q-7 -4 -12.5 -1.5t-5.5 8t5 9.5q1 0 14.5 11t25 17.5t16.5 3.5q7 -4 22.5 -16.5t25.5 -17.5q13 -8 4 -17q-5 -3 -9 -2q-8 4 -26.5 18t-21.5 16zM118 674q2 9 9.5 10t9.5 -9q6 -47 26 -167t26 -185q40 5 45 -6q2 -6 -11 -11q-12 -4 -32 -5
q19 -223 30 -287q1 -7 -5 -11.5t-13.5 -4t-8.5 8.5q-6 34 -10.5 75t-7 70t-6 77.5t-5.5 71.5q-47 3 -89 -1q-24 -185 -27 -289q0 -11 -13 -12t-13 12q3 91 28 288q-9 2 -12 7t1.5 9t13.5 4q38 277 64 355zM123 618q-3 -14 -20.5 -140.5t-22.5 -156.5q48 4 83 1
q-1 18 -8.5 71.5t-17.5 121.5t-14 103z" />
    <glyph glyph-name="Atilde" unicode="&#xc3;" horiz-adv-x="258" 
d="M112 779q4 -1 12 -6t15.5 -9.5t15 -7.5t13 -0.5t7.5 11.5q2 7 10 3q7 -3 5 -11q-4 -22 -24 -24q-8 -1 -18.5 4.5t-20 11t-19 9.5t-17 -0.5t-12.5 -18.5q-1 -2 -3 -3t-4.5 -0.5t-4.5 1.5t-3.5 4t-0.5 6q4 14 16.5 24.5t32.5 5.5zM118 674q2 9 9.5 10t9.5 -9q6 -47 26 -167
t26 -185q40 5 45 -6q2 -6 -11 -11q-12 -4 -32 -5q19 -223 30 -287q1 -7 -5 -11.5t-13.5 -4t-8.5 8.5q-6 34 -10.5 75t-7 70t-6 77.5t-5.5 71.5q-47 3 -89 -1q-24 -185 -27 -289q0 -11 -13 -12t-13 12q3 91 28 288q-9 2 -12 7t1.5 9t13.5 4q38 277 64 355zM123 618
q-3 -14 -20.5 -140.5t-22.5 -156.5q48 4 83 1q-1 18 -8.5 71.5t-17.5 121.5t-14 103z" />
    <glyph glyph-name="Adieresis" unicode="&#xc4;" horiz-adv-x="258" 
d="M170 759q6 0 7.5 -6t-1 -12t-8.5 -6q-21 0 -21 12q0 11 23 12zM88 758q24 0 24 -12q0 -13 -21 -13q-7 0 -10 6.5t-1 12.5t8 6zM118 674q2 9 9.5 10t9.5 -9q6 -47 26 -167t26 -185q40 5 45 -6q2 -6 -11 -11q-12 -4 -32 -5q19 -223 30 -287q1 -7 -5 -11.5t-13.5 -4
t-8.5 8.5q-6 34 -10.5 75t-7 70t-6 77.5t-5.5 71.5q-47 3 -89 -1q-24 -185 -27 -289q0 -11 -13 -12t-13 12q3 91 28 288q-9 2 -12 7t1.5 9t13.5 4q38 277 64 355zM123 618q-3 -14 -20.5 -140.5t-22.5 -156.5q48 4 83 1q-1 18 -8.5 71.5t-17.5 121.5t-14 103z" />
    <glyph glyph-name="Aring" unicode="&#xc5;" horiz-adv-x="258" 
d="M157 799q31 -22 11 -55.5t-57 -24.5q-18 5 -25 18t1 30q15 33 53 31h3q9 5 14 1zM144 783q-4 -4 -10 -4q-29 0 -33 -20q-4 -13 4 -19t22 -5q22 2 28 18t-11 30zM118 674q2 9 9.5 10t9.5 -9q6 -47 26 -167t26 -185q40 5 45 -6q2 -6 -11 -11q-12 -4 -32 -5q19 -223 30 -287
q1 -7 -5 -11.5t-13.5 -4t-8.5 8.5q-6 34 -10.5 75t-7 70t-6 77.5t-5.5 71.5q-47 3 -89 -1q-24 -185 -27 -289q0 -11 -13 -12t-13 12q3 91 28 288q-9 2 -12 7t1.5 9t13.5 4q38 277 64 355zM123 618q-3 -14 -20.5 -140.5t-22.5 -156.5q48 4 83 1q-1 18 -8.5 71.5t-17.5 121.5
t-14 103z" />
    <glyph glyph-name="AE" unicode="&#xc6;" horiz-adv-x="292" 
d="M248 684q8 0 11 -5t-0.5 -11t-10.5 -6q-17 -2 -42 -0.5t-42 0.5q0 -154 3 -324q10 1 38.5 1.5t39.5 0.5q11 1 14 -9t-10 -11q-17 -2 -44 -2t-39 -1q0 -34 1.5 -79.5t1.5 -79.5q0 -83 6 -138q70 2 88 1q13 -1 8 -11q-5 -8 -14 -8q-20 1 -47.5 -1t-46.5 -1q-8 0 -10 6
q-5 23 -7 76t-3 128t-2 108q-12 0 -28.5 -1t-28.5 -2q-4 -33 -14 -94.5t-16 -112t-6 -95.5q0 -7 -6 -10.5t-12.5 -1t-6.5 10.5q1 59 17 173t18 129q-12 2 -16 7t1.5 9t17.5 4q17 143 71 335q0 6 5 10.5t9 2.5q17 4 50.5 2.5t51.5 -0.5zM143 633q-49 -228 -57 -297
q12 0 27.5 1t27.5 2q0 44 1.5 143.5t0.5 150.5z" />
    <glyph glyph-name="Ccedilla" unicode="&#xc7;" horiz-adv-x="224" 
d="M126 684q21 -1 35 -15t19 -38.5t7 -44t2 -49.5v-38q0 -6 -5.5 -8.5t-11.5 -0.5t-6 9q0 4 0.5 30t-0.5 44t-4.5 41.5t-13 37t-23.5 14.5q-46 5 -61 -154q-11 -135 -5 -304.5t29 -177.5q22 -8 65 144q4 11 18 8q9 -2 7 -11q-41 -135 -71 -161q-3 -14 -8 -41q29 0 43.5 -13
t6.5 -40q-6 -18 -25 -31t-43 -9q-15 2 -25 10t-9 18q2 14 12 15q5 -2 6 -7q-1 -13 17 -15.5t29 5.5q16 10 15.5 27.5t-15.5 21.5q-4 1 -14.5 2t-15 3.5t-4.5 8.5q1 9 10 37q-24 2 -38 58t-16 142t-0.5 160.5t6.5 141.5q1 21 3 39t8 46.5t14.5 48t24.5 33.5t37 13z" />
    </font>
</defs>
</svg>
