<?xml version="1.0" standalone="no"?>
<!DOCTYPE svg PUBLIC "-//W3C//DTD SVG 1.1//EN" "http://www.w3.org/Graphics/SVG/1.1/DTD/svg11.dtd" >
<svg xmlns="http://www.w3.org/2000/svg" xmlns:xlink="http://www.w3.org/1999/xlink" version="1.1">
<metadata>
Created by FontForge 20150318 at Fri Apr 10 09:12:47 2015
 By uniteet7
Copyright (c) 2014 by Ani Petrova. All rights reserved.
</metadata>
<defs>
<font id="PH600RegularCaps" horiz-adv-x="345" >
  <font-face 
    font-family="PH600RegularCaps"
    font-weight="400"
    font-variant="small-caps"
    font-stretch="normal"
    units-per-em="1000"
    panose-1="0 0 5 0 0 0 0 0 0 0"
    ascent="750"
    descent="-250"
    x-height="644.5"
    cap-height="695"
    bbox="-88.3091 -279.36 691.571 852.765"
    underline-thickness="50"
    underline-position="-50"
    unicode-range="U+0020-25CA"
  />
<missing-glyph horiz-adv-x="500" 
d="M93 750h317v-1000h-317v1000zM233 650v-37h-66v-33h166v33h-66v37h66v33h-165v-33h65zM333 450v34h-66v70h-100v-104h166zM200 520h33v-36h-33v36zM233 390v-37h-66v-33h100v70h66v33h-166v-33h66zM167 297v-34h166v100h-33v-66h-133zM267 185v23h33v-47h-100v80h-33
v-113h166v113h-100v-56h34zM333 -45v113h-166v-113h166zM200 35h100v-47h-100v47zM237 -101l-70 -47v-33h166v33h-102l70 47h32v33h-166v-33h70z" />
    <glyph glyph-name=".notdef" horiz-adv-x="500" 
d="M93 750h317v-1000h-317v1000zM233 650v-37h-66v-33h166v33h-66v37h66v33h-165v-33h65zM333 450v34h-66v70h-100v-104h166zM200 520h33v-36h-33v36zM233 390v-37h-66v-33h100v70h66v33h-166v-33h66zM167 297v-34h166v100h-33v-66h-133zM267 185v23h33v-47h-100v80h-33
v-113h166v113h-100v-56h34zM333 -45v113h-166v-113h166zM200 35h100v-47h-100v47zM237 -101l-70 -47v-33h166v33h-102l70 47h32v33h-166v-33h70z" />
    <glyph glyph-name=".null" horiz-adv-x="0" 
 />
    <glyph glyph-name="nonmarkingreturn" horiz-adv-x="333" 
 />
    <glyph glyph-name="space" unicode=" " horiz-adv-x="205" 
 />
    <glyph glyph-name="exclam" unicode="!" horiz-adv-x="140" 
d="M104 630q5 -46 5.5 -109t-1 -108.5t-4.5 -119t-4 -99.5q0 -16 -16 -25t-31 -4t-15 23q9 315 -3 441q-2 27 14.5 38.5t34.5 1t20 -38.5zM64 83q18 6 27 -5.5t9 -37.5q0 -28 -28 -39q-30 -11 -39.5 18t11.5 52q8 8 20 12z" />
    <glyph glyph-name="quotedbl" unicode="&#x22;" 
d="M332 451v-261h-319v261h319zM19 196h307v249h-307v-249zM87 377q-4 7 -7.5 21.5t-3.5 15.5q-1 2 3 3q1 1 2 -1q1 -3 3.5 -15t4.5 -19q2 23 5 33q0 3 4 2l1 -3q-2 -7 -3.5 -20t-2.5 -17q-1 -2 -3 -2.5t-3 2.5zM208 376q-5 1 -3 4l4 1q0 3 0.5 8t0.5 8q-3 0 -4 2q-2 3 2 3
h2l-1 10h-1q-2 0 -3 1q-1 3 2 4q21 0 22 -8q0 -7 -7 -9q3 0 6 -3q5 -4 3 -12t-10 -9q-4 -1 -7 0q-3 -5 -6 0zM56 377q-1 -4 -5 -2q-1 1 -1 3l3 13q-3 0 -3 2l2 2h2q2 4 5 19q4 6 6 1l5 -19h3q3 -1 2 -4q-1 -1 -3 -1h-1q1 -6 4 -12q1 -5 -3 -4q-1 0 -2 2t-2.5 7.5t-1.5 6.5
h-8zM106 377q0 -4 -4 -2q-2 0 -1 3q0 2 1 6t1 7q-2 0 -2 2t2 2h2q4 17 5 19t3 2.5t3 -1.5l5 -19h2q4 -1 2 -4l-2 -1h-1q1 -3 2 -7t1 -5q2 -5 -2 -4q-2 0 -3 2q-3 12 -3 14h-8zM130 375q-2 0 -2 2.5t2 2.5h4v32l-4 -1q-4 0 -2 4q0 2 2 2h4h6h3q2 -2 1 -5h-5v-32h4q1 -2 1 -5
h-14zM155 374q-3 0 -3 4q0 6 -1 18.5t-1 17.5q0 3 3 3t3 -3q0 -8 1 -19t0 -16h12q-1 2 -1 6q1 2 3 1.5t2 -2.5v-8q0 -2 -4 -2h-14zM183 377q-1 -4 -5 -2q-1 1 -1 3l3 13q-3 0 -3 2l2 2h2q1 2 3 9.5t3 9.5t2.5 2.5t2.5 -1.5l5 -19h3q3 -1 2 -4l-3 -1q1 -9 3 -12q1 -5 -3 -4
q-1 0 -2 2q-3 6 -3 14h-9zM241 374q-3 0 -3 4q0 6 -1 18.5t-1 17.5q0 3 3 3t3 -3q0 -8 1 -19t0 -16h12q-1 3 0 6q0 2 2 1.5t2 -2.5v-2v-3v-3q0 -2 -4 -2h-14zM268 374l-3 3v34q-3 1 -2.5 3t2.5 3h17q3 0 3 -3t-3 -3h-12v-11h10q4 1 4 -3q0 -1 -2 -2q-4 -1 -12 -1v-14l13 1
q5 0 2 -4q-1 -2 -3 -2t-6.5 -0.5t-7.5 -0.5zM218 402q3 1 4.5 3t0.5 4.5t-5 2.5h-4l1 -10h3zM65 396q0 1 -0.5 3t-1 4.5t-0.5 4.5h-1q0 -2 -1 -6.5t-1 -5.5h5zM116 396q-1 2 -3 12q0 -1 -1 -6t-2 -6h6zM192 396q0 1 -0.5 3t-1 4.5t-0.5 4.5h-1q0 -2 -1 -6.5t-1 -5.5h5z
M218 380q8 1 8.5 8t-6.5 9h-5l-1 -17h4zM140 304q2 4 0 13q-2 -1 -2 0q-2 0 -2 2t2 2h2v21q0 4 3 3q2 0 2 -2v-22h13q-1 8 -1 22q0 3 3 3q2 -1 2 -3q0 -8 1 -22t1 -15q0 -2 -2 -3q-3 -2 -3 2q0 8 -1 12h-12v-13q-2 -1 -6 0zM243 302q-9 1 -9 18q0 9 -1 22q0 5 4 3q2 0 2 -2
v-21q0 -14 5 -14q9 0 5 35q0 3 3 2l2 -3l1 -10q1 -10 0 -14q0 -16 -12 -16zM50 303q-2 0 -2 2.5t2 2.5h4v32l-4 -1q-2 0 -2 2.5t2 3.5h13q3 0 3 -2q2 -3 -2 -3h-5v-32h5q2 0 2 -2.5t-2 -2.5q-1 -1 -7 -0.5t-7 0.5zM121 304v36q-5 0 -8 -1q-3 0 -1 4q1 2 2 2h20q1 -2 -1 -6
h-7v-34q-2 -1 -5 -1zM175 302q-3 0 -3 3q-1 1 -1 11v23q-3 1 -2 3t3 3h16q3 0 3 -3t-3 -3h-11l-1 -11h11q4 1 4 -3q0 -1 -2 -2q-5 -1 -12 -1v-14l12 1q6 0 3 -4q-2 -2 -4 -2q-1 0 -5.5 -0.5t-7.5 -0.5zM266 302q-3 0 -3 4q0 6 -1 18.5t-1 17.5q0 3 3 3t3 -3q0 -8 1 -19
t0 -16h12q-2 3 0 6q0 2 2 1.5t2 -2.5v-2v-3v-3q0 -2 -4 -2h-14zM293 302q-3 0 -3 4q1 7 0 20t-1 16t2.5 3t2.5 -3q0 -10 1 -20.5t1 -14.5h11v6q0 2 3 1l2 -2v-8q-1 -2 -4 -2h-15zM208 340q0 4 2 4q12 1 17 0q2 0 2 -3q0 -1 -2 -2q-1 -1 -4 1h-10q0 -12 1 -15h10q2 1 2 -1
q1 -3 -1 -4h-11v-15q0 -2 -3 -2.5t-3 2.5v35zM75 305q0 -4 -4 -2l-1 3q2 17 1 36q0 3 3 2q1 0 2 -2q12 -23 16 -29q-2 16 -2 29q2 1 5 1q0 -3 1 -16.5t0 -19.5q-2 -8 -6 -2q-2 3 -6.5 13t-7.5 14q1 -18 -1 -27zM147 231q-6 -1 -9 3.5t-3 11.5q0 3 2.5 3t2.5 -3q0 -5 2 -8
t6 -2t3.5 5.5t-4.5 8.5l-4.5 4.5t-4.5 6.5q-2 8 3 11t10 -3v3q1 2 4 -1v-10v-2l-3 1q-2 6 -4 7q-3 2 -5 0t0 -5l6 -6q6 -7 7 -13q2 -12 -9 -12zM61 233q-3 6 -6.5 20.5t-4.5 16.5t3 3l2 -1q2 -6 4 -17t4 -17h1q1 14 4 33q1 3 4 2l1 -3q0 -2 -2.5 -17t-3.5 -20q0 -4 -4 -2
q-1 0 -2 2zM84 230q-3 0 -3 3q-1 1 -1 11v23q-3 1 -2 3t3 3h16q3 0 3 -3t-3 -3h-12v-11h11q4 1 4 -3q0 -1 -2 -2q-5 -1 -12 -1v-14l12 1q6 0 3 -4q-2 -2 -4 -2q-1 0 -5.5 -0.5t-7.5 -0.5zM131 231q-5 1 -11 9.5t-7 9.5q0 -10 1 -18q0 -2 -3 -2t-3 2q0 32 -1 35
q-3 0 -3.5 2.5t2.5 3.5h7q16 0 17 -11q0 -7 -7 -9q-1 -1 -4 -1q7 -15 13 -16q2 0 1 -4q0 -2 -2 -1zM162 231q-2 0 -2 2.5t2 2.5h3v32l-4 -1q-3 0 -1 4q0 2 2 2h13q2 -2 1 -5h-5v-32h4q2 0 2 -2.5t-2 -2.5h-13zM191 231q-5 -1 -8.5 4.5t-3.5 13.5q0 15 6 21h1l2 1q1 4 4 1
q4 0 6 -5q6 -5 5 -20.5t-12 -15.5zM212 233q-1 -4 -4 -2l-1 3q2 17 1 36q0 3 3 2q1 0 2 -2q12 -23 16 -29q-2 16 -2 29q2 1 5 1q0 -3 1 -16.5t0 -19.5q-2 -8 -6 -2q-2 3 -6.5 13t-7.5 14q1 -18 -1 -27zM115 255q6 0 8.5 3t0 6.5t-8.5 3.5h-2v-13h2zM188 237q4 -3 7 0
q9 9 0 26q-3 7 -8 1q-4 -5 -3 -14.5t4 -12.5z" />
    <glyph glyph-name="numbersign" unicode="#" 
d="M332 451v-261h-319v261h319zM19 196h307v249h-307v-249zM87 377q-4 7 -7.5 21.5t-3.5 15.5q-1 2 3 3q1 1 2 -1q1 -3 3.5 -15t4.5 -19q2 23 5 33q0 3 4 2l1 -3q-2 -7 -3.5 -20t-2.5 -17q-1 -2 -3 -2.5t-3 2.5zM208 376q-5 1 -3 4l4 1q0 3 0.5 8t0.5 8q-3 0 -4 2q-2 3 2 3
h2l-1 10h-1q-2 0 -3 1q-1 3 2 4q21 0 22 -8q0 -7 -7 -9q3 0 6 -3q5 -4 3 -12t-10 -9q-4 -1 -7 0q-3 -5 -6 0zM56 377q-1 -4 -5 -2q-1 1 -1 3l3 13q-3 0 -3 2l2 2h2q2 4 5 19q4 6 6 1l5 -19h3q3 -1 2 -4q-1 -1 -3 -1h-1q1 -6 4 -12q1 -5 -3 -4q-1 0 -2 2t-2.5 7.5t-1.5 6.5
h-8zM106 377q0 -4 -4 -2q-2 0 -1 3q0 2 1 6t1 7q-2 0 -2 2t2 2h2q4 17 5 19t3 2.5t3 -1.5l5 -19h2q4 -1 2 -4l-2 -1h-1q1 -3 2 -7t1 -5q2 -5 -2 -4q-2 0 -3 2q-3 12 -3 14h-8zM130 375q-2 0 -2 2.5t2 2.5h4v32l-4 -1q-4 0 -2 4q0 2 2 2h4h6h3q2 -2 1 -5h-5v-32h4q1 -2 1 -5
h-14zM155 374q-3 0 -3 4q0 6 -1 18.5t-1 17.5q0 3 3 3t3 -3q0 -8 1 -19t0 -16h12q-1 2 -1 6q1 2 3 1.5t2 -2.5v-8q0 -2 -4 -2h-14zM183 377q-1 -4 -5 -2q-1 1 -1 3l3 13q-3 0 -3 2l2 2h2q1 2 3 9.5t3 9.5t2.5 2.5t2.5 -1.5l5 -19h3q3 -1 2 -4l-3 -1q1 -9 3 -12q1 -5 -3 -4
q-1 0 -2 2q-3 6 -3 14h-9zM241 374q-3 0 -3 4q0 6 -1 18.5t-1 17.5q0 3 3 3t3 -3q0 -8 1 -19t0 -16h12q-1 3 0 6q0 2 2 1.5t2 -2.5v-2v-3v-3q0 -2 -4 -2h-14zM268 374l-3 3v34q-3 1 -2.5 3t2.5 3h17q3 0 3 -3t-3 -3h-12v-11h10q4 1 4 -3q0 -1 -2 -2q-4 -1 -12 -1v-14l13 1
q5 0 2 -4q-1 -2 -3 -2t-6.5 -0.5t-7.5 -0.5zM218 402q3 1 4.5 3t0.5 4.5t-5 2.5h-4l1 -10h3zM65 396q0 1 -0.5 3t-1 4.5t-0.5 4.5h-1q0 -2 -1 -6.5t-1 -5.5h5zM116 396q-1 2 -3 12q0 -1 -1 -6t-2 -6h6zM192 396q0 1 -0.5 3t-1 4.5t-0.5 4.5h-1q0 -2 -1 -6.5t-1 -5.5h5z
M218 380q8 1 8.5 8t-6.5 9h-5l-1 -17h4zM140 304q2 4 0 13q-2 -1 -2 0q-2 0 -2 2t2 2h2v21q0 4 3 3q2 0 2 -2v-22h13q-1 8 -1 22q0 3 3 3q2 -1 2 -3q0 -8 1 -22t1 -15q0 -2 -2 -3q-3 -2 -3 2q0 8 -1 12h-12v-13q-2 -1 -6 0zM243 302q-9 1 -9 18q0 9 -1 22q0 5 4 3q2 0 2 -2
v-21q0 -14 5 -14q9 0 5 35q0 3 3 2l2 -3l1 -10q1 -10 0 -14q0 -16 -12 -16zM50 303q-2 0 -2 2.5t2 2.5h4v32l-4 -1q-2 0 -2 2.5t2 3.5h13q3 0 3 -2q2 -3 -2 -3h-5v-32h5q2 0 2 -2.5t-2 -2.5q-1 -1 -7 -0.5t-7 0.5zM121 304v36q-5 0 -8 -1q-3 0 -1 4q1 2 2 2h20q1 -2 -1 -6
h-7v-34q-2 -1 -5 -1zM175 302q-3 0 -3 3q-1 1 -1 11v23q-3 1 -2 3t3 3h16q3 0 3 -3t-3 -3h-11l-1 -11h11q4 1 4 -3q0 -1 -2 -2q-5 -1 -12 -1v-14l12 1q6 0 3 -4q-2 -2 -4 -2q-1 0 -5.5 -0.5t-7.5 -0.5zM266 302q-3 0 -3 4q0 6 -1 18.5t-1 17.5q0 3 3 3t3 -3q0 -8 1 -19
t0 -16h12q-2 3 0 6q0 2 2 1.5t2 -2.5v-2v-3v-3q0 -2 -4 -2h-14zM293 302q-3 0 -3 4q1 7 0 20t-1 16t2.5 3t2.5 -3q0 -10 1 -20.5t1 -14.5h11v6q0 2 3 1l2 -2v-8q-1 -2 -4 -2h-15zM208 340q0 4 2 4q12 1 17 0q2 0 2 -3q0 -1 -2 -2q-1 -1 -4 1h-10q0 -12 1 -15h10q2 1 2 -1
q1 -3 -1 -4h-11v-15q0 -2 -3 -2.5t-3 2.5v35zM75 305q0 -4 -4 -2l-1 3q2 17 1 36q0 3 3 2q1 0 2 -2q12 -23 16 -29q-2 16 -2 29q2 1 5 1q0 -3 1 -16.5t0 -19.5q-2 -8 -6 -2q-2 3 -6.5 13t-7.5 14q1 -18 -1 -27zM147 231q-6 -1 -9 3.5t-3 11.5q0 3 2.5 3t2.5 -3q0 -5 2 -8
t6 -2t3.5 5.5t-4.5 8.5l-4.5 4.5t-4.5 6.5q-2 8 3 11t10 -3v3q1 2 4 -1v-10v-2l-3 1q-2 6 -4 7q-3 2 -5 0t0 -5l6 -6q6 -7 7 -13q2 -12 -9 -12zM61 233q-3 6 -6.5 20.5t-4.5 16.5t3 3l2 -1q2 -6 4 -17t4 -17h1q1 14 4 33q1 3 4 2l1 -3q0 -2 -2.5 -17t-3.5 -20q0 -4 -4 -2
q-1 0 -2 2zM84 230q-3 0 -3 3q-1 1 -1 11v23q-3 1 -2 3t3 3h16q3 0 3 -3t-3 -3h-12v-11h11q4 1 4 -3q0 -1 -2 -2q-5 -1 -12 -1v-14l12 1q6 0 3 -4q-2 -2 -4 -2q-1 0 -5.5 -0.5t-7.5 -0.5zM131 231q-5 1 -11 9.5t-7 9.5q0 -10 1 -18q0 -2 -3 -2t-3 2q0 32 -1 35
q-3 0 -3.5 2.5t2.5 3.5h7q16 0 17 -11q0 -7 -7 -9q-1 -1 -4 -1q7 -15 13 -16q2 0 1 -4q0 -2 -2 -1zM162 231q-2 0 -2 2.5t2 2.5h3v32l-4 -1q-3 0 -1 4q0 2 2 2h13q2 -2 1 -5h-5v-32h4q2 0 2 -2.5t-2 -2.5h-13zM191 231q-5 -1 -8.5 4.5t-3.5 13.5q0 15 6 21h1l2 1q1 4 4 1
q4 0 6 -5q6 -5 5 -20.5t-12 -15.5zM212 233q-1 -4 -4 -2l-1 3q2 17 1 36q0 3 3 2q1 0 2 -2q12 -23 16 -29q-2 16 -2 29q2 1 5 1q0 -3 1 -16.5t0 -19.5q-2 -8 -6 -2q-2 3 -6.5 13t-7.5 14q1 -18 -1 -27zM115 255q6 0 8.5 3t0 6.5t-8.5 3.5h-2v-13h2zM188 237q4 -3 7 0
q9 9 0 26q-3 7 -8 1q-4 -5 -3 -14.5t4 -12.5z" />
    <glyph glyph-name="dollar" unicode="$" 
d="M332 451v-261h-319v261h319zM19 196h307v249h-307v-249zM87 377q-4 7 -7.5 21.5t-3.5 15.5q-1 2 3 3q1 1 2 -1q1 -3 3.5 -15t4.5 -19q2 23 5 33q0 3 4 2l1 -3q-2 -7 -3.5 -20t-2.5 -17q-1 -2 -3 -2.5t-3 2.5zM208 376q-5 1 -3 4l4 1q0 3 0.5 8t0.5 8q-3 0 -4 2q-2 3 2 3
h2l-1 10h-1q-2 0 -3 1q-1 3 2 4q21 0 22 -8q0 -7 -7 -9q3 0 6 -3q5 -4 3 -12t-10 -9q-4 -1 -7 0q-3 -5 -6 0zM56 377q-1 -4 -5 -2q-1 1 -1 3l3 13q-3 0 -3 2l2 2h2q2 4 5 19q4 6 6 1l5 -19h3q3 -1 2 -4q-1 -1 -3 -1h-1q1 -6 4 -12q1 -5 -3 -4q-1 0 -2 2t-2.5 7.5t-1.5 6.5
h-8zM106 377q0 -4 -4 -2q-2 0 -1 3q0 2 1 6t1 7q-2 0 -2 2t2 2h2q4 17 5 19t3 2.5t3 -1.5l5 -19h2q4 -1 2 -4l-2 -1h-1q1 -3 2 -7t1 -5q2 -5 -2 -4q-2 0 -3 2q-3 12 -3 14h-8zM130 375q-2 0 -2 2.5t2 2.5h4v32l-4 -1q-4 0 -2 4q0 2 2 2h4h6h3q2 -2 1 -5h-5v-32h4q1 -2 1 -5
h-14zM155 374q-3 0 -3 4q0 6 -1 18.5t-1 17.5q0 3 3 3t3 -3q0 -8 1 -19t0 -16h12q-1 2 -1 6q1 2 3 1.5t2 -2.5v-8q0 -2 -4 -2h-14zM183 377q-1 -4 -5 -2q-1 1 -1 3l3 13q-3 0 -3 2l2 2h2q1 2 3 9.5t3 9.5t2.5 2.5t2.5 -1.5l5 -19h3q3 -1 2 -4l-3 -1q1 -9 3 -12q1 -5 -3 -4
q-1 0 -2 2q-3 6 -3 14h-9zM241 374q-3 0 -3 4q0 6 -1 18.5t-1 17.5q0 3 3 3t3 -3q0 -8 1 -19t0 -16h12q-1 3 0 6q0 2 2 1.5t2 -2.5v-2v-3v-3q0 -2 -4 -2h-14zM268 374l-3 3v34q-3 1 -2.5 3t2.5 3h17q3 0 3 -3t-3 -3h-12v-11h10q4 1 4 -3q0 -1 -2 -2q-4 -1 -12 -1v-14l13 1
q5 0 2 -4q-1 -2 -3 -2t-6.5 -0.5t-7.5 -0.5zM218 402q3 1 4.5 3t0.5 4.5t-5 2.5h-4l1 -10h3zM65 396q0 1 -0.5 3t-1 4.5t-0.5 4.5h-1q0 -2 -1 -6.5t-1 -5.5h5zM116 396q-1 2 -3 12q0 -1 -1 -6t-2 -6h6zM192 396q0 1 -0.5 3t-1 4.5t-0.5 4.5h-1q0 -2 -1 -6.5t-1 -5.5h5z
M218 380q8 1 8.5 8t-6.5 9h-5l-1 -17h4zM140 304q2 4 0 13q-2 -1 -2 0q-2 0 -2 2t2 2h2v21q0 4 3 3q2 0 2 -2v-22h13q-1 8 -1 22q0 3 3 3q2 -1 2 -3q0 -8 1 -22t1 -15q0 -2 -2 -3q-3 -2 -3 2q0 8 -1 12h-12v-13q-2 -1 -6 0zM243 302q-9 1 -9 18q0 9 -1 22q0 5 4 3q2 0 2 -2
v-21q0 -14 5 -14q9 0 5 35q0 3 3 2l2 -3l1 -10q1 -10 0 -14q0 -16 -12 -16zM50 303q-2 0 -2 2.5t2 2.5h4v32l-4 -1q-2 0 -2 2.5t2 3.5h13q3 0 3 -2q2 -3 -2 -3h-5v-32h5q2 0 2 -2.5t-2 -2.5q-1 -1 -7 -0.5t-7 0.5zM121 304v36q-5 0 -8 -1q-3 0 -1 4q1 2 2 2h20q1 -2 -1 -6
h-7v-34q-2 -1 -5 -1zM175 302q-3 0 -3 3q-1 1 -1 11v23q-3 1 -2 3t3 3h16q3 0 3 -3t-3 -3h-11l-1 -11h11q4 1 4 -3q0 -1 -2 -2q-5 -1 -12 -1v-14l12 1q6 0 3 -4q-2 -2 -4 -2q-1 0 -5.5 -0.5t-7.5 -0.5zM266 302q-3 0 -3 4q0 6 -1 18.5t-1 17.5q0 3 3 3t3 -3q0 -8 1 -19
t0 -16h12q-2 3 0 6q0 2 2 1.5t2 -2.5v-2v-3v-3q0 -2 -4 -2h-14zM293 302q-3 0 -3 4q1 7 0 20t-1 16t2.5 3t2.5 -3q0 -10 1 -20.5t1 -14.5h11v6q0 2 3 1l2 -2v-8q-1 -2 -4 -2h-15zM208 340q0 4 2 4q12 1 17 0q2 0 2 -3q0 -1 -2 -2q-1 -1 -4 1h-10q0 -12 1 -15h10q2 1 2 -1
q1 -3 -1 -4h-11v-15q0 -2 -3 -2.5t-3 2.5v35zM75 305q0 -4 -4 -2l-1 3q2 17 1 36q0 3 3 2q1 0 2 -2q12 -23 16 -29q-2 16 -2 29q2 1 5 1q0 -3 1 -16.5t0 -19.5q-2 -8 -6 -2q-2 3 -6.5 13t-7.5 14q1 -18 -1 -27zM147 231q-6 -1 -9 3.5t-3 11.5q0 3 2.5 3t2.5 -3q0 -5 2 -8
t6 -2t3.5 5.5t-4.5 8.5l-4.5 4.5t-4.5 6.5q-2 8 3 11t10 -3v3q1 2 4 -1v-10v-2l-3 1q-2 6 -4 7q-3 2 -5 0t0 -5l6 -6q6 -7 7 -13q2 -12 -9 -12zM61 233q-3 6 -6.5 20.5t-4.5 16.5t3 3l2 -1q2 -6 4 -17t4 -17h1q1 14 4 33q1 3 4 2l1 -3q0 -2 -2.5 -17t-3.5 -20q0 -4 -4 -2
q-1 0 -2 2zM84 230q-3 0 -3 3q-1 1 -1 11v23q-3 1 -2 3t3 3h16q3 0 3 -3t-3 -3h-12v-11h11q4 1 4 -3q0 -1 -2 -2q-5 -1 -12 -1v-14l12 1q6 0 3 -4q-2 -2 -4 -2q-1 0 -5.5 -0.5t-7.5 -0.5zM131 231q-5 1 -11 9.5t-7 9.5q0 -10 1 -18q0 -2 -3 -2t-3 2q0 32 -1 35
q-3 0 -3.5 2.5t2.5 3.5h7q16 0 17 -11q0 -7 -7 -9q-1 -1 -4 -1q7 -15 13 -16q2 0 1 -4q0 -2 -2 -1zM162 231q-2 0 -2 2.5t2 2.5h3v32l-4 -1q-3 0 -1 4q0 2 2 2h13q2 -2 1 -5h-5v-32h4q2 0 2 -2.5t-2 -2.5h-13zM191 231q-5 -1 -8.5 4.5t-3.5 13.5q0 15 6 21h1l2 1q1 4 4 1
q4 0 6 -5q6 -5 5 -20.5t-12 -15.5zM212 233q-1 -4 -4 -2l-1 3q2 17 1 36q0 3 3 2q1 0 2 -2q12 -23 16 -29q-2 16 -2 29q2 1 5 1q0 -3 1 -16.5t0 -19.5q-2 -8 -6 -2q-2 3 -6.5 13t-7.5 14q1 -18 -1 -27zM115 255q6 0 8.5 3t0 6.5t-8.5 3.5h-2v-13h2zM188 237q4 -3 7 0
q9 9 0 26q-3 7 -8 1q-4 -5 -3 -14.5t4 -12.5z" />
    <glyph glyph-name="percent" unicode="%" 
d="M332 451v-261h-319v261h319zM19 196h307v249h-307v-249zM87 377q-4 7 -7.5 21.5t-3.5 15.5q-1 2 3 3q1 1 2 -1q1 -3 3.5 -15t4.5 -19q2 23 5 33q0 3 4 2l1 -3q-2 -7 -3.5 -20t-2.5 -17q-1 -2 -3 -2.5t-3 2.5zM208 376q-5 1 -3 4l4 1q0 3 0.5 8t0.5 8q-3 0 -4 2q-2 3 2 3
h2l-1 10h-1q-2 0 -3 1q-1 3 2 4q21 0 22 -8q0 -7 -7 -9q3 0 6 -3q5 -4 3 -12t-10 -9q-4 -1 -7 0q-3 -5 -6 0zM56 377q-1 -4 -5 -2q-1 1 -1 3l3 13q-3 0 -3 2l2 2h2q2 4 5 19q4 6 6 1l5 -19h3q3 -1 2 -4q-1 -1 -3 -1h-1q1 -6 4 -12q1 -5 -3 -4q-1 0 -2 2t-2.5 7.5t-1.5 6.5
h-8zM106 377q0 -4 -4 -2q-2 0 -1 3q0 2 1 6t1 7q-2 0 -2 2t2 2h2q4 17 5 19t3 2.5t3 -1.5l5 -19h2q4 -1 2 -4l-2 -1h-1q1 -3 2 -7t1 -5q2 -5 -2 -4q-2 0 -3 2q-3 12 -3 14h-8zM130 375q-2 0 -2 2.5t2 2.5h4v32l-4 -1q-4 0 -2 4q0 2 2 2h4h6h3q2 -2 1 -5h-5v-32h4q1 -2 1 -5
h-14zM155 374q-3 0 -3 4q0 6 -1 18.5t-1 17.5q0 3 3 3t3 -3q0 -8 1 -19t0 -16h12q-1 2 -1 6q1 2 3 1.5t2 -2.5v-8q0 -2 -4 -2h-14zM183 377q-1 -4 -5 -2q-1 1 -1 3l3 13q-3 0 -3 2l2 2h2q1 2 3 9.5t3 9.5t2.5 2.5t2.5 -1.5l5 -19h3q3 -1 2 -4l-3 -1q1 -9 3 -12q1 -5 -3 -4
q-1 0 -2 2q-3 6 -3 14h-9zM241 374q-3 0 -3 4q0 6 -1 18.5t-1 17.5q0 3 3 3t3 -3q0 -8 1 -19t0 -16h12q-1 3 0 6q0 2 2 1.5t2 -2.5v-2v-3v-3q0 -2 -4 -2h-14zM268 374l-3 3v34q-3 1 -2.5 3t2.5 3h17q3 0 3 -3t-3 -3h-12v-11h10q4 1 4 -3q0 -1 -2 -2q-4 -1 -12 -1v-14l13 1
q5 0 2 -4q-1 -2 -3 -2t-6.5 -0.5t-7.5 -0.5zM218 402q3 1 4.5 3t0.5 4.5t-5 2.5h-4l1 -10h3zM65 396q0 1 -0.5 3t-1 4.5t-0.5 4.5h-1q0 -2 -1 -6.5t-1 -5.5h5zM116 396q-1 2 -3 12q0 -1 -1 -6t-2 -6h6zM192 396q0 1 -0.5 3t-1 4.5t-0.5 4.5h-1q0 -2 -1 -6.5t-1 -5.5h5z
M218 380q8 1 8.5 8t-6.5 9h-5l-1 -17h4zM140 304q2 4 0 13q-2 -1 -2 0q-2 0 -2 2t2 2h2v21q0 4 3 3q2 0 2 -2v-22h13q-1 8 -1 22q0 3 3 3q2 -1 2 -3q0 -8 1 -22t1 -15q0 -2 -2 -3q-3 -2 -3 2q0 8 -1 12h-12v-13q-2 -1 -6 0zM243 302q-9 1 -9 18q0 9 -1 22q0 5 4 3q2 0 2 -2
v-21q0 -14 5 -14q9 0 5 35q0 3 3 2l2 -3l1 -10q1 -10 0 -14q0 -16 -12 -16zM50 303q-2 0 -2 2.5t2 2.5h4v32l-4 -1q-2 0 -2 2.5t2 3.5h13q3 0 3 -2q2 -3 -2 -3h-5v-32h5q2 0 2 -2.5t-2 -2.5q-1 -1 -7 -0.5t-7 0.5zM121 304v36q-5 0 -8 -1q-3 0 -1 4q1 2 2 2h20q1 -2 -1 -6
h-7v-34q-2 -1 -5 -1zM175 302q-3 0 -3 3q-1 1 -1 11v23q-3 1 -2 3t3 3h16q3 0 3 -3t-3 -3h-11l-1 -11h11q4 1 4 -3q0 -1 -2 -2q-5 -1 -12 -1v-14l12 1q6 0 3 -4q-2 -2 -4 -2q-1 0 -5.5 -0.5t-7.5 -0.5zM266 302q-3 0 -3 4q0 6 -1 18.5t-1 17.5q0 3 3 3t3 -3q0 -8 1 -19
t0 -16h12q-2 3 0 6q0 2 2 1.5t2 -2.5v-2v-3v-3q0 -2 -4 -2h-14zM293 302q-3 0 -3 4q1 7 0 20t-1 16t2.5 3t2.5 -3q0 -10 1 -20.5t1 -14.5h11v6q0 2 3 1l2 -2v-8q-1 -2 -4 -2h-15zM208 340q0 4 2 4q12 1 17 0q2 0 2 -3q0 -1 -2 -2q-1 -1 -4 1h-10q0 -12 1 -15h10q2 1 2 -1
q1 -3 -1 -4h-11v-15q0 -2 -3 -2.5t-3 2.5v35zM75 305q0 -4 -4 -2l-1 3q2 17 1 36q0 3 3 2q1 0 2 -2q12 -23 16 -29q-2 16 -2 29q2 1 5 1q0 -3 1 -16.5t0 -19.5q-2 -8 -6 -2q-2 3 -6.5 13t-7.5 14q1 -18 -1 -27zM147 231q-6 -1 -9 3.5t-3 11.5q0 3 2.5 3t2.5 -3q0 -5 2 -8
t6 -2t3.5 5.5t-4.5 8.5l-4.5 4.5t-4.5 6.5q-2 8 3 11t10 -3v3q1 2 4 -1v-10v-2l-3 1q-2 6 -4 7q-3 2 -5 0t0 -5l6 -6q6 -7 7 -13q2 -12 -9 -12zM61 233q-3 6 -6.5 20.5t-4.5 16.5t3 3l2 -1q2 -6 4 -17t4 -17h1q1 14 4 33q1 3 4 2l1 -3q0 -2 -2.5 -17t-3.5 -20q0 -4 -4 -2
q-1 0 -2 2zM84 230q-3 0 -3 3q-1 1 -1 11v23q-3 1 -2 3t3 3h16q3 0 3 -3t-3 -3h-12v-11h11q4 1 4 -3q0 -1 -2 -2q-5 -1 -12 -1v-14l12 1q6 0 3 -4q-2 -2 -4 -2q-1 0 -5.5 -0.5t-7.5 -0.5zM131 231q-5 1 -11 9.5t-7 9.5q0 -10 1 -18q0 -2 -3 -2t-3 2q0 32 -1 35
q-3 0 -3.5 2.5t2.5 3.5h7q16 0 17 -11q0 -7 -7 -9q-1 -1 -4 -1q7 -15 13 -16q2 0 1 -4q0 -2 -2 -1zM162 231q-2 0 -2 2.5t2 2.5h3v32l-4 -1q-3 0 -1 4q0 2 2 2h13q2 -2 1 -5h-5v-32h4q2 0 2 -2.5t-2 -2.5h-13zM191 231q-5 -1 -8.5 4.5t-3.5 13.5q0 15 6 21h1l2 1q1 4 4 1
q4 0 6 -5q6 -5 5 -20.5t-12 -15.5zM212 233q-1 -4 -4 -2l-1 3q2 17 1 36q0 3 3 2q1 0 2 -2q12 -23 16 -29q-2 16 -2 29q2 1 5 1q0 -3 1 -16.5t0 -19.5q-2 -8 -6 -2q-2 3 -6.5 13t-7.5 14q1 -18 -1 -27zM115 255q6 0 8.5 3t0 6.5t-8.5 3.5h-2v-13h2zM188 237q4 -3 7 0
q9 9 0 26q-3 7 -8 1q-4 -5 -3 -14.5t4 -12.5z" />
    <glyph glyph-name="ampersand" unicode="&#x26;" 
d="M332 451v-261h-319v261h319zM19 196h307v249h-307v-249zM87 377q-4 7 -7.5 21.5t-3.5 15.5q-1 2 3 3q1 1 2 -1q1 -3 3.5 -15t4.5 -19q2 23 5 33q0 3 4 2l1 -3q-2 -7 -3.5 -20t-2.5 -17q-1 -2 -3 -2.5t-3 2.5zM208 376q-5 1 -3 4l4 1q0 3 0.5 8t0.5 8q-3 0 -4 2q-2 3 2 3
h2l-1 10h-1q-2 0 -3 1q-1 3 2 4q21 0 22 -8q0 -7 -7 -9q3 0 6 -3q5 -4 3 -12t-10 -9q-4 -1 -7 0q-3 -5 -6 0zM56 377q-1 -4 -5 -2q-1 1 -1 3l3 13q-3 0 -3 2l2 2h2q2 4 5 19q4 6 6 1l5 -19h3q3 -1 2 -4q-1 -1 -3 -1h-1q1 -6 4 -12q1 -5 -3 -4q-1 0 -2 2t-2.5 7.5t-1.5 6.5
h-8zM106 377q0 -4 -4 -2q-2 0 -1 3q0 2 1 6t1 7q-2 0 -2 2t2 2h2q4 17 5 19t3 2.5t3 -1.5l5 -19h2q4 -1 2 -4l-2 -1h-1q1 -3 2 -7t1 -5q2 -5 -2 -4q-2 0 -3 2q-3 12 -3 14h-8zM130 375q-2 0 -2 2.5t2 2.5h4v32l-4 -1q-4 0 -2 4q0 2 2 2h4h6h3q2 -2 1 -5h-5v-32h4q1 -2 1 -5
h-14zM155 374q-3 0 -3 4q0 6 -1 18.5t-1 17.5q0 3 3 3t3 -3q0 -8 1 -19t0 -16h12q-1 2 -1 6q1 2 3 1.5t2 -2.5v-8q0 -2 -4 -2h-14zM183 377q-1 -4 -5 -2q-1 1 -1 3l3 13q-3 0 -3 2l2 2h2q1 2 3 9.5t3 9.5t2.5 2.5t2.5 -1.5l5 -19h3q3 -1 2 -4l-3 -1q1 -9 3 -12q1 -5 -3 -4
q-1 0 -2 2q-3 6 -3 14h-9zM241 374q-3 0 -3 4q0 6 -1 18.5t-1 17.5q0 3 3 3t3 -3q0 -8 1 -19t0 -16h12q-1 3 0 6q0 2 2 1.5t2 -2.5v-2v-3v-3q0 -2 -4 -2h-14zM268 374l-3 3v34q-3 1 -2.5 3t2.5 3h17q3 0 3 -3t-3 -3h-12v-11h10q4 1 4 -3q0 -1 -2 -2q-4 -1 -12 -1v-14l13 1
q5 0 2 -4q-1 -2 -3 -2t-6.5 -0.5t-7.5 -0.5zM218 402q3 1 4.5 3t0.5 4.5t-5 2.5h-4l1 -10h3zM65 396q0 1 -0.5 3t-1 4.5t-0.5 4.5h-1q0 -2 -1 -6.5t-1 -5.5h5zM116 396q-1 2 -3 12q0 -1 -1 -6t-2 -6h6zM192 396q0 1 -0.5 3t-1 4.5t-0.5 4.5h-1q0 -2 -1 -6.5t-1 -5.5h5z
M218 380q8 1 8.5 8t-6.5 9h-5l-1 -17h4zM140 304q2 4 0 13q-2 -1 -2 0q-2 0 -2 2t2 2h2v21q0 4 3 3q2 0 2 -2v-22h13q-1 8 -1 22q0 3 3 3q2 -1 2 -3q0 -8 1 -22t1 -15q0 -2 -2 -3q-3 -2 -3 2q0 8 -1 12h-12v-13q-2 -1 -6 0zM243 302q-9 1 -9 18q0 9 -1 22q0 5 4 3q2 0 2 -2
v-21q0 -14 5 -14q9 0 5 35q0 3 3 2l2 -3l1 -10q1 -10 0 -14q0 -16 -12 -16zM50 303q-2 0 -2 2.5t2 2.5h4v32l-4 -1q-2 0 -2 2.5t2 3.5h13q3 0 3 -2q2 -3 -2 -3h-5v-32h5q2 0 2 -2.5t-2 -2.5q-1 -1 -7 -0.5t-7 0.5zM121 304v36q-5 0 -8 -1q-3 0 -1 4q1 2 2 2h20q1 -2 -1 -6
h-7v-34q-2 -1 -5 -1zM175 302q-3 0 -3 3q-1 1 -1 11v23q-3 1 -2 3t3 3h16q3 0 3 -3t-3 -3h-11l-1 -11h11q4 1 4 -3q0 -1 -2 -2q-5 -1 -12 -1v-14l12 1q6 0 3 -4q-2 -2 -4 -2q-1 0 -5.5 -0.5t-7.5 -0.5zM266 302q-3 0 -3 4q0 6 -1 18.5t-1 17.5q0 3 3 3t3 -3q0 -8 1 -19
t0 -16h12q-2 3 0 6q0 2 2 1.5t2 -2.5v-2v-3v-3q0 -2 -4 -2h-14zM293 302q-3 0 -3 4q1 7 0 20t-1 16t2.5 3t2.5 -3q0 -10 1 -20.5t1 -14.5h11v6q0 2 3 1l2 -2v-8q-1 -2 -4 -2h-15zM208 340q0 4 2 4q12 1 17 0q2 0 2 -3q0 -1 -2 -2q-1 -1 -4 1h-10q0 -12 1 -15h10q2 1 2 -1
q1 -3 -1 -4h-11v-15q0 -2 -3 -2.5t-3 2.5v35zM75 305q0 -4 -4 -2l-1 3q2 17 1 36q0 3 3 2q1 0 2 -2q12 -23 16 -29q-2 16 -2 29q2 1 5 1q0 -3 1 -16.5t0 -19.5q-2 -8 -6 -2q-2 3 -6.5 13t-7.5 14q1 -18 -1 -27zM147 231q-6 -1 -9 3.5t-3 11.5q0 3 2.5 3t2.5 -3q0 -5 2 -8
t6 -2t3.5 5.5t-4.5 8.5l-4.5 4.5t-4.5 6.5q-2 8 3 11t10 -3v3q1 2 4 -1v-10v-2l-3 1q-2 6 -4 7q-3 2 -5 0t0 -5l6 -6q6 -7 7 -13q2 -12 -9 -12zM61 233q-3 6 -6.5 20.5t-4.5 16.5t3 3l2 -1q2 -6 4 -17t4 -17h1q1 14 4 33q1 3 4 2l1 -3q0 -2 -2.5 -17t-3.5 -20q0 -4 -4 -2
q-1 0 -2 2zM84 230q-3 0 -3 3q-1 1 -1 11v23q-3 1 -2 3t3 3h16q3 0 3 -3t-3 -3h-12v-11h11q4 1 4 -3q0 -1 -2 -2q-5 -1 -12 -1v-14l12 1q6 0 3 -4q-2 -2 -4 -2q-1 0 -5.5 -0.5t-7.5 -0.5zM131 231q-5 1 -11 9.5t-7 9.5q0 -10 1 -18q0 -2 -3 -2t-3 2q0 32 -1 35
q-3 0 -3.5 2.5t2.5 3.5h7q16 0 17 -11q0 -7 -7 -9q-1 -1 -4 -1q7 -15 13 -16q2 0 1 -4q0 -2 -2 -1zM162 231q-2 0 -2 2.5t2 2.5h3v32l-4 -1q-3 0 -1 4q0 2 2 2h13q2 -2 1 -5h-5v-32h4q2 0 2 -2.5t-2 -2.5h-13zM191 231q-5 -1 -8.5 4.5t-3.5 13.5q0 15 6 21h1l2 1q1 4 4 1
q4 0 6 -5q6 -5 5 -20.5t-12 -15.5zM212 233q-1 -4 -4 -2l-1 3q2 17 1 36q0 3 3 2q1 0 2 -2q12 -23 16 -29q-2 16 -2 29q2 1 5 1q0 -3 1 -16.5t0 -19.5q-2 -8 -6 -2q-2 3 -6.5 13t-7.5 14q1 -18 -1 -27zM115 255q6 0 8.5 3t0 6.5t-8.5 3.5h-2v-13h2zM188 237q4 -3 7 0
q9 9 0 26q-3 7 -8 1q-4 -5 -3 -14.5t4 -12.5z" />
    <glyph glyph-name="quotesingle" unicode="'" 
d="M332 451v-261h-319v261h319zM19 196h307v249h-307v-249zM87 377q-4 7 -7.5 21.5t-3.5 15.5q-1 2 3 3q1 1 2 -1q1 -3 3.5 -15t4.5 -19q2 23 5 33q0 3 4 2l1 -3q-2 -7 -3.5 -20t-2.5 -17q-1 -2 -3 -2.5t-3 2.5zM208 376q-5 1 -3 4l4 1q0 3 0.5 8t0.5 8q-3 0 -4 2q-2 3 2 3
h2l-1 10h-1q-2 0 -3 1q-1 3 2 4q21 0 22 -8q0 -7 -7 -9q3 0 6 -3q5 -4 3 -12t-10 -9q-4 -1 -7 0q-3 -5 -6 0zM56 377q-1 -4 -5 -2q-1 1 -1 3l3 13q-3 0 -3 2l2 2h2q2 4 5 19q4 6 6 1l5 -19h3q3 -1 2 -4q-1 -1 -3 -1h-1q1 -6 4 -12q1 -5 -3 -4q-1 0 -2 2t-2.5 7.5t-1.5 6.5
h-8zM106 377q0 -4 -4 -2q-2 0 -1 3q0 2 1 6t1 7q-2 0 -2 2t2 2h2q4 17 5 19t3 2.5t3 -1.5l5 -19h2q4 -1 2 -4l-2 -1h-1q1 -3 2 -7t1 -5q2 -5 -2 -4q-2 0 -3 2q-3 12 -3 14h-8zM130 375q-2 0 -2 2.5t2 2.5h4v32l-4 -1q-4 0 -2 4q0 2 2 2h4h6h3q2 -2 1 -5h-5v-32h4q1 -2 1 -5
h-14zM155 374q-3 0 -3 4q0 6 -1 18.5t-1 17.5q0 3 3 3t3 -3q0 -8 1 -19t0 -16h12q-1 2 -1 6q1 2 3 1.5t2 -2.5v-8q0 -2 -4 -2h-14zM183 377q-1 -4 -5 -2q-1 1 -1 3l3 13q-3 0 -3 2l2 2h2q1 2 3 9.5t3 9.5t2.5 2.5t2.5 -1.5l5 -19h3q3 -1 2 -4l-3 -1q1 -9 3 -12q1 -5 -3 -4
q-1 0 -2 2q-3 6 -3 14h-9zM241 374q-3 0 -3 4q0 6 -1 18.5t-1 17.5q0 3 3 3t3 -3q0 -8 1 -19t0 -16h12q-1 3 0 6q0 2 2 1.5t2 -2.5v-2v-3v-3q0 -2 -4 -2h-14zM268 374l-3 3v34q-3 1 -2.5 3t2.5 3h17q3 0 3 -3t-3 -3h-12v-11h10q4 1 4 -3q0 -1 -2 -2q-4 -1 -12 -1v-14l13 1
q5 0 2 -4q-1 -2 -3 -2t-6.5 -0.5t-7.5 -0.5zM218 402q3 1 4.5 3t0.5 4.5t-5 2.5h-4l1 -10h3zM65 396q0 1 -0.5 3t-1 4.5t-0.5 4.5h-1q0 -2 -1 -6.5t-1 -5.5h5zM116 396q-1 2 -3 12q0 -1 -1 -6t-2 -6h6zM192 396q0 1 -0.5 3t-1 4.5t-0.5 4.5h-1q0 -2 -1 -6.5t-1 -5.5h5z
M218 380q8 1 8.5 8t-6.5 9h-5l-1 -17h4zM140 304q2 4 0 13q-2 -1 -2 0q-2 0 -2 2t2 2h2v21q0 4 3 3q2 0 2 -2v-22h13q-1 8 -1 22q0 3 3 3q2 -1 2 -3q0 -8 1 -22t1 -15q0 -2 -2 -3q-3 -2 -3 2q0 8 -1 12h-12v-13q-2 -1 -6 0zM243 302q-9 1 -9 18q0 9 -1 22q0 5 4 3q2 0 2 -2
v-21q0 -14 5 -14q9 0 5 35q0 3 3 2l2 -3l1 -10q1 -10 0 -14q0 -16 -12 -16zM50 303q-2 0 -2 2.5t2 2.5h4v32l-4 -1q-2 0 -2 2.5t2 3.5h13q3 0 3 -2q2 -3 -2 -3h-5v-32h5q2 0 2 -2.5t-2 -2.5q-1 -1 -7 -0.5t-7 0.5zM121 304v36q-5 0 -8 -1q-3 0 -1 4q1 2 2 2h20q1 -2 -1 -6
h-7v-34q-2 -1 -5 -1zM175 302q-3 0 -3 3q-1 1 -1 11v23q-3 1 -2 3t3 3h16q3 0 3 -3t-3 -3h-11l-1 -11h11q4 1 4 -3q0 -1 -2 -2q-5 -1 -12 -1v-14l12 1q6 0 3 -4q-2 -2 -4 -2q-1 0 -5.5 -0.5t-7.5 -0.5zM266 302q-3 0 -3 4q0 6 -1 18.5t-1 17.5q0 3 3 3t3 -3q0 -8 1 -19
t0 -16h12q-2 3 0 6q0 2 2 1.5t2 -2.5v-2v-3v-3q0 -2 -4 -2h-14zM293 302q-3 0 -3 4q1 7 0 20t-1 16t2.5 3t2.5 -3q0 -10 1 -20.5t1 -14.5h11v6q0 2 3 1l2 -2v-8q-1 -2 -4 -2h-15zM208 340q0 4 2 4q12 1 17 0q2 0 2 -3q0 -1 -2 -2q-1 -1 -4 1h-10q0 -12 1 -15h10q2 1 2 -1
q1 -3 -1 -4h-11v-15q0 -2 -3 -2.5t-3 2.5v35zM75 305q0 -4 -4 -2l-1 3q2 17 1 36q0 3 3 2q1 0 2 -2q12 -23 16 -29q-2 16 -2 29q2 1 5 1q0 -3 1 -16.5t0 -19.5q-2 -8 -6 -2q-2 3 -6.5 13t-7.5 14q1 -18 -1 -27zM147 231q-6 -1 -9 3.5t-3 11.5q0 3 2.5 3t2.5 -3q0 -5 2 -8
t6 -2t3.5 5.5t-4.5 8.5l-4.5 4.5t-4.5 6.5q-2 8 3 11t10 -3v3q1 2 4 -1v-10v-2l-3 1q-2 6 -4 7q-3 2 -5 0t0 -5l6 -6q6 -7 7 -13q2 -12 -9 -12zM61 233q-3 6 -6.5 20.5t-4.5 16.5t3 3l2 -1q2 -6 4 -17t4 -17h1q1 14 4 33q1 3 4 2l1 -3q0 -2 -2.5 -17t-3.5 -20q0 -4 -4 -2
q-1 0 -2 2zM84 230q-3 0 -3 3q-1 1 -1 11v23q-3 1 -2 3t3 3h16q3 0 3 -3t-3 -3h-12v-11h11q4 1 4 -3q0 -1 -2 -2q-5 -1 -12 -1v-14l12 1q6 0 3 -4q-2 -2 -4 -2q-1 0 -5.5 -0.5t-7.5 -0.5zM131 231q-5 1 -11 9.5t-7 9.5q0 -10 1 -18q0 -2 -3 -2t-3 2q0 32 -1 35
q-3 0 -3.5 2.5t2.5 3.5h7q16 0 17 -11q0 -7 -7 -9q-1 -1 -4 -1q7 -15 13 -16q2 0 1 -4q0 -2 -2 -1zM162 231q-2 0 -2 2.5t2 2.5h3v32l-4 -1q-3 0 -1 4q0 2 2 2h13q2 -2 1 -5h-5v-32h4q2 0 2 -2.5t-2 -2.5h-13zM191 231q-5 -1 -8.5 4.5t-3.5 13.5q0 15 6 21h1l2 1q1 4 4 1
q4 0 6 -5q6 -5 5 -20.5t-12 -15.5zM212 233q-1 -4 -4 -2l-1 3q2 17 1 36q0 3 3 2q1 0 2 -2q12 -23 16 -29q-2 16 -2 29q2 1 5 1q0 -3 1 -16.5t0 -19.5q-2 -8 -6 -2q-2 3 -6.5 13t-7.5 14q1 -18 -1 -27zM115 255q6 0 8.5 3t0 6.5t-8.5 3.5h-2v-13h2zM188 237q4 -3 7 0
q9 9 0 26q-3 7 -8 1q-4 -5 -3 -14.5t4 -12.5z" />
    <glyph glyph-name="parenleft" unicode="(" 
d="M332 451v-261h-319v261h319zM19 196h307v249h-307v-249zM87 377q-4 7 -7.5 21.5t-3.5 15.5q-1 2 3 3q1 1 2 -1q1 -3 3.5 -15t4.5 -19q2 23 5 33q0 3 4 2l1 -3q-2 -7 -3.5 -20t-2.5 -17q-1 -2 -3 -2.5t-3 2.5zM208 376q-5 1 -3 4l4 1q0 3 0.5 8t0.5 8q-3 0 -4 2q-2 3 2 3
h2l-1 10h-1q-2 0 -3 1q-1 3 2 4q21 0 22 -8q0 -7 -7 -9q3 0 6 -3q5 -4 3 -12t-10 -9q-4 -1 -7 0q-3 -5 -6 0zM56 377q-1 -4 -5 -2q-1 1 -1 3l3 13q-3 0 -3 2l2 2h2q2 4 5 19q4 6 6 1l5 -19h3q3 -1 2 -4q-1 -1 -3 -1h-1q1 -6 4 -12q1 -5 -3 -4q-1 0 -2 2t-2.5 7.5t-1.5 6.5
h-8zM106 377q0 -4 -4 -2q-2 0 -1 3q0 2 1 6t1 7q-2 0 -2 2t2 2h2q4 17 5 19t3 2.5t3 -1.5l5 -19h2q4 -1 2 -4l-2 -1h-1q1 -3 2 -7t1 -5q2 -5 -2 -4q-2 0 -3 2q-3 12 -3 14h-8zM130 375q-2 0 -2 2.5t2 2.5h4v32l-4 -1q-4 0 -2 4q0 2 2 2h4h6h3q2 -2 1 -5h-5v-32h4q1 -2 1 -5
h-14zM155 374q-3 0 -3 4q0 6 -1 18.5t-1 17.5q0 3 3 3t3 -3q0 -8 1 -19t0 -16h12q-1 2 -1 6q1 2 3 1.5t2 -2.5v-8q0 -2 -4 -2h-14zM183 377q-1 -4 -5 -2q-1 1 -1 3l3 13q-3 0 -3 2l2 2h2q1 2 3 9.5t3 9.5t2.5 2.5t2.5 -1.5l5 -19h3q3 -1 2 -4l-3 -1q1 -9 3 -12q1 -5 -3 -4
q-1 0 -2 2q-3 6 -3 14h-9zM241 374q-3 0 -3 4q0 6 -1 18.5t-1 17.5q0 3 3 3t3 -3q0 -8 1 -19t0 -16h12q-1 3 0 6q0 2 2 1.5t2 -2.5v-2v-3v-3q0 -2 -4 -2h-14zM268 374l-3 3v34q-3 1 -2.5 3t2.5 3h17q3 0 3 -3t-3 -3h-12v-11h10q4 1 4 -3q0 -1 -2 -2q-4 -1 -12 -1v-14l13 1
q5 0 2 -4q-1 -2 -3 -2t-6.5 -0.5t-7.5 -0.5zM218 402q3 1 4.5 3t0.5 4.5t-5 2.5h-4l1 -10h3zM65 396q0 1 -0.5 3t-1 4.5t-0.5 4.5h-1q0 -2 -1 -6.5t-1 -5.5h5zM116 396q-1 2 -3 12q0 -1 -1 -6t-2 -6h6zM192 396q0 1 -0.5 3t-1 4.5t-0.5 4.5h-1q0 -2 -1 -6.5t-1 -5.5h5z
M218 380q8 1 8.5 8t-6.5 9h-5l-1 -17h4zM140 304q2 4 0 13q-2 -1 -2 0q-2 0 -2 2t2 2h2v21q0 4 3 3q2 0 2 -2v-22h13q-1 8 -1 22q0 3 3 3q2 -1 2 -3q0 -8 1 -22t1 -15q0 -2 -2 -3q-3 -2 -3 2q0 8 -1 12h-12v-13q-2 -1 -6 0zM243 302q-9 1 -9 18q0 9 -1 22q0 5 4 3q2 0 2 -2
v-21q0 -14 5 -14q9 0 5 35q0 3 3 2l2 -3l1 -10q1 -10 0 -14q0 -16 -12 -16zM50 303q-2 0 -2 2.5t2 2.5h4v32l-4 -1q-2 0 -2 2.5t2 3.5h13q3 0 3 -2q2 -3 -2 -3h-5v-32h5q2 0 2 -2.5t-2 -2.5q-1 -1 -7 -0.5t-7 0.5zM121 304v36q-5 0 -8 -1q-3 0 -1 4q1 2 2 2h20q1 -2 -1 -6
h-7v-34q-2 -1 -5 -1zM175 302q-3 0 -3 3q-1 1 -1 11v23q-3 1 -2 3t3 3h16q3 0 3 -3t-3 -3h-11l-1 -11h11q4 1 4 -3q0 -1 -2 -2q-5 -1 -12 -1v-14l12 1q6 0 3 -4q-2 -2 -4 -2q-1 0 -5.5 -0.5t-7.5 -0.5zM266 302q-3 0 -3 4q0 6 -1 18.5t-1 17.5q0 3 3 3t3 -3q0 -8 1 -19
t0 -16h12q-2 3 0 6q0 2 2 1.5t2 -2.5v-2v-3v-3q0 -2 -4 -2h-14zM293 302q-3 0 -3 4q1 7 0 20t-1 16t2.5 3t2.5 -3q0 -10 1 -20.5t1 -14.5h11v6q0 2 3 1l2 -2v-8q-1 -2 -4 -2h-15zM208 340q0 4 2 4q12 1 17 0q2 0 2 -3q0 -1 -2 -2q-1 -1 -4 1h-10q0 -12 1 -15h10q2 1 2 -1
q1 -3 -1 -4h-11v-15q0 -2 -3 -2.5t-3 2.5v35zM75 305q0 -4 -4 -2l-1 3q2 17 1 36q0 3 3 2q1 0 2 -2q12 -23 16 -29q-2 16 -2 29q2 1 5 1q0 -3 1 -16.5t0 -19.5q-2 -8 -6 -2q-2 3 -6.5 13t-7.5 14q1 -18 -1 -27zM147 231q-6 -1 -9 3.5t-3 11.5q0 3 2.5 3t2.5 -3q0 -5 2 -8
t6 -2t3.5 5.5t-4.5 8.5l-4.5 4.5t-4.5 6.5q-2 8 3 11t10 -3v3q1 2 4 -1v-10v-2l-3 1q-2 6 -4 7q-3 2 -5 0t0 -5l6 -6q6 -7 7 -13q2 -12 -9 -12zM61 233q-3 6 -6.5 20.5t-4.5 16.5t3 3l2 -1q2 -6 4 -17t4 -17h1q1 14 4 33q1 3 4 2l1 -3q0 -2 -2.5 -17t-3.5 -20q0 -4 -4 -2
q-1 0 -2 2zM84 230q-3 0 -3 3q-1 1 -1 11v23q-3 1 -2 3t3 3h16q3 0 3 -3t-3 -3h-12v-11h11q4 1 4 -3q0 -1 -2 -2q-5 -1 -12 -1v-14l12 1q6 0 3 -4q-2 -2 -4 -2q-1 0 -5.5 -0.5t-7.5 -0.5zM131 231q-5 1 -11 9.5t-7 9.5q0 -10 1 -18q0 -2 -3 -2t-3 2q0 32 -1 35
q-3 0 -3.5 2.5t2.5 3.5h7q16 0 17 -11q0 -7 -7 -9q-1 -1 -4 -1q7 -15 13 -16q2 0 1 -4q0 -2 -2 -1zM162 231q-2 0 -2 2.5t2 2.5h3v32l-4 -1q-3 0 -1 4q0 2 2 2h13q2 -2 1 -5h-5v-32h4q2 0 2 -2.5t-2 -2.5h-13zM191 231q-5 -1 -8.5 4.5t-3.5 13.5q0 15 6 21h1l2 1q1 4 4 1
q4 0 6 -5q6 -5 5 -20.5t-12 -15.5zM212 233q-1 -4 -4 -2l-1 3q2 17 1 36q0 3 3 2q1 0 2 -2q12 -23 16 -29q-2 16 -2 29q2 1 5 1q0 -3 1 -16.5t0 -19.5q-2 -8 -6 -2q-2 3 -6.5 13t-7.5 14q1 -18 -1 -27zM115 255q6 0 8.5 3t0 6.5t-8.5 3.5h-2v-13h2zM188 237q4 -3 7 0
q9 9 0 26q-3 7 -8 1q-4 -5 -3 -14.5t4 -12.5z" />
    <glyph glyph-name="parenright" unicode=")" 
d="M332 451v-261h-319v261h319zM19 196h307v249h-307v-249zM87 377q-4 7 -7.5 21.5t-3.5 15.5q-1 2 3 3q1 1 2 -1q1 -3 3.5 -15t4.5 -19q2 23 5 33q0 3 4 2l1 -3q-2 -7 -3.5 -20t-2.5 -17q-1 -2 -3 -2.5t-3 2.5zM208 376q-5 1 -3 4l4 1q0 3 0.5 8t0.5 8q-3 0 -4 2q-2 3 2 3
h2l-1 10h-1q-2 0 -3 1q-1 3 2 4q21 0 22 -8q0 -7 -7 -9q3 0 6 -3q5 -4 3 -12t-10 -9q-4 -1 -7 0q-3 -5 -6 0zM56 377q-1 -4 -5 -2q-1 1 -1 3l3 13q-3 0 -3 2l2 2h2q2 4 5 19q4 6 6 1l5 -19h3q3 -1 2 -4q-1 -1 -3 -1h-1q1 -6 4 -12q1 -5 -3 -4q-1 0 -2 2t-2.5 7.5t-1.5 6.5
h-8zM106 377q0 -4 -4 -2q-2 0 -1 3q0 2 1 6t1 7q-2 0 -2 2t2 2h2q4 17 5 19t3 2.5t3 -1.5l5 -19h2q4 -1 2 -4l-2 -1h-1q1 -3 2 -7t1 -5q2 -5 -2 -4q-2 0 -3 2q-3 12 -3 14h-8zM130 375q-2 0 -2 2.5t2 2.5h4v32l-4 -1q-4 0 -2 4q0 2 2 2h4h6h3q2 -2 1 -5h-5v-32h4q1 -2 1 -5
h-14zM155 374q-3 0 -3 4q0 6 -1 18.5t-1 17.5q0 3 3 3t3 -3q0 -8 1 -19t0 -16h12q-1 2 -1 6q1 2 3 1.5t2 -2.5v-8q0 -2 -4 -2h-14zM183 377q-1 -4 -5 -2q-1 1 -1 3l3 13q-3 0 -3 2l2 2h2q1 2 3 9.5t3 9.5t2.5 2.5t2.5 -1.5l5 -19h3q3 -1 2 -4l-3 -1q1 -9 3 -12q1 -5 -3 -4
q-1 0 -2 2q-3 6 -3 14h-9zM241 374q-3 0 -3 4q0 6 -1 18.5t-1 17.5q0 3 3 3t3 -3q0 -8 1 -19t0 -16h12q-1 3 0 6q0 2 2 1.5t2 -2.5v-2v-3v-3q0 -2 -4 -2h-14zM268 374l-3 3v34q-3 1 -2.5 3t2.5 3h17q3 0 3 -3t-3 -3h-12v-11h10q4 1 4 -3q0 -1 -2 -2q-4 -1 -12 -1v-14l13 1
q5 0 2 -4q-1 -2 -3 -2t-6.5 -0.5t-7.5 -0.5zM218 402q3 1 4.5 3t0.5 4.5t-5 2.5h-4l1 -10h3zM65 396q0 1 -0.5 3t-1 4.5t-0.5 4.5h-1q0 -2 -1 -6.5t-1 -5.5h5zM116 396q-1 2 -3 12q0 -1 -1 -6t-2 -6h6zM192 396q0 1 -0.5 3t-1 4.5t-0.5 4.5h-1q0 -2 -1 -6.5t-1 -5.5h5z
M218 380q8 1 8.5 8t-6.5 9h-5l-1 -17h4zM140 304q2 4 0 13q-2 -1 -2 0q-2 0 -2 2t2 2h2v21q0 4 3 3q2 0 2 -2v-22h13q-1 8 -1 22q0 3 3 3q2 -1 2 -3q0 -8 1 -22t1 -15q0 -2 -2 -3q-3 -2 -3 2q0 8 -1 12h-12v-13q-2 -1 -6 0zM243 302q-9 1 -9 18q0 9 -1 22q0 5 4 3q2 0 2 -2
v-21q0 -14 5 -14q9 0 5 35q0 3 3 2l2 -3l1 -10q1 -10 0 -14q0 -16 -12 -16zM50 303q-2 0 -2 2.5t2 2.5h4v32l-4 -1q-2 0 -2 2.5t2 3.5h13q3 0 3 -2q2 -3 -2 -3h-5v-32h5q2 0 2 -2.5t-2 -2.5q-1 -1 -7 -0.5t-7 0.5zM121 304v36q-5 0 -8 -1q-3 0 -1 4q1 2 2 2h20q1 -2 -1 -6
h-7v-34q-2 -1 -5 -1zM175 302q-3 0 -3 3q-1 1 -1 11v23q-3 1 -2 3t3 3h16q3 0 3 -3t-3 -3h-11l-1 -11h11q4 1 4 -3q0 -1 -2 -2q-5 -1 -12 -1v-14l12 1q6 0 3 -4q-2 -2 -4 -2q-1 0 -5.5 -0.5t-7.5 -0.5zM266 302q-3 0 -3 4q0 6 -1 18.5t-1 17.5q0 3 3 3t3 -3q0 -8 1 -19
t0 -16h12q-2 3 0 6q0 2 2 1.5t2 -2.5v-2v-3v-3q0 -2 -4 -2h-14zM293 302q-3 0 -3 4q1 7 0 20t-1 16t2.5 3t2.5 -3q0 -10 1 -20.5t1 -14.5h11v6q0 2 3 1l2 -2v-8q-1 -2 -4 -2h-15zM208 340q0 4 2 4q12 1 17 0q2 0 2 -3q0 -1 -2 -2q-1 -1 -4 1h-10q0 -12 1 -15h10q2 1 2 -1
q1 -3 -1 -4h-11v-15q0 -2 -3 -2.5t-3 2.5v35zM75 305q0 -4 -4 -2l-1 3q2 17 1 36q0 3 3 2q1 0 2 -2q12 -23 16 -29q-2 16 -2 29q2 1 5 1q0 -3 1 -16.5t0 -19.5q-2 -8 -6 -2q-2 3 -6.5 13t-7.5 14q1 -18 -1 -27zM147 231q-6 -1 -9 3.5t-3 11.5q0 3 2.5 3t2.5 -3q0 -5 2 -8
t6 -2t3.5 5.5t-4.5 8.5l-4.5 4.5t-4.5 6.5q-2 8 3 11t10 -3v3q1 2 4 -1v-10v-2l-3 1q-2 6 -4 7q-3 2 -5 0t0 -5l6 -6q6 -7 7 -13q2 -12 -9 -12zM61 233q-3 6 -6.5 20.5t-4.5 16.5t3 3l2 -1q2 -6 4 -17t4 -17h1q1 14 4 33q1 3 4 2l1 -3q0 -2 -2.5 -17t-3.5 -20q0 -4 -4 -2
q-1 0 -2 2zM84 230q-3 0 -3 3q-1 1 -1 11v23q-3 1 -2 3t3 3h16q3 0 3 -3t-3 -3h-12v-11h11q4 1 4 -3q0 -1 -2 -2q-5 -1 -12 -1v-14l12 1q6 0 3 -4q-2 -2 -4 -2q-1 0 -5.5 -0.5t-7.5 -0.5zM131 231q-5 1 -11 9.5t-7 9.5q0 -10 1 -18q0 -2 -3 -2t-3 2q0 32 -1 35
q-3 0 -3.5 2.5t2.5 3.5h7q16 0 17 -11q0 -7 -7 -9q-1 -1 -4 -1q7 -15 13 -16q2 0 1 -4q0 -2 -2 -1zM162 231q-2 0 -2 2.5t2 2.5h3v32l-4 -1q-3 0 -1 4q0 2 2 2h13q2 -2 1 -5h-5v-32h4q2 0 2 -2.5t-2 -2.5h-13zM191 231q-5 -1 -8.5 4.5t-3.5 13.5q0 15 6 21h1l2 1q1 4 4 1
q4 0 6 -5q6 -5 5 -20.5t-12 -15.5zM212 233q-1 -4 -4 -2l-1 3q2 17 1 36q0 3 3 2q1 0 2 -2q12 -23 16 -29q-2 16 -2 29q2 1 5 1q0 -3 1 -16.5t0 -19.5q-2 -8 -6 -2q-2 3 -6.5 13t-7.5 14q1 -18 -1 -27zM115 255q6 0 8.5 3t0 6.5t-8.5 3.5h-2v-13h2zM188 237q4 -3 7 0
q9 9 0 26q-3 7 -8 1q-4 -5 -3 -14.5t4 -12.5z" />
    <glyph glyph-name="asterisk" unicode="*" 
d="M332 451v-261h-319v261h319zM19 196h307v249h-307v-249zM87 377q-4 7 -7.5 21.5t-3.5 15.5q-1 2 3 3q1 1 2 -1q1 -3 3.5 -15t4.5 -19q2 23 5 33q0 3 4 2l1 -3q-2 -7 -3.5 -20t-2.5 -17q-1 -2 -3 -2.5t-3 2.5zM208 376q-5 1 -3 4l4 1q0 3 0.5 8t0.5 8q-3 0 -4 2q-2 3 2 3
h2l-1 10h-1q-2 0 -3 1q-1 3 2 4q21 0 22 -8q0 -7 -7 -9q3 0 6 -3q5 -4 3 -12t-10 -9q-4 -1 -7 0q-3 -5 -6 0zM56 377q-1 -4 -5 -2q-1 1 -1 3l3 13q-3 0 -3 2l2 2h2q2 4 5 19q4 6 6 1l5 -19h3q3 -1 2 -4q-1 -1 -3 -1h-1q1 -6 4 -12q1 -5 -3 -4q-1 0 -2 2t-2.5 7.5t-1.5 6.5
h-8zM106 377q0 -4 -4 -2q-2 0 -1 3q0 2 1 6t1 7q-2 0 -2 2t2 2h2q4 17 5 19t3 2.5t3 -1.5l5 -19h2q4 -1 2 -4l-2 -1h-1q1 -3 2 -7t1 -5q2 -5 -2 -4q-2 0 -3 2q-3 12 -3 14h-8zM130 375q-2 0 -2 2.5t2 2.5h4v32l-4 -1q-4 0 -2 4q0 2 2 2h4h6h3q2 -2 1 -5h-5v-32h4q1 -2 1 -5
h-14zM155 374q-3 0 -3 4q0 6 -1 18.5t-1 17.5q0 3 3 3t3 -3q0 -8 1 -19t0 -16h12q-1 2 -1 6q1 2 3 1.5t2 -2.5v-8q0 -2 -4 -2h-14zM183 377q-1 -4 -5 -2q-1 1 -1 3l3 13q-3 0 -3 2l2 2h2q1 2 3 9.5t3 9.5t2.5 2.5t2.5 -1.5l5 -19h3q3 -1 2 -4l-3 -1q1 -9 3 -12q1 -5 -3 -4
q-1 0 -2 2q-3 6 -3 14h-9zM241 374q-3 0 -3 4q0 6 -1 18.5t-1 17.5q0 3 3 3t3 -3q0 -8 1 -19t0 -16h12q-1 3 0 6q0 2 2 1.5t2 -2.5v-2v-3v-3q0 -2 -4 -2h-14zM268 374l-3 3v34q-3 1 -2.5 3t2.5 3h17q3 0 3 -3t-3 -3h-12v-11h10q4 1 4 -3q0 -1 -2 -2q-4 -1 -12 -1v-14l13 1
q5 0 2 -4q-1 -2 -3 -2t-6.5 -0.5t-7.5 -0.5zM218 402q3 1 4.5 3t0.5 4.5t-5 2.5h-4l1 -10h3zM65 396q0 1 -0.5 3t-1 4.5t-0.5 4.5h-1q0 -2 -1 -6.5t-1 -5.5h5zM116 396q-1 2 -3 12q0 -1 -1 -6t-2 -6h6zM192 396q0 1 -0.5 3t-1 4.5t-0.5 4.5h-1q0 -2 -1 -6.5t-1 -5.5h5z
M218 380q8 1 8.5 8t-6.5 9h-5l-1 -17h4zM140 304q2 4 0 13q-2 -1 -2 0q-2 0 -2 2t2 2h2v21q0 4 3 3q2 0 2 -2v-22h13q-1 8 -1 22q0 3 3 3q2 -1 2 -3q0 -8 1 -22t1 -15q0 -2 -2 -3q-3 -2 -3 2q0 8 -1 12h-12v-13q-2 -1 -6 0zM243 302q-9 1 -9 18q0 9 -1 22q0 5 4 3q2 0 2 -2
v-21q0 -14 5 -14q9 0 5 35q0 3 3 2l2 -3l1 -10q1 -10 0 -14q0 -16 -12 -16zM50 303q-2 0 -2 2.5t2 2.5h4v32l-4 -1q-2 0 -2 2.5t2 3.5h13q3 0 3 -2q2 -3 -2 -3h-5v-32h5q2 0 2 -2.5t-2 -2.5q-1 -1 -7 -0.5t-7 0.5zM121 304v36q-5 0 -8 -1q-3 0 -1 4q1 2 2 2h20q1 -2 -1 -6
h-7v-34q-2 -1 -5 -1zM175 302q-3 0 -3 3q-1 1 -1 11v23q-3 1 -2 3t3 3h16q3 0 3 -3t-3 -3h-11l-1 -11h11q4 1 4 -3q0 -1 -2 -2q-5 -1 -12 -1v-14l12 1q6 0 3 -4q-2 -2 -4 -2q-1 0 -5.5 -0.5t-7.5 -0.5zM266 302q-3 0 -3 4q0 6 -1 18.5t-1 17.5q0 3 3 3t3 -3q0 -8 1 -19
t0 -16h12q-2 3 0 6q0 2 2 1.5t2 -2.5v-2v-3v-3q0 -2 -4 -2h-14zM293 302q-3 0 -3 4q1 7 0 20t-1 16t2.5 3t2.5 -3q0 -10 1 -20.5t1 -14.5h11v6q0 2 3 1l2 -2v-8q-1 -2 -4 -2h-15zM208 340q0 4 2 4q12 1 17 0q2 0 2 -3q0 -1 -2 -2q-1 -1 -4 1h-10q0 -12 1 -15h10q2 1 2 -1
q1 -3 -1 -4h-11v-15q0 -2 -3 -2.5t-3 2.5v35zM75 305q0 -4 -4 -2l-1 3q2 17 1 36q0 3 3 2q1 0 2 -2q12 -23 16 -29q-2 16 -2 29q2 1 5 1q0 -3 1 -16.5t0 -19.5q-2 -8 -6 -2q-2 3 -6.5 13t-7.5 14q1 -18 -1 -27zM147 231q-6 -1 -9 3.5t-3 11.5q0 3 2.5 3t2.5 -3q0 -5 2 -8
t6 -2t3.5 5.5t-4.5 8.5l-4.5 4.5t-4.5 6.5q-2 8 3 11t10 -3v3q1 2 4 -1v-10v-2l-3 1q-2 6 -4 7q-3 2 -5 0t0 -5l6 -6q6 -7 7 -13q2 -12 -9 -12zM61 233q-3 6 -6.5 20.5t-4.5 16.5t3 3l2 -1q2 -6 4 -17t4 -17h1q1 14 4 33q1 3 4 2l1 -3q0 -2 -2.5 -17t-3.5 -20q0 -4 -4 -2
q-1 0 -2 2zM84 230q-3 0 -3 3q-1 1 -1 11v23q-3 1 -2 3t3 3h16q3 0 3 -3t-3 -3h-12v-11h11q4 1 4 -3q0 -1 -2 -2q-5 -1 -12 -1v-14l12 1q6 0 3 -4q-2 -2 -4 -2q-1 0 -5.5 -0.5t-7.5 -0.5zM131 231q-5 1 -11 9.5t-7 9.5q0 -10 1 -18q0 -2 -3 -2t-3 2q0 32 -1 35
q-3 0 -3.5 2.5t2.5 3.5h7q16 0 17 -11q0 -7 -7 -9q-1 -1 -4 -1q7 -15 13 -16q2 0 1 -4q0 -2 -2 -1zM162 231q-2 0 -2 2.5t2 2.5h3v32l-4 -1q-3 0 -1 4q0 2 2 2h13q2 -2 1 -5h-5v-32h4q2 0 2 -2.5t-2 -2.5h-13zM191 231q-5 -1 -8.5 4.5t-3.5 13.5q0 15 6 21h1l2 1q1 4 4 1
q4 0 6 -5q6 -5 5 -20.5t-12 -15.5zM212 233q-1 -4 -4 -2l-1 3q2 17 1 36q0 3 3 2q1 0 2 -2q12 -23 16 -29q-2 16 -2 29q2 1 5 1q0 -3 1 -16.5t0 -19.5q-2 -8 -6 -2q-2 3 -6.5 13t-7.5 14q1 -18 -1 -27zM115 255q6 0 8.5 3t0 6.5t-8.5 3.5h-2v-13h2zM188 237q4 -3 7 0
q9 9 0 26q-3 7 -8 1q-4 -5 -3 -14.5t4 -12.5z" />
    <glyph glyph-name="plus" unicode="+" 
d="M332 451v-261h-319v261h319zM19 196h307v249h-307v-249zM87 377q-4 7 -7.5 21.5t-3.5 15.5q-1 2 3 3q1 1 2 -1q1 -3 3.5 -15t4.5 -19q2 23 5 33q0 3 4 2l1 -3q-2 -7 -3.5 -20t-2.5 -17q-1 -2 -3 -2.5t-3 2.5zM208 376q-5 1 -3 4l4 1q0 3 0.5 8t0.5 8q-3 0 -4 2q-2 3 2 3
h2l-1 10h-1q-2 0 -3 1q-1 3 2 4q21 0 22 -8q0 -7 -7 -9q3 0 6 -3q5 -4 3 -12t-10 -9q-4 -1 -7 0q-3 -5 -6 0zM56 377q-1 -4 -5 -2q-1 1 -1 3l3 13q-3 0 -3 2l2 2h2q2 4 5 19q4 6 6 1l5 -19h3q3 -1 2 -4q-1 -1 -3 -1h-1q1 -6 4 -12q1 -5 -3 -4q-1 0 -2 2t-2.5 7.5t-1.5 6.5
h-8zM106 377q0 -4 -4 -2q-2 0 -1 3q0 2 1 6t1 7q-2 0 -2 2t2 2h2q4 17 5 19t3 2.5t3 -1.5l5 -19h2q4 -1 2 -4l-2 -1h-1q1 -3 2 -7t1 -5q2 -5 -2 -4q-2 0 -3 2q-3 12 -3 14h-8zM130 375q-2 0 -2 2.5t2 2.5h4v32l-4 -1q-4 0 -2 4q0 2 2 2h4h6h3q2 -2 1 -5h-5v-32h4q1 -2 1 -5
h-14zM155 374q-3 0 -3 4q0 6 -1 18.5t-1 17.5q0 3 3 3t3 -3q0 -8 1 -19t0 -16h12q-1 2 -1 6q1 2 3 1.5t2 -2.5v-8q0 -2 -4 -2h-14zM183 377q-1 -4 -5 -2q-1 1 -1 3l3 13q-3 0 -3 2l2 2h2q1 2 3 9.5t3 9.5t2.5 2.5t2.5 -1.5l5 -19h3q3 -1 2 -4l-3 -1q1 -9 3 -12q1 -5 -3 -4
q-1 0 -2 2q-3 6 -3 14h-9zM241 374q-3 0 -3 4q0 6 -1 18.5t-1 17.5q0 3 3 3t3 -3q0 -8 1 -19t0 -16h12q-1 3 0 6q0 2 2 1.5t2 -2.5v-2v-3v-3q0 -2 -4 -2h-14zM268 374l-3 3v34q-3 1 -2.5 3t2.5 3h17q3 0 3 -3t-3 -3h-12v-11h10q4 1 4 -3q0 -1 -2 -2q-4 -1 -12 -1v-14l13 1
q5 0 2 -4q-1 -2 -3 -2t-6.5 -0.5t-7.5 -0.5zM218 402q3 1 4.5 3t0.5 4.5t-5 2.5h-4l1 -10h3zM65 396q0 1 -0.5 3t-1 4.5t-0.5 4.5h-1q0 -2 -1 -6.5t-1 -5.5h5zM116 396q-1 2 -3 12q0 -1 -1 -6t-2 -6h6zM192 396q0 1 -0.5 3t-1 4.5t-0.5 4.5h-1q0 -2 -1 -6.5t-1 -5.5h5z
M218 380q8 1 8.5 8t-6.5 9h-5l-1 -17h4zM140 304q2 4 0 13q-2 -1 -2 0q-2 0 -2 2t2 2h2v21q0 4 3 3q2 0 2 -2v-22h13q-1 8 -1 22q0 3 3 3q2 -1 2 -3q0 -8 1 -22t1 -15q0 -2 -2 -3q-3 -2 -3 2q0 8 -1 12h-12v-13q-2 -1 -6 0zM243 302q-9 1 -9 18q0 9 -1 22q0 5 4 3q2 0 2 -2
v-21q0 -14 5 -14q9 0 5 35q0 3 3 2l2 -3l1 -10q1 -10 0 -14q0 -16 -12 -16zM50 303q-2 0 -2 2.5t2 2.5h4v32l-4 -1q-2 0 -2 2.5t2 3.5h13q3 0 3 -2q2 -3 -2 -3h-5v-32h5q2 0 2 -2.5t-2 -2.5q-1 -1 -7 -0.5t-7 0.5zM121 304v36q-5 0 -8 -1q-3 0 -1 4q1 2 2 2h20q1 -2 -1 -6
h-7v-34q-2 -1 -5 -1zM175 302q-3 0 -3 3q-1 1 -1 11v23q-3 1 -2 3t3 3h16q3 0 3 -3t-3 -3h-11l-1 -11h11q4 1 4 -3q0 -1 -2 -2q-5 -1 -12 -1v-14l12 1q6 0 3 -4q-2 -2 -4 -2q-1 0 -5.5 -0.5t-7.5 -0.5zM266 302q-3 0 -3 4q0 6 -1 18.5t-1 17.5q0 3 3 3t3 -3q0 -8 1 -19
t0 -16h12q-2 3 0 6q0 2 2 1.5t2 -2.5v-2v-3v-3q0 -2 -4 -2h-14zM293 302q-3 0 -3 4q1 7 0 20t-1 16t2.5 3t2.5 -3q0 -10 1 -20.5t1 -14.5h11v6q0 2 3 1l2 -2v-8q-1 -2 -4 -2h-15zM208 340q0 4 2 4q12 1 17 0q2 0 2 -3q0 -1 -2 -2q-1 -1 -4 1h-10q0 -12 1 -15h10q2 1 2 -1
q1 -3 -1 -4h-11v-15q0 -2 -3 -2.5t-3 2.5v35zM75 305q0 -4 -4 -2l-1 3q2 17 1 36q0 3 3 2q1 0 2 -2q12 -23 16 -29q-2 16 -2 29q2 1 5 1q0 -3 1 -16.5t0 -19.5q-2 -8 -6 -2q-2 3 -6.5 13t-7.5 14q1 -18 -1 -27zM147 231q-6 -1 -9 3.5t-3 11.5q0 3 2.5 3t2.5 -3q0 -5 2 -8
t6 -2t3.5 5.5t-4.5 8.5l-4.5 4.5t-4.5 6.5q-2 8 3 11t10 -3v3q1 2 4 -1v-10v-2l-3 1q-2 6 -4 7q-3 2 -5 0t0 -5l6 -6q6 -7 7 -13q2 -12 -9 -12zM61 233q-3 6 -6.5 20.5t-4.5 16.5t3 3l2 -1q2 -6 4 -17t4 -17h1q1 14 4 33q1 3 4 2l1 -3q0 -2 -2.5 -17t-3.5 -20q0 -4 -4 -2
q-1 0 -2 2zM84 230q-3 0 -3 3q-1 1 -1 11v23q-3 1 -2 3t3 3h16q3 0 3 -3t-3 -3h-12v-11h11q4 1 4 -3q0 -1 -2 -2q-5 -1 -12 -1v-14l12 1q6 0 3 -4q-2 -2 -4 -2q-1 0 -5.5 -0.5t-7.5 -0.5zM131 231q-5 1 -11 9.5t-7 9.5q0 -10 1 -18q0 -2 -3 -2t-3 2q0 32 -1 35
q-3 0 -3.5 2.5t2.5 3.5h7q16 0 17 -11q0 -7 -7 -9q-1 -1 -4 -1q7 -15 13 -16q2 0 1 -4q0 -2 -2 -1zM162 231q-2 0 -2 2.5t2 2.5h3v32l-4 -1q-3 0 -1 4q0 2 2 2h13q2 -2 1 -5h-5v-32h4q2 0 2 -2.5t-2 -2.5h-13zM191 231q-5 -1 -8.5 4.5t-3.5 13.5q0 15 6 21h1l2 1q1 4 4 1
q4 0 6 -5q6 -5 5 -20.5t-12 -15.5zM212 233q-1 -4 -4 -2l-1 3q2 17 1 36q0 3 3 2q1 0 2 -2q12 -23 16 -29q-2 16 -2 29q2 1 5 1q0 -3 1 -16.5t0 -19.5q-2 -8 -6 -2q-2 3 -6.5 13t-7.5 14q1 -18 -1 -27zM115 255q6 0 8.5 3t0 6.5t-8.5 3.5h-2v-13h2zM188 237q4 -3 7 0
q9 9 0 26q-3 7 -8 1q-4 -5 -3 -14.5t4 -12.5z" />
    <glyph glyph-name="comma" unicode="," horiz-adv-x="154" 
d="M124 29q0 -51 -7 -84.5t-27 -82.5q-19 -38 -43 -32q-20 4 -16 32q1 8 5 17q15 35 19 63t4 81q0 23 16 33t32.5 1.5t16.5 -28.5z" />
    <glyph glyph-name="hyphen" unicode="-" 
d="M332 451v-261h-319v261h319zM19 196h307v249h-307v-249zM87 377q-4 7 -7.5 21.5t-3.5 15.5q-1 2 3 3q1 1 2 -1q1 -3 3.5 -15t4.5 -19q2 23 5 33q0 3 4 2l1 -3q-2 -7 -3.5 -20t-2.5 -17q-1 -2 -3 -2.5t-3 2.5zM208 376q-5 1 -3 4l4 1q0 3 0.5 8t0.5 8q-3 0 -4 2q-2 3 2 3
h2l-1 10h-1q-2 0 -3 1q-1 3 2 4q21 0 22 -8q0 -7 -7 -9q3 0 6 -3q5 -4 3 -12t-10 -9q-4 -1 -7 0q-3 -5 -6 0zM56 377q-1 -4 -5 -2q-1 1 -1 3l3 13q-3 0 -3 2l2 2h2q2 4 5 19q4 6 6 1l5 -19h3q3 -1 2 -4q-1 -1 -3 -1h-1q1 -6 4 -12q1 -5 -3 -4q-1 0 -2 2t-2.5 7.5t-1.5 6.5
h-8zM106 377q0 -4 -4 -2q-2 0 -1 3q0 2 1 6t1 7q-2 0 -2 2t2 2h2q4 17 5 19t3 2.5t3 -1.5l5 -19h2q4 -1 2 -4l-2 -1h-1q1 -3 2 -7t1 -5q2 -5 -2 -4q-2 0 -3 2q-3 12 -3 14h-8zM130 375q-2 0 -2 2.5t2 2.5h4v32l-4 -1q-4 0 -2 4q0 2 2 2h4h6h3q2 -2 1 -5h-5v-32h4q1 -2 1 -5
h-14zM155 374q-3 0 -3 4q0 6 -1 18.5t-1 17.5q0 3 3 3t3 -3q0 -8 1 -19t0 -16h12q-1 2 -1 6q1 2 3 1.5t2 -2.5v-8q0 -2 -4 -2h-14zM183 377q-1 -4 -5 -2q-1 1 -1 3l3 13q-3 0 -3 2l2 2h2q1 2 3 9.5t3 9.5t2.5 2.5t2.5 -1.5l5 -19h3q3 -1 2 -4l-3 -1q1 -9 3 -12q1 -5 -3 -4
q-1 0 -2 2q-3 6 -3 14h-9zM241 374q-3 0 -3 4q0 6 -1 18.5t-1 17.5q0 3 3 3t3 -3q0 -8 1 -19t0 -16h12q-1 3 0 6q0 2 2 1.5t2 -2.5v-2v-3v-3q0 -2 -4 -2h-14zM268 374l-3 3v34q-3 1 -2.5 3t2.5 3h17q3 0 3 -3t-3 -3h-12v-11h10q4 1 4 -3q0 -1 -2 -2q-4 -1 -12 -1v-14l13 1
q5 0 2 -4q-1 -2 -3 -2t-6.5 -0.5t-7.5 -0.5zM218 402q3 1 4.5 3t0.5 4.5t-5 2.5h-4l1 -10h3zM65 396q0 1 -0.5 3t-1 4.5t-0.5 4.5h-1q0 -2 -1 -6.5t-1 -5.5h5zM116 396q-1 2 -3 12q0 -1 -1 -6t-2 -6h6zM192 396q0 1 -0.5 3t-1 4.5t-0.5 4.5h-1q0 -2 -1 -6.5t-1 -5.5h5z
M218 380q8 1 8.5 8t-6.5 9h-5l-1 -17h4zM140 304q2 4 0 13q-2 -1 -2 0q-2 0 -2 2t2 2h2v21q0 4 3 3q2 0 2 -2v-22h13q-1 8 -1 22q0 3 3 3q2 -1 2 -3q0 -8 1 -22t1 -15q0 -2 -2 -3q-3 -2 -3 2q0 8 -1 12h-12v-13q-2 -1 -6 0zM243 302q-9 1 -9 18q0 9 -1 22q0 5 4 3q2 0 2 -2
v-21q0 -14 5 -14q9 0 5 35q0 3 3 2l2 -3l1 -10q1 -10 0 -14q0 -16 -12 -16zM50 303q-2 0 -2 2.5t2 2.5h4v32l-4 -1q-2 0 -2 2.5t2 3.5h13q3 0 3 -2q2 -3 -2 -3h-5v-32h5q2 0 2 -2.5t-2 -2.5q-1 -1 -7 -0.5t-7 0.5zM121 304v36q-5 0 -8 -1q-3 0 -1 4q1 2 2 2h20q1 -2 -1 -6
h-7v-34q-2 -1 -5 -1zM175 302q-3 0 -3 3q-1 1 -1 11v23q-3 1 -2 3t3 3h16q3 0 3 -3t-3 -3h-11l-1 -11h11q4 1 4 -3q0 -1 -2 -2q-5 -1 -12 -1v-14l12 1q6 0 3 -4q-2 -2 -4 -2q-1 0 -5.5 -0.5t-7.5 -0.5zM266 302q-3 0 -3 4q0 6 -1 18.5t-1 17.5q0 3 3 3t3 -3q0 -8 1 -19
t0 -16h12q-2 3 0 6q0 2 2 1.5t2 -2.5v-2v-3v-3q0 -2 -4 -2h-14zM293 302q-3 0 -3 4q1 7 0 20t-1 16t2.5 3t2.5 -3q0 -10 1 -20.5t1 -14.5h11v6q0 2 3 1l2 -2v-8q-1 -2 -4 -2h-15zM208 340q0 4 2 4q12 1 17 0q2 0 2 -3q0 -1 -2 -2q-1 -1 -4 1h-10q0 -12 1 -15h10q2 1 2 -1
q1 -3 -1 -4h-11v-15q0 -2 -3 -2.5t-3 2.5v35zM75 305q0 -4 -4 -2l-1 3q2 17 1 36q0 3 3 2q1 0 2 -2q12 -23 16 -29q-2 16 -2 29q2 1 5 1q0 -3 1 -16.5t0 -19.5q-2 -8 -6 -2q-2 3 -6.5 13t-7.5 14q1 -18 -1 -27zM147 231q-6 -1 -9 3.5t-3 11.5q0 3 2.5 3t2.5 -3q0 -5 2 -8
t6 -2t3.5 5.5t-4.5 8.5l-4.5 4.5t-4.5 6.5q-2 8 3 11t10 -3v3q1 2 4 -1v-10v-2l-3 1q-2 6 -4 7q-3 2 -5 0t0 -5l6 -6q6 -7 7 -13q2 -12 -9 -12zM61 233q-3 6 -6.5 20.5t-4.5 16.5t3 3l2 -1q2 -6 4 -17t4 -17h1q1 14 4 33q1 3 4 2l1 -3q0 -2 -2.5 -17t-3.5 -20q0 -4 -4 -2
q-1 0 -2 2zM84 230q-3 0 -3 3q-1 1 -1 11v23q-3 1 -2 3t3 3h16q3 0 3 -3t-3 -3h-12v-11h11q4 1 4 -3q0 -1 -2 -2q-5 -1 -12 -1v-14l12 1q6 0 3 -4q-2 -2 -4 -2q-1 0 -5.5 -0.5t-7.5 -0.5zM131 231q-5 1 -11 9.5t-7 9.5q0 -10 1 -18q0 -2 -3 -2t-3 2q0 32 -1 35
q-3 0 -3.5 2.5t2.5 3.5h7q16 0 17 -11q0 -7 -7 -9q-1 -1 -4 -1q7 -15 13 -16q2 0 1 -4q0 -2 -2 -1zM162 231q-2 0 -2 2.5t2 2.5h3v32l-4 -1q-3 0 -1 4q0 2 2 2h13q2 -2 1 -5h-5v-32h4q2 0 2 -2.5t-2 -2.5h-13zM191 231q-5 -1 -8.5 4.5t-3.5 13.5q0 15 6 21h1l2 1q1 4 4 1
q4 0 6 -5q6 -5 5 -20.5t-12 -15.5zM212 233q-1 -4 -4 -2l-1 3q2 17 1 36q0 3 3 2q1 0 2 -2q12 -23 16 -29q-2 16 -2 29q2 1 5 1q0 -3 1 -16.5t0 -19.5q-2 -8 -6 -2q-2 3 -6.5 13t-7.5 14q1 -18 -1 -27zM115 255q6 0 8.5 3t0 6.5t-8.5 3.5h-2v-13h2zM188 237q4 -3 7 0
q9 9 0 26q-3 7 -8 1q-4 -5 -3 -14.5t4 -12.5z" />
    <glyph glyph-name="period" unicode="." horiz-adv-x="139" 
d="M71 81q42 0 38 -57q-1 -16 -14.5 -26t-29.5 -10q-24 2 -32 26.5t3.5 46.5t34.5 20z" />
    <glyph glyph-name="slash" unicode="/" 
d="M332 451v-261h-319v261h319zM19 196h307v249h-307v-249zM87 377q-4 7 -7.5 21.5t-3.5 15.5q-1 2 3 3q1 1 2 -1q1 -3 3.5 -15t4.5 -19q2 23 5 33q0 3 4 2l1 -3q-2 -7 -3.5 -20t-2.5 -17q-1 -2 -3 -2.5t-3 2.5zM208 376q-5 1 -3 4l4 1q0 3 0.5 8t0.5 8q-3 0 -4 2q-2 3 2 3
h2l-1 10h-1q-2 0 -3 1q-1 3 2 4q21 0 22 -8q0 -7 -7 -9q3 0 6 -3q5 -4 3 -12t-10 -9q-4 -1 -7 0q-3 -5 -6 0zM56 377q-1 -4 -5 -2q-1 1 -1 3l3 13q-3 0 -3 2l2 2h2q2 4 5 19q4 6 6 1l5 -19h3q3 -1 2 -4q-1 -1 -3 -1h-1q1 -6 4 -12q1 -5 -3 -4q-1 0 -2 2t-2.5 7.5t-1.5 6.5
h-8zM106 377q0 -4 -4 -2q-2 0 -1 3q0 2 1 6t1 7q-2 0 -2 2t2 2h2q4 17 5 19t3 2.5t3 -1.5l5 -19h2q4 -1 2 -4l-2 -1h-1q1 -3 2 -7t1 -5q2 -5 -2 -4q-2 0 -3 2q-3 12 -3 14h-8zM130 375q-2 0 -2 2.5t2 2.5h4v32l-4 -1q-4 0 -2 4q0 2 2 2h4h6h3q2 -2 1 -5h-5v-32h4q1 -2 1 -5
h-14zM155 374q-3 0 -3 4q0 6 -1 18.5t-1 17.5q0 3 3 3t3 -3q0 -8 1 -19t0 -16h12q-1 2 -1 6q1 2 3 1.5t2 -2.5v-8q0 -2 -4 -2h-14zM183 377q-1 -4 -5 -2q-1 1 -1 3l3 13q-3 0 -3 2l2 2h2q1 2 3 9.5t3 9.5t2.5 2.5t2.5 -1.5l5 -19h3q3 -1 2 -4l-3 -1q1 -9 3 -12q1 -5 -3 -4
q-1 0 -2 2q-3 6 -3 14h-9zM241 374q-3 0 -3 4q0 6 -1 18.5t-1 17.5q0 3 3 3t3 -3q0 -8 1 -19t0 -16h12q-1 3 0 6q0 2 2 1.5t2 -2.5v-2v-3v-3q0 -2 -4 -2h-14zM268 374l-3 3v34q-3 1 -2.5 3t2.5 3h17q3 0 3 -3t-3 -3h-12v-11h10q4 1 4 -3q0 -1 -2 -2q-4 -1 -12 -1v-14l13 1
q5 0 2 -4q-1 -2 -3 -2t-6.5 -0.5t-7.5 -0.5zM218 402q3 1 4.5 3t0.5 4.5t-5 2.5h-4l1 -10h3zM65 396q0 1 -0.5 3t-1 4.5t-0.5 4.5h-1q0 -2 -1 -6.5t-1 -5.5h5zM116 396q-1 2 -3 12q0 -1 -1 -6t-2 -6h6zM192 396q0 1 -0.5 3t-1 4.5t-0.5 4.5h-1q0 -2 -1 -6.5t-1 -5.5h5z
M218 380q8 1 8.5 8t-6.5 9h-5l-1 -17h4zM140 304q2 4 0 13q-2 -1 -2 0q-2 0 -2 2t2 2h2v21q0 4 3 3q2 0 2 -2v-22h13q-1 8 -1 22q0 3 3 3q2 -1 2 -3q0 -8 1 -22t1 -15q0 -2 -2 -3q-3 -2 -3 2q0 8 -1 12h-12v-13q-2 -1 -6 0zM243 302q-9 1 -9 18q0 9 -1 22q0 5 4 3q2 0 2 -2
v-21q0 -14 5 -14q9 0 5 35q0 3 3 2l2 -3l1 -10q1 -10 0 -14q0 -16 -12 -16zM50 303q-2 0 -2 2.5t2 2.5h4v32l-4 -1q-2 0 -2 2.5t2 3.5h13q3 0 3 -2q2 -3 -2 -3h-5v-32h5q2 0 2 -2.5t-2 -2.5q-1 -1 -7 -0.5t-7 0.5zM121 304v36q-5 0 -8 -1q-3 0 -1 4q1 2 2 2h20q1 -2 -1 -6
h-7v-34q-2 -1 -5 -1zM175 302q-3 0 -3 3q-1 1 -1 11v23q-3 1 -2 3t3 3h16q3 0 3 -3t-3 -3h-11l-1 -11h11q4 1 4 -3q0 -1 -2 -2q-5 -1 -12 -1v-14l12 1q6 0 3 -4q-2 -2 -4 -2q-1 0 -5.5 -0.5t-7.5 -0.5zM266 302q-3 0 -3 4q0 6 -1 18.5t-1 17.5q0 3 3 3t3 -3q0 -8 1 -19
t0 -16h12q-2 3 0 6q0 2 2 1.5t2 -2.5v-2v-3v-3q0 -2 -4 -2h-14zM293 302q-3 0 -3 4q1 7 0 20t-1 16t2.5 3t2.5 -3q0 -10 1 -20.5t1 -14.5h11v6q0 2 3 1l2 -2v-8q-1 -2 -4 -2h-15zM208 340q0 4 2 4q12 1 17 0q2 0 2 -3q0 -1 -2 -2q-1 -1 -4 1h-10q0 -12 1 -15h10q2 1 2 -1
q1 -3 -1 -4h-11v-15q0 -2 -3 -2.5t-3 2.5v35zM75 305q0 -4 -4 -2l-1 3q2 17 1 36q0 3 3 2q1 0 2 -2q12 -23 16 -29q-2 16 -2 29q2 1 5 1q0 -3 1 -16.5t0 -19.5q-2 -8 -6 -2q-2 3 -6.5 13t-7.5 14q1 -18 -1 -27zM147 231q-6 -1 -9 3.5t-3 11.5q0 3 2.5 3t2.5 -3q0 -5 2 -8
t6 -2t3.5 5.5t-4.5 8.5l-4.5 4.5t-4.5 6.5q-2 8 3 11t10 -3v3q1 2 4 -1v-10v-2l-3 1q-2 6 -4 7q-3 2 -5 0t0 -5l6 -6q6 -7 7 -13q2 -12 -9 -12zM61 233q-3 6 -6.5 20.5t-4.5 16.5t3 3l2 -1q2 -6 4 -17t4 -17h1q1 14 4 33q1 3 4 2l1 -3q0 -2 -2.5 -17t-3.5 -20q0 -4 -4 -2
q-1 0 -2 2zM84 230q-3 0 -3 3q-1 1 -1 11v23q-3 1 -2 3t3 3h16q3 0 3 -3t-3 -3h-12v-11h11q4 1 4 -3q0 -1 -2 -2q-5 -1 -12 -1v-14l12 1q6 0 3 -4q-2 -2 -4 -2q-1 0 -5.5 -0.5t-7.5 -0.5zM131 231q-5 1 -11 9.5t-7 9.5q0 -10 1 -18q0 -2 -3 -2t-3 2q0 32 -1 35
q-3 0 -3.5 2.5t2.5 3.5h7q16 0 17 -11q0 -7 -7 -9q-1 -1 -4 -1q7 -15 13 -16q2 0 1 -4q0 -2 -2 -1zM162 231q-2 0 -2 2.5t2 2.5h3v32l-4 -1q-3 0 -1 4q0 2 2 2h13q2 -2 1 -5h-5v-32h4q2 0 2 -2.5t-2 -2.5h-13zM191 231q-5 -1 -8.5 4.5t-3.5 13.5q0 15 6 21h1l2 1q1 4 4 1
q4 0 6 -5q6 -5 5 -20.5t-12 -15.5zM212 233q-1 -4 -4 -2l-1 3q2 17 1 36q0 3 3 2q1 0 2 -2q12 -23 16 -29q-2 16 -2 29q2 1 5 1q0 -3 1 -16.5t0 -19.5q-2 -8 -6 -2q-2 3 -6.5 13t-7.5 14q1 -18 -1 -27zM115 255q6 0 8.5 3t0 6.5t-8.5 3.5h-2v-13h2zM188 237q4 -3 7 0
q9 9 0 26q-3 7 -8 1q-4 -5 -3 -14.5t4 -12.5z" />
    <glyph glyph-name="zero" unicode="0" horiz-adv-x="412" 
d="M190 676q15 12 32 8t21 -17q47 -19 87 -80q37 -56 55.5 -158t7.5 -207t-52 -160q-40 -59 -106 -60.5t-112 54.5q-76 84 -81.5 258t63.5 278q34 50 85 84zM213 607q-32 -17 -62 -65q-46 -87 -40.5 -234.5t53.5 -203.5q29 -38 68.5 -36t61.5 46q32 53 36 142.5t-12 169
t-42 123.5q-33 52 -63 58z" />
    <glyph glyph-name="one" unicode="1" horiz-adv-x="309" 
d="M142 658q12 25 30 29t29 -10t8 -34q-8 -77 -10.5 -183.5t-1 -235t0.5 -167.5q12 0 83 3q8 0 14.5 -5.5t8.5 -13.5t1.5 -16.5t-5.5 -15t-13 -7.5q-39 -3 -247 -3q-14 0 -20.5 15.5t-1 31t20.5 15.5q56 0 94 -2q1 39 3.5 217.5t7.5 284.5q-9 -22 -21.5 -46t-22 -39
t-22.5 -35.5t-17 -26.5q-13 -20 -36.5 -7t-9.5 36q54 78 127 215z" />
    <glyph glyph-name="two" unicode="2" horiz-adv-x="409" 
d="M132 669q37 27 83.5 25t80.5 -30q33 -26 36.5 -80t-14.5 -117t-51 -137t-67 -134.5t-70 -115.5q30 15 66 9.5t59.5 -18.5t48.5 -16t32 18q6 28 5 46t-8.5 58.5t-8.5 50.5q-4 23 21 28q27 6 40 -13q4 -7 4 -15q0 -21 4 -54.5t6 -56.5t0 -47.5t-13 -40.5t-32 -24
q-39 -16 -64.5 -11.5t-53 14.5t-50 19.5t-55 3.5t-68.5 -34q-22 -12 -34 4q-19 24 22 69l3 3q40 47 98 160t92.5 224.5t9.5 138.5q-17 26 -47.5 25.5t-52.5 -25.5q-22 -27 -37.5 -83t-13.5 -90q0 -21 -15.5 -30t-31.5 -0.5t-16 30.5q-2 61 22.5 137t69.5 109z" />
    <glyph glyph-name="three" unicode="3" horiz-adv-x="362" 
d="M51 682q101 2 205 0q21 1 31 -12t-1 -32q-18 -32 -72 -82t-67 -65q103 16 148 -29q37 -40 46.5 -104.5t-4.5 -127t-40 -116.5t-57 -79q-35 -29 -84.5 -31.5t-81.5 20.5q-47 31 -59.5 108.5t-4.5 157.5q2 17 19 21t32 -6t14 -28q-9 -41 -1.5 -104.5t33.5 -86.5
q19 -15 47 -15.5t49 15.5q26 24 48 87t25 129t-26 112q-12 14 -26.5 21.5t-32.5 8t-30 -1t-32.5 -6t-26.5 -5.5q-31 -6 -40.5 13.5t6.5 38.5q16 21 40 45t55 53t44 42q-120 0 -162 -4q-25 -1 -27 23q-1 25 20 36z" />
    <glyph glyph-name="four" unicode="4" horiz-adv-x="410" 
d="M340 639q0 -63 -11 -207.5t-8 -230.5q27 3 69 1q16 -1 20 -16t-4.5 -29t-23.5 -14q-49 0 -57 -1q0 -3 2.5 -46.5t1.5 -61.5q-4 -25 -31 -34q-27 -8 -35 12q-3 6 -2 15q1 17 -1.5 55.5t-2.5 54.5q-28 -3 -100.5 -2t-121.5 -6q-21 -2 -32.5 18t4.5 45q6 10 256 461
q11 20 30 27.5t34 -3.5t13 -38zM276 572q-17 -33 -62 -120.5t-77.5 -150t-58.5 -106.5q37 3 89.5 2t86.5 1q-1 38 2.5 96t10 140.5t9.5 137.5z" />
    <glyph glyph-name="five" unicode="5" horiz-adv-x="352" 
d="M275 692q30 5 33 -21q4 -26 -19 -42q-8 -6 -17 -7q-25 0 -87 -5.5t-107 -2.5q5 -80 5 -105q97 25 171 -22q50 -30 69 -124.5t3.5 -190.5t-53.5 -135q-32 -32 -87.5 -37.5t-97.5 19.5q-39 23 -54.5 73t-18 123t-4.5 85q-1 9 5.5 16.5t16.5 10t19.5 2t17 -6.5t8.5 -15
q1 -11 2.5 -68t8 -99t22.5 -58q29 -23 60.5 -21.5t56.5 24.5q24 26 34.5 99t-4 149.5t-55.5 103.5q-55 36 -137 12q-22 -9 -36 0t-10 34q1 26 -2 79t-3 63q-10 14 -1 37.5t28 22.5q93 -4 233 7z" />
    <glyph glyph-name="six" unicode="6" horiz-adv-x="397" 
d="M320 661q44 -37 55 -131q1 -30 -24 -41q-23 -10 -35 11q-3 7 -4 16q-8 69 -36 92q-21 19 -50.5 16t-51.5 -27q-27 -34 -36 -87t-12 -138q34 37 75 53t77 10t62 -31q37 -41 42.5 -122.5t-14.5 -155t-53 -101.5q-32 -28 -80.5 -30t-79.5 19q-46 29 -69.5 92.5t-21.5 126.5
q-41 -27 -45 -3q-4 26 33 68q5 6 11 11v81.5t4 72t11 77t22.5 60t38.5 56.5q38 36 91 36t90 -31zM289 353q-33 32 -77 12t-87 -79q2 -161 50 -206q24 -18 57 -16.5t53 23.5q29 38 30 138t-26 128z" />
    <glyph glyph-name="seven" unicode="7" horiz-adv-x="342" 
d="M303 688q21 2 32 -12.5t5 -31.5q-12 -32 -40 -108.5t-38.5 -106t-31.5 -90.5t-32.5 -101t-26 -96.5t-26.5 -114.5q-2 -15 -20.5 -19t-34 4.5t-11.5 23.5q45 188 82 301q31 87 100 285q-176 -8 -224 -2q-16 5 -20.5 22.5t4 32t25.5 11.5q67 -4 91 -4.5t84.5 2.5t81.5 4z
" />
    <glyph glyph-name="eight" unicode="8" horiz-adv-x="380" 
d="M98 663q35 25 84.5 24t80.5 -25q43 -27 51.5 -78t-16.5 -93q-14 -25 -33 -41q42 -23 67 -48q36 -40 46 -108.5t-10.5 -138.5t-66.5 -110q-47 -42 -111 -43t-99 32q-49 33 -68.5 96.5t-10.5 126.5t37 108q24 40 63 71q-23 11 -39 35q-30 40 -24 99.5t49 92.5zM140 611
q-28 -24 -24.5 -65.5t34.5 -66.5q39 -33 70 4q30 28 32 67t-29 59q-20 14 -43 15t-40 -13zM262 382q-38 30 -63 27.5t-58 -36.5q-57 -50 -63.5 -142.5t46.5 -138.5q26 -28 59 -29.5t62 22.5q38 27 57 85.5t9.5 119.5t-49.5 92z" />
    <glyph glyph-name="nine" unicode="9" horiz-adv-x="341" 
d="M264 668q87 -68 41 -289q-11 -55 -27.5 -113.5t-41.5 -135t-32 -99.5q-8 -27 -35 -31q-25 -4 -30 18q-1 7 1 17q15 56 49.5 157t44.5 143q-38 -36 -81 -37.5t-80 34.5q-33 30 -49.5 97.5t-2 139t62.5 102.5q40 27 92 26t88 -29zM230 613q-23 20 -61 18t-60 -25
q-32 -35 -30.5 -107t32.5 -109q21 -30 47.5 -31.5t49.5 25.5q30 26 42 74t6 91.5t-26 63.5z" />
    <glyph glyph-name="colon" unicode=":" 
d="M332 451v-261h-319v261h319zM19 196h307v249h-307v-249zM87 377q-4 7 -7.5 21.5t-3.5 15.5q-1 2 3 3q1 1 2 -1q1 -3 3.5 -15t4.5 -19q2 23 5 33q0 3 4 2l1 -3q-2 -7 -3.5 -20t-2.5 -17q-1 -2 -3 -2.5t-3 2.5zM208 376q-5 1 -3 4l4 1q0 3 0.5 8t0.5 8q-3 0 -4 2q-2 3 2 3
h2l-1 10h-1q-2 0 -3 1q-1 3 2 4q21 0 22 -8q0 -7 -7 -9q3 0 6 -3q5 -4 3 -12t-10 -9q-4 -1 -7 0q-3 -5 -6 0zM56 377q-1 -4 -5 -2q-1 1 -1 3l3 13q-3 0 -3 2l2 2h2q2 4 5 19q4 6 6 1l5 -19h3q3 -1 2 -4q-1 -1 -3 -1h-1q1 -6 4 -12q1 -5 -3 -4q-1 0 -2 2t-2.5 7.5t-1.5 6.5
h-8zM106 377q0 -4 -4 -2q-2 0 -1 3q0 2 1 6t1 7q-2 0 -2 2t2 2h2q4 17 5 19t3 2.5t3 -1.5l5 -19h2q4 -1 2 -4l-2 -1h-1q1 -3 2 -7t1 -5q2 -5 -2 -4q-2 0 -3 2q-3 12 -3 14h-8zM130 375q-2 0 -2 2.5t2 2.5h4v32l-4 -1q-4 0 -2 4q0 2 2 2h4h6h3q2 -2 1 -5h-5v-32h4q1 -2 1 -5
h-14zM155 374q-3 0 -3 4q0 6 -1 18.5t-1 17.5q0 3 3 3t3 -3q0 -8 1 -19t0 -16h12q-1 2 -1 6q1 2 3 1.5t2 -2.5v-8q0 -2 -4 -2h-14zM183 377q-1 -4 -5 -2q-1 1 -1 3l3 13q-3 0 -3 2l2 2h2q1 2 3 9.5t3 9.5t2.5 2.5t2.5 -1.5l5 -19h3q3 -1 2 -4l-3 -1q1 -9 3 -12q1 -5 -3 -4
q-1 0 -2 2q-3 6 -3 14h-9zM241 374q-3 0 -3 4q0 6 -1 18.5t-1 17.5q0 3 3 3t3 -3q0 -8 1 -19t0 -16h12q-1 3 0 6q0 2 2 1.5t2 -2.5v-2v-3v-3q0 -2 -4 -2h-14zM268 374l-3 3v34q-3 1 -2.5 3t2.5 3h17q3 0 3 -3t-3 -3h-12v-11h10q4 1 4 -3q0 -1 -2 -2q-4 -1 -12 -1v-14l13 1
q5 0 2 -4q-1 -2 -3 -2t-6.5 -0.5t-7.5 -0.5zM218 402q3 1 4.5 3t0.5 4.5t-5 2.5h-4l1 -10h3zM65 396q0 1 -0.5 3t-1 4.5t-0.5 4.5h-1q0 -2 -1 -6.5t-1 -5.5h5zM116 396q-1 2 -3 12q0 -1 -1 -6t-2 -6h6zM192 396q0 1 -0.5 3t-1 4.5t-0.5 4.5h-1q0 -2 -1 -6.5t-1 -5.5h5z
M218 380q8 1 8.5 8t-6.5 9h-5l-1 -17h4zM140 304q2 4 0 13q-2 -1 -2 0q-2 0 -2 2t2 2h2v21q0 4 3 3q2 0 2 -2v-22h13q-1 8 -1 22q0 3 3 3q2 -1 2 -3q0 -8 1 -22t1 -15q0 -2 -2 -3q-3 -2 -3 2q0 8 -1 12h-12v-13q-2 -1 -6 0zM243 302q-9 1 -9 18q0 9 -1 22q0 5 4 3q2 0 2 -2
v-21q0 -14 5 -14q9 0 5 35q0 3 3 2l2 -3l1 -10q1 -10 0 -14q0 -16 -12 -16zM50 303q-2 0 -2 2.5t2 2.5h4v32l-4 -1q-2 0 -2 2.5t2 3.5h13q3 0 3 -2q2 -3 -2 -3h-5v-32h5q2 0 2 -2.5t-2 -2.5q-1 -1 -7 -0.5t-7 0.5zM121 304v36q-5 0 -8 -1q-3 0 -1 4q1 2 2 2h20q1 -2 -1 -6
h-7v-34q-2 -1 -5 -1zM175 302q-3 0 -3 3q-1 1 -1 11v23q-3 1 -2 3t3 3h16q3 0 3 -3t-3 -3h-11l-1 -11h11q4 1 4 -3q0 -1 -2 -2q-5 -1 -12 -1v-14l12 1q6 0 3 -4q-2 -2 -4 -2q-1 0 -5.5 -0.5t-7.5 -0.5zM266 302q-3 0 -3 4q0 6 -1 18.5t-1 17.5q0 3 3 3t3 -3q0 -8 1 -19
t0 -16h12q-2 3 0 6q0 2 2 1.5t2 -2.5v-2v-3v-3q0 -2 -4 -2h-14zM293 302q-3 0 -3 4q1 7 0 20t-1 16t2.5 3t2.5 -3q0 -10 1 -20.5t1 -14.5h11v6q0 2 3 1l2 -2v-8q-1 -2 -4 -2h-15zM208 340q0 4 2 4q12 1 17 0q2 0 2 -3q0 -1 -2 -2q-1 -1 -4 1h-10q0 -12 1 -15h10q2 1 2 -1
q1 -3 -1 -4h-11v-15q0 -2 -3 -2.5t-3 2.5v35zM75 305q0 -4 -4 -2l-1 3q2 17 1 36q0 3 3 2q1 0 2 -2q12 -23 16 -29q-2 16 -2 29q2 1 5 1q0 -3 1 -16.5t0 -19.5q-2 -8 -6 -2q-2 3 -6.5 13t-7.5 14q1 -18 -1 -27zM147 231q-6 -1 -9 3.5t-3 11.5q0 3 2.5 3t2.5 -3q0 -5 2 -8
t6 -2t3.5 5.5t-4.5 8.5l-4.5 4.5t-4.5 6.5q-2 8 3 11t10 -3v3q1 2 4 -1v-10v-2l-3 1q-2 6 -4 7q-3 2 -5 0t0 -5l6 -6q6 -7 7 -13q2 -12 -9 -12zM61 233q-3 6 -6.5 20.5t-4.5 16.5t3 3l2 -1q2 -6 4 -17t4 -17h1q1 14 4 33q1 3 4 2l1 -3q0 -2 -2.5 -17t-3.5 -20q0 -4 -4 -2
q-1 0 -2 2zM84 230q-3 0 -3 3q-1 1 -1 11v23q-3 1 -2 3t3 3h16q3 0 3 -3t-3 -3h-12v-11h11q4 1 4 -3q0 -1 -2 -2q-5 -1 -12 -1v-14l12 1q6 0 3 -4q-2 -2 -4 -2q-1 0 -5.5 -0.5t-7.5 -0.5zM131 231q-5 1 -11 9.5t-7 9.5q0 -10 1 -18q0 -2 -3 -2t-3 2q0 32 -1 35
q-3 0 -3.5 2.5t2.5 3.5h7q16 0 17 -11q0 -7 -7 -9q-1 -1 -4 -1q7 -15 13 -16q2 0 1 -4q0 -2 -2 -1zM162 231q-2 0 -2 2.5t2 2.5h3v32l-4 -1q-3 0 -1 4q0 2 2 2h13q2 -2 1 -5h-5v-32h4q2 0 2 -2.5t-2 -2.5h-13zM191 231q-5 -1 -8.5 4.5t-3.5 13.5q0 15 6 21h1l2 1q1 4 4 1
q4 0 6 -5q6 -5 5 -20.5t-12 -15.5zM212 233q-1 -4 -4 -2l-1 3q2 17 1 36q0 3 3 2q1 0 2 -2q12 -23 16 -29q-2 16 -2 29q2 1 5 1q0 -3 1 -16.5t0 -19.5q-2 -8 -6 -2q-2 3 -6.5 13t-7.5 14q1 -18 -1 -27zM115 255q6 0 8.5 3t0 6.5t-8.5 3.5h-2v-13h2zM188 237q4 -3 7 0
q9 9 0 26q-3 7 -8 1q-4 -5 -3 -14.5t4 -12.5z" />
    <glyph glyph-name="semicolon" unicode=";" 
d="M332 451v-261h-319v261h319zM19 196h307v249h-307v-249zM87 377q-4 7 -7.5 21.5t-3.5 15.5q-1 2 3 3q1 1 2 -1q1 -3 3.5 -15t4.5 -19q2 23 5 33q0 3 4 2l1 -3q-2 -7 -3.5 -20t-2.5 -17q-1 -2 -3 -2.5t-3 2.5zM208 376q-5 1 -3 4l4 1q0 3 0.5 8t0.5 8q-3 0 -4 2q-2 3 2 3
h2l-1 10h-1q-2 0 -3 1q-1 3 2 4q21 0 22 -8q0 -7 -7 -9q3 0 6 -3q5 -4 3 -12t-10 -9q-4 -1 -7 0q-3 -5 -6 0zM56 377q-1 -4 -5 -2q-1 1 -1 3l3 13q-3 0 -3 2l2 2h2q2 4 5 19q4 6 6 1l5 -19h3q3 -1 2 -4q-1 -1 -3 -1h-1q1 -6 4 -12q1 -5 -3 -4q-1 0 -2 2t-2.5 7.5t-1.5 6.5
h-8zM106 377q0 -4 -4 -2q-2 0 -1 3q0 2 1 6t1 7q-2 0 -2 2t2 2h2q4 17 5 19t3 2.5t3 -1.5l5 -19h2q4 -1 2 -4l-2 -1h-1q1 -3 2 -7t1 -5q2 -5 -2 -4q-2 0 -3 2q-3 12 -3 14h-8zM130 375q-2 0 -2 2.5t2 2.5h4v32l-4 -1q-4 0 -2 4q0 2 2 2h4h6h3q2 -2 1 -5h-5v-32h4q1 -2 1 -5
h-14zM155 374q-3 0 -3 4q0 6 -1 18.5t-1 17.5q0 3 3 3t3 -3q0 -8 1 -19t0 -16h12q-1 2 -1 6q1 2 3 1.5t2 -2.5v-8q0 -2 -4 -2h-14zM183 377q-1 -4 -5 -2q-1 1 -1 3l3 13q-3 0 -3 2l2 2h2q1 2 3 9.5t3 9.5t2.5 2.5t2.5 -1.5l5 -19h3q3 -1 2 -4l-3 -1q1 -9 3 -12q1 -5 -3 -4
q-1 0 -2 2q-3 6 -3 14h-9zM241 374q-3 0 -3 4q0 6 -1 18.5t-1 17.5q0 3 3 3t3 -3q0 -8 1 -19t0 -16h12q-1 3 0 6q0 2 2 1.5t2 -2.5v-2v-3v-3q0 -2 -4 -2h-14zM268 374l-3 3v34q-3 1 -2.5 3t2.5 3h17q3 0 3 -3t-3 -3h-12v-11h10q4 1 4 -3q0 -1 -2 -2q-4 -1 -12 -1v-14l13 1
q5 0 2 -4q-1 -2 -3 -2t-6.5 -0.5t-7.5 -0.5zM218 402q3 1 4.5 3t0.5 4.5t-5 2.5h-4l1 -10h3zM65 396q0 1 -0.5 3t-1 4.5t-0.5 4.5h-1q0 -2 -1 -6.5t-1 -5.5h5zM116 396q-1 2 -3 12q0 -1 -1 -6t-2 -6h6zM192 396q0 1 -0.5 3t-1 4.5t-0.5 4.5h-1q0 -2 -1 -6.5t-1 -5.5h5z
M218 380q8 1 8.5 8t-6.5 9h-5l-1 -17h4zM140 304q2 4 0 13q-2 -1 -2 0q-2 0 -2 2t2 2h2v21q0 4 3 3q2 0 2 -2v-22h13q-1 8 -1 22q0 3 3 3q2 -1 2 -3q0 -8 1 -22t1 -15q0 -2 -2 -3q-3 -2 -3 2q0 8 -1 12h-12v-13q-2 -1 -6 0zM243 302q-9 1 -9 18q0 9 -1 22q0 5 4 3q2 0 2 -2
v-21q0 -14 5 -14q9 0 5 35q0 3 3 2l2 -3l1 -10q1 -10 0 -14q0 -16 -12 -16zM50 303q-2 0 -2 2.5t2 2.5h4v32l-4 -1q-2 0 -2 2.5t2 3.5h13q3 0 3 -2q2 -3 -2 -3h-5v-32h5q2 0 2 -2.5t-2 -2.5q-1 -1 -7 -0.5t-7 0.5zM121 304v36q-5 0 -8 -1q-3 0 -1 4q1 2 2 2h20q1 -2 -1 -6
h-7v-34q-2 -1 -5 -1zM175 302q-3 0 -3 3q-1 1 -1 11v23q-3 1 -2 3t3 3h16q3 0 3 -3t-3 -3h-11l-1 -11h11q4 1 4 -3q0 -1 -2 -2q-5 -1 -12 -1v-14l12 1q6 0 3 -4q-2 -2 -4 -2q-1 0 -5.5 -0.5t-7.5 -0.5zM266 302q-3 0 -3 4q0 6 -1 18.5t-1 17.5q0 3 3 3t3 -3q0 -8 1 -19
t0 -16h12q-2 3 0 6q0 2 2 1.5t2 -2.5v-2v-3v-3q0 -2 -4 -2h-14zM293 302q-3 0 -3 4q1 7 0 20t-1 16t2.5 3t2.5 -3q0 -10 1 -20.5t1 -14.5h11v6q0 2 3 1l2 -2v-8q-1 -2 -4 -2h-15zM208 340q0 4 2 4q12 1 17 0q2 0 2 -3q0 -1 -2 -2q-1 -1 -4 1h-10q0 -12 1 -15h10q2 1 2 -1
q1 -3 -1 -4h-11v-15q0 -2 -3 -2.5t-3 2.5v35zM75 305q0 -4 -4 -2l-1 3q2 17 1 36q0 3 3 2q1 0 2 -2q12 -23 16 -29q-2 16 -2 29q2 1 5 1q0 -3 1 -16.5t0 -19.5q-2 -8 -6 -2q-2 3 -6.5 13t-7.5 14q1 -18 -1 -27zM147 231q-6 -1 -9 3.5t-3 11.5q0 3 2.5 3t2.5 -3q0 -5 2 -8
t6 -2t3.5 5.5t-4.5 8.5l-4.5 4.5t-4.5 6.5q-2 8 3 11t10 -3v3q1 2 4 -1v-10v-2l-3 1q-2 6 -4 7q-3 2 -5 0t0 -5l6 -6q6 -7 7 -13q2 -12 -9 -12zM61 233q-3 6 -6.5 20.5t-4.5 16.5t3 3l2 -1q2 -6 4 -17t4 -17h1q1 14 4 33q1 3 4 2l1 -3q0 -2 -2.5 -17t-3.5 -20q0 -4 -4 -2
q-1 0 -2 2zM84 230q-3 0 -3 3q-1 1 -1 11v23q-3 1 -2 3t3 3h16q3 0 3 -3t-3 -3h-12v-11h11q4 1 4 -3q0 -1 -2 -2q-5 -1 -12 -1v-14l12 1q6 0 3 -4q-2 -2 -4 -2q-1 0 -5.5 -0.5t-7.5 -0.5zM131 231q-5 1 -11 9.5t-7 9.5q0 -10 1 -18q0 -2 -3 -2t-3 2q0 32 -1 35
q-3 0 -3.5 2.5t2.5 3.5h7q16 0 17 -11q0 -7 -7 -9q-1 -1 -4 -1q7 -15 13 -16q2 0 1 -4q0 -2 -2 -1zM162 231q-2 0 -2 2.5t2 2.5h3v32l-4 -1q-3 0 -1 4q0 2 2 2h13q2 -2 1 -5h-5v-32h4q2 0 2 -2.5t-2 -2.5h-13zM191 231q-5 -1 -8.5 4.5t-3.5 13.5q0 15 6 21h1l2 1q1 4 4 1
q4 0 6 -5q6 -5 5 -20.5t-12 -15.5zM212 233q-1 -4 -4 -2l-1 3q2 17 1 36q0 3 3 2q1 0 2 -2q12 -23 16 -29q-2 16 -2 29q2 1 5 1q0 -3 1 -16.5t0 -19.5q-2 -8 -6 -2q-2 3 -6.5 13t-7.5 14q1 -18 -1 -27zM115 255q6 0 8.5 3t0 6.5t-8.5 3.5h-2v-13h2zM188 237q4 -3 7 0
q9 9 0 26q-3 7 -8 1q-4 -5 -3 -14.5t4 -12.5z" />
    <glyph glyph-name="less" unicode="&#x3c;" 
d="M332 451v-261h-319v261h319zM19 196h307v249h-307v-249zM87 377q-4 7 -7.5 21.5t-3.5 15.5q-1 2 3 3q1 1 2 -1q1 -3 3.5 -15t4.5 -19q2 23 5 33q0 3 4 2l1 -3q-2 -7 -3.5 -20t-2.5 -17q-1 -2 -3 -2.5t-3 2.5zM208 376q-5 1 -3 4l4 1q0 3 0.5 8t0.5 8q-3 0 -4 2q-2 3 2 3
h2l-1 10h-1q-2 0 -3 1q-1 3 2 4q21 0 22 -8q0 -7 -7 -9q3 0 6 -3q5 -4 3 -12t-10 -9q-4 -1 -7 0q-3 -5 -6 0zM56 377q-1 -4 -5 -2q-1 1 -1 3l3 13q-3 0 -3 2l2 2h2q2 4 5 19q4 6 6 1l5 -19h3q3 -1 2 -4q-1 -1 -3 -1h-1q1 -6 4 -12q1 -5 -3 -4q-1 0 -2 2t-2.5 7.5t-1.5 6.5
h-8zM106 377q0 -4 -4 -2q-2 0 -1 3q0 2 1 6t1 7q-2 0 -2 2t2 2h2q4 17 5 19t3 2.5t3 -1.5l5 -19h2q4 -1 2 -4l-2 -1h-1q1 -3 2 -7t1 -5q2 -5 -2 -4q-2 0 -3 2q-3 12 -3 14h-8zM130 375q-2 0 -2 2.5t2 2.5h4v32l-4 -1q-4 0 -2 4q0 2 2 2h4h6h3q2 -2 1 -5h-5v-32h4q1 -2 1 -5
h-14zM155 374q-3 0 -3 4q0 6 -1 18.5t-1 17.5q0 3 3 3t3 -3q0 -8 1 -19t0 -16h12q-1 2 -1 6q1 2 3 1.5t2 -2.5v-8q0 -2 -4 -2h-14zM183 377q-1 -4 -5 -2q-1 1 -1 3l3 13q-3 0 -3 2l2 2h2q1 2 3 9.5t3 9.5t2.5 2.5t2.5 -1.5l5 -19h3q3 -1 2 -4l-3 -1q1 -9 3 -12q1 -5 -3 -4
q-1 0 -2 2q-3 6 -3 14h-9zM241 374q-3 0 -3 4q0 6 -1 18.5t-1 17.5q0 3 3 3t3 -3q0 -8 1 -19t0 -16h12q-1 3 0 6q0 2 2 1.5t2 -2.5v-2v-3v-3q0 -2 -4 -2h-14zM268 374l-3 3v34q-3 1 -2.5 3t2.5 3h17q3 0 3 -3t-3 -3h-12v-11h10q4 1 4 -3q0 -1 -2 -2q-4 -1 -12 -1v-14l13 1
q5 0 2 -4q-1 -2 -3 -2t-6.5 -0.5t-7.5 -0.5zM218 402q3 1 4.5 3t0.5 4.5t-5 2.5h-4l1 -10h3zM65 396q0 1 -0.5 3t-1 4.5t-0.5 4.5h-1q0 -2 -1 -6.5t-1 -5.5h5zM116 396q-1 2 -3 12q0 -1 -1 -6t-2 -6h6zM192 396q0 1 -0.5 3t-1 4.5t-0.5 4.5h-1q0 -2 -1 -6.5t-1 -5.5h5z
M218 380q8 1 8.5 8t-6.5 9h-5l-1 -17h4zM140 304q2 4 0 13q-2 -1 -2 0q-2 0 -2 2t2 2h2v21q0 4 3 3q2 0 2 -2v-22h13q-1 8 -1 22q0 3 3 3q2 -1 2 -3q0 -8 1 -22t1 -15q0 -2 -2 -3q-3 -2 -3 2q0 8 -1 12h-12v-13q-2 -1 -6 0zM243 302q-9 1 -9 18q0 9 -1 22q0 5 4 3q2 0 2 -2
v-21q0 -14 5 -14q9 0 5 35q0 3 3 2l2 -3l1 -10q1 -10 0 -14q0 -16 -12 -16zM50 303q-2 0 -2 2.5t2 2.5h4v32l-4 -1q-2 0 -2 2.5t2 3.5h13q3 0 3 -2q2 -3 -2 -3h-5v-32h5q2 0 2 -2.5t-2 -2.5q-1 -1 -7 -0.5t-7 0.5zM121 304v36q-5 0 -8 -1q-3 0 -1 4q1 2 2 2h20q1 -2 -1 -6
h-7v-34q-2 -1 -5 -1zM175 302q-3 0 -3 3q-1 1 -1 11v23q-3 1 -2 3t3 3h16q3 0 3 -3t-3 -3h-11l-1 -11h11q4 1 4 -3q0 -1 -2 -2q-5 -1 -12 -1v-14l12 1q6 0 3 -4q-2 -2 -4 -2q-1 0 -5.5 -0.5t-7.5 -0.5zM266 302q-3 0 -3 4q0 6 -1 18.5t-1 17.5q0 3 3 3t3 -3q0 -8 1 -19
t0 -16h12q-2 3 0 6q0 2 2 1.5t2 -2.5v-2v-3v-3q0 -2 -4 -2h-14zM293 302q-3 0 -3 4q1 7 0 20t-1 16t2.5 3t2.5 -3q0 -10 1 -20.5t1 -14.5h11v6q0 2 3 1l2 -2v-8q-1 -2 -4 -2h-15zM208 340q0 4 2 4q12 1 17 0q2 0 2 -3q0 -1 -2 -2q-1 -1 -4 1h-10q0 -12 1 -15h10q2 1 2 -1
q1 -3 -1 -4h-11v-15q0 -2 -3 -2.5t-3 2.5v35zM75 305q0 -4 -4 -2l-1 3q2 17 1 36q0 3 3 2q1 0 2 -2q12 -23 16 -29q-2 16 -2 29q2 1 5 1q0 -3 1 -16.5t0 -19.5q-2 -8 -6 -2q-2 3 -6.5 13t-7.5 14q1 -18 -1 -27zM147 231q-6 -1 -9 3.5t-3 11.5q0 3 2.5 3t2.5 -3q0 -5 2 -8
t6 -2t3.5 5.5t-4.5 8.5l-4.5 4.5t-4.5 6.5q-2 8 3 11t10 -3v3q1 2 4 -1v-10v-2l-3 1q-2 6 -4 7q-3 2 -5 0t0 -5l6 -6q6 -7 7 -13q2 -12 -9 -12zM61 233q-3 6 -6.5 20.5t-4.5 16.5t3 3l2 -1q2 -6 4 -17t4 -17h1q1 14 4 33q1 3 4 2l1 -3q0 -2 -2.5 -17t-3.5 -20q0 -4 -4 -2
q-1 0 -2 2zM84 230q-3 0 -3 3q-1 1 -1 11v23q-3 1 -2 3t3 3h16q3 0 3 -3t-3 -3h-12v-11h11q4 1 4 -3q0 -1 -2 -2q-5 -1 -12 -1v-14l12 1q6 0 3 -4q-2 -2 -4 -2q-1 0 -5.5 -0.5t-7.5 -0.5zM131 231q-5 1 -11 9.5t-7 9.5q0 -10 1 -18q0 -2 -3 -2t-3 2q0 32 -1 35
q-3 0 -3.5 2.5t2.5 3.5h7q16 0 17 -11q0 -7 -7 -9q-1 -1 -4 -1q7 -15 13 -16q2 0 1 -4q0 -2 -2 -1zM162 231q-2 0 -2 2.5t2 2.5h3v32l-4 -1q-3 0 -1 4q0 2 2 2h13q2 -2 1 -5h-5v-32h4q2 0 2 -2.5t-2 -2.5h-13zM191 231q-5 -1 -8.5 4.5t-3.5 13.5q0 15 6 21h1l2 1q1 4 4 1
q4 0 6 -5q6 -5 5 -20.5t-12 -15.5zM212 233q-1 -4 -4 -2l-1 3q2 17 1 36q0 3 3 2q1 0 2 -2q12 -23 16 -29q-2 16 -2 29q2 1 5 1q0 -3 1 -16.5t0 -19.5q-2 -8 -6 -2q-2 3 -6.5 13t-7.5 14q1 -18 -1 -27zM115 255q6 0 8.5 3t0 6.5t-8.5 3.5h-2v-13h2zM188 237q4 -3 7 0
q9 9 0 26q-3 7 -8 1q-4 -5 -3 -14.5t4 -12.5z" />
    <glyph glyph-name="equal" unicode="=" 
d="M332 451v-261h-319v261h319zM19 196h307v249h-307v-249zM87 377q-4 7 -7.5 21.5t-3.5 15.5q-1 2 3 3q1 1 2 -1q1 -3 3.5 -15t4.5 -19q2 23 5 33q0 3 4 2l1 -3q-2 -7 -3.5 -20t-2.5 -17q-1 -2 -3 -2.5t-3 2.5zM208 376q-5 1 -3 4l4 1q0 3 0.5 8t0.5 8q-3 0 -4 2q-2 3 2 3
h2l-1 10h-1q-2 0 -3 1q-1 3 2 4q21 0 22 -8q0 -7 -7 -9q3 0 6 -3q5 -4 3 -12t-10 -9q-4 -1 -7 0q-3 -5 -6 0zM56 377q-1 -4 -5 -2q-1 1 -1 3l3 13q-3 0 -3 2l2 2h2q2 4 5 19q4 6 6 1l5 -19h3q3 -1 2 -4q-1 -1 -3 -1h-1q1 -6 4 -12q1 -5 -3 -4q-1 0 -2 2t-2.5 7.5t-1.5 6.5
h-8zM106 377q0 -4 -4 -2q-2 0 -1 3q0 2 1 6t1 7q-2 0 -2 2t2 2h2q4 17 5 19t3 2.5t3 -1.5l5 -19h2q4 -1 2 -4l-2 -1h-1q1 -3 2 -7t1 -5q2 -5 -2 -4q-2 0 -3 2q-3 12 -3 14h-8zM130 375q-2 0 -2 2.5t2 2.5h4v32l-4 -1q-4 0 -2 4q0 2 2 2h4h6h3q2 -2 1 -5h-5v-32h4q1 -2 1 -5
h-14zM155 374q-3 0 -3 4q0 6 -1 18.5t-1 17.5q0 3 3 3t3 -3q0 -8 1 -19t0 -16h12q-1 2 -1 6q1 2 3 1.5t2 -2.5v-8q0 -2 -4 -2h-14zM183 377q-1 -4 -5 -2q-1 1 -1 3l3 13q-3 0 -3 2l2 2h2q1 2 3 9.5t3 9.5t2.5 2.5t2.5 -1.5l5 -19h3q3 -1 2 -4l-3 -1q1 -9 3 -12q1 -5 -3 -4
q-1 0 -2 2q-3 6 -3 14h-9zM241 374q-3 0 -3 4q0 6 -1 18.5t-1 17.5q0 3 3 3t3 -3q0 -8 1 -19t0 -16h12q-1 3 0 6q0 2 2 1.5t2 -2.5v-2v-3v-3q0 -2 -4 -2h-14zM268 374l-3 3v34q-3 1 -2.5 3t2.5 3h17q3 0 3 -3t-3 -3h-12v-11h10q4 1 4 -3q0 -1 -2 -2q-4 -1 -12 -1v-14l13 1
q5 0 2 -4q-1 -2 -3 -2t-6.5 -0.5t-7.5 -0.5zM218 402q3 1 4.5 3t0.5 4.5t-5 2.5h-4l1 -10h3zM65 396q0 1 -0.5 3t-1 4.5t-0.5 4.5h-1q0 -2 -1 -6.5t-1 -5.5h5zM116 396q-1 2 -3 12q0 -1 -1 -6t-2 -6h6zM192 396q0 1 -0.5 3t-1 4.5t-0.5 4.5h-1q0 -2 -1 -6.5t-1 -5.5h5z
M218 380q8 1 8.5 8t-6.5 9h-5l-1 -17h4zM140 304q2 4 0 13q-2 -1 -2 0q-2 0 -2 2t2 2h2v21q0 4 3 3q2 0 2 -2v-22h13q-1 8 -1 22q0 3 3 3q2 -1 2 -3q0 -8 1 -22t1 -15q0 -2 -2 -3q-3 -2 -3 2q0 8 -1 12h-12v-13q-2 -1 -6 0zM243 302q-9 1 -9 18q0 9 -1 22q0 5 4 3q2 0 2 -2
v-21q0 -14 5 -14q9 0 5 35q0 3 3 2l2 -3l1 -10q1 -10 0 -14q0 -16 -12 -16zM50 303q-2 0 -2 2.5t2 2.5h4v32l-4 -1q-2 0 -2 2.5t2 3.5h13q3 0 3 -2q2 -3 -2 -3h-5v-32h5q2 0 2 -2.5t-2 -2.5q-1 -1 -7 -0.5t-7 0.5zM121 304v36q-5 0 -8 -1q-3 0 -1 4q1 2 2 2h20q1 -2 -1 -6
h-7v-34q-2 -1 -5 -1zM175 302q-3 0 -3 3q-1 1 -1 11v23q-3 1 -2 3t3 3h16q3 0 3 -3t-3 -3h-11l-1 -11h11q4 1 4 -3q0 -1 -2 -2q-5 -1 -12 -1v-14l12 1q6 0 3 -4q-2 -2 -4 -2q-1 0 -5.5 -0.5t-7.5 -0.5zM266 302q-3 0 -3 4q0 6 -1 18.5t-1 17.5q0 3 3 3t3 -3q0 -8 1 -19
t0 -16h12q-2 3 0 6q0 2 2 1.5t2 -2.5v-2v-3v-3q0 -2 -4 -2h-14zM293 302q-3 0 -3 4q1 7 0 20t-1 16t2.5 3t2.5 -3q0 -10 1 -20.5t1 -14.5h11v6q0 2 3 1l2 -2v-8q-1 -2 -4 -2h-15zM208 340q0 4 2 4q12 1 17 0q2 0 2 -3q0 -1 -2 -2q-1 -1 -4 1h-10q0 -12 1 -15h10q2 1 2 -1
q1 -3 -1 -4h-11v-15q0 -2 -3 -2.5t-3 2.5v35zM75 305q0 -4 -4 -2l-1 3q2 17 1 36q0 3 3 2q1 0 2 -2q12 -23 16 -29q-2 16 -2 29q2 1 5 1q0 -3 1 -16.5t0 -19.5q-2 -8 -6 -2q-2 3 -6.5 13t-7.5 14q1 -18 -1 -27zM147 231q-6 -1 -9 3.5t-3 11.5q0 3 2.5 3t2.5 -3q0 -5 2 -8
t6 -2t3.5 5.5t-4.5 8.5l-4.5 4.5t-4.5 6.5q-2 8 3 11t10 -3v3q1 2 4 -1v-10v-2l-3 1q-2 6 -4 7q-3 2 -5 0t0 -5l6 -6q6 -7 7 -13q2 -12 -9 -12zM61 233q-3 6 -6.5 20.5t-4.5 16.5t3 3l2 -1q2 -6 4 -17t4 -17h1q1 14 4 33q1 3 4 2l1 -3q0 -2 -2.5 -17t-3.5 -20q0 -4 -4 -2
q-1 0 -2 2zM84 230q-3 0 -3 3q-1 1 -1 11v23q-3 1 -2 3t3 3h16q3 0 3 -3t-3 -3h-12v-11h11q4 1 4 -3q0 -1 -2 -2q-5 -1 -12 -1v-14l12 1q6 0 3 -4q-2 -2 -4 -2q-1 0 -5.5 -0.5t-7.5 -0.5zM131 231q-5 1 -11 9.5t-7 9.5q0 -10 1 -18q0 -2 -3 -2t-3 2q0 32 -1 35
q-3 0 -3.5 2.5t2.5 3.5h7q16 0 17 -11q0 -7 -7 -9q-1 -1 -4 -1q7 -15 13 -16q2 0 1 -4q0 -2 -2 -1zM162 231q-2 0 -2 2.5t2 2.5h3v32l-4 -1q-3 0 -1 4q0 2 2 2h13q2 -2 1 -5h-5v-32h4q2 0 2 -2.5t-2 -2.5h-13zM191 231q-5 -1 -8.5 4.5t-3.5 13.5q0 15 6 21h1l2 1q1 4 4 1
q4 0 6 -5q6 -5 5 -20.5t-12 -15.5zM212 233q-1 -4 -4 -2l-1 3q2 17 1 36q0 3 3 2q1 0 2 -2q12 -23 16 -29q-2 16 -2 29q2 1 5 1q0 -3 1 -16.5t0 -19.5q-2 -8 -6 -2q-2 3 -6.5 13t-7.5 14q1 -18 -1 -27zM115 255q6 0 8.5 3t0 6.5t-8.5 3.5h-2v-13h2zM188 237q4 -3 7 0
q9 9 0 26q-3 7 -8 1q-4 -5 -3 -14.5t4 -12.5z" />
    <glyph glyph-name="greater" unicode="&#x3e;" 
d="M332 451v-261h-319v261h319zM19 196h307v249h-307v-249zM87 377q-4 7 -7.5 21.5t-3.5 15.5q-1 2 3 3q1 1 2 -1q1 -3 3.5 -15t4.5 -19q2 23 5 33q0 3 4 2l1 -3q-2 -7 -3.5 -20t-2.5 -17q-1 -2 -3 -2.5t-3 2.5zM208 376q-5 1 -3 4l4 1q0 3 0.5 8t0.5 8q-3 0 -4 2q-2 3 2 3
h2l-1 10h-1q-2 0 -3 1q-1 3 2 4q21 0 22 -8q0 -7 -7 -9q3 0 6 -3q5 -4 3 -12t-10 -9q-4 -1 -7 0q-3 -5 -6 0zM56 377q-1 -4 -5 -2q-1 1 -1 3l3 13q-3 0 -3 2l2 2h2q2 4 5 19q4 6 6 1l5 -19h3q3 -1 2 -4q-1 -1 -3 -1h-1q1 -6 4 -12q1 -5 -3 -4q-1 0 -2 2t-2.5 7.5t-1.5 6.5
h-8zM106 377q0 -4 -4 -2q-2 0 -1 3q0 2 1 6t1 7q-2 0 -2 2t2 2h2q4 17 5 19t3 2.5t3 -1.5l5 -19h2q4 -1 2 -4l-2 -1h-1q1 -3 2 -7t1 -5q2 -5 -2 -4q-2 0 -3 2q-3 12 -3 14h-8zM130 375q-2 0 -2 2.5t2 2.5h4v32l-4 -1q-4 0 -2 4q0 2 2 2h4h6h3q2 -2 1 -5h-5v-32h4q1 -2 1 -5
h-14zM155 374q-3 0 -3 4q0 6 -1 18.5t-1 17.5q0 3 3 3t3 -3q0 -8 1 -19t0 -16h12q-1 2 -1 6q1 2 3 1.5t2 -2.5v-8q0 -2 -4 -2h-14zM183 377q-1 -4 -5 -2q-1 1 -1 3l3 13q-3 0 -3 2l2 2h2q1 2 3 9.5t3 9.5t2.5 2.5t2.5 -1.5l5 -19h3q3 -1 2 -4l-3 -1q1 -9 3 -12q1 -5 -3 -4
q-1 0 -2 2q-3 6 -3 14h-9zM241 374q-3 0 -3 4q0 6 -1 18.5t-1 17.5q0 3 3 3t3 -3q0 -8 1 -19t0 -16h12q-1 3 0 6q0 2 2 1.5t2 -2.5v-2v-3v-3q0 -2 -4 -2h-14zM268 374l-3 3v34q-3 1 -2.5 3t2.5 3h17q3 0 3 -3t-3 -3h-12v-11h10q4 1 4 -3q0 -1 -2 -2q-4 -1 -12 -1v-14l13 1
q5 0 2 -4q-1 -2 -3 -2t-6.5 -0.5t-7.5 -0.5zM218 402q3 1 4.5 3t0.5 4.5t-5 2.5h-4l1 -10h3zM65 396q0 1 -0.5 3t-1 4.5t-0.5 4.5h-1q0 -2 -1 -6.5t-1 -5.5h5zM116 396q-1 2 -3 12q0 -1 -1 -6t-2 -6h6zM192 396q0 1 -0.5 3t-1 4.5t-0.5 4.5h-1q0 -2 -1 -6.5t-1 -5.5h5z
M218 380q8 1 8.5 8t-6.5 9h-5l-1 -17h4zM140 304q2 4 0 13q-2 -1 -2 0q-2 0 -2 2t2 2h2v21q0 4 3 3q2 0 2 -2v-22h13q-1 8 -1 22q0 3 3 3q2 -1 2 -3q0 -8 1 -22t1 -15q0 -2 -2 -3q-3 -2 -3 2q0 8 -1 12h-12v-13q-2 -1 -6 0zM243 302q-9 1 -9 18q0 9 -1 22q0 5 4 3q2 0 2 -2
v-21q0 -14 5 -14q9 0 5 35q0 3 3 2l2 -3l1 -10q1 -10 0 -14q0 -16 -12 -16zM50 303q-2 0 -2 2.5t2 2.5h4v32l-4 -1q-2 0 -2 2.5t2 3.5h13q3 0 3 -2q2 -3 -2 -3h-5v-32h5q2 0 2 -2.5t-2 -2.5q-1 -1 -7 -0.5t-7 0.5zM121 304v36q-5 0 -8 -1q-3 0 -1 4q1 2 2 2h20q1 -2 -1 -6
h-7v-34q-2 -1 -5 -1zM175 302q-3 0 -3 3q-1 1 -1 11v23q-3 1 -2 3t3 3h16q3 0 3 -3t-3 -3h-11l-1 -11h11q4 1 4 -3q0 -1 -2 -2q-5 -1 -12 -1v-14l12 1q6 0 3 -4q-2 -2 -4 -2q-1 0 -5.5 -0.5t-7.5 -0.5zM266 302q-3 0 -3 4q0 6 -1 18.5t-1 17.5q0 3 3 3t3 -3q0 -8 1 -19
t0 -16h12q-2 3 0 6q0 2 2 1.5t2 -2.5v-2v-3v-3q0 -2 -4 -2h-14zM293 302q-3 0 -3 4q1 7 0 20t-1 16t2.5 3t2.5 -3q0 -10 1 -20.5t1 -14.5h11v6q0 2 3 1l2 -2v-8q-1 -2 -4 -2h-15zM208 340q0 4 2 4q12 1 17 0q2 0 2 -3q0 -1 -2 -2q-1 -1 -4 1h-10q0 -12 1 -15h10q2 1 2 -1
q1 -3 -1 -4h-11v-15q0 -2 -3 -2.5t-3 2.5v35zM75 305q0 -4 -4 -2l-1 3q2 17 1 36q0 3 3 2q1 0 2 -2q12 -23 16 -29q-2 16 -2 29q2 1 5 1q0 -3 1 -16.5t0 -19.5q-2 -8 -6 -2q-2 3 -6.5 13t-7.5 14q1 -18 -1 -27zM147 231q-6 -1 -9 3.5t-3 11.5q0 3 2.5 3t2.5 -3q0 -5 2 -8
t6 -2t3.5 5.5t-4.5 8.5l-4.5 4.5t-4.5 6.5q-2 8 3 11t10 -3v3q1 2 4 -1v-10v-2l-3 1q-2 6 -4 7q-3 2 -5 0t0 -5l6 -6q6 -7 7 -13q2 -12 -9 -12zM61 233q-3 6 -6.5 20.5t-4.5 16.5t3 3l2 -1q2 -6 4 -17t4 -17h1q1 14 4 33q1 3 4 2l1 -3q0 -2 -2.5 -17t-3.5 -20q0 -4 -4 -2
q-1 0 -2 2zM84 230q-3 0 -3 3q-1 1 -1 11v23q-3 1 -2 3t3 3h16q3 0 3 -3t-3 -3h-12v-11h11q4 1 4 -3q0 -1 -2 -2q-5 -1 -12 -1v-14l12 1q6 0 3 -4q-2 -2 -4 -2q-1 0 -5.5 -0.5t-7.5 -0.5zM131 231q-5 1 -11 9.5t-7 9.5q0 -10 1 -18q0 -2 -3 -2t-3 2q0 32 -1 35
q-3 0 -3.5 2.5t2.5 3.5h7q16 0 17 -11q0 -7 -7 -9q-1 -1 -4 -1q7 -15 13 -16q2 0 1 -4q0 -2 -2 -1zM162 231q-2 0 -2 2.5t2 2.5h3v32l-4 -1q-3 0 -1 4q0 2 2 2h13q2 -2 1 -5h-5v-32h4q2 0 2 -2.5t-2 -2.5h-13zM191 231q-5 -1 -8.5 4.5t-3.5 13.5q0 15 6 21h1l2 1q1 4 4 1
q4 0 6 -5q6 -5 5 -20.5t-12 -15.5zM212 233q-1 -4 -4 -2l-1 3q2 17 1 36q0 3 3 2q1 0 2 -2q12 -23 16 -29q-2 16 -2 29q2 1 5 1q0 -3 1 -16.5t0 -19.5q-2 -8 -6 -2q-2 3 -6.5 13t-7.5 14q1 -18 -1 -27zM115 255q6 0 8.5 3t0 6.5t-8.5 3.5h-2v-13h2zM188 237q4 -3 7 0
q9 9 0 26q-3 7 -8 1q-4 -5 -3 -14.5t4 -12.5z" />
    <glyph glyph-name="question" unicode="?" horiz-adv-x="354" 
d="M83 611q50 46 120 41t100 -60q19 -35 21 -68.5t-12.5 -67.5t-32 -62t-45.5 -70t-44 -72q-6 -13 -9 -26t-3 -20.5t1 -24.5t1 -24q0 -13 -15.5 -20t-31 -1.5t-15.5 23.5q0 5 -1.5 20t-2 25t1 25t6.5 26q11 26 29.5 56.5t35.5 53.5t33 50t25.5 48.5t9.5 46t-13 45.5
q-16 22 -46.5 27t-55.5 -10q-48 -29 -42 -114q1 -26 -26 -41q-27 -14 -37 5l-3 15q-5 49 7 97t44 77zM155 85q29 -3 29 -46q-2 -19 -14 -30.5t-28 -5.5q-22 5 -29 25t5 38.5t37 18.5z" />
    <glyph glyph-name="at" unicode="@" 
d="M332 451v-261h-319v261h319zM19 196h307v249h-307v-249zM87 377q-4 7 -7.5 21.5t-3.5 15.5q-1 2 3 3q1 1 2 -1q1 -3 3.5 -15t4.5 -19q2 23 5 33q0 3 4 2l1 -3q-2 -7 -3.5 -20t-2.5 -17q-1 -2 -3 -2.5t-3 2.5zM208 376q-5 1 -3 4l4 1q0 3 0.5 8t0.5 8q-3 0 -4 2q-2 3 2 3
h2l-1 10h-1q-2 0 -3 1q-1 3 2 4q21 0 22 -8q0 -7 -7 -9q3 0 6 -3q5 -4 3 -12t-10 -9q-4 -1 -7 0q-3 -5 -6 0zM56 377q-1 -4 -5 -2q-1 1 -1 3l3 13q-3 0 -3 2l2 2h2q2 4 5 19q4 6 6 1l5 -19h3q3 -1 2 -4q-1 -1 -3 -1h-1q1 -6 4 -12q1 -5 -3 -4q-1 0 -2 2t-2.5 7.5t-1.5 6.5
h-8zM106 377q0 -4 -4 -2q-2 0 -1 3q0 2 1 6t1 7q-2 0 -2 2t2 2h2q4 17 5 19t3 2.5t3 -1.5l5 -19h2q4 -1 2 -4l-2 -1h-1q1 -3 2 -7t1 -5q2 -5 -2 -4q-2 0 -3 2q-3 12 -3 14h-8zM130 375q-2 0 -2 2.5t2 2.5h4v32l-4 -1q-4 0 -2 4q0 2 2 2h4h6h3q2 -2 1 -5h-5v-32h4q1 -2 1 -5
h-14zM155 374q-3 0 -3 4q0 6 -1 18.5t-1 17.5q0 3 3 3t3 -3q0 -8 1 -19t0 -16h12q-1 2 -1 6q1 2 3 1.5t2 -2.5v-8q0 -2 -4 -2h-14zM183 377q-1 -4 -5 -2q-1 1 -1 3l3 13q-3 0 -3 2l2 2h2q1 2 3 9.5t3 9.5t2.5 2.5t2.5 -1.5l5 -19h3q3 -1 2 -4l-3 -1q1 -9 3 -12q1 -5 -3 -4
q-1 0 -2 2q-3 6 -3 14h-9zM241 374q-3 0 -3 4q0 6 -1 18.5t-1 17.5q0 3 3 3t3 -3q0 -8 1 -19t0 -16h12q-1 3 0 6q0 2 2 1.5t2 -2.5v-2v-3v-3q0 -2 -4 -2h-14zM268 374l-3 3v34q-3 1 -2.5 3t2.5 3h17q3 0 3 -3t-3 -3h-12v-11h10q4 1 4 -3q0 -1 -2 -2q-4 -1 -12 -1v-14l13 1
q5 0 2 -4q-1 -2 -3 -2t-6.5 -0.5t-7.5 -0.5zM218 402q3 1 4.5 3t0.5 4.5t-5 2.5h-4l1 -10h3zM65 396q0 1 -0.5 3t-1 4.5t-0.5 4.5h-1q0 -2 -1 -6.5t-1 -5.5h5zM116 396q-1 2 -3 12q0 -1 -1 -6t-2 -6h6zM192 396q0 1 -0.5 3t-1 4.5t-0.5 4.5h-1q0 -2 -1 -6.5t-1 -5.5h5z
M218 380q8 1 8.5 8t-6.5 9h-5l-1 -17h4zM140 304q2 4 0 13q-2 -1 -2 0q-2 0 -2 2t2 2h2v21q0 4 3 3q2 0 2 -2v-22h13q-1 8 -1 22q0 3 3 3q2 -1 2 -3q0 -8 1 -22t1 -15q0 -2 -2 -3q-3 -2 -3 2q0 8 -1 12h-12v-13q-2 -1 -6 0zM243 302q-9 1 -9 18q0 9 -1 22q0 5 4 3q2 0 2 -2
v-21q0 -14 5 -14q9 0 5 35q0 3 3 2l2 -3l1 -10q1 -10 0 -14q0 -16 -12 -16zM50 303q-2 0 -2 2.5t2 2.5h4v32l-4 -1q-2 0 -2 2.5t2 3.5h13q3 0 3 -2q2 -3 -2 -3h-5v-32h5q2 0 2 -2.5t-2 -2.5q-1 -1 -7 -0.5t-7 0.5zM121 304v36q-5 0 -8 -1q-3 0 -1 4q1 2 2 2h20q1 -2 -1 -6
h-7v-34q-2 -1 -5 -1zM175 302q-3 0 -3 3q-1 1 -1 11v23q-3 1 -2 3t3 3h16q3 0 3 -3t-3 -3h-11l-1 -11h11q4 1 4 -3q0 -1 -2 -2q-5 -1 -12 -1v-14l12 1q6 0 3 -4q-2 -2 -4 -2q-1 0 -5.5 -0.5t-7.5 -0.5zM266 302q-3 0 -3 4q0 6 -1 18.5t-1 17.5q0 3 3 3t3 -3q0 -8 1 -19
t0 -16h12q-2 3 0 6q0 2 2 1.5t2 -2.5v-2v-3v-3q0 -2 -4 -2h-14zM293 302q-3 0 -3 4q1 7 0 20t-1 16t2.5 3t2.5 -3q0 -10 1 -20.5t1 -14.5h11v6q0 2 3 1l2 -2v-8q-1 -2 -4 -2h-15zM208 340q0 4 2 4q12 1 17 0q2 0 2 -3q0 -1 -2 -2q-1 -1 -4 1h-10q0 -12 1 -15h10q2 1 2 -1
q1 -3 -1 -4h-11v-15q0 -2 -3 -2.5t-3 2.5v35zM75 305q0 -4 -4 -2l-1 3q2 17 1 36q0 3 3 2q1 0 2 -2q12 -23 16 -29q-2 16 -2 29q2 1 5 1q0 -3 1 -16.5t0 -19.5q-2 -8 -6 -2q-2 3 -6.5 13t-7.5 14q1 -18 -1 -27zM147 231q-6 -1 -9 3.5t-3 11.5q0 3 2.5 3t2.5 -3q0 -5 2 -8
t6 -2t3.5 5.5t-4.5 8.5l-4.5 4.5t-4.5 6.5q-2 8 3 11t10 -3v3q1 2 4 -1v-10v-2l-3 1q-2 6 -4 7q-3 2 -5 0t0 -5l6 -6q6 -7 7 -13q2 -12 -9 -12zM61 233q-3 6 -6.5 20.5t-4.5 16.5t3 3l2 -1q2 -6 4 -17t4 -17h1q1 14 4 33q1 3 4 2l1 -3q0 -2 -2.5 -17t-3.5 -20q0 -4 -4 -2
q-1 0 -2 2zM84 230q-3 0 -3 3q-1 1 -1 11v23q-3 1 -2 3t3 3h16q3 0 3 -3t-3 -3h-12v-11h11q4 1 4 -3q0 -1 -2 -2q-5 -1 -12 -1v-14l12 1q6 0 3 -4q-2 -2 -4 -2q-1 0 -5.5 -0.5t-7.5 -0.5zM131 231q-5 1 -11 9.5t-7 9.5q0 -10 1 -18q0 -2 -3 -2t-3 2q0 32 -1 35
q-3 0 -3.5 2.5t2.5 3.5h7q16 0 17 -11q0 -7 -7 -9q-1 -1 -4 -1q7 -15 13 -16q2 0 1 -4q0 -2 -2 -1zM162 231q-2 0 -2 2.5t2 2.5h3v32l-4 -1q-3 0 -1 4q0 2 2 2h13q2 -2 1 -5h-5v-32h4q2 0 2 -2.5t-2 -2.5h-13zM191 231q-5 -1 -8.5 4.5t-3.5 13.5q0 15 6 21h1l2 1q1 4 4 1
q4 0 6 -5q6 -5 5 -20.5t-12 -15.5zM212 233q-1 -4 -4 -2l-1 3q2 17 1 36q0 3 3 2q1 0 2 -2q12 -23 16 -29q-2 16 -2 29q2 1 5 1q0 -3 1 -16.5t0 -19.5q-2 -8 -6 -2q-2 3 -6.5 13t-7.5 14q1 -18 -1 -27zM115 255q6 0 8.5 3t0 6.5t-8.5 3.5h-2v-13h2zM188 237q4 -3 7 0
q9 9 0 26q-3 7 -8 1q-4 -5 -3 -14.5t4 -12.5z" />
    <glyph glyph-name="A" unicode="A" horiz-adv-x="447" 
d="M252 664q20 -66 54 -183t45 -153q66 4 75 -23q7 -20 -23 -34q-16 -8 -39 -9q20 -102 57 -226q7 -23 -7.5 -35t-34.5 -5.5t-25 26.5q-5 18 -56 240h-155q-25 -76 -54 -240q-3 -20 -22.5 -28.5t-35 3t-9.5 38.5q8 72 53 228q-41 5 -45 27q-3 19 29 28q14 5 34 5
q10 30 38.5 155t50.5 181q12 30 36.5 33t33.5 -28zM218 567q-12 -34 -30.5 -125t-26.5 -114q11 0 58 1t63 0q-8 28 -31.5 116.5t-32.5 121.5z" />
    <glyph glyph-name="B" unicode="B" horiz-adv-x="457" 
d="M43 686q137 13 221 -14q58 -18 85 -64.5t15 -95t-58 -72.5q-30 -19 -59 -24q66 -11 110 -46q60 -42 74 -112t-21.5 -136.5t-107.5 -99.5q-39 -20 -93.5 -22t-94.5 15q-8 -18 -25.5 -24t-30 3t-8.5 30q-12 5 -20 11q-20 12 -25 28t5.5 25t28.5 5q12 -2 19 -6
q18 141 18 289q-33 1 -45 18.5t1 34t43 16.5q-1 18 -2 82.5t-3 91.5q-45 -1 -56 28q-8 22 13 34zM133 619q4 -30 7 -170q60 -3 110 21q57 32 50 78t-70 63q-44 12 -97 8zM141 373q2 -175 -17 -296q73 -27 151 6q51 24 73.5 74t10.5 101.5t-54 81.5q-61 37 -164 33z" />
    <glyph glyph-name="C" unicode="C" horiz-adv-x="423" 
d="M138 664q51 32 113.5 26.5t96.5 -42.5q42 -46 32 -171q0 -25 -17.5 -34t-34 2.5t-14.5 33.5q10 88 -19 124q-23 22 -61 22.5t-65 -20.5q-39 -33 -60 -135t-10 -213.5t54 -164.5q29 -29 62 -31.5t61 25.5q30 33 53 96q9 24 39 24q27 0 30 -21q1 -5 -1 -12
q-17 -56 -38 -91.5t-56 -61.5q-46 -29 -89.5 -28t-82.5 25q-73 49 -98 189t5.5 277t99.5 181z" />
    <glyph glyph-name="D" unicode="D" horiz-adv-x="496" 
d="M54 675q84 23 163 10.5t135 -54.5q63 -42 94 -120.5t27.5 -162t-38.5 -165.5t-95 -130q-47 -38 -114.5 -55t-136.5 -5q-18 2 -28.5 15.5t-9.5 33.5q18 350 -5 565q-30 -4 -34 19q-4 25 25 42q8 4 17 7zM112 617q24 -236 7 -555q95 -21 171 39q69 53 95.5 152.5t1.5 196.5
t-92 143q-35 21 -87.5 27.5t-95.5 -3.5z" />
    <glyph glyph-name="E" unicode="E" horiz-adv-x="425" 
d="M345 689q24 1 33 -14.5t-0.5 -32.5t-32.5 -18q-5 0 -96 1.5t-119 0.5q1 -20 2.5 -105.5t3.5 -121.5q121 -8 196 5q32 7 46 -18q12 -22 -7 -35q-6 -4 -13 -6q-63 -10 -220 -13q0 -219 8 -277q111 1 227 12q32 3 37 -21q4 -22 -20 -36q-13 -8 -30 -8q-12 0 -90.5 -6
t-159.5 -6q-7 0 -16 7.5t-11 17.5q-4 15 -7 64t-5.5 109.5t-4 136.5t-2.5 132t-2 110t-1 58q-39 9 -32.5 36t46.5 28q49 7 270 0z" />
    <glyph glyph-name="F" unicode="F" horiz-adv-x="377" 
d="M335 681q14 -4 20.5 -12.5t4.5 -18t-7 -18t-14.5 -13t-18.5 -2.5q-40 16 -214 8q4 -64 8 -265q176 -7 208 0q21 4 22 -19q1 -27 -20 -41q-4 -4 -10 -5q-24 -5 -51.5 -6.5t-45.5 -1.5t-52.5 2t-49.5 2q0 -43 1 -139.5t1 -125.5q0 -19 -17 -28t-34 -2t-17 27q0 449 -11 611
q-3 49 38 52q19 1 57.5 2.5t60.5 2t51.5 0.5t51 -2.5t38.5 -7.5z" />
    <glyph glyph-name="G" unicode="G" horiz-adv-x="455" 
d="M335 670q84 -43 83 -141q0 -17 -16 -28t-32 -6t-17 27q-2 57 -41 79q-41 27 -88.5 17.5t-81.5 -54.5q-23 -35 -35 -123.5t-3 -188t43 -148.5q32 -43 83.5 -46t85.5 31q26 22 38.5 62.5t12 80t-2.5 80.5l-102 1q-15 0 -22.5 15.5t-3 31t18.5 15.5q115 0 131 1q40 2 42 -38
q0 -10 0.5 -50t0 -52.5t-2.5 -45t-7 -47.5t-13 -38t-21.5 -38.5t-31.5 -29.5q-39 -31 -86.5 -41.5t-94 4.5t-76.5 56q-49 55 -63 172.5t6.5 232.5t64.5 169q47 50 107.5 60t123.5 -20z" />
    <glyph glyph-name="H" unicode="H" horiz-adv-x="511" 
d="M441 673q0 -79 4.5 -180t9 -166.5t13 -169t10.5 -124.5q0 -23 -16.5 -34t-34 -3t-17.5 32q-3 95 -15 199q-1 0 -110.5 -1.5t-116.5 0.5q5 -54 3 -210q0 -16 -17 -25.5t-34 -5t-17 23.5q3 148 -5 218q-6 0 -24.5 -0.5t-25.5 0.5q-19 0 -22 16t6.5 31.5t22.5 15.5h36
q-4 47 -7 366q0 17 16.5 27t33.5 5t17 -25q0 -31 0.5 -85.5t1 -93t1.5 -80.5t2.5 -71t4.5 -42q49 -3 228 1q-16 200 -15 376q0 17 17 25.5t33.5 3t16.5 -23.5z" />
    <glyph glyph-name="I" unicode="I" horiz-adv-x="283" 
d="M241 693q20 1 28.5 -13t1.5 -28.5t-22 -15.5q-8 -1 -39 -1.5t-44 -0.5q4 -129 -1 -299.5t-3 -277.5q61 -3 86 0q12 1 19 -15t2.5 -32.5t-18.5 -16.5q-36 -1 -114.5 1t-122.5 -1q-12 0 -19 15.5t-2 31.5t23 18q20 1 46 1.5t33 -0.5q0 56 3 176t3.5 189.5t-2.5 208.5
q-9 0 -38 -1t-46 -1q-18 0 -26.5 15t0 30t31.5 15q136 -2 221 2z" />
    <glyph glyph-name="J" unicode="J" horiz-adv-x="371" 
d="M296 697q29 -1 37 -22t-7 -34q1 -30 4.5 -90t5 -104.5t2.5 -104.5t-4 -105.5t-14.5 -90.5t-28 -77.5t-45.5 -50.5q-42 -28 -96 -24.5t-93 37.5q-11 10 -19.5 22t-13.5 27l-8.5 25.5t-5 30t-2 27t-0.5 29v25.5q0 11 6.5 19.5t16 11t19 1t16.5 -9t7 -19.5q1 -14 2 -47.5
t5 -53.5t14 -36q20 -25 56.5 -26t63.5 21q31 30 44.5 115.5t12.5 156.5t-7 174t-6 106q-21 1 -82 -2t-86 -1q-24 1 -32.5 17.5t1.5 32t32 14.5q41 -3 111.5 2t93.5 4z" />
    <glyph glyph-name="K" unicode="K" horiz-adv-x="396" 
d="M309 669q0 -180 -115 -291q51 -65 81.5 -106t71 -114.5t49.5 -127.5q1 -19 -12.5 -30t-29.5 -7t-20 21q-33 140 -194 322q-9 -4 -17 -8.5t-13 -7.5l-4 -3q0 -7 -1 -123.5t0 -168.5q0 -18 -17 -28t-34 -5t-17 26q0 36 1.5 138t1.5 166.5t-5 157t-17 164.5q-5 28 24 43
q27 14 40 -5q4 -6 5 -14q13 -90 17 -281q61 52 102 128.5t33 146.5q-2 18 15.5 28t36 4t18.5 -25z" />
    <glyph glyph-name="L" unicode="L" horiz-adv-x="412" 
d="M106 657q-1 -126 13.5 -317.5t10.5 -284.5q39 2 117 -1.5t97 -1.5q-3 12 -4.5 45.5t1.5 55.5q2 12 17.5 19t29 2.5t12.5 -19.5q-1 -12 1 -68t-3 -73q-6 -23 -44 -23q-9 0 -66 1.5t-109.5 1.5t-81.5 -3q-15 0 -23 9t-9.5 18.5t-1.5 22.5q5 108 -10.5 318t-14.5 296
q0 23 17 33.5t34 1.5t17 -33z" />
    <glyph glyph-name="M" unicode="M" horiz-adv-x="616" 
d="M417 674q5 13 19.5 17t28.5 -3.5t16 -24.5q84 -519 121 -633q7 -17 -5.5 -30.5t-31 -13t-26.5 16.5q-22 61 -54 253t-45 302q-17 -68 -49 -263t-53 -262q-5 -15 -14 -23.5t-21.5 -5t-22.5 24.5q-20 37 -41 116t-35 149t-28.5 150t-17.5 94q-13 -74 -32.5 -265t-31.5 -255
q-6 -23 -23 -31t-30.5 2.5t-10.5 32.5q20 99 45 313.5t48 318.5q5 29 33.5 34t34.5 -27q3 -16 18.5 -97t28.5 -147t31.5 -153.5t34.5 -147.5q64 411 113 558z" />
    <glyph glyph-name="N" unicode="N" horiz-adv-x="470" 
d="M407 666q28 -405 12 -644q0 -16 -14 -24.5t-30.5 -3.5t-23.5 23q-22 44 -110.5 255t-139.5 298q36 -376 11 -541q-5 -25 -23.5 -33t-33.5 3.5t-10 36.5q12 109 10 212.5t-7 239.5t-4 172q0 16 12.5 23.5t29 2t25.5 -23.5q35 -55 63.5 -105.5t58 -117.5t42.5 -96.5
t49 -122.5t45 -116q-6 227 -30 557q0 18 16.5 26.5t34 2.5t17.5 -24z" />
    <glyph glyph-name="O" unicode="O" horiz-adv-x="445" 
d="M227 691q31 -13 53.5 -32.5t49.5 -53.5q58 -68 80 -184t1 -224.5t-77 -158.5q-50 -44 -110 -45.5t-109 47.5q-72 82 -88.5 247t38.5 274q37 67 99 100q-1 26 19.5 33.5t43.5 -3.5zM303 530q-43 83 -89 78t-92 -87q-41 -90 -26.5 -221.5t64.5 -205.5q33 -36 73.5 -30
t69.5 44q45 68 47 191t-47 231z" />
    <glyph glyph-name="P" unicode="P" horiz-adv-x="409" 
d="M308 669q59 -37 80 -109t2.5 -144t-63.5 -116q-33 -31 -83 -50.5t-102 -17.5q7 -153 15 -196q3 -25 -12 -37t-33 -4.5t-22 30.5q-14 68 -14 207q-34 4 -44 30q-9 24 15 32q10 3 24 2q-21 159 -20 318q-23 2 -32.5 15t1 28t38.5 20q159 35 250 -8zM266 617q-55 25 -148 0
q-2 -127 17 -321q37 -5 79.5 14t65.5 42q30 32 42.5 85.5t-1.5 105.5t-55 74z" />
    <glyph glyph-name="Q" unicode="Q" horiz-adv-x="462" 
d="M241 691q55 -27 96 -92q65 -90 85 -218.5t-9 -210.5q-14 -55 -55 -106q21 -28 25 -34q16 -24 -2 -43q-17 -18 -34 -4q-3 2 -5 5q-4 6 -14 19.5t-12 16.5q-49 -40 -95.5 -38.5t-85 34t-67.5 90.5q-29 63 -40 147t2.5 173t52.5 150q36 55 92 82q-6 22 21 31t45 -2zM144 550
q-49 -70 -53.5 -205.5t39.5 -213.5q70 -121 147 -55q-13 16 -33 45q-10 17 -4 32t19.5 15.5t25.5 -11.5q16 -25 30 -42q35 51 42 86q13 86 -4 191t-61 169q-73 97 -148 -11z" />
    <glyph glyph-name="R" unicode="R" horiz-adv-x="428" 
d="M52 684q51 5 82 6.5t86 -9t96 -38.5q47 -30 63.5 -78.5t3 -96t-48.5 -80.5q-50 -48 -107 -53q21 -23 46 -88t55 -124t67 -80q23 -10 8 -33q-15 -24 -42 -21q-8 1 -15 5q-34 18 -61 61.5t-42 87t-34.5 93t-38.5 74.5q-11 15 -43 21q5 -223 16 -318q1 -16 -15.5 -21.5
t-34.5 2.5t-18 22q-23 384 -13 604q-22 -5 -41 9.5t-12.5 32.5t43.5 22zM130 621q-1 -59 -1 -226q60 -26 122 6q61 34 68 95.5t-50 101.5q-62 37 -139 23z" />
    <glyph glyph-name="S" unicode="S" horiz-adv-x="403" 
d="M351 669q1 -19 3 -86t4 -90q-1 -16 -13 -23t-24.5 -3t-15.5 15q-23 103 -74 132q-52 31 -84 -1q-14 -20 -7.5 -50.5t23.5 -50.5q26 -47 85 -113.5t81 -102.5q31 -41 43 -92t-1.5 -101.5t-55.5 -80.5q-36 -29 -93.5 -29t-103.5 33q-44 32 -69 94.5t-23 125.5q1 18 17.5 27
t33.5 2t17 -25q0 -104 43 -151q30 -30 72.5 -34.5t68.5 18.5q37 31 32.5 85t-38.5 100q-25 40 -85 108.5t-81 99.5q-25 36 -33 73.5t-1 66t24 47.5q28 29 71.5 30t80.5 -24q30 -21 50 -59q0 11 -2.5 33.5t-2.5 25.5q-1 16 13 21.5t29 -1.5t16 -20z" />
    <glyph glyph-name="T" unicode="T" horiz-adv-x="394" 
d="M33 691q49 -4 189.5 -4.5t155.5 -0.5q20 -1 15.5 -27t-22.5 -33q-4 -2 -8 -2q-94 2 -139 1q8 -60 11 -148.5t2 -149t-4 -169.5t-3 -133q-1 -17 -18.5 -25.5t-34 -3.5t-16.5 22q1 40 7 169t5 231.5t-14 208.5h-36.5h-57h-47.5q-21 1 -18 27q3 28 23 36q5 1 10 1z" />
    <glyph glyph-name="U" unicode="U" horiz-adv-x="426" 
d="M314 668q0 20 17.5 25t35 -5t17.5 -28q-1 -53 4 -156.5t6.5 -170.5t-13 -147.5t-49.5 -132.5q-46 -66 -111 -64.5t-116 64.5q-31 37 -47 110.5t-19 140t-4.5 180t-5.5 173.5q-1 17 9 28t22.5 13t24.5 -6.5t14 -26.5q2 -31 3 -173t11 -242.5t36 -142.5q33 -49 71.5 -48
t66.5 46q24 43 33.5 129.5t7.5 155.5t-8 167.5t-6 110.5z" />
    <glyph glyph-name="V" unicode="V" horiz-adv-x="418" 
d="M97 674q24 -72 69.5 -277.5t76.5 -277.5q35 345 78 549q5 20 23.5 24t33 -8.5t8.5 -31.5q-20 -89 -36.5 -196t-33.5 -238t-25 -183q-6 -42 -34.5 -42.5t-41.5 35.5q-42 86 -73.5 199.5t-59.5 234.5t-52 189q-6 19 8.5 32.5t33.5 11.5t25 -21z" />
    <glyph glyph-name="W" unicode="W" horiz-adv-x="645" 
d="M95 677q43 -216 75 -580q72 407 120 559q9 29 36 26t34 -32q7 -41 43.5 -261.5t50.5 -295.5q48 356 90 567q7 27 37 32q29 4 35 -19q2 -9 0 -19q-24 -103 -64 -315.5t-60 -304.5q-5 -24 -20 -33.5t-31 -0.5t-24 33q-37 104 -95 537q-26 -143 -38 -209.5t-36 -169
t-47 -164.5q-8 -22 -25.5 -29.5t-33 1t-16.5 30.5q-1 100 -36 310.5t-64 315.5q-5 17 11 30.5t35.5 12t22.5 -20.5z" />
    <glyph glyph-name="X" unicode="X" horiz-adv-x="404" 
d="M99 671q51 -88 102 -228q15 36 46.5 123.5t39.5 103.5q10 22 43 22q29 0 30 -21q0 -5 -2 -11q-16 -41 -59.5 -139.5t-56.5 -130.5q124 -278 158 -342q9 -20 -3.5 -35.5t-30 -15.5t-27.5 15q-33 59 -131 302q-23 -64 -68.5 -171t-51.5 -124q-13 -27 -45 -27q-26 0 -29 20
q-1 8 3 17q10 24 42.5 99t58 138t45.5 124q-35 84 -122 247q-10 19 2 34.5t29 15t27 -15.5z" />
    <glyph glyph-name="Y" unicode="Y" horiz-adv-x="408" 
d="M299 674q2 23 30 18q28 -4 36 -26q3 -6 2 -12q-4 -28 -16 -131t-21.5 -166.5t-25.5 -147.5t-36.5 -134.5t-45.5 -66.5q-29 -19 -63 -15.5t-60 27.5q-47 42 -41 164q2 14 9.5 21t17.5 6.5t19.5 -5t15.5 -13.5t5 -19q-4 -74 13 -102q9 -16 26.5 -15.5t30.5 17.5
q7 11 12.5 24t9.5 32t6 29t5.5 33t4.5 26q-20 16 -39 39.5t-37 58t-30.5 60t-30 71.5t-24.5 66t-24 70.5t-20 59.5q-5 25 19.5 41t38.5 -3q4 -5 6 -14q3 -8 13 -40.5t14.5 -46.5t15 -45t17.5 -48t17.5 -44.5t19 -45.5t19.5 -38.5t22 -36.5t22 -28q8 39 16 103.5t18 157
t13 119.5z" />
    <glyph glyph-name="Z" unicode="Z" horiz-adv-x="406" 
d="M51 691q44 0 153.5 -2t131.5 1q18 1 26.5 -11t3.5 -29q-58 -87 -154 -310t-130 -282q42 -1 135.5 2.5t122.5 3.5q23 2 26 -23q4 -26 -16 -39q-7 -4 -15 -4q-52 0 -165.5 -3.5t-137.5 0.5q-20 2 -28 18.5t2 36.5q37 55 82 151.5t100.5 225t90.5 200.5q-41 -1 -123 0
t-111 -1q-17 0 -22.5 16t3 32.5t25.5 16.5z" />
    <glyph glyph-name="bracketleft" unicode="[" 
d="M332 451v-261h-319v261h319zM19 196h307v249h-307v-249zM87 377q-4 7 -7.5 21.5t-3.5 15.5q-1 2 3 3q1 1 2 -1q1 -3 3.5 -15t4.5 -19q2 23 5 33q0 3 4 2l1 -3q-2 -7 -3.5 -20t-2.5 -17q-1 -2 -3 -2.5t-3 2.5zM208 376q-5 1 -3 4l4 1q0 3 0.5 8t0.5 8q-3 0 -4 2q-2 3 2 3
h2l-1 10h-1q-2 0 -3 1q-1 3 2 4q21 0 22 -8q0 -7 -7 -9q3 0 6 -3q5 -4 3 -12t-10 -9q-4 -1 -7 0q-3 -5 -6 0zM56 377q-1 -4 -5 -2q-1 1 -1 3l3 13q-3 0 -3 2l2 2h2q2 4 5 19q4 6 6 1l5 -19h3q3 -1 2 -4q-1 -1 -3 -1h-1q1 -6 4 -12q1 -5 -3 -4q-1 0 -2 2t-2.5 7.5t-1.5 6.5
h-8zM106 377q0 -4 -4 -2q-2 0 -1 3q0 2 1 6t1 7q-2 0 -2 2t2 2h2q4 17 5 19t3 2.5t3 -1.5l5 -19h2q4 -1 2 -4l-2 -1h-1q1 -3 2 -7t1 -5q2 -5 -2 -4q-2 0 -3 2q-3 12 -3 14h-8zM130 375q-2 0 -2 2.5t2 2.5h4v32l-4 -1q-4 0 -2 4q0 2 2 2h4h6h3q2 -2 1 -5h-5v-32h4q1 -2 1 -5
h-14zM155 374q-3 0 -3 4q0 6 -1 18.5t-1 17.5q0 3 3 3t3 -3q0 -8 1 -19t0 -16h12q-1 2 -1 6q1 2 3 1.5t2 -2.5v-8q0 -2 -4 -2h-14zM183 377q-1 -4 -5 -2q-1 1 -1 3l3 13q-3 0 -3 2l2 2h2q1 2 3 9.5t3 9.5t2.5 2.5t2.5 -1.5l5 -19h3q3 -1 2 -4l-3 -1q1 -9 3 -12q1 -5 -3 -4
q-1 0 -2 2q-3 6 -3 14h-9zM241 374q-3 0 -3 4q0 6 -1 18.5t-1 17.5q0 3 3 3t3 -3q0 -8 1 -19t0 -16h12q-1 3 0 6q0 2 2 1.5t2 -2.5v-2v-3v-3q0 -2 -4 -2h-14zM268 374l-3 3v34q-3 1 -2.5 3t2.5 3h17q3 0 3 -3t-3 -3h-12v-11h10q4 1 4 -3q0 -1 -2 -2q-4 -1 -12 -1v-14l13 1
q5 0 2 -4q-1 -2 -3 -2t-6.5 -0.5t-7.5 -0.5zM218 402q3 1 4.5 3t0.5 4.5t-5 2.5h-4l1 -10h3zM65 396q0 1 -0.5 3t-1 4.5t-0.5 4.5h-1q0 -2 -1 -6.5t-1 -5.5h5zM116 396q-1 2 -3 12q0 -1 -1 -6t-2 -6h6zM192 396q0 1 -0.5 3t-1 4.5t-0.5 4.5h-1q0 -2 -1 -6.5t-1 -5.5h5z
M218 380q8 1 8.5 8t-6.5 9h-5l-1 -17h4zM140 304q2 4 0 13q-2 -1 -2 0q-2 0 -2 2t2 2h2v21q0 4 3 3q2 0 2 -2v-22h13q-1 8 -1 22q0 3 3 3q2 -1 2 -3q0 -8 1 -22t1 -15q0 -2 -2 -3q-3 -2 -3 2q0 8 -1 12h-12v-13q-2 -1 -6 0zM243 302q-9 1 -9 18q0 9 -1 22q0 5 4 3q2 0 2 -2
v-21q0 -14 5 -14q9 0 5 35q0 3 3 2l2 -3l1 -10q1 -10 0 -14q0 -16 -12 -16zM50 303q-2 0 -2 2.5t2 2.5h4v32l-4 -1q-2 0 -2 2.5t2 3.5h13q3 0 3 -2q2 -3 -2 -3h-5v-32h5q2 0 2 -2.5t-2 -2.5q-1 -1 -7 -0.5t-7 0.5zM121 304v36q-5 0 -8 -1q-3 0 -1 4q1 2 2 2h20q1 -2 -1 -6
h-7v-34q-2 -1 -5 -1zM175 302q-3 0 -3 3q-1 1 -1 11v23q-3 1 -2 3t3 3h16q3 0 3 -3t-3 -3h-11l-1 -11h11q4 1 4 -3q0 -1 -2 -2q-5 -1 -12 -1v-14l12 1q6 0 3 -4q-2 -2 -4 -2q-1 0 -5.5 -0.5t-7.5 -0.5zM266 302q-3 0 -3 4q0 6 -1 18.5t-1 17.5q0 3 3 3t3 -3q0 -8 1 -19
t0 -16h12q-2 3 0 6q0 2 2 1.5t2 -2.5v-2v-3v-3q0 -2 -4 -2h-14zM293 302q-3 0 -3 4q1 7 0 20t-1 16t2.5 3t2.5 -3q0 -10 1 -20.5t1 -14.5h11v6q0 2 3 1l2 -2v-8q-1 -2 -4 -2h-15zM208 340q0 4 2 4q12 1 17 0q2 0 2 -3q0 -1 -2 -2q-1 -1 -4 1h-10q0 -12 1 -15h10q2 1 2 -1
q1 -3 -1 -4h-11v-15q0 -2 -3 -2.5t-3 2.5v35zM75 305q0 -4 -4 -2l-1 3q2 17 1 36q0 3 3 2q1 0 2 -2q12 -23 16 -29q-2 16 -2 29q2 1 5 1q0 -3 1 -16.5t0 -19.5q-2 -8 -6 -2q-2 3 -6.5 13t-7.5 14q1 -18 -1 -27zM147 231q-6 -1 -9 3.5t-3 11.5q0 3 2.5 3t2.5 -3q0 -5 2 -8
t6 -2t3.5 5.5t-4.5 8.5l-4.5 4.5t-4.5 6.5q-2 8 3 11t10 -3v3q1 2 4 -1v-10v-2l-3 1q-2 6 -4 7q-3 2 -5 0t0 -5l6 -6q6 -7 7 -13q2 -12 -9 -12zM61 233q-3 6 -6.5 20.5t-4.5 16.5t3 3l2 -1q2 -6 4 -17t4 -17h1q1 14 4 33q1 3 4 2l1 -3q0 -2 -2.5 -17t-3.5 -20q0 -4 -4 -2
q-1 0 -2 2zM84 230q-3 0 -3 3q-1 1 -1 11v23q-3 1 -2 3t3 3h16q3 0 3 -3t-3 -3h-12v-11h11q4 1 4 -3q0 -1 -2 -2q-5 -1 -12 -1v-14l12 1q6 0 3 -4q-2 -2 -4 -2q-1 0 -5.5 -0.5t-7.5 -0.5zM131 231q-5 1 -11 9.5t-7 9.5q0 -10 1 -18q0 -2 -3 -2t-3 2q0 32 -1 35
q-3 0 -3.5 2.5t2.5 3.5h7q16 0 17 -11q0 -7 -7 -9q-1 -1 -4 -1q7 -15 13 -16q2 0 1 -4q0 -2 -2 -1zM162 231q-2 0 -2 2.5t2 2.5h3v32l-4 -1q-3 0 -1 4q0 2 2 2h13q2 -2 1 -5h-5v-32h4q2 0 2 -2.5t-2 -2.5h-13zM191 231q-5 -1 -8.5 4.5t-3.5 13.5q0 15 6 21h1l2 1q1 4 4 1
q4 0 6 -5q6 -5 5 -20.5t-12 -15.5zM212 233q-1 -4 -4 -2l-1 3q2 17 1 36q0 3 3 2q1 0 2 -2q12 -23 16 -29q-2 16 -2 29q2 1 5 1q0 -3 1 -16.5t0 -19.5q-2 -8 -6 -2q-2 3 -6.5 13t-7.5 14q1 -18 -1 -27zM115 255q6 0 8.5 3t0 6.5t-8.5 3.5h-2v-13h2zM188 237q4 -3 7 0
q9 9 0 26q-3 7 -8 1q-4 -5 -3 -14.5t4 -12.5z" />
    <glyph glyph-name="backslash" unicode="\" 
d="M332 451v-261h-319v261h319zM19 196h307v249h-307v-249zM87 377q-4 7 -7.5 21.5t-3.5 15.5q-1 2 3 3q1 1 2 -1q1 -3 3.5 -15t4.5 -19q2 23 5 33q0 3 4 2l1 -3q-2 -7 -3.5 -20t-2.5 -17q-1 -2 -3 -2.5t-3 2.5zM208 376q-5 1 -3 4l4 1q0 3 0.5 8t0.5 8q-3 0 -4 2q-2 3 2 3
h2l-1 10h-1q-2 0 -3 1q-1 3 2 4q21 0 22 -8q0 -7 -7 -9q3 0 6 -3q5 -4 3 -12t-10 -9q-4 -1 -7 0q-3 -5 -6 0zM56 377q-1 -4 -5 -2q-1 1 -1 3l3 13q-3 0 -3 2l2 2h2q2 4 5 19q4 6 6 1l5 -19h3q3 -1 2 -4q-1 -1 -3 -1h-1q1 -6 4 -12q1 -5 -3 -4q-1 0 -2 2t-2.5 7.5t-1.5 6.5
h-8zM106 377q0 -4 -4 -2q-2 0 -1 3q0 2 1 6t1 7q-2 0 -2 2t2 2h2q4 17 5 19t3 2.5t3 -1.5l5 -19h2q4 -1 2 -4l-2 -1h-1q1 -3 2 -7t1 -5q2 -5 -2 -4q-2 0 -3 2q-3 12 -3 14h-8zM130 375q-2 0 -2 2.5t2 2.5h4v32l-4 -1q-4 0 -2 4q0 2 2 2h4h6h3q2 -2 1 -5h-5v-32h4q1 -2 1 -5
h-14zM155 374q-3 0 -3 4q0 6 -1 18.5t-1 17.5q0 3 3 3t3 -3q0 -8 1 -19t0 -16h12q-1 2 -1 6q1 2 3 1.5t2 -2.5v-8q0 -2 -4 -2h-14zM183 377q-1 -4 -5 -2q-1 1 -1 3l3 13q-3 0 -3 2l2 2h2q1 2 3 9.5t3 9.5t2.5 2.5t2.5 -1.5l5 -19h3q3 -1 2 -4l-3 -1q1 -9 3 -12q1 -5 -3 -4
q-1 0 -2 2q-3 6 -3 14h-9zM241 374q-3 0 -3 4q0 6 -1 18.5t-1 17.5q0 3 3 3t3 -3q0 -8 1 -19t0 -16h12q-1 3 0 6q0 2 2 1.5t2 -2.5v-2v-3v-3q0 -2 -4 -2h-14zM268 374l-3 3v34q-3 1 -2.5 3t2.5 3h17q3 0 3 -3t-3 -3h-12v-11h10q4 1 4 -3q0 -1 -2 -2q-4 -1 -12 -1v-14l13 1
q5 0 2 -4q-1 -2 -3 -2t-6.5 -0.5t-7.5 -0.5zM218 402q3 1 4.5 3t0.5 4.5t-5 2.5h-4l1 -10h3zM65 396q0 1 -0.5 3t-1 4.5t-0.5 4.5h-1q0 -2 -1 -6.5t-1 -5.5h5zM116 396q-1 2 -3 12q0 -1 -1 -6t-2 -6h6zM192 396q0 1 -0.5 3t-1 4.5t-0.5 4.5h-1q0 -2 -1 -6.5t-1 -5.5h5z
M218 380q8 1 8.5 8t-6.5 9h-5l-1 -17h4zM140 304q2 4 0 13q-2 -1 -2 0q-2 0 -2 2t2 2h2v21q0 4 3 3q2 0 2 -2v-22h13q-1 8 -1 22q0 3 3 3q2 -1 2 -3q0 -8 1 -22t1 -15q0 -2 -2 -3q-3 -2 -3 2q0 8 -1 12h-12v-13q-2 -1 -6 0zM243 302q-9 1 -9 18q0 9 -1 22q0 5 4 3q2 0 2 -2
v-21q0 -14 5 -14q9 0 5 35q0 3 3 2l2 -3l1 -10q1 -10 0 -14q0 -16 -12 -16zM50 303q-2 0 -2 2.5t2 2.5h4v32l-4 -1q-2 0 -2 2.5t2 3.5h13q3 0 3 -2q2 -3 -2 -3h-5v-32h5q2 0 2 -2.5t-2 -2.5q-1 -1 -7 -0.5t-7 0.5zM121 304v36q-5 0 -8 -1q-3 0 -1 4q1 2 2 2h20q1 -2 -1 -6
h-7v-34q-2 -1 -5 -1zM175 302q-3 0 -3 3q-1 1 -1 11v23q-3 1 -2 3t3 3h16q3 0 3 -3t-3 -3h-11l-1 -11h11q4 1 4 -3q0 -1 -2 -2q-5 -1 -12 -1v-14l12 1q6 0 3 -4q-2 -2 -4 -2q-1 0 -5.5 -0.5t-7.5 -0.5zM266 302q-3 0 -3 4q0 6 -1 18.5t-1 17.5q0 3 3 3t3 -3q0 -8 1 -19
t0 -16h12q-2 3 0 6q0 2 2 1.5t2 -2.5v-2v-3v-3q0 -2 -4 -2h-14zM293 302q-3 0 -3 4q1 7 0 20t-1 16t2.5 3t2.5 -3q0 -10 1 -20.5t1 -14.5h11v6q0 2 3 1l2 -2v-8q-1 -2 -4 -2h-15zM208 340q0 4 2 4q12 1 17 0q2 0 2 -3q0 -1 -2 -2q-1 -1 -4 1h-10q0 -12 1 -15h10q2 1 2 -1
q1 -3 -1 -4h-11v-15q0 -2 -3 -2.5t-3 2.5v35zM75 305q0 -4 -4 -2l-1 3q2 17 1 36q0 3 3 2q1 0 2 -2q12 -23 16 -29q-2 16 -2 29q2 1 5 1q0 -3 1 -16.5t0 -19.5q-2 -8 -6 -2q-2 3 -6.5 13t-7.5 14q1 -18 -1 -27zM147 231q-6 -1 -9 3.5t-3 11.5q0 3 2.5 3t2.5 -3q0 -5 2 -8
t6 -2t3.5 5.5t-4.5 8.5l-4.5 4.5t-4.5 6.5q-2 8 3 11t10 -3v3q1 2 4 -1v-10v-2l-3 1q-2 6 -4 7q-3 2 -5 0t0 -5l6 -6q6 -7 7 -13q2 -12 -9 -12zM61 233q-3 6 -6.5 20.5t-4.5 16.5t3 3l2 -1q2 -6 4 -17t4 -17h1q1 14 4 33q1 3 4 2l1 -3q0 -2 -2.5 -17t-3.5 -20q0 -4 -4 -2
q-1 0 -2 2zM84 230q-3 0 -3 3q-1 1 -1 11v23q-3 1 -2 3t3 3h16q3 0 3 -3t-3 -3h-12v-11h11q4 1 4 -3q0 -1 -2 -2q-5 -1 -12 -1v-14l12 1q6 0 3 -4q-2 -2 -4 -2q-1 0 -5.5 -0.5t-7.5 -0.5zM131 231q-5 1 -11 9.5t-7 9.5q0 -10 1 -18q0 -2 -3 -2t-3 2q0 32 -1 35
q-3 0 -3.5 2.5t2.5 3.5h7q16 0 17 -11q0 -7 -7 -9q-1 -1 -4 -1q7 -15 13 -16q2 0 1 -4q0 -2 -2 -1zM162 231q-2 0 -2 2.5t2 2.5h3v32l-4 -1q-3 0 -1 4q0 2 2 2h13q2 -2 1 -5h-5v-32h4q2 0 2 -2.5t-2 -2.5h-13zM191 231q-5 -1 -8.5 4.5t-3.5 13.5q0 15 6 21h1l2 1q1 4 4 1
q4 0 6 -5q6 -5 5 -20.5t-12 -15.5zM212 233q-1 -4 -4 -2l-1 3q2 17 1 36q0 3 3 2q1 0 2 -2q12 -23 16 -29q-2 16 -2 29q2 1 5 1q0 -3 1 -16.5t0 -19.5q-2 -8 -6 -2q-2 3 -6.5 13t-7.5 14q1 -18 -1 -27zM115 255q6 0 8.5 3t0 6.5t-8.5 3.5h-2v-13h2zM188 237q4 -3 7 0
q9 9 0 26q-3 7 -8 1q-4 -5 -3 -14.5t4 -12.5z" />
    <glyph glyph-name="bracketright" unicode="]" 
d="M332 451v-261h-319v261h319zM19 196h307v249h-307v-249zM87 377q-4 7 -7.5 21.5t-3.5 15.5q-1 2 3 3q1 1 2 -1q1 -3 3.5 -15t4.5 -19q2 23 5 33q0 3 4 2l1 -3q-2 -7 -3.5 -20t-2.5 -17q-1 -2 -3 -2.5t-3 2.5zM208 376q-5 1 -3 4l4 1q0 3 0.5 8t0.5 8q-3 0 -4 2q-2 3 2 3
h2l-1 10h-1q-2 0 -3 1q-1 3 2 4q21 0 22 -8q0 -7 -7 -9q3 0 6 -3q5 -4 3 -12t-10 -9q-4 -1 -7 0q-3 -5 -6 0zM56 377q-1 -4 -5 -2q-1 1 -1 3l3 13q-3 0 -3 2l2 2h2q2 4 5 19q4 6 6 1l5 -19h3q3 -1 2 -4q-1 -1 -3 -1h-1q1 -6 4 -12q1 -5 -3 -4q-1 0 -2 2t-2.5 7.5t-1.5 6.5
h-8zM106 377q0 -4 -4 -2q-2 0 -1 3q0 2 1 6t1 7q-2 0 -2 2t2 2h2q4 17 5 19t3 2.5t3 -1.5l5 -19h2q4 -1 2 -4l-2 -1h-1q1 -3 2 -7t1 -5q2 -5 -2 -4q-2 0 -3 2q-3 12 -3 14h-8zM130 375q-2 0 -2 2.5t2 2.5h4v32l-4 -1q-4 0 -2 4q0 2 2 2h4h6h3q2 -2 1 -5h-5v-32h4q1 -2 1 -5
h-14zM155 374q-3 0 -3 4q0 6 -1 18.5t-1 17.5q0 3 3 3t3 -3q0 -8 1 -19t0 -16h12q-1 2 -1 6q1 2 3 1.5t2 -2.5v-8q0 -2 -4 -2h-14zM183 377q-1 -4 -5 -2q-1 1 -1 3l3 13q-3 0 -3 2l2 2h2q1 2 3 9.5t3 9.5t2.5 2.5t2.5 -1.5l5 -19h3q3 -1 2 -4l-3 -1q1 -9 3 -12q1 -5 -3 -4
q-1 0 -2 2q-3 6 -3 14h-9zM241 374q-3 0 -3 4q0 6 -1 18.5t-1 17.5q0 3 3 3t3 -3q0 -8 1 -19t0 -16h12q-1 3 0 6q0 2 2 1.5t2 -2.5v-2v-3v-3q0 -2 -4 -2h-14zM268 374l-3 3v34q-3 1 -2.5 3t2.5 3h17q3 0 3 -3t-3 -3h-12v-11h10q4 1 4 -3q0 -1 -2 -2q-4 -1 -12 -1v-14l13 1
q5 0 2 -4q-1 -2 -3 -2t-6.5 -0.5t-7.5 -0.5zM218 402q3 1 4.5 3t0.5 4.5t-5 2.5h-4l1 -10h3zM65 396q0 1 -0.5 3t-1 4.5t-0.5 4.5h-1q0 -2 -1 -6.5t-1 -5.5h5zM116 396q-1 2 -3 12q0 -1 -1 -6t-2 -6h6zM192 396q0 1 -0.5 3t-1 4.5t-0.5 4.5h-1q0 -2 -1 -6.5t-1 -5.5h5z
M218 380q8 1 8.5 8t-6.5 9h-5l-1 -17h4zM140 304q2 4 0 13q-2 -1 -2 0q-2 0 -2 2t2 2h2v21q0 4 3 3q2 0 2 -2v-22h13q-1 8 -1 22q0 3 3 3q2 -1 2 -3q0 -8 1 -22t1 -15q0 -2 -2 -3q-3 -2 -3 2q0 8 -1 12h-12v-13q-2 -1 -6 0zM243 302q-9 1 -9 18q0 9 -1 22q0 5 4 3q2 0 2 -2
v-21q0 -14 5 -14q9 0 5 35q0 3 3 2l2 -3l1 -10q1 -10 0 -14q0 -16 -12 -16zM50 303q-2 0 -2 2.5t2 2.5h4v32l-4 -1q-2 0 -2 2.5t2 3.5h13q3 0 3 -2q2 -3 -2 -3h-5v-32h5q2 0 2 -2.5t-2 -2.5q-1 -1 -7 -0.5t-7 0.5zM121 304v36q-5 0 -8 -1q-3 0 -1 4q1 2 2 2h20q1 -2 -1 -6
h-7v-34q-2 -1 -5 -1zM175 302q-3 0 -3 3q-1 1 -1 11v23q-3 1 -2 3t3 3h16q3 0 3 -3t-3 -3h-11l-1 -11h11q4 1 4 -3q0 -1 -2 -2q-5 -1 -12 -1v-14l12 1q6 0 3 -4q-2 -2 -4 -2q-1 0 -5.5 -0.5t-7.5 -0.5zM266 302q-3 0 -3 4q0 6 -1 18.5t-1 17.5q0 3 3 3t3 -3q0 -8 1 -19
t0 -16h12q-2 3 0 6q0 2 2 1.5t2 -2.5v-2v-3v-3q0 -2 -4 -2h-14zM293 302q-3 0 -3 4q1 7 0 20t-1 16t2.5 3t2.5 -3q0 -10 1 -20.5t1 -14.5h11v6q0 2 3 1l2 -2v-8q-1 -2 -4 -2h-15zM208 340q0 4 2 4q12 1 17 0q2 0 2 -3q0 -1 -2 -2q-1 -1 -4 1h-10q0 -12 1 -15h10q2 1 2 -1
q1 -3 -1 -4h-11v-15q0 -2 -3 -2.5t-3 2.5v35zM75 305q0 -4 -4 -2l-1 3q2 17 1 36q0 3 3 2q1 0 2 -2q12 -23 16 -29q-2 16 -2 29q2 1 5 1q0 -3 1 -16.5t0 -19.5q-2 -8 -6 -2q-2 3 -6.5 13t-7.5 14q1 -18 -1 -27zM147 231q-6 -1 -9 3.5t-3 11.5q0 3 2.5 3t2.5 -3q0 -5 2 -8
t6 -2t3.5 5.5t-4.5 8.5l-4.5 4.5t-4.5 6.5q-2 8 3 11t10 -3v3q1 2 4 -1v-10v-2l-3 1q-2 6 -4 7q-3 2 -5 0t0 -5l6 -6q6 -7 7 -13q2 -12 -9 -12zM61 233q-3 6 -6.5 20.5t-4.5 16.5t3 3l2 -1q2 -6 4 -17t4 -17h1q1 14 4 33q1 3 4 2l1 -3q0 -2 -2.5 -17t-3.5 -20q0 -4 -4 -2
q-1 0 -2 2zM84 230q-3 0 -3 3q-1 1 -1 11v23q-3 1 -2 3t3 3h16q3 0 3 -3t-3 -3h-12v-11h11q4 1 4 -3q0 -1 -2 -2q-5 -1 -12 -1v-14l12 1q6 0 3 -4q-2 -2 -4 -2q-1 0 -5.5 -0.5t-7.5 -0.5zM131 231q-5 1 -11 9.5t-7 9.5q0 -10 1 -18q0 -2 -3 -2t-3 2q0 32 -1 35
q-3 0 -3.5 2.5t2.5 3.5h7q16 0 17 -11q0 -7 -7 -9q-1 -1 -4 -1q7 -15 13 -16q2 0 1 -4q0 -2 -2 -1zM162 231q-2 0 -2 2.5t2 2.5h3v32l-4 -1q-3 0 -1 4q0 2 2 2h13q2 -2 1 -5h-5v-32h4q2 0 2 -2.5t-2 -2.5h-13zM191 231q-5 -1 -8.5 4.5t-3.5 13.5q0 15 6 21h1l2 1q1 4 4 1
q4 0 6 -5q6 -5 5 -20.5t-12 -15.5zM212 233q-1 -4 -4 -2l-1 3q2 17 1 36q0 3 3 2q1 0 2 -2q12 -23 16 -29q-2 16 -2 29q2 1 5 1q0 -3 1 -16.5t0 -19.5q-2 -8 -6 -2q-2 3 -6.5 13t-7.5 14q1 -18 -1 -27zM115 255q6 0 8.5 3t0 6.5t-8.5 3.5h-2v-13h2zM188 237q4 -3 7 0
q9 9 0 26q-3 7 -8 1q-4 -5 -3 -14.5t4 -12.5z" />
    <glyph glyph-name="asciicircum" unicode="^" 
d="M332 451v-261h-319v261h319zM19 196h307v249h-307v-249zM87 377q-4 7 -7.5 21.5t-3.5 15.5q-1 2 3 3q1 1 2 -1q1 -3 3.5 -15t4.5 -19q2 23 5 33q0 3 4 2l1 -3q-2 -7 -3.5 -20t-2.5 -17q-1 -2 -3 -2.5t-3 2.5zM208 376q-5 1 -3 4l4 1q0 3 0.5 8t0.5 8q-3 0 -4 2q-2 3 2 3
h2l-1 10h-1q-2 0 -3 1q-1 3 2 4q21 0 22 -8q0 -7 -7 -9q3 0 6 -3q5 -4 3 -12t-10 -9q-4 -1 -7 0q-3 -5 -6 0zM56 377q-1 -4 -5 -2q-1 1 -1 3l3 13q-3 0 -3 2l2 2h2q2 4 5 19q4 6 6 1l5 -19h3q3 -1 2 -4q-1 -1 -3 -1h-1q1 -6 4 -12q1 -5 -3 -4q-1 0 -2 2t-2.5 7.5t-1.5 6.5
h-8zM106 377q0 -4 -4 -2q-2 0 -1 3q0 2 1 6t1 7q-2 0 -2 2t2 2h2q4 17 5 19t3 2.5t3 -1.5l5 -19h2q4 -1 2 -4l-2 -1h-1q1 -3 2 -7t1 -5q2 -5 -2 -4q-2 0 -3 2q-3 12 -3 14h-8zM130 375q-2 0 -2 2.5t2 2.5h4v32l-4 -1q-4 0 -2 4q0 2 2 2h4h6h3q2 -2 1 -5h-5v-32h4q1 -2 1 -5
h-14zM155 374q-3 0 -3 4q0 6 -1 18.5t-1 17.5q0 3 3 3t3 -3q0 -8 1 -19t0 -16h12q-1 2 -1 6q1 2 3 1.5t2 -2.5v-8q0 -2 -4 -2h-14zM183 377q-1 -4 -5 -2q-1 1 -1 3l3 13q-3 0 -3 2l2 2h2q1 2 3 9.5t3 9.5t2.5 2.5t2.5 -1.5l5 -19h3q3 -1 2 -4l-3 -1q1 -9 3 -12q1 -5 -3 -4
q-1 0 -2 2q-3 6 -3 14h-9zM241 374q-3 0 -3 4q0 6 -1 18.5t-1 17.5q0 3 3 3t3 -3q0 -8 1 -19t0 -16h12q-1 3 0 6q0 2 2 1.5t2 -2.5v-2v-3v-3q0 -2 -4 -2h-14zM268 374l-3 3v34q-3 1 -2.5 3t2.5 3h17q3 0 3 -3t-3 -3h-12v-11h10q4 1 4 -3q0 -1 -2 -2q-4 -1 -12 -1v-14l13 1
q5 0 2 -4q-1 -2 -3 -2t-6.5 -0.5t-7.5 -0.5zM218 402q3 1 4.5 3t0.5 4.5t-5 2.5h-4l1 -10h3zM65 396q0 1 -0.5 3t-1 4.5t-0.5 4.5h-1q0 -2 -1 -6.5t-1 -5.5h5zM116 396q-1 2 -3 12q0 -1 -1 -6t-2 -6h6zM192 396q0 1 -0.5 3t-1 4.5t-0.5 4.5h-1q0 -2 -1 -6.5t-1 -5.5h5z
M218 380q8 1 8.5 8t-6.5 9h-5l-1 -17h4zM140 304q2 4 0 13q-2 -1 -2 0q-2 0 -2 2t2 2h2v21q0 4 3 3q2 0 2 -2v-22h13q-1 8 -1 22q0 3 3 3q2 -1 2 -3q0 -8 1 -22t1 -15q0 -2 -2 -3q-3 -2 -3 2q0 8 -1 12h-12v-13q-2 -1 -6 0zM243 302q-9 1 -9 18q0 9 -1 22q0 5 4 3q2 0 2 -2
v-21q0 -14 5 -14q9 0 5 35q0 3 3 2l2 -3l1 -10q1 -10 0 -14q0 -16 -12 -16zM50 303q-2 0 -2 2.5t2 2.5h4v32l-4 -1q-2 0 -2 2.5t2 3.5h13q3 0 3 -2q2 -3 -2 -3h-5v-32h5q2 0 2 -2.5t-2 -2.5q-1 -1 -7 -0.5t-7 0.5zM121 304v36q-5 0 -8 -1q-3 0 -1 4q1 2 2 2h20q1 -2 -1 -6
h-7v-34q-2 -1 -5 -1zM175 302q-3 0 -3 3q-1 1 -1 11v23q-3 1 -2 3t3 3h16q3 0 3 -3t-3 -3h-11l-1 -11h11q4 1 4 -3q0 -1 -2 -2q-5 -1 -12 -1v-14l12 1q6 0 3 -4q-2 -2 -4 -2q-1 0 -5.5 -0.5t-7.5 -0.5zM266 302q-3 0 -3 4q0 6 -1 18.5t-1 17.5q0 3 3 3t3 -3q0 -8 1 -19
t0 -16h12q-2 3 0 6q0 2 2 1.5t2 -2.5v-2v-3v-3q0 -2 -4 -2h-14zM293 302q-3 0 -3 4q1 7 0 20t-1 16t2.5 3t2.5 -3q0 -10 1 -20.5t1 -14.5h11v6q0 2 3 1l2 -2v-8q-1 -2 -4 -2h-15zM208 340q0 4 2 4q12 1 17 0q2 0 2 -3q0 -1 -2 -2q-1 -1 -4 1h-10q0 -12 1 -15h10q2 1 2 -1
q1 -3 -1 -4h-11v-15q0 -2 -3 -2.5t-3 2.5v35zM75 305q0 -4 -4 -2l-1 3q2 17 1 36q0 3 3 2q1 0 2 -2q12 -23 16 -29q-2 16 -2 29q2 1 5 1q0 -3 1 -16.5t0 -19.5q-2 -8 -6 -2q-2 3 -6.5 13t-7.5 14q1 -18 -1 -27zM147 231q-6 -1 -9 3.5t-3 11.5q0 3 2.5 3t2.5 -3q0 -5 2 -8
t6 -2t3.5 5.5t-4.5 8.5l-4.5 4.5t-4.5 6.5q-2 8 3 11t10 -3v3q1 2 4 -1v-10v-2l-3 1q-2 6 -4 7q-3 2 -5 0t0 -5l6 -6q6 -7 7 -13q2 -12 -9 -12zM61 233q-3 6 -6.5 20.5t-4.5 16.5t3 3l2 -1q2 -6 4 -17t4 -17h1q1 14 4 33q1 3 4 2l1 -3q0 -2 -2.5 -17t-3.5 -20q0 -4 -4 -2
q-1 0 -2 2zM84 230q-3 0 -3 3q-1 1 -1 11v23q-3 1 -2 3t3 3h16q3 0 3 -3t-3 -3h-12v-11h11q4 1 4 -3q0 -1 -2 -2q-5 -1 -12 -1v-14l12 1q6 0 3 -4q-2 -2 -4 -2q-1 0 -5.5 -0.5t-7.5 -0.5zM131 231q-5 1 -11 9.5t-7 9.5q0 -10 1 -18q0 -2 -3 -2t-3 2q0 32 -1 35
q-3 0 -3.5 2.5t2.5 3.5h7q16 0 17 -11q0 -7 -7 -9q-1 -1 -4 -1q7 -15 13 -16q2 0 1 -4q0 -2 -2 -1zM162 231q-2 0 -2 2.5t2 2.5h3v32l-4 -1q-3 0 -1 4q0 2 2 2h13q2 -2 1 -5h-5v-32h4q2 0 2 -2.5t-2 -2.5h-13zM191 231q-5 -1 -8.5 4.5t-3.5 13.5q0 15 6 21h1l2 1q1 4 4 1
q4 0 6 -5q6 -5 5 -20.5t-12 -15.5zM212 233q-1 -4 -4 -2l-1 3q2 17 1 36q0 3 3 2q1 0 2 -2q12 -23 16 -29q-2 16 -2 29q2 1 5 1q0 -3 1 -16.5t0 -19.5q-2 -8 -6 -2q-2 3 -6.5 13t-7.5 14q1 -18 -1 -27zM115 255q6 0 8.5 3t0 6.5t-8.5 3.5h-2v-13h2zM188 237q4 -3 7 0
q9 9 0 26q-3 7 -8 1q-4 -5 -3 -14.5t4 -12.5z" />
    <glyph glyph-name="underscore" unicode="_" 
d="M332 451v-261h-319v261h319zM19 196h307v249h-307v-249zM87 377q-4 7 -7.5 21.5t-3.5 15.5q-1 2 3 3q1 1 2 -1q1 -3 3.5 -15t4.5 -19q2 23 5 33q0 3 4 2l1 -3q-2 -7 -3.5 -20t-2.5 -17q-1 -2 -3 -2.5t-3 2.5zM208 376q-5 1 -3 4l4 1q0 3 0.5 8t0.5 8q-3 0 -4 2q-2 3 2 3
h2l-1 10h-1q-2 0 -3 1q-1 3 2 4q21 0 22 -8q0 -7 -7 -9q3 0 6 -3q5 -4 3 -12t-10 -9q-4 -1 -7 0q-3 -5 -6 0zM56 377q-1 -4 -5 -2q-1 1 -1 3l3 13q-3 0 -3 2l2 2h2q2 4 5 19q4 6 6 1l5 -19h3q3 -1 2 -4q-1 -1 -3 -1h-1q1 -6 4 -12q1 -5 -3 -4q-1 0 -2 2t-2.5 7.5t-1.5 6.5
h-8zM106 377q0 -4 -4 -2q-2 0 -1 3q0 2 1 6t1 7q-2 0 -2 2t2 2h2q4 17 5 19t3 2.5t3 -1.5l5 -19h2q4 -1 2 -4l-2 -1h-1q1 -3 2 -7t1 -5q2 -5 -2 -4q-2 0 -3 2q-3 12 -3 14h-8zM130 375q-2 0 -2 2.5t2 2.5h4v32l-4 -1q-4 0 -2 4q0 2 2 2h4h6h3q2 -2 1 -5h-5v-32h4q1 -2 1 -5
h-14zM155 374q-3 0 -3 4q0 6 -1 18.5t-1 17.5q0 3 3 3t3 -3q0 -8 1 -19t0 -16h12q-1 2 -1 6q1 2 3 1.5t2 -2.5v-8q0 -2 -4 -2h-14zM183 377q-1 -4 -5 -2q-1 1 -1 3l3 13q-3 0 -3 2l2 2h2q1 2 3 9.5t3 9.5t2.5 2.5t2.5 -1.5l5 -19h3q3 -1 2 -4l-3 -1q1 -9 3 -12q1 -5 -3 -4
q-1 0 -2 2q-3 6 -3 14h-9zM241 374q-3 0 -3 4q0 6 -1 18.5t-1 17.5q0 3 3 3t3 -3q0 -8 1 -19t0 -16h12q-1 3 0 6q0 2 2 1.5t2 -2.5v-2v-3v-3q0 -2 -4 -2h-14zM268 374l-3 3v34q-3 1 -2.5 3t2.5 3h17q3 0 3 -3t-3 -3h-12v-11h10q4 1 4 -3q0 -1 -2 -2q-4 -1 -12 -1v-14l13 1
q5 0 2 -4q-1 -2 -3 -2t-6.5 -0.5t-7.5 -0.5zM218 402q3 1 4.5 3t0.5 4.5t-5 2.5h-4l1 -10h3zM65 396q0 1 -0.5 3t-1 4.5t-0.5 4.5h-1q0 -2 -1 -6.5t-1 -5.5h5zM116 396q-1 2 -3 12q0 -1 -1 -6t-2 -6h6zM192 396q0 1 -0.5 3t-1 4.5t-0.5 4.5h-1q0 -2 -1 -6.5t-1 -5.5h5z
M218 380q8 1 8.5 8t-6.5 9h-5l-1 -17h4zM140 304q2 4 0 13q-2 -1 -2 0q-2 0 -2 2t2 2h2v21q0 4 3 3q2 0 2 -2v-22h13q-1 8 -1 22q0 3 3 3q2 -1 2 -3q0 -8 1 -22t1 -15q0 -2 -2 -3q-3 -2 -3 2q0 8 -1 12h-12v-13q-2 -1 -6 0zM243 302q-9 1 -9 18q0 9 -1 22q0 5 4 3q2 0 2 -2
v-21q0 -14 5 -14q9 0 5 35q0 3 3 2l2 -3l1 -10q1 -10 0 -14q0 -16 -12 -16zM50 303q-2 0 -2 2.5t2 2.5h4v32l-4 -1q-2 0 -2 2.5t2 3.5h13q3 0 3 -2q2 -3 -2 -3h-5v-32h5q2 0 2 -2.5t-2 -2.5q-1 -1 -7 -0.5t-7 0.5zM121 304v36q-5 0 -8 -1q-3 0 -1 4q1 2 2 2h20q1 -2 -1 -6
h-7v-34q-2 -1 -5 -1zM175 302q-3 0 -3 3q-1 1 -1 11v23q-3 1 -2 3t3 3h16q3 0 3 -3t-3 -3h-11l-1 -11h11q4 1 4 -3q0 -1 -2 -2q-5 -1 -12 -1v-14l12 1q6 0 3 -4q-2 -2 -4 -2q-1 0 -5.5 -0.5t-7.5 -0.5zM266 302q-3 0 -3 4q0 6 -1 18.5t-1 17.5q0 3 3 3t3 -3q0 -8 1 -19
t0 -16h12q-2 3 0 6q0 2 2 1.5t2 -2.5v-2v-3v-3q0 -2 -4 -2h-14zM293 302q-3 0 -3 4q1 7 0 20t-1 16t2.5 3t2.5 -3q0 -10 1 -20.5t1 -14.5h11v6q0 2 3 1l2 -2v-8q-1 -2 -4 -2h-15zM208 340q0 4 2 4q12 1 17 0q2 0 2 -3q0 -1 -2 -2q-1 -1 -4 1h-10q0 -12 1 -15h10q2 1 2 -1
q1 -3 -1 -4h-11v-15q0 -2 -3 -2.5t-3 2.5v35zM75 305q0 -4 -4 -2l-1 3q2 17 1 36q0 3 3 2q1 0 2 -2q12 -23 16 -29q-2 16 -2 29q2 1 5 1q0 -3 1 -16.5t0 -19.5q-2 -8 -6 -2q-2 3 -6.5 13t-7.5 14q1 -18 -1 -27zM147 231q-6 -1 -9 3.5t-3 11.5q0 3 2.5 3t2.5 -3q0 -5 2 -8
t6 -2t3.5 5.5t-4.5 8.5l-4.5 4.5t-4.5 6.5q-2 8 3 11t10 -3v3q1 2 4 -1v-10v-2l-3 1q-2 6 -4 7q-3 2 -5 0t0 -5l6 -6q6 -7 7 -13q2 -12 -9 -12zM61 233q-3 6 -6.5 20.5t-4.5 16.5t3 3l2 -1q2 -6 4 -17t4 -17h1q1 14 4 33q1 3 4 2l1 -3q0 -2 -2.5 -17t-3.5 -20q0 -4 -4 -2
q-1 0 -2 2zM84 230q-3 0 -3 3q-1 1 -1 11v23q-3 1 -2 3t3 3h16q3 0 3 -3t-3 -3h-12v-11h11q4 1 4 -3q0 -1 -2 -2q-5 -1 -12 -1v-14l12 1q6 0 3 -4q-2 -2 -4 -2q-1 0 -5.5 -0.5t-7.5 -0.5zM131 231q-5 1 -11 9.5t-7 9.5q0 -10 1 -18q0 -2 -3 -2t-3 2q0 32 -1 35
q-3 0 -3.5 2.5t2.5 3.5h7q16 0 17 -11q0 -7 -7 -9q-1 -1 -4 -1q7 -15 13 -16q2 0 1 -4q0 -2 -2 -1zM162 231q-2 0 -2 2.5t2 2.5h3v32l-4 -1q-3 0 -1 4q0 2 2 2h13q2 -2 1 -5h-5v-32h4q2 0 2 -2.5t-2 -2.5h-13zM191 231q-5 -1 -8.5 4.5t-3.5 13.5q0 15 6 21h1l2 1q1 4 4 1
q4 0 6 -5q6 -5 5 -20.5t-12 -15.5zM212 233q-1 -4 -4 -2l-1 3q2 17 1 36q0 3 3 2q1 0 2 -2q12 -23 16 -29q-2 16 -2 29q2 1 5 1q0 -3 1 -16.5t0 -19.5q-2 -8 -6 -2q-2 3 -6.5 13t-7.5 14q1 -18 -1 -27zM115 255q6 0 8.5 3t0 6.5t-8.5 3.5h-2v-13h2zM188 237q4 -3 7 0
q9 9 0 26q-3 7 -8 1q-4 -5 -3 -14.5t4 -12.5z" />
    <glyph glyph-name="grave" unicode="`" horiz-adv-x="169" 
d="M82 821q3 -4 20.5 -28t25.5 -35q9 -14 2.5 -24.5t-19 -10.5t-22.5 9q-36 40 -55 60q-9 12 -0.5 24.5t23 14t25.5 -9.5z" />
    <glyph glyph-name="a" unicode="a" horiz-adv-x="419" 
d="M241 619q17 -49 49 -179.5t39 -151.5q67 0 71 -25q2 -19 -27 -30q-12 -5 -26 -6q25 -99 52 -198q1 -23 -14 -33t-32.5 -2.5t-21.5 27.5q-11 47 -28.5 112t-24.5 93q-24 1 -83.5 -0.5t-65.5 -1.5q-7 -25 -16.5 -66t-19 -75t-21.5 -69q-9 -24 -33 -23q-25 0 -29 25
q-2 13 3 29q14 60 70 266.5t87 306.5q6 17 17 24.5t21.5 6t19.5 -9.5t13 -20zM207 532q-10 -36 -32 -126.5t-31 -117.5q13 0 58 0.5t58 -0.5q-8 23 -25.5 115.5t-27.5 128.5z" />
    <glyph glyph-name="b" unicode="b" horiz-adv-x="460" 
d="M82 644q124 7 191 -17q50 -17 75 -61t16.5 -90.5t-46.5 -71.5q-17 -13 -47 -23q55 -15 86 -43q56 -39 68.5 -103.5t-20.5 -123.5t-99 -84q-27 -10 -58.5 -13t-52 -1t-60.5 7q-7 -21 -22.5 -27.5t-26.5 4.5t-8 32q-43 16 -44 41q-1 19 22 23q14 2 31 -4q12 104 12 250
q-30 8 -41 23t0.5 28t39.5 15q-3 137 -7 179q-31 -1 -45 13t-3 29.5t39 17.5zM153 586q2 -23 9 -176q47 -2 83 10q35 14 48 47.5t-1 65.5t-50 43q-38 12 -89 10zM164 339q-2 -96 -19 -259q77 -18 134 3q44 17 66.5 60.5t13.5 90t-47 72.5q-51 31 -148 33z" />
    <glyph glyph-name="c" unicode="c" horiz-adv-x="430" 
d="M151 627q39 32 82.5 29t78.5 -39q48 -50 68 -122q4 -18 -11 -30t-33 -10t-22 18q-21 60 -41 85t-47 25t-50 -22q-33 -35 -50.5 -127t-5.5 -190t55 -142q25 -31 61 -35.5t55 20.5q33 44 29 127q0 17 16 24t32.5 -1.5t16.5 -27.5q1 -47 -11 -97t-39 -76q-36 -33 -88 -35.5
t-98 32.5q-72 52 -95.5 175.5t5 245t92.5 173.5z" />
    <glyph glyph-name="d" unicode="d" horiz-adv-x="506" 
d="M61 626q66 19 141 15.5t129 -34.5q58 -38 90.5 -101.5t34 -132.5t-16 -136t-56.5 -120t-90 -76q-87 -42 -170 -35q-22 1 -34.5 14t-10.5 31q26 261 -3 514q-19 -4 -34 8.5t-11.5 29t31.5 23.5zM139 570q27 -223 7 -495q12 -2 21.5 -2.5t20.5 2t16.5 3.5t19 7l18 8
t22.5 11q55 30 87.5 96.5t35 136.5t-28 133.5t-90.5 88.5q-76 26 -129 11z" />
    <glyph glyph-name="e" unicode="e" horiz-adv-x="416" 
d="M336 641q21 1 28.5 -14t-2.5 -31t-29 -17q-13 0 -100 1.5t-112 0.5q2 -38 6 -212q94 -4 202 4q30 1 35 -22q5 -22 -18 -35q-9 -4 -21 -5q-63 -7 -197 -7q0 -30 3 -130.5t6 -117.5q48 -3 133 2.5t94 4.5q32 -2 34 -26q2 -23 -23 -33q-11 -5 -24 -4q-35 1 -102.5 -4
t-147.5 -4q-21 0 -27 24q-7 35 -13 283t-9 279q-20 -1 -30 11.5t-1.5 28t32.5 21.5q71 8 283 2z" />
    <glyph glyph-name="f" unicode="f" horiz-adv-x="332" 
d="M54 641q169 8 232 0q22 -3 26.5 -19t-7 -30t-27.5 -11q-36 9 -206 0q3 -40 5 -205q20 0 60.5 -2t61.5 -2.5t55 3.5q22 1 32 -13t3.5 -30t-25.5 -19q-26 -4 -60 -4t-73 1.5t-53 1.5q-5 -137 -1 -281q-1 -21 -18 -28t-33 2t-16 29q4 227 -2 562q1 23 10.5 34t35.5 11z" />
    <glyph glyph-name="g" unicode="g" horiz-adv-x="434" 
d="M321 611q57 -51 49 -146q-1 -16 -17.5 -24t-31.5 -2t-15 24q1 18 1.5 34.5t-6 34t-20.5 28.5q-32 27 -68.5 21t-62.5 -35q-37 -37 -51 -127.5t-4 -182.5t38 -138q26 -40 69 -44.5t84 21.5q61 43 50 193h-31t-37.5 0.5t-25.5 0.5q-17 0 -24 14.5t-1 29.5t20 15q90 0 123 2
q17 1 29.5 -11.5t10.5 -32.5v-36.5t-0.5 -39t-2 -34t-4.5 -37t-9 -31t-14 -32.5t-20 -25t-27 -24q-61 -42 -128.5 -36t-106.5 62q-45 66 -60 177.5t7.5 218.5t79.5 155q44 40 103 42t103 -35z" />
    <glyph glyph-name="h" unicode="h" horiz-adv-x="450" 
d="M368 620q0 -125 11.5 -297.5t26.5 -281.5q3 -24 -13 -36t-34 -3.5t-20 32.5q-2 36 -12 140t-11 114q-20 1 -81 1.5t-84 1.5q8 -164 7 -259q-1 -26 -28 -34q-27 -9 -36 12q-3 6 -3 15q1 121 0.5 136t-8.5 132q-14 2 -24 2q-20 3 -27 15.5t-0.5 25t20.5 17.5h28q0 4 -9 256
q2 21 18.5 32t32.5 4t16 -30q3 -129 9 -261q20 -1 83 -2.5t81 -2.5q-8 125 -8 266q0 20 16.5 30t32.5 3.5t16 -28.5z" />
    <glyph glyph-name="i" unicode="i" horiz-adv-x="306" 
d="M251 644q25 -1 31 -15.5t-5 -29t-29 -14.5h-70q8 -239 8 -521q62 -3 79 -1q21 1 23 -22q1 -26 -20 -37q-6 -4 -13 -4q-19 -1 -93.5 1t-113.5 0q-20 -2 -23 22q-2 27 17 39l10 3h24.5h24.5h17q5 270 -10 517q-16 1 -68 -3q-17 0 -22.5 15t2.5 31t24 17q60 4 207 2z" />
    <glyph glyph-name="j" unicode="j" horiz-adv-x="347" 
d="M300 618q0 -3 4.5 -67.5t5 -91.5t2.5 -91t-1.5 -101.5t-9 -86.5t-18 -83t-30.5 -55q-31 -37 -86 -41.5t-97 26.5q-33 26 -43 66.5t-13 112.5q0 19 17.5 25.5t34.5 -2t17 -27.5q4 -91 32 -118q18 -21 45 -19t46 29q22 33 31 111.5t8 141t-6.5 160.5t-5.5 106
q-1 21 14.5 32t32.5 4t20 -31z" />
    <glyph glyph-name="k" unicode="k" horiz-adv-x="381" 
d="M90 671q10 -64 15 -160.5t3 -156.5q160 36 154 264q-1 16 16 26.5t34.5 6t18.5 -25.5q3 -116 -25 -182t-90 -107q98 -134 146 -291q6 -21 -8 -34t-32.5 -9.5t-22.5 22.5q-35 145 -137 276q-1 0 -54 -13q-4 -178 -4 -248q0 -26 -26 -37q-27 -11 -39 10q-4 8 -4 19
q0 35 4.5 171.5t2 245.5t-17.5 200q-3 28 24 42q26 14 38 -7q3 -5 4 -12z" />
    <glyph glyph-name="l" unicode="l" horiz-adv-x="368" 
d="M116 609q-4 -95 -0.5 -280.5t-3.5 -267.5q42 3 105.5 0t71.5 -3q0 2 -2 21t-2.5 33t2.5 31q2 14 18.5 20.5t31.5 -1t13 -25.5q-3 -14 -1.5 -55t-3.5 -59q-4 -13 -15 -20.5t-23 -6.5q-171 7 -223 2q-15 0 -24 4t-12.5 12.5t-4 15t-0.5 17.5q9 74 5.5 266.5t-0.5 295.5
q1 23 18 32t33.5 0t16.5 -32z" />
    <glyph glyph-name="m" unicode="m" horiz-adv-x="586" 
d="M394 627q8 23 34 20.5t30 -28.5q12 -60 23.5 -176.5t27.5 -221.5t46 -179q6 -19 -7.5 -32t-32 -11.5t-24.5 17.5q-22 52 -35.5 145t-24.5 226t-12 146q-13 -46 -46 -239t-61 -250q-9 -24 -34 -26.5t-34 22.5q-27 76 -50.5 247.5t-44.5 251.5q-23 -312 -64 -509
q-6 -21 -23.5 -27.5t-31.5 4t-10 31.5q25 91 47 287.5t46 284.5q8 31 36.5 34.5t33.5 -26.5q40 -174 97 -503q9 42 32 161t41.5 200t40.5 151z" />
    <glyph glyph-name="n" unicode="n" horiz-adv-x="386" 
d="M74 631q58 -115 131.5 -279t91.5 -244q-2 34 -16.5 229.5t-15.5 274.5q0 22 16.5 29t33.5 -1.5t17 -25.5q1 -72 6.5 -211.5t7 -209.5t-1.5 -169q-1 -22 -24 -27t-34 21q-17 38 -95.5 227.5t-121.5 282.5q13 -119 15.5 -273t-3.5 -231q-7 -31 -34 -26t-27 32q6 272 -3 584
q0 24 22.5 31t34.5 -14z" />
    <glyph glyph-name="o" unicode="o" horiz-adv-x="418" 
d="M218 648q64 -35 100 -87q74 -101 66.5 -263t-87.5 -254q-34 -44 -90 -47.5t-93 34.5q-51 44 -74.5 135t-14.5 193.5t47 180.5q27 49 86 87q-1 21 20 27t40 -6zM274 497q-27 57 -52 74.5t-49 -2.5t-48 -79q-40 -84 -36 -201.5t53 -188.5q25 -44 59.5 -43t58.5 46
q52 70 55.5 188.5t-41.5 205.5z" />
    <glyph glyph-name="p" unicode="p" horiz-adv-x="416" 
d="M62 641q70 14 139.5 8.5t116.5 -41.5q46 -32 64.5 -96.5t3.5 -133.5t-60 -112q-64 -54 -195 -54q3 -114 13 -170q3 -24 -10.5 -36t-30.5 -5t-21 29q-12 62 -15 180q-26 1 -36 16t0.5 29.5t33.5 16.5q0 34 -4 154t-3 155q-24 0 -33.5 13.5t1 28t36.5 18.5zM119 581
q0 -11 3.5 -136.5t3.5 -171.5q101 -6 145 30q57 49 55 135t-59 130q-46 33 -148 13z" />
    <glyph glyph-name="q" unicode="q" horiz-adv-x="447" 
d="M318 598q52 -59 67.5 -172t-1.5 -213.5t-51 -142.5q10 -16 25 -32q9 -15 2 -30.5t-20 -17t-25 12.5q-14 20 -21 29q-46 -34 -100 -28t-95 51q-49 52 -68 162.5t-0.5 220.5t66.5 160q49 51 107.5 52.5t113.5 -52.5zM267 552q-63 84 -133 -10q-48 -61 -45.5 -214.5
t55.5 -228.5q24 -29 56.5 -33.5t54.5 16.5q-23 29 -32 44q-6 14 0.5 27.5t18 15.5t22.5 -11q16 -24 25 -34q26 40 34.5 123t-6.5 170.5t-50 134.5z" />
    <glyph glyph-name="r" unicode="r" horiz-adv-x="390" 
d="M84 644q114 11 182 -44q44 -38 57.5 -91t-1 -98t-50 -78.5t-82.5 -37.5q19 -23 41.5 -76t52 -98.5t75.5 -68.5q20 -8 11 -29q-8 -23 -33 -22q-5 1 -9 2q-38 10 -70 47t-50.5 77.5t-41 86t-41.5 64.5q-9 10 -39 10q6 -183 15 -259q3 -18 -14 -26.5t-36 -1.5t-19 26
q-18 405 -11 562q1 20 11.5 32.5t22 16.5t29.5 6zM90 579q-4 -41 -2 -230q82 -19 124 2q49 26 49.5 96.5t-47.5 108.5q-46 33 -124 23z" />
    <glyph glyph-name="s" unicode="s" horiz-adv-x="375" 
d="M313 635q2 -19 -3 -85.5t0 -108.5q3 -18 -19 -21q-24 -3 -32 15q-2 4 -2 9q-9 84 -66 124q-25 16 -52.5 16t-36.5 -30q-12 -43 4.5 -78.5t45 -58.5t74 -61t74.5 -73q29 -33 38.5 -82.5t-6 -99.5t-55.5 -79q-36 -26 -91 -23t-96 34q-72 58 -62 206q1 20 18 29.5t32 1.5
t14 -28q-9 -121 42 -161q53 -42 100 -3q40 35 38.5 89.5t-38.5 102.5q-19 25 -80.5 72.5t-84.5 81.5q-37 50 -40.5 102t24.5 89q20 30 67.5 33.5t80.5 -20.5q40 -29 58 -72q0 36 -5 73q-1 13 12.5 21t29 4t17.5 -19z" />
    <glyph glyph-name="t" unicode="t" horiz-adv-x="372" 
d="M39 651q46 -5 158 -3t144 -2q23 1 22 -24q0 -26 -22 -37l-14 -4q-3 0 -25.5 1t-46.5 1t-44 -2q10 -72 10.5 -175.5t-3.5 -221.5t-4 -149q0 -24 -28 -34q-28 -9 -39 9q-3 6 -3 14q0 47 4.5 174.5t5 202t-9.5 182.5q-103 0 -121 1q-25 1 -23 27t23 37q8 4 16 3z" />
    <glyph glyph-name="u" unicode="u" horiz-adv-x="406" 
d="M293 623q0 17 17.5 21.5t34.5 -4t17 -25.5q2 -39 6.5 -110.5t7 -115t1.5 -104t-7.5 -100.5t-23 -80t-42.5 -65q-45 -43 -99 -41t-97 44q-29 28 -47 79t-23.5 121t-7 125t0 134t1.5 105q0 20 17.5 28.5t34.5 0.5t17 -27q-10 -421 43 -505q26 -34 59.5 -35t66.5 41
q22 40 30.5 118.5t6.5 141.5t-8 151.5t-6 101.5z" />
    <glyph glyph-name="v" unicode="v" horiz-adv-x="417" 
d="M374 609q-12 -95 -75 -298t-78 -271q-4 -27 -19 -36.5t-30.5 0.5t-22.5 33q-60 210 -130 578q-2 19 13.5 29t33.5 4.5t20 -24.5q5 -29 43 -214t55 -299q10 58 64.5 248t58.5 265q2 27 29 27q25 0 35 -22q4 -9 3 -20z" />
    <glyph glyph-name="w" unicode="w" horiz-adv-x="640" 
d="M75 629q18 -44 32 -91.5t24.5 -115t15 -99.5t13.5 -122t11 -106q101 474 109 520q6 31 32 32t35 -32q23 -67 55.5 -238t41.5 -270q78 439 94 509q8 30 37 32q25 1 32 -19q3 -10 0 -21q-16 -69 -63.5 -283t-67.5 -299q-4 -21 -19.5 -28t-30.5 2.5t-19 31.5
q-13 82 -45 242.5t-47 260.5q-7 -50 -16 -101t-16.5 -87t-21 -89.5t-20 -77.5t-23 -82t-21.5 -75q-5 -16 -20 -22t-28.5 1.5t-16.5 25.5q-2 13 -27 165.5t-47 255.5t-44 153q-8 19 4.5 34t30.5 13.5t26 -20.5z" />
    <glyph glyph-name="x" unicode="x" horiz-adv-x="388" 
d="M64 636q52 -78 133 -239q65 199 71 222q13 32 44 31q25 0 30 -21q2 -9 -2 -19q-52 -130 -101 -274q21 -42 63.5 -142.5t67.5 -148.5q9 -18 -3.5 -32t-30 -13t-28.5 16q-29 54 -109 248q-3 -7 -36 -109t-59 -138q-14 -26 -45 -22q-25 3 -26 22q0 8 6 18q3 7 20.5 45
t27.5 61t25 59.5t27 69t20 61.5q-17 42 -66.5 128t-85.5 137q-9 17 1.5 34t27 18.5t28.5 -12.5z" />
    <glyph glyph-name="y" unicode="y" horiz-adv-x="395" 
d="M277 627q1 24 27 23q27 -1 37 -22q2 -7 2 -14q-6 -46 -14.5 -121t-12 -104t-9.5 -67.5t-12 -67.5q34 -16 28 -41.5t-43 -23.5q-26 -135 -83 -171q-30 -20 -65.5 -19t-58.5 23q-21 22 -28 56t-9 89q-1 24 24 27q26 2 38 -19q4 -7 4 -16q-2 -57 10 -82q9 -18 27.5 -18
t33.5 16q17 20 30.5 58.5t18.5 75.5q-28 18 -50.5 39t-40.5 49t-30 49.5t-25 60.5t-19.5 60t-20 69.5t-19.5 69.5q-4 21 9.5 35t31 11.5t24.5 -23.5q2 -7 12 -43.5t14 -50.5t14.5 -48.5t17.5 -52t19 -45.5t22.5 -45t24 -35t28.5 -29q13 68 25 189.5t18 157.5z" />
    <glyph glyph-name="z" unicode="z" horiz-adv-x="360" 
d="M293 650q24 0 31.5 -16t-3.5 -32q-23 -54 -73.5 -180t-88 -210.5t-72.5 -145.5q46 -5 226 7q22 1 24 -23q3 -28 -19 -41q-6 -3 -13 -4q-175 -8 -259 -2q-26 1 -36 14t-5.5 29.5t18.5 32.5q113 173 231 511q-43 2 -109 -0.5t-94 -1.5q-14 0 -20.5 15t0 30.5t25.5 15.5
q47 -2 115 1.5t122 -0.5z" />
    <glyph glyph-name="braceleft" unicode="{" 
d="M332 451v-261h-319v261h319zM19 196h307v249h-307v-249zM87 377q-4 7 -7.5 21.5t-3.5 15.5q-1 2 3 3q1 1 2 -1q1 -3 3.5 -15t4.5 -19q2 23 5 33q0 3 4 2l1 -3q-2 -7 -3.5 -20t-2.5 -17q-1 -2 -3 -2.5t-3 2.5zM208 376q-5 1 -3 4l4 1q0 3 0.5 8t0.5 8q-3 0 -4 2q-2 3 2 3
h2l-1 10h-1q-2 0 -3 1q-1 3 2 4q21 0 22 -8q0 -7 -7 -9q3 0 6 -3q5 -4 3 -12t-10 -9q-4 -1 -7 0q-3 -5 -6 0zM56 377q-1 -4 -5 -2q-1 1 -1 3l3 13q-3 0 -3 2l2 2h2q2 4 5 19q4 6 6 1l5 -19h3q3 -1 2 -4q-1 -1 -3 -1h-1q1 -6 4 -12q1 -5 -3 -4q-1 0 -2 2t-2.5 7.5t-1.5 6.5
h-8zM106 377q0 -4 -4 -2q-2 0 -1 3q0 2 1 6t1 7q-2 0 -2 2t2 2h2q4 17 5 19t3 2.5t3 -1.5l5 -19h2q4 -1 2 -4l-2 -1h-1q1 -3 2 -7t1 -5q2 -5 -2 -4q-2 0 -3 2q-3 12 -3 14h-8zM130 375q-2 0 -2 2.5t2 2.5h4v32l-4 -1q-4 0 -2 4q0 2 2 2h4h6h3q2 -2 1 -5h-5v-32h4q1 -2 1 -5
h-14zM155 374q-3 0 -3 4q0 6 -1 18.5t-1 17.5q0 3 3 3t3 -3q0 -8 1 -19t0 -16h12q-1 2 -1 6q1 2 3 1.5t2 -2.5v-8q0 -2 -4 -2h-14zM183 377q-1 -4 -5 -2q-1 1 -1 3l3 13q-3 0 -3 2l2 2h2q1 2 3 9.5t3 9.5t2.5 2.5t2.5 -1.5l5 -19h3q3 -1 2 -4l-3 -1q1 -9 3 -12q1 -5 -3 -4
q-1 0 -2 2q-3 6 -3 14h-9zM241 374q-3 0 -3 4q0 6 -1 18.5t-1 17.5q0 3 3 3t3 -3q0 -8 1 -19t0 -16h12q-1 3 0 6q0 2 2 1.5t2 -2.5v-2v-3v-3q0 -2 -4 -2h-14zM268 374l-3 3v34q-3 1 -2.5 3t2.5 3h17q3 0 3 -3t-3 -3h-12v-11h10q4 1 4 -3q0 -1 -2 -2q-4 -1 -12 -1v-14l13 1
q5 0 2 -4q-1 -2 -3 -2t-6.5 -0.5t-7.5 -0.5zM218 402q3 1 4.5 3t0.5 4.5t-5 2.5h-4l1 -10h3zM65 396q0 1 -0.5 3t-1 4.5t-0.5 4.5h-1q0 -2 -1 -6.5t-1 -5.5h5zM116 396q-1 2 -3 12q0 -1 -1 -6t-2 -6h6zM192 396q0 1 -0.5 3t-1 4.5t-0.5 4.5h-1q0 -2 -1 -6.5t-1 -5.5h5z
M218 380q8 1 8.5 8t-6.5 9h-5l-1 -17h4zM140 304q2 4 0 13q-2 -1 -2 0q-2 0 -2 2t2 2h2v21q0 4 3 3q2 0 2 -2v-22h13q-1 8 -1 22q0 3 3 3q2 -1 2 -3q0 -8 1 -22t1 -15q0 -2 -2 -3q-3 -2 -3 2q0 8 -1 12h-12v-13q-2 -1 -6 0zM243 302q-9 1 -9 18q0 9 -1 22q0 5 4 3q2 0 2 -2
v-21q0 -14 5 -14q9 0 5 35q0 3 3 2l2 -3l1 -10q1 -10 0 -14q0 -16 -12 -16zM50 303q-2 0 -2 2.5t2 2.5h4v32l-4 -1q-2 0 -2 2.5t2 3.5h13q3 0 3 -2q2 -3 -2 -3h-5v-32h5q2 0 2 -2.5t-2 -2.5q-1 -1 -7 -0.5t-7 0.5zM121 304v36q-5 0 -8 -1q-3 0 -1 4q1 2 2 2h20q1 -2 -1 -6
h-7v-34q-2 -1 -5 -1zM175 302q-3 0 -3 3q-1 1 -1 11v23q-3 1 -2 3t3 3h16q3 0 3 -3t-3 -3h-11l-1 -11h11q4 1 4 -3q0 -1 -2 -2q-5 -1 -12 -1v-14l12 1q6 0 3 -4q-2 -2 -4 -2q-1 0 -5.5 -0.5t-7.5 -0.5zM266 302q-3 0 -3 4q0 6 -1 18.5t-1 17.5q0 3 3 3t3 -3q0 -8 1 -19
t0 -16h12q-2 3 0 6q0 2 2 1.5t2 -2.5v-2v-3v-3q0 -2 -4 -2h-14zM293 302q-3 0 -3 4q1 7 0 20t-1 16t2.5 3t2.5 -3q0 -10 1 -20.5t1 -14.5h11v6q0 2 3 1l2 -2v-8q-1 -2 -4 -2h-15zM208 340q0 4 2 4q12 1 17 0q2 0 2 -3q0 -1 -2 -2q-1 -1 -4 1h-10q0 -12 1 -15h10q2 1 2 -1
q1 -3 -1 -4h-11v-15q0 -2 -3 -2.5t-3 2.5v35zM75 305q0 -4 -4 -2l-1 3q2 17 1 36q0 3 3 2q1 0 2 -2q12 -23 16 -29q-2 16 -2 29q2 1 5 1q0 -3 1 -16.5t0 -19.5q-2 -8 -6 -2q-2 3 -6.5 13t-7.5 14q1 -18 -1 -27zM147 231q-6 -1 -9 3.5t-3 11.5q0 3 2.5 3t2.5 -3q0 -5 2 -8
t6 -2t3.5 5.5t-4.5 8.5l-4.5 4.5t-4.5 6.5q-2 8 3 11t10 -3v3q1 2 4 -1v-10v-2l-3 1q-2 6 -4 7q-3 2 -5 0t0 -5l6 -6q6 -7 7 -13q2 -12 -9 -12zM61 233q-3 6 -6.5 20.5t-4.5 16.5t3 3l2 -1q2 -6 4 -17t4 -17h1q1 14 4 33q1 3 4 2l1 -3q0 -2 -2.5 -17t-3.5 -20q0 -4 -4 -2
q-1 0 -2 2zM84 230q-3 0 -3 3q-1 1 -1 11v23q-3 1 -2 3t3 3h16q3 0 3 -3t-3 -3h-12v-11h11q4 1 4 -3q0 -1 -2 -2q-5 -1 -12 -1v-14l12 1q6 0 3 -4q-2 -2 -4 -2q-1 0 -5.5 -0.5t-7.5 -0.5zM131 231q-5 1 -11 9.5t-7 9.5q0 -10 1 -18q0 -2 -3 -2t-3 2q0 32 -1 35
q-3 0 -3.5 2.5t2.5 3.5h7q16 0 17 -11q0 -7 -7 -9q-1 -1 -4 -1q7 -15 13 -16q2 0 1 -4q0 -2 -2 -1zM162 231q-2 0 -2 2.5t2 2.5h3v32l-4 -1q-3 0 -1 4q0 2 2 2h13q2 -2 1 -5h-5v-32h4q2 0 2 -2.5t-2 -2.5h-13zM191 231q-5 -1 -8.5 4.5t-3.5 13.5q0 15 6 21h1l2 1q1 4 4 1
q4 0 6 -5q6 -5 5 -20.5t-12 -15.5zM212 233q-1 -4 -4 -2l-1 3q2 17 1 36q0 3 3 2q1 0 2 -2q12 -23 16 -29q-2 16 -2 29q2 1 5 1q0 -3 1 -16.5t0 -19.5q-2 -8 -6 -2q-2 3 -6.5 13t-7.5 14q1 -18 -1 -27zM115 255q6 0 8.5 3t0 6.5t-8.5 3.5h-2v-13h2zM188 237q4 -3 7 0
q9 9 0 26q-3 7 -8 1q-4 -5 -3 -14.5t4 -12.5z" />
    <glyph glyph-name="bar" unicode="|" 
d="M332 451v-261h-319v261h319zM19 196h307v249h-307v-249zM87 377q-4 7 -7.5 21.5t-3.5 15.5q-1 2 3 3q1 1 2 -1q1 -3 3.5 -15t4.5 -19q2 23 5 33q0 3 4 2l1 -3q-2 -7 -3.5 -20t-2.5 -17q-1 -2 -3 -2.5t-3 2.5zM208 376q-5 1 -3 4l4 1q0 3 0.5 8t0.5 8q-3 0 -4 2q-2 3 2 3
h2l-1 10h-1q-2 0 -3 1q-1 3 2 4q21 0 22 -8q0 -7 -7 -9q3 0 6 -3q5 -4 3 -12t-10 -9q-4 -1 -7 0q-3 -5 -6 0zM56 377q-1 -4 -5 -2q-1 1 -1 3l3 13q-3 0 -3 2l2 2h2q2 4 5 19q4 6 6 1l5 -19h3q3 -1 2 -4q-1 -1 -3 -1h-1q1 -6 4 -12q1 -5 -3 -4q-1 0 -2 2t-2.5 7.5t-1.5 6.5
h-8zM106 377q0 -4 -4 -2q-2 0 -1 3q0 2 1 6t1 7q-2 0 -2 2t2 2h2q4 17 5 19t3 2.5t3 -1.5l5 -19h2q4 -1 2 -4l-2 -1h-1q1 -3 2 -7t1 -5q2 -5 -2 -4q-2 0 -3 2q-3 12 -3 14h-8zM130 375q-2 0 -2 2.5t2 2.5h4v32l-4 -1q-4 0 -2 4q0 2 2 2h4h6h3q2 -2 1 -5h-5v-32h4q1 -2 1 -5
h-14zM155 374q-3 0 -3 4q0 6 -1 18.5t-1 17.5q0 3 3 3t3 -3q0 -8 1 -19t0 -16h12q-1 2 -1 6q1 2 3 1.5t2 -2.5v-8q0 -2 -4 -2h-14zM183 377q-1 -4 -5 -2q-1 1 -1 3l3 13q-3 0 -3 2l2 2h2q1 2 3 9.5t3 9.5t2.5 2.5t2.5 -1.5l5 -19h3q3 -1 2 -4l-3 -1q1 -9 3 -12q1 -5 -3 -4
q-1 0 -2 2q-3 6 -3 14h-9zM241 374q-3 0 -3 4q0 6 -1 18.5t-1 17.5q0 3 3 3t3 -3q0 -8 1 -19t0 -16h12q-1 3 0 6q0 2 2 1.5t2 -2.5v-2v-3v-3q0 -2 -4 -2h-14zM268 374l-3 3v34q-3 1 -2.5 3t2.5 3h17q3 0 3 -3t-3 -3h-12v-11h10q4 1 4 -3q0 -1 -2 -2q-4 -1 -12 -1v-14l13 1
q5 0 2 -4q-1 -2 -3 -2t-6.5 -0.5t-7.5 -0.5zM218 402q3 1 4.5 3t0.5 4.5t-5 2.5h-4l1 -10h3zM65 396q0 1 -0.5 3t-1 4.5t-0.5 4.5h-1q0 -2 -1 -6.5t-1 -5.5h5zM116 396q-1 2 -3 12q0 -1 -1 -6t-2 -6h6zM192 396q0 1 -0.5 3t-1 4.5t-0.5 4.5h-1q0 -2 -1 -6.5t-1 -5.5h5z
M218 380q8 1 8.5 8t-6.5 9h-5l-1 -17h4zM140 304q2 4 0 13q-2 -1 -2 0q-2 0 -2 2t2 2h2v21q0 4 3 3q2 0 2 -2v-22h13q-1 8 -1 22q0 3 3 3q2 -1 2 -3q0 -8 1 -22t1 -15q0 -2 -2 -3q-3 -2 -3 2q0 8 -1 12h-12v-13q-2 -1 -6 0zM243 302q-9 1 -9 18q0 9 -1 22q0 5 4 3q2 0 2 -2
v-21q0 -14 5 -14q9 0 5 35q0 3 3 2l2 -3l1 -10q1 -10 0 -14q0 -16 -12 -16zM50 303q-2 0 -2 2.5t2 2.5h4v32l-4 -1q-2 0 -2 2.5t2 3.5h13q3 0 3 -2q2 -3 -2 -3h-5v-32h5q2 0 2 -2.5t-2 -2.5q-1 -1 -7 -0.5t-7 0.5zM121 304v36q-5 0 -8 -1q-3 0 -1 4q1 2 2 2h20q1 -2 -1 -6
h-7v-34q-2 -1 -5 -1zM175 302q-3 0 -3 3q-1 1 -1 11v23q-3 1 -2 3t3 3h16q3 0 3 -3t-3 -3h-11l-1 -11h11q4 1 4 -3q0 -1 -2 -2q-5 -1 -12 -1v-14l12 1q6 0 3 -4q-2 -2 -4 -2q-1 0 -5.5 -0.5t-7.5 -0.5zM266 302q-3 0 -3 4q0 6 -1 18.5t-1 17.5q0 3 3 3t3 -3q0 -8 1 -19
t0 -16h12q-2 3 0 6q0 2 2 1.5t2 -2.5v-2v-3v-3q0 -2 -4 -2h-14zM293 302q-3 0 -3 4q1 7 0 20t-1 16t2.5 3t2.5 -3q0 -10 1 -20.5t1 -14.5h11v6q0 2 3 1l2 -2v-8q-1 -2 -4 -2h-15zM208 340q0 4 2 4q12 1 17 0q2 0 2 -3q0 -1 -2 -2q-1 -1 -4 1h-10q0 -12 1 -15h10q2 1 2 -1
q1 -3 -1 -4h-11v-15q0 -2 -3 -2.5t-3 2.5v35zM75 305q0 -4 -4 -2l-1 3q2 17 1 36q0 3 3 2q1 0 2 -2q12 -23 16 -29q-2 16 -2 29q2 1 5 1q0 -3 1 -16.5t0 -19.5q-2 -8 -6 -2q-2 3 -6.5 13t-7.5 14q1 -18 -1 -27zM147 231q-6 -1 -9 3.5t-3 11.5q0 3 2.5 3t2.5 -3q0 -5 2 -8
t6 -2t3.5 5.5t-4.5 8.5l-4.5 4.5t-4.5 6.5q-2 8 3 11t10 -3v3q1 2 4 -1v-10v-2l-3 1q-2 6 -4 7q-3 2 -5 0t0 -5l6 -6q6 -7 7 -13q2 -12 -9 -12zM61 233q-3 6 -6.5 20.5t-4.5 16.5t3 3l2 -1q2 -6 4 -17t4 -17h1q1 14 4 33q1 3 4 2l1 -3q0 -2 -2.5 -17t-3.5 -20q0 -4 -4 -2
q-1 0 -2 2zM84 230q-3 0 -3 3q-1 1 -1 11v23q-3 1 -2 3t3 3h16q3 0 3 -3t-3 -3h-12v-11h11q4 1 4 -3q0 -1 -2 -2q-5 -1 -12 -1v-14l12 1q6 0 3 -4q-2 -2 -4 -2q-1 0 -5.5 -0.5t-7.5 -0.5zM131 231q-5 1 -11 9.5t-7 9.5q0 -10 1 -18q0 -2 -3 -2t-3 2q0 32 -1 35
q-3 0 -3.5 2.5t2.5 3.5h7q16 0 17 -11q0 -7 -7 -9q-1 -1 -4 -1q7 -15 13 -16q2 0 1 -4q0 -2 -2 -1zM162 231q-2 0 -2 2.5t2 2.5h3v32l-4 -1q-3 0 -1 4q0 2 2 2h13q2 -2 1 -5h-5v-32h4q2 0 2 -2.5t-2 -2.5h-13zM191 231q-5 -1 -8.5 4.5t-3.5 13.5q0 15 6 21h1l2 1q1 4 4 1
q4 0 6 -5q6 -5 5 -20.5t-12 -15.5zM212 233q-1 -4 -4 -2l-1 3q2 17 1 36q0 3 3 2q1 0 2 -2q12 -23 16 -29q-2 16 -2 29q2 1 5 1q0 -3 1 -16.5t0 -19.5q-2 -8 -6 -2q-2 3 -6.5 13t-7.5 14q1 -18 -1 -27zM115 255q6 0 8.5 3t0 6.5t-8.5 3.5h-2v-13h2zM188 237q4 -3 7 0
q9 9 0 26q-3 7 -8 1q-4 -5 -3 -14.5t4 -12.5z" />
    <glyph glyph-name="braceright" unicode="}" 
d="M332 451v-261h-319v261h319zM19 196h307v249h-307v-249zM87 377q-4 7 -7.5 21.5t-3.5 15.5q-1 2 3 3q1 1 2 -1q1 -3 3.5 -15t4.5 -19q2 23 5 33q0 3 4 2l1 -3q-2 -7 -3.5 -20t-2.5 -17q-1 -2 -3 -2.5t-3 2.5zM208 376q-5 1 -3 4l4 1q0 3 0.5 8t0.5 8q-3 0 -4 2q-2 3 2 3
h2l-1 10h-1q-2 0 -3 1q-1 3 2 4q21 0 22 -8q0 -7 -7 -9q3 0 6 -3q5 -4 3 -12t-10 -9q-4 -1 -7 0q-3 -5 -6 0zM56 377q-1 -4 -5 -2q-1 1 -1 3l3 13q-3 0 -3 2l2 2h2q2 4 5 19q4 6 6 1l5 -19h3q3 -1 2 -4q-1 -1 -3 -1h-1q1 -6 4 -12q1 -5 -3 -4q-1 0 -2 2t-2.5 7.5t-1.5 6.5
h-8zM106 377q0 -4 -4 -2q-2 0 -1 3q0 2 1 6t1 7q-2 0 -2 2t2 2h2q4 17 5 19t3 2.5t3 -1.5l5 -19h2q4 -1 2 -4l-2 -1h-1q1 -3 2 -7t1 -5q2 -5 -2 -4q-2 0 -3 2q-3 12 -3 14h-8zM130 375q-2 0 -2 2.5t2 2.5h4v32l-4 -1q-4 0 -2 4q0 2 2 2h4h6h3q2 -2 1 -5h-5v-32h4q1 -2 1 -5
h-14zM155 374q-3 0 -3 4q0 6 -1 18.5t-1 17.5q0 3 3 3t3 -3q0 -8 1 -19t0 -16h12q-1 2 -1 6q1 2 3 1.5t2 -2.5v-8q0 -2 -4 -2h-14zM183 377q-1 -4 -5 -2q-1 1 -1 3l3 13q-3 0 -3 2l2 2h2q1 2 3 9.5t3 9.5t2.5 2.5t2.5 -1.5l5 -19h3q3 -1 2 -4l-3 -1q1 -9 3 -12q1 -5 -3 -4
q-1 0 -2 2q-3 6 -3 14h-9zM241 374q-3 0 -3 4q0 6 -1 18.5t-1 17.5q0 3 3 3t3 -3q0 -8 1 -19t0 -16h12q-1 3 0 6q0 2 2 1.5t2 -2.5v-2v-3v-3q0 -2 -4 -2h-14zM268 374l-3 3v34q-3 1 -2.5 3t2.5 3h17q3 0 3 -3t-3 -3h-12v-11h10q4 1 4 -3q0 -1 -2 -2q-4 -1 -12 -1v-14l13 1
q5 0 2 -4q-1 -2 -3 -2t-6.5 -0.5t-7.5 -0.5zM218 402q3 1 4.5 3t0.5 4.5t-5 2.5h-4l1 -10h3zM65 396q0 1 -0.5 3t-1 4.5t-0.5 4.5h-1q0 -2 -1 -6.5t-1 -5.5h5zM116 396q-1 2 -3 12q0 -1 -1 -6t-2 -6h6zM192 396q0 1 -0.5 3t-1 4.5t-0.5 4.5h-1q0 -2 -1 -6.5t-1 -5.5h5z
M218 380q8 1 8.5 8t-6.5 9h-5l-1 -17h4zM140 304q2 4 0 13q-2 -1 -2 0q-2 0 -2 2t2 2h2v21q0 4 3 3q2 0 2 -2v-22h13q-1 8 -1 22q0 3 3 3q2 -1 2 -3q0 -8 1 -22t1 -15q0 -2 -2 -3q-3 -2 -3 2q0 8 -1 12h-12v-13q-2 -1 -6 0zM243 302q-9 1 -9 18q0 9 -1 22q0 5 4 3q2 0 2 -2
v-21q0 -14 5 -14q9 0 5 35q0 3 3 2l2 -3l1 -10q1 -10 0 -14q0 -16 -12 -16zM50 303q-2 0 -2 2.5t2 2.5h4v32l-4 -1q-2 0 -2 2.5t2 3.5h13q3 0 3 -2q2 -3 -2 -3h-5v-32h5q2 0 2 -2.5t-2 -2.5q-1 -1 -7 -0.5t-7 0.5zM121 304v36q-5 0 -8 -1q-3 0 -1 4q1 2 2 2h20q1 -2 -1 -6
h-7v-34q-2 -1 -5 -1zM175 302q-3 0 -3 3q-1 1 -1 11v23q-3 1 -2 3t3 3h16q3 0 3 -3t-3 -3h-11l-1 -11h11q4 1 4 -3q0 -1 -2 -2q-5 -1 -12 -1v-14l12 1q6 0 3 -4q-2 -2 -4 -2q-1 0 -5.5 -0.5t-7.5 -0.5zM266 302q-3 0 -3 4q0 6 -1 18.5t-1 17.5q0 3 3 3t3 -3q0 -8 1 -19
t0 -16h12q-2 3 0 6q0 2 2 1.5t2 -2.5v-2v-3v-3q0 -2 -4 -2h-14zM293 302q-3 0 -3 4q1 7 0 20t-1 16t2.5 3t2.5 -3q0 -10 1 -20.5t1 -14.5h11v6q0 2 3 1l2 -2v-8q-1 -2 -4 -2h-15zM208 340q0 4 2 4q12 1 17 0q2 0 2 -3q0 -1 -2 -2q-1 -1 -4 1h-10q0 -12 1 -15h10q2 1 2 -1
q1 -3 -1 -4h-11v-15q0 -2 -3 -2.5t-3 2.5v35zM75 305q0 -4 -4 -2l-1 3q2 17 1 36q0 3 3 2q1 0 2 -2q12 -23 16 -29q-2 16 -2 29q2 1 5 1q0 -3 1 -16.5t0 -19.5q-2 -8 -6 -2q-2 3 -6.5 13t-7.5 14q1 -18 -1 -27zM147 231q-6 -1 -9 3.5t-3 11.5q0 3 2.5 3t2.5 -3q0 -5 2 -8
t6 -2t3.5 5.5t-4.5 8.5l-4.5 4.5t-4.5 6.5q-2 8 3 11t10 -3v3q1 2 4 -1v-10v-2l-3 1q-2 6 -4 7q-3 2 -5 0t0 -5l6 -6q6 -7 7 -13q2 -12 -9 -12zM61 233q-3 6 -6.5 20.5t-4.5 16.5t3 3l2 -1q2 -6 4 -17t4 -17h1q1 14 4 33q1 3 4 2l1 -3q0 -2 -2.5 -17t-3.5 -20q0 -4 -4 -2
q-1 0 -2 2zM84 230q-3 0 -3 3q-1 1 -1 11v23q-3 1 -2 3t3 3h16q3 0 3 -3t-3 -3h-12v-11h11q4 1 4 -3q0 -1 -2 -2q-5 -1 -12 -1v-14l12 1q6 0 3 -4q-2 -2 -4 -2q-1 0 -5.5 -0.5t-7.5 -0.5zM131 231q-5 1 -11 9.5t-7 9.5q0 -10 1 -18q0 -2 -3 -2t-3 2q0 32 -1 35
q-3 0 -3.5 2.5t2.5 3.5h7q16 0 17 -11q0 -7 -7 -9q-1 -1 -4 -1q7 -15 13 -16q2 0 1 -4q0 -2 -2 -1zM162 231q-2 0 -2 2.5t2 2.5h3v32l-4 -1q-3 0 -1 4q0 2 2 2h13q2 -2 1 -5h-5v-32h4q2 0 2 -2.5t-2 -2.5h-13zM191 231q-5 -1 -8.5 4.5t-3.5 13.5q0 15 6 21h1l2 1q1 4 4 1
q4 0 6 -5q6 -5 5 -20.5t-12 -15.5zM212 233q-1 -4 -4 -2l-1 3q2 17 1 36q0 3 3 2q1 0 2 -2q12 -23 16 -29q-2 16 -2 29q2 1 5 1q0 -3 1 -16.5t0 -19.5q-2 -8 -6 -2q-2 3 -6.5 13t-7.5 14q1 -18 -1 -27zM115 255q6 0 8.5 3t0 6.5t-8.5 3.5h-2v-13h2zM188 237q4 -3 7 0
q9 9 0 26q-3 7 -8 1q-4 -5 -3 -14.5t4 -12.5z" />
    <glyph glyph-name="asciitilde" unicode="~" 
d="M332 451v-261h-319v261h319zM19 196h307v249h-307v-249zM87 377q-4 7 -7.5 21.5t-3.5 15.5q-1 2 3 3q1 1 2 -1q1 -3 3.5 -15t4.5 -19q2 23 5 33q0 3 4 2l1 -3q-2 -7 -3.5 -20t-2.5 -17q-1 -2 -3 -2.5t-3 2.5zM208 376q-5 1 -3 4l4 1q0 3 0.5 8t0.5 8q-3 0 -4 2q-2 3 2 3
h2l-1 10h-1q-2 0 -3 1q-1 3 2 4q21 0 22 -8q0 -7 -7 -9q3 0 6 -3q5 -4 3 -12t-10 -9q-4 -1 -7 0q-3 -5 -6 0zM56 377q-1 -4 -5 -2q-1 1 -1 3l3 13q-3 0 -3 2l2 2h2q2 4 5 19q4 6 6 1l5 -19h3q3 -1 2 -4q-1 -1 -3 -1h-1q1 -6 4 -12q1 -5 -3 -4q-1 0 -2 2t-2.5 7.5t-1.5 6.5
h-8zM106 377q0 -4 -4 -2q-2 0 -1 3q0 2 1 6t1 7q-2 0 -2 2t2 2h2q4 17 5 19t3 2.5t3 -1.5l5 -19h2q4 -1 2 -4l-2 -1h-1q1 -3 2 -7t1 -5q2 -5 -2 -4q-2 0 -3 2q-3 12 -3 14h-8zM130 375q-2 0 -2 2.5t2 2.5h4v32l-4 -1q-4 0 -2 4q0 2 2 2h4h6h3q2 -2 1 -5h-5v-32h4q1 -2 1 -5
h-14zM155 374q-3 0 -3 4q0 6 -1 18.5t-1 17.5q0 3 3 3t3 -3q0 -8 1 -19t0 -16h12q-1 2 -1 6q1 2 3 1.5t2 -2.5v-8q0 -2 -4 -2h-14zM183 377q-1 -4 -5 -2q-1 1 -1 3l3 13q-3 0 -3 2l2 2h2q1 2 3 9.5t3 9.5t2.5 2.5t2.5 -1.5l5 -19h3q3 -1 2 -4l-3 -1q1 -9 3 -12q1 -5 -3 -4
q-1 0 -2 2q-3 6 -3 14h-9zM241 374q-3 0 -3 4q0 6 -1 18.5t-1 17.5q0 3 3 3t3 -3q0 -8 1 -19t0 -16h12q-1 3 0 6q0 2 2 1.5t2 -2.5v-2v-3v-3q0 -2 -4 -2h-14zM268 374l-3 3v34q-3 1 -2.5 3t2.5 3h17q3 0 3 -3t-3 -3h-12v-11h10q4 1 4 -3q0 -1 -2 -2q-4 -1 -12 -1v-14l13 1
q5 0 2 -4q-1 -2 -3 -2t-6.5 -0.5t-7.5 -0.5zM218 402q3 1 4.5 3t0.5 4.5t-5 2.5h-4l1 -10h3zM65 396q0 1 -0.5 3t-1 4.5t-0.5 4.5h-1q0 -2 -1 -6.5t-1 -5.5h5zM116 396q-1 2 -3 12q0 -1 -1 -6t-2 -6h6zM192 396q0 1 -0.5 3t-1 4.5t-0.5 4.5h-1q0 -2 -1 -6.5t-1 -5.5h5z
M218 380q8 1 8.5 8t-6.5 9h-5l-1 -17h4zM140 304q2 4 0 13q-2 -1 -2 0q-2 0 -2 2t2 2h2v21q0 4 3 3q2 0 2 -2v-22h13q-1 8 -1 22q0 3 3 3q2 -1 2 -3q0 -8 1 -22t1 -15q0 -2 -2 -3q-3 -2 -3 2q0 8 -1 12h-12v-13q-2 -1 -6 0zM243 302q-9 1 -9 18q0 9 -1 22q0 5 4 3q2 0 2 -2
v-21q0 -14 5 -14q9 0 5 35q0 3 3 2l2 -3l1 -10q1 -10 0 -14q0 -16 -12 -16zM50 303q-2 0 -2 2.5t2 2.5h4v32l-4 -1q-2 0 -2 2.5t2 3.5h13q3 0 3 -2q2 -3 -2 -3h-5v-32h5q2 0 2 -2.5t-2 -2.5q-1 -1 -7 -0.5t-7 0.5zM121 304v36q-5 0 -8 -1q-3 0 -1 4q1 2 2 2h20q1 -2 -1 -6
h-7v-34q-2 -1 -5 -1zM175 302q-3 0 -3 3q-1 1 -1 11v23q-3 1 -2 3t3 3h16q3 0 3 -3t-3 -3h-11l-1 -11h11q4 1 4 -3q0 -1 -2 -2q-5 -1 -12 -1v-14l12 1q6 0 3 -4q-2 -2 -4 -2q-1 0 -5.5 -0.5t-7.5 -0.5zM266 302q-3 0 -3 4q0 6 -1 18.5t-1 17.5q0 3 3 3t3 -3q0 -8 1 -19
t0 -16h12q-2 3 0 6q0 2 2 1.5t2 -2.5v-2v-3v-3q0 -2 -4 -2h-14zM293 302q-3 0 -3 4q1 7 0 20t-1 16t2.5 3t2.5 -3q0 -10 1 -20.5t1 -14.5h11v6q0 2 3 1l2 -2v-8q-1 -2 -4 -2h-15zM208 340q0 4 2 4q12 1 17 0q2 0 2 -3q0 -1 -2 -2q-1 -1 -4 1h-10q0 -12 1 -15h10q2 1 2 -1
q1 -3 -1 -4h-11v-15q0 -2 -3 -2.5t-3 2.5v35zM75 305q0 -4 -4 -2l-1 3q2 17 1 36q0 3 3 2q1 0 2 -2q12 -23 16 -29q-2 16 -2 29q2 1 5 1q0 -3 1 -16.5t0 -19.5q-2 -8 -6 -2q-2 3 -6.5 13t-7.5 14q1 -18 -1 -27zM147 231q-6 -1 -9 3.5t-3 11.5q0 3 2.5 3t2.5 -3q0 -5 2 -8
t6 -2t3.5 5.5t-4.5 8.5l-4.5 4.5t-4.5 6.5q-2 8 3 11t10 -3v3q1 2 4 -1v-10v-2l-3 1q-2 6 -4 7q-3 2 -5 0t0 -5l6 -6q6 -7 7 -13q2 -12 -9 -12zM61 233q-3 6 -6.5 20.5t-4.5 16.5t3 3l2 -1q2 -6 4 -17t4 -17h1q1 14 4 33q1 3 4 2l1 -3q0 -2 -2.5 -17t-3.5 -20q0 -4 -4 -2
q-1 0 -2 2zM84 230q-3 0 -3 3q-1 1 -1 11v23q-3 1 -2 3t3 3h16q3 0 3 -3t-3 -3h-12v-11h11q4 1 4 -3q0 -1 -2 -2q-5 -1 -12 -1v-14l12 1q6 0 3 -4q-2 -2 -4 -2q-1 0 -5.5 -0.5t-7.5 -0.5zM131 231q-5 1 -11 9.5t-7 9.5q0 -10 1 -18q0 -2 -3 -2t-3 2q0 32 -1 35
q-3 0 -3.5 2.5t2.5 3.5h7q16 0 17 -11q0 -7 -7 -9q-1 -1 -4 -1q7 -15 13 -16q2 0 1 -4q0 -2 -2 -1zM162 231q-2 0 -2 2.5t2 2.5h3v32l-4 -1q-3 0 -1 4q0 2 2 2h13q2 -2 1 -5h-5v-32h4q2 0 2 -2.5t-2 -2.5h-13zM191 231q-5 -1 -8.5 4.5t-3.5 13.5q0 15 6 21h1l2 1q1 4 4 1
q4 0 6 -5q6 -5 5 -20.5t-12 -15.5zM212 233q-1 -4 -4 -2l-1 3q2 17 1 36q0 3 3 2q1 0 2 -2q12 -23 16 -29q-2 16 -2 29q2 1 5 1q0 -3 1 -16.5t0 -19.5q-2 -8 -6 -2q-2 3 -6.5 13t-7.5 14q1 -18 -1 -27zM115 255q6 0 8.5 3t0 6.5t-8.5 3.5h-2v-13h2zM188 237q4 -3 7 0
q9 9 0 26q-3 7 -8 1q-4 -5 -3 -14.5t4 -12.5z" />
    <glyph glyph-name="exclamdown" unicode="&#xa1;" 
d="M332 451v-261h-319v261h319zM19 196h307v249h-307v-249zM87 377q-4 7 -7.5 21.5t-3.5 15.5q-1 2 3 3q1 1 2 -1q1 -3 3.5 -15t4.5 -19q2 23 5 33q0 3 4 2l1 -3q-2 -7 -3.5 -20t-2.5 -17q-1 -2 -3 -2.5t-3 2.5zM208 376q-5 1 -3 4l4 1q0 3 0.5 8t0.5 8q-3 0 -4 2q-2 3 2 3
h2l-1 10h-1q-2 0 -3 1q-1 3 2 4q21 0 22 -8q0 -7 -7 -9q3 0 6 -3q5 -4 3 -12t-10 -9q-4 -1 -7 0q-3 -5 -6 0zM56 377q-1 -4 -5 -2q-1 1 -1 3l3 13q-3 0 -3 2l2 2h2q2 4 5 19q4 6 6 1l5 -19h3q3 -1 2 -4q-1 -1 -3 -1h-1q1 -6 4 -12q1 -5 -3 -4q-1 0 -2 2t-2.5 7.5t-1.5 6.5
h-8zM106 377q0 -4 -4 -2q-2 0 -1 3q0 2 1 6t1 7q-2 0 -2 2t2 2h2q4 17 5 19t3 2.5t3 -1.5l5 -19h2q4 -1 2 -4l-2 -1h-1q1 -3 2 -7t1 -5q2 -5 -2 -4q-2 0 -3 2q-3 12 -3 14h-8zM130 375q-2 0 -2 2.5t2 2.5h4v32l-4 -1q-4 0 -2 4q0 2 2 2h4h6h3q2 -2 1 -5h-5v-32h4q1 -2 1 -5
h-14zM155 374q-3 0 -3 4q0 6 -1 18.5t-1 17.5q0 3 3 3t3 -3q0 -8 1 -19t0 -16h12q-1 2 -1 6q1 2 3 1.5t2 -2.5v-8q0 -2 -4 -2h-14zM183 377q-1 -4 -5 -2q-1 1 -1 3l3 13q-3 0 -3 2l2 2h2q1 2 3 9.5t3 9.5t2.5 2.5t2.5 -1.5l5 -19h3q3 -1 2 -4l-3 -1q1 -9 3 -12q1 -5 -3 -4
q-1 0 -2 2q-3 6 -3 14h-9zM241 374q-3 0 -3 4q0 6 -1 18.5t-1 17.5q0 3 3 3t3 -3q0 -8 1 -19t0 -16h12q-1 3 0 6q0 2 2 1.5t2 -2.5v-2v-3v-3q0 -2 -4 -2h-14zM268 374l-3 3v34q-3 1 -2.5 3t2.5 3h17q3 0 3 -3t-3 -3h-12v-11h10q4 1 4 -3q0 -1 -2 -2q-4 -1 -12 -1v-14l13 1
q5 0 2 -4q-1 -2 -3 -2t-6.5 -0.5t-7.5 -0.5zM218 402q3 1 4.5 3t0.5 4.5t-5 2.5h-4l1 -10h3zM65 396q0 1 -0.5 3t-1 4.5t-0.5 4.5h-1q0 -2 -1 -6.5t-1 -5.5h5zM116 396q-1 2 -3 12q0 -1 -1 -6t-2 -6h6zM192 396q0 1 -0.5 3t-1 4.5t-0.5 4.5h-1q0 -2 -1 -6.5t-1 -5.5h5z
M218 380q8 1 8.5 8t-6.5 9h-5l-1 -17h4zM140 304q2 4 0 13q-2 -1 -2 0q-2 0 -2 2t2 2h2v21q0 4 3 3q2 0 2 -2v-22h13q-1 8 -1 22q0 3 3 3q2 -1 2 -3q0 -8 1 -22t1 -15q0 -2 -2 -3q-3 -2 -3 2q0 8 -1 12h-12v-13q-2 -1 -6 0zM243 302q-9 1 -9 18q0 9 -1 22q0 5 4 3q2 0 2 -2
v-21q0 -14 5 -14q9 0 5 35q0 3 3 2l2 -3l1 -10q1 -10 0 -14q0 -16 -12 -16zM50 303q-2 0 -2 2.5t2 2.5h4v32l-4 -1q-2 0 -2 2.5t2 3.5h13q3 0 3 -2q2 -3 -2 -3h-5v-32h5q2 0 2 -2.5t-2 -2.5q-1 -1 -7 -0.5t-7 0.5zM121 304v36q-5 0 -8 -1q-3 0 -1 4q1 2 2 2h20q1 -2 -1 -6
h-7v-34q-2 -1 -5 -1zM175 302q-3 0 -3 3q-1 1 -1 11v23q-3 1 -2 3t3 3h16q3 0 3 -3t-3 -3h-11l-1 -11h11q4 1 4 -3q0 -1 -2 -2q-5 -1 -12 -1v-14l12 1q6 0 3 -4q-2 -2 -4 -2q-1 0 -5.5 -0.5t-7.5 -0.5zM266 302q-3 0 -3 4q0 6 -1 18.5t-1 17.5q0 3 3 3t3 -3q0 -8 1 -19
t0 -16h12q-2 3 0 6q0 2 2 1.5t2 -2.5v-2v-3v-3q0 -2 -4 -2h-14zM293 302q-3 0 -3 4q1 7 0 20t-1 16t2.5 3t2.5 -3q0 -10 1 -20.5t1 -14.5h11v6q0 2 3 1l2 -2v-8q-1 -2 -4 -2h-15zM208 340q0 4 2 4q12 1 17 0q2 0 2 -3q0 -1 -2 -2q-1 -1 -4 1h-10q0 -12 1 -15h10q2 1 2 -1
q1 -3 -1 -4h-11v-15q0 -2 -3 -2.5t-3 2.5v35zM75 305q0 -4 -4 -2l-1 3q2 17 1 36q0 3 3 2q1 0 2 -2q12 -23 16 -29q-2 16 -2 29q2 1 5 1q0 -3 1 -16.5t0 -19.5q-2 -8 -6 -2q-2 3 -6.5 13t-7.5 14q1 -18 -1 -27zM147 231q-6 -1 -9 3.5t-3 11.5q0 3 2.5 3t2.5 -3q0 -5 2 -8
t6 -2t3.5 5.5t-4.5 8.5l-4.5 4.5t-4.5 6.5q-2 8 3 11t10 -3v3q1 2 4 -1v-10v-2l-3 1q-2 6 -4 7q-3 2 -5 0t0 -5l6 -6q6 -7 7 -13q2 -12 -9 -12zM61 233q-3 6 -6.5 20.5t-4.5 16.5t3 3l2 -1q2 -6 4 -17t4 -17h1q1 14 4 33q1 3 4 2l1 -3q0 -2 -2.5 -17t-3.5 -20q0 -4 -4 -2
q-1 0 -2 2zM84 230q-3 0 -3 3q-1 1 -1 11v23q-3 1 -2 3t3 3h16q3 0 3 -3t-3 -3h-12v-11h11q4 1 4 -3q0 -1 -2 -2q-5 -1 -12 -1v-14l12 1q6 0 3 -4q-2 -2 -4 -2q-1 0 -5.5 -0.5t-7.5 -0.5zM131 231q-5 1 -11 9.5t-7 9.5q0 -10 1 -18q0 -2 -3 -2t-3 2q0 32 -1 35
q-3 0 -3.5 2.5t2.5 3.5h7q16 0 17 -11q0 -7 -7 -9q-1 -1 -4 -1q7 -15 13 -16q2 0 1 -4q0 -2 -2 -1zM162 231q-2 0 -2 2.5t2 2.5h3v32l-4 -1q-3 0 -1 4q0 2 2 2h13q2 -2 1 -5h-5v-32h4q2 0 2 -2.5t-2 -2.5h-13zM191 231q-5 -1 -8.5 4.5t-3.5 13.5q0 15 6 21h1l2 1q1 4 4 1
q4 0 6 -5q6 -5 5 -20.5t-12 -15.5zM212 233q-1 -4 -4 -2l-1 3q2 17 1 36q0 3 3 2q1 0 2 -2q12 -23 16 -29q-2 16 -2 29q2 1 5 1q0 -3 1 -16.5t0 -19.5q-2 -8 -6 -2q-2 3 -6.5 13t-7.5 14q1 -18 -1 -27zM115 255q6 0 8.5 3t0 6.5t-8.5 3.5h-2v-13h2zM188 237q4 -3 7 0
q9 9 0 26q-3 7 -8 1q-4 -5 -3 -14.5t4 -12.5z" />
    <glyph glyph-name="cent" unicode="&#xa2;" 
d="M332 451v-261h-319v261h319zM19 196h307v249h-307v-249zM87 377q-4 7 -7.5 21.5t-3.5 15.5q-1 2 3 3q1 1 2 -1q1 -3 3.5 -15t4.5 -19q2 23 5 33q0 3 4 2l1 -3q-2 -7 -3.5 -20t-2.5 -17q-1 -2 -3 -2.5t-3 2.5zM208 376q-5 1 -3 4l4 1q0 3 0.5 8t0.5 8q-3 0 -4 2q-2 3 2 3
h2l-1 10h-1q-2 0 -3 1q-1 3 2 4q21 0 22 -8q0 -7 -7 -9q3 0 6 -3q5 -4 3 -12t-10 -9q-4 -1 -7 0q-3 -5 -6 0zM56 377q-1 -4 -5 -2q-1 1 -1 3l3 13q-3 0 -3 2l2 2h2q2 4 5 19q4 6 6 1l5 -19h3q3 -1 2 -4q-1 -1 -3 -1h-1q1 -6 4 -12q1 -5 -3 -4q-1 0 -2 2t-2.5 7.5t-1.5 6.5
h-8zM106 377q0 -4 -4 -2q-2 0 -1 3q0 2 1 6t1 7q-2 0 -2 2t2 2h2q4 17 5 19t3 2.5t3 -1.5l5 -19h2q4 -1 2 -4l-2 -1h-1q1 -3 2 -7t1 -5q2 -5 -2 -4q-2 0 -3 2q-3 12 -3 14h-8zM130 375q-2 0 -2 2.5t2 2.5h4v32l-4 -1q-4 0 -2 4q0 2 2 2h4h6h3q2 -2 1 -5h-5v-32h4q1 -2 1 -5
h-14zM155 374q-3 0 -3 4q0 6 -1 18.5t-1 17.5q0 3 3 3t3 -3q0 -8 1 -19t0 -16h12q-1 2 -1 6q1 2 3 1.5t2 -2.5v-8q0 -2 -4 -2h-14zM183 377q-1 -4 -5 -2q-1 1 -1 3l3 13q-3 0 -3 2l2 2h2q1 2 3 9.5t3 9.5t2.5 2.5t2.5 -1.5l5 -19h3q3 -1 2 -4l-3 -1q1 -9 3 -12q1 -5 -3 -4
q-1 0 -2 2q-3 6 -3 14h-9zM241 374q-3 0 -3 4q0 6 -1 18.5t-1 17.5q0 3 3 3t3 -3q0 -8 1 -19t0 -16h12q-1 3 0 6q0 2 2 1.5t2 -2.5v-2v-3v-3q0 -2 -4 -2h-14zM268 374l-3 3v34q-3 1 -2.5 3t2.5 3h17q3 0 3 -3t-3 -3h-12v-11h10q4 1 4 -3q0 -1 -2 -2q-4 -1 -12 -1v-14l13 1
q5 0 2 -4q-1 -2 -3 -2t-6.5 -0.5t-7.5 -0.5zM218 402q3 1 4.5 3t0.5 4.5t-5 2.5h-4l1 -10h3zM65 396q0 1 -0.5 3t-1 4.5t-0.5 4.5h-1q0 -2 -1 -6.5t-1 -5.5h5zM116 396q-1 2 -3 12q0 -1 -1 -6t-2 -6h6zM192 396q0 1 -0.5 3t-1 4.5t-0.5 4.5h-1q0 -2 -1 -6.5t-1 -5.5h5z
M218 380q8 1 8.5 8t-6.5 9h-5l-1 -17h4zM140 304q2 4 0 13q-2 -1 -2 0q-2 0 -2 2t2 2h2v21q0 4 3 3q2 0 2 -2v-22h13q-1 8 -1 22q0 3 3 3q2 -1 2 -3q0 -8 1 -22t1 -15q0 -2 -2 -3q-3 -2 -3 2q0 8 -1 12h-12v-13q-2 -1 -6 0zM243 302q-9 1 -9 18q0 9 -1 22q0 5 4 3q2 0 2 -2
v-21q0 -14 5 -14q9 0 5 35q0 3 3 2l2 -3l1 -10q1 -10 0 -14q0 -16 -12 -16zM50 303q-2 0 -2 2.5t2 2.5h4v32l-4 -1q-2 0 -2 2.5t2 3.5h13q3 0 3 -2q2 -3 -2 -3h-5v-32h5q2 0 2 -2.5t-2 -2.5q-1 -1 -7 -0.5t-7 0.5zM121 304v36q-5 0 -8 -1q-3 0 -1 4q1 2 2 2h20q1 -2 -1 -6
h-7v-34q-2 -1 -5 -1zM175 302q-3 0 -3 3q-1 1 -1 11v23q-3 1 -2 3t3 3h16q3 0 3 -3t-3 -3h-11l-1 -11h11q4 1 4 -3q0 -1 -2 -2q-5 -1 -12 -1v-14l12 1q6 0 3 -4q-2 -2 -4 -2q-1 0 -5.5 -0.5t-7.5 -0.5zM266 302q-3 0 -3 4q0 6 -1 18.5t-1 17.5q0 3 3 3t3 -3q0 -8 1 -19
t0 -16h12q-2 3 0 6q0 2 2 1.5t2 -2.5v-2v-3v-3q0 -2 -4 -2h-14zM293 302q-3 0 -3 4q1 7 0 20t-1 16t2.5 3t2.5 -3q0 -10 1 -20.5t1 -14.5h11v6q0 2 3 1l2 -2v-8q-1 -2 -4 -2h-15zM208 340q0 4 2 4q12 1 17 0q2 0 2 -3q0 -1 -2 -2q-1 -1 -4 1h-10q0 -12 1 -15h10q2 1 2 -1
q1 -3 -1 -4h-11v-15q0 -2 -3 -2.5t-3 2.5v35zM75 305q0 -4 -4 -2l-1 3q2 17 1 36q0 3 3 2q1 0 2 -2q12 -23 16 -29q-2 16 -2 29q2 1 5 1q0 -3 1 -16.5t0 -19.5q-2 -8 -6 -2q-2 3 -6.5 13t-7.5 14q1 -18 -1 -27zM147 231q-6 -1 -9 3.5t-3 11.5q0 3 2.5 3t2.5 -3q0 -5 2 -8
t6 -2t3.5 5.5t-4.5 8.5l-4.5 4.5t-4.5 6.5q-2 8 3 11t10 -3v3q1 2 4 -1v-10v-2l-3 1q-2 6 -4 7q-3 2 -5 0t0 -5l6 -6q6 -7 7 -13q2 -12 -9 -12zM61 233q-3 6 -6.5 20.5t-4.5 16.5t3 3l2 -1q2 -6 4 -17t4 -17h1q1 14 4 33q1 3 4 2l1 -3q0 -2 -2.5 -17t-3.5 -20q0 -4 -4 -2
q-1 0 -2 2zM84 230q-3 0 -3 3q-1 1 -1 11v23q-3 1 -2 3t3 3h16q3 0 3 -3t-3 -3h-12v-11h11q4 1 4 -3q0 -1 -2 -2q-5 -1 -12 -1v-14l12 1q6 0 3 -4q-2 -2 -4 -2q-1 0 -5.5 -0.5t-7.5 -0.5zM131 231q-5 1 -11 9.5t-7 9.5q0 -10 1 -18q0 -2 -3 -2t-3 2q0 32 -1 35
q-3 0 -3.5 2.5t2.5 3.5h7q16 0 17 -11q0 -7 -7 -9q-1 -1 -4 -1q7 -15 13 -16q2 0 1 -4q0 -2 -2 -1zM162 231q-2 0 -2 2.5t2 2.5h3v32l-4 -1q-3 0 -1 4q0 2 2 2h13q2 -2 1 -5h-5v-32h4q2 0 2 -2.5t-2 -2.5h-13zM191 231q-5 -1 -8.5 4.5t-3.5 13.5q0 15 6 21h1l2 1q1 4 4 1
q4 0 6 -5q6 -5 5 -20.5t-12 -15.5zM212 233q-1 -4 -4 -2l-1 3q2 17 1 36q0 3 3 2q1 0 2 -2q12 -23 16 -29q-2 16 -2 29q2 1 5 1q0 -3 1 -16.5t0 -19.5q-2 -8 -6 -2q-2 3 -6.5 13t-7.5 14q1 -18 -1 -27zM115 255q6 0 8.5 3t0 6.5t-8.5 3.5h-2v-13h2zM188 237q4 -3 7 0
q9 9 0 26q-3 7 -8 1q-4 -5 -3 -14.5t4 -12.5z" />
    <glyph glyph-name="sterling" unicode="&#xa3;" 
d="M332 451v-261h-319v261h319zM19 196h307v249h-307v-249zM87 377q-4 7 -7.5 21.5t-3.5 15.5q-1 2 3 3q1 1 2 -1q1 -3 3.5 -15t4.5 -19q2 23 5 33q0 3 4 2l1 -3q-2 -7 -3.5 -20t-2.5 -17q-1 -2 -3 -2.5t-3 2.5zM208 376q-5 1 -3 4l4 1q0 3 0.5 8t0.5 8q-3 0 -4 2q-2 3 2 3
h2l-1 10h-1q-2 0 -3 1q-1 3 2 4q21 0 22 -8q0 -7 -7 -9q3 0 6 -3q5 -4 3 -12t-10 -9q-4 -1 -7 0q-3 -5 -6 0zM56 377q-1 -4 -5 -2q-1 1 -1 3l3 13q-3 0 -3 2l2 2h2q2 4 5 19q4 6 6 1l5 -19h3q3 -1 2 -4q-1 -1 -3 -1h-1q1 -6 4 -12q1 -5 -3 -4q-1 0 -2 2t-2.5 7.5t-1.5 6.5
h-8zM106 377q0 -4 -4 -2q-2 0 -1 3q0 2 1 6t1 7q-2 0 -2 2t2 2h2q4 17 5 19t3 2.5t3 -1.5l5 -19h2q4 -1 2 -4l-2 -1h-1q1 -3 2 -7t1 -5q2 -5 -2 -4q-2 0 -3 2q-3 12 -3 14h-8zM130 375q-2 0 -2 2.5t2 2.5h4v32l-4 -1q-4 0 -2 4q0 2 2 2h4h6h3q2 -2 1 -5h-5v-32h4q1 -2 1 -5
h-14zM155 374q-3 0 -3 4q0 6 -1 18.5t-1 17.5q0 3 3 3t3 -3q0 -8 1 -19t0 -16h12q-1 2 -1 6q1 2 3 1.5t2 -2.5v-8q0 -2 -4 -2h-14zM183 377q-1 -4 -5 -2q-1 1 -1 3l3 13q-3 0 -3 2l2 2h2q1 2 3 9.5t3 9.5t2.5 2.5t2.5 -1.5l5 -19h3q3 -1 2 -4l-3 -1q1 -9 3 -12q1 -5 -3 -4
q-1 0 -2 2q-3 6 -3 14h-9zM241 374q-3 0 -3 4q0 6 -1 18.5t-1 17.5q0 3 3 3t3 -3q0 -8 1 -19t0 -16h12q-1 3 0 6q0 2 2 1.5t2 -2.5v-2v-3v-3q0 -2 -4 -2h-14zM268 374l-3 3v34q-3 1 -2.5 3t2.5 3h17q3 0 3 -3t-3 -3h-12v-11h10q4 1 4 -3q0 -1 -2 -2q-4 -1 -12 -1v-14l13 1
q5 0 2 -4q-1 -2 -3 -2t-6.5 -0.5t-7.5 -0.5zM218 402q3 1 4.5 3t0.5 4.5t-5 2.5h-4l1 -10h3zM65 396q0 1 -0.5 3t-1 4.5t-0.5 4.5h-1q0 -2 -1 -6.5t-1 -5.5h5zM116 396q-1 2 -3 12q0 -1 -1 -6t-2 -6h6zM192 396q0 1 -0.5 3t-1 4.5t-0.5 4.5h-1q0 -2 -1 -6.5t-1 -5.5h5z
M218 380q8 1 8.5 8t-6.5 9h-5l-1 -17h4zM140 304q2 4 0 13q-2 -1 -2 0q-2 0 -2 2t2 2h2v21q0 4 3 3q2 0 2 -2v-22h13q-1 8 -1 22q0 3 3 3q2 -1 2 -3q0 -8 1 -22t1 -15q0 -2 -2 -3q-3 -2 -3 2q0 8 -1 12h-12v-13q-2 -1 -6 0zM243 302q-9 1 -9 18q0 9 -1 22q0 5 4 3q2 0 2 -2
v-21q0 -14 5 -14q9 0 5 35q0 3 3 2l2 -3l1 -10q1 -10 0 -14q0 -16 -12 -16zM50 303q-2 0 -2 2.5t2 2.5h4v32l-4 -1q-2 0 -2 2.5t2 3.5h13q3 0 3 -2q2 -3 -2 -3h-5v-32h5q2 0 2 -2.5t-2 -2.5q-1 -1 -7 -0.5t-7 0.5zM121 304v36q-5 0 -8 -1q-3 0 -1 4q1 2 2 2h20q1 -2 -1 -6
h-7v-34q-2 -1 -5 -1zM175 302q-3 0 -3 3q-1 1 -1 11v23q-3 1 -2 3t3 3h16q3 0 3 -3t-3 -3h-11l-1 -11h11q4 1 4 -3q0 -1 -2 -2q-5 -1 -12 -1v-14l12 1q6 0 3 -4q-2 -2 -4 -2q-1 0 -5.5 -0.5t-7.5 -0.5zM266 302q-3 0 -3 4q0 6 -1 18.5t-1 17.5q0 3 3 3t3 -3q0 -8 1 -19
t0 -16h12q-2 3 0 6q0 2 2 1.5t2 -2.5v-2v-3v-3q0 -2 -4 -2h-14zM293 302q-3 0 -3 4q1 7 0 20t-1 16t2.5 3t2.5 -3q0 -10 1 -20.5t1 -14.5h11v6q0 2 3 1l2 -2v-8q-1 -2 -4 -2h-15zM208 340q0 4 2 4q12 1 17 0q2 0 2 -3q0 -1 -2 -2q-1 -1 -4 1h-10q0 -12 1 -15h10q2 1 2 -1
q1 -3 -1 -4h-11v-15q0 -2 -3 -2.5t-3 2.5v35zM75 305q0 -4 -4 -2l-1 3q2 17 1 36q0 3 3 2q1 0 2 -2q12 -23 16 -29q-2 16 -2 29q2 1 5 1q0 -3 1 -16.5t0 -19.5q-2 -8 -6 -2q-2 3 -6.5 13t-7.5 14q1 -18 -1 -27zM147 231q-6 -1 -9 3.5t-3 11.5q0 3 2.5 3t2.5 -3q0 -5 2 -8
t6 -2t3.5 5.5t-4.5 8.5l-4.5 4.5t-4.5 6.5q-2 8 3 11t10 -3v3q1 2 4 -1v-10v-2l-3 1q-2 6 -4 7q-3 2 -5 0t0 -5l6 -6q6 -7 7 -13q2 -12 -9 -12zM61 233q-3 6 -6.5 20.5t-4.5 16.5t3 3l2 -1q2 -6 4 -17t4 -17h1q1 14 4 33q1 3 4 2l1 -3q0 -2 -2.5 -17t-3.5 -20q0 -4 -4 -2
q-1 0 -2 2zM84 230q-3 0 -3 3q-1 1 -1 11v23q-3 1 -2 3t3 3h16q3 0 3 -3t-3 -3h-12v-11h11q4 1 4 -3q0 -1 -2 -2q-5 -1 -12 -1v-14l12 1q6 0 3 -4q-2 -2 -4 -2q-1 0 -5.5 -0.5t-7.5 -0.5zM131 231q-5 1 -11 9.5t-7 9.5q0 -10 1 -18q0 -2 -3 -2t-3 2q0 32 -1 35
q-3 0 -3.5 2.5t2.5 3.5h7q16 0 17 -11q0 -7 -7 -9q-1 -1 -4 -1q7 -15 13 -16q2 0 1 -4q0 -2 -2 -1zM162 231q-2 0 -2 2.5t2 2.5h3v32l-4 -1q-3 0 -1 4q0 2 2 2h13q2 -2 1 -5h-5v-32h4q2 0 2 -2.5t-2 -2.5h-13zM191 231q-5 -1 -8.5 4.5t-3.5 13.5q0 15 6 21h1l2 1q1 4 4 1
q4 0 6 -5q6 -5 5 -20.5t-12 -15.5zM212 233q-1 -4 -4 -2l-1 3q2 17 1 36q0 3 3 2q1 0 2 -2q12 -23 16 -29q-2 16 -2 29q2 1 5 1q0 -3 1 -16.5t0 -19.5q-2 -8 -6 -2q-2 3 -6.5 13t-7.5 14q1 -18 -1 -27zM115 255q6 0 8.5 3t0 6.5t-8.5 3.5h-2v-13h2zM188 237q4 -3 7 0
q9 9 0 26q-3 7 -8 1q-4 -5 -3 -14.5t4 -12.5z" />
    <glyph glyph-name="currency" unicode="&#xa4;" 
d="M332 451v-261h-319v261h319zM19 196h307v249h-307v-249zM87 377q-4 7 -7.5 21.5t-3.5 15.5q-1 2 3 3q1 1 2 -1q1 -3 3.5 -15t4.5 -19q2 23 5 33q0 3 4 2l1 -3q-2 -7 -3.5 -20t-2.5 -17q-1 -2 -3 -2.5t-3 2.5zM208 376q-5 1 -3 4l4 1q0 3 0.5 8t0.5 8q-3 0 -4 2q-2 3 2 3
h2l-1 10h-1q-2 0 -3 1q-1 3 2 4q21 0 22 -8q0 -7 -7 -9q3 0 6 -3q5 -4 3 -12t-10 -9q-4 -1 -7 0q-3 -5 -6 0zM56 377q-1 -4 -5 -2q-1 1 -1 3l3 13q-3 0 -3 2l2 2h2q2 4 5 19q4 6 6 1l5 -19h3q3 -1 2 -4q-1 -1 -3 -1h-1q1 -6 4 -12q1 -5 -3 -4q-1 0 -2 2t-2.5 7.5t-1.5 6.5
h-8zM106 377q0 -4 -4 -2q-2 0 -1 3q0 2 1 6t1 7q-2 0 -2 2t2 2h2q4 17 5 19t3 2.5t3 -1.5l5 -19h2q4 -1 2 -4l-2 -1h-1q1 -3 2 -7t1 -5q2 -5 -2 -4q-2 0 -3 2q-3 12 -3 14h-8zM130 375q-2 0 -2 2.5t2 2.5h4v32l-4 -1q-4 0 -2 4q0 2 2 2h4h6h3q2 -2 1 -5h-5v-32h4q1 -2 1 -5
h-14zM155 374q-3 0 -3 4q0 6 -1 18.5t-1 17.5q0 3 3 3t3 -3q0 -8 1 -19t0 -16h12q-1 2 -1 6q1 2 3 1.5t2 -2.5v-8q0 -2 -4 -2h-14zM183 377q-1 -4 -5 -2q-1 1 -1 3l3 13q-3 0 -3 2l2 2h2q1 2 3 9.5t3 9.5t2.5 2.5t2.5 -1.5l5 -19h3q3 -1 2 -4l-3 -1q1 -9 3 -12q1 -5 -3 -4
q-1 0 -2 2q-3 6 -3 14h-9zM241 374q-3 0 -3 4q0 6 -1 18.5t-1 17.5q0 3 3 3t3 -3q0 -8 1 -19t0 -16h12q-1 3 0 6q0 2 2 1.5t2 -2.5v-2v-3v-3q0 -2 -4 -2h-14zM268 374l-3 3v34q-3 1 -2.5 3t2.5 3h17q3 0 3 -3t-3 -3h-12v-11h10q4 1 4 -3q0 -1 -2 -2q-4 -1 -12 -1v-14l13 1
q5 0 2 -4q-1 -2 -3 -2t-6.5 -0.5t-7.5 -0.5zM218 402q3 1 4.5 3t0.5 4.5t-5 2.5h-4l1 -10h3zM65 396q0 1 -0.5 3t-1 4.5t-0.5 4.5h-1q0 -2 -1 -6.5t-1 -5.5h5zM116 396q-1 2 -3 12q0 -1 -1 -6t-2 -6h6zM192 396q0 1 -0.5 3t-1 4.5t-0.5 4.5h-1q0 -2 -1 -6.5t-1 -5.5h5z
M218 380q8 1 8.5 8t-6.5 9h-5l-1 -17h4zM140 304q2 4 0 13q-2 -1 -2 0q-2 0 -2 2t2 2h2v21q0 4 3 3q2 0 2 -2v-22h13q-1 8 -1 22q0 3 3 3q2 -1 2 -3q0 -8 1 -22t1 -15q0 -2 -2 -3q-3 -2 -3 2q0 8 -1 12h-12v-13q-2 -1 -6 0zM243 302q-9 1 -9 18q0 9 -1 22q0 5 4 3q2 0 2 -2
v-21q0 -14 5 -14q9 0 5 35q0 3 3 2l2 -3l1 -10q1 -10 0 -14q0 -16 -12 -16zM50 303q-2 0 -2 2.5t2 2.5h4v32l-4 -1q-2 0 -2 2.5t2 3.5h13q3 0 3 -2q2 -3 -2 -3h-5v-32h5q2 0 2 -2.5t-2 -2.5q-1 -1 -7 -0.5t-7 0.5zM121 304v36q-5 0 -8 -1q-3 0 -1 4q1 2 2 2h20q1 -2 -1 -6
h-7v-34q-2 -1 -5 -1zM175 302q-3 0 -3 3q-1 1 -1 11v23q-3 1 -2 3t3 3h16q3 0 3 -3t-3 -3h-11l-1 -11h11q4 1 4 -3q0 -1 -2 -2q-5 -1 -12 -1v-14l12 1q6 0 3 -4q-2 -2 -4 -2q-1 0 -5.5 -0.5t-7.5 -0.5zM266 302q-3 0 -3 4q0 6 -1 18.5t-1 17.5q0 3 3 3t3 -3q0 -8 1 -19
t0 -16h12q-2 3 0 6q0 2 2 1.5t2 -2.5v-2v-3v-3q0 -2 -4 -2h-14zM293 302q-3 0 -3 4q1 7 0 20t-1 16t2.5 3t2.5 -3q0 -10 1 -20.5t1 -14.5h11v6q0 2 3 1l2 -2v-8q-1 -2 -4 -2h-15zM208 340q0 4 2 4q12 1 17 0q2 0 2 -3q0 -1 -2 -2q-1 -1 -4 1h-10q0 -12 1 -15h10q2 1 2 -1
q1 -3 -1 -4h-11v-15q0 -2 -3 -2.5t-3 2.5v35zM75 305q0 -4 -4 -2l-1 3q2 17 1 36q0 3 3 2q1 0 2 -2q12 -23 16 -29q-2 16 -2 29q2 1 5 1q0 -3 1 -16.5t0 -19.5q-2 -8 -6 -2q-2 3 -6.5 13t-7.5 14q1 -18 -1 -27zM147 231q-6 -1 -9 3.5t-3 11.5q0 3 2.5 3t2.5 -3q0 -5 2 -8
t6 -2t3.5 5.5t-4.5 8.5l-4.5 4.5t-4.5 6.5q-2 8 3 11t10 -3v3q1 2 4 -1v-10v-2l-3 1q-2 6 -4 7q-3 2 -5 0t0 -5l6 -6q6 -7 7 -13q2 -12 -9 -12zM61 233q-3 6 -6.5 20.5t-4.5 16.5t3 3l2 -1q2 -6 4 -17t4 -17h1q1 14 4 33q1 3 4 2l1 -3q0 -2 -2.5 -17t-3.5 -20q0 -4 -4 -2
q-1 0 -2 2zM84 230q-3 0 -3 3q-1 1 -1 11v23q-3 1 -2 3t3 3h16q3 0 3 -3t-3 -3h-12v-11h11q4 1 4 -3q0 -1 -2 -2q-5 -1 -12 -1v-14l12 1q6 0 3 -4q-2 -2 -4 -2q-1 0 -5.5 -0.5t-7.5 -0.5zM131 231q-5 1 -11 9.5t-7 9.5q0 -10 1 -18q0 -2 -3 -2t-3 2q0 32 -1 35
q-3 0 -3.5 2.5t2.5 3.5h7q16 0 17 -11q0 -7 -7 -9q-1 -1 -4 -1q7 -15 13 -16q2 0 1 -4q0 -2 -2 -1zM162 231q-2 0 -2 2.5t2 2.5h3v32l-4 -1q-3 0 -1 4q0 2 2 2h13q2 -2 1 -5h-5v-32h4q2 0 2 -2.5t-2 -2.5h-13zM191 231q-5 -1 -8.5 4.5t-3.5 13.5q0 15 6 21h1l2 1q1 4 4 1
q4 0 6 -5q6 -5 5 -20.5t-12 -15.5zM212 233q-1 -4 -4 -2l-1 3q2 17 1 36q0 3 3 2q1 0 2 -2q12 -23 16 -29q-2 16 -2 29q2 1 5 1q0 -3 1 -16.5t0 -19.5q-2 -8 -6 -2q-2 3 -6.5 13t-7.5 14q1 -18 -1 -27zM115 255q6 0 8.5 3t0 6.5t-8.5 3.5h-2v-13h2zM188 237q4 -3 7 0
q9 9 0 26q-3 7 -8 1q-4 -5 -3 -14.5t4 -12.5z" />
    <glyph glyph-name="yen" unicode="&#xa5;" 
d="M332 451v-261h-319v261h319zM19 196h307v249h-307v-249zM87 377q-4 7 -7.5 21.5t-3.5 15.5q-1 2 3 3q1 1 2 -1q1 -3 3.5 -15t4.5 -19q2 23 5 33q0 3 4 2l1 -3q-2 -7 -3.5 -20t-2.5 -17q-1 -2 -3 -2.5t-3 2.5zM208 376q-5 1 -3 4l4 1q0 3 0.5 8t0.5 8q-3 0 -4 2q-2 3 2 3
h2l-1 10h-1q-2 0 -3 1q-1 3 2 4q21 0 22 -8q0 -7 -7 -9q3 0 6 -3q5 -4 3 -12t-10 -9q-4 -1 -7 0q-3 -5 -6 0zM56 377q-1 -4 -5 -2q-1 1 -1 3l3 13q-3 0 -3 2l2 2h2q2 4 5 19q4 6 6 1l5 -19h3q3 -1 2 -4q-1 -1 -3 -1h-1q1 -6 4 -12q1 -5 -3 -4q-1 0 -2 2t-2.5 7.5t-1.5 6.5
h-8zM106 377q0 -4 -4 -2q-2 0 -1 3q0 2 1 6t1 7q-2 0 -2 2t2 2h2q4 17 5 19t3 2.5t3 -1.5l5 -19h2q4 -1 2 -4l-2 -1h-1q1 -3 2 -7t1 -5q2 -5 -2 -4q-2 0 -3 2q-3 12 -3 14h-8zM130 375q-2 0 -2 2.5t2 2.5h4v32l-4 -1q-4 0 -2 4q0 2 2 2h4h6h3q2 -2 1 -5h-5v-32h4q1 -2 1 -5
h-14zM155 374q-3 0 -3 4q0 6 -1 18.5t-1 17.5q0 3 3 3t3 -3q0 -8 1 -19t0 -16h12q-1 2 -1 6q1 2 3 1.5t2 -2.5v-8q0 -2 -4 -2h-14zM183 377q-1 -4 -5 -2q-1 1 -1 3l3 13q-3 0 -3 2l2 2h2q1 2 3 9.5t3 9.5t2.5 2.5t2.5 -1.5l5 -19h3q3 -1 2 -4l-3 -1q1 -9 3 -12q1 -5 -3 -4
q-1 0 -2 2q-3 6 -3 14h-9zM241 374q-3 0 -3 4q0 6 -1 18.5t-1 17.5q0 3 3 3t3 -3q0 -8 1 -19t0 -16h12q-1 3 0 6q0 2 2 1.5t2 -2.5v-2v-3v-3q0 -2 -4 -2h-14zM268 374l-3 3v34q-3 1 -2.5 3t2.5 3h17q3 0 3 -3t-3 -3h-12v-11h10q4 1 4 -3q0 -1 -2 -2q-4 -1 -12 -1v-14l13 1
q5 0 2 -4q-1 -2 -3 -2t-6.5 -0.5t-7.5 -0.5zM218 402q3 1 4.5 3t0.5 4.5t-5 2.5h-4l1 -10h3zM65 396q0 1 -0.5 3t-1 4.5t-0.5 4.5h-1q0 -2 -1 -6.5t-1 -5.5h5zM116 396q-1 2 -3 12q0 -1 -1 -6t-2 -6h6zM192 396q0 1 -0.5 3t-1 4.5t-0.5 4.5h-1q0 -2 -1 -6.5t-1 -5.5h5z
M218 380q8 1 8.5 8t-6.5 9h-5l-1 -17h4zM140 304q2 4 0 13q-2 -1 -2 0q-2 0 -2 2t2 2h2v21q0 4 3 3q2 0 2 -2v-22h13q-1 8 -1 22q0 3 3 3q2 -1 2 -3q0 -8 1 -22t1 -15q0 -2 -2 -3q-3 -2 -3 2q0 8 -1 12h-12v-13q-2 -1 -6 0zM243 302q-9 1 -9 18q0 9 -1 22q0 5 4 3q2 0 2 -2
v-21q0 -14 5 -14q9 0 5 35q0 3 3 2l2 -3l1 -10q1 -10 0 -14q0 -16 -12 -16zM50 303q-2 0 -2 2.5t2 2.5h4v32l-4 -1q-2 0 -2 2.5t2 3.5h13q3 0 3 -2q2 -3 -2 -3h-5v-32h5q2 0 2 -2.5t-2 -2.5q-1 -1 -7 -0.5t-7 0.5zM121 304v36q-5 0 -8 -1q-3 0 -1 4q1 2 2 2h20q1 -2 -1 -6
h-7v-34q-2 -1 -5 -1zM175 302q-3 0 -3 3q-1 1 -1 11v23q-3 1 -2 3t3 3h16q3 0 3 -3t-3 -3h-11l-1 -11h11q4 1 4 -3q0 -1 -2 -2q-5 -1 -12 -1v-14l12 1q6 0 3 -4q-2 -2 -4 -2q-1 0 -5.5 -0.5t-7.5 -0.5zM266 302q-3 0 -3 4q0 6 -1 18.5t-1 17.5q0 3 3 3t3 -3q0 -8 1 -19
t0 -16h12q-2 3 0 6q0 2 2 1.5t2 -2.5v-2v-3v-3q0 -2 -4 -2h-14zM293 302q-3 0 -3 4q1 7 0 20t-1 16t2.5 3t2.5 -3q0 -10 1 -20.5t1 -14.5h11v6q0 2 3 1l2 -2v-8q-1 -2 -4 -2h-15zM208 340q0 4 2 4q12 1 17 0q2 0 2 -3q0 -1 -2 -2q-1 -1 -4 1h-10q0 -12 1 -15h10q2 1 2 -1
q1 -3 -1 -4h-11v-15q0 -2 -3 -2.5t-3 2.5v35zM75 305q0 -4 -4 -2l-1 3q2 17 1 36q0 3 3 2q1 0 2 -2q12 -23 16 -29q-2 16 -2 29q2 1 5 1q0 -3 1 -16.5t0 -19.5q-2 -8 -6 -2q-2 3 -6.5 13t-7.5 14q1 -18 -1 -27zM147 231q-6 -1 -9 3.5t-3 11.5q0 3 2.5 3t2.5 -3q0 -5 2 -8
t6 -2t3.5 5.5t-4.5 8.5l-4.5 4.5t-4.5 6.5q-2 8 3 11t10 -3v3q1 2 4 -1v-10v-2l-3 1q-2 6 -4 7q-3 2 -5 0t0 -5l6 -6q6 -7 7 -13q2 -12 -9 -12zM61 233q-3 6 -6.5 20.5t-4.5 16.5t3 3l2 -1q2 -6 4 -17t4 -17h1q1 14 4 33q1 3 4 2l1 -3q0 -2 -2.5 -17t-3.5 -20q0 -4 -4 -2
q-1 0 -2 2zM84 230q-3 0 -3 3q-1 1 -1 11v23q-3 1 -2 3t3 3h16q3 0 3 -3t-3 -3h-12v-11h11q4 1 4 -3q0 -1 -2 -2q-5 -1 -12 -1v-14l12 1q6 0 3 -4q-2 -2 -4 -2q-1 0 -5.5 -0.5t-7.5 -0.5zM131 231q-5 1 -11 9.5t-7 9.5q0 -10 1 -18q0 -2 -3 -2t-3 2q0 32 -1 35
q-3 0 -3.5 2.5t2.5 3.5h7q16 0 17 -11q0 -7 -7 -9q-1 -1 -4 -1q7 -15 13 -16q2 0 1 -4q0 -2 -2 -1zM162 231q-2 0 -2 2.5t2 2.5h3v32l-4 -1q-3 0 -1 4q0 2 2 2h13q2 -2 1 -5h-5v-32h4q2 0 2 -2.5t-2 -2.5h-13zM191 231q-5 -1 -8.5 4.5t-3.5 13.5q0 15 6 21h1l2 1q1 4 4 1
q4 0 6 -5q6 -5 5 -20.5t-12 -15.5zM212 233q-1 -4 -4 -2l-1 3q2 17 1 36q0 3 3 2q1 0 2 -2q12 -23 16 -29q-2 16 -2 29q2 1 5 1q0 -3 1 -16.5t0 -19.5q-2 -8 -6 -2q-2 3 -6.5 13t-7.5 14q1 -18 -1 -27zM115 255q6 0 8.5 3t0 6.5t-8.5 3.5h-2v-13h2zM188 237q4 -3 7 0
q9 9 0 26q-3 7 -8 1q-4 -5 -3 -14.5t4 -12.5z" />
    <glyph glyph-name="brokenbar" unicode="&#xa6;" 
d="M332 451v-261h-319v261h319zM19 196h307v249h-307v-249zM87 377q-4 7 -7.5 21.5t-3.5 15.5q-1 2 3 3q1 1 2 -1q1 -3 3.5 -15t4.5 -19q2 23 5 33q0 3 4 2l1 -3q-2 -7 -3.5 -20t-2.5 -17q-1 -2 -3 -2.5t-3 2.5zM208 376q-5 1 -3 4l4 1q0 3 0.5 8t0.5 8q-3 0 -4 2q-2 3 2 3
h2l-1 10h-1q-2 0 -3 1q-1 3 2 4q21 0 22 -8q0 -7 -7 -9q3 0 6 -3q5 -4 3 -12t-10 -9q-4 -1 -7 0q-3 -5 -6 0zM56 377q-1 -4 -5 -2q-1 1 -1 3l3 13q-3 0 -3 2l2 2h2q2 4 5 19q4 6 6 1l5 -19h3q3 -1 2 -4q-1 -1 -3 -1h-1q1 -6 4 -12q1 -5 -3 -4q-1 0 -2 2t-2.5 7.5t-1.5 6.5
h-8zM106 377q0 -4 -4 -2q-2 0 -1 3q0 2 1 6t1 7q-2 0 -2 2t2 2h2q4 17 5 19t3 2.5t3 -1.5l5 -19h2q4 -1 2 -4l-2 -1h-1q1 -3 2 -7t1 -5q2 -5 -2 -4q-2 0 -3 2q-3 12 -3 14h-8zM130 375q-2 0 -2 2.5t2 2.5h4v32l-4 -1q-4 0 -2 4q0 2 2 2h4h6h3q2 -2 1 -5h-5v-32h4q1 -2 1 -5
h-14zM155 374q-3 0 -3 4q0 6 -1 18.5t-1 17.5q0 3 3 3t3 -3q0 -8 1 -19t0 -16h12q-1 2 -1 6q1 2 3 1.5t2 -2.5v-8q0 -2 -4 -2h-14zM183 377q-1 -4 -5 -2q-1 1 -1 3l3 13q-3 0 -3 2l2 2h2q1 2 3 9.5t3 9.5t2.5 2.5t2.5 -1.5l5 -19h3q3 -1 2 -4l-3 -1q1 -9 3 -12q1 -5 -3 -4
q-1 0 -2 2q-3 6 -3 14h-9zM241 374q-3 0 -3 4q0 6 -1 18.5t-1 17.5q0 3 3 3t3 -3q0 -8 1 -19t0 -16h12q-1 3 0 6q0 2 2 1.5t2 -2.5v-2v-3v-3q0 -2 -4 -2h-14zM268 374l-3 3v34q-3 1 -2.5 3t2.5 3h17q3 0 3 -3t-3 -3h-12v-11h10q4 1 4 -3q0 -1 -2 -2q-4 -1 -12 -1v-14l13 1
q5 0 2 -4q-1 -2 -3 -2t-6.5 -0.5t-7.5 -0.5zM218 402q3 1 4.5 3t0.5 4.5t-5 2.5h-4l1 -10h3zM65 396q0 1 -0.5 3t-1 4.5t-0.5 4.5h-1q0 -2 -1 -6.5t-1 -5.5h5zM116 396q-1 2 -3 12q0 -1 -1 -6t-2 -6h6zM192 396q0 1 -0.5 3t-1 4.5t-0.5 4.5h-1q0 -2 -1 -6.5t-1 -5.5h5z
M218 380q8 1 8.5 8t-6.5 9h-5l-1 -17h4zM140 304q2 4 0 13q-2 -1 -2 0q-2 0 -2 2t2 2h2v21q0 4 3 3q2 0 2 -2v-22h13q-1 8 -1 22q0 3 3 3q2 -1 2 -3q0 -8 1 -22t1 -15q0 -2 -2 -3q-3 -2 -3 2q0 8 -1 12h-12v-13q-2 -1 -6 0zM243 302q-9 1 -9 18q0 9 -1 22q0 5 4 3q2 0 2 -2
v-21q0 -14 5 -14q9 0 5 35q0 3 3 2l2 -3l1 -10q1 -10 0 -14q0 -16 -12 -16zM50 303q-2 0 -2 2.5t2 2.5h4v32l-4 -1q-2 0 -2 2.5t2 3.5h13q3 0 3 -2q2 -3 -2 -3h-5v-32h5q2 0 2 -2.5t-2 -2.5q-1 -1 -7 -0.5t-7 0.5zM121 304v36q-5 0 -8 -1q-3 0 -1 4q1 2 2 2h20q1 -2 -1 -6
h-7v-34q-2 -1 -5 -1zM175 302q-3 0 -3 3q-1 1 -1 11v23q-3 1 -2 3t3 3h16q3 0 3 -3t-3 -3h-11l-1 -11h11q4 1 4 -3q0 -1 -2 -2q-5 -1 -12 -1v-14l12 1q6 0 3 -4q-2 -2 -4 -2q-1 0 -5.5 -0.5t-7.5 -0.5zM266 302q-3 0 -3 4q0 6 -1 18.5t-1 17.5q0 3 3 3t3 -3q0 -8 1 -19
t0 -16h12q-2 3 0 6q0 2 2 1.5t2 -2.5v-2v-3v-3q0 -2 -4 -2h-14zM293 302q-3 0 -3 4q1 7 0 20t-1 16t2.5 3t2.5 -3q0 -10 1 -20.5t1 -14.5h11v6q0 2 3 1l2 -2v-8q-1 -2 -4 -2h-15zM208 340q0 4 2 4q12 1 17 0q2 0 2 -3q0 -1 -2 -2q-1 -1 -4 1h-10q0 -12 1 -15h10q2 1 2 -1
q1 -3 -1 -4h-11v-15q0 -2 -3 -2.5t-3 2.5v35zM75 305q0 -4 -4 -2l-1 3q2 17 1 36q0 3 3 2q1 0 2 -2q12 -23 16 -29q-2 16 -2 29q2 1 5 1q0 -3 1 -16.5t0 -19.5q-2 -8 -6 -2q-2 3 -6.5 13t-7.5 14q1 -18 -1 -27zM147 231q-6 -1 -9 3.5t-3 11.5q0 3 2.5 3t2.5 -3q0 -5 2 -8
t6 -2t3.5 5.5t-4.5 8.5l-4.5 4.5t-4.5 6.5q-2 8 3 11t10 -3v3q1 2 4 -1v-10v-2l-3 1q-2 6 -4 7q-3 2 -5 0t0 -5l6 -6q6 -7 7 -13q2 -12 -9 -12zM61 233q-3 6 -6.5 20.5t-4.5 16.5t3 3l2 -1q2 -6 4 -17t4 -17h1q1 14 4 33q1 3 4 2l1 -3q0 -2 -2.5 -17t-3.5 -20q0 -4 -4 -2
q-1 0 -2 2zM84 230q-3 0 -3 3q-1 1 -1 11v23q-3 1 -2 3t3 3h16q3 0 3 -3t-3 -3h-12v-11h11q4 1 4 -3q0 -1 -2 -2q-5 -1 -12 -1v-14l12 1q6 0 3 -4q-2 -2 -4 -2q-1 0 -5.5 -0.5t-7.5 -0.5zM131 231q-5 1 -11 9.5t-7 9.5q0 -10 1 -18q0 -2 -3 -2t-3 2q0 32 -1 35
q-3 0 -3.5 2.5t2.5 3.5h7q16 0 17 -11q0 -7 -7 -9q-1 -1 -4 -1q7 -15 13 -16q2 0 1 -4q0 -2 -2 -1zM162 231q-2 0 -2 2.5t2 2.5h3v32l-4 -1q-3 0 -1 4q0 2 2 2h13q2 -2 1 -5h-5v-32h4q2 0 2 -2.5t-2 -2.5h-13zM191 231q-5 -1 -8.5 4.5t-3.5 13.5q0 15 6 21h1l2 1q1 4 4 1
q4 0 6 -5q6 -5 5 -20.5t-12 -15.5zM212 233q-1 -4 -4 -2l-1 3q2 17 1 36q0 3 3 2q1 0 2 -2q12 -23 16 -29q-2 16 -2 29q2 1 5 1q0 -3 1 -16.5t0 -19.5q-2 -8 -6 -2q-2 3 -6.5 13t-7.5 14q1 -18 -1 -27zM115 255q6 0 8.5 3t0 6.5t-8.5 3.5h-2v-13h2zM188 237q4 -3 7 0
q9 9 0 26q-3 7 -8 1q-4 -5 -3 -14.5t4 -12.5z" />
    <glyph glyph-name="section" unicode="&#xa7;" 
d="M332 451v-261h-319v261h319zM19 196h307v249h-307v-249zM87 377q-4 7 -7.5 21.5t-3.5 15.5q-1 2 3 3q1 1 2 -1q1 -3 3.5 -15t4.5 -19q2 23 5 33q0 3 4 2l1 -3q-2 -7 -3.5 -20t-2.5 -17q-1 -2 -3 -2.5t-3 2.5zM208 376q-5 1 -3 4l4 1q0 3 0.5 8t0.5 8q-3 0 -4 2q-2 3 2 3
h2l-1 10h-1q-2 0 -3 1q-1 3 2 4q21 0 22 -8q0 -7 -7 -9q3 0 6 -3q5 -4 3 -12t-10 -9q-4 -1 -7 0q-3 -5 -6 0zM56 377q-1 -4 -5 -2q-1 1 -1 3l3 13q-3 0 -3 2l2 2h2q2 4 5 19q4 6 6 1l5 -19h3q3 -1 2 -4q-1 -1 -3 -1h-1q1 -6 4 -12q1 -5 -3 -4q-1 0 -2 2t-2.5 7.5t-1.5 6.5
h-8zM106 377q0 -4 -4 -2q-2 0 -1 3q0 2 1 6t1 7q-2 0 -2 2t2 2h2q4 17 5 19t3 2.5t3 -1.5l5 -19h2q4 -1 2 -4l-2 -1h-1q1 -3 2 -7t1 -5q2 -5 -2 -4q-2 0 -3 2q-3 12 -3 14h-8zM130 375q-2 0 -2 2.5t2 2.5h4v32l-4 -1q-4 0 -2 4q0 2 2 2h4h6h3q2 -2 1 -5h-5v-32h4q1 -2 1 -5
h-14zM155 374q-3 0 -3 4q0 6 -1 18.5t-1 17.5q0 3 3 3t3 -3q0 -8 1 -19t0 -16h12q-1 2 -1 6q1 2 3 1.5t2 -2.5v-8q0 -2 -4 -2h-14zM183 377q-1 -4 -5 -2q-1 1 -1 3l3 13q-3 0 -3 2l2 2h2q1 2 3 9.5t3 9.5t2.5 2.5t2.5 -1.5l5 -19h3q3 -1 2 -4l-3 -1q1 -9 3 -12q1 -5 -3 -4
q-1 0 -2 2q-3 6 -3 14h-9zM241 374q-3 0 -3 4q0 6 -1 18.5t-1 17.5q0 3 3 3t3 -3q0 -8 1 -19t0 -16h12q-1 3 0 6q0 2 2 1.5t2 -2.5v-2v-3v-3q0 -2 -4 -2h-14zM268 374l-3 3v34q-3 1 -2.5 3t2.5 3h17q3 0 3 -3t-3 -3h-12v-11h10q4 1 4 -3q0 -1 -2 -2q-4 -1 -12 -1v-14l13 1
q5 0 2 -4q-1 -2 -3 -2t-6.5 -0.5t-7.5 -0.5zM218 402q3 1 4.5 3t0.5 4.5t-5 2.5h-4l1 -10h3zM65 396q0 1 -0.5 3t-1 4.5t-0.5 4.5h-1q0 -2 -1 -6.5t-1 -5.5h5zM116 396q-1 2 -3 12q0 -1 -1 -6t-2 -6h6zM192 396q0 1 -0.5 3t-1 4.5t-0.5 4.5h-1q0 -2 -1 -6.5t-1 -5.5h5z
M218 380q8 1 8.5 8t-6.5 9h-5l-1 -17h4zM140 304q2 4 0 13q-2 -1 -2 0q-2 0 -2 2t2 2h2v21q0 4 3 3q2 0 2 -2v-22h13q-1 8 -1 22q0 3 3 3q2 -1 2 -3q0 -8 1 -22t1 -15q0 -2 -2 -3q-3 -2 -3 2q0 8 -1 12h-12v-13q-2 -1 -6 0zM243 302q-9 1 -9 18q0 9 -1 22q0 5 4 3q2 0 2 -2
v-21q0 -14 5 -14q9 0 5 35q0 3 3 2l2 -3l1 -10q1 -10 0 -14q0 -16 -12 -16zM50 303q-2 0 -2 2.5t2 2.5h4v32l-4 -1q-2 0 -2 2.5t2 3.5h13q3 0 3 -2q2 -3 -2 -3h-5v-32h5q2 0 2 -2.5t-2 -2.5q-1 -1 -7 -0.5t-7 0.5zM121 304v36q-5 0 -8 -1q-3 0 -1 4q1 2 2 2h20q1 -2 -1 -6
h-7v-34q-2 -1 -5 -1zM175 302q-3 0 -3 3q-1 1 -1 11v23q-3 1 -2 3t3 3h16q3 0 3 -3t-3 -3h-11l-1 -11h11q4 1 4 -3q0 -1 -2 -2q-5 -1 -12 -1v-14l12 1q6 0 3 -4q-2 -2 -4 -2q-1 0 -5.5 -0.5t-7.5 -0.5zM266 302q-3 0 -3 4q0 6 -1 18.5t-1 17.5q0 3 3 3t3 -3q0 -8 1 -19
t0 -16h12q-2 3 0 6q0 2 2 1.5t2 -2.5v-2v-3v-3q0 -2 -4 -2h-14zM293 302q-3 0 -3 4q1 7 0 20t-1 16t2.5 3t2.5 -3q0 -10 1 -20.5t1 -14.5h11v6q0 2 3 1l2 -2v-8q-1 -2 -4 -2h-15zM208 340q0 4 2 4q12 1 17 0q2 0 2 -3q0 -1 -2 -2q-1 -1 -4 1h-10q0 -12 1 -15h10q2 1 2 -1
q1 -3 -1 -4h-11v-15q0 -2 -3 -2.5t-3 2.5v35zM75 305q0 -4 -4 -2l-1 3q2 17 1 36q0 3 3 2q1 0 2 -2q12 -23 16 -29q-2 16 -2 29q2 1 5 1q0 -3 1 -16.5t0 -19.5q-2 -8 -6 -2q-2 3 -6.5 13t-7.5 14q1 -18 -1 -27zM147 231q-6 -1 -9 3.5t-3 11.5q0 3 2.5 3t2.5 -3q0 -5 2 -8
t6 -2t3.5 5.5t-4.5 8.5l-4.5 4.5t-4.5 6.5q-2 8 3 11t10 -3v3q1 2 4 -1v-10v-2l-3 1q-2 6 -4 7q-3 2 -5 0t0 -5l6 -6q6 -7 7 -13q2 -12 -9 -12zM61 233q-3 6 -6.5 20.5t-4.5 16.5t3 3l2 -1q2 -6 4 -17t4 -17h1q1 14 4 33q1 3 4 2l1 -3q0 -2 -2.5 -17t-3.5 -20q0 -4 -4 -2
q-1 0 -2 2zM84 230q-3 0 -3 3q-1 1 -1 11v23q-3 1 -2 3t3 3h16q3 0 3 -3t-3 -3h-12v-11h11q4 1 4 -3q0 -1 -2 -2q-5 -1 -12 -1v-14l12 1q6 0 3 -4q-2 -2 -4 -2q-1 0 -5.5 -0.5t-7.5 -0.5zM131 231q-5 1 -11 9.5t-7 9.5q0 -10 1 -18q0 -2 -3 -2t-3 2q0 32 -1 35
q-3 0 -3.5 2.5t2.5 3.5h7q16 0 17 -11q0 -7 -7 -9q-1 -1 -4 -1q7 -15 13 -16q2 0 1 -4q0 -2 -2 -1zM162 231q-2 0 -2 2.5t2 2.5h3v32l-4 -1q-3 0 -1 4q0 2 2 2h13q2 -2 1 -5h-5v-32h4q2 0 2 -2.5t-2 -2.5h-13zM191 231q-5 -1 -8.5 4.5t-3.5 13.5q0 15 6 21h1l2 1q1 4 4 1
q4 0 6 -5q6 -5 5 -20.5t-12 -15.5zM212 233q-1 -4 -4 -2l-1 3q2 17 1 36q0 3 3 2q1 0 2 -2q12 -23 16 -29q-2 16 -2 29q2 1 5 1q0 -3 1 -16.5t0 -19.5q-2 -8 -6 -2q-2 3 -6.5 13t-7.5 14q1 -18 -1 -27zM115 255q6 0 8.5 3t0 6.5t-8.5 3.5h-2v-13h2zM188 237q4 -3 7 0
q9 9 0 26q-3 7 -8 1q-4 -5 -3 -14.5t4 -12.5z" />
    <glyph glyph-name="dieresis" unicode="&#xa8;" horiz-adv-x="247" 
d="M171 785q45 1 48 -25q3 -16 -11 -26t-36 -10q-17 0 -24 15t-0.5 30t23.5 16zM84 784q17 0 22.5 -15t-3 -30t-25.5 -15q-22 0 -36.5 9.5t-12.5 25.5q3 27 55 25z" />
    <glyph glyph-name="copyright" unicode="&#xa9;" 
d="M332 451v-261h-319v261h319zM19 196h307v249h-307v-249zM87 377q-4 7 -7.5 21.5t-3.5 15.5q-1 2 3 3q1 1 2 -1q1 -3 3.5 -15t4.5 -19q2 23 5 33q0 3 4 2l1 -3q-2 -7 -3.5 -20t-2.5 -17q-1 -2 -3 -2.5t-3 2.5zM208 376q-5 1 -3 4l4 1q0 3 0.5 8t0.5 8q-3 0 -4 2q-2 3 2 3
h2l-1 10h-1q-2 0 -3 1q-1 3 2 4q21 0 22 -8q0 -7 -7 -9q3 0 6 -3q5 -4 3 -12t-10 -9q-4 -1 -7 0q-3 -5 -6 0zM56 377q-1 -4 -5 -2q-1 1 -1 3l3 13q-3 0 -3 2l2 2h2q2 4 5 19q4 6 6 1l5 -19h3q3 -1 2 -4q-1 -1 -3 -1h-1q1 -6 4 -12q1 -5 -3 -4q-1 0 -2 2t-2.5 7.5t-1.5 6.5
h-8zM106 377q0 -4 -4 -2q-2 0 -1 3q0 2 1 6t1 7q-2 0 -2 2t2 2h2q4 17 5 19t3 2.5t3 -1.5l5 -19h2q4 -1 2 -4l-2 -1h-1q1 -3 2 -7t1 -5q2 -5 -2 -4q-2 0 -3 2q-3 12 -3 14h-8zM130 375q-2 0 -2 2.5t2 2.5h4v32l-4 -1q-4 0 -2 4q0 2 2 2h4h6h3q2 -2 1 -5h-5v-32h4q1 -2 1 -5
h-14zM155 374q-3 0 -3 4q0 6 -1 18.5t-1 17.5q0 3 3 3t3 -3q0 -8 1 -19t0 -16h12q-1 2 -1 6q1 2 3 1.5t2 -2.5v-8q0 -2 -4 -2h-14zM183 377q-1 -4 -5 -2q-1 1 -1 3l3 13q-3 0 -3 2l2 2h2q1 2 3 9.5t3 9.5t2.5 2.5t2.5 -1.5l5 -19h3q3 -1 2 -4l-3 -1q1 -9 3 -12q1 -5 -3 -4
q-1 0 -2 2q-3 6 -3 14h-9zM241 374q-3 0 -3 4q0 6 -1 18.5t-1 17.5q0 3 3 3t3 -3q0 -8 1 -19t0 -16h12q-1 3 0 6q0 2 2 1.5t2 -2.5v-2v-3v-3q0 -2 -4 -2h-14zM268 374l-3 3v34q-3 1 -2.5 3t2.5 3h17q3 0 3 -3t-3 -3h-12v-11h10q4 1 4 -3q0 -1 -2 -2q-4 -1 -12 -1v-14l13 1
q5 0 2 -4q-1 -2 -3 -2t-6.5 -0.5t-7.5 -0.5zM218 402q3 1 4.5 3t0.5 4.5t-5 2.5h-4l1 -10h3zM65 396q0 1 -0.5 3t-1 4.5t-0.5 4.5h-1q0 -2 -1 -6.5t-1 -5.5h5zM116 396q-1 2 -3 12q0 -1 -1 -6t-2 -6h6zM192 396q0 1 -0.5 3t-1 4.5t-0.5 4.5h-1q0 -2 -1 -6.5t-1 -5.5h5z
M218 380q8 1 8.5 8t-6.5 9h-5l-1 -17h4zM140 304q2 4 0 13q-2 -1 -2 0q-2 0 -2 2t2 2h2v21q0 4 3 3q2 0 2 -2v-22h13q-1 8 -1 22q0 3 3 3q2 -1 2 -3q0 -8 1 -22t1 -15q0 -2 -2 -3q-3 -2 -3 2q0 8 -1 12h-12v-13q-2 -1 -6 0zM243 302q-9 1 -9 18q0 9 -1 22q0 5 4 3q2 0 2 -2
v-21q0 -14 5 -14q9 0 5 35q0 3 3 2l2 -3l1 -10q1 -10 0 -14q0 -16 -12 -16zM50 303q-2 0 -2 2.5t2 2.5h4v32l-4 -1q-2 0 -2 2.5t2 3.5h13q3 0 3 -2q2 -3 -2 -3h-5v-32h5q2 0 2 -2.5t-2 -2.5q-1 -1 -7 -0.5t-7 0.5zM121 304v36q-5 0 -8 -1q-3 0 -1 4q1 2 2 2h20q1 -2 -1 -6
h-7v-34q-2 -1 -5 -1zM175 302q-3 0 -3 3q-1 1 -1 11v23q-3 1 -2 3t3 3h16q3 0 3 -3t-3 -3h-11l-1 -11h11q4 1 4 -3q0 -1 -2 -2q-5 -1 -12 -1v-14l12 1q6 0 3 -4q-2 -2 -4 -2q-1 0 -5.5 -0.5t-7.5 -0.5zM266 302q-3 0 -3 4q0 6 -1 18.5t-1 17.5q0 3 3 3t3 -3q0 -8 1 -19
t0 -16h12q-2 3 0 6q0 2 2 1.5t2 -2.5v-2v-3v-3q0 -2 -4 -2h-14zM293 302q-3 0 -3 4q1 7 0 20t-1 16t2.5 3t2.5 -3q0 -10 1 -20.5t1 -14.5h11v6q0 2 3 1l2 -2v-8q-1 -2 -4 -2h-15zM208 340q0 4 2 4q12 1 17 0q2 0 2 -3q0 -1 -2 -2q-1 -1 -4 1h-10q0 -12 1 -15h10q2 1 2 -1
q1 -3 -1 -4h-11v-15q0 -2 -3 -2.5t-3 2.5v35zM75 305q0 -4 -4 -2l-1 3q2 17 1 36q0 3 3 2q1 0 2 -2q12 -23 16 -29q-2 16 -2 29q2 1 5 1q0 -3 1 -16.5t0 -19.5q-2 -8 -6 -2q-2 3 -6.5 13t-7.5 14q1 -18 -1 -27zM147 231q-6 -1 -9 3.5t-3 11.5q0 3 2.5 3t2.5 -3q0 -5 2 -8
t6 -2t3.5 5.5t-4.5 8.5l-4.5 4.5t-4.5 6.5q-2 8 3 11t10 -3v3q1 2 4 -1v-10v-2l-3 1q-2 6 -4 7q-3 2 -5 0t0 -5l6 -6q6 -7 7 -13q2 -12 -9 -12zM61 233q-3 6 -6.5 20.5t-4.5 16.5t3 3l2 -1q2 -6 4 -17t4 -17h1q1 14 4 33q1 3 4 2l1 -3q0 -2 -2.5 -17t-3.5 -20q0 -4 -4 -2
q-1 0 -2 2zM84 230q-3 0 -3 3q-1 1 -1 11v23q-3 1 -2 3t3 3h16q3 0 3 -3t-3 -3h-12v-11h11q4 1 4 -3q0 -1 -2 -2q-5 -1 -12 -1v-14l12 1q6 0 3 -4q-2 -2 -4 -2q-1 0 -5.5 -0.5t-7.5 -0.5zM131 231q-5 1 -11 9.5t-7 9.5q0 -10 1 -18q0 -2 -3 -2t-3 2q0 32 -1 35
q-3 0 -3.5 2.5t2.5 3.5h7q16 0 17 -11q0 -7 -7 -9q-1 -1 -4 -1q7 -15 13 -16q2 0 1 -4q0 -2 -2 -1zM162 231q-2 0 -2 2.5t2 2.5h3v32l-4 -1q-3 0 -1 4q0 2 2 2h13q2 -2 1 -5h-5v-32h4q2 0 2 -2.5t-2 -2.5h-13zM191 231q-5 -1 -8.5 4.5t-3.5 13.5q0 15 6 21h1l2 1q1 4 4 1
q4 0 6 -5q6 -5 5 -20.5t-12 -15.5zM212 233q-1 -4 -4 -2l-1 3q2 17 1 36q0 3 3 2q1 0 2 -2q12 -23 16 -29q-2 16 -2 29q2 1 5 1q0 -3 1 -16.5t0 -19.5q-2 -8 -6 -2q-2 3 -6.5 13t-7.5 14q1 -18 -1 -27zM115 255q6 0 8.5 3t0 6.5t-8.5 3.5h-2v-13h2zM188 237q4 -3 7 0
q9 9 0 26q-3 7 -8 1q-4 -5 -3 -14.5t4 -12.5z" />
    <glyph glyph-name="guillemotleft" unicode="&#xab;" 
d="M332 451v-261h-319v261h319zM19 196h307v249h-307v-249zM87 377q-4 7 -7.5 21.5t-3.5 15.5q-1 2 3 3q1 1 2 -1q1 -3 3.5 -15t4.5 -19q2 23 5 33q0 3 4 2l1 -3q-2 -7 -3.5 -20t-2.5 -17q-1 -2 -3 -2.5t-3 2.5zM208 376q-5 1 -3 4l4 1q0 3 0.5 8t0.5 8q-3 0 -4 2q-2 3 2 3
h2l-1 10h-1q-2 0 -3 1q-1 3 2 4q21 0 22 -8q0 -7 -7 -9q3 0 6 -3q5 -4 3 -12t-10 -9q-4 -1 -7 0q-3 -5 -6 0zM56 377q-1 -4 -5 -2q-1 1 -1 3l3 13q-3 0 -3 2l2 2h2q2 4 5 19q4 6 6 1l5 -19h3q3 -1 2 -4q-1 -1 -3 -1h-1q1 -6 4 -12q1 -5 -3 -4q-1 0 -2 2t-2.5 7.5t-1.5 6.5
h-8zM106 377q0 -4 -4 -2q-2 0 -1 3q0 2 1 6t1 7q-2 0 -2 2t2 2h2q4 17 5 19t3 2.5t3 -1.5l5 -19h2q4 -1 2 -4l-2 -1h-1q1 -3 2 -7t1 -5q2 -5 -2 -4q-2 0 -3 2q-3 12 -3 14h-8zM130 375q-2 0 -2 2.5t2 2.5h4v32l-4 -1q-4 0 -2 4q0 2 2 2h4h6h3q2 -2 1 -5h-5v-32h4q1 -2 1 -5
h-14zM155 374q-3 0 -3 4q0 6 -1 18.5t-1 17.5q0 3 3 3t3 -3q0 -8 1 -19t0 -16h12q-1 2 -1 6q1 2 3 1.5t2 -2.5v-8q0 -2 -4 -2h-14zM183 377q-1 -4 -5 -2q-1 1 -1 3l3 13q-3 0 -3 2l2 2h2q1 2 3 9.5t3 9.5t2.5 2.5t2.5 -1.5l5 -19h3q3 -1 2 -4l-3 -1q1 -9 3 -12q1 -5 -3 -4
q-1 0 -2 2q-3 6 -3 14h-9zM241 374q-3 0 -3 4q0 6 -1 18.5t-1 17.5q0 3 3 3t3 -3q0 -8 1 -19t0 -16h12q-1 3 0 6q0 2 2 1.5t2 -2.5v-2v-3v-3q0 -2 -4 -2h-14zM268 374l-3 3v34q-3 1 -2.5 3t2.5 3h17q3 0 3 -3t-3 -3h-12v-11h10q4 1 4 -3q0 -1 -2 -2q-4 -1 -12 -1v-14l13 1
q5 0 2 -4q-1 -2 -3 -2t-6.5 -0.5t-7.5 -0.5zM218 402q3 1 4.5 3t0.5 4.5t-5 2.5h-4l1 -10h3zM65 396q0 1 -0.5 3t-1 4.5t-0.5 4.5h-1q0 -2 -1 -6.5t-1 -5.5h5zM116 396q-1 2 -3 12q0 -1 -1 -6t-2 -6h6zM192 396q0 1 -0.5 3t-1 4.5t-0.5 4.5h-1q0 -2 -1 -6.5t-1 -5.5h5z
M218 380q8 1 8.5 8t-6.5 9h-5l-1 -17h4zM140 304q2 4 0 13q-2 -1 -2 0q-2 0 -2 2t2 2h2v21q0 4 3 3q2 0 2 -2v-22h13q-1 8 -1 22q0 3 3 3q2 -1 2 -3q0 -8 1 -22t1 -15q0 -2 -2 -3q-3 -2 -3 2q0 8 -1 12h-12v-13q-2 -1 -6 0zM243 302q-9 1 -9 18q0 9 -1 22q0 5 4 3q2 0 2 -2
v-21q0 -14 5 -14q9 0 5 35q0 3 3 2l2 -3l1 -10q1 -10 0 -14q0 -16 -12 -16zM50 303q-2 0 -2 2.5t2 2.5h4v32l-4 -1q-2 0 -2 2.5t2 3.5h13q3 0 3 -2q2 -3 -2 -3h-5v-32h5q2 0 2 -2.5t-2 -2.5q-1 -1 -7 -0.5t-7 0.5zM121 304v36q-5 0 -8 -1q-3 0 -1 4q1 2 2 2h20q1 -2 -1 -6
h-7v-34q-2 -1 -5 -1zM175 302q-3 0 -3 3q-1 1 -1 11v23q-3 1 -2 3t3 3h16q3 0 3 -3t-3 -3h-11l-1 -11h11q4 1 4 -3q0 -1 -2 -2q-5 -1 -12 -1v-14l12 1q6 0 3 -4q-2 -2 -4 -2q-1 0 -5.5 -0.5t-7.5 -0.5zM266 302q-3 0 -3 4q0 6 -1 18.5t-1 17.5q0 3 3 3t3 -3q0 -8 1 -19
t0 -16h12q-2 3 0 6q0 2 2 1.5t2 -2.5v-2v-3v-3q0 -2 -4 -2h-14zM293 302q-3 0 -3 4q1 7 0 20t-1 16t2.5 3t2.5 -3q0 -10 1 -20.5t1 -14.5h11v6q0 2 3 1l2 -2v-8q-1 -2 -4 -2h-15zM208 340q0 4 2 4q12 1 17 0q2 0 2 -3q0 -1 -2 -2q-1 -1 -4 1h-10q0 -12 1 -15h10q2 1 2 -1
q1 -3 -1 -4h-11v-15q0 -2 -3 -2.5t-3 2.5v35zM75 305q0 -4 -4 -2l-1 3q2 17 1 36q0 3 3 2q1 0 2 -2q12 -23 16 -29q-2 16 -2 29q2 1 5 1q0 -3 1 -16.5t0 -19.5q-2 -8 -6 -2q-2 3 -6.5 13t-7.5 14q1 -18 -1 -27zM147 231q-6 -1 -9 3.5t-3 11.5q0 3 2.5 3t2.5 -3q0 -5 2 -8
t6 -2t3.5 5.5t-4.5 8.5l-4.5 4.5t-4.5 6.5q-2 8 3 11t10 -3v3q1 2 4 -1v-10v-2l-3 1q-2 6 -4 7q-3 2 -5 0t0 -5l6 -6q6 -7 7 -13q2 -12 -9 -12zM61 233q-3 6 -6.5 20.5t-4.5 16.5t3 3l2 -1q2 -6 4 -17t4 -17h1q1 14 4 33q1 3 4 2l1 -3q0 -2 -2.5 -17t-3.5 -20q0 -4 -4 -2
q-1 0 -2 2zM84 230q-3 0 -3 3q-1 1 -1 11v23q-3 1 -2 3t3 3h16q3 0 3 -3t-3 -3h-12v-11h11q4 1 4 -3q0 -1 -2 -2q-5 -1 -12 -1v-14l12 1q6 0 3 -4q-2 -2 -4 -2q-1 0 -5.5 -0.5t-7.5 -0.5zM131 231q-5 1 -11 9.5t-7 9.5q0 -10 1 -18q0 -2 -3 -2t-3 2q0 32 -1 35
q-3 0 -3.5 2.5t2.5 3.5h7q16 0 17 -11q0 -7 -7 -9q-1 -1 -4 -1q7 -15 13 -16q2 0 1 -4q0 -2 -2 -1zM162 231q-2 0 -2 2.5t2 2.5h3v32l-4 -1q-3 0 -1 4q0 2 2 2h13q2 -2 1 -5h-5v-32h4q2 0 2 -2.5t-2 -2.5h-13zM191 231q-5 -1 -8.5 4.5t-3.5 13.5q0 15 6 21h1l2 1q1 4 4 1
q4 0 6 -5q6 -5 5 -20.5t-12 -15.5zM212 233q-1 -4 -4 -2l-1 3q2 17 1 36q0 3 3 2q1 0 2 -2q12 -23 16 -29q-2 16 -2 29q2 1 5 1q0 -3 1 -16.5t0 -19.5q-2 -8 -6 -2q-2 3 -6.5 13t-7.5 14q1 -18 -1 -27zM115 255q6 0 8.5 3t0 6.5t-8.5 3.5h-2v-13h2zM188 237q4 -3 7 0
q9 9 0 26q-3 7 -8 1q-4 -5 -3 -14.5t4 -12.5z" />
    <glyph glyph-name="logicalnot" unicode="&#xac;" 
d="M332 451v-261h-319v261h319zM19 196h307v249h-307v-249zM87 377q-4 7 -7.5 21.5t-3.5 15.5q-1 2 3 3q1 1 2 -1q1 -3 3.5 -15t4.5 -19q2 23 5 33q0 3 4 2l1 -3q-2 -7 -3.5 -20t-2.5 -17q-1 -2 -3 -2.5t-3 2.5zM208 376q-5 1 -3 4l4 1q0 3 0.5 8t0.5 8q-3 0 -4 2q-2 3 2 3
h2l-1 10h-1q-2 0 -3 1q-1 3 2 4q21 0 22 -8q0 -7 -7 -9q3 0 6 -3q5 -4 3 -12t-10 -9q-4 -1 -7 0q-3 -5 -6 0zM56 377q-1 -4 -5 -2q-1 1 -1 3l3 13q-3 0 -3 2l2 2h2q2 4 5 19q4 6 6 1l5 -19h3q3 -1 2 -4q-1 -1 -3 -1h-1q1 -6 4 -12q1 -5 -3 -4q-1 0 -2 2t-2.5 7.5t-1.5 6.5
h-8zM106 377q0 -4 -4 -2q-2 0 -1 3q0 2 1 6t1 7q-2 0 -2 2t2 2h2q4 17 5 19t3 2.5t3 -1.5l5 -19h2q4 -1 2 -4l-2 -1h-1q1 -3 2 -7t1 -5q2 -5 -2 -4q-2 0 -3 2q-3 12 -3 14h-8zM130 375q-2 0 -2 2.5t2 2.5h4v32l-4 -1q-4 0 -2 4q0 2 2 2h4h6h3q2 -2 1 -5h-5v-32h4q1 -2 1 -5
h-14zM155 374q-3 0 -3 4q0 6 -1 18.5t-1 17.5q0 3 3 3t3 -3q0 -8 1 -19t0 -16h12q-1 2 -1 6q1 2 3 1.5t2 -2.5v-8q0 -2 -4 -2h-14zM183 377q-1 -4 -5 -2q-1 1 -1 3l3 13q-3 0 -3 2l2 2h2q1 2 3 9.5t3 9.5t2.5 2.5t2.5 -1.5l5 -19h3q3 -1 2 -4l-3 -1q1 -9 3 -12q1 -5 -3 -4
q-1 0 -2 2q-3 6 -3 14h-9zM241 374q-3 0 -3 4q0 6 -1 18.5t-1 17.5q0 3 3 3t3 -3q0 -8 1 -19t0 -16h12q-1 3 0 6q0 2 2 1.5t2 -2.5v-2v-3v-3q0 -2 -4 -2h-14zM268 374l-3 3v34q-3 1 -2.5 3t2.5 3h17q3 0 3 -3t-3 -3h-12v-11h10q4 1 4 -3q0 -1 -2 -2q-4 -1 -12 -1v-14l13 1
q5 0 2 -4q-1 -2 -3 -2t-6.5 -0.5t-7.5 -0.5zM218 402q3 1 4.5 3t0.5 4.5t-5 2.5h-4l1 -10h3zM65 396q0 1 -0.5 3t-1 4.5t-0.5 4.5h-1q0 -2 -1 -6.5t-1 -5.5h5zM116 396q-1 2 -3 12q0 -1 -1 -6t-2 -6h6zM192 396q0 1 -0.5 3t-1 4.5t-0.5 4.5h-1q0 -2 -1 -6.5t-1 -5.5h5z
M218 380q8 1 8.5 8t-6.5 9h-5l-1 -17h4zM140 304q2 4 0 13q-2 -1 -2 0q-2 0 -2 2t2 2h2v21q0 4 3 3q2 0 2 -2v-22h13q-1 8 -1 22q0 3 3 3q2 -1 2 -3q0 -8 1 -22t1 -15q0 -2 -2 -3q-3 -2 -3 2q0 8 -1 12h-12v-13q-2 -1 -6 0zM243 302q-9 1 -9 18q0 9 -1 22q0 5 4 3q2 0 2 -2
v-21q0 -14 5 -14q9 0 5 35q0 3 3 2l2 -3l1 -10q1 -10 0 -14q0 -16 -12 -16zM50 303q-2 0 -2 2.5t2 2.5h4v32l-4 -1q-2 0 -2 2.5t2 3.5h13q3 0 3 -2q2 -3 -2 -3h-5v-32h5q2 0 2 -2.5t-2 -2.5q-1 -1 -7 -0.5t-7 0.5zM121 304v36q-5 0 -8 -1q-3 0 -1 4q1 2 2 2h20q1 -2 -1 -6
h-7v-34q-2 -1 -5 -1zM175 302q-3 0 -3 3q-1 1 -1 11v23q-3 1 -2 3t3 3h16q3 0 3 -3t-3 -3h-11l-1 -11h11q4 1 4 -3q0 -1 -2 -2q-5 -1 -12 -1v-14l12 1q6 0 3 -4q-2 -2 -4 -2q-1 0 -5.5 -0.5t-7.5 -0.5zM266 302q-3 0 -3 4q0 6 -1 18.5t-1 17.5q0 3 3 3t3 -3q0 -8 1 -19
t0 -16h12q-2 3 0 6q0 2 2 1.5t2 -2.5v-2v-3v-3q0 -2 -4 -2h-14zM293 302q-3 0 -3 4q1 7 0 20t-1 16t2.5 3t2.5 -3q0 -10 1 -20.5t1 -14.5h11v6q0 2 3 1l2 -2v-8q-1 -2 -4 -2h-15zM208 340q0 4 2 4q12 1 17 0q2 0 2 -3q0 -1 -2 -2q-1 -1 -4 1h-10q0 -12 1 -15h10q2 1 2 -1
q1 -3 -1 -4h-11v-15q0 -2 -3 -2.5t-3 2.5v35zM75 305q0 -4 -4 -2l-1 3q2 17 1 36q0 3 3 2q1 0 2 -2q12 -23 16 -29q-2 16 -2 29q2 1 5 1q0 -3 1 -16.5t0 -19.5q-2 -8 -6 -2q-2 3 -6.5 13t-7.5 14q1 -18 -1 -27zM147 231q-6 -1 -9 3.5t-3 11.5q0 3 2.5 3t2.5 -3q0 -5 2 -8
t6 -2t3.5 5.5t-4.5 8.5l-4.5 4.5t-4.5 6.5q-2 8 3 11t10 -3v3q1 2 4 -1v-10v-2l-3 1q-2 6 -4 7q-3 2 -5 0t0 -5l6 -6q6 -7 7 -13q2 -12 -9 -12zM61 233q-3 6 -6.5 20.5t-4.5 16.5t3 3l2 -1q2 -6 4 -17t4 -17h1q1 14 4 33q1 3 4 2l1 -3q0 -2 -2.5 -17t-3.5 -20q0 -4 -4 -2
q-1 0 -2 2zM84 230q-3 0 -3 3q-1 1 -1 11v23q-3 1 -2 3t3 3h16q3 0 3 -3t-3 -3h-12v-11h11q4 1 4 -3q0 -1 -2 -2q-5 -1 -12 -1v-14l12 1q6 0 3 -4q-2 -2 -4 -2q-1 0 -5.5 -0.5t-7.5 -0.5zM131 231q-5 1 -11 9.5t-7 9.5q0 -10 1 -18q0 -2 -3 -2t-3 2q0 32 -1 35
q-3 0 -3.5 2.5t2.5 3.5h7q16 0 17 -11q0 -7 -7 -9q-1 -1 -4 -1q7 -15 13 -16q2 0 1 -4q0 -2 -2 -1zM162 231q-2 0 -2 2.5t2 2.5h3v32l-4 -1q-3 0 -1 4q0 2 2 2h13q2 -2 1 -5h-5v-32h4q2 0 2 -2.5t-2 -2.5h-13zM191 231q-5 -1 -8.5 4.5t-3.5 13.5q0 15 6 21h1l2 1q1 4 4 1
q4 0 6 -5q6 -5 5 -20.5t-12 -15.5zM212 233q-1 -4 -4 -2l-1 3q2 17 1 36q0 3 3 2q1 0 2 -2q12 -23 16 -29q-2 16 -2 29q2 1 5 1q0 -3 1 -16.5t0 -19.5q-2 -8 -6 -2q-2 3 -6.5 13t-7.5 14q1 -18 -1 -27zM115 255q6 0 8.5 3t0 6.5t-8.5 3.5h-2v-13h2zM188 237q4 -3 7 0
q9 9 0 26q-3 7 -8 1q-4 -5 -3 -14.5t4 -12.5z" />
    <glyph glyph-name="registered" unicode="&#xae;" 
d="M332 451v-261h-319v261h319zM19 196h307v249h-307v-249zM87 377q-4 7 -7.5 21.5t-3.5 15.5q-1 2 3 3q1 1 2 -1q1 -3 3.5 -15t4.5 -19q2 23 5 33q0 3 4 2l1 -3q-2 -7 -3.5 -20t-2.5 -17q-1 -2 -3 -2.5t-3 2.5zM208 376q-5 1 -3 4l4 1q0 3 0.5 8t0.5 8q-3 0 -4 2q-2 3 2 3
h2l-1 10h-1q-2 0 -3 1q-1 3 2 4q21 0 22 -8q0 -7 -7 -9q3 0 6 -3q5 -4 3 -12t-10 -9q-4 -1 -7 0q-3 -5 -6 0zM56 377q-1 -4 -5 -2q-1 1 -1 3l3 13q-3 0 -3 2l2 2h2q2 4 5 19q4 6 6 1l5 -19h3q3 -1 2 -4q-1 -1 -3 -1h-1q1 -6 4 -12q1 -5 -3 -4q-1 0 -2 2t-2.5 7.5t-1.5 6.5
h-8zM106 377q0 -4 -4 -2q-2 0 -1 3q0 2 1 6t1 7q-2 0 -2 2t2 2h2q4 17 5 19t3 2.5t3 -1.5l5 -19h2q4 -1 2 -4l-2 -1h-1q1 -3 2 -7t1 -5q2 -5 -2 -4q-2 0 -3 2q-3 12 -3 14h-8zM130 375q-2 0 -2 2.5t2 2.5h4v32l-4 -1q-4 0 -2 4q0 2 2 2h4h6h3q2 -2 1 -5h-5v-32h4q1 -2 1 -5
h-14zM155 374q-3 0 -3 4q0 6 -1 18.5t-1 17.5q0 3 3 3t3 -3q0 -8 1 -19t0 -16h12q-1 2 -1 6q1 2 3 1.5t2 -2.5v-8q0 -2 -4 -2h-14zM183 377q-1 -4 -5 -2q-1 1 -1 3l3 13q-3 0 -3 2l2 2h2q1 2 3 9.5t3 9.5t2.5 2.5t2.5 -1.5l5 -19h3q3 -1 2 -4l-3 -1q1 -9 3 -12q1 -5 -3 -4
q-1 0 -2 2q-3 6 -3 14h-9zM241 374q-3 0 -3 4q0 6 -1 18.5t-1 17.5q0 3 3 3t3 -3q0 -8 1 -19t0 -16h12q-1 3 0 6q0 2 2 1.5t2 -2.5v-2v-3v-3q0 -2 -4 -2h-14zM268 374l-3 3v34q-3 1 -2.5 3t2.5 3h17q3 0 3 -3t-3 -3h-12v-11h10q4 1 4 -3q0 -1 -2 -2q-4 -1 -12 -1v-14l13 1
q5 0 2 -4q-1 -2 -3 -2t-6.5 -0.5t-7.5 -0.5zM218 402q3 1 4.5 3t0.5 4.5t-5 2.5h-4l1 -10h3zM65 396q0 1 -0.5 3t-1 4.5t-0.5 4.5h-1q0 -2 -1 -6.5t-1 -5.5h5zM116 396q-1 2 -3 12q0 -1 -1 -6t-2 -6h6zM192 396q0 1 -0.5 3t-1 4.5t-0.5 4.5h-1q0 -2 -1 -6.5t-1 -5.5h5z
M218 380q8 1 8.5 8t-6.5 9h-5l-1 -17h4zM140 304q2 4 0 13q-2 -1 -2 0q-2 0 -2 2t2 2h2v21q0 4 3 3q2 0 2 -2v-22h13q-1 8 -1 22q0 3 3 3q2 -1 2 -3q0 -8 1 -22t1 -15q0 -2 -2 -3q-3 -2 -3 2q0 8 -1 12h-12v-13q-2 -1 -6 0zM243 302q-9 1 -9 18q0 9 -1 22q0 5 4 3q2 0 2 -2
v-21q0 -14 5 -14q9 0 5 35q0 3 3 2l2 -3l1 -10q1 -10 0 -14q0 -16 -12 -16zM50 303q-2 0 -2 2.5t2 2.5h4v32l-4 -1q-2 0 -2 2.5t2 3.5h13q3 0 3 -2q2 -3 -2 -3h-5v-32h5q2 0 2 -2.5t-2 -2.5q-1 -1 -7 -0.5t-7 0.5zM121 304v36q-5 0 -8 -1q-3 0 -1 4q1 2 2 2h20q1 -2 -1 -6
h-7v-34q-2 -1 -5 -1zM175 302q-3 0 -3 3q-1 1 -1 11v23q-3 1 -2 3t3 3h16q3 0 3 -3t-3 -3h-11l-1 -11h11q4 1 4 -3q0 -1 -2 -2q-5 -1 -12 -1v-14l12 1q6 0 3 -4q-2 -2 -4 -2q-1 0 -5.5 -0.5t-7.5 -0.5zM266 302q-3 0 -3 4q0 6 -1 18.5t-1 17.5q0 3 3 3t3 -3q0 -8 1 -19
t0 -16h12q-2 3 0 6q0 2 2 1.5t2 -2.5v-2v-3v-3q0 -2 -4 -2h-14zM293 302q-3 0 -3 4q1 7 0 20t-1 16t2.5 3t2.5 -3q0 -10 1 -20.5t1 -14.5h11v6q0 2 3 1l2 -2v-8q-1 -2 -4 -2h-15zM208 340q0 4 2 4q12 1 17 0q2 0 2 -3q0 -1 -2 -2q-1 -1 -4 1h-10q0 -12 1 -15h10q2 1 2 -1
q1 -3 -1 -4h-11v-15q0 -2 -3 -2.5t-3 2.5v35zM75 305q0 -4 -4 -2l-1 3q2 17 1 36q0 3 3 2q1 0 2 -2q12 -23 16 -29q-2 16 -2 29q2 1 5 1q0 -3 1 -16.5t0 -19.5q-2 -8 -6 -2q-2 3 -6.5 13t-7.5 14q1 -18 -1 -27zM147 231q-6 -1 -9 3.5t-3 11.5q0 3 2.5 3t2.5 -3q0 -5 2 -8
t6 -2t3.5 5.5t-4.5 8.5l-4.5 4.5t-4.5 6.5q-2 8 3 11t10 -3v3q1 2 4 -1v-10v-2l-3 1q-2 6 -4 7q-3 2 -5 0t0 -5l6 -6q6 -7 7 -13q2 -12 -9 -12zM61 233q-3 6 -6.5 20.5t-4.5 16.5t3 3l2 -1q2 -6 4 -17t4 -17h1q1 14 4 33q1 3 4 2l1 -3q0 -2 -2.5 -17t-3.5 -20q0 -4 -4 -2
q-1 0 -2 2zM84 230q-3 0 -3 3q-1 1 -1 11v23q-3 1 -2 3t3 3h16q3 0 3 -3t-3 -3h-12v-11h11q4 1 4 -3q0 -1 -2 -2q-5 -1 -12 -1v-14l12 1q6 0 3 -4q-2 -2 -4 -2q-1 0 -5.5 -0.5t-7.5 -0.5zM131 231q-5 1 -11 9.5t-7 9.5q0 -10 1 -18q0 -2 -3 -2t-3 2q0 32 -1 35
q-3 0 -3.5 2.5t2.5 3.5h7q16 0 17 -11q0 -7 -7 -9q-1 -1 -4 -1q7 -15 13 -16q2 0 1 -4q0 -2 -2 -1zM162 231q-2 0 -2 2.5t2 2.5h3v32l-4 -1q-3 0 -1 4q0 2 2 2h13q2 -2 1 -5h-5v-32h4q2 0 2 -2.5t-2 -2.5h-13zM191 231q-5 -1 -8.5 4.5t-3.5 13.5q0 15 6 21h1l2 1q1 4 4 1
q4 0 6 -5q6 -5 5 -20.5t-12 -15.5zM212 233q-1 -4 -4 -2l-1 3q2 17 1 36q0 3 3 2q1 0 2 -2q12 -23 16 -29q-2 16 -2 29q2 1 5 1q0 -3 1 -16.5t0 -19.5q-2 -8 -6 -2q-2 3 -6.5 13t-7.5 14q1 -18 -1 -27zM115 255q6 0 8.5 3t0 6.5t-8.5 3.5h-2v-13h2zM188 237q4 -3 7 0
q9 9 0 26q-3 7 -8 1q-4 -5 -3 -14.5t4 -12.5z" />
    <glyph glyph-name="macron" unicode="&#xaf;" horiz-adv-x="243" 
d="M183 787q17 1 25.5 -10.5t3 -24t-23.5 -13.5q-58 -4 -126 0q-24 1 -30 22q-6 20 13 25q5 1 11 1q89 -3 127 0z" />
    <glyph glyph-name="degree" unicode="&#xb0;" 
d="M332 451v-261h-319v261h319zM19 196h307v249h-307v-249zM87 377q-4 7 -7.5 21.5t-3.5 15.5q-1 2 3 3q1 1 2 -1q1 -3 3.5 -15t4.5 -19q2 23 5 33q0 3 4 2l1 -3q-2 -7 -3.5 -20t-2.5 -17q-1 -2 -3 -2.5t-3 2.5zM208 376q-5 1 -3 4l4 1q0 3 0.5 8t0.5 8q-3 0 -4 2q-2 3 2 3
h2l-1 10h-1q-2 0 -3 1q-1 3 2 4q21 0 22 -8q0 -7 -7 -9q3 0 6 -3q5 -4 3 -12t-10 -9q-4 -1 -7 0q-3 -5 -6 0zM56 377q-1 -4 -5 -2q-1 1 -1 3l3 13q-3 0 -3 2l2 2h2q2 4 5 19q4 6 6 1l5 -19h3q3 -1 2 -4q-1 -1 -3 -1h-1q1 -6 4 -12q1 -5 -3 -4q-1 0 -2 2t-2.5 7.5t-1.5 6.5
h-8zM106 377q0 -4 -4 -2q-2 0 -1 3q0 2 1 6t1 7q-2 0 -2 2t2 2h2q4 17 5 19t3 2.5t3 -1.5l5 -19h2q4 -1 2 -4l-2 -1h-1q1 -3 2 -7t1 -5q2 -5 -2 -4q-2 0 -3 2q-3 12 -3 14h-8zM130 375q-2 0 -2 2.5t2 2.5h4v32l-4 -1q-4 0 -2 4q0 2 2 2h4h6h3q2 -2 1 -5h-5v-32h4q1 -2 1 -5
h-14zM155 374q-3 0 -3 4q0 6 -1 18.5t-1 17.5q0 3 3 3t3 -3q0 -8 1 -19t0 -16h12q-1 2 -1 6q1 2 3 1.5t2 -2.5v-8q0 -2 -4 -2h-14zM183 377q-1 -4 -5 -2q-1 1 -1 3l3 13q-3 0 -3 2l2 2h2q1 2 3 9.5t3 9.5t2.5 2.5t2.5 -1.5l5 -19h3q3 -1 2 -4l-3 -1q1 -9 3 -12q1 -5 -3 -4
q-1 0 -2 2q-3 6 -3 14h-9zM241 374q-3 0 -3 4q0 6 -1 18.5t-1 17.5q0 3 3 3t3 -3q0 -8 1 -19t0 -16h12q-1 3 0 6q0 2 2 1.5t2 -2.5v-2v-3v-3q0 -2 -4 -2h-14zM268 374l-3 3v34q-3 1 -2.5 3t2.5 3h17q3 0 3 -3t-3 -3h-12v-11h10q4 1 4 -3q0 -1 -2 -2q-4 -1 -12 -1v-14l13 1
q5 0 2 -4q-1 -2 -3 -2t-6.5 -0.5t-7.5 -0.5zM218 402q3 1 4.5 3t0.5 4.5t-5 2.5h-4l1 -10h3zM65 396q0 1 -0.5 3t-1 4.5t-0.5 4.5h-1q0 -2 -1 -6.5t-1 -5.5h5zM116 396q-1 2 -3 12q0 -1 -1 -6t-2 -6h6zM192 396q0 1 -0.5 3t-1 4.5t-0.5 4.5h-1q0 -2 -1 -6.5t-1 -5.5h5z
M218 380q8 1 8.5 8t-6.5 9h-5l-1 -17h4zM140 304q2 4 0 13q-2 -1 -2 0q-2 0 -2 2t2 2h2v21q0 4 3 3q2 0 2 -2v-22h13q-1 8 -1 22q0 3 3 3q2 -1 2 -3q0 -8 1 -22t1 -15q0 -2 -2 -3q-3 -2 -3 2q0 8 -1 12h-12v-13q-2 -1 -6 0zM243 302q-9 1 -9 18q0 9 -1 22q0 5 4 3q2 0 2 -2
v-21q0 -14 5 -14q9 0 5 35q0 3 3 2l2 -3l1 -10q1 -10 0 -14q0 -16 -12 -16zM50 303q-2 0 -2 2.5t2 2.5h4v32l-4 -1q-2 0 -2 2.5t2 3.5h13q3 0 3 -2q2 -3 -2 -3h-5v-32h5q2 0 2 -2.5t-2 -2.5q-1 -1 -7 -0.5t-7 0.5zM121 304v36q-5 0 -8 -1q-3 0 -1 4q1 2 2 2h20q1 -2 -1 -6
h-7v-34q-2 -1 -5 -1zM175 302q-3 0 -3 3q-1 1 -1 11v23q-3 1 -2 3t3 3h16q3 0 3 -3t-3 -3h-11l-1 -11h11q4 1 4 -3q0 -1 -2 -2q-5 -1 -12 -1v-14l12 1q6 0 3 -4q-2 -2 -4 -2q-1 0 -5.5 -0.5t-7.5 -0.5zM266 302q-3 0 -3 4q0 6 -1 18.5t-1 17.5q0 3 3 3t3 -3q0 -8 1 -19
t0 -16h12q-2 3 0 6q0 2 2 1.5t2 -2.5v-2v-3v-3q0 -2 -4 -2h-14zM293 302q-3 0 -3 4q1 7 0 20t-1 16t2.5 3t2.5 -3q0 -10 1 -20.5t1 -14.5h11v6q0 2 3 1l2 -2v-8q-1 -2 -4 -2h-15zM208 340q0 4 2 4q12 1 17 0q2 0 2 -3q0 -1 -2 -2q-1 -1 -4 1h-10q0 -12 1 -15h10q2 1 2 -1
q1 -3 -1 -4h-11v-15q0 -2 -3 -2.5t-3 2.5v35zM75 305q0 -4 -4 -2l-1 3q2 17 1 36q0 3 3 2q1 0 2 -2q12 -23 16 -29q-2 16 -2 29q2 1 5 1q0 -3 1 -16.5t0 -19.5q-2 -8 -6 -2q-2 3 -6.5 13t-7.5 14q1 -18 -1 -27zM147 231q-6 -1 -9 3.5t-3 11.5q0 3 2.5 3t2.5 -3q0 -5 2 -8
t6 -2t3.5 5.5t-4.5 8.5l-4.5 4.5t-4.5 6.5q-2 8 3 11t10 -3v3q1 2 4 -1v-10v-2l-3 1q-2 6 -4 7q-3 2 -5 0t0 -5l6 -6q6 -7 7 -13q2 -12 -9 -12zM61 233q-3 6 -6.5 20.5t-4.5 16.5t3 3l2 -1q2 -6 4 -17t4 -17h1q1 14 4 33q1 3 4 2l1 -3q0 -2 -2.5 -17t-3.5 -20q0 -4 -4 -2
q-1 0 -2 2zM84 230q-3 0 -3 3q-1 1 -1 11v23q-3 1 -2 3t3 3h16q3 0 3 -3t-3 -3h-12v-11h11q4 1 4 -3q0 -1 -2 -2q-5 -1 -12 -1v-14l12 1q6 0 3 -4q-2 -2 -4 -2q-1 0 -5.5 -0.5t-7.5 -0.5zM131 231q-5 1 -11 9.5t-7 9.5q0 -10 1 -18q0 -2 -3 -2t-3 2q0 32 -1 35
q-3 0 -3.5 2.5t2.5 3.5h7q16 0 17 -11q0 -7 -7 -9q-1 -1 -4 -1q7 -15 13 -16q2 0 1 -4q0 -2 -2 -1zM162 231q-2 0 -2 2.5t2 2.5h3v32l-4 -1q-3 0 -1 4q0 2 2 2h13q2 -2 1 -5h-5v-32h4q2 0 2 -2.5t-2 -2.5h-13zM191 231q-5 -1 -8.5 4.5t-3.5 13.5q0 15 6 21h1l2 1q1 4 4 1
q4 0 6 -5q6 -5 5 -20.5t-12 -15.5zM212 233q-1 -4 -4 -2l-1 3q2 17 1 36q0 3 3 2q1 0 2 -2q12 -23 16 -29q-2 16 -2 29q2 1 5 1q0 -3 1 -16.5t0 -19.5q-2 -8 -6 -2q-2 3 -6.5 13t-7.5 14q1 -18 -1 -27zM115 255q6 0 8.5 3t0 6.5t-8.5 3.5h-2v-13h2zM188 237q4 -3 7 0
q9 9 0 26q-3 7 -8 1q-4 -5 -3 -14.5t4 -12.5z" />
    <glyph glyph-name="plusminus" unicode="&#xb1;" 
d="M332 451v-261h-319v261h319zM19 196h307v249h-307v-249zM87 377q-4 7 -7.5 21.5t-3.5 15.5q-1 2 3 3q1 1 2 -1q1 -3 3.5 -15t4.5 -19q2 23 5 33q0 3 4 2l1 -3q-2 -7 -3.5 -20t-2.5 -17q-1 -2 -3 -2.5t-3 2.5zM208 376q-5 1 -3 4l4 1q0 3 0.5 8t0.5 8q-3 0 -4 2q-2 3 2 3
h2l-1 10h-1q-2 0 -3 1q-1 3 2 4q21 0 22 -8q0 -7 -7 -9q3 0 6 -3q5 -4 3 -12t-10 -9q-4 -1 -7 0q-3 -5 -6 0zM56 377q-1 -4 -5 -2q-1 1 -1 3l3 13q-3 0 -3 2l2 2h2q2 4 5 19q4 6 6 1l5 -19h3q3 -1 2 -4q-1 -1 -3 -1h-1q1 -6 4 -12q1 -5 -3 -4q-1 0 -2 2t-2.5 7.5t-1.5 6.5
h-8zM106 377q0 -4 -4 -2q-2 0 -1 3q0 2 1 6t1 7q-2 0 -2 2t2 2h2q4 17 5 19t3 2.5t3 -1.5l5 -19h2q4 -1 2 -4l-2 -1h-1q1 -3 2 -7t1 -5q2 -5 -2 -4q-2 0 -3 2q-3 12 -3 14h-8zM130 375q-2 0 -2 2.5t2 2.5h4v32l-4 -1q-4 0 -2 4q0 2 2 2h4h6h3q2 -2 1 -5h-5v-32h4q1 -2 1 -5
h-14zM155 374q-3 0 -3 4q0 6 -1 18.5t-1 17.5q0 3 3 3t3 -3q0 -8 1 -19t0 -16h12q-1 2 -1 6q1 2 3 1.5t2 -2.5v-8q0 -2 -4 -2h-14zM183 377q-1 -4 -5 -2q-1 1 -1 3l3 13q-3 0 -3 2l2 2h2q1 2 3 9.5t3 9.5t2.5 2.5t2.5 -1.5l5 -19h3q3 -1 2 -4l-3 -1q1 -9 3 -12q1 -5 -3 -4
q-1 0 -2 2q-3 6 -3 14h-9zM241 374q-3 0 -3 4q0 6 -1 18.5t-1 17.5q0 3 3 3t3 -3q0 -8 1 -19t0 -16h12q-1 3 0 6q0 2 2 1.5t2 -2.5v-2v-3v-3q0 -2 -4 -2h-14zM268 374l-3 3v34q-3 1 -2.5 3t2.5 3h17q3 0 3 -3t-3 -3h-12v-11h10q4 1 4 -3q0 -1 -2 -2q-4 -1 -12 -1v-14l13 1
q5 0 2 -4q-1 -2 -3 -2t-6.5 -0.5t-7.5 -0.5zM218 402q3 1 4.5 3t0.5 4.5t-5 2.5h-4l1 -10h3zM65 396q0 1 -0.5 3t-1 4.5t-0.5 4.5h-1q0 -2 -1 -6.5t-1 -5.5h5zM116 396q-1 2 -3 12q0 -1 -1 -6t-2 -6h6zM192 396q0 1 -0.5 3t-1 4.5t-0.5 4.5h-1q0 -2 -1 -6.5t-1 -5.5h5z
M218 380q8 1 8.5 8t-6.5 9h-5l-1 -17h4zM140 304q2 4 0 13q-2 -1 -2 0q-2 0 -2 2t2 2h2v21q0 4 3 3q2 0 2 -2v-22h13q-1 8 -1 22q0 3 3 3q2 -1 2 -3q0 -8 1 -22t1 -15q0 -2 -2 -3q-3 -2 -3 2q0 8 -1 12h-12v-13q-2 -1 -6 0zM243 302q-9 1 -9 18q0 9 -1 22q0 5 4 3q2 0 2 -2
v-21q0 -14 5 -14q9 0 5 35q0 3 3 2l2 -3l1 -10q1 -10 0 -14q0 -16 -12 -16zM50 303q-2 0 -2 2.5t2 2.5h4v32l-4 -1q-2 0 -2 2.5t2 3.5h13q3 0 3 -2q2 -3 -2 -3h-5v-32h5q2 0 2 -2.5t-2 -2.5q-1 -1 -7 -0.5t-7 0.5zM121 304v36q-5 0 -8 -1q-3 0 -1 4q1 2 2 2h20q1 -2 -1 -6
h-7v-34q-2 -1 -5 -1zM175 302q-3 0 -3 3q-1 1 -1 11v23q-3 1 -2 3t3 3h16q3 0 3 -3t-3 -3h-11l-1 -11h11q4 1 4 -3q0 -1 -2 -2q-5 -1 -12 -1v-14l12 1q6 0 3 -4q-2 -2 -4 -2q-1 0 -5.5 -0.5t-7.5 -0.5zM266 302q-3 0 -3 4q0 6 -1 18.5t-1 17.5q0 3 3 3t3 -3q0 -8 1 -19
t0 -16h12q-2 3 0 6q0 2 2 1.5t2 -2.5v-2v-3v-3q0 -2 -4 -2h-14zM293 302q-3 0 -3 4q1 7 0 20t-1 16t2.5 3t2.5 -3q0 -10 1 -20.5t1 -14.5h11v6q0 2 3 1l2 -2v-8q-1 -2 -4 -2h-15zM208 340q0 4 2 4q12 1 17 0q2 0 2 -3q0 -1 -2 -2q-1 -1 -4 1h-10q0 -12 1 -15h10q2 1 2 -1
q1 -3 -1 -4h-11v-15q0 -2 -3 -2.5t-3 2.5v35zM75 305q0 -4 -4 -2l-1 3q2 17 1 36q0 3 3 2q1 0 2 -2q12 -23 16 -29q-2 16 -2 29q2 1 5 1q0 -3 1 -16.5t0 -19.5q-2 -8 -6 -2q-2 3 -6.5 13t-7.5 14q1 -18 -1 -27zM147 231q-6 -1 -9 3.5t-3 11.5q0 3 2.5 3t2.5 -3q0 -5 2 -8
t6 -2t3.5 5.5t-4.5 8.5l-4.5 4.5t-4.5 6.5q-2 8 3 11t10 -3v3q1 2 4 -1v-10v-2l-3 1q-2 6 -4 7q-3 2 -5 0t0 -5l6 -6q6 -7 7 -13q2 -12 -9 -12zM61 233q-3 6 -6.5 20.5t-4.5 16.5t3 3l2 -1q2 -6 4 -17t4 -17h1q1 14 4 33q1 3 4 2l1 -3q0 -2 -2.5 -17t-3.5 -20q0 -4 -4 -2
q-1 0 -2 2zM84 230q-3 0 -3 3q-1 1 -1 11v23q-3 1 -2 3t3 3h16q3 0 3 -3t-3 -3h-12v-11h11q4 1 4 -3q0 -1 -2 -2q-5 -1 -12 -1v-14l12 1q6 0 3 -4q-2 -2 -4 -2q-1 0 -5.5 -0.5t-7.5 -0.5zM131 231q-5 1 -11 9.5t-7 9.5q0 -10 1 -18q0 -2 -3 -2t-3 2q0 32 -1 35
q-3 0 -3.5 2.5t2.5 3.5h7q16 0 17 -11q0 -7 -7 -9q-1 -1 -4 -1q7 -15 13 -16q2 0 1 -4q0 -2 -2 -1zM162 231q-2 0 -2 2.5t2 2.5h3v32l-4 -1q-3 0 -1 4q0 2 2 2h13q2 -2 1 -5h-5v-32h4q2 0 2 -2.5t-2 -2.5h-13zM191 231q-5 -1 -8.5 4.5t-3.5 13.5q0 15 6 21h1l2 1q1 4 4 1
q4 0 6 -5q6 -5 5 -20.5t-12 -15.5zM212 233q-1 -4 -4 -2l-1 3q2 17 1 36q0 3 3 2q1 0 2 -2q12 -23 16 -29q-2 16 -2 29q2 1 5 1q0 -3 1 -16.5t0 -19.5q-2 -8 -6 -2q-2 3 -6.5 13t-7.5 14q1 -18 -1 -27zM115 255q6 0 8.5 3t0 6.5t-8.5 3.5h-2v-13h2zM188 237q4 -3 7 0
q9 9 0 26q-3 7 -8 1q-4 -5 -3 -14.5t4 -12.5z" />
    <glyph glyph-name="acute" unicode="&#xb4;" horiz-adv-x="150" 
d="M82 820q16 19 39 4q22 -14 11 -31l-2 -2q-39 -43 -54 -61q-15 -16 -34.5 -5t-5.5 32q6 9 23 31.5t23 31.5z" />
    <glyph glyph-name="paragraph" unicode="&#xb6;" 
d="M332 451v-261h-319v261h319zM19 196h307v249h-307v-249zM87 377q-4 7 -7.5 21.5t-3.5 15.5q-1 2 3 3q1 1 2 -1q1 -3 3.5 -15t4.5 -19q2 23 5 33q0 3 4 2l1 -3q-2 -7 -3.5 -20t-2.5 -17q-1 -2 -3 -2.5t-3 2.5zM208 376q-5 1 -3 4l4 1q0 3 0.5 8t0.5 8q-3 0 -4 2q-2 3 2 3
h2l-1 10h-1q-2 0 -3 1q-1 3 2 4q21 0 22 -8q0 -7 -7 -9q3 0 6 -3q5 -4 3 -12t-10 -9q-4 -1 -7 0q-3 -5 -6 0zM56 377q-1 -4 -5 -2q-1 1 -1 3l3 13q-3 0 -3 2l2 2h2q2 4 5 19q4 6 6 1l5 -19h3q3 -1 2 -4q-1 -1 -3 -1h-1q1 -6 4 -12q1 -5 -3 -4q-1 0 -2 2t-2.5 7.5t-1.5 6.5
h-8zM106 377q0 -4 -4 -2q-2 0 -1 3q0 2 1 6t1 7q-2 0 -2 2t2 2h2q4 17 5 19t3 2.5t3 -1.5l5 -19h2q4 -1 2 -4l-2 -1h-1q1 -3 2 -7t1 -5q2 -5 -2 -4q-2 0 -3 2q-3 12 -3 14h-8zM130 375q-2 0 -2 2.5t2 2.5h4v32l-4 -1q-4 0 -2 4q0 2 2 2h4h6h3q2 -2 1 -5h-5v-32h4q1 -2 1 -5
h-14zM155 374q-3 0 -3 4q0 6 -1 18.5t-1 17.5q0 3 3 3t3 -3q0 -8 1 -19t0 -16h12q-1 2 -1 6q1 2 3 1.5t2 -2.5v-8q0 -2 -4 -2h-14zM183 377q-1 -4 -5 -2q-1 1 -1 3l3 13q-3 0 -3 2l2 2h2q1 2 3 9.5t3 9.5t2.5 2.5t2.5 -1.5l5 -19h3q3 -1 2 -4l-3 -1q1 -9 3 -12q1 -5 -3 -4
q-1 0 -2 2q-3 6 -3 14h-9zM241 374q-3 0 -3 4q0 6 -1 18.5t-1 17.5q0 3 3 3t3 -3q0 -8 1 -19t0 -16h12q-1 3 0 6q0 2 2 1.5t2 -2.5v-2v-3v-3q0 -2 -4 -2h-14zM268 374l-3 3v34q-3 1 -2.5 3t2.5 3h17q3 0 3 -3t-3 -3h-12v-11h10q4 1 4 -3q0 -1 -2 -2q-4 -1 -12 -1v-14l13 1
q5 0 2 -4q-1 -2 -3 -2t-6.5 -0.5t-7.5 -0.5zM218 402q3 1 4.5 3t0.5 4.5t-5 2.5h-4l1 -10h3zM65 396q0 1 -0.5 3t-1 4.5t-0.5 4.5h-1q0 -2 -1 -6.5t-1 -5.5h5zM116 396q-1 2 -3 12q0 -1 -1 -6t-2 -6h6zM192 396q0 1 -0.5 3t-1 4.5t-0.5 4.5h-1q0 -2 -1 -6.5t-1 -5.5h5z
M218 380q8 1 8.5 8t-6.5 9h-5l-1 -17h4zM140 304q2 4 0 13q-2 -1 -2 0q-2 0 -2 2t2 2h2v21q0 4 3 3q2 0 2 -2v-22h13q-1 8 -1 22q0 3 3 3q2 -1 2 -3q0 -8 1 -22t1 -15q0 -2 -2 -3q-3 -2 -3 2q0 8 -1 12h-12v-13q-2 -1 -6 0zM243 302q-9 1 -9 18q0 9 -1 22q0 5 4 3q2 0 2 -2
v-21q0 -14 5 -14q9 0 5 35q0 3 3 2l2 -3l1 -10q1 -10 0 -14q0 -16 -12 -16zM50 303q-2 0 -2 2.5t2 2.5h4v32l-4 -1q-2 0 -2 2.5t2 3.5h13q3 0 3 -2q2 -3 -2 -3h-5v-32h5q2 0 2 -2.5t-2 -2.5q-1 -1 -7 -0.5t-7 0.5zM121 304v36q-5 0 -8 -1q-3 0 -1 4q1 2 2 2h20q1 -2 -1 -6
h-7v-34q-2 -1 -5 -1zM175 302q-3 0 -3 3q-1 1 -1 11v23q-3 1 -2 3t3 3h16q3 0 3 -3t-3 -3h-11l-1 -11h11q4 1 4 -3q0 -1 -2 -2q-5 -1 -12 -1v-14l12 1q6 0 3 -4q-2 -2 -4 -2q-1 0 -5.5 -0.5t-7.5 -0.5zM266 302q-3 0 -3 4q0 6 -1 18.5t-1 17.5q0 3 3 3t3 -3q0 -8 1 -19
t0 -16h12q-2 3 0 6q0 2 2 1.5t2 -2.5v-2v-3v-3q0 -2 -4 -2h-14zM293 302q-3 0 -3 4q1 7 0 20t-1 16t2.5 3t2.5 -3q0 -10 1 -20.5t1 -14.5h11v6q0 2 3 1l2 -2v-8q-1 -2 -4 -2h-15zM208 340q0 4 2 4q12 1 17 0q2 0 2 -3q0 -1 -2 -2q-1 -1 -4 1h-10q0 -12 1 -15h10q2 1 2 -1
q1 -3 -1 -4h-11v-15q0 -2 -3 -2.5t-3 2.5v35zM75 305q0 -4 -4 -2l-1 3q2 17 1 36q0 3 3 2q1 0 2 -2q12 -23 16 -29q-2 16 -2 29q2 1 5 1q0 -3 1 -16.5t0 -19.5q-2 -8 -6 -2q-2 3 -6.5 13t-7.5 14q1 -18 -1 -27zM147 231q-6 -1 -9 3.5t-3 11.5q0 3 2.5 3t2.5 -3q0 -5 2 -8
t6 -2t3.5 5.5t-4.5 8.5l-4.5 4.5t-4.5 6.5q-2 8 3 11t10 -3v3q1 2 4 -1v-10v-2l-3 1q-2 6 -4 7q-3 2 -5 0t0 -5l6 -6q6 -7 7 -13q2 -12 -9 -12zM61 233q-3 6 -6.5 20.5t-4.5 16.5t3 3l2 -1q2 -6 4 -17t4 -17h1q1 14 4 33q1 3 4 2l1 -3q0 -2 -2.5 -17t-3.5 -20q0 -4 -4 -2
q-1 0 -2 2zM84 230q-3 0 -3 3q-1 1 -1 11v23q-3 1 -2 3t3 3h16q3 0 3 -3t-3 -3h-12v-11h11q4 1 4 -3q0 -1 -2 -2q-5 -1 -12 -1v-14l12 1q6 0 3 -4q-2 -2 -4 -2q-1 0 -5.5 -0.5t-7.5 -0.5zM131 231q-5 1 -11 9.5t-7 9.5q0 -10 1 -18q0 -2 -3 -2t-3 2q0 32 -1 35
q-3 0 -3.5 2.5t2.5 3.5h7q16 0 17 -11q0 -7 -7 -9q-1 -1 -4 -1q7 -15 13 -16q2 0 1 -4q0 -2 -2 -1zM162 231q-2 0 -2 2.5t2 2.5h3v32l-4 -1q-3 0 -1 4q0 2 2 2h13q2 -2 1 -5h-5v-32h4q2 0 2 -2.5t-2 -2.5h-13zM191 231q-5 -1 -8.5 4.5t-3.5 13.5q0 15 6 21h1l2 1q1 4 4 1
q4 0 6 -5q6 -5 5 -20.5t-12 -15.5zM212 233q-1 -4 -4 -2l-1 3q2 17 1 36q0 3 3 2q1 0 2 -2q12 -23 16 -29q-2 16 -2 29q2 1 5 1q0 -3 1 -16.5t0 -19.5q-2 -8 -6 -2q-2 3 -6.5 13t-7.5 14q1 -18 -1 -27zM115 255q6 0 8.5 3t0 6.5t-8.5 3.5h-2v-13h2zM188 237q4 -3 7 0
q9 9 0 26q-3 7 -8 1q-4 -5 -3 -14.5t4 -12.5z" />
    <glyph glyph-name="periodcentered" unicode="&#xb7;" 
d="M332 451v-261h-319v261h319zM19 196h307v249h-307v-249zM87 377q-4 7 -7.5 21.5t-3.5 15.5q-1 2 3 3q1 1 2 -1q1 -3 3.5 -15t4.5 -19q2 23 5 33q0 3 4 2l1 -3q-2 -7 -3.5 -20t-2.5 -17q-1 -2 -3 -2.5t-3 2.5zM208 376q-5 1 -3 4l4 1q0 3 0.5 8t0.5 8q-3 0 -4 2q-2 3 2 3
h2l-1 10h-1q-2 0 -3 1q-1 3 2 4q21 0 22 -8q0 -7 -7 -9q3 0 6 -3q5 -4 3 -12t-10 -9q-4 -1 -7 0q-3 -5 -6 0zM56 377q-1 -4 -5 -2q-1 1 -1 3l3 13q-3 0 -3 2l2 2h2q2 4 5 19q4 6 6 1l5 -19h3q3 -1 2 -4q-1 -1 -3 -1h-1q1 -6 4 -12q1 -5 -3 -4q-1 0 -2 2t-2.5 7.5t-1.5 6.5
h-8zM106 377q0 -4 -4 -2q-2 0 -1 3q0 2 1 6t1 7q-2 0 -2 2t2 2h2q4 17 5 19t3 2.5t3 -1.5l5 -19h2q4 -1 2 -4l-2 -1h-1q1 -3 2 -7t1 -5q2 -5 -2 -4q-2 0 -3 2q-3 12 -3 14h-8zM130 375q-2 0 -2 2.5t2 2.5h4v32l-4 -1q-4 0 -2 4q0 2 2 2h4h6h3q2 -2 1 -5h-5v-32h4q1 -2 1 -5
h-14zM155 374q-3 0 -3 4q0 6 -1 18.5t-1 17.5q0 3 3 3t3 -3q0 -8 1 -19t0 -16h12q-1 2 -1 6q1 2 3 1.5t2 -2.5v-8q0 -2 -4 -2h-14zM183 377q-1 -4 -5 -2q-1 1 -1 3l3 13q-3 0 -3 2l2 2h2q1 2 3 9.5t3 9.5t2.5 2.5t2.5 -1.5l5 -19h3q3 -1 2 -4l-3 -1q1 -9 3 -12q1 -5 -3 -4
q-1 0 -2 2q-3 6 -3 14h-9zM241 374q-3 0 -3 4q0 6 -1 18.5t-1 17.5q0 3 3 3t3 -3q0 -8 1 -19t0 -16h12q-1 3 0 6q0 2 2 1.5t2 -2.5v-2v-3v-3q0 -2 -4 -2h-14zM268 374l-3 3v34q-3 1 -2.5 3t2.5 3h17q3 0 3 -3t-3 -3h-12v-11h10q4 1 4 -3q0 -1 -2 -2q-4 -1 -12 -1v-14l13 1
q5 0 2 -4q-1 -2 -3 -2t-6.5 -0.5t-7.5 -0.5zM218 402q3 1 4.5 3t0.5 4.5t-5 2.5h-4l1 -10h3zM65 396q0 1 -0.5 3t-1 4.5t-0.5 4.5h-1q0 -2 -1 -6.5t-1 -5.5h5zM116 396q-1 2 -3 12q0 -1 -1 -6t-2 -6h6zM192 396q0 1 -0.5 3t-1 4.5t-0.5 4.5h-1q0 -2 -1 -6.5t-1 -5.5h5z
M218 380q8 1 8.5 8t-6.5 9h-5l-1 -17h4zM140 304q2 4 0 13q-2 -1 -2 0q-2 0 -2 2t2 2h2v21q0 4 3 3q2 0 2 -2v-22h13q-1 8 -1 22q0 3 3 3q2 -1 2 -3q0 -8 1 -22t1 -15q0 -2 -2 -3q-3 -2 -3 2q0 8 -1 12h-12v-13q-2 -1 -6 0zM243 302q-9 1 -9 18q0 9 -1 22q0 5 4 3q2 0 2 -2
v-21q0 -14 5 -14q9 0 5 35q0 3 3 2l2 -3l1 -10q1 -10 0 -14q0 -16 -12 -16zM50 303q-2 0 -2 2.5t2 2.5h4v32l-4 -1q-2 0 -2 2.5t2 3.5h13q3 0 3 -2q2 -3 -2 -3h-5v-32h5q2 0 2 -2.5t-2 -2.5q-1 -1 -7 -0.5t-7 0.5zM121 304v36q-5 0 -8 -1q-3 0 -1 4q1 2 2 2h20q1 -2 -1 -6
h-7v-34q-2 -1 -5 -1zM175 302q-3 0 -3 3q-1 1 -1 11v23q-3 1 -2 3t3 3h16q3 0 3 -3t-3 -3h-11l-1 -11h11q4 1 4 -3q0 -1 -2 -2q-5 -1 -12 -1v-14l12 1q6 0 3 -4q-2 -2 -4 -2q-1 0 -5.5 -0.5t-7.5 -0.5zM266 302q-3 0 -3 4q0 6 -1 18.5t-1 17.5q0 3 3 3t3 -3q0 -8 1 -19
t0 -16h12q-2 3 0 6q0 2 2 1.5t2 -2.5v-2v-3v-3q0 -2 -4 -2h-14zM293 302q-3 0 -3 4q1 7 0 20t-1 16t2.5 3t2.5 -3q0 -10 1 -20.5t1 -14.5h11v6q0 2 3 1l2 -2v-8q-1 -2 -4 -2h-15zM208 340q0 4 2 4q12 1 17 0q2 0 2 -3q0 -1 -2 -2q-1 -1 -4 1h-10q0 -12 1 -15h10q2 1 2 -1
q1 -3 -1 -4h-11v-15q0 -2 -3 -2.5t-3 2.5v35zM75 305q0 -4 -4 -2l-1 3q2 17 1 36q0 3 3 2q1 0 2 -2q12 -23 16 -29q-2 16 -2 29q2 1 5 1q0 -3 1 -16.5t0 -19.5q-2 -8 -6 -2q-2 3 -6.5 13t-7.5 14q1 -18 -1 -27zM147 231q-6 -1 -9 3.5t-3 11.5q0 3 2.5 3t2.5 -3q0 -5 2 -8
t6 -2t3.5 5.5t-4.5 8.5l-4.5 4.5t-4.5 6.5q-2 8 3 11t10 -3v3q1 2 4 -1v-10v-2l-3 1q-2 6 -4 7q-3 2 -5 0t0 -5l6 -6q6 -7 7 -13q2 -12 -9 -12zM61 233q-3 6 -6.5 20.5t-4.5 16.5t3 3l2 -1q2 -6 4 -17t4 -17h1q1 14 4 33q1 3 4 2l1 -3q0 -2 -2.5 -17t-3.5 -20q0 -4 -4 -2
q-1 0 -2 2zM84 230q-3 0 -3 3q-1 1 -1 11v23q-3 1 -2 3t3 3h16q3 0 3 -3t-3 -3h-12v-11h11q4 1 4 -3q0 -1 -2 -2q-5 -1 -12 -1v-14l12 1q6 0 3 -4q-2 -2 -4 -2q-1 0 -5.5 -0.5t-7.5 -0.5zM131 231q-5 1 -11 9.5t-7 9.5q0 -10 1 -18q0 -2 -3 -2t-3 2q0 32 -1 35
q-3 0 -3.5 2.5t2.5 3.5h7q16 0 17 -11q0 -7 -7 -9q-1 -1 -4 -1q7 -15 13 -16q2 0 1 -4q0 -2 -2 -1zM162 231q-2 0 -2 2.5t2 2.5h3v32l-4 -1q-3 0 -1 4q0 2 2 2h13q2 -2 1 -5h-5v-32h4q2 0 2 -2.5t-2 -2.5h-13zM191 231q-5 -1 -8.5 4.5t-3.5 13.5q0 15 6 21h1l2 1q1 4 4 1
q4 0 6 -5q6 -5 5 -20.5t-12 -15.5zM212 233q-1 -4 -4 -2l-1 3q2 17 1 36q0 3 3 2q1 0 2 -2q12 -23 16 -29q-2 16 -2 29q2 1 5 1q0 -3 1 -16.5t0 -19.5q-2 -8 -6 -2q-2 3 -6.5 13t-7.5 14q1 -18 -1 -27zM115 255q6 0 8.5 3t0 6.5t-8.5 3.5h-2v-13h2zM188 237q4 -3 7 0
q9 9 0 26q-3 7 -8 1q-4 -5 -3 -14.5t4 -12.5z" />
    <glyph glyph-name="cedilla" unicode="&#xb8;" horiz-adv-x="173" 
d="M68 23q2 10 12.5 13t19.5 -2.5t7 -17.5q-1 -3 -5.5 -20.5t-6.5 -25.5q27 1 41.5 -14t15.5 -38q2 -37 -33 -60q-22 -16 -56.5 -9.5t-39.5 31.5q-3 16 10.5 23t21.5 -6q15 -21 38 -7q17 11 12.5 29.5t-31.5 15.5q-17 -4 -22 0.5t-1 22.5z" />
    <glyph glyph-name="guillemotright" unicode="&#xbb;" 
d="M332 451v-261h-319v261h319zM19 196h307v249h-307v-249zM87 377q-4 7 -7.5 21.5t-3.5 15.5q-1 2 3 3q1 1 2 -1q1 -3 3.5 -15t4.5 -19q2 23 5 33q0 3 4 2l1 -3q-2 -7 -3.5 -20t-2.5 -17q-1 -2 -3 -2.5t-3 2.5zM208 376q-5 1 -3 4l4 1q0 3 0.5 8t0.5 8q-3 0 -4 2q-2 3 2 3
h2l-1 10h-1q-2 0 -3 1q-1 3 2 4q21 0 22 -8q0 -7 -7 -9q3 0 6 -3q5 -4 3 -12t-10 -9q-4 -1 -7 0q-3 -5 -6 0zM56 377q-1 -4 -5 -2q-1 1 -1 3l3 13q-3 0 -3 2l2 2h2q2 4 5 19q4 6 6 1l5 -19h3q3 -1 2 -4q-1 -1 -3 -1h-1q1 -6 4 -12q1 -5 -3 -4q-1 0 -2 2t-2.5 7.5t-1.5 6.5
h-8zM106 377q0 -4 -4 -2q-2 0 -1 3q0 2 1 6t1 7q-2 0 -2 2t2 2h2q4 17 5 19t3 2.5t3 -1.5l5 -19h2q4 -1 2 -4l-2 -1h-1q1 -3 2 -7t1 -5q2 -5 -2 -4q-2 0 -3 2q-3 12 -3 14h-8zM130 375q-2 0 -2 2.5t2 2.5h4v32l-4 -1q-4 0 -2 4q0 2 2 2h4h6h3q2 -2 1 -5h-5v-32h4q1 -2 1 -5
h-14zM155 374q-3 0 -3 4q0 6 -1 18.5t-1 17.5q0 3 3 3t3 -3q0 -8 1 -19t0 -16h12q-1 2 -1 6q1 2 3 1.5t2 -2.5v-8q0 -2 -4 -2h-14zM183 377q-1 -4 -5 -2q-1 1 -1 3l3 13q-3 0 -3 2l2 2h2q1 2 3 9.5t3 9.5t2.5 2.5t2.5 -1.5l5 -19h3q3 -1 2 -4l-3 -1q1 -9 3 -12q1 -5 -3 -4
q-1 0 -2 2q-3 6 -3 14h-9zM241 374q-3 0 -3 4q0 6 -1 18.5t-1 17.5q0 3 3 3t3 -3q0 -8 1 -19t0 -16h12q-1 3 0 6q0 2 2 1.5t2 -2.5v-2v-3v-3q0 -2 -4 -2h-14zM268 374l-3 3v34q-3 1 -2.5 3t2.5 3h17q3 0 3 -3t-3 -3h-12v-11h10q4 1 4 -3q0 -1 -2 -2q-4 -1 -12 -1v-14l13 1
q5 0 2 -4q-1 -2 -3 -2t-6.5 -0.5t-7.5 -0.5zM218 402q3 1 4.5 3t0.5 4.5t-5 2.5h-4l1 -10h3zM65 396q0 1 -0.5 3t-1 4.5t-0.5 4.5h-1q0 -2 -1 -6.5t-1 -5.5h5zM116 396q-1 2 -3 12q0 -1 -1 -6t-2 -6h6zM192 396q0 1 -0.5 3t-1 4.5t-0.5 4.5h-1q0 -2 -1 -6.5t-1 -5.5h5z
M218 380q8 1 8.5 8t-6.5 9h-5l-1 -17h4zM140 304q2 4 0 13q-2 -1 -2 0q-2 0 -2 2t2 2h2v21q0 4 3 3q2 0 2 -2v-22h13q-1 8 -1 22q0 3 3 3q2 -1 2 -3q0 -8 1 -22t1 -15q0 -2 -2 -3q-3 -2 -3 2q0 8 -1 12h-12v-13q-2 -1 -6 0zM243 302q-9 1 -9 18q0 9 -1 22q0 5 4 3q2 0 2 -2
v-21q0 -14 5 -14q9 0 5 35q0 3 3 2l2 -3l1 -10q1 -10 0 -14q0 -16 -12 -16zM50 303q-2 0 -2 2.5t2 2.5h4v32l-4 -1q-2 0 -2 2.5t2 3.5h13q3 0 3 -2q2 -3 -2 -3h-5v-32h5q2 0 2 -2.5t-2 -2.5q-1 -1 -7 -0.5t-7 0.5zM121 304v36q-5 0 -8 -1q-3 0 -1 4q1 2 2 2h20q1 -2 -1 -6
h-7v-34q-2 -1 -5 -1zM175 302q-3 0 -3 3q-1 1 -1 11v23q-3 1 -2 3t3 3h16q3 0 3 -3t-3 -3h-11l-1 -11h11q4 1 4 -3q0 -1 -2 -2q-5 -1 -12 -1v-14l12 1q6 0 3 -4q-2 -2 -4 -2q-1 0 -5.5 -0.5t-7.5 -0.5zM266 302q-3 0 -3 4q0 6 -1 18.5t-1 17.5q0 3 3 3t3 -3q0 -8 1 -19
t0 -16h12q-2 3 0 6q0 2 2 1.5t2 -2.5v-2v-3v-3q0 -2 -4 -2h-14zM293 302q-3 0 -3 4q1 7 0 20t-1 16t2.5 3t2.5 -3q0 -10 1 -20.5t1 -14.5h11v6q0 2 3 1l2 -2v-8q-1 -2 -4 -2h-15zM208 340q0 4 2 4q12 1 17 0q2 0 2 -3q0 -1 -2 -2q-1 -1 -4 1h-10q0 -12 1 -15h10q2 1 2 -1
q1 -3 -1 -4h-11v-15q0 -2 -3 -2.5t-3 2.5v35zM75 305q0 -4 -4 -2l-1 3q2 17 1 36q0 3 3 2q1 0 2 -2q12 -23 16 -29q-2 16 -2 29q2 1 5 1q0 -3 1 -16.5t0 -19.5q-2 -8 -6 -2q-2 3 -6.5 13t-7.5 14q1 -18 -1 -27zM147 231q-6 -1 -9 3.5t-3 11.5q0 3 2.5 3t2.5 -3q0 -5 2 -8
t6 -2t3.5 5.5t-4.5 8.5l-4.5 4.5t-4.5 6.5q-2 8 3 11t10 -3v3q1 2 4 -1v-10v-2l-3 1q-2 6 -4 7q-3 2 -5 0t0 -5l6 -6q6 -7 7 -13q2 -12 -9 -12zM61 233q-3 6 -6.5 20.5t-4.5 16.5t3 3l2 -1q2 -6 4 -17t4 -17h1q1 14 4 33q1 3 4 2l1 -3q0 -2 -2.5 -17t-3.5 -20q0 -4 -4 -2
q-1 0 -2 2zM84 230q-3 0 -3 3q-1 1 -1 11v23q-3 1 -2 3t3 3h16q3 0 3 -3t-3 -3h-12v-11h11q4 1 4 -3q0 -1 -2 -2q-5 -1 -12 -1v-14l12 1q6 0 3 -4q-2 -2 -4 -2q-1 0 -5.5 -0.5t-7.5 -0.5zM131 231q-5 1 -11 9.5t-7 9.5q0 -10 1 -18q0 -2 -3 -2t-3 2q0 32 -1 35
q-3 0 -3.5 2.5t2.5 3.5h7q16 0 17 -11q0 -7 -7 -9q-1 -1 -4 -1q7 -15 13 -16q2 0 1 -4q0 -2 -2 -1zM162 231q-2 0 -2 2.5t2 2.5h3v32l-4 -1q-3 0 -1 4q0 2 2 2h13q2 -2 1 -5h-5v-32h4q2 0 2 -2.5t-2 -2.5h-13zM191 231q-5 -1 -8.5 4.5t-3.5 13.5q0 15 6 21h1l2 1q1 4 4 1
q4 0 6 -5q6 -5 5 -20.5t-12 -15.5zM212 233q-1 -4 -4 -2l-1 3q2 17 1 36q0 3 3 2q1 0 2 -2q12 -23 16 -29q-2 16 -2 29q2 1 5 1q0 -3 1 -16.5t0 -19.5q-2 -8 -6 -2q-2 3 -6.5 13t-7.5 14q1 -18 -1 -27zM115 255q6 0 8.5 3t0 6.5t-8.5 3.5h-2v-13h2zM188 237q4 -3 7 0
q9 9 0 26q-3 7 -8 1q-4 -5 -3 -14.5t4 -12.5z" />
    <glyph glyph-name="questiondown" unicode="&#xbf;" 
d="M332 451v-261h-319v261h319zM19 196h307v249h-307v-249zM87 377q-4 7 -7.5 21.5t-3.5 15.5q-1 2 3 3q1 1 2 -1q1 -3 3.5 -15t4.5 -19q2 23 5 33q0 3 4 2l1 -3q-2 -7 -3.5 -20t-2.5 -17q-1 -2 -3 -2.5t-3 2.5zM208 376q-5 1 -3 4l4 1q0 3 0.5 8t0.5 8q-3 0 -4 2q-2 3 2 3
h2l-1 10h-1q-2 0 -3 1q-1 3 2 4q21 0 22 -8q0 -7 -7 -9q3 0 6 -3q5 -4 3 -12t-10 -9q-4 -1 -7 0q-3 -5 -6 0zM56 377q-1 -4 -5 -2q-1 1 -1 3l3 13q-3 0 -3 2l2 2h2q2 4 5 19q4 6 6 1l5 -19h3q3 -1 2 -4q-1 -1 -3 -1h-1q1 -6 4 -12q1 -5 -3 -4q-1 0 -2 2t-2.5 7.5t-1.5 6.5
h-8zM106 377q0 -4 -4 -2q-2 0 -1 3q0 2 1 6t1 7q-2 0 -2 2t2 2h2q4 17 5 19t3 2.5t3 -1.5l5 -19h2q4 -1 2 -4l-2 -1h-1q1 -3 2 -7t1 -5q2 -5 -2 -4q-2 0 -3 2q-3 12 -3 14h-8zM130 375q-2 0 -2 2.5t2 2.5h4v32l-4 -1q-4 0 -2 4q0 2 2 2h4h6h3q2 -2 1 -5h-5v-32h4q1 -2 1 -5
h-14zM155 374q-3 0 -3 4q0 6 -1 18.5t-1 17.5q0 3 3 3t3 -3q0 -8 1 -19t0 -16h12q-1 2 -1 6q1 2 3 1.5t2 -2.5v-8q0 -2 -4 -2h-14zM183 377q-1 -4 -5 -2q-1 1 -1 3l3 13q-3 0 -3 2l2 2h2q1 2 3 9.5t3 9.5t2.5 2.5t2.5 -1.5l5 -19h3q3 -1 2 -4l-3 -1q1 -9 3 -12q1 -5 -3 -4
q-1 0 -2 2q-3 6 -3 14h-9zM241 374q-3 0 -3 4q0 6 -1 18.5t-1 17.5q0 3 3 3t3 -3q0 -8 1 -19t0 -16h12q-1 3 0 6q0 2 2 1.5t2 -2.5v-2v-3v-3q0 -2 -4 -2h-14zM268 374l-3 3v34q-3 1 -2.5 3t2.5 3h17q3 0 3 -3t-3 -3h-12v-11h10q4 1 4 -3q0 -1 -2 -2q-4 -1 -12 -1v-14l13 1
q5 0 2 -4q-1 -2 -3 -2t-6.5 -0.5t-7.5 -0.5zM218 402q3 1 4.5 3t0.5 4.5t-5 2.5h-4l1 -10h3zM65 396q0 1 -0.5 3t-1 4.5t-0.5 4.5h-1q0 -2 -1 -6.5t-1 -5.5h5zM116 396q-1 2 -3 12q0 -1 -1 -6t-2 -6h6zM192 396q0 1 -0.5 3t-1 4.5t-0.5 4.5h-1q0 -2 -1 -6.5t-1 -5.5h5z
M218 380q8 1 8.5 8t-6.5 9h-5l-1 -17h4zM140 304q2 4 0 13q-2 -1 -2 0q-2 0 -2 2t2 2h2v21q0 4 3 3q2 0 2 -2v-22h13q-1 8 -1 22q0 3 3 3q2 -1 2 -3q0 -8 1 -22t1 -15q0 -2 -2 -3q-3 -2 -3 2q0 8 -1 12h-12v-13q-2 -1 -6 0zM243 302q-9 1 -9 18q0 9 -1 22q0 5 4 3q2 0 2 -2
v-21q0 -14 5 -14q9 0 5 35q0 3 3 2l2 -3l1 -10q1 -10 0 -14q0 -16 -12 -16zM50 303q-2 0 -2 2.5t2 2.5h4v32l-4 -1q-2 0 -2 2.5t2 3.5h13q3 0 3 -2q2 -3 -2 -3h-5v-32h5q2 0 2 -2.5t-2 -2.5q-1 -1 -7 -0.5t-7 0.5zM121 304v36q-5 0 -8 -1q-3 0 -1 4q1 2 2 2h20q1 -2 -1 -6
h-7v-34q-2 -1 -5 -1zM175 302q-3 0 -3 3q-1 1 -1 11v23q-3 1 -2 3t3 3h16q3 0 3 -3t-3 -3h-11l-1 -11h11q4 1 4 -3q0 -1 -2 -2q-5 -1 -12 -1v-14l12 1q6 0 3 -4q-2 -2 -4 -2q-1 0 -5.5 -0.5t-7.5 -0.5zM266 302q-3 0 -3 4q0 6 -1 18.5t-1 17.5q0 3 3 3t3 -3q0 -8 1 -19
t0 -16h12q-2 3 0 6q0 2 2 1.5t2 -2.5v-2v-3v-3q0 -2 -4 -2h-14zM293 302q-3 0 -3 4q1 7 0 20t-1 16t2.5 3t2.5 -3q0 -10 1 -20.5t1 -14.5h11v6q0 2 3 1l2 -2v-8q-1 -2 -4 -2h-15zM208 340q0 4 2 4q12 1 17 0q2 0 2 -3q0 -1 -2 -2q-1 -1 -4 1h-10q0 -12 1 -15h10q2 1 2 -1
q1 -3 -1 -4h-11v-15q0 -2 -3 -2.5t-3 2.5v35zM75 305q0 -4 -4 -2l-1 3q2 17 1 36q0 3 3 2q1 0 2 -2q12 -23 16 -29q-2 16 -2 29q2 1 5 1q0 -3 1 -16.5t0 -19.5q-2 -8 -6 -2q-2 3 -6.5 13t-7.5 14q1 -18 -1 -27zM147 231q-6 -1 -9 3.5t-3 11.5q0 3 2.5 3t2.5 -3q0 -5 2 -8
t6 -2t3.5 5.5t-4.5 8.5l-4.5 4.5t-4.5 6.5q-2 8 3 11t10 -3v3q1 2 4 -1v-10v-2l-3 1q-2 6 -4 7q-3 2 -5 0t0 -5l6 -6q6 -7 7 -13q2 -12 -9 -12zM61 233q-3 6 -6.5 20.5t-4.5 16.5t3 3l2 -1q2 -6 4 -17t4 -17h1q1 14 4 33q1 3 4 2l1 -3q0 -2 -2.5 -17t-3.5 -20q0 -4 -4 -2
q-1 0 -2 2zM84 230q-3 0 -3 3q-1 1 -1 11v23q-3 1 -2 3t3 3h16q3 0 3 -3t-3 -3h-12v-11h11q4 1 4 -3q0 -1 -2 -2q-5 -1 -12 -1v-14l12 1q6 0 3 -4q-2 -2 -4 -2q-1 0 -5.5 -0.5t-7.5 -0.5zM131 231q-5 1 -11 9.5t-7 9.5q0 -10 1 -18q0 -2 -3 -2t-3 2q0 32 -1 35
q-3 0 -3.5 2.5t2.5 3.5h7q16 0 17 -11q0 -7 -7 -9q-1 -1 -4 -1q7 -15 13 -16q2 0 1 -4q0 -2 -2 -1zM162 231q-2 0 -2 2.5t2 2.5h3v32l-4 -1q-3 0 -1 4q0 2 2 2h13q2 -2 1 -5h-5v-32h4q2 0 2 -2.5t-2 -2.5h-13zM191 231q-5 -1 -8.5 4.5t-3.5 13.5q0 15 6 21h1l2 1q1 4 4 1
q4 0 6 -5q6 -5 5 -20.5t-12 -15.5zM212 233q-1 -4 -4 -2l-1 3q2 17 1 36q0 3 3 2q1 0 2 -2q12 -23 16 -29q-2 16 -2 29q2 1 5 1q0 -3 1 -16.5t0 -19.5q-2 -8 -6 -2q-2 3 -6.5 13t-7.5 14q1 -18 -1 -27zM115 255q6 0 8.5 3t0 6.5t-8.5 3.5h-2v-13h2zM188 237q4 -3 7 0
q9 9 0 26q-3 7 -8 1q-4 -5 -3 -14.5t4 -12.5z" />
    </font>
</defs>
</svg>
