<?xml version="1.0" encoding="UTF-8" standalone="no"?>
<svg width="16px" height="16px" viewBox="0 0 16 16" version="1.1" xmlns="http://www.w3.org/2000/svg" xmlns:xlink="http://www.w3.org/1999/xlink" xmlns:sketch="http://www.bohemiancoding.com/sketch/ns">
    <!-- Generator: Sketch 3.0.1 (7597) - http://www.bohemiancoding.com/sketch -->
    <title>Mail.ru_icon</title>
    <description>Created with Sketch.</description>
    <defs></defs>
    <g id="Welcome" stroke="none" stroke-width="1" fill="none" fill-rule="evenodd" sketch:type="MSPage">
        <g id="Mail.ru_icon" sketch:type="MSArtboardGroup" fill="#D0D0D0">
            <path d="M10.4197901,5.22028986 L10.5562219,4.50434783 L12.2908546,4.52318841 L11.5697151,8.08405797 C11.4917537,8.4734319 11.4527736,8.74975764 11.4527736,8.91304348 C11.4527736,9.30241741 11.5957007,9.49710145 11.8815592,9.49710145 C12.1804113,9.49710145 12.4727622,9.29613728 12.7586207,8.8942029 C13.2393827,8.22849909 13.4797601,7.44348278 13.4797601,6.53913043 C13.4797601,5.3584482 13.0574755,4.39130812 12.2128936,3.63768116 C11.3683116,2.8840542 10.2768683,2.50724638 8.93853073,2.50724638 C7.45726396,2.50724638 6.21314846,3.00023662 5.20614693,3.98623188 C4.19914539,4.97222715 3.69565217,6.18743239 3.69565217,7.63188406 C3.69565217,8.67440135 3.98150639,9.62270104 4.55322339,10.4768116 C5.12494039,11.3309221 5.86556267,11.902414 6.77511244,12.1913043 C7.39880372,12.3922715 8.12643262,12.4927536 8.95802099,12.4927536 C10.0754679,12.4927536 11.2448715,12.3043497 12.4662669,11.9275362 L12.856072,13.4347826 C11.6476701,13.8115961 10.3288427,14 8.89955022,14 C6.91153429,14 5.300356,13.4410684 4.06596702,12.3231884 C2.68864879,11.0671435 2,9.49711087 2,7.61304348 C2,5.75409699 2.66266204,4.18720444 3.988006,2.91231884 C5.31334996,1.63743324 6.93752162,1 8.86056972,1 C10.627695,1 12.0926978,1.52439089 13.2556222,2.57318841 C14.4185465,3.62198592 15,4.94395338 15,6.53913043 C15,7.68213132 14.678414,8.69009225 14.0352324,9.56304348 C13.3920508,10.4359947 12.6481801,10.8724638 11.8035982,10.8724638 C11.4397783,10.8724638 11.1181923,10.7782618 10.8388306,10.5898551 C10.5594689,10.4014483 10.3743133,10.1565232 10.2833583,9.85507246 C9.71164132,10.6463808 8.90605217,11.042029 7.86656672,11.042029 C7.08695262,11.042029 6.43403561,10.7594231 5.9077961,10.1942029 C5.38155659,9.62898268 5.11844078,8.92560807 5.11844078,8.08405797 C5.11844078,7.07922203 5.45951683,6.20000377 6.14167916,5.44637681 C6.82384149,4.69274986 7.61968561,4.31594203 8.52923538,4.31594203 C9.38681088,4.31594203 10.0169895,4.61738829 10.4197901,5.22028986 Z M10,7.19653179 L9.97972973,7.10982659 C9.95270257,6.7745648 9.82432547,6.50578136 9.59459459,6.30346821 C9.36486372,6.10115506 9.07432608,6 8.72297297,6 C8.26351122,6 7.86148821,6.17918896 7.51689189,6.53757225 C7.17229557,6.89595555 7,7.31213636 7,7.78612717 C7,8.14451046 7.11824206,8.43641506 7.35472973,8.66184971 C7.5912174,8.88728436 7.89864676,9 8.27702703,9 C8.73648878,9 9.13851179,8.82081104 9.48310811,8.46242775 C9.82770443,8.10404445 10,7.68208335 10,7.19653179 Z" id="@-3" sketch:type="MSShapeGroup"></path>
        </g>
    </g>
</svg>