<?xml version="1.0" encoding="UTF-8" standalone="no"?>
<svg width="16px" height="16px" viewBox="0 0 16 16" version="1.1" xmlns="http://www.w3.org/2000/svg" xmlns:xlink="http://www.w3.org/1999/xlink" xmlns:sketch="http://www.bohemiancoding.com/sketch/ns">
    <!-- Generator: Sketch 3.0.1 (7597) - http://www.bohemiancoding.com/sketch -->
    <title>Twitter_icon</title>
    <description>Created with Sketch.</description>
    <defs></defs>
    <g id="Welcome" stroke="none" stroke-width="1" fill="none" fill-rule="evenodd" sketch:type="MSPage">
        <g id="Twitter_icon" sketch:type="MSArtboardGroup" fill="#D0D0D0">
            <path d="M7.79779888,5.19218788 L7.82814618,5.71122173 L7.32235757,5.64766658 C5.48128706,5.40403843 3.87287929,4.57782128 2.50725005,3.19020023 L1.83960907,2.50168593 L1.66764097,3.01012723 C1.30347317,4.14352768 1.53613591,5.34048328 2.29481882,6.14551533 C2.69944971,6.59040148 2.60840777,6.65395668 1.9104195,6.38914348 C1.66764097,6.30440323 1.45520975,6.24084808 1.43497818,6.27262568 C1.36416781,6.34677338 1.60694633,7.31069333 1.79914599,7.69202433 C2.06215608,8.22165073 2.59829199,8.74068454 3.18500675,9.04786784 L3.68067958,9.29149599 L3.09396481,9.30208849 C2.52748156,9.30208849 2.50725005,9.31268104 2.56794469,9.53512409 C2.77026013,10.2236384 3.56940613,10.9545228 4.45959406,11.2722986 L5.08677191,11.4947417 L4.54052022,11.8337025 C3.73125844,12.3209588 2.78037587,12.5963645 1.82949329,12.6175496 C1.37428354,12.6281421 1,12.6705122 1,12.7022898 C1,12.808215 2.23412418,13.4013966 2.95234401,13.6344322 C5.10700347,14.3229465 7.66629382,14.0263557 9.58829053,12.8505852 C10.9539198,12.0137755 12.319549,10.3507487 12.9568427,8.74068454 C13.3007789,7.88268983 13.6447151,6.31499578 13.6447151,5.56292633 C13.6447151,5.07567008 13.6750625,5.01211493 14.2415457,4.42952593 C14.5753662,4.09056503 14.8889551,3.71982658 14.9496497,3.61390128 C15.0508075,3.41264328 15.0406917,3.41264328 14.5247873,3.59271623 C13.6649467,3.91049208 13.5435574,3.86812198 13.9684199,3.39145823 C14.2820088,3.05249733 14.6562924,2.43813078 14.6562924,2.25805778 C14.6562924,2.22628023 14.5045558,2.27924288 14.3325877,2.37457558 C14.1505038,2.48050088 13.7458729,2.63938878 13.4423997,2.73472153 L12.896148,2.91479448 L12.4004752,2.56524108 C12.1273493,2.37457558 11.74295,2.16272508 11.5406345,2.09916988 C11.0247302,1.95087453 10.2356999,1.97205958 9.77037441,2.14153998 C8.50590289,2.61820373 7.70675689,3.84693693 7.79779888,5.19218788 C7.79779888,5.19218788 7.70675689,3.84693693 7.79779888,5.19218788 L7.79779888,5.19218788 L7.79779888,5.19218788 Z" id="Path-2" sketch:type="MSShapeGroup"></path>
        </g>
    </g>
</svg>