<?xml version="1.0" standalone="no"?>
<!DOCTYPE svg PUBLIC "-//W3C//DTD SVG 1.1//EN" "http://www.w3.org/Graphics/SVG/1.1/DTD/svg11.dtd" >
<svg xmlns="http://www.w3.org/2000/svg">
<metadata></metadata>
<defs>
<font id="bruskovayacregular" horiz-adv-x="1020" >
<font-face units-per-em="2048" ascent="1587" descent="-461" />
<missing-glyph horiz-adv-x="806" />
<glyph horiz-adv-x="2048" />
<glyph horiz-adv-x="2048" />
<glyph unicode="&#xd;" horiz-adv-x="2048" />
<glyph unicode=" "  horiz-adv-x="806" />
<glyph unicode="&#x09;" horiz-adv-x="806" />
<glyph unicode="&#xa0;" horiz-adv-x="806" />
<glyph unicode="!" horiz-adv-x="522" d="M89 1393q-1 37 1.5 68t13 66.5t28.5 60t51 41t79 15.5q163 -3 172 -225q3 -79 -11 -169q-2 -13 -15.5 -95.5t-19.5 -126.5q-19 -122 -26 -249q-7 -118 -10 -228q-1 -15 -2 -43t-3 -42h-169q-5 105 -7 159q-3 143 -17 282q-8 72 -43 275q-22 136 -22 211zM107 121 q-2 62 45 114t107 54q61 1 114.5 -49.5t53.5 -111.5q0 -60 -49.5 -109t-111.5 -49q-39 0 -75.5 21.5t-59.5 56.5t-24 73z" />
<glyph unicode="&#x22;" horiz-adv-x="1111" d="M161 1484q0 69 51.5 115.5t117.5 44.5q28 -1 55.5 -12.5t53 -35t42.5 -66.5t20 -100q1 -78 -23 -156.5t-62 -142t-89 -118.5l-132 67q35 49 74.5 123t32.5 100q-4 14 -16 22q-6 6 -23 12.5t-22 10.5q-35 13 -58.5 53t-21.5 83zM612 1484q3 70 55 116t118 44 q28 -1 55 -12.5t52.5 -35t41 -66.5t16.5 -100q3 -114 -44 -222.5t-123 -194.5l-135 67q33 43 74.5 119.5t34.5 103.5q-4 14 -16 22q-6 5 -14.5 8.5t-17.5 7t-15 7.5q-23 8 -42.5 30t-29.5 50t-10 56z" />
<glyph unicode="#" horiz-adv-x="1447" d="M9 455l30 152h323l72 406h-325l28 154h327l61 354h139l-66 -354h378l63 354h136l-66 -354h327l-26 -154h-326l-73 -406h325l-24 -152h-327l-63 -366h-137l63 366h-375l-63 -366h-137l61 366h-325zM501 607h374l71 406h-375z" />
<glyph unicode="$" horiz-adv-x="1165" d="M65 352q0 92 50.5 146.5t120.5 54.5q63 0 110 -47t47 -118q0 -78 -46 -134q-6 0 -13 -7.5t-7 -14.5q0 -4 -1.5 -10.5t-3.5 -10.5l-1 -5q0 -23 31 -51t81 -48t99 -20h6l3 666q-12 7 -24 17t-28 23t-25 21q-12 9 -34 28q-40 34 -59 50.5t-52 45.5t-49 45.5t-40.5 43 t-36.5 45t-27 44t-21.5 48.5t-11.5 49.5t-5 55.5q0 69 27 134.5t77 119t129.5 88.5t176.5 40l3 145h93v-150q129 -11 230 -93l27 63h141v-475l-168 -2q-3 61 -9.5 109t-22.5 98.5t-40 85t-64.5 58t-93.5 26.5v-495q11 -7 24 -16t31 -23l27 -21q103 -79 170 -140.5 t117 -125.5t72.5 -127.5t22.5 -135.5q0 -103 -34.5 -186t-97 -139.5t-146.5 -90.5t-186 -44v-191h-93v187q-101 0 -183.5 24t-135.5 63t-89.5 90t-52 103t-15.5 104zM384 1308q0 -35 10 -64t33 -56t47 -48.5t67 -52.5v423q-45 -11 -77.5 -35t-48.5 -54t-23.5 -58t-7.5 -55z M632 95q179 33 179 255q0 59 -8 104.5t-20.5 76.5t-37 60t-48 48t-63.5 47z" />
<glyph unicode="%" horiz-adv-x="1495" d="M54 1286q0 47 10 91t32.5 86.5t55 74.5t83.5 52t112 20q44 0 82 -10.5t67 -28t52.5 -42.5t39.5 -53.5t27 -60.5t16 -64t5 -65q0 -37 -7 -74.5t-21 -74t-38 -68t-55 -55t-74 -37.5t-94 -14q-61 0 -112 20t-83.5 52t-55 75t-32.5 87t-10 89zM259 1286q0 -110 18.5 -153.5 t65.5 -43.5q53 -2 72 43t19 154q0 112 -19 156t-72 44q-24 0 -40 -10t-26 -34t-14 -61t-4 -95zM312 -95l740 1802l141 -28l-738 -1804zM859 323q0 38 7 75.5t21.5 74t38 67.5t55 55t75.5 37.5t96 13.5q61 0 110.5 -19.5t82 -51.5t54.5 -74.5t32 -87t10 -90.5 q0 -45 -10 -89.5t-32 -87t-54.5 -75t-82.5 -52t-110 -19.5q-62 0 -112.5 20t-83.5 52t-55.5 74.5t-32 87t-9.5 89.5zM1063 323q0 -111 18.5 -154.5t66.5 -43.5q53 -1 72 43.5t19 154.5q0 112 -19 156.5t-72 43.5q-32 0 -50.5 -19t-26.5 -62t-8 -119z" />
<glyph unicode="'" horiz-adv-x="512" d="M89 1484q0 70 51 116t116 44q29 -1 56.5 -12.5t53.5 -35t43 -66.5t18 -100q1 -78 -23 -156.5t-62 -142t-88 -118.5l-131 67q34 49 74.5 123t34.5 100q-8 16 -18 22q-6 6 -23 12.5t-22 10.5q-36 13 -59 53t-21 83z" />
<glyph unicode="(" horiz-adv-x="640" d="M65 793.5q0 131.5 35.5 276.5t99.5 282t161 259t212 201v-146q-278 -444 -278 -872q0 -430 278 -872v-143q-115 77 -212 198t-161 258t-99.5 282t-35.5 276.5z" />
<glyph unicode=")" horiz-adv-x="640" d="M65 -78q282 444 282 872q0 425 -282 872v146q116 -79 213.5 -201t161 -259t98.5 -282t35 -276.5t-35 -276.5t-98.5 -282t-161 -258t-213.5 -198v143z" />
<glyph unicode="*" horiz-adv-x="1031" d="M54 1548q-4 70 44 115.5t108 34.5q34 -7 60 -30q13 -10 24.5 -21.5t25.5 -26.5t23 -24q51 -48 118 -60q15 64 -19 130q-5 14 -22 44t-23 47q-13 44 -9 69q5 44 41 75.5t93 31.5q37 0 67 -16.5t46 -40.5t19 -50q5 -25 -8 -69q-6 -17 -23 -47t-23 -44q-35 -68 -19 -130 q66 8 119 58q47 54 68 72q38 26 63 30q59 10 107.5 -35t43.5 -115q-2 -48 -37.5 -83t-99.5 -33q-17 0 -49.5 6t-47.5 7q-79 9 -135 -20q32 -57 96 -95q48 -22 89 -46q61 -38 61 -104q0 -50 -33.5 -87t-77.5 -48q-46 -11 -89 11t-61 83q-5 18 -9.5 53t-7.5 47q-15 74 -61 116 q-45 -38 -63 -114q-1 -10 -3.5 -32t-5 -38.5t-6.5 -31.5q-17 -59 -61.5 -81.5t-90.5 -9.5q-44 10 -77.5 47t-33.5 87q0 58 61 104q13 8 27 15.5t35 17t29 13.5q64 37 96 95q-58 30 -132 21q-7 0 -44.5 -7t-57.5 -7q-42 -2 -73 15.5t-45 43.5t-17 57z" />
<glyph unicode="+" horiz-adv-x="1501" d="M80 723v164h590v588h160v-588h593v-164h-593v-589h-160v589h-590z" />
<glyph unicode="," horiz-adv-x="512" d="M89 163q0 68 51 115t116 45q23 0 45 -6.5t44.5 -23t40 -40.5t29 -61.5t12.5 -84.5q2 -112 -47 -220.5t-126 -190.5l-131 65q31 41 73 119t36 104q-6 13 -18 20q-5 5 -13 9t-18 7t-14 6q-36 16 -59 54.5t-21 82.5z" />
<glyph unicode="-" horiz-adv-x="519" d="M65 468v187h388v-187h-388z" />
<glyph unicode="." horiz-adv-x="492" d="M89 128q0 67 47 111.5t112 44.5q66 0 111.5 -46.5t45.5 -109.5q0 -65 -45 -111.5t-112 -46.5q-69 0 -114 46.5t-45 111.5z" />
<glyph unicode="/" horiz-adv-x="990" d="M54 -95l742 1802l139 -28l-735 -1804z" />
<glyph unicode="0" horiz-adv-x="1072" d="M61 803q0 172 24.5 312.5t67.5 238t103 163.5t129.5 96.5t148.5 30.5q80 0 150 -31t130 -97t103 -163.5t67.5 -238t24.5 -311.5q0 -177 -26 -320t-70.5 -238t-105.5 -158.5t-129 -91.5t-144 -27q-76 0 -143.5 28t-128.5 91.5t-105 158.5t-70 237.5t-26 319.5zM349 878 q1 -49 1 -71q0 -198 12 -360q4 -33 9 -104q4 -37 7 -56.5t11.5 -50.5t20.5 -54q50 -87 124 -87q13 0 26.5 3t27.5 9.5t26.5 16.5t25 25t22.5 33q28 55 36 161q1 8 2 17.5t2 17.5t2 17t1.5 17.5t1.5 17.5t2 17q11 147 11 360q0 210 -11 357q-2 18 -5.5 53t-5.5 52 q-8 106 -36 161q-48 86 -128 86q-46 0 -80 -30t-53 -80t-31.5 -115t-15.5 -135.5t-5 -142.5t0 -135z" />
<glyph unicode="1" horiz-adv-x="781" d="M61 1334v109q204 29 308 194h172v-1516h153v-121h-585v121h153v1239q-92 -29 -201 -26z" />
<glyph unicode="2" horiz-adv-x="1054" d="M83 1234.5q0 43.5 11 89t31 89t54 83t77 70t102.5 49.5t127.5 22q110 6 202.5 -29.5t153 -99t91.5 -150t24 -180.5q-12 -172 -146 -337q-55 -64 -179 -175q-80 -74 -126 -120.5t-88 -95.5t-62 -88.5t-32 -83t-14 -96.5h258h7h30.5t30 1.5t30.5 4t27.5 8t26 13t21 19 t17.5 27t10.5 36t4.5 45.5v119h182v-455h-825q-10 116 3.5 214t48.5 173.5t69 125t83 105.5q154 166 180 196q81 95 116.5 176.5t42.5 193.5q4 82 -11 144t-44 98.5t-66 55t-81 21.5q-41 1 -77 -10.5t-65.5 -43t-37.5 -78.5q-1 -16 -1.5 -26t5 -19t12.5 -15t20 -16 q38 -22 66 -54q21 -35 21 -87q2 -73 -38.5 -117t-100.5 -44q-57 0 -109 41t-73 118q-10 39 -10 82.5z" />
<glyph unicode="3" horiz-adv-x="1070" d="M80 360q1 54 17 97t41.5 68.5t55.5 38.5t62 13q64 0 109 -45t47 -118q0 -54 -21 -89l-21 -24t-20 -23q-20 -28 -20 -50q-7 -53 51 -98.5t140 -34.5q33 6 60.5 18.5t46 31t33.5 41.5t23 48t14 52.5t7 53.5t2.5 51.5t-0.5 46.5q-1 39 -3.5 66t-11 69t-22 70.5t-40.5 60 t-63 48.5t-92 25.5t-125 1.5v128q24 -3 49 -3.5t55.5 3.5t58.5 13t55.5 27t49 43t37.5 63t22 86q5 39 5 113q4 93 -12 149q-19 57 -56 85.5t-98 29.5q-69 3 -110 -33t-37 -76q0 -13 11 -32q4 -5 14 -14t13 -13q38 -41 34 -114q-6 -60 -43.5 -100t-102.5 -38q-54 0 -96 33 t-58 94q-8 40 -8 82t15 84t37.5 80t58.5 71t79 56.5t98.5 36.5t116.5 11q175 -3 289 -111.5t121 -278.5q7 -139 -63.5 -246t-195.5 -156q31 -11 60 -26.5t64 -39t64 -56t54 -73t40.5 -94.5t17.5 -116q4 -95 -26.5 -182t-89.5 -153.5t-150 -105.5t-200 -38q-86 0 -166 26.5 t-143 75t-99.5 124t-34.5 166.5z" />
<glyph unicode="4" horiz-adv-x="1100" d="M39 343v104l579 1163h262v-1117v2l148 -2v-150h-148v-222h155v-121h-571v121h154v222h-579zM248 493h370v823z" />
<glyph unicode="5" horiz-adv-x="1058" d="M89 289q-3 90 43 144t116 55q24 1 47 -5t43 -18.5t35.5 -30.5t25 -42.5t11.5 -52.5q2 -80 -53 -135q-19 -19 -21 -29q-3 -12 5 -27.5t26 -29.5t51 -21.5t73 -3.5q53 5 92 34.5t58.5 74t31 101.5t11 118t-1.5 122q-14 391 -231 375q-24 -2 -44 -8.5t-35 -19t-26.5 -25.5 t-22 -33.5t-17 -36.5t-15.5 -40h-154l29 855h645v-207h-477v-412q90 82 223 82q90 0 165.5 -38.5t127 -106.5t82 -159t36.5 -196q6 -125 -21 -232t-84.5 -189t-150 -130.5t-211.5 -53.5q-89 -5 -165.5 17.5t-130 66t-84.5 105t-32 132.5z" />
<glyph unicode="6" horiz-adv-x="1076" d="M72 700.5q-3 69.5 1 129.5q2 54 3.5 87.5t8 103t15.5 118.5t27.5 118t43 117.5t62 102t84 87t111 56t140.5 24.5q80 2 147 -18t110.5 -53.5t73.5 -76t43 -84.5t13 -80q0 -26 -8 -55t-24.5 -58.5t-48 -49.5t-71.5 -21q-37 -1 -66 13.5t-46 38.5t-26 49t-10 49q0 59 39 112 q4 4 9.5 13.5t5.5 10.5q8 35 -33 62t-112 18q-56 -8 -96.5 -47t-63 -100.5t-32.5 -130t-10 -147.5q0 -146 9 -237q13 12 36 35q4 3 17 13.5t18 14.5t16.5 12.5t18.5 13.5t17.5 11.5t19.5 10.5q70 33 159 26q53 -4 101 -24t91 -59.5t73.5 -95.5t47.5 -137.5t14 -179.5 q-5 -158 -60.5 -275.5t-158.5 -183.5t-243 -66q-85 -1 -155 22t-117 64.5t-83.5 98t-55.5 122.5t-33.5 138.5t-16.5 145t-5 142zM377 451q0 -41 1 -69t4.5 -68t10 -67.5t18.5 -57.5t29 -48.5t42.5 -31.5t58.5 -14q40 -1 70 12.5t48.5 44t30.5 59.5t17.5 80.5t7.5 84t3 90.5 q0 52 1.5 105.5t-6.5 103.5t-23 89t-47 62t-79 22q-29 -1 -53 -9.5t-42 -20.5t-32 -33.5t-23.5 -41t-16 -50t-10 -55t-6 -61t-3 -62t-1.5 -64.5z" />
<glyph unicode="7" horiz-adv-x="1050" d="M68 1089l55 521h814v-176q-70 -150 -118.5 -269t-84.5 -232t-55 -214t-31 -214t-12.5 -233t0.5 -272h-300q-1 112 4.5 210.5t19 191.5t29.5 172.5t44.5 167t56 160.5t71 167t83 173t97.5 192h-190q-11 0 -39 1t-42.5 0.5t-39 -2.5t-41 -9.5t-35.5 -19t-34 -31.5t-27 -48 q-5 -12 -9.5 -27.5t-7 -27.5t-6 -29.5t-6.5 -28.5q-3 -20 -11.5 -61.5t-11.5 -61.5h-173z" />
<glyph unicode="8" horiz-adv-x="1119" d="M68 427q-1 58 7.5 109.5t26 90.5t38.5 72t47.5 56.5t50.5 41.5t51 30.5t44.5 19.5t35.5 12q-16 5 -31.5 11.5t-40.5 21t-47 32t-45.5 45.5t-40.5 60.5t-28.5 78t-12.5 96.5q-3 199 114.5 318.5t317.5 121.5q131 1 231.5 -52t155.5 -153.5t51 -234.5q-1 -56 -14.5 -105 t-36 -86.5t-54 -68t-66 -51t-74.5 -34.5q21 -6 41.5 -14t52 -25.5t58.5 -38.5t56 -56t49 -75.5t32 -98.5t11 -124q-2 -73 -17 -135.5t-38 -107t-57 -80t-66.5 -58t-74.5 -39t-73 -24t-68.5 -12t-56 -5t-40.5 -0.5q-30 0 -55 1t-77.5 10.5t-94.5 25.5t-92.5 50.5t-84.5 82 t-58.5 122.5t-26.5 169zM350 438q0 -104 10 -165q7 -53 27 -91t42 -56.5t49.5 -29t44.5 -12t34 -0.5q43 -1 77 9.5t55.5 30.5t37 47.5t22.5 59.5t11.5 67.5t4 71t-0.5 68.5q0 30 -0.5 49.5t-2 49.5t-4.5 50.5t-8 48t-13 46.5t-19 40t-26.5 35t-34.5 26t-44 18t-55 6 q-18 0 -35 -2.5t-45 -14.5t-50 -32.5t-42 -62t-28 -97.5q-7 -61 -7 -160zM377 1217q-1 -92 11 -154t37.5 -95t57 -46.5t74.5 -12.5q46 0 78.5 14t57.5 48t36.5 95t9.5 151q-1 75 -10.5 130t-24.5 88t-39 52t-49 25t-59 6q-33 0 -57.5 -6t-47.5 -25t-38 -52t-25 -88t-12 -130 z" />
<glyph unicode="9" horiz-adv-x="1076" d="M73 1117q6 157 61 275t157.5 184.5t242.5 67.5q76 0 140 -18.5t109.5 -52.5t82 -81t58.5 -102.5t39 -117t23.5 -126t11.5 -128.5t3 -124.5t-1 -114.5v-2q-2 -72 -4.5 -117.5t-14.5 -138.5t-30 -156.5t-55.5 -144t-87.5 -130t-128 -85t-175 -37.5q-80 -3 -146.5 17 t-110 52.5t-74 75t-43.5 84.5t-13 81q1 26 9 54.5t24.5 58t47.5 49t72 22.5q37 1 66.5 -14t46 -38.5t25.5 -48.5t9 -49q0 -60 -38 -112q-12 -19 -14 -27q-9 -33 31.5 -60t111.5 -18q37 6 66.5 24.5t50.5 46t37 66t25.5 78.5t15.5 89t8 93t1 94t-3 88.5t-5 80.5 q-25 -18 -39 -35q-4 -2 -17 -13t-18 -15t-16.5 -12.5t-18.5 -13.5t-17 -11t-20 -11q-83 -35 -159 -26q-54 5 -102 25t-90.5 59.5t-73 95.5t-47 138t-14.5 181zM353 1055.5q1 -45.5 3 -88t12.5 -80.5t26.5 -66.5t45 -44.5t69 -15q44 2 76 17.5t51.5 47.5t32 63t18 83.5t7 89 t2.5 97.5q0 39 -1 67.5t-4.5 68t-10 67.5t-18.5 58t-29 49t-43 31.5t-58 13.5q-25 1 -45.5 -4t-36.5 -16.5t-29 -24t-22.5 -33.5t-16.5 -38.5t-11.5 -46t-7.5 -48.5t-5 -53t-2.5 -53t-1.5 -54q-2 -42 -1 -87.5z" />
<glyph unicode=":" horiz-adv-x="492" d="M89 121q-4 61 44 113.5t108 54t112 -49t52 -111.5q2 -60 -48.5 -109t-111.5 -49q-58 0 -106.5 46.5t-49.5 104.5zM89 976q-2 24 6 48.5t22.5 45t34 37t42.5 26.5t47 10q60 4 112 -47t52 -111q2 -61 -48.5 -111.5t-111.5 -50.5q-58 0 -106.5 47t-49.5 106z" />
<glyph unicode=";" horiz-adv-x="515" d="M89 163q0 68 52 115t118 45q28 0 55.5 -11.5t53.5 -35t42.5 -67.5t16.5 -102q3 -111 -46 -219.5t-127 -191.5l-129 65q118 183 107 223q-7 15 -16 20q-5 5 -13 9t-18.5 7t-15.5 6q-35 16 -57.5 55t-22.5 82zM89 976q-2 24 6 48.5t22.5 45t34 37t42.5 26.5t47 10 q60 4 112 -47t52 -111q2 -61 -48.5 -111.5t-111.5 -50.5q-58 0 -106.5 47t-49.5 106z" />
<glyph unicode="&#x3c;" horiz-adv-x="1545" d="M186 803l1139 490l33 -81l-978 -409l978 -406l-33 -81z" />
<glyph unicode="=" horiz-adv-x="1501" d="M80 455v163h1343v-163h-1343zM80 991v163h1343v-163h-1343z" />
<glyph unicode="&#x3e;" horiz-adv-x="1545" d="M186 397l978 406l-978 409l33 81l1139 -490l-1139 -487z" />
<glyph unicode="?" horiz-adv-x="979" d="M89 1282q-1 48 12.5 98t44.5 98.5t76 86t113 59.5t149 20q77 -1 143.5 -24t114 -60t82 -85.5t51 -102t16.5 -108.5q0 -52 -15 -102.5t-45 -98t-53.5 -78t-61.5 -74.5q-6 -7 -23.5 -25.5t-25 -27t-22 -25t-23.5 -28.5t-20.5 -28t-19.5 -31q-77 -130 -77 -289h-175 q-6 110 13 195.5t43 138.5q19 45 43.5 89.5t61.5 103.5t52 85q22 42 35 74t21 77.5t6 95.5q-10 192 -143 196q-51 1 -80.5 -25t-29.5 -57q-1 -6 -0.5 -11.5t3 -12t3.5 -10t5 -12t6 -11.5q3 -6 18 -28t20 -35q13 -37 9 -80q-6 -66 -51.5 -103.5t-102.5 -39.5 q-70 -4 -121.5 51.5t-51.5 143.5zM273 121q-5 61 42.5 113.5t109.5 54.5q29 0 59 -13.5t53 -35.5t37 -52t14 -60q0 -60 -49 -109t-109 -49q-59 0 -107 46.5t-50 104.5z" />
<glyph unicode="@" horiz-adv-x="1797" d="M52 744q-1 108 26 214t78 200.5t127.5 175.5t170.5 141t211.5 95.5t245.5 39.5q137 4 263 -28t229 -97.5t180 -157t119.5 -211.5t43.5 -255q1 -87 -18.5 -172.5t-59 -160.5t-94 -131.5t-129 -88.5t-159.5 -30q-155 6 -225 119q-141 -108 -270 -102q-41 2 -81.5 13.5 t-82.5 38.5t-74 67t-52 103.5t-19 141.5q0 76 22.5 152.5t67 145.5t104.5 122t142.5 83.5t174.5 28.5q23 -2 35 -3.5t41.5 -10t51 -20.5t49.5 -36.5t51 -57.5l29 91h160l-160 -527q-9 -30 -11 -48q-2 -8 -9 -33.5t-11 -43.5t-5 -36q-1 -29 5.5 -51.5t16.5 -34.5t25.5 -20.5 t23.5 -11t20 -4.5q2 -1 3 -1q42 -3 92.5 17.5t100 65t90 105.5t64.5 147t22 181q-2 145 -58 272.5t-154 220.5t-241 145t-310 47q-97 -3 -187 -27.5t-166 -66t-141.5 -98t-115.5 -126t-86 -147.5t-54.5 -163.5t-18.5 -174.5q0 -125 37 -244.5t106.5 -219t163.5 -175.5 t215.5 -120t254.5 -47q314 0 517 174l43 -55q-64 -48 -130.5 -83t-121.5 -55t-113 -31.5t-100 -15t-89 -3.5q-131 0 -251 35t-214.5 97t-172 146.5t-129 182t-80 204t-29.5 213.5zM666.5 560.5q0.5 -36.5 9.5 -64.5t18.5 -48.5t24.5 -34.5t28 -23t30 -14t28.5 -7t24.5 -3 q39 -2 75 9t63 31t45 38.5t33 39.5l129 460q-13 83 -65.5 133.5t-120.5 52.5q-56 0 -110.5 -37t-98.5 -100.5t-74 -155t-38 -193.5q-2 -47 -1.5 -83.5z" />
<glyph unicode="A" horiz-adv-x="1510" d="M46 0v115h117l438 1522h267l453 -1522h148v-115h-601v115h158l-82 290h-480l-78 -290h152v-115h-492zM501 534h404l-209 761z" />
<glyph unicode="B" horiz-adv-x="1276" d="M65 0v121h154v1365h-154v124h617q98 0 183 -24.5t149.5 -71.5t101.5 -122q36 -73 36 -164q0 -56 -10 -99.5t-31 -77t-47 -60.5t-62.5 -48.5t-72.5 -38t-83 -32.5q112 -17 196 -75q82 -59 128 -155q42 -89 42 -198v-19q-3 -68 -19 -125.5t-39 -98t-56.5 -73.5t-65.5 -53.5 t-71.5 -35.5t-69.5 -22.5t-64.5 -11.5t-50.5 -4.5t-35 -0.5h-676zM507 128q49 -6 91 -6q4 0 8 -1q37 1 68 5q34 4 62 12.5t49.5 22t38 29.5t28 37.5t19.5 44t13 51t7 56.5t3 62q0 62 -5.5 111.5t-18 92t-33 72t-50.5 52t-70 31.5q-41 8 -93 10h-15q-47 0 -102 -10v-672z M507 935q75 -15 107 -15q252 0 252 302q0 29 -2 62q-4 52 -22.5 93t-47.5 65.5t-64 40.5q-34 16 -74 21q-33 4 -64 4h-12q-36 -1 -73 -7v-566z" />
<glyph unicode="C" horiz-adv-x="1215" d="M59 816v41q0 115 14 215q17 118 49 203t78 152t98.5 109.5t113 69t118.5 34.5q37 5 74 6q22 0 44 -2q150 -12 274 -112l41 62h133v-505h-174q-4 48 -10 88.5t-17 86.5t-25 81.5t-35.5 69t-48.5 55.5q-26 22 -62 34q-31 11 -68 10h-12q-43 -1 -78.5 -17t-61.5 -40 t-46 -62.5t-32.5 -77.5t-21 -92t-12.5 -98t-5 -105q-1 -40 0 -73q-1 -16 -1 -31q0 -43 2 -102q2 -73 4.5 -132.5t10.5 -134t21 -132.5t35 -116t52 -96t73.5 -61t97.5 -23q115 2 195 121t86 306h199q-2 -107 -23.5 -196t-53.5 -147.5t-77.5 -103t-88.5 -69t-93 -40t-85.5 -20 t-70.5 -4.5h-22q-22 0 -44 1q-34 2 -79 12.5t-86.5 28t-88 50t-86 75.5t-77 108.5t-64 146t-44 189.5t-20.5 237z" />
<glyph unicode="D" horiz-adv-x="1390" d="M65 0v121h154v1365h-154v124h617q59 0 116.5 -9.5t123 -34.5t121.5 -64t108.5 -103t90 -146.5t59.5 -199.5t22 -257t-19 -255.5t-51.5 -196.5t-79 -143.5t-97 -99.5t-110 -60.5t-113 -32t-112.5 -8.5h-676zM507 128q65 -11 120 -11q11 1 21 1q64 2 113 17.5t88.5 42.5 t66 63.5t47.5 79.5t32 91t19 99t9 103q1 54 3 104q1 25 1 49.5t-1 48.5q-1 60 -3.5 109.5t-10 110.5t-18.5 109.5t-31.5 101t-47 91.5t-65.5 74.5t-87.5 56t-113.5 29.5q-39 5 -82 5q-29 0 -60 -2v-1373z" />
<glyph unicode="E" horiz-adv-x="1219" d="M65 0v121h154v1365h-154v124h1054v-514h-178q-4 58 -8.5 103.5t-11 84t-12 66.5t-16 50.5t-19.5 37.5t-24.5 26t-28.5 16.5t-35 9t-41 4t-49 0.5h-195v-568h141v170h188v-473h-188v173h-141v-671h206q51 0 87.5 6t60.5 16.5t40 28.5t24.5 38.5t15.5 49.5q7 36 17 150 l14 143h188v-557h-1089z" />
<glyph unicode="F" horiz-adv-x="1219" d="M65 0v121h154v1365h-154v124h1054v-514h-178q-4 58 -8.5 103.5t-11 84t-12 66.5t-16 50.5t-19.5 37.5t-24.5 26t-28.5 16.5t-35 9t-41 4t-49 0.5h-195v-568h141v170h188v-473h-188v173h-141v-671l161 -2v-123h-597z" />
<glyph unicode="G" horiz-adv-x="1215" d="M59 816v41q0 115 14 215q17 117 49 202.5t78 152.5t98.5 109.5t113 69t118.5 34.5q37 6 74 6q22 0 44 -2q150 -12 274 -112l41 62h133v-505h-174q-4 48 -10 88.5t-17 86.5t-25 81.5t-35.5 69t-48 55t-62.5 34.5q-32 10 -68 10h-12q-43 -1 -78.5 -17t-61.5 -40t-46 -62.5 t-32.5 -77.5t-21 -92t-12.5 -98t-5 -105q-1 -41 -1 -73v-31q1 -43 2 -102q0 -71 3 -132.5t10.5 -134t20.5 -131.5t35.5 -116t52.5 -95.5t74 -62t98 -23.5q109 0 186.5 107.5t92.5 280.5v150q-27 4 -48 4.5t-36.5 -4t-26.5 -9t-18.5 -15.5t-12 -19.5t-7.5 -25t-4 -27 t-2.5 -31t-2.5 -31.5h-144v269h532l4 -790h-234v79q-122 -91 -291 -91q-34 0 -66.5 3t-78.5 13.5t-87 28t-88 49.5t-86 75t-76.5 108.5t-64 145t-44 188.5t-20.5 237z" />
<glyph unicode="H" horiz-adv-x="1468" d="M65 0v121h154v1365h-154v124h592v-124h-154v-558h463v558h-155v124h590v-124h-156v-1365h156v-121h-590v121h155v677h-463v-677h154v-121h-592z" />
<glyph unicode="I" horiz-adv-x="720" d="M65 0v121h154v1365h-154v124h590v-124h-152v-1365h152v-121h-590z" />
<glyph unicode="J" horiz-adv-x="1091" d="M57 321q0 48 18.5 88.5t47 65.5t61.5 38.5t66 13.5q25 0 51 -8.5t50.5 -26t41 -48t19.5 -69.5q1 -23 -2.5 -41.5t-13.5 -34t-20.5 -27t-28.5 -27.5q-20 -21 -26 -41q-11 -25 7 -49q18 -23 57 -23h3q29 1 52.5 11.5t40.5 26.5t30 43t22 52t15 63t9 66t4.5 71.5t2 69.5 t0.5 68v893h-152v122h588v-122h-152l-7 -1114q0 -110 -53.5 -204.5t-146.5 -149.5q-91 -54 -199 -54h-4q-73 1 -144 32t-123.5 79t-84.5 111q-29 59 -29 118v7z" />
<glyph unicode="K" horiz-adv-x="1371" d="M65 0v121h154v1365h-154v124h585v-124h-155v-558q14 -1 26 -1q26 0 48 4q33 6 55 16.5t39 30.5t26 36.5t15.5 42.5t9 41t4.5 39q1 11 7.5 85.5t11.5 111.5q3 31 6.5 54.5t13 57.5t22.5 59t36.5 52t54 44.5t75.5 29.5t101 13h12q65 0 117 -20q57 -22 89 -60q33 -36 49 -82 q15 -43 15 -90v-6q-2 -77 -46 -121t-107 -44q-35 1 -66 17.5t-52 48.5t-25 73q0 48 16 74q1 4 5 10.5t6.5 12.5t3.5 12q5 15 4 20q-7 18 -35 18q-17 2 -31 -3.5t-24 -20t-18 -29t-13 -40t-8 -44t-5 -50.5t-2.5 -49.5t-1.5 -50.5q-1 -20 -1 -29q-2 -43 -3.5 -66t-8.5 -58 t-20 -60q-18 -40 -55.5 -74.5t-90.5 -54.5q10 -2 27 -8.5t23 -8.5q54 -14 75 -24q62 -25 104 -66t69.5 -110t43 -156t25.5 -216q1 -35 2.5 -50t8.5 -39t20 -39q22 -24 64 -33q29 -6 57 -6q12 0 24 1v-123q-2 -1 -12.5 -5t-15.5 -5.5t-18.5 -6t-21 -6t-23.5 -5.5t-25.5 -4 t-27.5 -2h-11q-11 0 -19 2q-47 1 -85.5 11t-67.5 23t-52.5 39.5t-39.5 48t-29 62t-20.5 67t-14 78t-9.5 81t-8 88.5q-1 8 -1.5 13t-1 12.5t-1.5 13.5q0 3 -2 21.5t-2.5 23.5t-2.5 21.5t-3.5 23.5t-4 21.5t-5.5 22.5t-7 20t-9.5 21t-11.5 18q-31 50 -96 80q-47 22 -104 21 q-22 0 -46 -3v-675h155v-121h-585z" />
<glyph unicode="L" horiz-adv-x="1206" d="M65 0v121h154v1365h-154v124h590v-116h-154v-1369h206q63 0 104.5 8.5t65.5 28t36 42t22 60.5q7 36 17 150l14 143h188v-557h-1089z" />
<glyph unicode="M" horiz-adv-x="1811" d="M65 0v121h154v1365h-154v124h592l239 -1028l256 1028h592v-124h-154v-1365h154v-121h-592v121h156v1380l-367 -1501h-156l-360 1501v-1380h154v-121h-514z" />
<glyph unicode="N" horiz-adv-x="1656" d="M65 0v121h154v1365h-154v124h421l712 -1128v998h-148v130h496v-124h-155v-1365h155v-121l-400 -7l-741 1207v-1079h154v-121h-494z" />
<glyph unicode="O" horiz-adv-x="1308" d="M65 803q0 140 20 258.5t53 203.5t80 152t99 109t111.5 69t114.5 38t112 11q56 0 111 -11t114 -38t110.5 -69t98.5 -109t80 -152t52.5 -203.5t19.5 -258.5t-19.5 -258t-52.5 -202.5t-80 -150.5t-98.5 -107.5t-110.5 -68.5t-113.5 -37.5t-111.5 -10.5t-112 10.5t-115 37.5 t-111.5 68.5t-98.5 107.5t-80 150.5t-53 202.5t-20 258zM377 803q0 -90 1.5 -148t7 -141.5t16.5 -138.5t31.5 -116t49.5 -97t73 -60q43 -23 96 -22h5q50 0 90 17t68 54t48.5 74t32.5 100t19.5 109t10.5 124t3.5 121t0.5 124t-0.5 124.5t-3.5 122.5t-10.5 124.5t-19.5 109.5 t-32.5 101t-48.5 74t-68 53.5t-90 17.5q-44 0 -80.5 -14.5t-63.5 -37.5t-48.5 -62t-35.5 -77t-24 -94.5t-15.5 -102.5t-8 -112t-3.5 -112.5t-1 -114.5z" />
<glyph unicode="P" horiz-adv-x="1263" d="M65 0v121h154v1365h-154v124h478h18q49 0 76 -0.5t80.5 -3t87.5 -9t84.5 -17t83.5 -28.5t73.5 -42.5t66.5 -59.5t49.5 -78.5t35 -101.5t12.5 -127v-8q0 -83 -20 -151q-20 -72 -52.5 -119t-81 -82.5t-94.5 -54t-103 -30t-98 -14t-86 -2.5h-172v-561h152v-121h-590z M503 809q55 -10 102 -11h10q41 0 73 7q36 8 65 21t49.5 34t36.5 42t25.5 49.5t15.5 51.5t9 52.5t4 49t1 43.5q0 61 -2.5 100.5t-22.5 99.5t-59 92q-38 34 -117 52q-42 10 -94 9q-45 0 -96 -7v-685z" />
<glyph unicode="Q" horiz-adv-x="1343" d="M65 803q0 140 20 258.5t53 203.5t80 152t99 109t111.5 69t114.5 38t112 11q56 0 111 -11t114 -38t110.5 -69t98.5 -109t80 -152t52.5 -203.5t19.5 -258.5q0 -476 -220 -692v-7q1 0 23 -16t46.5 -35t52.5 -42q41 -40 76 -54q22 -11 47 -11q9 0 18 1q35 5 61 31l44 -21 q-46 -51 -97 -75q-49 -23 -93 -23q-1 0 -1 1q-45 0 -89 19q-25 11 -51 30t-76 61q-52 45 -80 58q-110 -60 -247 -60q-57 0 -112 10.5t-115 37.5t-111.5 68.5t-98.5 107.5t-80 150.5t-53 202.5t-20 258zM377 803q0 -90 1.5 -148t7 -141.5t16.5 -138t31.5 -115.5t49.5 -97 t73.5 -59.5t100.5 -23.5q79 0 134 45l-21 18q-40 40 -78 59q-20 9 -38 12.5t-34.5 1t-30 -7t-30.5 -13.5l-47 21q3 3 9 7q31 22 48.5 33.5t49.5 27.5t56 20t56 1t63 -19q22 -11 72 -52q22 54 36 121t19.5 151.5t7 142.5t1.5 154q0 81 -0.5 124.5t-3.5 122.5t-10.5 125 t-19.5 110t-32.5 101t-48.5 73.5t-68 53.5t-90 17q-44 0 -80.5 -14.5t-63.5 -37.5t-48.5 -62t-35.5 -77t-24 -94.5t-15.5 -102.5t-8 -112t-3.5 -112.5t-1 -114.5z" />
<glyph unicode="R" horiz-adv-x="1356" d="M73 0v121h155v1365h-155v124h155h447q22 0 42 -1t60 -5t73.5 -11t78 -22t79.5 -35.5t71 -52.5t59.5 -72t38.5 -96q14 -52 14 -114v-8q-1 -54 -10 -98.5t-29 -85t-55.5 -73.5t-85.5 -58q-22 -10 -64 -25.5t-53 -20.5q-20 -4 -64 -18q51 -13 92.5 -30.5t70.5 -37 t51.5 -44.5t36 -48.5t23 -53t14 -54t8.5 -55.5l22 -211q2 -26 4 -39.5t5.5 -32.5t8.5 -28.5t13 -21.5t19.5 -17.5t27 -11t36.5 -6.5t48 0v-123q-81 -32 -155 -32q-27 0 -53 4q-32 4 -60.5 13t-49.5 20.5t-39 28.5t-30 32t-22 36.5t-15.5 36t-10.5 36t-7 32t-4 27.5l-34 280 q-4 30 -9.5 55t-17 53t-27 49t-40 40t-56 30.5t-75.5 16.5q-24 3 -52 3q-22 0 -46 -2v-638h155v-121h-589zM507 889q44 -6 83 -6q56 -1 100 11q76 20 112.5 52.5t57.5 86t24 84.5t3 70q0 22 -0.5 39.5t-2.5 44t-7.5 47t-14.5 46t-24 44.5t-35 38t-49 30q-29 10 -64 18 q-31 7 -71 7h-11q-46 -1 -101 -10v-602z" />
<glyph unicode="S" horiz-adv-x="1165" d="M65 352q0 92 51 148q49 54 115 53h5q41 0 76 -20.5t57.5 -58.5t23.5 -86q0 -78 -46 -134q-14 -10 -20 -22q-6 -13 -6 -26q1 -24 31 -52q31 -30 81 -50q44 -18 86 -17h13q24 0 44 2t44.5 6t43.5 10t39.5 16t36 24t29.5 33.5t23 43.5q8 25 14 57q5 27 5 59v12 q0 69 -11.5 120.5t-29 84t-52 64.5t-66 54t-87 62t-101.5 79q-13 11 -39 32q-39 33 -58 49.5t-51.5 45.5t-48.5 45t-40 42.5t-36 44.5t-27 43.5t-21 48t-11 49.5t-4 55q0 56 18 111t54.5 104.5t87.5 86.5t123 58.5t155 21.5q177 0 298 -98l27 63h141v-475l-168 -2 q-3 51 -8.5 94t-16 88.5t-29 79.5t-44.5 61.5t-64 41.5q-36 14 -80 14h-6q-53 0 -95 -14.5t-66.5 -36.5t-41 -51.5t-22.5 -55.5t-7 -52q0 -35 11.5 -65t28.5 -52.5t50.5 -50.5t64 -49.5t83 -59t94.5 -70.5q102 -79 169 -140.5t117 -125.5t72.5 -127.5t23.5 -135.5v-5 q0 -109 -40 -197q-42 -90 -115 -148t-172 -88q-90 -27 -195 -26h-21q-104 0 -189 24.5t-140 63t-92.5 89t-53 102.5t-15.5 105z" />
<glyph unicode="T" horiz-adv-x="1240" d="M54 1082v528h1128v-528h-173q-3 67 -13 128q-10 68 -11 81q-1 2 -3.5 20t-3 22.5t-3.5 20t-5 22t-6 18t-9 20t-11 16.5q-28 36 -81 54q-33 12 -69 11q-21 0 -44 -4v-1370h155v-121h-571v121h154v1370q-23 4 -44 4q-36 1 -69 -11q-52 -18 -80 -54q-6 -8 -11 -16.5t-9 -20 t-6.5 -18t-5 -22t-3.5 -20t-3.5 -22.5t-2.5 -20q-9 -59 -11 -81q-7 -41 -11 -128h-178z" />
<glyph unicode="U" horiz-adv-x="1554" d="M73 1486v124h586v-124h-154l2 -977q0 -45 1 -77t4 -72t9 -67.5t16.5 -58t25.5 -51t36.5 -40.5t49 -31.5t63.5 -18.5q32 -6 71 -6h11q57 0 100.5 12t72.5 28.5t48.5 51.5t29.5 61.5t15 80.5t6 87t1 101l-4 985h-154v122h587v-122h-155l2 -917q0 -141 -42 -255t-116.5 -189 t-175 -116t-218.5 -43h-5q-118 0 -222 42q-106 43 -181 121.5t-118 193.5q-42 112 -42 247v6l5 902h-155z" />
<glyph unicode="V" horiz-adv-x="1529" d="M46 1491v119h604v-119h-145l311 -1084l295 1084h-145v119h520v-119h-154l-468 -1491h-180l-486 1491h-152z" />
<glyph unicode="W" horiz-adv-x="2358" d="M80 1491v119h604v-119h-146l312 -1084l232 860l-73 224h-152v119h605v-119h-146l311 -1084l297 1084h-146v119h521v-119h-156l-468 -1491h-179l-305 935l-293 -935h-180l-486 1491h-152z" />
<glyph unicode="X" horiz-adv-x="1479" d="M46 0v121h149l389 727l-345 641h-150v121h607v-121h-153l207 -398l198 398h-152v121h514v-121h-151l-300 -589l423 -779h152v-121h-611v121h153l-287 527l-277 -527h152v-121h-518z" />
<glyph unicode="Y" horiz-adv-x="1529" d="M46 1491v119h604v-119h-162l321 -602l323 602h-166v119h520v-119h-154l-414 -816v-554h153v-121h-589v121h152v558l-436 812h-152z" />
<glyph unicode="Z" horiz-adv-x="1479" d="M50 0v121h104l740 1368l-298 -5q-41 -1 -74.5 -3.5t-61 -9.5t-48.5 -14.5t-37.5 -21t-28 -26.5t-20 -34t-14 -40t-9 -48.5t-5 -55.5t-3.5 -64h-124q-1 28 -1.5 73.5t-2 142.5t-1.5 162t3 65h1139v-121h-110l-736 -1368h454q275 0 279 406h133l2 -527h-1280z" />
<glyph unicode="[" horiz-adv-x="885" d="M161 -416v2026h562v-124h-282v-1781h282v-121h-562z" />
<glyph unicode="\" horiz-adv-x="890" d="M0 1692l80 28l811 -1924l-77 -35z" />
<glyph unicode="]" horiz-adv-x="885" d="M161 -295h282v1781h-282v124h562v-2026h-562v121z" />
<glyph unicode="^" horiz-adv-x="697" d="M30 1293l317 317l319 -317h-161l-158 156l-154 -156h-163z" />
<glyph unicode="_" horiz-adv-x="1108" d="M0 -284h1109v-91h-1109v91z" />
<glyph unicode="`" horiz-adv-x="512" d="M89 1232q-2 76 21.5 154.5t60.5 141t85 116.5l135 -64q-29 -36 -72 -116.5t-37 -108.5q5 -16 15 -23q7 -5 15 -8t19 -6.5t16 -5.5q35 -15 57.5 -55t22.5 -84q-1 -66 -54.5 -113.5t-118.5 -46.5q-22 1 -43.5 8t-44 23t-39 40t-27.5 62t-11 86z" />
<glyph unicode="a" horiz-adv-x="926" d="M54 223v7q0 51 14 100q15 52 51.5 103t92.5 93t141.5 76.5t192.5 54.5v223q0 6 -0.5 11t-2.5 14.5t-6.5 17t-12.5 16.5t-19.5 15t-29 10t-39.5 4h-6q-42 0 -66 -14q-26 -14 -32 -36q-2 -11 7 -46q12 -30 13 -37q6 -22 2 -52q-10 -45 -46 -75q-35 -29 -82 -29h-3 q-56 4 -89 47q-30 39 -30 94v10q3 50 32 98t76.5 84.5t114.5 58.5q61 20 127 20h12q20 0 40.5 -3t48 -8.5t53 -17t52 -27t48 -40t38.5 -54.5t27 -72t10 -92v-541q0 -42 2 -67q0 -44 13 -62q8 -7 22.5 -11t27.5 -5t22 0v-98q-91 -19 -129 -19q-41 1 -76 12.5t-57.5 29.5 t-37 36.5t-24.5 38.5q-28 -31 -65 -56.5t-81.5 -42t-85.5 -18.5q-31 0 -65 8.5t-68 28.5t-61.5 48.5t-45.5 71t-20 92.5zM284 226q1 -24 11 -41t19.5 -27.5t23.5 -16.5t22.5 -8t16.5 -3h7q14 0 28 3q18 4 37 13t36.5 25t31 36.5t21.5 50t8 63.5v208q-30 -5 -59.5 -14.5 t-63.5 -29t-60.5 -45.5t-47.5 -66.5t-29 -89.5q-2 -26 -2 -45v-13z" />
<glyph unicode="b" horiz-adv-x="1076" d="M68 0v121h127v1395q2 -2 -28 -3t-61 -1h-31v109q258 10 357 21v-583q82 37 162 37q134 0 234.5 -73.5t152 -199.5t51.5 -287t-51.5 -286t-151.5 -197.5t-235 -72.5q-71 0 -132 20h-394zM414 507q0 -57 1 -86.5t3.5 -81t9 -80.5t19 -66t31 -56.5t47.5 -33.5t66 -14 q39 0 69.5 14.5t50 34t33.5 58.5t20.5 68.5t10 83.5t4 84.5t0.5 89.5v14.5v13.5q0 60 -0.5 91t-4 85t-10 84t-20.5 69t-33.5 59t-50 34.5t-69.5 14.5q-37 0 -66 -14t-47.5 -33.5t-31 -57t-19 -66.5t-9.5 -81.5t-3.5 -82t-0.5 -86.5v-30v-29z" />
<glyph unicode="c" horiz-adv-x="900" d="M54 523q1 84 12 156.5t31 126t45 97.5t56 74t62.5 52t66.5 34.5t66 19t62 8.5q14 1 27 1q66 0 124 -20q69 -24 112.5 -67t68.5 -93t29 -101v-10q0 -65 -36 -113q-39 -50 -103 -52h-6q-55 0 -93 38q-40 40 -40 90q0 34 19 61q3 5 16.5 22.5t17.5 27.5q2 8 2 16 q0 27 -24 53q-27 29 -74 30q-7 0 -15 -1q-41 -2 -71.5 -24t-48 -57.5t-29 -81.5t-14.5 -95.5t-5 -99.5q-1 -25 -1 -48.5t1 -45.5v-18q1 -52 1.5 -79.5t4 -76.5t10 -76.5t19 -63.5t30.5 -55t45 -34t62 -16h6l68 19q37 21 60 54q6 9 10.5 18t8.5 20.5t6 19.5t4.5 22.5 t3.5 20.5t3.5 22.5t2.5 20.5q1 7 2 24.5t3 25.5h163v-21q0 -21 -1 -42q-2 -31 -10.5 -70.5t-22.5 -73.5t-40 -68.5t-61 -59t-86.5 -41t-115.5 -19.5h-18q-76 0 -140 22q-72 26 -122.5 75.5t-85.5 119.5t-51.5 153.5t-16.5 178.5z" />
<glyph unicode="d" horiz-adv-x="1076" d="M50 523q0 161 51.5 287t152 199t234.5 73q80 0 162 -36v466q3 -3 -26.5 -4.5t-60.5 -2.5h-31v109q281 11 355 18v-1525h126v-120h-393q-65 -21 -132 -21q-134 0 -234.5 72.5t-152 198t-51.5 286.5zM302 509v-90t4 -84.5t10.5 -83.5t20.5 -68.5t33.5 -58.5t50 -34.5 t70.5 -14.5q37 0 65.5 14.5t47.5 34t31.5 57t19 66.5t10 81t3.5 82v86v27v26v88t-3.5 82.5t-10 81.5t-19 67t-31.5 57.5t-47.5 33.5t-65.5 14q-40 0 -70.5 -14.5t-50 -34.5t-33.5 -58.5t-20.5 -68.5t-10 -84.5t-4 -85.5t-0.5 -90v-14.5v-13.5z" />
<glyph unicode="e" horiz-adv-x="872" d="M54 464v29q0 83 10 157q12 86 34 148.5t54 113.5t68 83.5t76.5 54.5t78.5 31.5t76 9.5h5q59 0 115 -23q58 -24 107.5 -74t83.5 -120t50 -170q9 -60 10 -126q0 -42 -4 -87h-506q-1 -32 -1 -61q0 -325 164 -328q32 -1 62 13t55.5 42.5t40.5 78.5t15 116h170 q-2 -83 -23.5 -148.5t-56 -108t-81.5 -70.5t-97.5 -39.5t-106.5 -11.5q-177 4 -284.5 132.5t-114.5 357.5zM309 694q2 -50 3 -93h279q1 21 1 40q0 75 -10 135q-12 75 -33 116t-45.5 61t-52.5 20h-6q-39 0 -67 -23q-30 -25 -43 -65.5t-21 -90.5q-6 -39 -5 -79v-21z" />
<glyph unicode="f" horiz-adv-x="811" d="M20 955v112h143v256q0 53 13.5 108t42.5 108.5t69.5 97t99.5 75t128 41.5q21 3 42 3q70 0 127 -40q73 -52 90 -148q2 -16 2 -32q0 -18 -3 -34q-6 -31 -21.5 -51t-36 -32.5t-43.5 -15.5q-10 -1 -19 -1q-36 0 -70 22q-41 27 -52 81v12v13.5v14t0.5 14.5t1 13t2 12.5t3 10.5 t4.5 8q0 4 4 9.5t8 8.5l4 4q0 4 -2 13.5t-2 14.5q-19 9 -32 9q-20 0 -42 -10t-30 -23q-8 -8 -13.5 -15t-10.5 -12t-8 -12t-5.5 -10t-4 -10.5t-2.5 -10t-1.5 -12.5t-0.5 -13v-17v-19q0 -25 -1.5 -116t-1.5 -120v-195h257v-112h-257l-2 -853h107l-2 -111h-437v100h95v864h-143 z" />
<glyph unicode="g" horiz-adv-x="981" d="M54 532q0 90 15 166.5t38 130t56.5 97t66 70t71 46.5t67 29t59 14t42 5.5t19.5 0.5q115 0 201 -52v61q11 0 31 -4.5t28 -4.5q17 0 48 -9t45 -9q11 -2 36 -6t36 -6t29.5 -4.5t35 -3.5t33.5 -1v-106h-89v-953q0 -77 -17 -142.5t-45 -111t-65.5 -82.5t-76.5 -59t-80 -36.5 t-73.5 -20t-59.5 -5.5q-32 0 -66 3.5t-74 13.5t-76 25t-71 40t-60.5 56.5t-41.5 77t-18 98.5l232 2q6 -71 16.5 -113t32 -65.5t49.5 -30.5t77 -7q95 0 148.5 112t53.5 302q-52 -38 -103 -57t-116 -19q-132 0 -231.5 73t-151 198.5t-51.5 286.5zM310 427.5q0 -25.5 2 -72 t6.5 -72.5t12.5 -62t21.5 -56.5t31.5 -41.5t44 -30t58 -9q40 0 70.5 14.5t50 34.5t33 58.5t20.5 68.5t10.5 83.5t4 84.5t0.5 90v13.5v14.5q0 59 -0.5 90t-4 85.5t-10.5 84.5t-20.5 68.5t-33 58.5t-50 34.5t-70.5 14.5q-37 0 -65.5 -14t-47 -33.5t-31.5 -57t-19 -66.5 t-9.5 -81t-3.5 -82v-87v-29v-30v-74.5z" />
<glyph unicode="h" d="M34 1525v110q280 11 354 18q4 -3 4 -168t-2 -328l-2 -164q128 76 248 76h6q38 -1 70.5 -9.5t55.5 -22t42 -34t30.5 -40t20 -46.5t12.5 -46.5t6.5 -47t2.5 -42v-35.5v-651h94v-99h-425v99h97v675q0 4 0.5 22t0 24t-1.5 22t-3.5 23t-7 20t-11.5 19.5t-17 15.5t-24 14t-31 9 q-12 3 -25 3q-25 0 -56 -10q-48 -14 -84 -34v-803h98v-99h-432v99h98v1437q3 -3 -26.5 -4.5t-60.5 -2.5h-31z" />
<glyph unicode="i" horiz-adv-x="579" d="M73 952l2 111h437v-100h-96v-863h96v-100h-430v100h96l2 852h-107zM150 1403q0 67 47.5 112t112.5 45q44 0 80.5 -22t56 -58t19.5 -77q0 -42 -20 -78t-56 -58t-80 -22q-69 0 -114.5 46.5t-45.5 111.5z" />
<glyph unicode="j" horiz-adv-x="770" d="M30 -316q-3 18 -3 35q0 47 23 79q32 45 82 52q10 1 19 1q36 0 69 -21q42 -28 53 -82q2 -20 2 -36q0 -45 -13 -62q-16 -21 -17 -23q-4 -15 5 -27q10 -10 32 -10q10 1 20.5 4t20.5 7t18.5 9.5t12.5 12.5q24 25 36.5 53.5t16 48.5t7.5 64q1 8 1 22q0 41 -9 135 q-11 128 -11 147l2 853h-106l2 111h436v-100h-95v-864q0 -68 -9.5 -135t-27 -130.5t-46.5 -119t-66.5 -99.5t-87.5 -72.5t-108 -37.5q-21 -3 -42 -3q-70 0 -127 40q-73 52 -90 148zM369 1395q0 67 47 112.5t111 45.5q67 0 112 -47t45 -111t-45 -110t-112 -46q-68 0 -113 46 t-45 110z" />
<glyph unicode="k" horiz-adv-x="1024" d="M34 1525v110q268 11 348 18q-3 -38 -3 -221q1 -30 1 -64q0 -242 2 -522l2 -280h1q19 0 90 90q73 92 136 186l64 93h-100v102h380v-102h-96l-291 -376q3 -1 10 -3q65 -23 95 -35.5t73 -37.5t64 -52t41.5 -71t30.5 -104q5 -28 3 -54t3 -50t21 -34q12 -11 37.5 -14.5 t44.5 -1.5v-102q-71 -26 -145 -26h-4q-14 0 -22 0.5t-23.5 3t-25.5 7.5t-25 15t-26.5 24t-25.5 36t-26 50.5t-25 67.5t-25 86q-2 7 -7.5 29.5t-8.5 33t-8.5 28t-11.5 31t-14 26.5q-14 34 -62 48q-31 9 -73 9q-23 0 -49 -3v-366h93v-100h-423v100h94v1430z" />
<glyph unicode="l" horiz-adv-x="781" d="M134 -4v119h128v1397q-1 1 -8 1.5t-17.5 0.5h-23t-25 -0.5t-22.5 -1t-16 -0.5h-7v95q268 11 355 25v-1517h122v-119h-486z" />
<glyph unicode="m" horiz-adv-x="1506" d="M28 946v95q135 5 363 26l-3 -74q128 76 254 76q114 0 178 -76q77 59 146 73q39 8 86 8q35 0 74 -5q49 -6 88 -23t64 -37.5t42.5 -50.5t26.5 -54.5t13.5 -58.5t5 -52.5t0.5 -46.5v-651h94v-99h-425v99h97v675q0 4 0.5 22t0 24t-1.5 22t-3.5 23t-7 20t-11.5 19.5t-17 15.5 t-24 14t-31 9q-21 5 -60 -4t-67 -21l-28 -12v-156v-651h94v-99h-425v99h97v675q0 4 0.5 22t0 24t-1.5 22t-3.5 23t-7 20t-11.5 19.5t-17 15.5t-24 14t-31 9q-12 3 -25 3q-25 0 -56 -10q-48 -14 -84 -34v-803h98v-99h-432v99h98v862q-5 -3 -36 -6t-60 -4z" />
<glyph unicode="n" d="M28 946v95q135 5 363 26l-3 -74q128 76 248 76h6q38 -1 70.5 -9.5t55.5 -22t42 -34t30.5 -40t20 -46.5t12.5 -46.5t6.5 -47t2.5 -42v-35.5v-651h94v-99h-425v99h97v675q0 4 0.5 22t0 24t-1.5 22t-3.5 23t-7 20t-11.5 19.5t-17 15.5t-24 14t-31 9q-12 3 -25 3 q-25 0 -56 -10q-48 -14 -84 -34v-803h98v-99h-432v99h98v855z" />
<glyph unicode="o" horiz-adv-x="981" d="M54 532q0 90 15 166.5t38 130t56.5 97t66 70t71 46.5t67 29t59 14t42 5.5t19.5 0.5q135 0 235.5 -73t152.5 -199t52 -287t-52 -286.5t-152.5 -198.5t-235.5 -73q-132 0 -231.5 73t-151 198.5t-51.5 286.5zM310 416.5q0 -29.5 3.5 -81t9.5 -80t19 -66t31.5 -57t47 -33.5 t65.5 -15h5q37 0 65 13q30 14 50 34t33.5 58.5t20.5 68.5t10.5 84.5t4 85.5t0.5 90v13.5v14.5q0 59 -0.5 90.5t-4 86t-10.5 84.5t-20.5 68.5t-33.5 58.5t-50 34q-29 14 -65 14h-5q-37 0 -65.5 -14.5t-47 -34t-31.5 -57t-19 -66t-9.5 -80.5t-3.5 -82v-87v-29v-30v-85.5z" />
<glyph unicode="p" horiz-adv-x="1015" d="M54 -319h96v1265h-89v106q59 2 171 21q58 13 93 18q8 1 28 4.5t31 4.5v-154q40 61 99 100.5t120 44.5q13 2 26 2q20 0 40 -4q34 -6 69.5 -24t68.5 -47t62 -75t49.5 -104t32.5 -138q10 -69 10 -147v-27q-2 -97 -16 -178.5t-35.5 -137.5t-51.5 -99.5t-61 -69t-65.5 -41.5 t-64 -21.5t-58.5 -5.5q-57 0 -119 30t-106 91v-414h96v-99h-426v99zM393 492q0 -48 0.5 -74t3.5 -73t9 -74.5t17 -62.5t27 -54t41 -33t57 -14h6q27 0 54 16q29 18 49 46q16 22 25 52.5t10.5 51.5t3.5 59v11q1 22 2.5 62t3 72.5t1.5 60.5q0 30 -2.5 94.5t-2.5 98.5 q0 6 -0.5 21.5t-1 22.5t-1.5 21.5t-2.5 22.5t-4 20.5t-6 21.5t-9 19t-11.5 18q-20 25 -48 40q-26 12 -52 12h-7q-32 -1 -58 -16.5t-42.5 -38t-28.5 -58.5t-18.5 -68t-10 -78t-4 -77t-0.5 -76v-46z" />
<glyph unicode="q" horiz-adv-x="1015" d="M63 534v15q0 84 11 159q11 80 32 138t50 104t62 74.5t69 46.5t70 24q23 4 44 4q11 0 22 -1q61 -5 120 -45t99 -101v155q10 -2 30.5 -5t27.5 -4q36 -5 94 -18q112 -19 169 -21v-107h-88v-1264h95v-100h-424v100h96v414q-44 -61 -106 -90.5t-120 -29.5q-29 0 -58 5.5 t-64 21.5t-66 41t-61 68.5t-51.5 99.5t-36 137t-16.5 179zM323 546q0 -28 1 -60.5t3 -73.5t3 -62q1 -47 2.5 -65t10.5 -52t26 -58q20 -27 49 -45q28 -17 56 -17h3q25 1 45.5 9.5t35.5 20.5t27 34.5t19.5 42t13 51.5t8 53.5t4 58.5t1.5 57v57q0 34 1 49q0 39 -1 66l-2.5 67.5 t-6.5 69t-12 62.5t-19.5 57.5t-28.5 44.5t-39.5 32t-51.5 12q-12 0 -24.5 -2t-24 -6.5t-22 -11t-19.5 -15t-17 -17.5q-8 -10 -13.5 -20t-9.5 -23.5t-6 -22.5t-3.5 -26t-2 -23.5t-1 -26.5t-1.5 -24q0 -34 -2 -98.5t-2 -94.5z" />
<glyph unicode="r" d="M54 -4v99h98v855l-91 -4v106q59 2 171 21q58 13 93 18q8 1 28 4.5t31 4.5h1q3 0 3 -24q1 -26 1 -54l-1 -29q128 76 248 76h6q38 -1 70.5 -9.5t55.5 -22t42 -34t30.5 -40t20 -46.5t12.5 -46.5t6.5 -47t2.5 -42v-35.5v-98h-234v122q0 4 0.5 22t0 24t-1.5 22t-3.5 23t-7 20 t-11.5 19.5t-17 15.5t-24 14t-31 9q-12 3 -25 3q-25 0 -56 -10q-48 -14 -84 -34v-803h98v-99h-432z" />
<glyph unicode="s" horiz-adv-x="883" d="M59 271q3 67 41 106t91 39q52 0 90 -35.5t38 -94.5q-4 -30 -22 -63q-14 -19 -17 -30q-15 -18 -5 -39q3 -12 13 -23.5t26.5 -21t41.5 -15t54 -5.5q68 0 118 47q47 44 47 94v6q-2 25 -14.5 49t-31 42.5t-46.5 39.5t-53 37t-58 37.5t-56 38.5q-44 32 -73 55.5t-64.5 58.5 t-55.5 66.5t-34 73t-14 84.5q3 78 47 142q46 62 116 96q65 31 135 32q6 0 13 -1q124 -5 208 -96v68h145v-345h-145q-1 24 -5 49.5t-14.5 59.5t-27 61t-45.5 48t-66 27q-25 4 -45 4q-111 0 -111 -104q0 -20 7.5 -40t17 -36.5t29 -36t32.5 -31.5t38 -30t36 -25.5t35 -23.5 q9 -6 42.5 -28.5t45.5 -30.5t42.5 -30t43.5 -33t38 -32.5t36.5 -36t28.5 -36t25 -39.5t14 -40t7 -44v-11q0 -91 -48 -158q-50 -71 -135 -105q-80 -32 -180 -32h-12q-92 2 -164.5 28t-115.5 68t-65 92q-20 46 -19 94v9z" />
<glyph unicode="t" horiz-adv-x="885" d="M115 961v112h144q3 0 3.5 104.5t0.5 208.5l-1 105q-40 1 -64.5 1t-34.5 -1v107q118 5 171 14q17 4 50 6.5t43 4.5q6 0 19.5 5.5t23.5 6.5h4q9 0 24 -3v-1v-1v-1v-1v-1v-1v-1v-1v-1v-1v-1v-1v-1v-1v-1v-1v-1v-1v-1v-1v-1v-1v-1v-1v-1v-1v-1v-1v-1v-1v-1v-1v-1v-1v-1v-1v-1 v-1v-1v-1v-1v-1v-1v-1v-1v-1v-1v-1v-1v-1v-1v-1v-1v-1v-1v-1v-1v-1v-1v-1v-1v-1v-1v-1v-1v-1v-1v-1v-1v-1v-1v-1v-1v-1v-1v-1v-1v-1v-1v-1v-1v-1v-1v-1v-1v-1v-1v-1v-1v-1v-1v-1v-1v-1v-1v-1v-1v-1v-1v-1v-1v-1v-1v-1v-1v-1v-2v-1v-1v-1v-1v-1v-1v-1v-1v-1v-2v-1v-1v-1v-1 v-1v-1v-1v-2v-1v-1v-1v-1v-1v-2v-1v-1v-1v-1v-2v-1v-1v-1v-1v-2v-1v-1v-1v-1v-2v-1v-1v-1v-2v-1v-1v-1v-1v-2v-1v-1v-2v-1v-1v-1v-2v-1v-1v-1v-2v-1v-1v-2v-1v-1v-2v-1v-1v-2v-1v-1v-1v-2v-1v-1v-2v-1v-2v-1v-1v-2v-1v-1v-2v-1v-1v-2v-1v-2v-1v-1v-2v-1v-1v-2v-1v-2v-1v-1 v-2v-1v-2v-1v-2v-1v-1v-2v-1v-2v-1v-2v-1v-2v-1v-1v-2v-1v-2v-1v-2v-1v-2v-1v-2v-1v-2v-1v-2v-1v-2v-1v-2v-1v-2v-1v-2v-1v-2v-1v-2v-1v-2v-1v-2v-1v-2v-1v-2v-2v-1v-2v-1v-2v-1v-2v-1v-2v-2v-1v-2v-1v-2v-1v-2v-2v-1v-2v-1v-2v-2v-1v-2v-1v-2v-2v-1v-2v-2v-1v-2v-1v-2v-2 v-1v-2v-2v-1v-2v-2v-1v-2v-1v-2v-2v-1v-2v-2v-1v-2v-2v-2v-1v-2v-2v-1v-2v-2v-1v-2v-2v-1v-2v-2v-2v-1v-2v-2v-1v-2v-2v-2v-1v-2v-2v-2v-1v-2v-2v-2v-1v-2v-2v-2v-1v-2v-2v-2v-2v-1v-2v-2v-2v-1v-2v-2v-2v-2v-1v-2v-2v-2v-2v-1v-2v-2v-2v-2v-2v-1v-2v-2v-2v-2v-2v-2v-1v-2 v-2v-2v-2v-2v-2v-1v-2v-2v-2v-2v-2v-2v-2v-2v-1v-2v-2v-2v-2v-2v-2v-2v-2v-10h257v-112h-257v-729q0 -62 116 -82q10 -2 21 -2t22.5 2t22.5 5t22 6.5t21 7.5t18 7.5t14 6t10 4.5l3 2l67 -102q-2 -2 -5 -4.5t-13 -11.5t-21.5 -16.5t-29.5 -18.5t-36.5 -18.5t-44 -16.5 t-50.5 -12t-57 -5h-13q-24 0 -49 5q-54 8 -99.5 26t-82 47.5t-57.5 74t-21 99.5l3 725h-144z" />
<glyph unicode="u" d="M34 932v100q67 3 170 20q17 4 50.5 7t42.5 4q4 1 18 6t28.5 4t31.5 -10l-2 -774q0 -5 -0.5 -22.5t0.5 -23.5t1.5 -21.5t3 -22.5t7 -20t12 -19.5t17 -15.5t23.5 -14t31 -9q12 -3 26 -3q24 0 54 9q48 14 84 34q0 769 4 771q-42 2 -68 2t-36 -2v107q117 4 171 13q17 4 50 7 t43 4q5 1 13.5 4.5t15.5 6t19 3.5h3q10 0 19 -4q2 -5 2 -247q0 -81 1 -161q0 -161 -1 -322v-241h98v-102h-330l-4 65q-127 -74 -246 -74h-6q-50 1 -89 15t-63.5 34t-42.5 51.5t-26.5 57t-13.5 62t-5.5 56t-0.5 47.5v618q-10 1 -24.5 1h-43t-37.5 -1z" />
<glyph unicode="v" horiz-adv-x="1031" d="M46 955v108h431v-108h-82l208 -623l176 623h-97v108h350v-108h-75l-282 -957l-166 -7l-372 964h-91z" />
<glyph unicode="w" horiz-adv-x="1629" d="M46 955v108h431v-108h-82l208 -623l176 623h-97v108h350v-108h-75l-5 -14l202 -609l178 623h-98v108h350v-108h-74l-282 -957l-167 -7l-220 571l-166 -564l-166 -7l-372 964h-91z" />
<glyph unicode="x" horiz-adv-x="1050" d="M46 0v111h79l280 423l-246 427h-86v102h434v-102h-102l148 -261l143 261h-100v102h380v-102h-96l-251 -375l289 -475h87v-111h-437v111h91l-175 294l-159 -294h80v-111h-359z" />
<glyph unicode="y" horiz-adv-x="1031" d="M46 955v108h431v-108h-82l208 -623l176 623h-97v108h350v-108h-75l-275 -916q-13 -45 -21.5 -73t-23.5 -71t-27 -71t-31.5 -64.5t-38.5 -60t-44.5 -48t-53.5 -38t-64 -21.5q-31 -8 -66 -8h-8q-97 1 -160 66q-62 63 -62 155v6q2 71 40 109q36 37 82 37h5q48 0 84.5 -35 t36.5 -91q0 -24 -8 -53t-20 -40q-3 -4 -9.5 -10.5t-8.5 -9.5q-7 -10 0 -28q7 -13 30 -13h7q33 0 59 28q10 8 19 18.5t16 19.5t14 23.5t11 22.5t10 26l8 24t8 27t7 25q3 13 12.5 45.5t15 55.5t8.5 47l-372 916h-91z" />
<glyph unicode="z" horiz-adv-x="1050" d="M48 0v111h75l513 850l-306 2q-92 -11 -126 -63q-33 -49 -33 -145v-11h-106v319h883v-102h-66l-500 -850h353q159 5 159 254v12h102v-377h-948z" />
<glyph unicode="{" horiz-adv-x="679" d="M104 755v77q37 5 67 21t48 39.5t32 52.5t20 60t10 61t3 55.5t0 45.5q-4 95 -4 141q-3 15 -1 38.5t2.5 50.5t9 57.5t19 60.5t33 58.5t51 52t72.5 41t98 25.5l9 -67q-18 -3 -34.5 -9t-36.5 -19.5t-35 -32.5t-26 -50.5t-14 -70.5q-3 -53 3 -92q2 -35 6 -99q0 -11 0.5 -32.5 t0.5 -39t-1 -32.5q-7 -128 -61.5 -212.5t-172.5 -141.5q118 -58 172.5 -142.5t61.5 -213.5q1 -15 1 -32.5t-0.5 -38.5t-0.5 -33q-1 -16 -3 -47.5t-3 -47.5q-6 -43 -3 -96q3 -47 18.5 -82t39 -54t44.5 -28t44 -13l-9 -66q-54 8 -98 25t-72.5 40t-51 51.5t-33 58t-19 60t-9 57 t-2.5 50t1 38.5q0 47 4 138q-1 20 0 46t-3 57t-10 61.5t-20 60t-32 53t-48 39.5t-67 20z" />
<glyph unicode="|" horiz-adv-x="304" d="M104 -293v2013h94v-2013h-94z" />
<glyph unicode="}" horiz-adv-x="679" d="M104 -34q24 4 45.5 13t45.5 28t39.5 54t19.5 82q2 32 -2 96q-1 11 -2.5 30t-3 35t-1.5 30q-2 35 -2 104q7 129 62 213.5t172 142.5q-117 57 -172 141.5t-62 212.5q0 70 2 104q0 14 1.5 30.5t3 36.5t2.5 32q4 60 2 92q-4 48 -20 84t-39.5 55.5t-45 29t-45.5 13.5l11 67 q54 -8 98 -25.5t73 -41t51.5 -52t33.5 -58.5t19.5 -60.5t9.5 -57.5t2.5 -50.5t-0.5 -38.5q-5 -96 -5 -141q-8 -314 176 -335v-77q-184 -19 -176 -337q0 -43 5 -138q2 -15 0.5 -38.5t-2.5 -50t-9.5 -57t-19.5 -60t-33.5 -58t-51.5 -51.5t-73 -40t-98 -25z" />
<glyph unicode="~" horiz-adv-x="859" d="M104 1419q2 3 7 10q14 24 21.5 36.5t22.5 34t26.5 33.5t29.5 27t35 22.5t40 12.5t48 3q38 0 169 -38q60 -18 93 -18q35 0 64.5 17.5t42.5 50.5h47q-32 -96 -91 -140.5t-134 -44.5q-39 0 -152 32q-57 20 -98 23q-42 0 -68 -15.5t-50 -45.5h-53z" />
<glyph unicode="&#xa2;" horiz-adv-x="900" d="M54 523q0 85 11.5 158t30.5 127t46 98t56.5 74t64.5 52t67.5 34t66.5 18v487h94l-3 -480q74 0 136.5 -26t102 -67.5t62.5 -90t27 -96.5q0 -74 -38 -124.5t-101 -50.5q-30 0 -57 11.5t-44.5 29.5t-27.5 41t-10 46q0 34 19 61q2 3 18 21t16 29q9 34 -18.5 66t-81.5 32v-871 q35 0 70.5 21t56.5 52q39 58 39 144q0 7 2.5 24.5t2.5 25.5h163q0 -33 -2.5 -63t-11 -70t-22.5 -74t-40 -68.5t-60 -59t-85.5 -41t-115.5 -19.5l3 -417h-94v423q-112 18 -191 95.5t-115.5 191.5t-36.5 256zM312 521q0 -51 0.5 -76t2.5 -73t7.5 -76.5t14.5 -64.5t24 -60.5 t36 -40.5v809q-20 -19 -35.5 -46.5t-24.5 -66.5t-14.5 -70.5t-7.5 -82.5t-2.5 -76t-0.5 -76z" />
<glyph unicode="&#xa5;" horiz-adv-x="1529" d="M46 1491v119h604v-119h-162l308 -575h27l309 575h-166v119h520v-119h-154l-291 -575h228v-163h-312l-39 -78v-132h351v-163h-351v-259h153v-121h-589v121h152v259h-372v163h372v136l-38 74h-334v163h245l-309 575h-152z" />
<glyph unicode="&#xa9;" horiz-adv-x="1423" d="M41 803q0 104 32 204.5t92 184.5t141 147.5t186 99.5t220 36q141 0 267 -55.5t213 -148t137.5 -215t50.5 -253.5q0 -104 -32 -204t-92 -183t-141 -146.5t-185.5 -99.5t-217.5 -36q-115 0 -220 36t-186 99.5t-141 146.5t-92 183t-32 204zM121 803q0 -114 44.5 -221.5 t121.5 -188.5t188 -130t237 -49q113 0 220.5 44.5t188.5 121.5t130 187.5t49 235.5t-49 236.5t-130 188.5t-188.5 122t-220.5 45q-116 0 -223.5 -45t-188.5 -122t-130 -188.5t-49 -236.5zM377 796q0 46 9.5 91t27.5 88t47 79.5t65.5 64.5t86 44t105.5 17q127 0 237 -80 l36 64h44v-273h-57q-6 66 -38 119.5t-84 85t-112 32.5q-73 1 -127 -44t-81.5 -118.5t-28.5 -165.5q0 -48 7 -92.5t25.5 -86t45.5 -72t69 -49t94 -18.5q41 -1 75.5 8t59.5 25.5t44.5 37.5t31.5 46t18.5 49.5t9.5 49.5h56q-1 -14 -4 -29t-12 -43t-22.5 -52t-38 -52t-56 -47.5 t-79 -32t-104.5 -12.5q-71 0 -130 21.5t-99 57t-68 83.5t-40.5 99t-12.5 105z" />
<glyph unicode="&#xab;" horiz-adv-x="979" d="M46 568l297 432h210l-294 -432l294 -429h-210zM434 568l301 432h200l-289 -432l289 -429h-200z" />
<glyph unicode="&#xad;" horiz-adv-x="519" d="M65 468v187h388v-187h-388z" />
<glyph unicode="&#xae;" horiz-adv-x="801" d="M104 1314q0 83 42.5 151.5t110.5 106.5t145 38q57 0 111 -22.5t95 -61t65.5 -94t24.5 -118t-24.5 -118t-65.5 -94t-95 -61t-111 -22.5q-77 0 -145 37.5t-110.5 106t-42.5 151.5zM145 1314q0 -108 76 -181.5t181 -73.5q102 0 178.5 73.5t76.5 181.5q0 55 -21.5 103 t-56.5 81t-81.5 51.5t-95.5 18.5q-105 0 -181 -72t-76 -182zM252 1167v35h26q13 0 16.5 3t5.5 16v13v7v148v6v12q-2 15 -5.5 17.5t-16.5 2.5h-26v37h212q47 0 69 -18.5t22 -46.5q2 -34 -24.5 -55t-68.5 -23v-2q21 0 34.5 -5t18.5 -16t6.5 -18.5t1.5 -21.5v-28v-16 q0 -16 18 -16q14 0 14 25v20h22v-20v-10.5t-3 -13t-9 -15.5t-18.5 -11.5t-30.5 -5.5q-8 0 -15.5 1t-23 5.5t-25.5 17.5t-11 32v22v30v14q-3 4 -7 9q-4 2 -18 2l-4 3h-43v-62v-7v-13q0 -13 3.5 -16t20.5 -3h21v-35h-162zM369 1336h45q57 0 57 44q0 47 -57 47h-45v-91z" />
<glyph unicode="&#xbb;" horiz-adv-x="979" d="M46 139l284 429l-284 432h197l303 -432l-303 -429h-197zM427 139l291 429l-291 432h207l301 -432l-301 -429h-207z" />
<glyph unicode="&#x401;" horiz-adv-x="1219" d="M65 0v121h154v1365h-154v124h1054v-514h-178q-4 58 -8.5 103.5t-11 84t-12 66.5t-16 50.5t-19.5 37.5t-24.5 26t-28.5 16.5t-35 9t-41 4t-49 0.5h-195v-568h141v170h188v-473h-188v173h-141v-671h206q51 0 87.5 6t60.5 16.5t40 28.5t24.5 38.5t15.5 49.5q7 36 17 150 l14 143h188v-557h-1089zM198 1818q-2 59 42.5 110t100.5 52q61 2 111.5 -46.5t50.5 -107.5q0 -23 -8.5 -46t-24 -42.5t-34.5 -34.5t-41.5 -23.5t-44.5 -8.5q-57 0 -104 45.5t-48 101.5zM700 1818q-3 58 43 109.5t103 52.5q38 1 75 -21t60.5 -58.5t23.5 -74.5 q0 -58 -48.5 -106.5t-106.5 -48.5q-55 0 -101.5 45.5t-48.5 101.5z" />
<glyph unicode="&#x404;" horiz-adv-x="1202" d="M54 857q0 133 17 244t45.5 189.5t69 140.5t84.5 100t96 63.5t98.5 36t97.5 13.5q38 2 76 -2.5t67 -12.5t66.5 -25t60.5 -29.5t64 -36.5l34 69h137v-507h-171q-10 75 -21.5 131.5t-36 120t-57.5 101t-86.5 55.5t-121.5 2q-51 -14 -92.5 -57t-71.5 -116t-40 -175.5 t2 -235.5h459v-128h-459q-3 -151 12 -269t41.5 -194t66 -126t83 -72.5t94.5 -25.5q46 -3 89.5 13t72.5 41.5t45.5 54.5t13.5 51q-3 13 -19 29q-6 10 -29 32q-34 43 -34 111q0 27 9.5 54t27.5 51t48.5 39t68.5 16q73 3 122 -45.5t56 -132.5q6 -94 -35.5 -181.5t-113 -148.5 t-168 -96t-195.5 -31q-47 1 -93 9.5t-105 33.5t-109 64.5t-100 108t-85.5 158.5t-57.5 222.5t-23 292.5z" />
<glyph unicode="&#x405;" horiz-adv-x="1165" d="M65 352q0 92 51 147.5t120 53.5q41 0 76 -20.5t57.5 -58.5t23.5 -86q0 -78 -46 -134q-14 -10 -20 -22q-6 -13 -6 -26q1 -24 31.5 -52.5t80.5 -49t99 -17.5q24 0 44 2t44.5 6t43.5 10t39.5 16t36 24t29.5 33.5t23 44t14.5 56.5t4.5 71q0 69 -11.5 120.5t-29 84t-52 64.5 t-66 54t-87 62t-101.5 79q-13 11 -39 32q-39 33 -58 49.5t-51.5 45.5t-48.5 45t-40 42.5t-36 44.5t-27 43.5t-21 48t-11 49.5t-4 55q0 56 18 111t54.5 104.5t87.5 86.5t123 58.5t155 21.5q177 0 298 -98l27 63h141v-475l-168 -2q-3 51 -8.5 94t-16 88.5t-29 79.5t-44.5 61.5 t-64 42t-86 13.5q-53 0 -95 -14.5t-66.5 -36.5t-41 -51.5t-22.5 -55.5t-7 -52q0 -35 11.5 -65t28.5 -52.5t50.5 -50.5t64 -49.5t83 -59t94.5 -70.5q102 -79 169 -140.5t117 -125.5t72.5 -127.5t23.5 -135.5q1 -113 -40.5 -202.5t-114.5 -147.5t-172 -87.5t-216 -26.5 q-104 0 -189 24.5t-140 63t-92.5 89t-53 102.5t-15.5 105z" />
<glyph unicode="&#x406;" horiz-adv-x="688" d="M50 0v121h152v1365h-152v124h586v-124h-154v-1365h154v-121h-586zM189 1820q0 44 21 80t56 56t75 20q61 0 106.5 -45t45.5 -111q0 -62 -43 -107t-109 -45q-61 0 -106.5 44.5t-45.5 107.5z" />
<glyph unicode="&#x407;" horiz-adv-x="940" d="M65 1818q-1 59 44.5 110t101.5 52q39 1 76.5 -21t60.5 -58.5t23 -74.5q0 -58 -48 -106.5t-104.5 -48.5t-104 45.5t-49.5 101.5zM175 0v121h155v1365h-155v124h586v-124h-152v-1365h152v-121h-586zM568 1818q-3 58 43 109.5t103 52.5q38 1 75 -21t60 -58.5t23 -74.5 q0 -58 -48 -106.5t-106 -48.5q-36 0 -70.5 20.5t-56.5 55t-23 71.5z" />
<glyph unicode="&#x408;" horiz-adv-x="1091" d="M57 321q0 48 18.5 88.5t47 65.5t61.5 38.5t66 13.5q25 0 51 -8.5t50.5 -26t41 -48t19.5 -69.5q1 -23 -2.5 -41.5t-13.5 -34t-20.5 -27t-28.5 -27.5q-20 -21 -26 -41q-11 -25 7.5 -49t59.5 -23q29 1 52.5 11.5t40.5 26.5t30 43t22 52t15 63t9 66t4.5 71.5t2 69.5t0.5 68 v893h-152v122h588v-122h-152v-1121q0 -109 -55.5 -202.5t-150 -147t-204.5 -51.5q-73 2 -144 33t-123.5 79t-84 110.5t-29.5 124.5z" />
<glyph unicode="&#x40e;" horiz-adv-x="1423" d="M46 1484v126h583v-126h-145l343 -757l257 757h-145v126h484v-126h-115l-408 -1098q-25 -68 -50 -121.5t-61.5 -110.5t-77.5 -95t-97.5 -63.5t-120.5 -27.5q-90 -6 -169.5 37t-127 123t-46.5 176q3 89 51.5 138t110.5 51q33 2 63.5 -10.5t52 -35.5t35.5 -52.5t17 -60.5 q1 -20 -4 -48.5t-14 -46.5q-6 -9 -14.5 -19.5t-16.5 -20.5t-13 -19q-6 -17 -6 -37q4 -21 22.5 -37.5t47.5 -16.5q25 -1 49.5 12.5t45.5 40t38 53.5t34 66t26.5 64t22.5 61l-523 1098h-129zM297 1816q-7 51 40.5 91t130.5 37q62 -2 103.5 -32t35.5 -82q0 -23 2 -27q0 -4 7 -8 t40.5 -8t89.5 -4t88.5 4t39 8t6.5 8q5 6 5 27q-7 52 35 82t103 32q84 3 130.5 -37t39.5 -91q-13 -95 -188 -118q-30 -4 -85 -6.5t-72 -4.5q-34 -2 -102 -2t-102 2q-20 2 -50 3.5t-57.5 3t-50.5 4.5q-175 23 -189 118z" />
<glyph unicode="&#x410;" horiz-adv-x="1510" d="M46 0v115h117l438 1522h267l453 -1522h148v-115h-601v115h158l-82 290h-480l-78 -290h152v-115h-492zM501 534h404l-209 761z" />
<glyph unicode="&#x411;" horiz-adv-x="1267" d="M65 0v121h154v1365h-154v124h992v-471h-166q-1 6 -6.5 35.5t-6.5 44.5q-14 108 -26 150q-13 42 -30.5 66t-53 39t-91.5 15h-176v-550q50 2 145 -2q6 0 18 -1q63 -3 97 -5.5t85 -11.5t91 -25q248 -98 263 -401q4 -90 -12 -165t-45.5 -125t-72 -88t-84.5 -59.5t-89.5 -34.5 t-82 -17t-66.5 -4h-683zM501 128q63 -11 116.5 -10.5t91.5 10.5t68.5 27t49 40.5t33 51t20 58t9.5 62t3 62.5t-1 59q-1 34 -2.5 56.5t-5.5 53.5t-10 49.5t-16.5 45t-25.5 39t-36.5 32.5t-49 24.5t-64 16t-81 6.5t-99.5 -4v-679z" />
<glyph unicode="&#x412;" horiz-adv-x="1276" d="M65 0v121h154v1365h-154v124h617q98 0 183 -24.5t149.5 -71.5t101.5 -122t36 -169q0 -51 -10 -94.5t-31 -77t-47 -60.5t-62.5 -48.5t-72.5 -38t-83 -32.5q112 -17 195.5 -75t129 -154.5t41.5 -217.5q-3 -68 -19 -125.5t-39 -98t-56.5 -73.5t-65.5 -53.5t-71.5 -35.5 t-69.5 -22.5t-64.5 -11.5t-50.5 -4.5t-35 -0.5h-676zM507 128q49 -6 91 -6.5t76 4t62 13t49.5 22t38 29.5t28 37.5t19.5 44t13 51t7 56.5t3 62q0 62 -5.5 111.5t-18 92t-33 72t-50.5 52t-70 31t-92.5 10.5t-117.5 -10v-672zM507 935q75 -15 107 -15q277 0 250 364 q-4 52 -22.5 93t-47.5 65.5t-64 40.5t-74.5 21t-76 4t-72.5 -7v-566z" />
<glyph unicode="&#x413;" horiz-adv-x="1115" d="M65 0v121h154v1365h-154v124h1004v-519h-167q-1 8 -3 25t-3 25q-15 142 -28 200q-13 84 -45 110q-6 5 -13.5 9.5t-13.5 8t-16 6t-16.5 4t-18.5 2.5t-17.5 2t-19.5 1h-18.5h-20h-19.5q-116 0 -149 -4v-1359h154v-121h-590z" />
<glyph unicode="&#x414;" horiz-adv-x="1454" d="M46 132q55 -8 103 21t83 85t63 137t47 173t32.5 197.5t20.5 205.5t10 202t3 182t-3 151h-153v124h1084v-124h-152l5 -1354h210v-575h-189q-3 29 -6.5 69.5t-5.5 67.5t-6.5 62.5t-9.5 59t-14 51.5t-20.5 45.5t-28.5 36t-39 28.5t-51.5 16.5t-65.5 6.5h-486q-42 0 -77 -9.5 t-58 -24t-40.5 -38t-27.5 -43t-17 -49t-9 -47t-5 -43.5q-9 -102 -15 -143q-1 -6 -2 -14.5t-1.5 -17t-1.5 -14.5h-177v575zM453 132h452v1369h-287q-6 -102 -6 -106q-5 -263 -11 -395q-10 -181 -37 -354q-19 -138 -89 -427q-10 -47 -22 -87z" />
<glyph unicode="&#x415;" horiz-adv-x="1219" d="M65 0v121h154v1365h-154v124h1054v-514h-178q-4 58 -8.5 103.5t-11 84t-12 66.5t-16 50.5t-19.5 37.5t-24.5 26t-28.5 16.5t-35 9t-41 4t-49 0.5h-195v-568h141v170h188v-473h-188v173h-141v-671h206q51 0 87.5 6t60.5 16.5t40 28.5t24.5 38.5t15.5 49.5q7 36 17 150 l14 143h188v-557h-1089z" />
<glyph unicode="&#x416;" horiz-adv-x="2084" d="M54 1386q0 50 16 95.5t49 83t89 59.5t128 20q44 -1 81.5 -8.5t65 -19t51 -29t39 -35.5t28 -42t20 -44t13 -46t8 -44t4.5 -42q2 -13 20 -197q2 -26 4.5 -43.5t9.5 -43t17 -42t27.5 -35.5t41 -29t58.5 -15t78 -1v558h-154v124h586v-124h-154v-558q73 -6 121 8.5t71 50 t31.5 68t12.5 82.5q9 63 18 197q4 32 7.5 54.5t13.5 57t23 59t36.5 52t54 45t76 29.5t101.5 13q72 2 128 -20t89 -59.5t49.5 -83t15.5 -95.5q-3 -76 -47 -120.5t-105 -44.5q-57 2 -97.5 39.5t-43.5 99.5q-4 45 11 74q14 24 18 35q6 10 0 20q-7 18 -29 18q-18 2 -33 -3.5 t-25.5 -20t-18.5 -29.5t-13.5 -41t-9 -45t-5.5 -51.5t-2.5 -50t-1.5 -50.5q0 -6 -0.5 -9t-0.5 -7.5v-8.5t-0.5 -26.5t-1 -29t-2 -25.5t-3 -28.5t-4.5 -24.5t-7.5 -27t-10.5 -23q-10 -24 -29 -47.5t-50 -46t-68 -35.5q7 -2 16.5 -5t19 -6.5t18.5 -5.5q52 -15 72 -24 q50 -20 86.5 -51t62 -74t43 -106.5t28.5 -138t19 -178.5q2 -45 8.5 -75.5t25.5 -52.5q22 -24 64 -33t82 -5v-123q-9 -2 -26.5 -5.5t-26.5 -5.5q-7 -2 -29 -7t-33.5 -7.5t-29.5 -4.5t-33 -2q-46 -3 -85 5.5t-68.5 22t-53 41.5t-39.5 51.5t-29.5 66t-20.5 71.5t-14 81.5 t-10 81.5t-7 86q-1 7 -1 10.5t-0.5 9t-1.5 10.5q-3 46 -5.5 70t-12.5 61t-27 62q-36 50 -103.5 81.5t-157.5 16.5v-675h154v-121h-586v121h154v675q-87 15 -156 -16t-104 -82q-9 -13 -16 -27.5t-11.5 -32.5t-7.5 -31.5t-5.5 -35t-3 -32.5t-2.5 -34q-1 -15 -4 -45 q-5 -50 -7.5 -76t-8.5 -72.5t-12 -72t-16 -65t-23 -61t-30.5 -50t-39.5 -44t-50 -30t-63 -19t-76 -2.5q-15 0 -33 2t-29 4.5l-33 7.5t-30 7q-7 2 -16 3.5t-19 3.5t-17 4v123q39 -4 81 5t64 33q7 8 12 18t8.5 18t6 22.5t4 21.5t3.5 24.5t3 23.5q7 104 17 178.5t27.5 138 t43.5 106.5t63 74t87 51q24 12 73 24q10 3 28 9l24 8q-101 37 -148 129q-9 19 -14.5 46t-7.5 39.5t-4 54t-3 44.5v25q-1 33 -2 51t-3 50.5t-5 51t-8.5 44.5t-13 41t-18 29.5t-25 20t-32.5 3.5q-25 0 -31 -18q-4 -10 0 -20q3 -11 17 -35q17 -33 14 -74q-5 -62 -46 -99.5 t-98 -39.5q-61 0 -104.5 44.5t-47.5 120.5z" />
<glyph unicode="&#x417;" horiz-adv-x="1165" d="M65 352q0 92 51 147.5t120 53.5q41 0 76 -20.5t57.5 -58.5t23.5 -86q0 -78 -46 -134q-14 -10 -20 -22q-6 -13 -6 -26q1 -24 31.5 -52.5t80.5 -49t99 -17.5q51 1 95.5 23t80.5 62.5t57 107.5t20 152q-1 105 -30 181t-84.5 121.5t-134.5 65t-184 14.5v121q76 -2 137 7.5 t101 25.5t69 43t44 52.5t23.5 62t10.5 63t2 63.5q0 22 -1.5 39t-6 46t-12.5 50.5t-23 46t-35 40.5t-51 27t-69 11q-37 0 -67.5 -8t-54 -24t-42 -37t-31.5 -49.5t-22.5 -57.5t-15.5 -64.5t-9.5 -68.5t-5.5 -71l-168 2v476h141l27 -64q121 98 298 98q83 1 155 -21t123 -59 t87.5 -86.5t54.5 -104t19 -111.5q2 -136 -91 -243.5t-239 -143.5q40 -10 76.5 -23t77 -33.5t74.5 -45.5t66 -59.5t54 -75t35.5 -93.5t14.5 -113q1 -113 -40.5 -202.5t-114.5 -147.5t-172 -87.5t-216 -26.5q-104 0 -189 24.5t-140 63t-92.5 89t-53 102.5t-15.5 105z" />
<glyph unicode="&#x418;" horiz-adv-x="1465" d="M65 0v121h154v1365h-154v124h585v-124h-155v-900l473 817v83h-152v124h585v-124h-156v-1365h156v-121h-585v121h152v948l-473 -807v-141h155v-121h-585z" />
<glyph unicode="&#x419;" horiz-adv-x="1465" d="M65 0v121h154v1365h-154v124h585v-124h-155v-900l473 817v83h-152v124h585v-124h-156v-1365h156v-121h-585v121h152v948l-473 -807v-141h155v-121h-585zM297 1816q-7 51 40.5 91t130.5 37q62 -2 103.5 -32t35.5 -82q0 -23 2 -27q0 -4 7 -8t40.5 -8t89.5 -4t88.5 4t39 8 t6.5 8q5 6 5 27q-7 52 35 82t103 32q84 3 130.5 -37t39.5 -91q-13 -95 -188 -118q-30 -4 -85 -6.5t-72 -4.5q-34 -2 -102 -2t-102 2q-20 2 -50 3.5t-57.5 3t-50.5 4.5q-175 23 -189 118z" />
<glyph unicode="&#x41a;" horiz-adv-x="1371" d="M65 0v121h154v1365h-154v124h585v-124h-155v-558q41 -3 74 3t55 16.5t39 30.5t26 36.5t15.5 42.5t9 41t4.5 39q1 11 7.5 85.5t11.5 111.5q3 31 6.5 54.5t13 57.5t22.5 59t36.5 52t54 44.5t75.5 29.5t101 13q72 2 129 -20t89.5 -59.5t48.5 -83t15 -95.5q-2 -77 -46 -121 t-107 -44q-35 1 -66 17.5t-52 48.5t-25 73q0 48 16 74q1 4 5 10.5t6.5 12.5t3.5 12q5 15 4 20q-7 18 -35 18q-17 2 -31 -3.5t-24 -20t-18 -29t-13 -40t-8 -44t-5 -50.5t-2.5 -49.5t-1.5 -50.5q-1 -20 -1 -29q-2 -43 -3.5 -66t-8.5 -58t-20 -60q-18 -40 -55.5 -74.5 t-90.5 -54.5q10 -2 27 -8.5t23 -8.5q54 -14 75 -24q62 -25 104 -66t69.5 -110t43 -156t25.5 -216q1 -35 2.5 -50t8.5 -39t20 -39q22 -24 64.5 -33t80.5 -5v-123q-2 -1 -12.5 -5t-15.5 -5.5t-18.5 -6t-21 -6t-23.5 -5.5t-25.5 -4t-27.5 -1.5t-30 1.5q-47 1 -85.5 11t-67.5 23 t-52.5 39.5t-39.5 48t-29 62t-20.5 67t-14 78t-9.5 81t-8 88.5q-1 8 -1.5 13t-1 12.5t-1.5 13.5q0 3 -2 21.5t-2.5 23.5t-2.5 21.5t-3.5 23.5t-4 21.5t-5.5 22.5t-7 20t-9.5 21t-11.5 18q-31 49 -96 79.5t-150 18.5v-675h155v-121h-585z" />
<glyph unicode="&#x41b;" horiz-adv-x="1586" d="M46 284q0 48 18.5 88.5t47 65.5t61.5 39t66 14q25 0 51 -9t50 -26.5t40.5 -48t19.5 -68.5q3 -44 -12.5 -71t-51.5 -59q-21 -22 -26 -40q-11 -25 7.5 -50t59.5 -24q148 4 176 296q6 59 9 171q0 71 4 206q5 82 5 121v597h-155v124h1102v-124h-152v-1365h152v-121h-586v121 h152v1382h-307v-709q0 -75 -13 -215q-1 -14 -3 -43.5t-3 -46.5t-3 -44t-4.5 -47t-6 -44t-8.5 -47t-11 -45q-18 -72 -48.5 -126t-65 -86.5t-77 -52t-81 -25.5t-80.5 -4q-90 1 -166.5 44.5t-120 116t-40.5 155.5z" />
<glyph unicode="&#x41c;" horiz-adv-x="1811" d="M65 0v121h154v1365h-154v124h592l239 -1028l256 1028h592v-124h-154v-1365h154v-121h-592v121h156v1380l-367 -1501h-156l-360 1501v-1380h154v-121h-514z" />
<glyph unicode="&#x41d;" horiz-adv-x="1468" d="M65 0v121h154v1365h-154v124h592v-124h-154v-558h463v558h-155v124h590v-124h-156v-1365h156v-121h-590v121h155v677h-463v-677h154v-121h-592z" />
<glyph unicode="&#x41e;" horiz-adv-x="1308" d="M65 803q0 140 20 258.5t53 203.5t80 152t99 109t111.5 69t114.5 38t112 11q56 0 111 -11t114 -38t110.5 -69t98.5 -109t80 -152t52.5 -203.5t19.5 -258.5t-19.5 -258t-52.5 -202.5t-80 -150.5t-98.5 -107.5t-110.5 -68.5t-113.5 -37.5t-111.5 -10.5t-112 10.5t-115 37.5 t-111.5 68.5t-98.5 107.5t-80 150.5t-53 202.5t-20 258zM377 803q0 -90 1.5 -148t7 -141.5t16.5 -138.5t31.5 -116t49.5 -97t73.5 -59.5t100.5 -22.5q50 0 90 17t68 54t48.5 74t32.5 100t19.5 109t10.5 124t3.5 121t0.5 124t-0.5 124.5t-3.5 122.5t-10.5 124.5t-19.5 109.5 t-32.5 101t-48.5 74t-68 53.5t-90 17.5q-44 0 -80.5 -14.5t-63.5 -37.5t-48.5 -62t-35.5 -77t-24 -94.5t-15.5 -102.5t-8 -112t-3.5 -112.5t-1 -114.5z" />
<glyph unicode="&#x41f;" horiz-adv-x="1451" d="M65 0v123h156v1363h-156v124h1321v-124h-154v-1363h154v-123h-586v123h155l-3 1366h-451l-3 -1366h155v-123h-588z" />
<glyph unicode="&#x420;" horiz-adv-x="1263" d="M65 0v121h154v1365h-154v124h478h18q49 0 76 -0.5t80.5 -3t87.5 -9t84.5 -17t83.5 -28.5t73.5 -42.5t66.5 -59.5t49.5 -78.5t35 -101.5t12.5 -127q1 -88 -19.5 -159.5t-53 -118.5t-81 -82.5t-94.5 -54t-103 -30t-98 -14t-86 -2.5h-172v-561h152v-121h-590zM503 809 q55 -10 102 -11t82.5 7t65 21t50 34t36.5 42t25.5 49.5t15.5 51.5t9 52.5t4 49t1 43.5q0 61 -2.5 100.5t-22.5 99.5t-58.5 92.5t-117.5 51t-190 2.5v-685z" />
<glyph unicode="&#x421;" horiz-adv-x="1215" d="M59 816q-3 138 14 255.5t49 203t78 152.5t98.5 109.5t113 69t119 35t117.5 3.5q150 -12 274 -112l41 62h133v-505h-174q-4 48 -10 88.5t-17 86.5t-25 81.5t-35.5 69t-48 55t-63 34t-79.5 10.5q-43 -1 -78.5 -17t-61.5 -40t-46 -62.5t-32.5 -77.5t-21 -92t-12.5 -98 t-5 -105.5t-0.5 -103.5t1.5 -102q2 -73 4.5 -132.5t10.5 -134t21 -132.5t35 -116t52 -96t73.5 -61t97.5 -23q115 2 195 121t86 306h199q-2 -107 -23.5 -196t-53.5 -147.5t-77.5 -103t-88.5 -69t-93 -40t-85.5 -20t-70.5 -4.5q-33 -1 -66.5 1t-78.5 12.5t-86.5 28t-88 50 t-86 75.5t-77 108.5t-64 146t-44 189.5t-20.5 237z" />
<glyph unicode="&#x422;" horiz-adv-x="1240" d="M54 1082v528h1128v-528h-173q-3 67 -13 128q-10 68 -11 81q-1 2 -3.5 20t-3 22.5t-3.5 20t-5 22t-6 18t-9 20t-11 16.5q-28 35 -81 53.5t-113 7.5v-1370h155v-121h-571v121h154v1370q-61 11 -113 -7.5t-80 -53.5q-6 -8 -11 -16.5t-9 -20t-6.5 -18t-5 -22t-3.5 -20 t-3.5 -22.5t-2.5 -20q-9 -59 -11 -81q-7 -41 -11 -128h-178z" />
<glyph unicode="&#x423;" horiz-adv-x="1423" d="M46 1484v126h583v-126h-145l343 -757l257 757h-145v126h484v-126h-115l-408 -1098q-25 -68 -50 -121.5t-61.5 -110.5t-77.5 -95t-97.5 -63.5t-120.5 -27.5q-90 -6 -169.5 37t-127 123t-46.5 176q3 89 51.5 138t110.5 51q33 2 63.5 -10.5t52 -35.5t35.5 -52.5t17 -60.5 q1 -20 -4 -48.5t-14 -46.5q-6 -9 -14.5 -19.5t-16.5 -20.5t-13 -19q-6 -17 -6 -37q4 -21 22.5 -37.5t47.5 -16.5q25 -1 49.5 12.5t45.5 40t38 53.5t34 66t26.5 64t22.5 61l-523 1098h-129z" />
<glyph unicode="&#x424;" horiz-adv-x="1674" d="M65 848q1 112 25 202.5t63.5 150.5t93.5 104t111.5 67t122 33.5t120 10t108.5 -8.5v148h-152v118h562v-118h-151v-148q54 8 109 8.5t119 -10t121.5 -33.5t111.5 -67t93 -104t63 -150.5t25 -202.5q0 -113 -24.5 -207t-68 -160t-102.5 -112t-126.5 -67.5t-140.5 -21.5 q-113 0 -180 17v-176h151v-121h-562v121h152v176q-65 -19 -134 -19q-80 0 -152.5 19t-139 63t-114.5 109t-76 162t-28 217zM375 846q2 -57 8.5 -112t19.5 -108t32 -97t46 -78.5t60 -53t76 -18t92 22.5l-2 889l2 -2q-35 13 -68.5 18.5t-68 -0.5t-64 -23.5t-55.5 -53 t-44 -86.5t-27 -127t-7 -171zM968 402q47 -15 87 -17t71 9.5t56 32t43.5 52.5t32 70.5t21.5 87t12.5 99t6.5 110.5q2 92 -6 165.5t-24 124t-41 86t-53.5 54t-63.5 25t-69.5 3t-72.5 -14.5v-887z" />
<glyph unicode="&#x425;" horiz-adv-x="1479" d="M46 0v121h149l389 727l-345 641h-150v121h607v-121h-153l207 -398l198 398h-152v121h514v-121h-151l-300 -589l423 -779h152v-121h-611v121h153l-287 527l-277 -527h152v-121h-518z" />
<glyph unicode="&#x426;" horiz-adv-x="1481" d="M65 0v121h151v1368h-151v121h577v-121h-151v-1371h444v1371h-152v121h575v-121h-154v-1371h223v-565h-173q-5 96 -15 166t-20 118.5t-32.5 79.5t-38.5 48.5t-52.5 25t-60 8.5t-75.5 1h-25h-870z" />
<glyph unicode="&#x427;" horiz-adv-x="1358" d="M46 1489v121h572v-121h-152v-461v-26v-29.5t0.5 -28.5t2 -27.5t4 -25.5t7.5 -23.5t11 -21.5t15 -19t20.5 -16.5t26.5 -13.5t33 -10q66 -13 143.5 4.5t134.5 54.5v643h-150v121h577v-121h-150v-1368h150v-121h-577v121h150v595q-119 -55 -268 -68q-83 -5 -148 6t-106 29.5 t-70.5 54t-43.5 64t-21.5 75t-8.5 71t0 67.5v11v463h-152z" />
<glyph unicode="&#x428;" horiz-adv-x="1961" d="M65 0v118h151v1373h-151v119h560v-119h-150v-1366h364v1366h-150v119h580v-119h-148v-1366h361v1366h-150v119h562v-119h-150v-1373h150v-118h-1829z" />
<glyph unicode="&#x429;" horiz-adv-x="2020" d="M65 0v118h151v1373h-151v119h560v-119h-150v-1366h364v1366h-150v119h580v-119h-148v-1366h361v1366h-150v119h562v-119h-150v-1373h223v-563h-173q-4 67 -9.5 121.5t-13 97t-17.5 75.5t-21.5 56.5t-25.5 40.5t-30.5 27t-35.5 16t-40 8.5t-45 3t-50 -0.5h-33h-1408z" />
<glyph unicode="&#x42a;" horiz-adv-x="1549" d="M54 1082v528h903v-124h-150v-540h148q49 0 86 -2t97.5 -12t104.5 -27.5t94.5 -53t82.5 -84t53.5 -124t20.5 -170.5q-1 -96 -24.5 -173t-57.5 -125t-86.5 -83.5t-96.5 -52.5t-103 -26.5t-90.5 -11t-74.5 -1.5h-586v121h154v1365l-104 -2q-31 0 -53.5 -3t-41 -15t-30.5 -21 t-22 -36.5t-15.5 -46t-11 -65t-8 -77t-8.5 -98.5q-2 -26 -3 -40h-178zM803 123q49 -5 91 -5.5t76.5 4t62.5 12.5t49.5 22t38.5 30t29 37.5t20 44t12.5 50.5t6.5 56t2 62q1 63 -4.5 112t-18 91.5t-33.5 72t-51 51.5t-71 31t-93 11t-117 -9v-673z" />
<glyph unicode="&#x42b;" horiz-adv-x="1861" d="M65 0v121h154v1365h-154v124h583v-124h-155v-540h151q38 0 66.5 -1t74 -6t80.5 -13.5t78.5 -25.5t76 -40.5t65.5 -60t53.5 -81.5t33.5 -108t12 -137q-1 -96 -24.5 -173t-57.5 -125t-86.5 -83.5t-96.5 -52.5t-103 -26.5t-91 -11t-75 -1.5h-585zM493 123q121 -13 199.5 2.5 t118 61.5t54 103.5t15.5 145.5q0 55 -4 99.5t-13.5 83.5t-24.5 68t-37 52.5t-51.5 37.5t-67.5 21.5t-85 6.5t-104 -9v-673zM1207 0v121h153v1365h-153v124h587v-124h-152v-1365h152v-121h-587z" />
<glyph unicode="&#x42c;" horiz-adv-x="1240" d="M65 0v121h154v1365h-154v124h583v-124h-155v-540h151q38 0 66.5 -1t74 -6t80.5 -13.5t78.5 -25.5t76 -40.5t65.5 -60t53.5 -81.5t33.5 -108t12 -137q-1 -96 -24.5 -173t-57.5 -125t-86.5 -83.5t-96.5 -52.5t-103 -26.5t-91 -11t-75 -1.5h-585zM493 123q121 -13 199.5 2.5 t118 61.5t54 103.5t15.5 145.5q0 55 -4 99.5t-13.5 83.5t-24.5 68t-37 52.5t-51.5 37.5t-67.5 21.5t-85 6.5t-104 -9v-673z" />
<glyph unicode="&#x42d;" horiz-adv-x="1202" d="M54 425q7 85 56 133t124 45q73 -2 113.5 -51.5t40.5 -108.5q0 -19 -4 -39.5t-12.5 -39t-19.5 -32.5l-6.5 -6.5t-6.5 -6t-6.5 -5.5t-6.5 -7t-5 -7q-7 -9 -17 -29q-3 -22 13.5 -51t45.5 -54.5t73 -41.5t89 -13q51 3 94.5 25.5t83 72.5t66.5 126t41.5 194t12.5 269h-459v128 h459q11 133 1 235.5t-40 175.5t-71.5 116t-92.5 57q-67 16 -120.5 -1.5t-86.5 -56t-58 -100.5t-37 -120.5t-21 -131.5h-172v507h139l33 -69q98 57 172.5 84.5t162.5 21.5q50 -3 97 -13.5t99 -36t95.5 -63.5t84 -100t69 -140.5t45.5 -189.5t17 -244q-1 -160 -23 -292.5 t-57 -222.5t-85 -158.5t-100.5 -108t-109 -64.5t-104.5 -33.5t-94 -9.5q-99 -4 -195 31t-167.5 96t-113 148.5t-36.5 181.5z" />
<glyph unicode="&#x42e;" horiz-adv-x="1954" d="M65 0v121h154v1365h-154v124h585v-124h-155v-549h214q14 128 44.5 233.5t69 177.5t89 126.5t99 86t103.5 51t98.5 26t87.5 6.5q57 0 112 -11t115 -38t112 -69t99 -109t80.5 -152t53 -203.5t19.5 -258.5t-19.5 -258t-53 -202.5t-80.5 -151t-98.5 -108t-111.5 -68.5 t-115.5 -37.5t-112.5 -9.5q-101 0 -185.5 30t-145 81t-108 120.5t-76.5 145.5t-47 159.5t-24.5 158.5t-4.5 146h-214v-688h155v-121h-585zM1026 803q0 -91 1 -148t6.5 -142t16 -138.5t31 -115.5t49 -97t73 -59t100.5 -23q50 0 90.5 17t68.5 53.5t48.5 73t32.5 99.5 t19.5 108.5t10.5 123.5t3.5 120.5t0.5 123.5v3.5v3.5q0 82 -0.5 125t-3.5 121.5t-10.5 124t-19.5 109t-32.5 100t-48.5 73.5t-68.5 53.5t-90.5 17.5q-56 0 -100.5 -24t-73 -59.5t-49 -98t-31 -116.5t-16 -139t-6.5 -142t-1 -148z" />
<glyph unicode="&#x42f;" horiz-adv-x="1356" d="M54 0v123q27 -1 48 0t36.5 6.5t27 11t19.5 17.5t13 21.5t8.5 28.5t5.5 32.5t4 39.5l23 211q4 44 12 78t27.5 74t50 69.5t83 57t122.5 44.5q-43 14 -63 18q-15 6 -38 14.5t-43.5 16t-37.5 15.5q-50 25 -85 58t-55 73.5t-29 85t-10 98.5q-1 66 14 122t38.5 96t59.5 72 t71 52.5t79.5 35.5t78.5 22t73.5 11t59.5 5t42 1h602v-124h-154v-1365h154v-121h-588v121h154v638q-92 7 -155.5 -10.5t-96.5 -58t-48 -80.5t-23 -96l-33 -280q-4 -22 -6.5 -36.5t-10.5 -43t-18 -48t-28.5 -44.5t-41.5 -41.5t-57.5 -30t-76.5 -18.5q-98 -16 -208 28z M477 1187q0 -39 3 -70t24 -84.5t57.5 -86t113 -52t182.5 -5.5v602q-55 9 -101.5 10t-81.5 -6.5t-64 -18.5t-48.5 -30t-35 -38t-24 -44.5t-14.5 -46t-8 -47t-2.5 -44t-0.5 -39.5z" />
<glyph unicode="&#x430;" horiz-adv-x="926" d="M54 223q-1 55 14 107t51.5 103t92.5 93t141.5 76.5t192.5 54.5v223q0 6 -0.5 11t-2.5 14.5t-6.5 17t-12.5 16.5t-19.5 15t-29 10t-39.5 4q-45 1 -71.5 -13.5t-32.5 -36.5q-2 -11 7 -46q12 -30 13 -37q6 -22 2 -52q-10 -46 -46.5 -75.5t-84.5 -28.5q-56 4 -89 47t-30 104 q3 50 32 98t76.5 84.5t114.5 58.5t139 20q20 0 40.5 -3t48 -8.5t53 -17t52 -27t48 -40t38.5 -54.5t27 -72t10 -92v-541q0 -42 2 -67q0 -44 13 -62q8 -7 22.5 -11t27.5 -5t22 0v-98q-91 -19 -129 -19q-41 1 -76 12.5t-57.5 29.5t-37 36.5t-24.5 38.5q-28 -31 -65 -56.5 t-81.5 -42t-85.5 -18.5q-31 0 -65 8.5t-68 28.5t-61.5 48.5t-45.5 71t-20 92.5zM284 226q1 -24 11 -41t19.5 -27.5t23.5 -16.5t22.5 -8t16.5 -3q17 -1 35 3t37 13t36.5 25t31 36.5t21.5 50t8 63.5v208q-30 -5 -59.5 -14.5t-63.5 -29t-60.5 -45.5t-47.5 -66.5t-29 -89.5 q-3 -34 -2 -58z" />
<glyph unicode="&#x431;" horiz-adv-x="950" d="M54 609q0 117 6 213.5t17 173t30 138t40.5 107.5t53.5 81.5t64 60t76 43t86 30t98 21.5q6 2 27.5 6t28.5 5.5t24.5 5.5t27.5 8t23.5 10t25.5 13q59 39 59 91h127q13 -69 -3.5 -125t-44 -87.5t-72 -56.5t-67.5 -32t-50 -14q-3 -1 -4 -1q-8 -2 -25.5 -5t-26.5 -5t-25.5 -5 t-26.5 -5.5t-24.5 -6t-26 -7t-24.5 -7.5t-25 -9q-24 -9 -46 -19.5t-58 -38t-61 -62t-44 -94t-19 -131.5q41 82 118.5 135t181.5 51q84 -1 157 -38t128.5 -106t86.5 -178t29 -244q-2 -70 -11.5 -132t-24 -111t-35.5 -90.5t-45 -72.5t-53 -55.5t-58.5 -40.5t-62 -27t-63.5 -16 t-63 -6q-67 -1 -123.5 15t-96.5 42t-73 67.5t-53.5 81t-36 93.5t-23.5 94.5t-12.5 93.5t-5.5 81t-2 67zM324.5 645.5q-1.5 -48.5 0.5 -91.5v-29v-24v-53t1 -55.5t3 -58.5t5.5 -56t9.5 -55.5t14 -48.5t19.5 -43.5t26 -32t34 -23t42.5 -7.5q28 0 50.5 11t38.5 35t27.5 48.5 t18.5 64t11 68.5t5.5 75.5t2 70.5t0.5 67v19v19q2 44 0.5 93.5t-3.5 98t-13 93t-26.5 78.5t-44.5 54.5t-67 21.5q-39 0 -68 -20t-45 -53.5t-26.5 -77.5t-12.5 -92t-3.5 -96.5z" />
<glyph unicode="&#x432;" horiz-adv-x="961" d="M54 0v102h96v861h-96v100h478q76 0 138 -20.5t100.5 -55.5t60.5 -77t26 -87q3 -53 -16.5 -97.5t-54.5 -75.5t-75.5 -51.5t-85.5 -30.5q123 -15 203 -92t77 -190q-1 -58 -19 -104.5t-43 -75.5t-63 -50.5t-69.5 -32t-72 -16t-61 -6.5t-45.5 -1h-478zM393 111q22 -2 75 -2 q6 0 20.5 1t22 1.5t19 2t21 4.5t17.5 7q80 38 80 170q0 55 -11 93.5t-38 68t-78.5 41t-127.5 5.5v-392zM393 620h71q33 0 59.5 8t43 20t29 30t18.5 33t9 33.5t3.5 27.5t0.5 19q0 166 -163 164h-71v-335z" />
<glyph unicode="&#x433;" horiz-adv-x="856" d="M54 0v102h96v861h-96v100h746v-427h-150q-7 159 -21 208q-23 82 -93 104q-53 17 -148 9v-855h96v-102h-430z" />
<glyph unicode="&#x434;" horiz-adv-x="1067" d="M46 111q150 -15 187 163q1 4 1 6l100 683h-128v100h781v-100h-93v-852h117v-438h-143q-3 51 -13 111q-5 39 -8 58t-12.5 50t-23.5 51q-42 57 -134 57h-306q-80 0 -125.5 -87.5t-43.5 -239.5h-156v438zM341 111h309v852h-159l-96 -627q-7 -46 -10 -66t-15 -67t-29 -92z " />
<glyph unicode="&#x435;" horiz-adv-x="872" d="M54 464q-2 100 9.5 185.5t34 148.5t54.5 114t68 83.5t76.5 54.5t78.5 31.5t76 9.5q62 1 120 -23t107.5 -74t84 -120t50 -169.5t5.5 -213.5h-506q-16 -386 163 -389q32 -1 62 13t55.5 42.5t40.5 78.5t15 116h170q-2 -83 -23.5 -148.5t-56 -108t-81.5 -70.5t-97.5 -39.5 t-106.5 -11.5q-177 4 -284.5 132.5t-114.5 357.5zM309 694q2 -50 3 -93h279q3 100 -8.5 175t-33 116t-46 61t-52.5 20q-43 2 -73 -23t-43 -65.5t-20.5 -90.5t-5.5 -100z" />
<glyph unicode="&#x436;" horiz-adv-x="1516" d="M54 894q5 88 64 141t148 56q38 2 70 -5t54 -21t39 -30t28 -37.5t18 -39t11 -38t5 -31t2 -21.5q0 -11 1 -38.5t1.5 -42.5t3 -37t6.5 -41q6 -32 19.5 -55t30.5 -33t36 -16.5t35 -5t29 1.5v362h-96v100h396v-100h-94v-362q11 -3 25 -1.5t28.5 3t29.5 9.5t28 19.5t23.5 31.5 t15.5 46q5 30 7 86.5t3 72.5q1 12 2.5 25t7.5 37.5t15 45t26.5 43.5t40 39t57.5 25.5t78 7.5q88 -3 147.5 -56t66.5 -141q3 -67 -31 -103.5t-80 -37.5q-46 -2 -80.5 27.5t-29.5 85.5q0 30 13 56q9 14 17 22v19q-10 14 -28 17q-17 3 -29.5 -1.5t-19 -13t-11 -23t-6 -25.5 t-2.5 -26q0 -23 0.5 -77t-2.5 -73q-2 -26 -7 -47.5t-17 -49.5t-37.5 -50.5t-63.5 -36.5q135 -21 199 -90.5t61 -210.5q0 -10 -1 -31t-1 -34t1.5 -29t8 -27t16.5 -17q15 -11 40.5 -14.5t43.5 -1.5v-102q-65 -26 -143 -26q-16 0 -28 1.5t-30.5 5t-33.5 12.5t-31.5 22 t-29.5 35.5t-24 51.5t-17.5 70.5t-7.5 91.5q0 38 -0.5 54.5t-5.5 45t-15 48.5q-15 25 -37.5 45t-63 34.5t-88.5 9.5v-401h94v-100h-396v100h96v401q-70 7 -119.5 -21.5t-69.5 -67.5q-4 -7 -7 -14t-5 -13t-4 -14.5t-3 -14t-2 -15.5t-1.5 -14.5t-0.5 -16v-15v-16v-15.5 q-1 -57 -9.5 -103t-20.5 -75.5t-30.5 -51.5t-34.5 -33t-37.5 -17.5t-35.5 -8t-32 -1.5q-80 0 -145 26v102q20 -2 45.5 1.5t38.5 14.5q7 4 12.5 11t8 17.5t4.5 18t2 23v22t-1 24.5t-2 22q-1 140 61 209t201 92q-30 11 -52.5 28t-35.5 35t-21.5 41.5t-12 40.5t-5.5 39 q-3 28 -2.5 73t0.5 77q-1 16 -2.5 27t-5.5 25t-11 22.5t-19 13t-28 1.5q-21 -3 -28 -17q-3 -10 0 -19q1 -3 3.5 -7t4.5 -8t3 -7q19 -25 19 -56q3 -54 -30.5 -84.5t-78.5 -28.5q-47 1 -81 37.5t-31 103.5z" />
<glyph unicode="&#x437;" horiz-adv-x="883" d="M54 266q4 68 41.5 107t90.5 39q52 0 90 -35.5t38 -94.5q-3 -31 -21 -63q-14 -19 -18 -30q-14 -19 -4 -39q5 -26 41.5 -46t92.5 -20q65 0 101 26.5t49 60.5q16 34 16 111q0 4 1 18t1 19v16.5t-0.5 18.5t-2 16.5t-4.5 17.5q-30 121 -239 121v100q47 -4 84.5 3t60.5 19 t39.5 34t24.5 39t12 42.5t4.5 37t0.5 30.5q0 12 -1 25t-8 38t-18.5 43t-36 31.5t-57.5 11.5q-37 -2 -66 -22.5t-45 -47.5t-27 -62t-14.5 -61.5t-4.5 -51.5h-145v345h145v-67q84 90 207 95q78 3 148.5 -30t115.5 -96.5t48 -141.5q0 -54 -19.5 -99t-52.5 -75.5t-67 -50 t-71 -32.5q28 -5 58 -14.5t66 -31.5t62.5 -52t43 -78t13.5 -106q-5 -98 -63.5 -170t-148.5 -107t-197 -33q-91 2 -163.5 28.5t-115.5 68.5t-64.5 92.5t-20.5 102.5z" />
<glyph unicode="&#x438;" horiz-adv-x="1026" d="M54 0v102h96v861h-96v100h401v-100h-93v-572l302 520v52h-98v100h407v-100h-95v-861h95v-102h-407v102h98v564l-302 -521v-43h93v-102h-401z" />
<glyph unicode="&#x439;" horiz-adv-x="1026" d="M54 0v102h96v861h-96v100h401v-100h-93v-572l302 520v52h-98v100h407v-100h-95v-861h95v-102h-407v102h98v564l-302 -521v-43h93v-102h-401zM221 1446q3 56 41 90t90 32q46 -3 76 -33t34 -64q0 -21 -17 -55q-1 -2 -5 -7.5t-6 -8.5t-4.5 -7.5t-3.5 -9.5t-1 -10 q-2 -20 21.5 -41.5t65.5 -21.5q40 0 65 21.5t24 41.5q-2 14 -22 43q-15 25 -15 55q2 34 30.5 64t75.5 33q54 2 91.5 -32t41.5 -90q2 -32 -8.5 -64.5t-34 -62.5t-57.5 -53.5t-83.5 -37.5t-107.5 -14q-72 0 -130.5 21.5t-93 56t-52.5 74.5t-15 80z" />
<glyph unicode="&#x43a;" horiz-adv-x="1024" d="M54 0v100h94v863h-94v100h423v-100h-93v-362q13 -1 29 -1.5t34.5 6t35 17t29 33t17.5 53.5q6 24 8.5 49t2.5 61.5t1 48.5q0 13 1.5 25.5t7.5 37t15 45t26.5 43.5t40.5 39t58 25.5t78 7.5q89 -3 148 -56t64 -141q3 -67 -30.5 -103.5t-81.5 -37.5q-43 -2 -77.5 27.5 t-31.5 85.5q3 27 18 56q10 16 12 22q4 9 0 19q-3 13 -28 17q-16 3 -27.5 -2t-18 -13t-10.5 -23t-5 -25t-2 -26q-1 -18 -1.5 -69.5t-2.5 -80.5q-2 -26 -7 -47.5t-17.5 -49.5t-38.5 -50.5t-65 -36.5q138 -21 201 -90.5t60 -210.5q0 -3 -1 -17t-1 -19v-17.5t0.5 -18.5 t1.5 -16.5t3.5 -16t5.5 -13t8 -12.5t11 -8q12 -11 37.5 -14.5t44.5 -1.5v-102q-71 -26 -146 -26q-17 0 -31.5 1.5t-35.5 8t-38 18t-35 33.5t-30.5 51.5t-21 75t-8.5 102.5v22t-0.5 23.5t-1 20t-2 23t-3.5 19.5t-6 21.5t-10 18.5q-18 39 -67 67.5t-117 21.5v-401h93v-100 h-423z" />
<glyph unicode="&#x43b;" horiz-adv-x="1131" d="M32 200q7 64 44.5 104t86.5 43q47 0 82 -35t35 -84q0 -33 -16 -55q-2 -3 -7 -11t-7 -12.5t-4.5 -11t-2.5 -13.5q-1 -7 0 -14.5t6.5 -15.5t16.5 -9t29 5q25 8 43.5 28.5t30 51.5t18.5 62t10 74.5t4 74t1 73.5v508h-92v100h768v-100h-96v-863h96v-100h-430v100h96l2 852 h-175v-470q0 -63 -3 -112.5t-11 -104t-21 -95t-36 -79t-53.5 -63t-74.5 -39t-99 -15.5q-58 0 -106 19.5t-77.5 52t-44.5 72.5t-13 82z" />
<glyph unicode="&#x43c;" horiz-adv-x="1284" d="M54 0v102h96v861h-96v100h455l125 -661l139 661h457v-100h-96v-861h96v-102h-432v102h98v861l-230 -963h-118l-227 963v-861h93v-102h-360z" />
<glyph unicode="&#x43d;" horiz-adv-x="1065" d="M54 0v102h96v861h-96v100h428v-100h-94v-340h291v340h-95v100h427v-100h-95v-861h95v-102h-427v102h95v401h-293l2 -401h94v-102h-428z" />
<glyph unicode="&#x43e;" horiz-adv-x="981" d="M54 532q0 90 15 166.5t38 130t56.5 97t66 70t71 46.5t67 29t59 14t42 5.5t19.5 0.5q135 0 235.5 -73t152.5 -199t52 -287t-52 -286.5t-152.5 -198.5t-235.5 -73q-132 0 -231.5 73t-151 198.5t-51.5 286.5zM310 416.5q0 -29.5 3.5 -81t9.5 -80t19 -66t31.5 -57t47 -33.5 t65.5 -15q40 -1 70.5 13t50 34t33 58.5t20.5 68.5t10.5 84.5t4 85.5t0.5 90v13.5v14.5q0 59 -0.5 90.5t-4 86t-10.5 84.5t-20.5 68.5t-33 58.5t-50 34.5t-70.5 13.5q-37 0 -65.5 -14.5t-47 -34t-31.5 -57t-19 -66t-9.5 -80.5t-3.5 -82v-87v-29v-30v-85.5z" />
<glyph unicode="&#x43f;" horiz-adv-x="1072" d="M54 0v100h94v863h-94v100h965v-100h-93v-863h93v-100h-428v100h93v850h-296v-850h94v-100h-428z" />
<glyph unicode="&#x440;" horiz-adv-x="1015" d="M54 -319h96v1265h-89v106q59 2 171 21q58 13 93 18q8 1 28 4.5t31 4.5v-154q40 61 99 100.5t120 44.5q32 4 66 -2t69.5 -24t68.5 -47t62 -75t49.5 -104t32.5 -138t10 -174q-2 -97 -16 -178.5t-35.5 -137.5t-51.5 -99.5t-61 -69t-65.5 -41.5t-64 -21.5t-58.5 -5.5 q-57 0 -119 30t-106 91v-414h96v-99h-426v99zM393 492q0 -48 0.5 -74t3.5 -73t9 -74.5t17 -62.5t27 -54t41 -33t57 -14q30 -2 59.5 16t49.5 46q16 22 25 52.5t10.5 51.5t3.5 59v11q1 22 2.5 62t3 72.5t1.5 60.5q0 30 -2.5 94.5t-2.5 98.5q0 6 -0.5 21.5t-1 22.5t-1.5 21.5 t-2.5 22.5t-4 20.5t-6 21.5t-9 19t-11.5 18q-20 25 -48.5 39.5t-58.5 12.5q-32 -1 -58 -16.5t-42.5 -38t-28.5 -58.5t-18.5 -68t-10 -78t-4 -77t-0.5 -76v-46z" />
<glyph unicode="&#x441;" horiz-adv-x="900" d="M54 523q1 84 12 156.5t31 126t45 97.5t56 74t62.5 52t66.5 34.5t66 19t62 8.5q82 5 151 -19.5t112.5 -67t68.5 -92.5t29 -101q3 -72 -36 -122.5t-103 -52.5q-60 -2 -99.5 38.5t-39.5 89.5q0 34 19 61q3 5 16.5 22.5t17.5 27.5q9 36 -22 69.5t-89 28.5q-41 -2 -71.5 -24 t-48 -57.5t-29 -81.5t-14.5 -95.5t-5 -99.5t0 -94v-18q1 -52 1.5 -79.5t4 -76.5t10 -76.5t19 -63.5t30.5 -55t45 -34t62 -16q37 -2 74 19t60 54q6 9 10.5 18t8.5 20.5t6 19.5t4.5 22.5t3.5 20.5t3.5 22.5t2.5 20.5q1 7 2 24.5t3 25.5h163q1 -32 -1 -63t-10.5 -70.5 t-22.5 -73.5t-40 -68.5t-61 -59t-86.5 -41t-115.5 -19.5q-86 -3 -157.5 22.5t-122.5 75t-86 119.5t-51.5 153.5t-16.5 178.5z" />
<glyph unicode="&#x442;" horiz-adv-x="929" d="M46 650v413h839v-413h-146q-1 20 -3 57q-3 58 -5.5 86t-11.5 68.5t-24 57.5t-43.5 28t-69.5 5v-850h93v-102h-423v102h95v850q-41 6 -70 -4.5t-44.5 -27t-24.5 -56t-11 -67t-5 -85.5q-2 -41 -3 -62h-143z" />
<glyph unicode="&#x443;" horiz-adv-x="1031" d="M46 955v108h431v-108h-82l208 -623l176 623h-97v108h350v-108h-75l-275 -916q-13 -45 -21.5 -73t-23.5 -71t-27 -71t-31.5 -64.5t-38.5 -60t-44.5 -48t-53.5 -38t-63.5 -22t-74.5 -7.5q-97 1 -160.5 66t-61.5 161q2 71 40 109.5t87 36.5q48 0 84.5 -35t36.5 -91 q0 -24 -8 -53t-20 -40q-3 -4 -9.5 -10.5t-8.5 -9.5q-7 -10 0 -28q7 -13 30 -13q38 -3 66 28q10 8 19 18.5t16 19.5t14 23.5t11 22.5t10 26l8 24t8 27t7 25q3 13 12.5 45.5t15 55.5t8.5 47l-372 916h-91z" />
<glyph unicode="&#x444;" horiz-adv-x="1324" d="M52 553q1 98 13 179.5t31 136.5t45.5 96.5t53 65t57 38t54.5 19t48 3.5q36 0 72.5 -12.5t73.5 -42.5t62 -75v339h-126v110q163 6 325 31v-478q27 42 62.5 71t72.5 43.5t74 15.5q47 1 86.5 -12.5t68 -35.5t52 -56.5t38.5 -68t26 -77t17 -77t9.5 -74.5t4.5 -62.5t1 -47.5 q2 -110 -7 -200t-25.5 -151.5t-41.5 -109t-51.5 -74.5t-57.5 -44t-56.5 -23t-53.5 -6q-56 0 -116.5 35.5t-102.5 81.5v-410h96v-99h-389v99h94v410q-36 -46 -94 -81t-114 -38q-30 -1 -57.5 4t-59 21t-57.5 42.5t-51 71.5t-41.5 104.5t-26.5 146t-9 191.5zM279.5 441 q1.5 -48 4 -94t12.5 -87t25 -72.5t42 -50t62 -19.5q13 -1 27 2t30 10t29.5 22t25 36t18.5 54t7 74v352q0 271 -144 267q-22 -1 -41 -9.5t-32.5 -21t-24 -34.5t-17.5 -40.5t-11.5 -49.5t-7 -52.5t-3.5 -57.5t-1 -55v-55v-26q-2 -45 -0.5 -93zM761 312q0 -57 15 -100t38 -64.5 t46 -31t45 -7.5q23 2 42 11.5t33 25t25 35.5t17.5 43.5t11.5 50t7 54.5t3.5 57t1 56.5t0.5 54.5v10.5v9.5v10q-4 86 -7 173q0 46 -1.5 70.5t-12 59t-32.5 57.5q-15 21 -40.5 34.5t-52.5 13.5q-54 0 -96.5 -53t-42.5 -151v-419z" />
<glyph unicode="&#x445;" horiz-adv-x="1050" d="M46 0v111h79l280 423l-246 427h-86v102h434v-102h-102l148 -261l143 261h-100v102h380v-102h-96l-251 -375l289 -475h87v-111h-437v111h91l-175 294l-159 -294h80v-111h-359z" />
<glyph unicode="&#x446;" horiz-adv-x="1097" d="M54 0v102h96v861h-96v100h428v-100h-96v-854h273v854h-97v100h427v-100h-93v-854h147v-450h-147q-6 75 -7 91q0 6 -2 30.5t-3 34.5t-4 29t-8.5 33.5t-12.5 29.5q-8 17 -16 30.5t-18 23t-17.5 16.5t-19.5 11.5t-19 7t-21 3.5t-19.5 1.5t-21.5 0t-21 -0.5h-632z" />
<glyph unicode="&#x447;" d="M46 963v100h425v-100h-98v-293q0 -4 -0.5 -21.5t0 -23.5t1.5 -22t3.5 -22.5t7 -19.5t12 -20t17 -15.5t23.5 -14t31 -8.5q33 -8 80.5 6t83.5 34v420h-98v100h432v-100h-98v-861h98v-102h-432v102h98v345q-130 -76 -252 -74q-50 1 -89 15t-63.5 34t-42.5 51.5t-26.5 57 t-13.5 62t-5.5 56t-0.5 47.5v267h-93z" />
<glyph unicode="&#x448;" horiz-adv-x="1501" d="M54 0v102h96v861h-96v100h426v-100h-94v-852h250v852h-95v100h420v-100h-97v-852h253v852h-96v100h425v-100h-95v-861h95v-102h-1392z" />
<glyph unicode="&#x449;" horiz-adv-x="1545" d="M54 0v102h96v861h-96v100h426v-100h-94v-852h250v852h-95v100h420v-100h-97v-852h253v852h-96v100h425v-100h-95v-852h138v-452h-148q-1 15 -3.5 45.5t-3.5 45.5q0 8 -2 30.5t-3 34t-3.5 29.5t-7 33t-10.5 30q-10 19 -20.5 34t-19 25t-21.5 17t-20.5 10.5t-23 5t-22 2 t-24 0t-23.5 -0.5h-1080z" />
<glyph unicode="&#x44a;" horiz-adv-x="1158" d="M46 648v415h672v-100h-93v-334q67 6 130 2.5t118 -13t100.5 -33t78.5 -58t51.5 -88.5t19.5 -125q1 -51 -10 -93.5t-28.5 -73t-46 -54.5t-55 -39.5t-64 -26t-64.5 -16t-65.5 -8t-57 -3t-48.5 -0.5h-5h-384v102h96v861q-33 9 -59 6.5t-46 -9t-34.5 -22.5t-24 -34.5 t-15 -45.5t-8 -55.5t-2.5 -63.5v-91h-156zM625 111h78h6q22 0 33.5 0.5t28.5 4t29 9.5q93 43 85 194q-3 25 -5.5 41t-10.5 42t-25 46t-41 34q-37 23 -124 23q-36 0 -54 -2v-392z" />
<glyph unicode="&#x44b;" horiz-adv-x="1358" d="M54 0v102h96v861h-96v100h423v-100h-93v-334q67 6 129 2.5t117 -13t100.5 -33t78.5 -58t51.5 -88.5t19.5 -125q2 -65 -15.5 -116.5t-44 -83.5t-70.5 -55.5t-79 -34.5t-86 -17t-76.5 -6.5t-65.5 -0.5h-5h-384zM384 111h78h6q63 0 91 14q91 43 83 194q-1 23 -4 41 t-10.5 42.5t-24.5 45t-41 34.5q-39 23 -121 23q-39 0 -57 -2v-392zM880 0v102h96v861h-96v100h420v-100h-93v-861h93v-102h-420z" />
<glyph unicode="&#x44c;" horiz-adv-x="915" d="M54 0v102h96v861h-96v100h423v-100h-93v-334q67 6 129 2.5t117 -13t100.5 -33t78.5 -58t51.5 -88.5t19.5 -125q2 -65 -15.5 -116.5t-44 -83.5t-70.5 -55.5t-79 -34.5t-86 -17t-76.5 -6.5t-65.5 -0.5h-5h-384zM384 111h78h6q63 0 91 14q91 43 83 194q-1 23 -4 41 t-10.5 42.5t-24.5 45t-41 34.5q-39 23 -121 23q-39 0 -57 -2v-392z" />
<glyph unicode="&#x44d;" horiz-adv-x="883" d="M54 256q-1 73 39.5 113.5t99.5 40.5q28 0 51 -11.5t36.5 -29.5t21 -36.5t10.5 -37.5q1 -20 -5 -40.5t-11 -29.5t-18 -32q-2 -4 -5.5 -10t-6 -11t-2.5 -9q-1 -22 30.5 -45t74.5 -29q19 -3 36 -3t42 6t43 22t39.5 44t30 73.5t15.5 110t-4 153.5h-280v114h280q1 23 -5 130 q-2 57 -9.5 98t-29.5 74q-42 70 -111 65q-68 -2 -115 -74t-49 -193h-148v343h119l29 -47q82 86 205 86q53 1 103 -15t99.5 -55.5t86.5 -99t59.5 -154t21.5 -212.5q-2 -274 -121.5 -428t-317.5 -153q-142 2 -237 79.5t-97 202.5z" />
<glyph unicode="&#x44e;" horiz-adv-x="1468" d="M54 0v102h96v861h-96v100h423v-100h-97v-338h161q4 40 13.5 80.5t27.5 87.5t41.5 88.5t58.5 80.5t77 67t98.5 45t120.5 17q100 0 183 -42.5t138 -117t85 -177t30 -222.5q0 -161 -51.5 -286.5t-151 -198.5t-233.5 -73q-86 0 -158.5 31.5t-123 83.5t-86.5 120.5 t-52.5 143.5t-16.5 152h-161v-403h97v-102h-423zM794 441.5q0 -26.5 2 -74t7 -74.5t13 -64.5t22 -59t32.5 -43.5t45 -31.5t60.5 -10.5q39 -1 69 13t49.5 34t33 58.5t20 68.5t10 84.5t4 85.5t0.5 90v13.5v14.5q0 60 -0.5 91t-4 85.5t-10 84.5t-20 68.5t-33 58.5t-49.5 34.5 t-69 13.5q-38 0 -67.5 -15t-48.5 -35.5t-32.5 -59.5t-20 -69.5t-9.5 -84t-3.5 -84t-0.5 -88.5v-14.5v-13.5v-76.5z" />
<glyph unicode="&#x44f;" horiz-adv-x="990" d="M46 0v107q27 -7 51.5 1t36.5 24q4 4 7 9t5 9t3.5 10.5t2.5 9.5t2 11.5t1 11t0.5 12.5t1.5 11q0 30 1 46t3 41t5.5 39.5t9 34.5t13.5 32.5t19.5 28.5t27.5 27t35.5 23t45 21.5t56.5 17.5q-115 22 -186.5 96.5t-65.5 179.5q3 53 23 95.5t48 69t68 46t72.5 28.5t71.5 14.5 t56 6t35 0.5h442v-100h-98v-861h98v-102h-430v102h96v375q-41 5 -74 -2.5t-55 -24.5t-36.5 -35.5t-23.5 -39.5q-12 -24 -16 -51.5t-5 -73t-2 -57.5q-11 -198 -177 -219q-73 -8 -168 26zM364 779q0 -45 11.5 -80.5t31 -56.5t44.5 -36t51.5 -19t52.5 -6t48 3v379 q-57 5 -99 -0.5t-69 -20t-43 -39t-22.5 -54.5t-5.5 -70z" />
<glyph unicode="&#x451;" horiz-adv-x="872" d="M54 464q-2 100 9.5 185.5t34 148.5t54.5 114t68 83.5t76.5 54.5t78.5 31.5t76 9.5q62 1 120 -23t107.5 -74t84 -120t50 -169.5t5.5 -213.5h-506q-16 -386 163 -389q32 -1 62 13t55.5 42.5t40.5 78.5t15 116h170q-2 -83 -23.5 -148.5t-56 -108t-81.5 -70.5t-97.5 -39.5 t-106.5 -11.5q-177 4 -284.5 132.5t-114.5 357.5zM111 1434q-2 52 39 97t91 46q34 1 66.5 -19t52.5 -52t20 -65t-19.5 -64t-51 -50t-64.5 -19q-49 0 -90 38.5t-44 87.5zM309 694q2 -50 3 -93h279q3 100 -8.5 175t-33 116t-46 61t-52.5 20q-43 2 -73 -23t-43 -65.5 t-20.5 -90.5t-5.5 -100zM495 1434q-2 53 38.5 97.5t91.5 46t95 -42t44 -94.5t-42 -92t-93 -41q-49 0 -90 38.5t-44 87.5z" />
<glyph unicode="&#x454;" horiz-adv-x="883" d="M54 555q0 118 22.5 212.5t59.5 154t86.5 99t99.5 55.5t103 15q123 0 204 -86l30 47h118v-343h-148q-1 121 -48 193t-115 74q-28 2 -58.5 -12t-53.5 -53q-15 -23 -23.5 -55t-10.5 -55.5t-4 -61.5q-5 -107 -4 -130h279v-114h-279q-4 -62 -5.5 -112.5t5.5 -90t14 -70 t20.5 -52.5t25.5 -37.5t28.5 -25t30.5 -14.5t30.5 -6t28 -0.5t24.5 2.5q42 6 74 29t30 45q0 5 -6 16t-7 14q-1 2 -3 5q-8 14 -12.5 22t-10 21t-7.5 26.5t-1 27.5q2 19 10 37.5t21.5 36.5t36 29.5t50.5 11.5q59 0 99.5 -40.5t38.5 -113.5q-1 -83 -45.5 -147.5t-120 -98.5 t-168.5 -36q-197 -1 -317 153t-122 428z" />
<glyph unicode="&#x455;" horiz-adv-x="883" d="M59 271q3 67 41 106t91 39q52 0 90 -35.5t38 -94.5q-4 -30 -22 -63q-14 -19 -17 -30q-15 -18 -5 -39q3 -12 13 -23.5t26.5 -21t41.5 -15t54 -5.5q69 0 118.5 47t46.5 100q-2 25 -14.5 49t-31 42.5t-46.5 39.5t-53 37t-58 37.5t-56 38.5q-44 32 -73 55.5t-64.5 58.5 t-55.5 66.5t-34 73t-14 84.5q3 78 47.5 141.5t115 97t148.5 30.5q124 -5 208 -96v68h145v-345h-145q-1 24 -5 49.5t-14.5 59.5t-27 61t-45.5 48t-66 27q-156 23 -156 -100q0 -20 7.5 -40t17 -36.5t29 -36t32.5 -31.5t38 -30t36 -25.5t35 -23.5q9 -6 42.5 -28.5t45.5 -30.5 t42.5 -30t43.5 -33t38 -32.5t36.5 -36t28.5 -36t25 -39.5t14 -40t7 -44q3 -98 -47.5 -169t-135.5 -105t-192 -32q-92 2 -164.5 28t-115.5 68t-64.5 92t-19.5 103z" />
<glyph unicode="&#x456;" horiz-adv-x="579" d="M73 952l2 111h437v-100h-96v-863h96v-100h-430v100h96l2 852h-107zM150 1403q0 67 47.5 112t112.5 45q44 0 80.5 -22t56 -58t19.5 -77q0 -42 -20 -78t-56 -58t-80 -22q-69 0 -114.5 46.5t-45.5 111.5z" />
<glyph unicode="&#x457;" horiz-adv-x="579" d="M-46 1427q-1 53 40 97.5t90 46.5q34 1 66.5 -19t52.5 -52.5t20 -65.5q0 -51 -41.5 -92.5t-92.5 -41.5q-49 0 -90 39t-45 88zM73 952l2 111h437v-100h-96v-863h96v-100h-430v100h96l2 852h-107zM339 1427q-2 53 38.5 97.5t91 46t94.5 -42t44 -94.5t-41.5 -92.5 t-92.5 -41.5q-49 0 -90 39t-44 88z" />
<glyph unicode="&#x458;" horiz-adv-x="770" d="M30 -316q-11 70 20.5 114.5t81.5 51.5q47 7 88.5 -20.5t52.5 -81.5q6 -75 -11 -98q-16 -21 -17 -23q-4 -15 5 -27q10 -10 32 -10q10 1 20.5 4t20.5 7t18.5 9.5t12.5 12.5q24 25 36.5 53.5t16 48.5t7.5 64q4 30 -7.5 157.5t-11.5 146.5l2 853h-106l2 111h436v-100h-95 v-864q0 -68 -9.5 -135t-27 -130.5t-46.5 -119t-66.5 -99.5t-87.5 -72.5t-108 -37.5q-96 -15 -169 37t-90 148zM369 1395q0 67 47 112.5t111 45.5q67 0 112 -47t45 -111t-45 -110t-112 -46q-68 0 -113 46t-45 110z" />
<glyph unicode="&#x45e;" horiz-adv-x="1031" d="M46 955v108h431v-108h-82l208 -623l176 623h-97v108h350v-108h-75l-275 -916q-13 -45 -21.5 -73t-23.5 -71t-27 -71t-31.5 -64.5t-38.5 -60t-44.5 -48t-53.5 -38t-63.5 -22t-74.5 -7.5q-97 1 -160.5 66t-61.5 161q2 71 40 109.5t87 36.5q48 0 84.5 -35t36.5 -91 q0 -24 -8 -53t-20 -40q-3 -4 -9.5 -10.5t-8.5 -9.5q-7 -10 0 -28q7 -13 30 -13q38 -3 66 28q10 8 19 18.5t16 19.5t14 23.5t11 22.5t10 26l8 24t8 27t7 25q3 13 12.5 45.5t15 55.5t8.5 47l-372 916h-91zM241 1446q3 56 41.5 90t90.5 32q46 -3 75.5 -33t33.5 -64 q0 -24 -16 -55q-1 -2 -6.5 -9t-7.5 -11t-4.5 -10.5t-2.5 -12.5q-2 -20 21.5 -41.5t65.5 -21.5q40 0 65 21.5t23 41.5q-2 16 -19 43t-17 55q2 34 31 64t77 33q53 2 90 -32t41 -90q2 -41 -15.5 -81t-52.5 -74t-93 -55.5t-130 -21.5t-130.5 21.5t-93 56t-52.5 74.5t-15 80z" />
<glyph unicode="&#x2000;" horiz-adv-x="990" />
<glyph unicode="&#x2001;" horiz-adv-x="1980" />
<glyph unicode="&#x2002;" horiz-adv-x="990" />
<glyph unicode="&#x2003;" horiz-adv-x="1980" />
<glyph unicode="&#x2004;" horiz-adv-x="660" />
<glyph unicode="&#x2005;" horiz-adv-x="495" />
<glyph unicode="&#x2006;" horiz-adv-x="330" />
<glyph unicode="&#x2007;" horiz-adv-x="330" />
<glyph unicode="&#x2008;" horiz-adv-x="247" />
<glyph unicode="&#x2009;" horiz-adv-x="396" />
<glyph unicode="&#x200a;" horiz-adv-x="110" />
<glyph unicode="&#x2010;" horiz-adv-x="519" d="M65 468v187h388v-187h-388z" />
<glyph unicode="&#x2011;" horiz-adv-x="519" d="M65 468v187h388v-187h-388z" />
<glyph unicode="&#x2012;" horiz-adv-x="519" d="M65 468v187h388v-187h-388z" />
<glyph unicode="&#x2013;" horiz-adv-x="1490" d="M73 723v164h1343v-164h-1343z" />
<glyph unicode="&#x2014;" horiz-adv-x="1848" d="M65 505v152h1715v-152h-1715z" />
<glyph unicode="&#x2018;" horiz-adv-x="512" d="M89 1232q-2 76 21.5 154.5t60.5 141t85 116.5l135 -64q-29 -36 -72 -116.5t-37 -108.5q5 -16 15 -23q7 -5 15 -8t19 -6.5t16 -5.5q35 -15 57.5 -55t22.5 -84q-1 -66 -54.5 -113.5t-118.5 -46.5q-22 1 -43.5 8t-44 23t-39 40t-27.5 62t-11 86z" />
<glyph unicode="&#x2019;" horiz-adv-x="512" d="M89 1484q0 70 51 116t116 44q29 -1 56.5 -12.5t53.5 -35t43 -66.5t18 -100q1 -78 -23 -156.5t-62 -142t-88 -118.5l-131 67q34 49 74.5 123t34.5 100q-8 16 -18 22q-6 6 -23 12.5t-22 10.5q-36 13 -59 53t-21 83z" />
<glyph unicode="&#x201c;" horiz-adv-x="1111" d="M161 1232q-3 112 44.5 220t124.5 192l134 -64q-30 -38 -72.5 -118t-34.5 -107q7 -18 14 -23t15 -8.5t17.5 -6.5t14.5 -5q36 -15 59.5 -54.5t23.5 -84.5q-4 -67 -56.5 -114t-117.5 -46q-28 1 -55 12.5t-52.5 35t-41.5 68t-17 103.5zM612 1232q-2 113 46.5 221t126.5 191 l131 -64q-31 -42 -72.5 -120t-34.5 -105q6 -16 16 -23q6 -7 24 -13l21 -7q36 -15 59 -55t21 -84q0 -67 -51.5 -114t-115.5 -46q-29 1 -56 12.5t-53 35t-43 68t-19 103.5z" />
<glyph unicode="&#x201d;" horiz-adv-x="1111" d="M161 1484q0 69 51.5 115.5t117.5 44.5q28 -1 55.5 -12.5t53 -35t42.5 -66.5t20 -100q1 -78 -23 -156.5t-62 -142t-89 -118.5l-132 67q35 49 74.5 123t32.5 100q-4 14 -16 22q-6 6 -23 12.5t-22 10.5q-35 13 -58.5 53t-21.5 83zM612 1484q3 70 55 116t118 44 q28 -1 55 -12.5t52.5 -35t41 -66.5t16.5 -100q3 -114 -44 -222.5t-123 -194.5l-135 67q33 43 74.5 119.5t34.5 103.5q-4 14 -16 22q-6 5 -14.5 8.5t-17.5 7t-15 7.5q-23 8 -42.5 30t-29.5 50t-10 56z" />
<glyph unicode="&#x201e;" horiz-adv-x="1111" d="M154 169q0 69 51.5 114.5t117.5 43.5q28 0 55.5 -11.5t53 -35t42 -66.5t19.5 -101q1 -114 -47 -222t-125 -193l-132 66q34 49 73.5 122.5t32.5 100.5q-3 14 -15 22q-6 6 -23.5 13t-22.5 10q-35 13 -58 53.5t-22 83.5zM605 169q3 69 55 114.5t117 43.5q28 0 55.5 -11.5 t53 -35t41.5 -66.5t17 -101q2 -77 -21.5 -155.5t-61 -141.5t-86.5 -118l-133 66q17 23 43 64.5t48 90.5t17 68q-3 14 -15 22q-9 6 -26 13t-23 10q-35 13 -58 53t-23 84z" />
<glyph unicode="&#x2022;" horiz-adv-x="1501" d="M534 803q0 61 31 111.5t80.5 77.5t104.5 27q88 0 152 -61.5t64 -154.5q0 -46 -18 -86t-47.5 -68t-69 -44.5t-81.5 -16.5q-85 0 -150.5 62t-65.5 153z" />
<glyph unicode="&#x2026;" horiz-adv-x="1390" d="M89 128q0 67 47 111.5t112 44.5q66 0 111.5 -46.5t45.5 -109.5q0 -65 -45 -111.5t-112 -46.5q-69 0 -114 46.5t-45 111.5zM543 128q0 66 47.5 111t112.5 45q66 0 111 -46.5t45 -109.5q0 -65 -44.5 -111.5t-111.5 -46.5q-69 0 -114.5 46.5t-45.5 111.5zM998 128 q0 33 13 62.5t34.5 50t50.5 32t61 11.5q66 0 111.5 -46.5t45.5 -109.5q0 -65 -45 -111.5t-112 -46.5q-69 0 -114 46.5t-45 111.5z" />
<glyph unicode="&#x202f;" horiz-adv-x="396" />
<glyph unicode="&#x2039;" horiz-adv-x="633" d="M46 568l297 432h210l-294 -432l294 -429h-210z" />
<glyph unicode="&#x203a;" horiz-adv-x="627" d="M46 139l284 429l-284 432h197l303 -432l-303 -429h-197z" />
<glyph unicode="&#x205f;" horiz-adv-x="495" />
<glyph unicode="&#x20ac;" horiz-adv-x="1072" d="M32 616l38 107h87v80v67h-125l38 108h93q14 167 48 288t93 207t148.5 128.5t211.5 42.5q128 0 200 -31t114 -81l11 -216h-50q-9 69 -35.5 114.5t-68 66.5t-96.5 21q-60 0 -105 -35t-75 -105.5t-47 -169t-24 -230.5h410l-39 -108h-373v-72v-75h321l-37 -107h-284 q10 -255 76 -389t182 -134q75 0 128 48.5t67 149.5h50l-11 -209q-44 -53 -116.5 -82.5t-197.5 -29.5q-232 0 -351 161.5t-142 484.5h-139z" />
<glyph unicode="&#x2122;" horiz-adv-x="963" d="M65 1462v148h321v-148h-50q-1 5 -2 17t-2 17q0 5 -1 12t-1 10q-6 32 -11 42q-8 9 -23.5 14.5t-33.5 2.5v-390h42v-33h-159v33h44v390q-9 2 -17 1t-15.5 -4t-13 -6.5t-9.5 -7.5q-6 -10 -11 -42q0 -3 -1 -10t-1 -12q-1 -5 -2.5 -17t-3.5 -17h-50zM423 1154v33h43v388h-43 v35h165l69 -291l70 291h169v-35h-44v-388h44v-33h-169v33h46v393l-105 -426h-43l-102 426v-393h43v-33h-143z" />
<glyph unicode="&#xe000;" horiz-adv-x="1067" d="M0 0v1069h1069v-1069h-1069z" />
</font>
</defs>
</svg>
